<?xml version="1.0" encoding="utf-8"?>
<!-- Generator: Adobe Illustrator 18.0.0, SVG Export Plug-In . SVG Version: 6.00 Build 0)  -->
<!DOCTYPE svg PUBLIC "-//W3C//DTD SVG 1.1//EN" "http://www.w3.org/Graphics/SVG/1.1/DTD/svg11.dtd">
<svg version="1.1" id="Layer_1" xmlns="http://www.w3.org/2000/svg" xmlns:xlink="http://www.w3.org/1999/xlink" x="0px" y="0px"
	 viewBox="0 0 106.3 93" enable-background="new 0 0 106.3 93" xml:space="preserve">
<g>
	<path fill="#FFFFFF" d="M0.9,1.3h104.5v75.2h-8l3.2,14.5c0.2,0.8-0.8,1.5-1.5,0.9L79.4,76.4H0.9V1.3z"/>
	<g>
		<g>
			<path fill-rule="evenodd" clip-rule="evenodd" fill="#3A494F" d="M11.5,0c0.8,0,1.9,0.1,3.1,0.1c0.3,0,0.2,0.1,0.8,0.2
				c1.8,0,3,0.1,4.6,0.1c1.6,0,0.3-0.1,1.9-0.1s0.9,0.1,2.5,0.1c1.6,0,3.4-0.2,5-0.2c1.6,0,0.3,0.1,1.9,0.1c1.6,0,0.9-0.1,2.5-0.1
				s3,0.2,4.1,0.3c2.3-0.1,7.5-0.2,9-0.2c3.1,0,2,0.1,4.8,0.2c0,0-0.7,0,0.9,0c1.6,0,0.9-0.1,2.5-0.1s0.9,0.1,2.5,0.1
				c0.7,0,2.1-0.1,2.7-0.3c2.2,0.1,4.5,0.3,6.1,0.3s5.3-0.2,6.9-0.2c1.6,0,0.3,0.1,1.9,0.1c1.6,0,1.6-0.1,3.1-0.1
				c3.2,0,0.3,0.2,2.5,0.2c1.6,0,0.3-0.1,1.9-0.1c1.6,0,2.2,0.1,3.8,0.1c1.5,0,7.9-0.2,9.4-0.2c1.5,0,4.1,0.1,5.6,0.1
				c0.8,0,1.8,0,2.8,0c0.4,0,0.8,0,1.2,0c0.2,0,0.4,0,0.6,0c0.1,0,0.2,0,0.3,0l0,0.3c0,0.7,0,1.4,0,2c0,0.7-0.1,1-0.2,0.9v10.2
				c0.1-0.7,0.1-1.3,0.2-1.2c0,0.8-0.1,0.8-0.1,2.4c0,1.6,0.1,1.6,0.1,3.1s-0.2,4.1-0.2,5.6s0.1,1.6,0.1,3.1c0,1.6-0.1,0.9-0.1,2.5
				s0.1,2.5,0.2,3.4c-0.1,0.9-0.2,0.1-0.2,1.6s0.1-0.3,0.1,1.3s-0.1-0.3-0.1,1.3c0,1.6,0.1-0.3,0.1,1.3c0,1.6-0.1,0.3-0.1,1.9
				s0.1,2.2,0.1,3.8c0,1.6,0,2.5-0.1,3c0,0.5,0.1,0.8,0.2,0.9c0,0.8-0.1,0.8-0.1,2.4c0,1.6,0.1,1.6,0.1,3.1c0,1.5-0.1,3.5-0.1,5
				c0,1.5,0.1,3.5,0.1,5c0,1.6-0.1,1.7-0.1,2.3c0,3.1,0,6.2,0,9.2c0,0.2,0,0-0.1,0c0,0,0,0.1,0,0.2c0,0.2,0,0.5,0,1
				c-0.1,0.4,0.4,1.6-0.8,1.3c-0.4,0-0.8,0-1.3,0c-0.3,0-0.6,0-0.9,0c-1.3,0.1-2.7,0.1-4,0.2c-0.2,0-0.2,0-0.2,0l-0.1,0l-0.1,0
				c0,0,0,0-0.1,0c0,0,0,0.1,0,0.1c0,0.2,0.1,0.3,0.1,0.3c0,0,0,0-0.1-0.2c0,0,0-0.1-0.1-0.1c0-0.1-0.1-0.1-0.1-0.2c0,0,0-0.1,0-0.1
				l0,0c0,0,0.1,0,0.1,0c0,0-0.1,0-0.2,0c0,0.1,0.1,0.3,0.1,0.5c0.3,1.1,0.5,2.3,0.5,2.3c0.3,1.5,0.3,0.7,0.6,2.2
				c0.3,1.5,0.4,2.2,0.7,3.7c0.3,1.5,0.3,0.9,0.6,2.4c0,0,0,0,0,0c0.2,0.7,0.2,0.8,0.1,0.9c0,0,0,0.1,0,0.2c0,0.1,0,0.2,0,0.3
				c0,0.2,0.1,0.4,0.2,0.8c0.1,0.6,0,1.1-0.2,1.5c-0.2,0.4-0.6,0.6-0.9,0.8c-0.4,0.1-0.8,0.2-1.2,0c-0.2-0.1-0.4-0.2-0.7-0.4
				c-0.2-0.2-0.5-0.4-0.7-0.5c-1.2-1-4.2-3.4-5.4-4.3c-0.9-0.7-3-2.4-3.7-2.8c-0.7-0.6-1.7-1.5-2-1.9c-1.4-1.1-1.6-1.3-1.6-1.2
				c-0.1,0.1,0.9,0.8,0.7,0.8c-1.2-1.1-2.4-2.2-3.7-3.1c-0.2-0.1-0.8-0.6-1.5-1.1c-0.4-0.2-0.7-0.5-1-0.7l-0.2-0.1
				c-0.1,0-0.1-0.1-0.1-0.1c0,0-0.1,0-0.1,0c0,0,0,0,0,0h-0.1h-0.6h-1.2c-0.1-0.1-1.3-0.2-1.8-0.3c-0.5,0-0.8,0.1-1,0.2
				c-1.6-0.1-2.6-0.2-4.2-0.2c-1.6,0-4.1,0.2-5.6,0.2s-0.9-0.1-2.5-0.1c-1.6,0-1.3,0-1.4,0.1c-1-0.1-0.1-0.2-1.7-0.2
				c-1.6,0,0.3,0.1-1.3,0.1c-1.6,0-1.6-0.1-3.1-0.1c-2.7,0-3.4,0-3.9,0.3h-2.3c-0.1-0.1-1-0.3-2-0.3c-1.6,0,0.3,0.1-1.3,0.1
				c-1.6,0,0.3-0.1-1.3-0.1c-1.6,0-2.3,0.1-3.4,0.2c-0.9,0.1-1.9,0-3.5,0c-1.5,0-7.9-0.2-9.4-0.2c-5.4,0-3.8,0.2-6.3,0.2
				c-2.7,0-0.9-0.2-6.3-0.2c-1.5,0-3.5,0.1-5,0.1c-1.6,0-4.2-0.1-6-0.2c-0.5,0-0.8,0.1-0.9,0.2H0.1l-0.1,0c0,0,0-0.1,0-0.1
				C0,77.1,0,77,0,77c0-0.1,0-0.3,0-0.4c0-0.2,0-0.4,0-0.6c0-0.3,0-0.6,0-0.8c0-0.3,0.1-0.5,0.1-1.1c0-0.3,0.1-0.3,0.2-0.8v-1.8
				c0-1.6-0.1-1-0.2-1.9c0-1.2,0-3.1,0-4.3c0-0.6-0.1,0.5-0.1-1.1s0.1-4.2,0.2-6c0-0.5-0.1-0.8-0.2-1c0.1-1,0.1-2.6,0.1-4.2
				S0.1,49.7,0,48.4c0-0.7,0.1-1,0.2-0.9v-3.4c0-0.5-0.1-0.4-0.2-0.5v-3.3c0-1.6,0.1-0.7,0.1-2.3c0-1.6,0-1.9-0.1-2
				c0.1-4.4,0.2-1.7,0.2-6.1c0-2.7-0.2-6-0.2-6.9c0-1.6,0.2-2.8,0.2-4.4s-0.1-0.3-0.1-1.9s0.1,0.3,0.1-1.3c0-1.6-0.1-5.2-0.2-7.2
				c0-0.5,0,0,0-1.5C0,5.9,0,5,0.1,4.1c0-0.4,0-0.8,0.1-1.2l0-0.3c0-0.1,0-0.2,0-0.2l0,0V2.2c0,0-0.1,0-0.2-0.1
				C0.2,2,0.3,1.9,0.3,1.6c0.1,0,0.1,0.1,0.2,0.1c0.3,0,0.4-0.4,0.6-0.4c0.1,0,0.1,0,0.1,0c0,0.1,0.1,0.5,0.3,0.5
				c0.1,0,0.1-0.1,0.2-0.1C1.8,2,2,2.1,2,2.2C2,2.3,2,2.3,2,2.4l0,0c0,0,0,0,0,0.1l0,0.5c0,0.4,0,0.7,0,1.1C1.9,5.7,2,6.4,2,7.9
				C2,9.5,2,8.4,1.9,9c0,2.4-0.1,6.2-0.1,7.7c0,1.6-0.1,2.9,0,3.9c0.1,1,0.2,2.1,0.2,3.6S2,24.7,1.9,25.3c0,1.2,0,3,0,4.6
				c0,1.6,0,4.6,0.1,7.4c-0.1,0.1-0.1-0.6-0.1-1.1c0,0-0.1,1.2-0.2,1.8c0,0.5,0.1,0.5,0.1,2S1.7,41,1.7,41.5c0.1,1.1,0,2.1,0.2,2.1
				s0.1-1.3,0.2-1.2V46c-0.1,0.7-0.2,1.7-0.2,3.3c0,1.6,0.1-0.3,0.1,1.3s-0.1-0.3-0.1,1.3s0.1,0.9,0.1,2.5c0,1.6-0.1,1.6-0.1,3.1
				s0.1,4.2,0.1,5.8C2,64.3,2.1,65,2.1,66C2,66.2,2,64.9,1.9,64.8c0,2.9-0.1,7.3-0.1,8.9c0,0.4,0,0.8,0,1.2c0,0.2,0,0.3,0,0.5
				c0,0,0,0.1,0,0.1l0.1,0l0.1,0l0,0l0.2,0v0c1.8,0,0.7,0.1,1.3,0.1c0.5,0,0.8-0.1,0.9-0.2c0.8,0,0.2,0.1,1.8,0.1s0.6,0,0.7-0.1
				c0.8,0,1.2,0.1,1.1,0.2c2.9,0,6.7,0,9.8,0c0.3,0-0.7,0.1,0.9,0.1s6-0.2,7.5-0.2c1.6,0,2.2,0.2,3.8,0.2s-0.3-0.1,1.3-0.1
				c1.6,0,3.1,0.1,3.6,0.2c0.5,0,0.8-0.1,0.9-0.2h2.3c0.1,0.1,1.3,0.1,1.7,0.2c0.4,0,1.6-0.1,2.2-0.3h2.3c0.1,0.1-1.2,0.1-1.2,0.2
				c0.6,0-0.3,0,1.3,0c1.6,0,2.8-0.2,4.4-0.2c1.6,0,0.9,0.1,2.5,0.1s0.9-0.1,2.5-0.1s0.3,0.1,1.9,0.1c1.6,0,1.3,0,1.4-0.1
				c0.9,0.1,1.8,0.1,2.8,0.2c1,0.1,3,0,4.5,0s3.4,0,4.6,0c0.7,0,1.1-0.1,2-0.2c0,0-0.7,0,0.9,0c1.6,0,2.2,0.1,3,0.2c0.4,0,1,0,2.6,0
				c0.6,0,1.1,0,1.5,0c0.2,0,0.3,0,0.5,0c0.1,0.1,0.2,0.2,0.4,0.3c0.2,0.1,0.3,0.2,0.5,0.4c0.5,0.4,0.8,0.6,1.1,0.8
				c0.7,0.5,0.8,0.5,2,1.4c1.6,1.3,1.7,1.6,3.6,3.2l1.3,1c0.4,0.3,0.3,0.3,0.4,0.2S88,82,88.1,82l3.6,2.8c1.2,1,1.2,1.1,2.5,2.1
				c1.2,1,1.8,1.4,2.6,1.9c0.1,0.2-0.9-0.5-1-0.5c0.4,0.4-0.3-0.1,1,0.8c1.2,1,0.8,0.5,2,1.5c0,0,0.1,0.1,0.1,0.1l0,0
				c0,0,0,0,0.1,0.1c0,0,0.1,0.1,0.1,0.1c0.1,0,0.2,0.2,0.4,0c0.1-0.2,0-0.4,0-0.5l-0.4-1.4c-0.1-0.4-0.2-0.8-0.3-1.3
				c-0.3-1.5-0.4-2.2-0.7-3.7s0,0.3-0.4-1.2c-0.3-1.5,0-0.3-0.3-1.9c-0.3-1.5-0.2-0.3-0.5-1.8l-0.3-1.3c-0.1-0.6-0.2-1.2-0.3-1.7
				l-0.1-0.4c0-0.1,0.1-0.1,0.1-0.1l0.2,0c0.2,0,0.5,0,0.7,0c0.4,0,0.7,0,0.9,0.1c0.3,0,0.6,0,0.9,0c0.8,0,1.5,0,1.5-0.1
				c0-0.1-1.3-0.1-1.2-0.2c2.1,0,2.1,0.1,3.7,0.1c0.7,0,1.2,0,1.1,0c0,0,0,0,0-0.1c0.1,0,0.3,0.1,0.2,0c0-0.1,0.1,0,0.1-0.6
				c0-0.5,0-1.1,0-1.7c0-1.6-0.1-2.2-0.1-3.4c0-0.6,0.1-0.8,0.2-2.3h-0.3v-4.8c0.1-0.1,0.1-1.3,0.2-1.7c-0.1-1.6-0.2-4.9-0.2-6.5
				c0-1.6,0.1-3.1,0.2-3.6c0-0.5-0.1-0.8-0.2-0.9c0.1-2.8,0.2-7.7,0.2-9.2c0-2.1,0-2-0.2-2v-3.3c0-1.6,0.2-3.8,0.2-5.4
				s-0.1-0.9-0.1-2.5c0-1.6,0.1-2.8,0.1-4.4s-0.1-2.2-0.1-3.8c0-1.6,0.1,0.3,0.1-1.3s-0.1-0.9-0.1-2.5c0-1.6,0.1-2.2,0.1-3.8
				s-0.1-0.9-0.1-2.5c0-1.6,0.1,0.3,0.1-1.3c0-1.6-0.1-0.9-0.1-2.5c0-0.8,0-1.6,0.1-2.2c0-0.3,0-0.7,0.1-0.8c0-0.1,0.1-0.2,0.1-0.2
				c0-0.1,0-0.2-0.1-0.2c-0.1,0-0.2,0.1-0.2,0.1c-0.1,0-0.1,0-0.1,0c0,0,0,0-0.1,0c-0.1,0-0.4,0-0.8,0c-1.6,0,0.3,0.1-1.3,0.1
				s0.3-0.1-1.3-0.1s-0.7,0-1,0.1c-1.2,0-4.9-0.1-6,0.1c-0.8,0-1.1-0.1-1.3-0.2c-0.9,0-2-0.1-3.6-0.1c-0.9,0-2.1,0.1-2.6,0.3h-3.5
				c-0.7-0.1-1.1-0.2-2.6-0.2s-0.3,0.1-1.9,0.1s-2.2-0.1-3.8-0.1c-1.6,0-2.1,0-2.7,0c-0.6,0-0.5,0.1-0.8,0.2c-0.7,0-2.2,0-4.5,0.1
				c-0.2-0.1,0.6-0.1,1.1-0.1c0,0-1.2-0.1-1.7-0.2c-1,0.1-2.4,0.1-4,0.1c-1.6,0-2.2-0.1-3.8-0.1c-1.6,0,0.3,0.1-1.3,0.1
				s-0.5-0.1-1.1-0.1c-1.2,0-1.8,0-3.3,0c-1.6,0-3.2,0-4.2,0.1v0c-1.8,0-0.5-0.1-2.1-0.1s-0.9,0.1-2.5,0.1s-0.9-0.1-2.5-0.1
				c-1.6,0-0.3,0.1-1.9,0.1c-1.6,0-0.9-0.1-2.5-0.1c-1.6,0-2.5,0.1-3.4,0.2c-1.5-0.1-3.8-0.2-5.4-0.2c-1.6,0-0.9,0.1-2.5,0.1
				c-1.6,0-0.3-0.1-1.9-0.1c-1.6,0-1.3,0-1.3,0.1c-0.8,0-1.2-0.1-1.1-0.2H10.6C9,2,10.9,2.1,9.3,2.1S9,2,7.5,2C5.9,2,6.5,2.1,5,2.1
				C3.4,2.1,4,2,2.5,2C2.4,2,2.3,2,2.3,2c0,0,0,0,0,0c0,0,0,0,0,0c0,0,0,0,0,0.1C2.1,2,2,1.9,2,1.8c-0.1,0-0.4-0.1-0.4-0.2
				c0,0-0.1,0.1-0.1,0.2H1.3c-0.1,0-0.1-0.1-0.2-0.1C1.1,1.5,1,1.5,1,1.4s0.1-0.1,0.1-0.2C1.1,1.1,1,1,0.9,0.9
				C1,0.7,1.1,0.6,1.2,0.4c0.1,0,0.1,0.1,0.2,0.1V0.2h0.2c0.1,0,0,0.1,0.1,0.1c0,0,0.1-0.1,0.1-0.2c0.1,0,0.1,0,0.1,0.1
				c0.1,0,0.2,0,0.3,0l0.2,0c0.6,0,1.1,0,1.7,0c2.5,0,4.6,0,5.3,0.1c1.6,0,3.3,0,4.4,0C13.1,0.2,11.9,0.1,11.5,0z"/>
		</g>
	</g>
</g>
<g>
</g>
<g>
</g>
<g>
</g>
<g>
</g>
<g>
</g>
<g>
</g>
<g>
</g>
<g>
</g>
<g>
</g>
<g>
</g>
<g>
</g>
<g>
</g>
<g>
</g>
<g>
</g>
<g>
</g>
</svg>
