<?xml version="1.0" encoding="utf-8"?>
<!-- Generator: Adobe Illustrator 18.0.0, SVG Export Plug-In . SVG Version: 6.00 Build 0)  -->
<!DOCTYPE svg PUBLIC "-//W3C//DTD SVG 1.1//EN" "http://www.w3.org/Graphics/SVG/1.1/DTD/svg11.dtd">
<svg version="1.1" id="Layer_1" xmlns="http://www.w3.org/2000/svg" xmlns:xlink="http://www.w3.org/1999/xlink" x="0px" y="0px"
	 viewBox="0 0 58.2 52.5" enable-background="new 0 0 58.2 52.5" xml:space="preserve">
<g>
	<g>
		<path fill="#FFFFFF" d="M54.2,51.7H4c-1.9,0-3.4-1.5-3.4-3.4V8.9c0-1.9,1.5-3.4,3.4-3.4h50.2c1.9,0,3.4,1.5,3.4,3.4v39.4
			C57.6,50.1,56.1,51.7,54.2,51.7z"/>
		<g>
			<g>
				<path fill-rule="evenodd" clip-rule="evenodd" fill="#3A494F" d="M48.4,52.5c-0.4,0-1-0.1-1.6-0.1c-0.2,0-0.1-0.1-0.4-0.1
					c-0.9,0-1.6-0.1-2.4-0.1c-0.8,0-0.2,0.1-1,0.1c-0.8,0-0.5-0.1-1.3-0.1c-0.8,0-1.8,0.1-2.6,0.1c-0.8,0-0.2-0.1-1-0.1
					c-0.8,0-0.5,0.1-1.3,0.1c-0.8,0-1.6-0.1-2.1-0.2c-1.2,0.1-3.9,0.1-4.7,0.1c-1.6,0-1-0.1-2.5-0.1c0,0,0.4,0-0.5,0
					c-0.8,0-0.5,0.1-1.3,0.1s-0.5-0.1-1.3-0.1c-0.4,0-1.1,0.1-1.4,0.2c-1.1-0.1-2.3-0.2-3.2-0.2c-0.8,0-2.8,0.1-3.6,0.1
					c-0.8,0-0.2-0.1-1-0.1c-0.8,0-0.8,0.1-1.6,0.1c-1.7,0-0.2-0.1-1.3-0.1c-0.8,0-0.2,0.1-1,0.1s-1.1-0.1-2-0.1
					c-0.7,0-4.2,0.1-4.9,0.1c-0.4,0-1,0-1.6-0.2c-0.6-0.2-1.1-0.6-1.5-0.9c-0.4-0.3-0.7-0.8-1-1.3C0.1,49.4,0,48.8,0,48.4
					c0-0.4,0.1-0.5,0.1-0.5v-5.3c-0.1,0.4-0.1,0.7-0.1,0.6c0-0.4,0.1-0.4,0.1-1.3c0-0.8-0.1-0.8-0.1-1.6s0.1-2.1,0.1-2.9
					s-0.1-0.8-0.1-1.6c0-0.8,0.1-0.5,0.1-1.3c0-0.8-0.1-1.3-0.1-1.8c0-0.5,0.1,0,0.1-0.8c0-0.8-0.1,0.2-0.1-0.7
					c0-0.8,0.1,0.2,0.1-0.7s-0.1,0.2-0.1-0.7s0.1-0.2,0.1-1s-0.1-1.1-0.1-2s0-1.3,0.1-1.6c0-0.2-0.1-0.4-0.1-0.5
					c0-0.4,0.1-0.4,0.1-1.3c0-0.8-0.1-0.8-0.1-1.6c0-0.7,0.1-1.9,0.1-2.6c0-0.7-0.1-1.9-0.1-2.6c0-0.8,0-0.9,0.1-1.2
					c0-1.6,0-3.2,0-4.8c0-0.2,0.1,0.3,0.1-0.5c0-0.2,0-0.5,0-0.8c0-0.2,0-0.4,0-0.6c0-0.2,0-0.5,0-0.7c0.1-1,0.7-1.9,1.3-2.5
					c0,0,0.3-0.2,0.6-0.4c0.3-0.2,0.6-0.3,0.6-0.3c0.1,0-0.7,0.3-1.2,0.9c0,0,0.5-0.5,1.2-0.7C3.3,5,4,5,4,5c0.8,0,0.4-0.1,1.2-0.1
					C6,4.9,6.3,5,7.1,5C8,5,7.6,4.9,8.5,4.9c0.8,0,0.2,0.1,1,0.1c0.8,0,1.1-0.1,2-0.1c0.8,0,2.8,0.1,3.6,0.1c0.6,0,2,0,2.4-0.1
					c0.5,0,1.2,0.1,1.4,0.1c0.9,0,1.1,0.1,1.1,0s-0.7-0.1-0.6-0.1C20.2,5,21,5,21.8,5c0.2,0,1.8-0.1,2-0.2h1.2C25.1,4.9,25.7,5,26,5
					c0.2,0,0.4-0.1,0.5-0.1C27.3,5,27.9,5,28.7,5c0.8,0,2.1-0.1,2.9-0.1c0.8,0,0.5,0.1,1.3,0.1s0.7,0,0.8-0.1c0.5,0,0.1,0.1,0.9,0.1
					C35.4,5,34.4,5,35.2,5C36,5,36,5,36.9,5c1.4,0,1.8,0,2-0.2h1.2c0,0.1,0.5,0.2,1,0.2C41.9,5,40.9,5,41.8,5C42.6,5,41.6,5,42.4,5
					c0.8,0,1.2-0.1,1.8-0.1c0.5,0,1,0,1.8,0c0.7,0,4.2,0.1,4.9,0.1c2.8,0,2-0.1,3.3-0.1c0.8,0,0.9,0.1,1.3,0.3
					c0.2,0.1,0.4,0.2,0.7,0.4c0.3,0.2,0.8,0.5,1.3,1.2C57.7,7,57.9,7.5,58,8c0.1,0.5,0.1,1,0.1,1.4c0,0.8-0.1,2.2-0.1,3.1
					c0,0.3,0.1,0.4,0.1,0.5v1.1c0,0.8-0.1,0.7-0.1,1.3c0,0.2-0.1,0.1-0.1,0.4v0.9c0,0.8,0.1,0.5,0.1,1c0,0.6,0,1.6,0,2.2
					c0,0.3,0.1-0.3,0.1,0.5c0,0.8-0.1,2.2-0.1,3.1c0,0.3,0.1,0.4,0.1,0.5c0,0.5-0.1,1.4-0.1,2.2s0,1.7,0.1,2.4
					c0,0.4-0.1,0.5-0.1,0.5v1.8c0,0.3,0.1,0.2,0.1,0.3v1.7c0,0.8-0.1,0.4-0.1,1.2s0,1,0.1,1.1c-0.1,2.3-0.1,0.9-0.1,3.2
					c0,1.4,0.1,3.1,0.1,3.6c0,0.8-0.1,1.5-0.1,2.3s0.1,0.2,0.1,1c0,0.8-0.1-0.2-0.1,0.7c0,0.4,0,1.1,0,1.8c0,0.3,0,0.7,0,1.1
					c-0.1,0.4-0.2,0.8-0.3,1c-0.1,0.3,0.1,0-0.5,0.8c-0.3,0.4-0.7,0.7-1.2,1c-0.2,0.1-0.5,0.2-0.7,0.2c-0.1,0-0.3,0.1-0.3,0l0,0
					L55,52c0,0,0,0.1,0,0.1C54.8,52,54.7,52,54.5,52c0,0,0.1-0.1,0.1-0.1c0-0.2-0.3-0.2-0.3-0.4c0-0.1,0-0.1,0-0.1
					c0.1,0,0.3-0.1,0.3-0.2c0-0.1-0.1-0.1-0.1-0.1c0.2,0,0.2-0.2,0.3-0.2c0,0,0.1,0,0.1,0c0,0,0,0,0.1,0c0.1,0,0.1,0,0.2-0.1
					c0.1,0,0.3-0.1,0.4-0.2c0.6-0.3,0.7-0.6,1-1.1c0.3-0.6,0.1-0.2,0.2-0.4c0.1-0.2,0.2-0.5,0.2-0.8c0-0.4,0-0.7,0-1.1
					c0-0.8,0-1.5,0-1.8c0-0.8,0-1.5,0-2c0-0.5-0.1-1.1-0.1-1.9s0-0.3,0.1-0.6c0-0.6,0-1.6,0-2.4c0-0.8,0-2.4-0.1-3.8
					c0.1-0.1,0.1,0.3,0.1,0.6c0,0,0.1-0.6,0.1-0.9c0-0.2-0.1-0.2-0.1-1.1s0-0.6,0.1-0.8c0-0.6,0-1.1-0.1-1.1s-0.1,0.7-0.1,0.6v-1.8
					c0.1-0.4,0.1-0.9,0.1-1.7c0-0.8-0.1,0.2-0.1-0.7c0-0.8,0.1,0.2,0.1-0.7s-0.1-0.5-0.1-1.3s0.1-0.8,0.1-1.6c0-0.8,0-2.2-0.1-3
					c0-0.6-0.1-0.9-0.1-1.4c0.1-0.1,0.1,0.6,0.1,0.6c0-1.5,0.1-3.8,0.1-4.6s0-1.7-0.1-2.2h0c0-0.9,0-0.4,0.1-0.7
					c0-0.3-0.1-0.4-0.1-0.5c0-0.4,0.1-0.1,0.1-0.9s0-0.3-0.1-0.4c0-0.4,0.1-0.6,0.1-0.6c0-0.4,0-0.8,0-1.2c0-0.5,0-0.7-0.1-1.1
					c-0.2-0.7-0.7-1.3-1.3-1.6c-0.1-0.1,0.3,0.1-0.3-0.2c-0.2-0.1-0.4-0.1-0.7-0.1c-0.3,0-0.7,0-1,0c-0.8,0-1.6,0.1-2,0.1
					c-0.8,0-1.1-0.1-2-0.1c-0.8,0,0.2,0.1-0.7,0.1c-0.8,0-1.6-0.1-1.9-0.1c-0.2,0-0.4,0.1-0.5,0.1h-1.2c0,0-0.7-0.1-0.9-0.1
					c-0.2,0-0.8,0.1-1.2,0.2h-1.2c0,0,0.6-0.1,0.6-0.1c-0.3,0,0.2,0-0.7,0c-0.8,0-1.5,0.1-2.3,0.1s-0.5-0.1-1.3-0.1
					c-0.8,0-0.5,0.1-1.3,0.1c-0.8,0-0.2-0.1-1-0.1c-0.8,0-0.7,0-0.8,0.1c-0.5,0-1-0.1-1.5-0.1c-0.5,0-1.5,0-2.4,0
					c-0.8,0-1.8,0-2.4,0c-0.4,0-0.6,0.1-1.1,0.1c0,0,0.4,0-0.5,0c-0.8,0-1.1-0.1-1.6-0.1c-0.2,0-0.5,0-1.4,0c-2.8,0-1.9,0.1-3.3,0.1
					c-1.1,0-1.2-0.1-2.5-0.2h-0.9c-0.3,0-0.2,0-0.2,0.1s0.7,0.1,0.6,0.1h-2.4c-0.8,0-0.9-0.1-1.7-0.1s-1.2,0-1.7,0.1
					c-0.1-0.1,0.6-0.1,0.6-0.1c-0.3,0,0.2,0-0.7,0c-0.8,0-0.5,0.1-1.3,0.1s-0.5-0.1-1.3-0.1c-0.8,0-1.5,0.1-2.3,0.1
					c-0.8,0-1.1-0.1-2-0.1C5,6.1,6,6.2,5.2,6.2c-0.8,0-0.2-0.1-1-0.1c-0.7,0-0.2,0-0.8,0.2C2.7,6.4,2.2,6.8,2,6.9
					C1.7,7.2,1.5,7.6,1.5,7.7c0.1,0,0.3-0.4,0.3-0.4C1.6,7.7,1.5,7.9,1.5,8C1.4,8.2,1.3,8.4,1.3,8.7c0,0.7,0,0.6,0.1,0.7
					c-0.1,0.8-0.1,1.4-0.1,2.2s0.1,1.1,0.1,1.8c0,0.3-0.1,0.4-0.1,1.2h0.2v2.5c0,0-0.1,0.7-0.1,0.9c0.1,0.8,0.1,2.6,0.1,3.4
					c0,0.8-0.1,1.6-0.1,1.9c0,0.2,0.1,0.4,0.1,0.5c-0.1,1.5-0.1,4-0.1,4.8c0,1.1,0,1.1,0.1,1v1.7c0,0.8-0.1,2-0.1,2.8
					s0.1,0.5,0.1,1.3c0,0.8-0.1,1.5-0.1,2.3s0.1,1.1,0.1,2s-0.1-0.2-0.1,0.7s0.1,0.5,0.1,1.3c0,0.8-0.1,1.1-0.1,2s0.1,0.5,0.1,1.3
					s-0.1-0.2-0.1,0.7c0,0.8,0.1,0.5,0.1,1.3c0,0.8-0.1,1.6-0.1,1.8c0,0.2,0.1,0.3,0.2,0.3c0.1,0.3-0.1,0.1,0.2,0.7
					c0.4,0.6,0-0.1,0.4,0.4c0.5,0.5-0.2,0,0.4,0.4c0.6,0.4,0.3,0.1,0.4,0.2C3,50.8,3.5,51,4,51c0.6,0,1.3,0,1.6-0.1
					C6,51,6.1,51,6.2,51.1c0.5,0,1.1,0.1,1.9,0.1c0.5,0,1.1-0.1,1.4-0.2h1.8c0.4,0.1,0.6,0.1,1.4,0.1c0.8,0,0.2-0.1,1-0.1
					c0.8,0,1.1,0.1,2,0.1c0.8,0,1.1,0,1.4,0c0.3,0,0.3-0.1,0.4-0.1c0.3,0,1.2,0,2.3-0.1c0.1,0.1-0.3,0.1-0.6,0.1
					c0,0,0.6,0.1,0.9,0.1c0.5,0,1.3-0.1,2.1-0.1c0.8,0,1.1,0.1,2,0.1c0.8,0-0.2-0.1,0.7-0.1c0.8,0,0.3,0,0.6,0.1c0.6,0,0.9,0,1.7,0
					c0.8,0,1.7,0,2.2-0.1v0c0.9,0,0.3,0.1,1.1,0.1c0.8,0,0.5-0.1,1.3-0.1c0.8,0,0.5,0.1,1.3,0.1s0.2-0.1,1-0.1
					c0.8,0,0.5,0.1,1.3,0.1c0.8,0,1.3-0.1,1.8-0.1c0.8,0.1,2,0.1,2.8,0.1s0.5-0.1,1.3-0.1c0.8,0,0.2,0.1,1,0.1c0.8,0,0.7,0,0.7-0.1
					c0.4,0,0.6,0.1,0.6,0.1h5.6c0.8,0-0.2-0.1,0.7-0.1c0.8,0,0.2,0.1,1,0.1c0.8,0,0.5-0.1,1.3-0.1c0.8,0,0.5,0.1,1.3,0.1
					c0.2,0,0.1,0,0.1-0.1c0.1,0,0.1,0.1,0.2,0.2c0.1,0,0.2,0.1,0.3,0.1c0,0,0-0.1,0-0.1h0.1c0.1,0,0.1,0.1,0.1,0.1
					c0,0.1,0.1,0.1,0.1,0.2c0,0.1-0.1,0.1-0.1,0.1s0.1,0.1,0.1,0.2c-0.1,0.1-0.1,0.2-0.2,0.3c0,0-0.1-0.1-0.1-0.1v0.2h-0.1
					c-0.1,0,0,0-0.1-0.1c0,0,0,0.1-0.1,0.1c0,0-0.1,0-0.1-0.1c-0.1,0-0.1,0-0.2,0l-0.1,0c-0.3,0-0.6,0-0.9,0c-1.3,0-2.4,0-2.8,0
					c-0.8,0-1.7,0-2.3,0C47.6,52.4,48.2,52.5,48.4,52.5z"/>
			</g>
		</g>
	</g>
	<g>
		<path fill="#3A494F" d="M50.9,48.3H7.7c-1.6,0-2.9-1.3-2.9-2.9V11.5c0-1.6,1.3-2.9,2.9-2.9h43.3c1.6,0,2.9,1.3,2.9,2.9v33.9
			C53.9,47,52.5,48.3,50.9,48.3z"/>
		<g>
			<g>
				<path fill-rule="evenodd" clip-rule="evenodd" fill="#3A494F" d="M45.7,49.3c-0.4,0-0.9-0.1-1.4-0.1c-0.1,0-0.1-0.1-0.4-0.1
					c-0.8,0-1.4-0.1-2.1-0.1c-0.7,0-0.1,0.1-0.8,0.1C40.4,49,40.7,49,40,49c-0.7,0-1.5,0.2-2.2,0.2c-0.7,0-0.1-0.1-0.8-0.1
					s-0.4,0.1-1.1,0.1c-0.7,0-1.4-0.2-1.8-0.2c-1,0.1-3.3,0.2-4.1,0.2c-1.4,0-0.9-0.1-2.1-0.1c0,0,0.3,0-0.4,0
					c-0.7,0-0.4,0.1-1.1,0.1c-0.7,0-0.4-0.1-1.1-0.1c-0.3,0-1,0.1-1.2,0.2c-1-0.1-2-0.2-2.7-0.2c-0.7,0-2.4,0.2-3.1,0.2
					c-0.7,0-0.1-0.1-0.8-0.1c-0.7,0-0.7,0.1-1.4,0.1c-1.4,0-0.1-0.2-1.1-0.2c-0.7,0-0.1,0.1-0.8,0.1c-0.7,0-1-0.1-1.7-0.1
					c-0.6,0-3.6,0.1-4.2,0.2c-0.1,0-0.2,0-0.3,0c-0.1,0-0.2,0-0.4,0c-0.3,0-0.5-0.1-0.8-0.2c-0.5-0.2-1-0.5-1.3-0.8
					c-0.3-0.3-0.6-0.7-0.8-1.2c-0.2-0.5-0.3-1-0.3-1.4c0-0.3,0.1-0.5,0.2-0.4v-4.6C4.1,40.7,4.1,41,4,40.9c0-0.4,0.1-0.4,0.1-1.1
					S4,39.2,4,38.5s0.2-1.8,0.2-2.5s-0.1-0.7-0.1-1.4s0.1-0.4,0.1-1.1S4.1,32.3,4,31.9c0-0.4,0.2,0,0.2-0.7s-0.1,0.1-0.1-0.6
					s0.1,0.1,0.1-0.6s-0.1,0.1-0.1-0.6s0.1-0.1,0.1-0.8s-0.1-1-0.1-1.7s0-1.1,0.1-1.3c0-0.2-0.1-0.3-0.2-0.4c0-0.4,0.1-0.4,0.1-1.1
					S4,23.4,4,22.7s0.1-1.5,0.1-2.2S4,18.9,4,18.2c0-0.7,0-0.8,0.1-1c0-1.4,0-2.8,0-4.1c0-0.2,0.1,0.3,0.1-0.4c0-0.2,0-0.4,0-0.7
					c0-0.1,0-0.3,0-0.5c0-0.2,0-0.4,0-0.6c0.1-0.9,0.6-1.7,1.2-2.2c0,0,0.2-0.2,0.5-0.3C6.1,8.1,6.4,8,6.4,8c0.1,0-0.7,0.3-1.1,0.8
					c0,0,0.5-0.4,1.1-0.7C7,7.9,7.7,7.9,7.7,7.9c0.7,0,0.3-0.1,1-0.1c0.7,0,1,0.1,1.7,0.1c0.7,0,0.4-0.1,1.1-0.1
					c0.7,0,0.1,0.1,0.8,0.1c0.7,0,1-0.1,1.7-0.1c0.7,0,2.4,0.1,3.1,0.1c0.5,0,1.7,0,2.1-0.1c0.4,0,1,0.1,1.2,0.2
					c0.8,0,0.9,0.1,0.9,0c0-0.1-0.6-0.1-0.5-0.1C21.6,7.9,22.3,8,23,8c0.2,0,1.5-0.1,1.7-0.2h1c0,0.1,0.6,0.2,0.8,0.2
					c0.2,0,0.3-0.1,0.4-0.2C27.7,7.9,28.2,8,28.9,8c0.7,0,1.8-0.2,2.5-0.2c0.7,0,0.4,0.1,1.1,0.1c0.7,0,0.6,0,0.6-0.1
					C33.6,7.9,33.2,8,34,8c0.7,0-0.1-0.1,0.6-0.1c0.7,0,0.7,0.1,1.4,0.1c1.2,0,1.5,0,1.7-0.2h1c0,0.1,0.5,0.2,0.9,0.2
					c0.7,0-0.1-0.1,0.6-0.1C40.8,7.9,40,8,40.7,8c0.7,0,1-0.1,1.5-0.1c0.4,0,0.8,0,1.6,0C44.4,7.9,47.4,8,48,8
					c2.4,0,1.7-0.2,2.8-0.2c0.7,0,0.8,0.1,1.1,0.2c0.1,0.1,0.3,0.1,0.6,0.3c0.3,0.2,0.7,0.4,1.2,1c0.3,0.3,0.5,0.7,0.6,1.2
					c0.2,0.4,0.2,1,0.2,1.3c0,0.7-0.1,1.9-0.2,2.7c0,0.2,0.1,0.4,0.2,0.4v0.9c0,0.7-0.1,0.6-0.1,1.1c0,0.1-0.1,0.1-0.1,0.4v0.8
					c0,0.7,0.1,0.4,0.1,0.8c0,0.6,0,1.4,0,1.9c0,0.3,0.1-0.2,0.1,0.5s-0.1,1.9-0.2,2.7c0,0.2,0.1,0.4,0.2,0.5c0,0.4-0.1,1.2-0.1,1.9
					s0,1.5,0.1,2.1c0,0.3-0.1,0.5-0.2,0.4v1.5c0,0.2,0.1,0.2,0.2,0.2v1.5c0,0.7-0.1,0.3-0.1,1s0,0.8,0.1,0.9c-0.1,2-0.2,0.8-0.2,2.7
					c0,1.2,0.2,2.7,0.2,3.1c0,0.7-0.2,1.3-0.2,2s0.1,0.1,0.1,0.8s-0.1-0.1-0.1,0.6c0,0.4,0,0.9,0,1.5c0,0.3,0,0.6,0,1
					c0,0.4-0.1,0.7-0.2,0.9c-0.1,0.2,0.1,0-0.4,0.7c-0.2,0.3-0.6,0.7-1,0.9c-0.2,0.1-0.4,0.2-0.6,0.3c-0.1,0-0.2,0.1-0.2,0.1l0,0
					l-0.1,0c0,0,0,0.1,0,0.2c-0.2-0.1-0.3-0.2-0.6-0.2c0-0.1,0.1-0.1,0.1-0.2c0-0.2-0.3-0.2-0.3-0.4c0-0.1,0-0.1,0-0.1
					c0.1,0,0.3-0.1,0.3-0.3c0-0.1-0.1-0.1-0.1-0.1c0.2,0,0.2-0.2,0.2-0.2c0,0,0.1,0,0.1,0c0,0,0,0,0,0c0.1,0,0.1,0,0.2,0
					c0.1,0,0.2-0.1,0.3-0.2c0.4-0.3,0.5-0.5,0.7-1c0.2-0.5,0.1-0.1,0.2-0.3c0.1-0.2,0.1-0.4,0.1-0.7c0-0.3,0-0.7,0-1
					c0-0.7,0-1.3,0-1.6c0-0.7,0-1.3,0-1.7c0-0.5-0.2-0.9-0.2-1.6s0-0.2,0.1-0.5c0-0.5,0-1.4,0-2.1c0-0.7,0-2-0.1-3.3
					c0.1-0.1,0.1,0.3,0.1,0.5c0,0,0.1-0.6,0.1-0.8c0-0.2-0.1-0.2-0.1-0.9s0-0.5,0.1-0.7c0-0.5,0-1-0.1-1s-0.1,0.6-0.1,0.5v-1.6
					c0.1-0.3,0.2-0.8,0.2-1.5s-0.1,0.1-0.1-0.6s0.1,0.1,0.1-0.6s-0.1-0.4-0.1-1.1s0.1-0.7,0.1-1.4s0-1.9-0.1-2.6
					c0-0.5-0.1-0.8-0.1-1.2c0.1-0.1,0.1,0.5,0.2,0.5c0-1.3,0.1-3.3,0.1-4s0-1.4-0.1-1.9h0c0-0.8,0-0.3,0.1-0.6
					c0-0.2-0.1-0.4-0.2-0.4c0-0.4,0.1-0.1,0.1-0.8s0-0.3-0.1-0.3c0-0.4,0.1-0.5,0.2-0.5c0-0.3,0-0.7,0-1c0-0.4,0-0.6-0.1-0.9
					c-0.2-0.6-0.6-1-1.1-1.3c-0.1-0.1,0.2,0-0.3-0.2c-0.3-0.1-0.7-0.1-1.5-0.1c-0.7,0-1.3,0.1-1.7,0.1c-0.7,0-1-0.2-1.7-0.2
					c-0.7,0,0.1,0.1-0.6,0.1c-0.7,0-1.4-0.1-1.6-0.2c-0.2,0-0.3,0.1-0.4,0.2h-1c0-0.1-0.6-0.1-0.8-0.2c-0.2,0-0.7,0.1-1,0.2h-1
					c0-0.1,0.5-0.1,0.5-0.1c-0.3,0,0.1,0-0.6,0c-0.7,0-1.3,0.2-2,0.2c-0.7,0-0.4-0.1-1.1-0.1c-0.7,0-0.4,0.1-1.1,0.1
					c-0.7,0-0.1-0.1-0.8-0.1c-0.7,0-0.6,0-0.6,0.1c-0.4,0-0.9-0.1-1.3-0.1c-0.5,0-1.3,0-2,0c-0.7,0-1.5,0-2.1,0
					c-0.3,0-0.5,0.1-0.9,0.1c0,0,0.3,0-0.4,0c-0.7,0-1-0.1-1.4-0.2c-0.2,0-0.5,0-1.2,0c-2.4,0-1.7,0.2-2.8,0.2
					c-0.9,0-1.1-0.1-2.1-0.2h-0.8c-0.2,0-0.2,0-0.2,0.1c0,0.1,0.6,0.1,0.5,0.2h-2c-0.7,0-0.7-0.1-1.4-0.1c-0.7,0-1,0-1.5,0.1
					c-0.1-0.1,0.5-0.1,0.5-0.1c-0.3,0,0.1,0-0.6,0c-0.7,0-0.4,0.1-1.1,0.1c-0.7,0-0.4-0.1-1.1-0.1c-0.7,0-1.3,0.1-2,0.1
					c-0.7,0-1-0.1-1.7-0.1c-0.7,0,0.1,0.1-0.6,0.1C8,9.2,8.5,9.2,7.8,9.2c-0.6,0-0.1,0.1-0.7,0.1C6.6,9.4,6.2,9.7,6,9.8
					c-0.2,0.3-0.4,0.6-0.3,0.7c0.1,0,0.3-0.3,0.3-0.3c-0.4,0.6-0.4,0.6-0.5,1.1c0,0.2,0,0.4,0,0.5c0,0.1,0,0.1,0.1,0.1
					c-0.1,0.7-0.2,1.2-0.2,1.9s0.1,1,0.1,1.5c0,0.3-0.1,0.4-0.2,1h0.2v2.1c-0.1,0-0.1,0.6-0.2,0.8c0.1,0.7,0.2,2.2,0.2,2.9
					s-0.1,1.4-0.2,1.6c0,0.2,0.1,0.3,0.2,0.4c-0.1,1.3-0.2,3.4-0.2,4.1c0,0.9,0,0.9,0.2,0.9v1.5c0,0.7-0.2,1.7-0.2,2.4
					s0.1,0.4,0.1,1.1s-0.1,1.3-0.1,2s0.1,1,0.1,1.7s-0.1-0.1-0.1,0.6s0.1,0.4,0.1,1.1c0,0.7-0.1,1-0.1,1.7s0.1,0.4,0.1,1.1
					S5.4,42.3,5.4,43s0.1,0.4,0.1,1.1c0,0.7-0.1,1.4-0.1,1.6c0,0.2,0.1,0.3,0.2,0.3c0.1,0.3-0.1,0.1,0.2,0.6C6,47,5.6,46.4,6,46.8
					c0.4,0.4-0.1,0,0.3,0.4c0.5,0.3,0.2,0.1,0.3,0.1c0.2,0.1,0.6,0.3,1,0.3c0.5,0,1.1,0,1.3-0.1c0.4,0,0.5,0.1,0.6,0.1
					c0.4,0,0.9,0.1,1.6,0.1c0.4,0,1-0.1,1.2-0.2h1.6c0.3,0.1,0.5,0.2,1.2,0.2c0.7,0,0.1-0.1,0.8-0.1c0.7,0,1,0.1,1.7,0.1
					c0.7,0,0.9,0,1.2,0c0.3,0,0.2-0.1,0.4-0.1c0.3,0,1,0,2-0.1c0.1,0.1-0.3,0.1-0.5,0.1c0,0,0.6,0.1,0.8,0.1c0.5,0,1.1-0.1,1.8-0.1
					c0.7,0,1,0.1,1.7,0.1c0.7,0-0.1-0.1,0.6-0.1c0.7,0,0.2,0,0.5,0.1c0.5,0,0.8,0,1.5,0c0.7,0,1.4,0,1.9-0.1v0
					c0.8,0,0.2,0.1,0.9,0.1c0.7,0,0.4-0.1,1.1-0.1c0.7,0,0.4,0.1,1.1,0.1c0.7,0,0.1-0.1,0.8-0.1c0.7,0,0.4,0.1,1.1,0.1
					c0.7,0,1.1-0.1,1.5-0.2c0.7,0.1,1.7,0.2,2.4,0.2c0.7,0,0.4-0.1,1.1-0.1c0.7,0,0.1,0.1,0.8,0.1c0.7,0,0.6,0,0.6-0.1
					c0.4,0,0.5,0.1,0.5,0.2h4.8c0.7,0-0.1-0.1,0.6-0.1c0.7,0,0.1,0.1,0.8,0.1c0.7,0,0.4-0.1,1.1-0.1c0.7,0,0.4,0.1,1.1,0.1
					c0.2,0,0.1,0,0.1-0.1c0.1,0,0.1,0.1,0.2,0.2c0.1,0,0.3,0.1,0.3,0.2c0,0,0-0.1,0.1-0.2h0.1c0.1,0,0.1,0.1,0.2,0.1
					c0,0.1,0.1,0.1,0.1,0.2c0,0.1-0.1,0.1-0.1,0.2c0,0.1,0.1,0.2,0.2,0.2c-0.1,0.1-0.2,0.3-0.2,0.4c0,0-0.1-0.1-0.2-0.1v0.2h-0.1
					c-0.1,0,0,0-0.1-0.1c0,0-0.1,0.1-0.1,0.2c-0.1,0-0.1,0-0.1-0.1c-0.1,0-0.1,0-0.2,0l-0.1,0c-0.3,0-0.5,0-0.8,0
					c-1.1,0-2.1,0-2.4,0c-0.7,0-1.5,0-2,0C45,49.1,45.5,49.2,45.7,49.3z"/>
			</g>
		</g>
	</g>
	<g>
		<path fill="#FFB048" d="M50.9,40.6H7.7c-1.6,0-2.9-1.3-2.9-2.9V3.7c0-1.6,1.3-2.9,2.9-2.9h43.3c1.6,0,2.9,1.3,2.9,2.9v33.9
			C53.9,39.2,52.5,40.6,50.9,40.6z"/>
		<g>
			<g>
				<path fill-rule="evenodd" clip-rule="evenodd" fill="#3A494F" d="M45.7,41.5c-0.4,0-0.9-0.1-1.4-0.1c-0.1,0-0.1-0.1-0.4-0.1
					c-0.8,0-1.4-0.1-2.1-0.1c-0.7,0-0.1,0.1-0.8,0.1c-0.7,0-0.4-0.1-1.1-0.1c-0.7,0-1.5,0.2-2.2,0.2c-0.7,0-0.1-0.1-0.8-0.1
					s-0.4,0.1-1.1,0.1c-0.7,0-1.4-0.2-1.8-0.2c-1,0.1-3.3,0.2-4.1,0.2c-1.4,0-0.9-0.1-2.1-0.1c0,0,0.3,0-0.4,0
					c-0.7,0-0.4,0.1-1.1,0.1c-0.7,0-0.4-0.1-1.1-0.1c-0.3,0-1,0.1-1.2,0.2c-1-0.1-2-0.2-2.7-0.2c-0.7,0-2.4,0.2-3.1,0.2
					c-0.7,0-0.1-0.1-0.8-0.1c-0.7,0-0.7,0.1-1.4,0.1c-1.4,0-0.1-0.2-1.1-0.2c-0.7,0-0.1,0.1-0.8,0.1c-0.7,0-1-0.1-1.7-0.1
					c-0.6,0-3.6,0.1-4.2,0.2c-0.1,0-0.2,0-0.3,0c-0.1,0-0.2,0-0.4,0c-0.3,0-0.5-0.1-0.8-0.2c-0.5-0.2-1-0.5-1.3-0.8
					c-0.3-0.3-0.6-0.7-0.8-1.2C4.1,38.5,4,38,4,37.6c0-0.3,0.1-0.5,0.2-0.4v-4.6c-0.1,0.3-0.1,0.6-0.2,0.5c0-0.4,0.1-0.4,0.1-1.1
					S4,31.4,4,30.7s0.2-1.8,0.2-2.5s-0.1-0.7-0.1-1.4s0.1-0.4,0.1-1.1S4.1,24.5,4,24.1c0-0.4,0.2,0,0.2-0.7s-0.1,0.1-0.1-0.6
					s0.1,0.1,0.1-0.6s-0.1,0.1-0.1-0.6s0.1-0.1,0.1-0.8s-0.1-1-0.1-1.7s0-1.1,0.1-1.3c0-0.2-0.1-0.3-0.2-0.4c0-0.4,0.1-0.4,0.1-1.1
					S4,15.7,4,15s0.1-1.5,0.1-2.2S4,11.2,4,10.5s0-0.8,0.1-1c0-1.4,0-2.8,0-4.1c0-0.2,0.1,0.3,0.1-0.4c0-0.2,0-0.4,0-0.7
					c0-0.1,0-0.3,0-0.5c0-0.2,0-0.4,0-0.6c0.1-0.9,0.6-1.7,1.2-2.2c0,0,0.2-0.2,0.5-0.3c0.3-0.2,0.6-0.3,0.6-0.3
					c0.1,0-0.7,0.3-1.1,0.8c0,0,0.5-0.4,1.1-0.7C7,0.1,7.7,0.2,7.7,0.2c0.7,0,0.3-0.1,1-0.1c0.7,0,1,0.1,1.7,0.1
					c0.7,0,0.4-0.1,1.1-0.1c0.7,0,0.1,0.1,0.8,0.1c0.7,0,1-0.1,1.7-0.1c0.7,0,2.4,0.1,3.1,0.1c0.5,0,1.7,0,2.1-0.1
					c0.4,0,1,0.1,1.2,0.2c0.8,0,0.9,0.1,0.9,0c0-0.1-0.6-0.1-0.5-0.1c0.7,0.1,1.5,0.2,2.2,0.2c0.2,0,1.5-0.1,1.7-0.2h1
					c0,0.1,0.6,0.2,0.8,0.2c0.2,0,0.3-0.1,0.4-0.2c0.7,0.1,1.2,0.2,1.9,0.2c0.7,0,1.8-0.2,2.5-0.2c0.7,0,0.4,0.1,1.1,0.1
					c0.7,0,0.6,0,0.6-0.1c0.4,0,0.1,0.2,0.8,0.2c0.7,0-0.1-0.1,0.6-0.1c0.7,0,0.7,0.1,1.4,0.1c1.2,0,1.5,0,1.7-0.2h1
					c0,0.1,0.5,0.2,0.9,0.2c0.7,0-0.1-0.1,0.6-0.1c0.7,0-0.1,0.1,0.6,0.1c0.7,0,1-0.1,1.5-0.1c0.4,0,0.8,0,1.6,0
					c0.6,0,3.6,0.1,4.2,0.2c2.4,0,1.7-0.2,2.8-0.2c0.7,0,0.8,0.1,1.1,0.2c0.1,0.1,0.3,0.1,0.6,0.3c0.3,0.2,0.7,0.4,1.2,1
					c0.3,0.3,0.5,0.7,0.6,1.2c0.2,0.4,0.2,1,0.2,1.3c0,0.7-0.1,1.9-0.2,2.7c0,0.2,0.1,0.4,0.2,0.4v0.9c0,0.7-0.1,0.6-0.1,1.1
					c0,0.1-0.1,0.1-0.1,0.4v0.8c0,0.7,0.1,0.4,0.1,0.8c0,0.6,0,1.4,0,1.9c0,0.3,0.1-0.2,0.1,0.5s-0.1,1.9-0.2,2.7
					c0,0.2,0.1,0.4,0.2,0.5c0,0.4-0.1,1.2-0.1,1.9s0,1.5,0.1,2.1c0,0.3-0.1,0.5-0.2,0.4v1.5c0,0.2,0.1,0.2,0.2,0.2v1.5
					c0,0.7-0.1,0.3-0.1,1s0,0.8,0.1,0.9c-0.1,2-0.2,0.8-0.2,2.7c0,1.2,0.2,2.7,0.2,3.1c0,0.7-0.2,1.3-0.2,2s0.1,0.1,0.1,0.8
					s-0.1-0.1-0.1,0.6c0,0.4,0,0.9,0,1.5c0,0.3,0,0.6,0,1c0,0.4-0.1,0.7-0.2,0.9c-0.1,0.2,0.1,0-0.4,0.7c-0.2,0.3-0.6,0.7-1,0.9
					c-0.2,0.1-0.4,0.2-0.6,0.3c-0.1,0-0.2,0.1-0.2,0.1l0,0l-0.1,0c0,0,0,0.1,0,0.2c-0.2-0.1-0.3-0.2-0.6-0.2c0-0.1,0.1-0.1,0.1-0.2
					c0-0.2-0.3-0.2-0.3-0.4c0-0.1,0-0.1,0-0.1c0.1,0,0.3-0.1,0.3-0.3c0-0.1-0.1-0.1-0.1-0.1c0.2,0,0.2-0.2,0.2-0.2c0,0,0.1,0,0.1,0
					c0,0,0,0,0,0c0.1,0,0.1,0,0.2,0c0.1,0,0.2-0.1,0.3-0.2c0.4-0.3,0.5-0.5,0.7-1c0.2-0.5,0.1-0.1,0.2-0.3c0.1-0.2,0.1-0.4,0.1-0.7
					c0-0.3,0-0.7,0-1c0-0.7,0-1.3,0-1.6c0-0.7,0-1.3,0-1.7c0-0.5-0.2-0.9-0.2-1.6s0-0.2,0.1-0.5c0-0.5,0-1.4,0-2.1
					c0-0.7,0-2-0.1-3.3c0.1-0.1,0.1,0.3,0.1,0.5c0,0,0.1-0.6,0.1-0.8c0-0.2-0.1-0.2-0.1-0.9s0-0.5,0.1-0.7c0-0.5,0-1-0.1-1
					s-0.1,0.6-0.1,0.5v-1.6c0.1-0.3,0.2-0.8,0.2-1.5s-0.1,0.1-0.1-0.6s0.1,0.1,0.1-0.6s-0.1-0.4-0.1-1.1s0.1-0.7,0.1-1.4
					s0-1.9-0.1-2.6c0-0.5-0.1-0.8-0.1-1.2c0.1-0.1,0.1,0.5,0.2,0.5c0-1.3,0.1-3.3,0.1-4s0-1.4-0.1-1.9h0c0-0.8,0-0.3,0.1-0.6
					c0-0.2-0.1-0.4-0.2-0.4c0-0.4,0.1-0.1,0.1-0.8s0-0.3-0.1-0.3c0-0.4,0.1-0.5,0.2-0.5c0-0.3,0-0.7,0-1c0-0.4,0-0.6-0.1-0.9
					c-0.2-0.6-0.6-1-1.1-1.3c-0.1-0.1,0.2,0-0.3-0.2c-0.3-0.1-0.7-0.1-1.5-0.1c-0.7,0-1.3,0.1-1.7,0.1c-0.7,0-1-0.2-1.7-0.2
					c-0.7,0,0.1,0.1-0.6,0.1c-0.7,0-1.4-0.1-1.6-0.2c-0.2,0-0.3,0.1-0.4,0.2h-1c0-0.1-0.6-0.1-0.8-0.2c-0.2,0-0.7,0.1-1,0.2h-1
					c0-0.1,0.5-0.1,0.5-0.1c-0.3,0,0.1,0-0.6,0c-0.7,0-1.3,0.2-2,0.2c-0.7,0-0.4-0.1-1.1-0.1c-0.7,0-0.4,0.1-1.1,0.1
					c-0.7,0-0.1-0.1-0.8-0.1c-0.7,0-0.6,0-0.6,0.1c-0.4,0-0.9-0.1-1.3-0.1c-0.5,0-1.3,0-2,0c-0.7,0-1.5,0-2.1,0
					c-0.3,0-0.5,0.1-0.9,0.1c0,0,0.3,0-0.4,0c-0.7,0-1-0.1-1.4-0.2c-0.2,0-0.5,0-1.2,0c-2.4,0-1.7,0.2-2.8,0.2
					c-0.9,0-1.1-0.1-2.1-0.2h-0.8c-0.2,0-0.2,0-0.2,0.1c0,0.1,0.6,0.1,0.5,0.2h-2c-0.7,0-0.7-0.1-1.4-0.1c-0.7,0-1,0-1.5,0.1
					c-0.1-0.1,0.5-0.1,0.5-0.1c-0.3,0,0.1,0-0.6,0c-0.7,0-0.4,0.1-1.1,0.1c-0.7,0-0.4-0.1-1.1-0.1c-0.7,0-1.3,0.1-2,0.1
					c-0.7,0-1-0.1-1.7-0.1c-0.7,0,0.1,0.1-0.6,0.1C8,1.5,8.5,1.4,7.8,1.4c-0.6,0-0.1,0.1-0.7,0.1C6.6,1.7,6.2,1.9,6,2
					C5.8,2.3,5.6,2.6,5.7,2.7c0.1,0,0.3-0.3,0.3-0.3C5.6,3,5.5,3,5.4,3.5c0,0.2,0,0.4,0,0.5c0,0.1,0,0.1,0.1,0.1
					C5.4,4.8,5.4,5.3,5.4,6s0.1,1,0.1,1.5c0,0.3-0.1,0.4-0.2,1h0.2v2.1c-0.1,0-0.1,0.6-0.2,0.8c0.1,0.7,0.2,2.2,0.2,2.9
					S5.4,15.8,5.4,16c0,0.2,0.1,0.3,0.2,0.4c-0.1,1.3-0.2,3.4-0.2,4.1c0,0.9,0,0.9,0.2,0.9v1.5c0,0.7-0.2,1.7-0.2,2.4
					s0.1,0.4,0.1,1.1s-0.1,1.3-0.1,2s0.1,1,0.1,1.7S5.4,30,5.4,30.7s0.1,0.4,0.1,1.1s-0.1,1-0.1,1.7s0.1,0.4,0.1,1.1
					s-0.1-0.1-0.1,0.6s0.1,0.4,0.1,1.1c0,0.7-0.1,1.4-0.1,1.6c0,0.2,0.1,0.3,0.2,0.3c0.1,0.3-0.1,0.1,0.2,0.6c0.3,0.5,0-0.1,0.3,0.3
					c0.4,0.4-0.1,0,0.3,0.4c0.5,0.3,0.2,0.1,0.3,0.1c0.2,0.1,0.6,0.3,1,0.3c0.5,0,1.1,0,1.3-0.1c0.4,0,0.5,0.1,0.6,0.1
					c0.4,0,0.9,0.1,1.6,0.1c0.4,0,1-0.1,1.2-0.2h1.6c0.3,0.1,0.5,0.2,1.2,0.2c0.7,0,0.1-0.1,0.8-0.1c0.7,0,1,0.1,1.7,0.1
					c0.7,0,0.9,0,1.2,0c0.3,0,0.2-0.1,0.4-0.1c0.3,0,1,0,2-0.1c0.1,0.1-0.3,0.1-0.5,0.1c0,0,0.6,0.1,0.8,0.1c0.5,0,1.1-0.1,1.8-0.1
					c0.7,0,1,0.1,1.7,0.1c0.7,0-0.1-0.1,0.6-0.1c0.7,0,0.2,0,0.5,0.1c0.5,0,0.8,0,1.5,0c0.7,0,1.4,0,1.9-0.1v0
					c0.8,0,0.2,0.1,0.9,0.1c0.7,0,0.4-0.1,1.1-0.1c0.7,0,0.4,0.1,1.1,0.1c0.7,0,0.1-0.1,0.8-0.1c0.7,0,0.4,0.1,1.1,0.1
					c0.7,0,1.1-0.1,1.5-0.2c0.7,0.1,1.7,0.2,2.4,0.2c0.7,0,0.4-0.1,1.1-0.1c0.7,0,0.1,0.1,0.8,0.1c0.7,0,0.6,0,0.6-0.1
					c0.4,0,0.5,0.1,0.5,0.2h4.8c0.7,0-0.1-0.1,0.6-0.1c0.7,0,0.1,0.1,0.8,0.1c0.7,0,0.4-0.1,1.1-0.1c0.7,0,0.4,0.1,1.1,0.1
					c0.2,0,0.1,0,0.1-0.1c0.1,0,0.1,0.1,0.2,0.2c0.1,0,0.3,0.1,0.3,0.2c0,0,0-0.1,0.1-0.2h0.1c0.1,0,0.1,0.1,0.2,0.1
					c0,0.1,0.1,0.1,0.1,0.2c0,0.1-0.1,0.1-0.1,0.2c0,0.1,0.1,0.2,0.2,0.2c-0.1,0.1-0.2,0.3-0.2,0.4c0,0-0.1-0.1-0.2-0.1v0.2h-0.1
					c-0.1,0,0,0-0.1-0.1c0,0-0.1,0.1-0.1,0.2c-0.1,0-0.1,0-0.1-0.1c-0.1,0-0.1,0-0.2,0l-0.1,0c-0.3,0-0.5,0-0.8,0
					c-1.1,0-2.1,0-2.4,0c-0.7,0-1.5,0-2,0C45,41.4,45.5,41.4,45.7,41.5z"/>
			</g>
		</g>
	</g>
	<g>
		<g>
			<g>
				<path fill-rule="evenodd" clip-rule="evenodd" fill="#3A494F" d="M43.1,37.8c-0.4,0-0.8,0-1.2,0c-0.1,0-0.1-0.1-0.3-0.1
					c-0.6,0-1.3,0-1.7,0c-0.6,0-0.1,0-0.7,0s-0.4,0-0.9,0s-1.3,0.1-1.9,0.1c-0.6,0-0.1,0-0.7,0s-0.4,0-0.9,0s-1.1-0.1-1.5-0.1
					c-0.9,0-2.8,0.1-3.4,0.1c-1.1,0-0.7,0-1.8-0.1c0,0,0.3,0-0.3,0s-0.4,0-0.9,0s-0.4,0-0.9,0c-0.3,0-0.8,0-1,0.1
					c-0.8,0-1.7-0.1-2.3-0.1c-0.4,0-2.1,0.1-2.6,0.1c-0.6,0-0.1,0-0.7,0s-0.6,0-1.2,0c-1.2,0-0.1-0.1-0.9-0.1c-0.6,0-0.1,0-0.7,0
					c-0.5,0-1,0-1.4,0c-0.5,0-3,0.1-3.5,0.1c-0.3,0-0.7,0-1.1-0.2c-0.4-0.1-0.8-0.4-1-0.6C9,36.7,8.8,36.3,8.6,36
					c-0.2-0.4-0.2-0.8-0.2-1c0-0.3,0-0.4,0.1-0.4v-3.8c0,0.3,0,0.5-0.1,0.5c0-0.3,0-0.3,0-0.9s0-0.6,0-1.2c0-0.4,0.1-1.7,0.1-2.1
					c0-0.6,0-0.6,0-1.2c0-0.6,0-0.4,0-0.9c0-0.6,0-1-0.1-1.3c0-0.3,0.1,0,0.1-0.6c0-0.6,0,0.1,0-0.5c0-0.6,0,0.1,0-0.5
					c0-0.6,0,0.1,0-0.5s0-0.1,0-0.7c0-0.5,0-1,0-1.4c0-0.6,0-0.9,0-1.1c0-0.2,0-0.3-0.1-0.3c0-0.3,0-0.3,0-0.9c0-0.6,0-0.6,0-1.2
					c0-0.5,0-1.4,0-1.9c0-0.5,0-1.4,0-1.9c0-0.6,0-0.7,0-0.9c0-1.2,0-2.3,0-3.5c0-0.1,0,0.2,0-0.4c0-0.1,0-0.3,0-0.6
					c0-0.2,0-0.5,0-0.9c0.1-0.7,0.5-1.3,0.9-1.7c0,0,0.2-0.2,0.4-0.3c0.2-0.1,0.4-0.2,0.4-0.2c0,0-0.5,0.2-0.9,0.6
					c0,0,0.4-0.3,0.8-0.5c0.5-0.2,1-0.2,1-0.2c0.6,0,0.3,0,0.9,0c0.5,0,1,0,1.4,0c0.6,0,0.4,0,0.9,0c0.6,0,0.1,0,0.7,0
					c0.5,0,1,0,1.4,0c0.5,0,2,0,2.6,0c0.4,0,1.4,0,1.7,0c0.3,0,0.8,0,1,0.1c0.6,0,0.8,0,0.8,0c0,0-0.5,0-0.4-0.1
					c0.6,0,1.2,0.1,1.8,0.1c0.1,0,1.3,0,1.5-0.1h0.9c0,0,0.5,0.1,0.7,0.1c0.2,0,0.3,0,0.4-0.1c0.6,0,1,0.1,1.6,0.1
					c0.4,0,1.7-0.1,2.1-0.1c0.6,0,0.4,0,0.9,0s0.5,0,0.5,0c0.4,0,0,0.1,0.6,0.1s-0.1,0,0.5,0s0.6,0,1.2,0c1,0,1.3,0,1.5-0.1h0.9
					c0,0,0.4,0.1,0.7,0.1c0.6,0-0.1,0,0.5,0c0.6,0-0.1,0,0.5,0s0.9,0,1.3-0.1c0.4,0,0.7,0,1.3,0c0.5,0,3,0.1,3.5,0.1
					c2,0,1.4-0.1,2.4-0.1c0.6,0.1,0.6,0.2,0.9,0.2C48.2,4,48.4,4,48.6,4.2c0.2,0.2,0.5,0.4,0.8,0.9c0.2,0.3,0.3,0.6,0.4,1
					c0.1,0.4,0,0.7,0,1c0,0.6,0,1.6-0.1,2.3c0,0.2,0,0.3,0.1,0.4v0.8c0,0.6,0,0.5,0,0.9c0,0.1-0.1,0.1-0.1,0.3v0.7
					c0,0.6,0,0.4,0.1,0.7c0,0.5,0,1.1,0,1.6c0,0.2,0-0.2,0,0.4c0,0.6,0,1.6-0.1,2.3c0,0.2,0,0.3,0.1,0.4c0,0.4,0,1,0,1.6
					c0,0.6,0,1.2,0,1.7c0,0.3,0,0.4-0.1,0.3v1.3c0,0.2,0,0.2,0.1,0.2v1.2c0,0.6,0,0.3,0,0.9c0,0.6,0,0.7,0,0.8
					c0,1.7-0.1,0.7-0.1,2.3c0,1,0.1,2.3,0.1,2.6c0,0.6-0.1,1.1-0.1,1.6c0,0.6,0,0.1,0,0.7s0-0.1,0,0.5c0,0.3,0,0.7,0,1.3
					c0,0.5-0.1,1.1-0.3,1.5c-0.1,0.2,0,0-0.4,0.5c-0.2,0.2-0.5,0.5-0.9,0.6c-0.3,0.1-0.8,0.2-0.7,0.2l-0.1,0c0,0,0,0,0,0.1
					c-0.1-0.1-0.1-0.1-0.2-0.1c0,0,0,0,0-0.1c0-0.1-0.2-0.1-0.2-0.2c0,0,0,0,0,0c0,0,0.2,0,0.2-0.1c0,0,0,0,0-0.1
					c0.1,0,0.1-0.1,0.1-0.1c0,0,0,0,0.1,0c0,0,0,0,0,0c0.1,0,0.1,0,0.2,0c0.1,0,0.2-0.1,0.3-0.1c0.4-0.2,0.6-0.4,0.9-0.8
					c0.2-0.4,0.1-0.1,0.2-0.3c0.2-0.4,0.2-0.8,0.2-1.4c0-0.6,0-1.1,0-1.3c0-0.6,0-1.1,0-1.5c0-0.4-0.1-0.8-0.1-1.4s0-0.2,0-0.4
					c0-0.5,0-1.1,0-1.7c0-0.6,0-1.7,0-2.8c0-0.1,0,0.2,0,0.4c0,0,0-0.5,0.1-0.7c0-0.2,0-0.2,0-0.8s0-0.4,0-0.6c0-0.4,0-0.8-0.1-0.8
					s0,0.5-0.1,0.4v-1.3c0-0.3,0.1-0.6,0.1-1.2c0-0.6,0,0.1,0-0.5c0-0.6,0,0.1,0-0.5c0-0.6,0-0.4,0-0.9c0-0.6,0-0.6,0-1.2
					s0-1.6,0-2.2c0-0.3,0-0.7-0.1-1c0-0.1,0,0.4,0.1,0.4c0-1,0-2.8,0-3.3c0-0.6,0-1.2,0-1.6h0c0-0.7,0-0.3,0-0.5
					c0-0.2,0-0.3-0.1-0.3c0-0.3,0-0.1,0-0.7s0-0.2,0-0.3c0-0.3,0-0.4,0.1-0.4c0-0.3,0-0.6,0-0.9c0-0.2,0-0.3,0-0.5
					c0-0.1,0-0.3,0-0.4c-0.1-0.5-0.4-1-0.9-1.3c-0.1-0.1,0.2,0.1-0.2-0.2c-0.2-0.1-0.7-0.2-1.2-0.2c-0.6,0-1.2,0-1.4,0
					c-0.6,0-0.8-0.1-1.4-0.1c-0.6,0,0.1,0-0.5,0s-1.2,0-1.4-0.1c-0.2,0-0.3,0-0.3,0.1h-0.9c0,0-0.5,0-0.7-0.1c-0.1,0-0.6,0-0.8,0.1
					h-0.9c0,0,0.4,0,0.5-0.1c-0.2,0,0.1,0-0.5,0s-1.1,0.1-1.6,0.1s-0.4,0-0.9,0s-0.4,0-0.9,0s-0.1,0-0.7,0c-0.6,0-0.5,0-0.5,0
					c-0.3,0-0.7,0-1.1-0.1c-0.4,0-1.1,0-1.7,0c-0.6,0-1.2,0-1.7,0c-0.3,0-0.4,0-0.8,0.1c0,0,0.3,0-0.3,0s-0.8,0-1.1-0.1
					c-0.1,0-0.4,0-1,0c-2,0-1.4,0.1-2.4,0.1c-0.8,0-0.9-0.1-1.8-0.1h-0.6c-0.2,0-0.2,0-0.2,0s0.5,0,0.4,0.1h-1.7c-0.6,0-0.6,0-1.2,0
					c-0.6,0-0.9,0-1.2,0c-0.1,0,0.4,0,0.4-0.1c-0.2,0,0.1,0-0.5,0s-0.4,0-0.9,0s-0.4,0-0.9,0c-0.5,0-1.2,0-1.6,0c-0.5,0-1,0-1.4,0
					c-0.6,0,0.1,0-0.5,0s-0.1,0-0.7,0c-0.5,0-0.1,0-0.6,0.1c-0.5,0.1-0.9,0.4-1,0.5C9.3,5.2,9.2,5.5,9.2,5.5c0,0,0.2-0.3,0.2-0.3
					C9.1,5.8,9.1,5.8,9,6.3c0,0.5,0,0.5,0,0.5C9,7.4,9,7.8,9,8.4c0,0.4,0,0.9,0,1.3c0,0.2,0,0.3-0.1,0.9H9v1.8c0,0,0,0.5-0.1,0.7
					C9,13.6,9,14.9,9,15.5s0,1.2-0.1,1.4C9,17,9,17.1,9,17.2C9,18.2,9,20.1,9,20.6c0,0.8,0,0.8,0.1,0.7v1.2c0,0.6-0.1,1.4-0.1,2
					s0,0.4,0,0.9c0,0.5,0,1.2,0,1.6c0,0.5,0,1,0,1.4c0,0.6,0-0.1,0,0.5c0,0.6,0,0.4,0,0.9c0,0.5,0,1,0,1.4c0,0.6,0,0.4,0,0.9
					c0,0.6,0-0.1,0,0.5c0,0.6,0,0.4,0,0.9C9,34.4,9,35,9,35.2c0,0.2,0.1,0.3,0.1,0.3c0.1,0.3,0,0.1,0.2,0.6c0.3,0.4,0-0.1,0.3,0.3
					c0.4,0.4-0.1,0,0.3,0.3c0.4,0.3,0.2,0.1,0.3,0.2c0.2,0.1,0.5,0.3,1,0.3c0.4,0,0.9,0,1.1,0c0.3,0,0.4,0,0.5,0.1
					c0.4,0,0.8,0.1,1.4,0.1c0.4,0,0.8,0,1-0.1h1.3c0.3,0,0.4,0.1,1,0.1c0.6,0,0.1,0,0.7,0c0.5,0,1,0,1.4,0c0.6,0,0.8,0,1,0
					c0.2,0,0.2,0,0.3-0.1c0.2,0,0.6,0,1.7,0c0.1,0-0.2,0-0.4,0c0,0,0.5,0,0.6,0.1c0.4,0,0.9,0,1.5,0c0.5,0,1,0,1.4,0
					c0.6,0-0.1,0,0.5,0c0.6,0,0.2,0,0.4,0c0.5,0,0.7,0,1.3,0c0.6,0,1.2,0,1.6,0v0c0.7,0,0.2,0,0.8,0s0.4,0,0.9,0s0.4,0,0.9,0
					s0.1,0,0.7,0c0.6,0,0.4,0,0.9,0c0.6,0,1,0,1.3-0.1c0.6,0,1.4,0.1,2,0.1s0.4,0,0.9,0s0.1,0,0.7,0c0.6,0,0.5,0,0.5,0
					c0.3,0,0.4,0,0.4,0.1h4c0.6,0-0.1,0,0.5,0s0.1,0,0.7,0s0.4,0,0.9,0s0.4,0,0.9,0c0.1,0,0.1,0,0.1,0c0,0,0.1,0.1,0.1,0.1
					c0,0,0.1,0,0.1,0.1c0,0,0,0,0-0.1h0.1c0,0,0,0,0.1,0c0,0,0,0,0,0.1s0,0,0,0.1s0,0.1,0.1,0.1c0,0.1-0.1,0.1-0.1,0.2
					c0,0,0,0-0.1,0v0.1h-0.1c0,0,0,0,0,0c0,0,0,0,0,0.1c0,0,0,0,0,0c0,0-0.1,0-0.1,0l-0.1,0c-0.2,0-0.4,0-0.6,0c-0.9,0-1.7,0-2,0
					c-0.6,0-1.1,0-1.7,0C42.5,37.7,42.9,37.7,43.1,37.8z"/>
			</g>
		</g>
	</g>
</g>
<g>
</g>
<g>
</g>
<g>
</g>
<g>
</g>
<g>
</g>
<g>
</g>
<g>
</g>
<g>
</g>
<g>
</g>
<g>
</g>
<g>
</g>
<g>
</g>
<g>
</g>
<g>
</g>
<g>
</g>
</svg>
