<?xml version="1.0" standalone="no"?>
<!DOCTYPE svg PUBLIC "-//W3C//DTD SVG 20010904//EN"
 "http://www.w3.org/TR/2001/REC-SVG-20010904/DTD/svg10.dtd">
<svg version="1.0" xmlns="http://www.w3.org/2000/svg"
 width="1024.000000pt" height="1024.000000pt" viewBox="0 0 1024.000000 1024.000000"
 preserveAspectRatio="xMidYMid meet">
<metadata>
Created by potrace 1.11, written by Peter Selinger 2001-2013
</metadata>
<g transform="translate(0.000000,1024.000000) scale(0.100000,-0.100000)"
fill="#000000" stroke="none">
<path d="M4519 9986 c-2 -2 -29 -7 -59 -10 -30 -4 -68 -9 -85 -12 -142 -24
-267 -48 -360 -70 -60 -14 -118 -27 -129 -29 -92 -20 -429 -128 -503 -161 -17
-8 -34 -14 -38 -14 -29 0 -453 -198 -605 -283 -508 -283 -969 -661 -1365
-1122 -27 -32 -56 -67 -64 -79 -8 -11 -18 -23 -22 -26 -11 -9 -152 -200 -221
-300 -323 -472 -566 -1014 -707 -1575 -17 -66 -32 -131 -35 -145 -2 -14 -16
-86 -30 -160 -14 -74 -28 -157 -31 -185 -4 -27 -8 -61 -10 -75 -3 -14 -7 -56
-11 -95 -3 -38 -8 -81 -10 -95 -21 -126 -20 -684 0 -855 2 -16 7 -59 11 -95 6
-61 31 -246 40 -300 6 -33 24 -129 30 -158 2 -13 6 -31 9 -40 3 -9 8 -33 11
-52 3 -19 8 -43 11 -52 3 -9 7 -26 9 -39 2 -12 12 -47 21 -78 9 -31 18 -65 20
-76 7 -36 55 -187 102 -320 111 -317 253 -618 431 -908 36 -60 71 -116 76
-125 31 -52 221 -319 235 -332 3 -3 21 -25 40 -50 19 -25 45 -56 56 -70 12
-14 52 -61 90 -105 65 -77 357 -372 439 -445 52 -46 233 -193 310 -251 67 -51
294 -209 300 -209 2 0 23 -13 47 -29 191 -128 553 -307 843 -419 239 -92 354
-126 426 -126 128 0 167 30 364 285 82 107 151 196 155 199 3 3 19 23 36 45
193 251 659 851 664 855 3 3 25 32 50 65 24 33 50 66 57 75 7 8 153 195 323
415 171 220 321 414 334 430 62 78 242 310 451 580 127 163 276 356 333 428
57 73 116 148 130 167 15 19 191 246 392 505 201 259 377 486 392 505 14 19
63 82 109 140 45 57 87 118 94 135 23 58 3 127 -48 166 l-32 24 -1685 1
c-1281 1 -1691 4 -1708 13 -44 23 -37 68 20 136 9 11 93 119 187 240 93 121
174 225 178 230 5 6 128 163 273 350 145 187 276 356 292 375 48 61 92 117
114 147 31 40 431 556 442 568 11 13 561 720 587 754 24 32 411 530 428 551 7
8 27 34 46 58 40 52 77 72 120 67 65 -8 424 -211 633 -358 101 -71 258 -190
292 -222 6 -5 45 -39 86 -75 90 -78 282 -270 365 -365 296 -338 566 -769 727
-1165 45 -109 50 -123 55 -135 72 -203 146 -450 169 -560 36 -180 47 -239 59
-325 4 -25 8 -58 11 -75 5 -36 11 -99 21 -215 10 -112 10 -519 0 -645 -8 -96
-10 -119 -22 -202 -3 -21 -8 -57 -11 -81 -4 -35 -26 -152 -50 -272 -42 -206
-149 -549 -219 -705 -7 -16 -28 -64 -45 -105 -146 -341 -388 -727 -653 -1040
-140 -165 -438 -453 -572 -552 -5 -4 -35 -27 -65 -51 -63 -49 -171 -126 -250
-178 -113 -74 -200 -128 -200 -124 0 2 -15 -6 -33 -18 -43 -29 -340 -177 -437
-217 -224 -93 -502 -183 -705 -229 -52 -12 -64 -14 -155 -31 -30 -6 -64 -12
-75 -14 -11 -2 -42 -7 -68 -10 -27 -4 -56 -9 -65 -11 -10 -1 -46 -6 -82 -10
-179 -20 -303 -131 -328 -295 -22 -151 52 -288 197 -361 39 -20 61 -24 141
-24 91 0 124 3 270 26 94 14 320 59 356 70 17 5 40 11 50 13 91 18 433 120
489 146 11 5 56 23 100 39 110 40 280 113 395 171 82 40 254 131 265 140 6 4
33 20 60 35 162 89 465 304 664 469 178 149 489 459 601 602 8 10 39 48 68 84
70 86 67 81 143 185 232 319 445 703 591 1069 40 101 144 401 153 440 2 12 13
55 25 96 77 286 132 607 157 915 10 125 10 601 0 715 -13 156 -28 288 -41 370
-7 40 -30 175 -31 180 -1 3 -5 25 -9 50 -6 36 -37 173 -50 225 -2 6 -6 24 -11
40 -43 171 -123 420 -180 560 -4 11 -9 25 -10 30 -2 6 -12 31 -23 55 -11 25
-34 79 -52 120 -188 434 -482 891 -815 1269 -82 93 -365 373 -450 445 -44 38
-91 78 -105 90 -14 11 -45 37 -70 56 -25 19 -49 38 -55 43 -80 64 -365 259
-440 301 -17 9 -37 21 -45 26 -179 119 -706 360 -939 430 -88 27 -169 23 -234
-10 -60 -31 -63 -34 -230 -250 -84 -107 -157 -202 -164 -210 -27 -33 -317
-409 -356 -459 -22 -30 -48 -64 -58 -75 -15 -18 -403 -517 -518 -667 -101
-131 -590 -760 -621 -799 -20 -25 -130 -166 -245 -315 -115 -148 -211 -272
-214 -275 -4 -3 -32 -39 -63 -80 -31 -41 -74 -97 -95 -125 -285 -368 -397
-511 -403 -515 -4 -3 -11 -12 -16 -21 -5 -9 -21 -32 -36 -50 -96 -120 -735
-950 -746 -968 -8 -13 -16 -47 -19 -77 -10 -91 36 -171 122 -217 l40 -21 1618
-1 1619 0 19 -24 c32 -39 44 -18 -189 -320 -31 -41 -75 -98 -97 -127 -22 -28
-164 -211 -315 -405 -151 -195 -341 -439 -423 -544 -81 -104 -244 -314 -361
-465 -118 -151 -399 -513 -625 -805 -227 -291 -421 -541 -432 -555 -11 -14
-32 -42 -47 -62 -37 -51 -76 -71 -121 -65 -45 6 -285 120 -426 201 -55 32
-115 67 -134 78 -51 29 -206 134 -291 196 -278 205 -493 408 -754 712 -92 107
-263 350 -366 520 -184 304 -375 758 -456 1082 -8 35 -20 81 -25 103 -6 22
-12 49 -15 60 -2 11 -8 40 -14 65 -16 73 -51 296 -64 405 -27 233 -27 690 0
890 2 17 6 55 9 85 4 30 8 62 10 70 2 8 7 35 10 60 5 36 53 278 70 350 21 91
118 407 142 460 3 8 7 17 8 20 5 15 23 58 73 175 321 754 867 1404 1567 1865
164 108 406 239 609 330 186 83 555 206 736 245 114 25 277 55 320 60 30 3 62
8 70 10 8 2 40 7 70 10 143 16 217 57 284 160 88 132 67 316 -48 428 -70 69
-124 90 -232 94 -50 1 -93 1 -95 -1z"/>
</g>
</svg>
