<?xml version="1.0" encoding="utf-8"?>
<!-- Generator: Adobe Illustrator 18.0.0, SVG Export Plug-In . SVG Version: 6.00 Build 0)  -->
<!DOCTYPE svg PUBLIC "-//W3C//DTD SVG 1.1//EN" "http://www.w3.org/Graphics/SVG/1.1/DTD/svg11.dtd">
<svg version="1.1" id="Layer_1" xmlns="http://www.w3.org/2000/svg" xmlns:xlink="http://www.w3.org/1999/xlink" x="0px" y="0px"
	 viewBox="0 0 222.2 181.8" enable-background="new 0 0 222.2 181.8" xml:space="preserve">
<g>
	<rect x="2.1" y="1.6" fill="#FFFFFF" width="173.8" height="100.9"/>
	<g>
		<g>
			<path fill-rule="evenodd" clip-rule="evenodd" fill="#3A494F" d="M160.5,104.3c-1.2-0.1-2.8-0.1-4.4-0.1
				c-0.5-0.1-0.3-0.2-1.1-0.3c-2.6,0-4.3-0.2-6.6-0.2s-0.4,0.2-2.7,0.2c-2.2,0-1.3-0.2-3.6-0.2c-2.2,0-4.9,0.3-7.2,0.3
				c-2.2,0-0.4-0.2-2.7-0.2s-1.3,0.2-3.6,0.2s-4.4-0.3-5.9-0.5c-3.3,0.2-10.7,0.3-12.9,0.3c-4.4,0-2.8-0.2-6.8-0.3c0,0,1,0-1.2,0
				c-2.2,0-1.3,0.2-3.6,0.2c-2.2,0-1.3-0.2-3.6-0.2c-1,0-3,0.2-3.9,0.5c-3.1-0.2-6.5-0.5-8.7-0.5c-2.2,0-7.6,0.3-9.9,0.3
				s-0.4-0.2-2.7-0.2c-2.2,0-2.2,0.2-4.5,0.2c-4.6,0-0.4-0.3-3.6-0.3c-2.2,0-0.4,0.2-2.7,0.2c-2.2,0-3.1-0.2-5.4-0.2
				c-2.2,0.1-11.2,0.3-13.5,0.3c-2.2,0-5.8-0.2-8.1-0.2s-5.6,0.1-7.5,0.2c-1,0-1.4-0.2-1.3-0.3H8.3c1,0.2,1.9,0.2,1.8,0.3
				c-1.2,0-1.2-0.1-3.5-0.1c-2.4,0-1.6,0.2-5.9,0.2l-0.1,0l0,0l0,0l0-0.2c0-0.1,0-0.3,0-0.4c0-0.3,0-0.5,0-0.8c0-0.6,0-1.1,0-1.8
				c0-0.7,0.1-1.4,0.1-2.2c0.1-1.5,0.2-2.9,0.2-4c0-2.2-0.2-2.2-0.2-4.5c0-2.2,0.2-1.3,0.2-3.6c0-2.2-0.1-3.6-0.3-4.9
				c0.1-1.3,0.3-0.1,0.3-2.3c0-2.2-0.2,0.4-0.2-1.8c0-2.2,0.2,0.4,0.2-1.8c0-2.2-0.2,0.4-0.2-1.8c0-2.2,0.2-0.4,0.2-2.7
				c0-2.2-0.2-3.1-0.2-5.4c0-2.2,0-3.5,0.2-4.3c0-0.7-0.1-1.1-0.3-1.2c0-1.2,0.1-1.2,0.1-3.5c0-2.2-0.2-2.2-0.2-4.5
				c0-2.2,0.2-4.9,0.2-7.2s-0.2-4.9-0.2-7.2c0-2.2,0.1-2.5,0.1-3.3c0-4.4,0-8.9,0.1-13.2c0.1-0.5,0.1,0.8,0.1-1.4
				c0-2.2-0.3-8.3-0.5-12V4.9c0.1-0.1,0.1,1.8,0.3,3.5V4.1V0.6l0-0.2l0-0.1l0.1,0c0.1,0,0.2,0,0.3,0c0.2,0,0.4,0,0.5,0
				c0.3,0,0.5,0,0.7,0c0.4,0,0.6,0,0.8-0.1c0.1,0,0.2,0,0.3,0c0.1,0,0.3,0,0.4,0c0.2,0,0.6,0,1.1,0c2.2,0,3.1,0.2,5.4,0.2
				s1.3-0.2,3.6-0.2s0.4,0.2,2.7,0.2c2.2,0,3.1-0.2,5.4-0.2c2.2,0,7.6,0.1,9.9,0.2c1.7,0,5.4,0.1,6.6-0.2c1.3,0.1,3.2,0.2,3.9,0.3
				c2.5,0,2.9,0.1,2.9-0.1c0-0.2-1.8-0.1-1.5-0.2c2.3,0.2,4.7,0.3,6.9,0.3c0.6,0,4.8-0.2,5.5-0.5h3.3c0.1,0.2,1.9,0.3,2.6,0.5
				c0.7,0,1.1-0.1,1.4-0.3c2.3,0.2,3.8,0.3,6,0.3c2.2,0,5.8-0.3,8.1-0.3s1.3,0.2,3.6,0.2s1.8,0,2.1-0.2c1.4,0.1,0.2,0.3,2.4,0.3
				c2.2,0-0.4-0.2,1.8-0.2c2.2,0,2.2,0.2,4.5,0.2c3.9,0,4.8,0,5.5-0.5h3.3c0.1,0.1,1.5,0.5,2.8,0.5c2.2,0-0.4-0.2,1.8-0.2
				c2.2,0-0.4,0.2,1.8,0.2c2.2,0,3.3-0.2,4.9-0.3c1.3-0.1,2.7,0,5,0c2.2,0.1,11.2,0.3,13.5,0.3c7.7,0,5.4-0.3,9-0.3
				c3.8,0,1.2,0.3,9,0.3c2.2,0,4.9-0.2,7.2-0.2s6.1,0.2,8.7,0.3c0.8,0,1.2-0.1,1.3-0.3h3c2.2,0,1.9,0.2,3.5,0.2
				c0.5,0.1,0.4,0.2,1.1,0.3c0,0,0.8,0,1.6,0c0.5,0,0.9,0,1.2,0c0.1,0,0.2,0,0.2,0c0,0,0,0.1,0,0.2c0,0.1,0,0.2,0,0.2
				c0,1.6,0,2.1,0.1,2.4c0.1,0.2,0.1,0.3,0.2,1c0,1.7,0,4.4,0.1,6.1c0,0.8,0.1-0.7,0.1,1.5c0,2.2-0.2,6.1-0.3,8.7
				c0,0.8,0.1,1.2,0.3,1.5c-0.1,1.4-0.2,3.8-0.2,6c0,2.2,0.1,4.7,0.2,6.6c0,1-0.2,1.4-0.3,1.3v4.9c0.1,0.7,0.2,0.6,0.3,0.7v4.7
				c0,2.2-0.2,1-0.2,3.3c0,2.2,0,2.7,0.1,2.9c-0.2,6.4-0.3,2.5-0.3,8.8c0,3.9,0.3,8.6,0.3,9.9c0,2.2-0.3,4-0.3,6.3
				c0,2.2,0.2,0.4,0.2,2.7c0,2.2-0.2-0.4-0.2,1.8c0,2.2,0.2,7.4,0.3,10.4c0,0.7,0,0,0,2.2c0,1.1,0,2.4-0.1,3.7
				c0,0.6-0.1,1.2-0.1,1.8c0,0.1,0,0.3,0,0.4l0,0.2c0,0.1,0,0,0,0.1l-0.1,0.1v0.2c0.1,0.1,0.2,0.1,0.3,0.1c-0.3,0.2-0.5,0.5-0.5,0.9
				c-0.1,0-0.1-0.1-0.3-0.1c-0.5,0-0.5,0.6-0.9,0.6c-0.2,0-0.1,0-0.2,0c0-0.1-0.2-0.7-0.5-0.7c-0.2,0-0.2,0.2-0.3,0.1
				c0-0.5-0.3-0.6-0.3-0.8c0-0.1,0-0.2,0.1-0.3l0,0l0,0c0,0,0,0,0,0l0-0.1l0-0.8c0-0.5,0-1.1,0-1.6c0-2.2-0.2-3.1-0.2-5.4
				c0-2.2,0.1-0.7,0.1-1.5c0.1-3.4,0.1-8.8,0.2-11.1c0-2.2,0.1-4.1,0-5.6c-0.1-1.5-0.3-2.9-0.3-5.2c0-2.2,0.1-0.7,0.1-1.5
				c0-1.7,0-4.3,0-6.6c0-2.2,0-6.5-0.2-10.6c0.1-0.2,0.1,0.8,0.2,1.6c0.1,0,0.1-1.8,0.3-2.5c0-0.7-0.2-0.7-0.2-2.9
				c0-2.2,0.1-1.7,0.2-2.3c-0.1-1.5,0-3.1-0.2-3.1c-0.2,0-0.1,1.8-0.2,1.7v-5.1c0.2-1.1,0.3-2.4,0.3-4.7c0-2.2-0.2,0.4-0.2-1.8
				c0-2.2,0.2,0.4,0.2-1.8c0-2.2-0.2-1.3-0.2-3.6c0-2.2,0.2-2.2,0.2-4.5c0-2.2-0.1-6-0.2-8.3c-0.1-1.6-0.2-2.6-0.3-4
				c0.1-0.3,0.2,1.5,0.3,1.6c0-2.1,0-4.7,0.1-7.1c0-0.3,0-0.6,0-0.9l0-0.2c0-0.1,0-0.1,0-0.2c0-0.1-0.1,0-0.1-0.1
				c-0.1,0-0.2,0-0.3,0c-0.4,0-0.7,0-1,0c-2.2,0-4.6,0-6,0.1v0c-2.5,0-1.1-0.1-1.8-0.2c-0.7,0-1.2,0.1-1.3,0.3
				c-1.2,0-0.3-0.1-2.6-0.1s-0.9,0-1,0.1c-1.2,0-1.7-0.2-1.5-0.3c-4.2,0-9.6,0-14.1,0c-0.4-0.1,0.9-0.1-1.3-0.1s-8.5,0.3-10.8,0.3
				s-3.1-0.3-5.4-0.3s0.4,0.2-1.8,0.2s-4.4-0.2-5.2-0.3c-0.7,0-1.1,0.1-1.2,0.3h-3.3c-0.1-0.1-1.9-0.2-2.5-0.3
				c-0.6,0-2.3,0.1-3.2,0.5h-3.3c-0.1-0.1,1.7-0.2,1.7-0.2c-0.8-0.1,0.4-0.1-1.8-0.1c-2.2,0-4,0.3-6.3,0.3C98,3.1,98.9,3,96.7,3
				c-2.2,0-1.3,0.2-3.6,0.2c-2.2,0-0.4-0.2-2.7-0.2s-1.8,0-2.1,0.2c-1.3-0.1-2.6-0.2-4-0.3c-1.5-0.1-4.2,0-6.5,0s-4.9,0-6.6,0
				c-1,0-1.6,0.1-2.9,0.3c0,0,1,0-1.3,0s-3.1-0.2-4.4-0.3c-0.6,0-1.5,0-3.7,0c-7.6,0-5.3,0.3-9,0.3c-2.9,0-3.4-0.3-6.9-0.5h-2.4
				c-0.7,0.1-0.6,0-0.6,0.2c0,0.2,1.8,0.2,1.7,0.3h-6.5C33.1,3.1,33,3,30.7,3c-2.2,0-3.3,0.1-4.7,0.2c-0.3-0.1,1.5-0.2,1.6-0.3
				c-0.8-0.1,0.4-0.1-1.8-0.1c-2.2,0-1.3,0.2-3.6,0.2c-2.2,0-1.3-0.2-3.6-0.2c-2.2,0-4,0.2-6.3,0.2S9.2,2.8,7,2.8S7.4,3,5.2,3
				c-0.6,0-0.9,0-1.1,0c-0.1,0-0.2,0-0.2,0c0,0,0,0,0,0c0,0-0.1-0.1-0.5-0.1c0,0-0.1,0-0.1,0c0,0,0,0.1,0,0.1c0,0.1,0,0.1,0,0.1
				c0,0.1,0,0.1,0.1,0.1c0,0,0,0.1,0.1,0.1c0,0,0,0.1,0,0.1c0,0,0,0.1,0,0.1c0,0.1,0,0.2,0,0.4c0,2.2-0.2,4.4-0.3,5.1
				c0.1,1.5,0,3,0.2,3c0.2,0,0.1-1.8,0.2-1.7c0,3-0.1,3-0.1,5.3c0,2.2,0,1.8,0.2,2.1c-0.2,2.3-0.3,3.8-0.3,6c0,2.2,0.2,3.1,0.2,4.9
				c0,0.9-0.2,1.1-0.3,3.3h0.5v6.9c-0.1,0.1-0.2,1.9-0.3,2.5c0.2,2.3,0.3,7.1,0.3,9.3c0,2.2-0.2,4.4-0.3,5.2c0,0.7,0.1,1.1,0.3,1.3
				c-0.2,4-0.3,11-0.3,13.2c0,3,0,2.9,0.3,2.8v4.7c0,2.2-0.3,5.5-0.3,7.7c0,2.2,0.2,1.3,0.2,3.6c0,2.2-0.2,4-0.2,6.3
				c0,1.1,0,1.9,0.1,2.7c0,0.4,0,0.8,0.1,1.2c0,0.4,0,0.8,0,1.4c0,0.6-0.2-0.1-0.1,0.6c0.4,0,0.5,0,0.6-0.1c0.3,0,0.7-0.1,1.8-0.1
				c2.2,0,3.1,0.2,5.4,0.2c2.2,0,1.3-0.2,3.6-0.2c2.2,0-0.4,0.2,1.8,0.2c2.2,0,1.3-0.2,3.6-0.2c2.2,0,4.4,0.2,5.2,0.3
				c0.7,0,1.1-0.1,1.2-0.3c1.2,0,0.3,0.1,2.6,0.1c2.2,0-0.4-0.2,1.8-0.2c2.2,0-0.4,0.2,1.8,0.2c2.2,0,1-0.1,1.4-0.1
				c1.7,0,7,0.1,8.7-0.2c1.1,0,1.6,0.2,1.8,0.2c1.3,0.1,2.9,0.2,5.1,0.2c1.3,0,3-0.2,3.8-0.5h5c1,0.2,1.5,0.3,3.8,0.3
				c2.2,0,0.4-0.2,2.7-0.2s3.1,0.2,5.4,0.2c2.2,0,3,0,3.8,0c0.8-0.1,0.7-0.2,1.2-0.3c0.9,0,3.2,0,6.4-0.2c0.2,0.1-0.8,0.1-1.6,0.2
				c0,0.1,1.8,0.1,2.4,0.3c1.5-0.1,3.4-0.2,5.7-0.2s3.1,0.2,5.4,0.2s-0.4-0.2,1.8-0.2s0.7,0.1,1.5,0.1c1.7,0,2.5,0,4.8,0
				c2.2,0,4.6,0,6-0.1v0c2.5,0,0.7,0.2,3,0.2c2.2,0,1.3-0.2,3.6-0.2c2.2,0,1.3,0.2,3.6,0.2s0.4-0.2,2.7-0.2c2.2,0,1.3,0.2,3.6,0.2
				c2.2,0,3.6-0.1,4.9-0.3c2.2,0.2,5.5,0.3,7.7,0.3c2.2,0,1.3-0.2,3.6-0.2c2.2,0,0.4,0.2,2.7,0.2s1.8,0,1.9-0.1
				c1.2,0,1.7,0.2,1.5,0.3h15.4c2.2,0-0.4-0.2,1.8-0.2c2.2,0,0.4,0.2,2.7,0.2s1.3-0.2,3.6-0.2s1.3,0.2,3.6,0.2c0.1,0,0.2,0,0.2,0
				c0,0,0,0,0,0c0,0,0,0,0,0c0,0,0-0.1,0-0.1c0.1,0.1,0.3,0.3,0.4,0.5c0.2,0,0.5,0.2,0.6,0.3c0.1,0,0.1-0.1,0.1-0.3h0.3
				c0.2,0,0.2,0.2,0.3,0.2c0,0.1,0.2,0.2,0.2,0.3s-0.2,0.1-0.2,0.3s0.1,0.3,0.3,0.4c-0.2,0.3-0.3,0.5-0.5,0.7
				c-0.1,0-0.2-0.2-0.3-0.2v0.5h-0.2c-0.2,0-0.1-0.1-0.1-0.2c-0.1,0-0.1,0.1-0.1,0.3c-0.1,0-0.1-0.1-0.2-0.1c-0.1,0-0.3,0-0.4,0
				l-0.2,0c-0.8,0-1.6,0-2.4,0c-3.5,0-6.5-0.1-7.7-0.1c-2.2,0-4.7,0-6.3,0.1C158.2,104.1,159.9,104.2,160.5,104.3z"/>
		</g>
	</g>
</g>
<g>
	<circle fill="#3A494F" cx="216.3" cy="112.8" r="4"/>
	<g>
		<g>
			<path fill-rule="evenodd" clip-rule="evenodd" fill="#3A494F" d="M215,114c0,0.1-0.1,0.1-0.1,0.2c-0.1,0.1-0.2,0.2-0.2,0.3
				c0,0.1-0.1,0.2,0,0.3c0,0,0.1-0.1,0.2-0.1c0,0-0.1,0.2-0.1,0.2c0,0,0.3-0.3,0.3-0.2c0,0-0.1,0.2-0.1,0.2c0,0,0.1-0.1,0.2-0.1
				c0,0-0.1,0.4-0.1,0.6c0.2-0.1,0.4-0.3,0.4-0.2c0.1,0,0,0.2,0.1,0.4c0,0,0,0,0,0c0.1,0,0.1-0.2,0.1-0.2c0.1,0,0,0.2,0,0.2
				c0,0,0.1-0.2,0.2-0.6c0,0.2,0.1,0.6,0.1,0.6c0.1,0,0.2-0.4,0.2-0.4c0,0,0,0.2,0.1,0.2c0.1,0,0-0.2,0.1-0.2c0.1,0,0.1,0.4,0.1,0.4
				c0.1,0,0-0.2,0-0.2c0,0,0.1,0.2,0.2,0.2c0.1,0,0.2-0.4,0.2-0.5c0,0,0.2,0.1,0.2,0.1c0,0,0.1-0.1,0.1-0.2c0,0,0.1,0.2,0.2,0.3
				c0,0,0.3-0.2,0.3-0.2c-0.2-0.2-0.2-0.2-0.3-0.3c0,0,0.1,0.1,0.2,0.1c0,0-0.1-0.2,0-0.2c0,0,0.4,0.2,0.4,0.2c0,0-0.1-0.2-0.1-0.2
				c0,0,0.2,0.1,0.2,0.1c0,0-0.1-0.2-0.2-0.3c0.1,0,0.3,0.2,0.3,0.2c0,0-0.2-0.1-0.1-0.2c0,0,0.1,0.1,0.2,0.1c0,0-0.2-0.1-0.1-0.1
				c0,0,0.2,0.1,0.2,0.1c0,0-0.1-0.2-0.1-0.2c0,0,0.1-0.1,0.2,0c0,0-0.1-0.1-0.3-0.2c0,0,0.2,0.1,0.2,0c0,0-0.2-0.1-0.1-0.2
				c0,0,0.2,0,0.2-0.1c0-0.1-0.1-0.2-0.1-0.2c0,0,0.1,0,0.2,0c0.1-0.1,0.1-0.2,0.1-0.3c0.1,0,0.2,0,0.2,0c0-0.1-0.4-0.2-0.6-0.3
				l0-0.1c0.1,0,0.2,0,0.4,0.1l0-0.2c0-0.1-0.2,0-0.2-0.1c0,0,0.2-0.1,0.2-0.1c0-0.1-0.2,0-0.2,0c0,0,0.2,0,0.2-0.1
				c0-0.1-0.2,0-0.2-0.1c0,0,0.1-0.2,0.1-0.3c0,0,0-0.1-0.2-0.1c0.1-0.1,0.2-0.2,0.3-0.2c0-0.1,0.1-0.1-0.1,0
				c-0.2,0.1-0.1,0.1-0.2,0.2c0.2-0.1,0.3-0.3,0.3-0.3c0,0-0.2,0-0.5,0.2l0-0.1c0.2-0.1,0.3-0.3,0.4-0.4c0,0-0.1,0.1-0.3,0.2
				c0.1-0.2,0.3-0.3,0.2-0.3c0,0-0.4,0.2-0.4,0.1c0,0,0.1-0.2,0.1-0.2c0,0-0.1,0-0.2,0.1c0-0.1,0.3-0.3,0.2-0.3c0,0-0.1,0.2-0.2,0.1
				c0,0,0.1-0.2,0-0.2c-0.1-0.1-0.1-0.1-0.4,0.4l-0.1,0c0.1-0.1,0.3-0.5,0.3-0.5c0,0-0.1,0.2-0.1,0.1c0,0,0.1-0.2,0.1-0.2
				c0,0-0.2,0.2-0.3,0.3c-0.1,0.1-0.1,0-0.1,0c0,0-0.1-0.4-0.1-0.5c-0.2,0-0.2,0.3-0.3,0.3c-0.1,0,0.1-0.4-0.1-0.4
				c-0.1,0-0.1,0.2-0.2,0.2c-0.1,0-0.1-0.2-0.2-0.4c0,0,0,0.1,0,0.4l-0.1,0c-0.1,0-0.1-0.2-0.1-0.2c0-0.1,0-0.3-0.1-0.4l-0.1,0
				c-0.1,0,0,0.2,0,0.4c0,0-0.1,0-0.1,0.1c0,0.1,0,0.2,0,0.2c0,0-0.2-0.2-0.3-0.3c0,0,0,0.1,0.1,0.4c-0.1-0.1-0.1-0.1-0.2-0.1
				c-0.1,0-0.1,0.1-0.1,0.2c0,0-0.1-0.2-0.2-0.3l-0.1,0.1c0,0.1,0.1,0.2,0.2,0.4l-0.1,0.1c0,0-0.1-0.1-0.2-0.1c0,0,0,0.1,0,0.2
				c-0.3-0.1-0.3-0.3-0.4-0.2c-0.1,0.1,0.1,0.4,0.1,0.5c0,0-0.3-0.2-0.4-0.2c0,0,0.1,0.1,0.1,0.2c0,0-0.1-0.1-0.2-0.1
				c0,0,0,0.3,0.1,0.4c0,0,0,0,0,0.1c0,0.1-0.2,0-0.4,0c0,0-0.1,0.2-0.1,0.2c0.1,0.1,0.2,0.1,0.3,0.2c-0.4,0-0.7,0.1-0.8,0.6
				c-0.1,0-0.1-0.2-0.3-0.2c-0.3-0.1-0.5,0.1-0.6,0.3c-0.2,0.2-0.3,0.4-0.5,0.4c-0.2,0-0.2,0-0.2-0.1c-0.1-0.2-0.1-1.1-0.5-1.2
				c-0.2-0.1-0.3,0.2-0.4,0.2c0.2-0.8-0.1-1.1,0.1-1.5c0.1-0.2,0.2-0.3,0.3-0.4c0.1-0.1,0.1-0.1,0.1-0.1c0,0,0.1,0,0.1-0.1
				c0.1-0.1-0.1-0.3,0-0.4c0.1-0.1,0.1,0,0.2,0c0.1-0.1,0.5-0.3,0.5-0.3c0.1-0.1,0.2-0.1,0.2-0.2c0-0.1-0.1-0.4-0.1-0.5
				c0.1-0.1,0.1,0.1,0.2,0.1c0.1,0,0.2-0.1,0.3-0.2c0.1-0.1,0.3-0.2,0.4-0.5c0.1,0.1,0.1,0.2,0.1,0.3c0,0.1,0.2,0.1,0.3,0.2
				c0,0-0.1-0.2,0-0.3c0.1-0.1,0.1,0,0.2,0.1c0-0.1,0.1-0.1,0-0.3c-0.1-0.2-0.2-0.1-0.2-0.2c0,0,0.3-0.1,0.3-0.1
				c0.1,0.2,0.3,0.3,0.4,0.2c0.1-0.1-0.1-0.2,0-0.2c0.1,0,0.1,0.2,0.2,0.1c0.1,0,0-0.2,0.1-0.2c0.1,0,0.2,0.1,0.3,0.1
				c0.1,0,0.3-0.2,0.4-0.3c0.1-0.1,0.1-0.3,0.1-0.4c0,0.1,0,0.2,0,0.4c0.2-0.1,0.6,0.1,0.7,0.1c0.1,0,0.2,0,0.3-0.2l0-0.1
				c0.1,0,0.1,0.1,0.1,0.2c0,0,0.1-0.2,0.1-0.4c0.1,0,0,0.2,0.1,0.2c0.1,0,0.1,0,0.1-0.2c0.1,0,0.1,0.2,0.1,0.4c0.2,0,0.5,0,0.7,0.1
				c0,0.1-0.1,0.1,0,0.2c0.1,0,0.5-0.3,0.7-0.2c0.1,0,0,0.4,0.2,0.5c0.1,0,0-0.2,0.2-0.1c0.1,0,0.1,0.3,0.1,0.5c0,0,0.1-0.1,0.2-0.3
				l0.2,0.1c-0.1,0.1,0,0.2,0,0.4c0,0,0.2-0.1,0.4-0.4l0.2,0.1c-0.1,0.1-0.2,0.2-0.2,0.2c0,0.1-0.1,0,0,0.1c0.1,0.1,0.4-0.2,0.5-0.2
				c0.1,0.1,0,0.2,0,0.3c0.1,0.1,0.2-0.1,0.3,0c0.1,0.1-0.1,0.2,0,0.2c0.1,0.1,0.1,0,0.2-0.1c0,0.1-0.1,0.3-0.1,0.4
				c0,0.1,0.2,0.2,0.2,0.2c0.1,0.1,0.1,0.2,0.2,0.2c0.1,0,0.2,0,0.3-0.1c0,0,0-0.1,0.1,0c0.1,0.1-0.1,0.3-0.2,0.4
				c0,0.1,0,0.1,0.1,0.2c0.2,0.3,0.5,0,0.6,0.2c0.1,0.1-0.2,0.3-0.3,0.6l0.1,0.1c0.1,0,0,0,0.2-0.1c0.2-0.1,0.2-0.2,0.3-0.2
				c0,0,0.1,0.3,0.1,0.3c0.1,0.1-0.1,0.2-0.1,0.3c0,0.1,0.1,0.1,0.3,0.2c-0.1,0.1-0.2,0-0.3,0c-0.1,0.1-0.1,0,0,0.1
				c0,0.1,0.2,0,0.2,0.1c0,0.1-0.2,0.1-0.1,0.2c0,0.1,0.2,0.2,0.2,0.3c0,0.1-0.2,0.2-0.1,0.3c0,0.1,0.2,0,0.2,0.1
				c0,0.1-0.2,0-0.2,0.2c0,0.1,0.2,0,0.2,0.1c0,0.1-0.2,0.2-0.4,0.3c0.1,0.1,0,0.2,0.3,0.2c0.2,0,0.1-0.1,0.3-0.1
				c0,0.2-0.2,0.2-0.2,0.3c0,0.1,0,0.1,0.2,0.1c-0.2,0.1-0.4,0.2-0.4,0.3c0,0.1,0.2,0.2,0.2,0.3c0,0-0.2,0-0.4,0.1l0.6,0.1l-0.1,0.4
				c-0.1,0-0.2,0-0.4,0c0.1,0.2,0.2,0.5,0.2,0.6c0,0.1-0.3,0.1-0.5,0.1c0,0,0.1,0.1,0.3,0.2c-0.3,0.1-0.6,0.3-0.7,0.4
				c-0.1,0.1-0.1,0.1,0.2,0.3l-0.2,0.2c-0.1,0.1-0.5,0-0.6,0.1c-0.1,0.1,0.1,0.2,0,0.3c-0.1,0.1-0.3,0-0.4,0.1
				c-0.1,0.1,0,0.3-0.1,0.3c-0.1,0.1-0.1-0.2-0.2-0.1c-0.1,0.1,0.1,0.2,0,0.3c-0.1,0.1-0.2-0.1-0.3,0c-0.1,0.1,0.1,0.2,0,0.3
				c-0.1,0.1-0.1-0.2-0.2-0.1c-0.1,0.1,0,0.2-0.1,0.3c-0.1,0.1-0.3-0.1-0.4-0.2c0,0,0,0.2,0.1,0.4c-0.1,0-0.1-0.2-0.2-0.1
				c-0.1,0.1,0.1,0.2,0,0.2c-0.1,0.1-0.1-0.2-0.2-0.1c-0.1,0,0,0.1,0,0.2c-0.1,0.1-0.4,0-0.4,0.4c-0.1,0-0.1-0.2-0.2-0.3
				c-0.1-0.1-0.2-0.2-0.3-0.2c-0.1,0-0.1,0.3-0.1,0.6c0,0-0.3,0-0.3,0c-0.1-0.2-0.1-0.4-0.3-0.3c-0.1,0,0,0.2-0.1,0.2
				c-0.1,0-0.2-0.2-0.3-0.2c-0.1,0-0.2,0-0.2,0c0,0.1,0,0.2-0.1,0.3c-0.1,0-0.2,0-0.4,0.2c0-0.1,0.1-0.2,0.1-0.2
				c0-0.1-0.1-0.2-0.1-0.3c-0.1,0.1-0.2,0.2-0.3,0.2c-0.1,0-0.1-0.2-0.3-0.2c-0.1,0,0,0.2-0.1,0.2c-0.1,0,0-0.1,0-0.2
				c-0.1,0-0.1,0-0.2-0.1c-0.1,0-0.2-0.1-0.3,0.1l0,0.1c-0.1,0,0-0.2-0.1-0.2c-0.1,0-0.1,0.2-0.2,0.1c-0.1,0,0-0.2-0.1-0.2
				c-0.1,0-0.1,0.2-0.2,0.1c-0.1-0.1,0-0.2-0.1-0.3c-0.1-0.1-0.2,0.1-0.4,0.2c0-0.2-0.1-0.5-0.2-0.5c-0.1-0.1-0.2,0.1-0.3,0.1
				c-0.1-0.1,0.1-0.2,0-0.2c-0.1-0.1-0.1,0-0.2,0.1c-0.1,0,0.1-0.2,0.2-0.4c0,0-0.2-0.1-0.3-0.2c-0.1-0.1-0.3-0.3-0.3-0.3
				c-0.1-0.1-0.1,0.2-0.2,0.1c-0.1-0.1,0.1-0.1,0-0.2c-0.1-0.1-0.2,0.1-0.3,0c-0.1-0.1,0.1-0.2,0-0.3c-0.2-0.2-0.2-0.2-0.3-0.1
				c0-0.2,0-0.6,0.2-0.8c-0.1-0.3-0.1-0.8,0-1c0-0.1-0.2-0.1-0.4,0l-0.1-0.4c-0.1-0.3,0.1-0.3,0.2-0.5c0.2-0.1,0.2-0.3,0.4-0.3
				c0.2,0,0.2,0.2,0.4,0.2c0.2,0,0.4-0.2,0.5-0.4c0.3,0.2,0.6,0.3,1,0.4c0,0.1-0.2,0.2-0.2,0.3l0.6-0.1c0,0,0,0.1,0,0.1
				c0.1,0.1-0.1,0.1-0.1,0.1c0,0,0.2,0,0.4-0.1c0,0.1-0.1,0.1-0.1,0.2c0,0.1,0.1,0.2,0.1,0.3c0,0.1,0,0.1,0.1,0.1c0,0,0,0.1,0,0.1
				c0,0.1,0,0.2,0,0.2c0,0,0.1,0.1,0.1,0C214.8,114.2,214.9,114.1,215,114z"/>
		</g>
	</g>
</g>
<g>
	<line fill="#FFFFFF" x1="176.4" y1="79.5" x2="216.3" y2="112"/>
	<g>
		<g>
			<path fill-rule="evenodd" clip-rule="evenodd" fill="#3A494F" d="M180.8,80.1c0,0.1,0.1,0.3,0.2,0.4c0,0.1-0.1,0.2-0.1,0.3
				c0.2,0.2,0.1,0.4,0.3,0.5s0.2-0.1,0.3,0c0.1,0.1,0,0.2,0.1,0.3c0.1,0.1,0.6,0,0.7,0.1c0.1,0.1-0.1,0.2,0.1,0.3
				c0.1,0.1,0.2-0.1,0.4,0c0.1,0.1,0,0.5,0,0.8c0.3,0,1,0.3,1.1,0.4c0.3,0.2,0,0.3,0.2,0.6c0,0-0.1,0,0.1,0.1c0.1,0.1,0.2-0.1,0.4,0
				c0.1,0.1,0,0.2,0.1,0.3c0.1,0.1,0.4,0,0.6-0.2c0.1,0.3,0.1,0.8,0.2,0.9s0.7,0.1,0.9,0.2c0.1,0.1-0.1,0.2,0.1,0.3
				c0.1,0.1,0.3,0,0.4,0.1c0.3,0.2-0.2,0.3,0,0.5c0.1,0.1,0.2-0.1,0.3,0c0.1,0.1,0.1,0.3,0.2,0.4s1,0.3,1.1,0.4
				c0.1,0.1,0.3,0.5,0.4,0.6c0.1,0.1,0.4,0.2,0.6,0.3c0.1,0.1-0.1,0.3-0.2,0.4l1,0.8c0.1-0.2,0-0.3,0.1-0.4c0.1,0.1,0,0.2,0.1,0.3
				c0.1,0.1,0.3,0,0.4,0.1c0.1,0.1,0.1,0.6,0.3,0.7c0.1,0.1,0.3,0,0.4,0.1c0.1,0.1,0,0.2,0.1,0.3c0.1,0.1,0.3,0.1,0.6,0
				c0,0.2-0.2,0.3-0.1,0.4s0.1-0.2,0.2-0.1c0.1,0.1-0.2,0.1,0,0.2c0.1,0.1,0.1-0.2,0.2-0.1s-0.1,0.2,0.1,0.3s0.3,0,0.5,0.1
				c0.1,0.1,0.2,0.2,0.2,0.4c0,0,0.2-0.1,0.3-0.2c0.1,0.1,0,0.2,0.1,0.3c0.1,0.1,0.3,0,0.4,0.1s0.2,0.4,0.4,0.5
				c0.1,0.1,0.4,0.1,0.6,0.2c0.1,0.1,0.1,0.2,0.1,0.3c0.3,0.3,0.5,0.5,0.8,0.8c0,0.1-0.2,0.1,0,0.2c0.1,0.1,0.8,0.2,1.2,0.2l0.2,0.2
				c-0.1,0.1-0.2,0-0.5,0.1l0.4,0.4c0.2,0.1,0.2-0.1,0.3,0c0.1,0.1,0.1,0.3,0.2,0.4c0.1,0.1,0.2-0.1,0.4,0c0.1,0.1-0.1,0.2,0.1,0.3
				c0.1,0.1,0.3,0,0.5,0.1c0.1,0.1,0.4,0.6,0.5,0.7c0.1,0.1,0.3,0.3,0.6,0.2c0,0.2,0.1,0.3,0,0.5c0.2,0.1,0.1,0.3,0.3,0.1
				s0-0.2,0.1-0.3c0,0.3,0.1,0.5,0.2,0.7c0,0,0.5,0.1,0.7-0.1l0.2,0.2c-0.1,0.2-0.1,0.4-0.2,0.6c0,0,0.2-0.1,0.3-0.2
				c0,0.3,0,0.5,0.2,0.6c0.1,0.1,0.6,0,0.8,0.1c0.1,0.1,0,0.2,0.1,0.3c0.1,0.1,0.1,0.1,0.3,0c0,0.2-0.2,0.3-0.1,0.4s0.1-0.2,0.2-0.1
				c0.1,0.1,0,0.3,0.2,0.4c0.3,0.2,0.3,0.2,0.7-0.1l0.2,0.2c-0.1,0.1-0.3,0.5-0.2,0.6c0.1,0.1,0.1-0.2,0.2-0.1
				c0.1,0.1-0.2,0.1,0,0.2s0.4,0,0.5,0c0.2,0,0.2,0.1,0.3,0.2c0.1,0.1,0.5,0.9,0.6,1c0.5,0.4,0.6,0,0.8,0.2c0.3,0.2-0.2,0.4,0.4,0.8
				c0.1,0.1,0.4,0.1,0.6,0.2c0.1,0.1,0.3,0.5,0.3,0.8c0.1,0,0.2,0,0.3-0.2l0.2,0.2c0.2,0.1,0,0.2,0.1,0.4c0,0.1-0.1,0.2-0.1,0.3
				l0.2,0.1c0.1,0.1,0.2-0.1,0.4-0.1c0.1,0.1,0.3,0.2,0.4,0.3c0.1,0,0.1-0.2,0.2,0c0.1,0.1,0.3,0.5,0.3,0.8c0.1,0,0.2,0,0.3-0.2
				c0,0.2,0.1,0.4,0.3,0.5c0.1,0.1,0.4,0.2,0.6,0.2c0.1,0.1-0.1,0.3-0.2,0.4l0.3,0.3c0.1,0,0.2-0.2,0.3-0.3l0.3,0.3
				c0.2,0.1-0.1,0.2,0.1,0.3c0.1,0.1,0.2,0.1,0.3,0c0.3,0.5-0.1,0.4,0.3,0.8c0.3,0.2,0.8,0.2,0.9,0.2c0.1,0.1,0,0.5,0.2,0.6
				c0.1,0.1,0.2-0.1,0.3,0c0.1,0.1-0.2,0.1,0,0.2c0.1,0.1,0.6,0.3,0.9,0.3c0.1,0,0,0,0.2,0.1c0.1,0.1,0.2,0.4,0.2,0.6l0,0.1l0.2,0.2
				c0.1,0,0.2-0.1,0.3-0.2c0,0.5,0.1,0.8,0.5,1.2c-0.1,0.1-0.2,0-0.4,0.2c-0.4,0.4,0.2,1-0.1,1.3c-0.2,0.2-0.1,0.1-0.2,0.2
				c-0.2-0.1-0.8-0.4-1.1-0.1c-0.2,0.2,0,0.3-0.1,0.4c-0.5-0.4-0.8-0.1-1-0.3c-0.2-0.2-0.2-0.4-0.4-0.5c-0.1-0.1-0.3,0-0.5-0.1
				c-0.1-0.1,0-0.1,0-0.2c-0.2-0.2-0.4-0.6-0.6-0.8c-0.1-0.1-0.2-0.3-0.4-0.3c-0.2,0-0.4,0.1-0.6,0c-0.1-0.1,0-0.1,0-0.2
				c-0.1-0.1-0.3-0.2-0.4-0.4c-0.1-0.1-0.4-0.4-0.8-0.4c0.1-0.1,0.2-0.1,0.3-0.1c0-0.1,0-0.2,0-0.4c0,0-0.2,0.1-0.3,0
				c-0.1-0.1,0-0.2,0-0.3c-0.2,0-0.2-0.1-0.4,0.1c-0.2,0.2,0,0.2-0.1,0.3l-0.3-0.3c0.1-0.2,0.1-0.4-0.1-0.5
				c-0.1-0.1-0.1,0.2-0.2,0.1c-0.1-0.1,0.2-0.1,0-0.2c-0.1-0.1-0.2,0.1-0.4,0c-0.1-0.1,0-0.3-0.2-0.4c-0.1-0.1-0.5-0.3-0.7-0.3
				c-0.2,0-0.3,0.1-0.5,0.1c0.1-0.1,0.3-0.1,0.4-0.2c-0.3-0.2-0.6-0.7-0.7-0.8c-0.1-0.1-0.3-0.3-0.5-0.2l0,0c-0.2-0.1,0-0.1,0-0.3
				c-0.1,0-0.2,0.1-0.3,0.2c-0.1-0.1,0.1-0.2-0.1-0.3s-0.1,0-0.2,0.1c-0.1-0.1,0-0.3,0.1-0.4c-0.3-0.2-0.6-0.5-0.9-0.8
				c0-0.1,0.2-0.1,0-0.2c-0.1-0.1-0.8-0.2-1-0.3c-0.1-0.1,0-0.5-0.1-0.6c-0.1-0.1-0.1,0.2-0.2,0.1c-0.1-0.1-0.2-0.4-0.1-0.6
				c0,0-0.2,0.1-0.3,0.2l-0.2-0.2c0.1-0.1,0-0.3,0.1-0.4c-0.1,0-0.3,0-0.6,0.3l-0.2-0.2c0.1-0.1,0.3-0.1,0.3-0.1
				c0-0.1,0.1,0-0.1-0.2c-0.1-0.1-0.5,0.1-0.7,0c-0.1-0.1,0-0.2-0.1-0.3c-0.1-0.1-0.2,0.1-0.4,0c-0.1-0.1,0.1-0.2-0.1-0.3
				c-0.1-0.1-0.1-0.1-0.3,0c0-0.2,0-0.3,0-0.5s-0.3-0.2-0.4-0.4c-0.1-0.1-0.3-0.3-0.5-0.3c-0.1,0-0.2,0-0.4,0.1c0,0,0,0.1-0.1,0
				c-0.1-0.1-0.1-0.4-0.1-0.5c0-0.1-0.1-0.1-0.2-0.2c-0.5-0.4-0.6,0-0.8-0.2c-0.2-0.2,0-0.5-0.1-0.8l-0.2-0.1c-0.1,0,0-0.1-0.2,0.1
				c-0.2,0.2,0,0.3-0.1,0.4l-0.4-0.4c-0.2-0.1,0-0.3-0.2-0.4c-0.1-0.1-0.3-0.1-0.4-0.1c0.1-0.1,0.3-0.1,0.3-0.2c0-0.1,0.1,0-0.1-0.2
				c-0.1-0.1-0.2,0.1-0.4,0c-0.1-0.1,0-0.2-0.1-0.3c-0.1-0.1-0.4-0.1-0.5-0.2c-0.1-0.1-0.1-0.3-0.2-0.4c-0.1-0.1-0.1,0.2-0.2,0.1
				c-0.1-0.1,0.1-0.2-0.1-0.3c-0.1-0.1-0.2,0.1-0.3,0c-0.1-0.1-0.2-0.4-0.1-0.6c-0.2,0-0.2-0.1-0.4,0.1s0,0.2-0.1,0.3
				c-0.2-0.2-0.1-0.3-0.2-0.4c-0.1-0.1-0.1-0.1-0.3,0c0-0.3,0-0.5-0.2-0.6c-0.1-0.1-0.3,0-0.4-0.1c-0.1,0,0.1-0.2,0-0.5l-0.4,0.4
				l-0.5-0.4c0.1-0.1,0-0.3,0.1-0.4c-0.3,0-0.7-0.1-0.9-0.2c-0.1-0.1-0.2-0.4-0.1-0.6c0,0-0.2,0.1-0.3,0.2c-0.1-0.4-0.5-0.9-0.6-1
				c-0.2-0.2-0.2-0.2-0.4,0.1l-0.3-0.3c-0.2-0.1-0.1-0.6-0.3-0.7c-0.1-0.1-0.2,0.1-0.4,0c-0.1-0.1-0.1-0.4-0.3-0.5s-0.3,0-0.5-0.1
				s0.2-0.1,0-0.2c-0.1-0.1-0.2,0.1-0.4,0c-0.1-0.1-0.1-0.3-0.2-0.4c-0.1-0.1-0.2,0.1-0.4,0s0.2-0.1,0-0.2c-0.1-0.1-0.2,0.1-0.4,0
				c-0.1-0.1-0.2-0.4-0.1-0.6c0,0-0.2,0.1-0.3,0.2c-0.1-0.1,0.1-0.2-0.1-0.3c-0.1-0.1-0.1,0.2-0.2,0.1c-0.1-0.1,0.2-0.1,0-0.2
				s-0.1,0-0.2,0c-0.1,0-0.4-0.5-0.7-0.3c-0.1-0.1,0-0.3,0.1-0.3c0-0.1,0-0.4-0.2-0.5c-0.1-0.1-0.4,0-0.6,0.2l-0.3-0.3
				c0.1-0.2,0.1-0.4,0-0.5c-0.1-0.1-0.2,0.1-0.3,0c-0.1-0.1-0.1-0.3-0.2-0.4c-0.1-0.1-0.2-0.2-0.3-0.2c-0.1,0-0.2,0.2-0.3,0.2
				c-0.1,0-0.2-0.1-0.6-0.2c0.1-0.1,0.2-0.1,0.3-0.1c0-0.1,0-0.2,0-0.4c-0.2,0-0.4,0-0.5-0.2c-0.1-0.1-0.1-0.3-0.2-0.4
				c-0.1-0.1-0.1,0.2-0.2,0.1s0-0.1,0-0.2c-0.1-0.1-0.2-0.2-0.3-0.3c-0.1-0.1-0.3-0.3-0.5-0.2l0,0c-0.2-0.1,0.1-0.2-0.1-0.3
				c-0.1-0.1-0.2,0.1-0.4,0c-0.1-0.1,0-0.2-0.1-0.3s-0.2,0.1-0.3,0c-0.1-0.1,0-0.2-0.1-0.3c-0.1-0.1-0.3-0.1-0.6,0
				c0-0.3-0.1-0.6-0.3-0.7c-0.1-0.1-0.2,0.1-0.4,0c-0.1-0.1,0.1-0.2-0.1-0.3c-0.1-0.1-0.1-0.1-0.2,0c-0.1-0.1,0-0.3,0.1-0.4l-1-0.8
				c-0.2-0.1-0.1,0.2-0.2,0.1c-0.1-0.1,0.1-0.2-0.1-0.3c-0.1-0.1-0.2,0.1-0.4,0s0-0.2-0.1-0.3c-0.2-0.1-0.2-0.1-0.3,0
				c0-0.2-0.1-0.5,0-0.7c-0.2-0.2-0.4-0.6-0.3-0.8c-0.1,0-0.2,0-0.3,0.2l-0.3-0.2c-0.2-0.1,0-0.3-0.2-0.4c0.1-0.2-0.1-0.3,0.1-0.5
				c0.2-0.2,0.2,0,0.4-0.2c0.2-0.2,0.1-0.4,0-0.6c0.4-0.1,0.7-0.2,1.1-0.3c0.1,0.1,0,0.3,0.2,0.4l0.4-0.5l0.2,0.2
				c0.2,0.1,0,0.1,0,0.3c0.1,0,0.2,0,0.3-0.2c0.1,0.1,0.1,0.2,0.1,0.3c0.2,0.2,0.4,0.4,0.6,0.6c0.3,0.3,0.5,0.6,0.6,0.6
				c0.1,0.1,0.3,0.3,0.5,0.3C180.7,80.5,180.7,80.3,180.8,80.1z"/>
		</g>
	</g>
</g>
<g>
	<rect x="2.1" y="78.8" fill="#3A494F" width="173.6" height="100.6"/>
	<g>
		<g>
			<path fill-rule="evenodd" clip-rule="evenodd" fill="#3A494F" d="M159.7,181.8c-1.2-0.1-2.7-0.2-4.4-0.2
				c-0.5-0.1-0.3-0.3-1.1-0.3c-2.6,0-4.3-0.2-6.6-0.2c-2.2,0-0.4,0.2-2.7,0.2c-2.2,0-1.3-0.2-3.6-0.2c-2.2,0-4.9,0.4-7.1,0.4
				c-2.2,0-0.4-0.2-2.7-0.2c-2.2,0-1.3,0.2-3.6,0.2c-2.2,0-4.3-0.4-5.9-0.6c-3.3,0.2-10.7,0.4-12.9,0.4c-4.4,0-2.8-0.3-6.8-0.4
				c0,0,1,0-1.2,0c-2.2,0-1.3,0.2-3.6,0.2c-2.2,0-1.3-0.2-3.6-0.2c-1,0-3,0.3-3.9,0.6c-3.1-0.2-6.4-0.6-8.7-0.6
				c-2.2,0-7.6,0.4-9.8,0.4c-2.2,0-0.4-0.2-2.7-0.2c-2.2,0-2.2,0.2-4.5,0.2c-4.6,0-0.4-0.4-3.6-0.4c-2.2,0-0.4,0.2-2.7,0.2
				s-3.1-0.2-5.4-0.2c-2.2,0-11.2,0.4-13.4,0.4c-2.2,0-5.8-0.2-8-0.2c-2.2,0-5.6,0.1-7.5,0.2c-1,0-1.4-0.3-1.3-0.4H8.2
				c1,0.3,1.9,0.3,1.7,0.4c-1.2,0-1.2-0.2-3.4-0.2c-0.6,0-1,0-1.3,0c-0.4,0-0.8,0-1.1,0.1c-0.5,0-1,0-1.6,0.1c-0.3,0-0.7,0-1,0
				c-0.2,0-0.4,0-0.6,0c-0.1,0-0.2,0-0.3,0c-0.1,0-0.3,0.1-0.2-0.1c0-1,0-2.1,0.1-3.3c0-0.3,0-0.6,0-0.9c0-0.2,0-0.4,0-0.5
				c0-0.4,0.1-0.7,0.1-1.1c0.1-1.5,0.2-2.9,0.2-4c0-2.2-0.2-2.2-0.2-4.5c0-2.2,0.2-1.3,0.2-3.6s-0.2-3.6-0.4-4.8
				c0.1-1.3,0.4-0.1,0.4-2.3s-0.2,0.4-0.2-1.8c0-2.2,0.2,0.4,0.2-1.8s-0.2,0.4-0.2-1.8s0.2-0.4,0.2-2.7s-0.2-3.1-0.2-5.4
				s0-3.5,0.2-4.3c0-0.7-0.2-1.1-0.4-1.2c0-1.2,0.2-1.2,0.2-3.4s-0.2-2.2-0.2-4.5s0.2-4.9,0.2-7.1s-0.2-4.9-0.2-7.1s0.1-2.5,0.2-3.3
				c0-4.4,0-8.8,0.1-13.2C0.5,98,0.6,99.3,0.6,97s-0.4-8.3-0.6-12V82c0.1-0.1,0.2,1.8,0.4,3.5v-4.2v-4c0,0,0-0.1,0-0.1l0.2,0
				c0.1,0,0.2,0,0.3,0c0.2,0,0.4,0,0.5,0c0.3,0,0.5,0,0.7,0c0.4,0,0.6,0,0.8-0.1c0.2,0,0.4-0.1,0.8-0.1c0.2,0,0.4,0,0.8,0
				c0.2,0,0.4,0,0.7,0c2.2,0,3.1,0.2,5.4,0.2c2.2,0,1.3-0.2,3.6-0.2c2.2,0,0.4,0.2,2.7,0.2c2.2,0,3.1-0.2,5.4-0.2
				c2.2,0,7.6,0.2,9.8,0.2c1.7,0,5.4,0.1,6.6-0.2c1.3,0.1,3.2,0.2,3.9,0.4c2.4,0,2.9,0.1,2.9-0.1s-1.8-0.2-1.5-0.3
				c2.3,0.2,4.6,0.4,6.9,0.4c0.6,0,4.8-0.2,5.5-0.6h3.3c0.1,0.2,1.9,0.4,2.6,0.6c0.7,0,1.1-0.2,1.4-0.4c2.3,0.2,3.7,0.4,6,0.4
				c2.2,0,5.8-0.4,8-0.4c2.2,0,1.3,0.2,3.6,0.2c2.2,0,1.8-0.1,2.1-0.2c1.4,0.1,0.2,0.4,2.4,0.4c2.2,0-0.4-0.2,1.8-0.2
				c2.2,0,2.2,0.2,4.5,0.2c3.9,0,4.8,0,5.5-0.6h3.3c0.1,0.2,1.5,0.6,2.8,0.6c2.2,0-0.4-0.2,1.8-0.2c2.2,0-0.4,0.2,1.8,0.2
				c2.2,0,3.3-0.3,4.9-0.4c1.3-0.1,2.7,0,4.9,0c2.2,0,11.2,0.4,13.4,0.4c7.7,0,5.4-0.4,8.9-0.4c3.8,0,1.2,0.4,8.9,0.4
				c2.2,0,4.9-0.2,7.1-0.2c2.2,0,6.1,0.2,8.6,0.4c0.8,0,1.2-0.2,1.3-0.4h3c2.2,0,1.9,0.2,3.5,0.2c0.5,0.1,0.4,0.3,1.1,0.4h3.5
				c0.1,0,0.2,0,0.3,0c0,0,0.1,0,0.1,0l0,0.1l0,0.1c0,0.2,0,0.3,0,0.5c0,0.3,0,0.5,0,0.7c0,0.4,0,0.6,0.1,0.7
				c0.1,0.3,0.2,0.4,0.3,1.4c0,1.7,0,4.4,0.1,6.1c0.1,0.8,0.2-0.7,0.2,1.5s-0.2,6.1-0.4,8.6c0,0.8,0.2,1.2,0.4,1.5
				c-0.1,1.4-0.2,3.7-0.2,6s0.1,4.7,0.2,6.6c0,1-0.3,1.4-0.4,1.3v4.9c0.1,0.7,0.3,0.6,0.4,0.7v4.7c0,2.2-0.2,1-0.2,3.2
				s0.1,2.7,0.2,2.9c-0.3,6.3-0.4,2.5-0.4,8.7c0,3.9,0.4,8.6,0.4,9.8c0,2.2-0.4,4-0.4,6.3c0,2.2,0.2,0.4,0.2,2.7s-0.2-0.4-0.2,1.8
				s0.2,7.4,0.4,10.3c0,0.7,0,0,0,2.2c0,1.1-0.1,2.4-0.1,3.7c0,0.6-0.1,1.2-0.1,1.8c0,0.1,0,0.3,0,0.4l0,0.2c0,0.1,0,0,0,0.1
				c0,0-0.1,0.1-0.1,0.1v0.3c0.1,0.1,0.3,0.1,0.4,0.1c-0.4,0.3-0.7,0.6-0.6,1.2c-0.1,0-0.1-0.2-0.4-0.2c-0.6,0-0.7,0.8-1.1,0.8
				c-0.3,0-0.2,0-0.3-0.1c-0.1-0.2-0.2-1-0.7-1c-0.3,0-0.3,0.2-0.4,0.2c0-0.6-0.4-0.8-0.4-1c0-0.1,0.1-0.2,0.1-0.4l0,0
				c0,0,0,0,0-0.1l0-0.8c0-0.5,0-1,0-1.6c0-2.2-0.2-3.1-0.2-5.4s0.1-0.7,0.2-1.5c0.1-3.4,0.2-8.8,0.2-11c0-2.2,0.1-4.1,0-5.6
				s-0.4-2.9-0.4-5.2s0.1-0.7,0.2-1.5c0-1.7,0-4.3,0-6.5c0-2.2,0-6.5-0.2-10.5c0.1-0.2,0.2,0.8,0.3,1.6c0.1,0,0.2-1.8,0.3-2.5
				c0-0.7-0.2-0.7-0.2-2.9s0.1-1.7,0.2-2.3c-0.1-1.5-0.1-3.1-0.3-3.1c-0.3,0-0.2,1.8-0.3,1.7v-5c0.2-1,0.4-2.4,0.4-4.7
				s-0.2,0.4-0.2-1.8s0.2,0.4,0.2-1.8s-0.2-1.3-0.2-3.6s0.2-2.2,0.2-4.5s-0.1-5.9-0.2-8.3c-0.1-1.6-0.3-2.6-0.4-3.9
				c0.1-0.3,0.3,1.5,0.4,1.6c0-1,0-2.2,0-3.4c0-1.2,0-2.3,0.1-3.5c0-0.2,0.1-0.6-0.2-0.5c-0.1,0-0.2,0-0.3,0c-0.4,0-0.7,0-1,0
				c-2.2,0-4.6,0-6,0.1v0.1c-2.5,0-1.1-0.1-1.8-0.2c-0.7,0-1.2,0.2-1.3,0.4c-1.2,0-0.3-0.2-2.6-0.2c-2.2,0-0.9,0.1-1,0.2
				c-1.2,0-1.7-0.2-1.5-0.4c-4.2,0-9.5,0-14,0c-0.4-0.1,0.9-0.2-1.3-0.2c-2.2,0-8.5,0.4-10.7,0.4c-2.2,0-3.1-0.4-5.4-0.4
				c-2.2,0,0.4,0.2-1.8,0.2c-2.2,0-4.4-0.2-5.1-0.4c-0.7,0-1.1,0.2-1.2,0.4h-3.3c-0.1-0.1-1.9-0.2-2.5-0.4c-0.6,0-2.3,0.2-3.1,0.6
				h-3.3c-0.1-0.1,1.7-0.2,1.7-0.3c-0.8-0.1,0.4-0.1-1.8-0.1c-2.2,0-4,0.4-6.3,0.4c-2.2,0-1.3-0.2-3.6-0.2c-2.2,0-1.3,0.2-3.6,0.2
				c-2.2,0-0.4-0.2-2.7-0.2c-2.2,0-1.8,0.1-2.1,0.2c-1.3-0.1-2.6-0.3-4-0.4c-1.5-0.1-4.2,0-6.4,0c-2.2,0-4.9,0-6.6,0
				c-1,0-1.6,0.2-2.9,0.3c0,0,1,0-1.3,0c-2.2,0-3.1-0.3-4.3-0.4c-0.6-0.1-1.5,0-3.7,0c-7.6,0-5.3,0.4-8.9,0.4
				c-2.9,0-3.4-0.4-6.8-0.6h-2.4c-0.7,0.1-0.6,0-0.6,0.2c0,0.3,1.8,0.3,1.7,0.4h-6.5c-2.2,0-2.3-0.2-4.6-0.2c-2.2,0-3.3,0.1-4.6,0.2
				c-0.3-0.1,1.5-0.3,1.5-0.3c-0.8-0.1,0.4-0.1-1.8-0.1c-2.2,0-1.3,0.2-3.6,0.2c-2.2,0-1.3-0.2-3.6-0.2c-2.2,0-4,0.2-6.3,0.2
				c-2.2,0-3.1-0.2-5.4-0.2c-2.2,0,0.4,0.2-1.8,0.2c-0.3,0-0.5,0-0.7,0c-0.1,0-0.1,0-0.1,0c-0.1,0-0.1,0-0.1-0.1
				c0-0.1-0.1-0.1-0.5-0.1c-0.2-0.1-0.1,0.2-0.1,0.2c0,0.1,0,0.1,0.1,0.1c0.1,0.1,0.1,0.1,0.1,0.4l0,0.7c0,0.3,0,0.5,0,0.8
				c0,0.5-0.1,1-0.1,1.5C3.7,85,3.6,85.7,3.5,86c0.1,1.4,0.1,3,0.3,3c0.3,0,0.2-1.8,0.3-1.7c0,3-0.2,3-0.2,5.2
				c0,2.2,0.1,1.8,0.2,2.1c-0.2,2.3-0.4,3.7-0.4,6s0.2,3.1,0.2,4.9c0,0.9-0.2,1.1-0.4,3.3h0.6v6.8c-0.1,0.1-0.2,1.9-0.4,2.5
				c0.2,2.3,0.4,7,0.4,9.3s-0.2,4.4-0.4,5.1c0,0.7,0.2,1.1,0.4,1.3c-0.2,4-0.4,11-0.4,13.2c0,3,0,2.9,0.4,2.8v4.7
				c0,2.2-0.4,5.5-0.4,7.7s0.2,1.3,0.2,3.6s-0.2,4-0.2,6.3c0,1.1,0.1,1.9,0.1,2.7c0,0.4,0,0.8,0.1,1.2c0,0.3,0,0.6,0,1
				c0,0.3-0.1,0.3-0.1,0.3c-0.1,0-0.1,0-0.1,0.4c0.3,0,0.5,0,0.6-0.1c0.1,0,0.1-0.1,0.2-0.1l0,0l0.1,0c0.1,0,0.2,0,0.3,0
				c0.2,0,0.4,0,0.7,0c2.2,0,3.1,0.2,5.4,0.2c2.2,0,1.3-0.2,3.6-0.2c2.2,0-0.4,0.2,1.8,0.2c2.2,0,1.3-0.2,3.6-0.2
				c2.2,0,4.4,0.2,5.2,0.4c0.7,0,1.1-0.2,1.2-0.4c1.2,0,0.3,0.2,2.6,0.2s-0.4-0.2,1.8-0.2c2.2,0-0.4,0.2,1.8,0.2
				c2.2,0,1-0.1,1.4-0.2c1.7-0.1,7,0.2,8.6-0.2c1.1,0,1.6,0.2,1.8,0.3c1.3,0.1,2.9,0.3,5.1,0.3c1.3,0,3-0.3,3.7-0.6h5
				c1,0.2,1.5,0.4,3.8,0.4c2.2,0,0.4-0.2,2.7-0.2c2.2,0,3.1,0.2,5.4,0.2c2.2,0,3,0,3.8,0c0.8-0.1,0.7-0.3,1.1-0.3
				c0.9,0,3.2-0.1,6.4-0.2c0.2,0.1-0.8,0.2-1.6,0.3c0,0.1,1.8,0.2,2.4,0.3c1.4-0.1,3.4-0.2,5.7-0.2s3.1,0.2,5.4,0.2
				c2.2,0-0.4-0.2,1.8-0.2c2.2,0,0.7,0.1,1.5,0.2c1.7,0,2.5,0,4.7,0c2.2,0,4.6,0,6-0.1v-0.1c2.5,0,0.7,0.2,3,0.2
				c2.2,0,1.3-0.2,3.6-0.2c2.2,0,1.3,0.2,3.6,0.2s0.4-0.2,2.7-0.2c2.2,0,1.3,0.2,3.6,0.2c2.2,0,3.6-0.2,4.8-0.4
				c2.2,0.2,5.4,0.4,7.7,0.4c2.2,0,1.3-0.2,3.6-0.2c2.2,0,0.4,0.2,2.7,0.2c2.2,0,1.8-0.1,1.9-0.2c1.2,0,1.7,0.2,1.5,0.4h15.3
				c2.2,0-0.4-0.2,1.8-0.2c2.2,0,0.4,0.2,2.7,0.2c2.2,0,1.3-0.2,3.6-0.2c2.2,0,1.3,0.2,3.6,0.2c0.1,0,0.2,0,0.2,0c0,0,0,0,0.1,0
				c0,0,0.1,0,0.1,0c0,0,0-0.1,0-0.2c0.2,0.1,0.4,0.3,0.5,0.6c0.3,0.1,0.7,0.2,0.8,0.4c0.1,0,0.1-0.2,0.1-0.4h0.3
				c0.3,0,0.2,0.2,0.4,0.3c0,0.2,0.2,0.2,0.2,0.5s-0.2,0.2-0.2,0.4c0,0.3,0.2,0.4,0.4,0.6c-0.2,0.3-0.4,0.7-0.6,1
				c-0.1,0-0.2-0.2-0.4-0.2v0.6h-0.3c-0.3,0-0.1-0.1-0.2-0.2c-0.1,0-0.1,0.2-0.1,0.4c-0.1,0-0.2-0.1-0.3-0.2c-0.2,0-0.4,0-0.6-0.1
				l-0.3,0c-0.8,0-1.6,0-2.4,0c-3.5,0-6.5-0.1-7.6-0.1c-2.2,0-4.7,0-6.3,0.1C157.4,181.4,159.1,181.6,159.7,181.8z"/>
		</g>
	</g>
</g>
<g>
	<circle fill="#3A494F" cx="89.3" cy="76.1" r="11.8"/>
	<g>
		<g>
			<path fill-rule="evenodd" clip-rule="evenodd" fill="#3A494F" d="M102,80.2c-0.1,0.2-0.2,0.3-0.3,0.6c-0.1,0-0.2,0-0.3,0.1
				c-0.1,0.3-0.4,0.5-0.5,0.8c-0.1,0.3,0.1,0.1,0,0.4c-0.1,0.3-0.2,0.1-0.4,0.4c-0.2,0.3-0.1,0.7-0.3,1c-0.2,0.3-0.1,0-0.3,0.2
				c-0.2,0.3,0,0.2-0.2,0.5c-0.2,0.3-0.6,0.3-0.9,0.4c-0.1,0.2-0.3,0.6-0.5,0.8c-0.2,0.3-0.5,0.5-0.6,0.6c-0.5,0.4-0.4,0.1-0.9,0.4
				c0,0,0.1-0.1-0.2,0.1c-0.3,0.2-0.1,0.2-0.3,0.4c-0.3,0.2-0.2,0-0.5,0.1c-0.1,0.1-0.3,0.4-0.3,0.6c-0.5,0.1-1,0-1.3,0.2
				C94,88,93.3,88.5,93,88.6c-0.3,0.1-0.1-0.1-0.4,0c-0.3,0.1-0.3,0.2-0.6,0.3c-0.6,0.1-0.1-0.3-0.6-0.2c-0.3,0,0,0.1-0.4,0.2
				c-0.3,0-0.5-0.1-0.8,0c-0.2,0-0.5,0.1-0.9,0.2c-0.4,0.1-0.8,0.1-1,0.1c-0.3,0-0.8-0.2-1.1-0.3c-0.3,0-0.8-0.1-1.1-0.1
				c-0.1,0-0.2-0.2-0.1-0.3c0,0-0.1,0-0.3-0.1c-0.2,0-0.4-0.1-0.7-0.2c-0.2-0.1-0.5-0.2-0.7-0.2c-0.2-0.1-0.3-0.1-0.3-0.1
				c0.1,0.2,0.2,0.3,0.1,0.3c-0.2,0-0.1-0.2-0.4-0.3c-0.3-0.1-0.3,0-0.6-0.2c-0.3-0.1-0.6-0.7-0.9-0.8c-0.3-0.2-0.3,0-0.6-0.2
				c-0.3-0.2-0.1-0.2-0.3-0.4C81.3,86.1,81,86,80.8,86c-0.1-0.2,0.2-0.2-0.1-0.4c-0.2-0.2,0,0.1-0.3-0.1c-0.2-0.2,0.1-0.1-0.1-0.3
				c-0.2-0.2-0.1,0.1-0.3-0.1c-0.2-0.2,0.1-0.1-0.2-0.4c-0.2-0.2-0.4-0.2-0.6-0.5c-0.2-0.3-0.3-0.4-0.3-0.6c-0.1-0.1-0.2-0.1-0.3,0
				c-0.1-0.1,0-0.2-0.2-0.5c-0.2-0.3-0.3-0.2-0.4-0.5c-0.2-0.3-0.2-0.7-0.4-1c-0.1-0.3-0.4-0.6-0.6-0.9c-0.1-0.3-0.1-0.4-0.1-0.5
				c-0.2-0.6-0.3-1.2-0.5-1.8c0.1-0.1,0.1,0.1,0.1-0.2c0-0.3-0.5-1.1-0.6-1.6l0-0.5c0.1,0,0.1,0.3,0.3,0.5c0,0-0.1-0.9,0-0.9
				c0-0.3-0.1-0.1-0.1-0.5c0-0.3,0.2-0.4,0.2-0.8c0-0.3-0.1-0.2-0.1-0.5c0-0.3,0.1,0,0.2-0.4c0-0.3-0.1-0.5,0-0.8
				c0.1-0.3,0.4-1,0.5-1.3c0.1-0.2,0.3-0.7,0.2-0.9c0.2-0.1,0.3-0.3,0.5-0.4c0.1-0.3,0.3-0.3,0.1-0.4c-0.2-0.1-0.2,0.2-0.3,0.1
				c0.3-0.2,0.6-0.4,0.7-0.7c0-0.1,0.2-0.7,0.1-0.9l0.3-0.4c0.1,0.1,0.4,0,0.5,0c0.1-0.1,0-0.2-0.1-0.3c0.3-0.2,0.6-0.2,0.8-0.4
				c0.2-0.2,0.4-0.8,0.6-1c0.2-0.2,0.2,0,0.5-0.2c0.3-0.2,0.2-0.2,0.2-0.3c0.2-0.1,0.2,0.2,0.4,0c0.3-0.2-0.1-0.1,0.1-0.3
				c0.3-0.2,0.3-0.1,0.6-0.2c0.5-0.3,0.6-0.4,0.5-0.8c0,0,0.4-0.2,0.4-0.2c0.1,0.1,0.4,0.3,0.5,0.2c0.3-0.1-0.1-0.1,0.2-0.2
				c0.3-0.1,0,0.2,0.3,0c0.3-0.1,0.4-0.3,0.6-0.5c0.2-0.1,0.4-0.2,0.7-0.3c0.2,0,0.6-0.1,1-0.1c0.4,0,0.8,0,1,0
				c1.1-0.2,0.7-0.3,1.2-0.4c0.5,0,0.2,0.2,1.3,0.3c0.3,0,0.7-0.1,1,0c0.3,0.1,0.8,0.2,1.1,0.5c0.1,0,0.2-0.1,0.2-0.2l0.4,0.1
				c0.3,0.1,0.2,0.2,0.4,0.3c0,0.1,0,0.2,0.1,0.3l0.3,0.1c0.3,0.1,0.2,0,0.4-0.1c0.2,0.1,0.6,0.2,0.8,0.3c0.1,0,0-0.1,0.2,0
				c0.3,0.1,0.7,0.5,0.9,0.8c0.1,0.1,0.2,0,0.3-0.1c0.1,0.2,0.4,0.4,0.6,0.6c0.3,0.2,0.6,0.3,0.8,0.5c0.1,0.1,0,0.3,0,0.3l0.5,0.5
				c0.1,0,0.2-0.1,0.3-0.1l0.4,0.5c0.2,0.2,0,0.2,0.2,0.4c0.2,0.3,0.3,0.3,0.3,0.2c0.4,0.8,0,0.4,0.5,1.2c0.1,0.2,0.4,0.5,0.5,0.6
				c0.2,0.2,0.3,0.4,0.4,0.4c0.1,0.3,0,0.6,0.1,0.9c0.1,0.3,0.1,0,0.3,0.3c0.1,0.3-0.2,0,0,0.3c0.1,0.3,0.4,0.9,0.6,1.3
				c0,0.1,0,0,0.1,0.3c0,0.3,0,0.8-0.1,1l0,0.2c0.1,0.1,0.2,0,0.3,0c-0.3,0.3-0.4,0.5-0.4,0.9c-0.1,0-0.1-0.1-0.3-0.1
				c-0.4,0-0.4,0.6-0.7,0.6c-0.2,0-0.1,0-0.2,0c0-0.1-0.2-0.6-0.5-0.6c-0.2,0-0.2,0.1-0.3,0.1c0-0.4-0.3-0.4-0.3-0.6
				c0-0.1,0.1-0.3,0.1-0.5c0-0.3-0.2-0.3-0.2-0.6c-0.1-0.2,0.1-0.1,0.1-0.2c0-0.2-0.1-0.4-0.1-0.7c0-0.2-0.1-0.5-0.1-0.6
				c-0.1-0.2-0.1-0.5-0.2-0.6c-0.1-0.1-0.4-0.2-0.5-0.4c-0.1-0.2,0-0.1,0-0.2c-0.1-0.2-0.2-0.4-0.4-0.7c-0.1-0.2-0.4-0.6-0.8-0.9
				c0.1-0.1,0.2,0,0.3,0c0,0,0-0.2,0-0.4c-0.1-0.1-0.2,0-0.3-0.2C97,69,97.1,69,97.1,68.9c-0.2-0.1-0.3-0.2-0.4-0.1
				c-0.1,0.1,0.1,0.2,0,0.3c0,0-0.4-0.4-0.4-0.4c0-0.2,0-0.4-0.2-0.6c-0.2-0.2,0,0.1-0.2,0c-0.2-0.2,0.1-0.1-0.1-0.2
				c-0.2-0.2-0.2,0-0.4-0.1c-0.2-0.2-0.1-0.3-0.3-0.4c-0.2-0.1-0.6-0.3-0.9-0.4c-0.2,0-0.3,0-0.5,0c0-0.1,0.2-0.1,0.3-0.2
				c-0.4-0.2-1.1-0.6-1.3-0.7C92.3,66,92.1,66,91.9,66l0,0c-0.3-0.1-0.1-0.1-0.2-0.2c-0.1,0-0.2,0.1-0.2,0.2c-0.1,0,0-0.1-0.3-0.2
				c-0.3,0-0.1,0-0.1,0.1c-0.1,0-0.2-0.2-0.1-0.3c-0.5-0.1-1.1-0.1-1.6-0.2c0-0.1,0.1-0.1-0.2-0.1c-0.3,0-1,0.3-1.2,0.4
				c-0.3,0-0.4-0.2-0.7-0.2c-0.3,0,0.1,0.1-0.2,0.2c-0.3,0.1-0.5,0-0.7-0.1c-0.1,0-0.1,0.1-0.1,0.3c0,0-0.4,0.1-0.4,0.1
				c0-0.1-0.2-0.1-0.4-0.2c-0.1,0.1-0.2,0.2-0.2,0.5c0,0-0.4,0.1-0.4,0.1c-0.1-0.1,0.1-0.2,0.1-0.3c-0.1,0,0-0.1-0.2,0
				c-0.2,0.1-0.3,0.5-0.5,0.6C84.2,67,84.3,66.8,84,67c-0.2,0.1-0.1,0.2-0.3,0.3c-0.2,0.1-0.1-0.1-0.3,0c-0.2,0.1-0.1,0.2-0.1,0.2
				c-0.2,0-0.3,0-0.5,0.1c-0.2,0-0.4,0.3-0.6,0.5c-0.2,0.2-0.5,0.4-0.6,0.5c-0.1,0.1,0,0.2-0.1,0.4c0,0,0.1-0.1-0.1,0.1
				c-0.2,0.2-0.4,0.1-0.5,0.2c-0.1,0-0.1,0.1-0.3,0.3c-0.5,0.7-0.1,0.7-0.4,1c-0.2,0.3-0.4,0.2-0.7,0.5l-0.1,0.3
				c0,0.1-0.1,0,0.1,0.1c0.2,0.1,0.2-0.1,0.3-0.1c0,0-0.3,0.7-0.3,0.7c-0.1,0.2-0.2,0.2-0.3,0.5c-0.1,0.2-0.1,0.4,0,0.6
				c-0.1,0-0.1-0.2-0.2-0.2C79,73.1,79,73,79,73.2c-0.1,0.3,0.1,0.2,0,0.4c-0.1,0.3-0.2,0.1-0.2,0.4c0,0.3,0.1,0.5,0,0.7
				c0,0.3-0.2,0.3-0.2,0.6c0,0.3,0.1,0,0.1,0.2c0,0.3-0.1,0-0.2,0.3c0,0.3,0.1,0.1,0.1,0.3c0,0.3-0.1,0.5-0.2,0.6
				c0.1,0.2,0.1,0.4,0.2,0.3s0.1-0.2,0.2-0.2c0,0.3-0.1,0.4-0.1,0.6c0,0.3,0.1,0.2,0.2,0.2c-0.1,0.3-0.2,0.5-0.1,0.7
				c0.1,0.3,0.2,0.3,0.3,0.5c0,0.1-0.1,0.2-0.2,0.5l0.4-0.1l0.3,0.7c-0.1,0.1,0,0.3-0.1,0.4c0.2,0.2,0.6,0.6,0.7,0.8
				c0.1,0.2,0.1,0.5,0.1,0.7c0,0.1,0.2,0.1,0.3,0c0.2,0.4,0.6,1.2,0.7,1.4c0.2,0.3,0.2,0.3,0.4,0.1c0,0,0.4,0.4,0.4,0.4
				c0.2,0.2,0.3,0.6,0.5,0.8c0.2,0.2,0.2,0,0.4,0.1c0.2,0.2,0.3,0.4,0.5,0.5c0.2,0.1,0.4,0.1,0.6,0.2c0.2,0.1-0.1,0.1,0.1,0.2
				c0.2,0.1,0.2-0.1,0.4,0.1c0.2,0.1,0.3,0.3,0.5,0.4c0.2,0.1,0.2-0.1,0.4,0c0.2,0.1-0.1,0.1,0.2,0.2c0.2,0.1,0.2-0.1,0.4,0
				c0.3,0.1,0.5,0.3,0.5,0.4c0.1,0,0.2-0.1,0.2-0.2c0.1,0,0,0.1,0.3,0.2c0.3,0,0-0.1,0.2-0.1c0.3,0-0.1,0.1,0.2,0.2
				c0.3,0,0.1,0,0.2-0.1c0.2,0,0.8,0.2,1-0.1c0.1,0,0.2,0.2,0.2,0.2c0.2,0.1,0.3,0.2,0.6,0.2c0.2,0,0.3-0.2,0.4-0.4
				c0,0,0.6-0.1,0.6-0.1c0.1,0.1,0.2,0.2,0.5,0.2c0.3,0,0-0.1,0.3-0.2c0.3-0.1,0.4,0,0.6,0c0.3-0.1,0.3-0.1,0.4-0.1
				c0.1-0.1,0-0.2,0.1-0.3c0.1-0.1,0.3-0.2,0.6-0.4c0.1,0.1,0,0.1-0.1,0.2c0,0,0.2,0,0.3,0.1c0.1-0.1,0.3-0.3,0.5-0.4
				c0.2-0.1,0.4,0,0.6-0.2c0.2-0.1-0.1-0.1,0.1-0.2c0.2-0.1,0.1,0,0.2,0c0.2-0.1,0.3-0.1,0.5-0.3c0.2-0.2,0.4-0.3,0.5-0.5l0,0
				c0.2-0.2,0.2,0,0.3-0.1c0.2-0.2,0-0.2,0.2-0.4c0.2-0.2,0.2,0,0.4-0.2c0.2-0.2-0.1-0.1,0.1-0.3c0.2-0.2,0.2,0,0.4-0.2
				c0.2-0.2,0.2-0.4,0.1-0.6c0.3-0.1,0.6-0.3,0.7-0.6c0.1-0.2,0-0.2,0.1-0.4c0.1-0.2,0.1,0,0.3-0.2c0.1-0.2,0.1-0.2,0-0.3
				c0.1-0.1,0.2-0.1,0.3,0c0,0,0-0.1,0.1-0.3c0.1-0.2,0.2-0.4,0.3-0.6c0.1-0.2,0.2-0.4,0.2-0.6c0.1-0.2,0.1-0.3,0.1-0.3
				c0.1-0.3-0.1,0-0.1-0.2c0.1-0.3,0.1,0,0.2-0.3c0.1-0.3-0.1-0.2,0-0.4c0-0.3,0.2-0.1,0.2-0.4c0-0.2,0-0.1-0.1-0.2
				c0.1-0.1,0.3-0.2,0.4-0.2c0.1-0.2,0.2-0.4,0.3-0.5c0,0-0.1-0.1-0.3-0.1l0-0.2c0-0.2,0.1-0.1,0.2-0.3c0.1,0,0.1-0.2,0.3-0.2
				c0.2,0,0.1,0.1,0.3,0.1c0.2,0,0.3-0.1,0.4-0.3c0.2,0.1,0.4,0.3,0.6,0.5c0,0.1-0.1,0.2-0.2,0.3l0.4,0l0,0.2c0,0.2-0.1,0.1-0.1,0.1
				c0,0.1,0.1,0.1,0.3,0.1c0,0.1-0.1,0.1-0.1,0.2c0,0.1-0.1,0.3-0.1,0.4l-0.1,0.2c0,0.1-0.1,0.2-0.1,0.4c-0.1,0.5-0.3,0.9-0.3,1.1
				c-0.1,0.3-0.2,0.6-0.2,0.9C101.7,80.4,101.9,80.2,102,80.2z"/>
		</g>
	</g>
</g>
<g>
	<path fill="#FFFFFF" d="M89.3,82.9c-0.4,0-0.8-0.2-1.1-0.5s-0.5-0.7-0.5-1.1v-6.2c0-0.1-0.1-0.2-0.2-0.2h-1.3
		c-0.4,0-0.7-0.1-0.9-0.4C85.1,74.3,85,74,85,73.6c0-0.4,0.1-0.7,0.4-0.9c0.3-0.3,0.6-0.4,0.9-0.4h3.2c0.4,0,0.8,0.2,1.1,0.5
		s0.5,0.7,0.5,1.1v7.4c0,0.4-0.2,0.8-0.5,1.1s-0.7,0.5-1.1,0.5H89.3z M90.6,70.4c-0.3,0.3-0.8,0.5-1.4,0.5s-1-0.2-1.4-0.5
		c-0.4-0.3-0.5-0.7-0.5-1.2c0-0.5,0.2-0.9,0.5-1.2c0.4-0.3,0.8-0.5,1.4-0.5s1,0.2,1.4,0.5c0.3,0.3,0.5,0.7,0.5,1.2
		C91.2,69.6,91,70,90.6,70.4z"/>
</g>
<g>
</g>
<g>
</g>
<g>
</g>
<g>
</g>
<g>
</g>
<g>
</g>
<g>
</g>
<g>
</g>
<g>
</g>
<g>
</g>
<g>
</g>
<g>
</g>
<g>
</g>
<g>
</g>
<g>
</g>
</svg>
