<?xml version="1.0" encoding="utf-8"?>
<!-- Generator: Adobe Illustrator 18.0.0, SVG Export Plug-In . SVG Version: 6.00 Build 0)  -->
<!DOCTYPE svg PUBLIC "-//W3C//DTD SVG 1.1//EN" "http://www.w3.org/Graphics/SVG/1.1/DTD/svg11.dtd">
<svg version="1.1" id="Layer_1" xmlns="http://www.w3.org/2000/svg" xmlns:xlink="http://www.w3.org/1999/xlink" x="0px" y="0px"
	 viewBox="0 0 12.8 12.6" enable-background="new 0 0 12.8 12.6" xml:space="preserve">
<g>
	<g>
		<circle fill="#FFFFFF" cx="6.4" cy="6.3" r="5.4"/>
		<g>
			<g>
				<path fill-rule="evenodd" clip-rule="evenodd" fill="#3A494F" d="M12.5,8.8c-0.1,0.1-0.1,0.1-0.2,0.2c-0.1,0-0.1,0-0.2,0
					c-0.1,0.2-0.2,0.2-0.3,0.3c-0.1,0.1,0.1,0.1,0,0.2c-0.1,0.1-0.1,0-0.2,0.2c-0.1,0.1,0,0.4-0.1,0.5c-0.1,0.1-0.1,0-0.2,0.1
					c-0.1,0.1,0,0.1-0.1,0.2c-0.1,0.1-0.3,0.1-0.5,0.1c-0.1,0.2-0.4,0.6-0.5,0.7c-0.2,0.2-0.2,0-0.5,0.1c0,0,0,0-0.1,0
					c-0.1,0.1,0,0.1-0.2,0.2c-0.1,0.1-0.1,0-0.3,0c-0.1,0-0.1,0.2-0.1,0.4c-0.2,0-0.5-0.1-0.6,0c-0.1,0.1-0.4,0.3-0.6,0.4
					c-0.1,0-0.1-0.1-0.2,0c-0.1,0-0.1,0.1-0.3,0.1c-0.3,0-0.1-0.2-0.3-0.2c-0.1,0,0,0.1-0.2,0.1c-0.1,0-0.2-0.1-0.4-0.1
					c-0.1,0-0.7,0.2-0.9,0.2c-0.2,0-0.4-0.2-0.5-0.2c-0.1,0-0.4,0-0.5,0c-0.1,0-0.1-0.1,0-0.2c0,0-0.9-0.3-0.9-0.3
					c0,0.1,0.1,0.2,0,0.2c-0.1,0,0-0.1-0.2-0.2c-0.1-0.1-0.2,0-0.3-0.1c-0.1-0.1-0.2-0.4-0.4-0.4c-0.1-0.1-0.2,0-0.3-0.1
					c-0.1-0.1,0-0.1-0.1-0.2c-0.1-0.1-0.2-0.1-0.4-0.1c0-0.1,0.1-0.1,0-0.2c-0.1-0.1,0,0.1-0.2,0c-0.1-0.1,0.1,0,0-0.2
					c-0.1-0.1,0,0.1-0.1,0c-0.1-0.1,0.1-0.1,0-0.2c-0.1-0.1-0.2-0.1-0.3-0.2C1.4,10,1.4,9.9,1.4,9.8c0,0-0.1,0-0.2,0
					c-0.1-0.1,0-0.1-0.1-0.2C1.1,9.5,1,9.6,0.9,9.4C0.8,9.3,0.9,9.1,0.8,9C0.7,8.8,0.6,8.7,0.5,8.6c-0.1-0.1,0-0.2,0-0.2
					C0.4,8,0.4,7.7,0.3,7.5c0,0,0.1,0,0.1-0.1c0-0.1-0.3-0.5-0.4-0.8l0-0.2c0.1,0,0.1,0.1,0.2,0.2c0,0,0-0.4,0-0.4
					c0-0.1-0.1-0.1-0.1-0.2c0-0.2,0.1-0.2,0.1-0.4c0-0.1-0.1-0.1-0.1-0.3c0-0.1,0.1,0,0.1-0.2c0-0.1-0.1-0.2,0-0.4
					c0-0.2,0.2-0.5,0.3-0.6c0-0.1,0.1-0.3,0.1-0.5c0.1-0.1,0.2-0.1,0.3-0.2C1,3.4,1.1,3.5,1,3.4c-0.1-0.1-0.1,0.1-0.2,0
					c0.2-0.1,0.3-0.2,0.4-0.3c0,0,0.1-0.3,0-0.5l0.1-0.2c0.1,0.1,0.2,0,0.3,0c0,0,0-0.1-0.1-0.2c0.2-0.1,0.3-0.1,0.4-0.2
					C2,2,2,1.7,2.2,1.6c0.1-0.1,0.1,0,0.2-0.1c0.1-0.1,0.1-0.1,0-0.2c0.1,0,0.1,0.1,0.2,0.1c0.1-0.1-0.1-0.1,0-0.1
					c0.1-0.1,0.2,0,0.3-0.1C3.2,1.1,3.3,1,3.2,0.8c0,0,0.2-0.1,0.2-0.1c0,0.1,0.2,0.2,0.3,0.2c0.1-0.1-0.1-0.1,0.1-0.1
					c0.1-0.1,0,0.1,0.1,0C4,0.6,4.1,0.5,4.1,0.4c0.1-0.1,0.2-0.1,0.3-0.1c0.1,0,0.8,0,0.9,0C5.9,0.2,5.7,0,5.9,0
					C6.2,0,6,0.2,6.5,0.2c0.1,0,0.3-0.1,0.5-0.1c0.1,0,0.4,0.2,0.5,0.3c0,0,0.1-0.1,0.1-0.2l0.2,0C8,0.3,8,0.4,8.1,0.4
					c0,0.1,0,0.1,0,0.2l0.2,0c0.1,0,0.1-0.1,0.2-0.1c0.1,0,0.3,0.1,0.4,0.1c0.1,0,0-0.1,0.1,0c0.1,0.1,0.3,0.3,0.4,0.4
					c0,0,0.1,0,0.2-0.1C9.6,1,9.7,1.2,9.8,1.2c0.1,0.1,0.3,0.1,0.4,0.2c0.1,0,0,0.2-0.1,0.2c0,0,0.2,0.2,0.2,0.2
					c0.1,0,0.1-0.1,0.2-0.1c0,0,0.2,0.2,0.2,0.2c0.1,0.1,0,0.1,0.1,0.2C11,2.3,11,2.3,11.1,2.2c0.2,0.4,0,0.2,0.2,0.6
					c0.2,0.2,0.5,0.4,0.5,0.4c0.1,0.1,0,0.3,0,0.5c0.1,0.1,0.1,0,0.2,0.1c0.1,0.1-0.1,0,0,0.1c0,0.1,0.3,0.4,0.4,0.6
					c0,0,0,0,0.1,0.1c0,0.1,0,0.4-0.1,0.5l0,0.1c0,0,0.1,0,0.2,0c-0.2,0.2-0.2,0.4-0.2,0.6c-0.1,0-0.1-0.1-0.2-0.1
					c-0.3,0-0.3,0.4-0.5,0.4c-0.1,0-0.1,0-0.1,0c0-0.1-0.1-0.4-0.3-0.4C11,5.9,11,6,11,6c0-0.2-0.2-0.3-0.2-0.4c0-0.1,0-0.1,0-0.2
					c0,0,0-0.1,0-0.1c0-0.1-0.1-0.1-0.2-0.2c0-0.1,0,0,0.1-0.1c0-0.2,0-0.4-0.1-0.5c0-0.1,0-0.2-0.1-0.2c-0.1,0-0.2,0-0.3-0.1
					c-0.1-0.1,0-0.1,0-0.1c0-0.1-0.1-0.2-0.2-0.3C10,3.6,9.9,3.4,9.7,3.4c0-0.1,0.1,0,0.1,0c0,0,0-0.1,0-0.2c0,0-0.1,0-0.2,0
					C9.6,3,9.7,3,9.7,3c-0.1,0-0.1-0.1-0.2,0c-0.1,0.1,0,0.1,0,0.2L9.2,2.9c0-0.1,0-0.2-0.1-0.3c-0.1-0.1,0,0.1-0.1,0
					C9,2.6,9.1,2.6,9,2.6c-0.1-0.1-0.1,0-0.2,0c-0.1-0.1,0-0.1-0.1-0.2C8.6,2.3,8.4,2.2,8.3,2.3c-0.1,0-0.2,0.1-0.2,0.1
					c0-0.1,0.1-0.1,0.1-0.1C8,2.1,7.8,1.9,7.7,1.9c-0.1,0-0.2-0.1-0.3,0l0,0c-0.1,0,0-0.1-0.1-0.1c0,0-0.1,0.1-0.1,0.2
					c-0.1,0,0-0.1-0.1-0.1c-0.1,0,0,0-0.1,0.1C7,1.9,7,1.8,7,1.7c-0.2,0-0.5,0-0.7-0.1c0,0,0-0.1-0.1-0.1c-0.1,0-0.4,0.2-0.5,0.2
					c-0.1,0-0.2-0.2-0.3-0.1c-0.1,0,0,0.1-0.1,0.1c-0.1,0-0.2-0.1-0.3-0.1c0,0,0,0.1,0,0.2c0,0-0.2,0.1-0.2,0.1
					c0-0.1-0.1-0.1-0.2-0.1c0,0-0.1,0.1,0,0.3c0,0-0.1,0.1-0.1,0.1c0-0.1,0-0.1,0-0.2c-0.1,0,0,0-0.1,0c-0.1,0-0.1,0.3-0.2,0.3
					c-0.1,0.1-0.1,0-0.2,0C4,2.4,4.1,2.5,4,2.5c-0.1,0.1-0.1-0.1-0.2,0c-0.1,0.1-0.1,0.1,0,0.1c-0.1,0-0.2,0-0.3,0
					c-0.1,0-0.2,0.1-0.3,0.2C3.2,2.9,3.1,3,3,3.1c0,0,0,0.1,0,0.2c0,0,0,0,0,0.1c-0.1,0.1-0.2,0-0.3,0c0,0,0,0.1-0.1,0.1
					C2.4,3.8,2.6,3.9,2.6,4c-0.1,0.1-0.2,0-0.4,0.2L2.1,4.3c0,0.1,0,0,0.1,0.1c0.1,0,0.1,0,0.2,0c0,0-0.1,0.3-0.1,0.3
					c0,0.1-0.1,0.1-0.2,0.2c0,0.1,0,0.2,0,0.2C2,5,2,4.9,2,4.9c0,0,0,0-0.1,0.1c0,0.1,0.1,0.1,0,0.2c0,0.1-0.1,0-0.1,0.2
					c0,0.1,0.1,0.2,0,0.3c0,0.1-0.1,0.1-0.1,0.3c0,0.1,0.1,0,0.1,0.1c0,0.1-0.1,0-0.1,0.1c0,0.1,0.1,0,0.1,0.1
					c0,0.1-0.1,0.2-0.2,0.3c0.1,0.1,0,0.2,0.2,0.1c0.1,0,0.1-0.1,0.1-0.1c0,0.1-0.1,0.2-0.1,0.3C1.9,7,1.9,7,2,7
					C1.9,7.1,1.8,7.2,1.8,7.3C1.9,7.4,2,7.4,2,7.5c0,0-0.1,0.1-0.1,0.2l0.3-0.1l0.1,0.3C2.2,8,2.2,8.1,2.1,8.1
					c0.1,0.1,0.3,0.2,0.4,0.3c0.1,0.1,0,0.2,0,0.3c0,0,0.1,0,0.2,0c0,0.2,0.2,0.6,0.2,0.6C3,9.5,3,9.5,3.1,9.3c0,0,0.1,0.2,0.2,0.2
					c0.1,0.1,0.1,0.3,0.2,0.4c0.1,0.1,0.1,0,0.2,0c0.1,0.1,0.1,0.2,0.2,0.3c0.1,0.1,0.2,0,0.3,0.1c0.1,0.1-0.1,0.1,0,0.1
					c0.1,0.1,0.1-0.1,0.2,0c0.1,0,0.1,0.2,0.2,0.2c0.1,0,0.1-0.1,0.2,0c0.1,0-0.1,0.1,0,0.1c0.1,0,0.1-0.1,0.2,0
					c0.1,0,0.2,0.2,0.2,0.3c0,0,0.1-0.1,0.1-0.2c0.1,0,0,0.1,0.1,0.1c0.1,0,0-0.1,0.1-0.1c0.1,0,0,0.1,0.1,0.1c0.1,0,0.1,0,0.1-0.1
					c0.1,0,0.3,0.1,0.4-0.1c0.1,0,0.1,0.1,0.1,0.2c0.1,0,0.1,0.1,0.3,0.1c0.1,0,0.2-0.1,0.2-0.3l0.2,0c0.1,0.1,0.1,0.2,0.2,0.2
					c0.1,0,0-0.1,0.1-0.1c0.1,0,0.2,0.1,0.3,0c0.1,0,0.1,0,0.2-0.1c0,0,0-0.1,0-0.2c0,0,0.1-0.1,0.3-0.2c0,0.1,0,0.1,0,0.1
					c0,0,0.1,0,0.2,0.1c0.1-0.1,0.1-0.1,0.2-0.2c0.1,0,0.2,0,0.3,0c0.1,0-0.1-0.1,0-0.1c0.1,0,0.1,0,0.1,0c0.1,0,0.1-0.1,0.2-0.1
					C9,10.2,9.1,10.2,9.1,10l0,0c0.1-0.1,0.1,0.1,0.2,0c0.1-0.1,0-0.1,0.1-0.2c0.1-0.1,0.1,0,0.2,0c0.1-0.1,0-0.1,0-0.2
					c0.1-0.1,0.1,0,0.2-0.1c0.1-0.1,0.1-0.2,0-0.3c0.2,0,0.3-0.1,0.4-0.2c0.1-0.1,0-0.1,0-0.2c0.1-0.1,0.1,0,0.2-0.1
					c0.1-0.1,0-0.1,0-0.1c0-0.1,0.1,0,0.2,0c0,0,0.4-0.7,0.3-0.7c0-0.1-0.1,0-0.1-0.1c0-0.1,0.1,0,0.1-0.1c0-0.1-0.1-0.1,0-0.2
					c0-0.1,0.1,0,0.1-0.2l0,0c0-0.1,0-0.1-0.1-0.1c0.1,0,0.2-0.1,0.3-0.1c0-0.1,0.2-0.3,0.3-0.3c0,0-0.1-0.1-0.2-0.1l0-0.1
					c0-0.1,0.1-0.1,0.1-0.2c0.1,0,0.1-0.1,0.2-0.1c0.1,0,0.1,0.1,0.2,0.1c0.1,0,0.2-0.1,0.3-0.2c0.2,0.1,0.3,0.2,0.4,0.3
					c0,0.1-0.1,0.1-0.1,0.2l0.3,0l0,0.2c0,0.1-0.1,0-0.1,0.1c0,0,0.1,0.1,0.2,0.1c0,0.1-0.1,0.1-0.1,0.1c0,0.2-0.1,0.3-0.2,0.5
					c-0.1,0.3-0.2,0.5-0.3,0.6c-0.1,0.1-0.1,0.3-0.1,0.4C12.3,8.9,12.4,8.8,12.5,8.8z"/>
			</g>
		</g>
	</g>
	<g>
		<path fill="#3A494F" d="M8,6.7c0.1,0,0.3,0.1,0.4,0.2C8.4,7,8.5,7.1,8.5,7.2s0,0.3-0.1,0.4C8.2,7.7,8.1,7.7,8,7.7h0
			c0,0-0.1,0-0.1,0.1v1c0,0.2-0.1,0.3-0.2,0.4C7.6,9.3,7.4,9.4,7.3,9.4c-0.2,0-0.3-0.1-0.4-0.2C6.7,9.1,6.6,8.9,6.6,8.8V7.8
			c0-0.1,0-0.1-0.1-0.1H4.8c-0.1,0-0.2,0-0.3-0.1S4.3,7.4,4.3,7.3c0-0.3,0.1-0.6,0.2-0.9l1.3-2.9c0.1-0.2,0.2-0.4,0.4-0.5
			c0.2-0.1,0.4-0.2,0.7-0.2h0.2c0.2,0,0.4,0.1,0.6,0.2c0.2,0.2,0.2,0.3,0.2,0.6L8,6.7C7.9,6.7,7.9,6.7,8,6.7L8,6.7z M5.5,6.6
			C5.5,6.6,5.5,6.7,5.5,6.6C5.5,6.7,5.5,6.7,5.5,6.6l1,0.1c0.1,0,0.1,0,0.1-0.1V5.2c0-0.4,0-0.9,0-1.4c0,0,0,0,0,0s0,0,0,0
			C6.6,4,6.4,4.4,6.2,5L5.5,6.6z"/>
	</g>
</g>
<g>
</g>
<g>
</g>
<g>
</g>
<g>
</g>
<g>
</g>
<g>
</g>
<g>
</g>
<g>
</g>
<g>
</g>
<g>
</g>
<g>
</g>
<g>
</g>
<g>
</g>
<g>
</g>
<g>
</g>
</svg>
