<?xml version="1.0" encoding="utf-8"?>
<!-- Generator: Adobe Illustrator 18.0.0, SVG Export Plug-In . SVG Version: 6.00 Build 0)  -->
<!DOCTYPE svg PUBLIC "-//W3C//DTD SVG 1.1//EN" "http://www.w3.org/Graphics/SVG/1.1/DTD/svg11.dtd">
<svg version="1.1" id="Layer_1" xmlns="http://www.w3.org/2000/svg" xmlns:xlink="http://www.w3.org/1999/xlink" x="0px" y="0px"
	 viewBox="0 0 177.6 167.1" enable-background="new 0 0 177.6 167.1" xml:space="preserve">
<g>
	<path fill="#FFFFFF" d="M177.3,124.1l-16.8-24.9V6.3c0-2.6-2.1-4.7-4.7-4.7H6.3c-2.6,0-4.7,2.1-4.7,4.7v154.2
		c0,2.6,2.1,4.7,4.7,4.7h149.6c2.6,0,4.7-2.1,4.7-4.7v-36.4H177.3z"/>
	<g>
		<g>
			<path fill-rule="evenodd" clip-rule="evenodd" fill="#3A494F" d="M165.6,110.2c-0.8-1.2-1.8-2.8-2.8-4.5c-0.3-0.5,0-0.4-0.5-1.3
				c-0.9-1.3-1.5-2.4-2.2-3.5c-0.2-0.3-0.4-0.7-0.6-1l-0.2-0.3c0-0.1,0-0.3,0-0.4l0-0.7c0-0.6,0-1.3,0-1.9c0-2.7-0.2-0.5-0.2-3.2
				c0-2.7,0.2-1.6,0.2-4.3c0-2.7-0.3-5.9-0.3-8.6c0-2.7,0.2-0.5,0.2-3.2c0-2.7-0.2-1.6-0.2-4.3c0-2.7,0.3-5.2,0.5-7.1
				c-0.2-4-0.3-12.8-0.3-15.5c0-5.3,0.2-3.4,0.3-8.2c0,0,0,1.2,0-1.5c0-2.7-0.2-1.6-0.2-4.3s0.2-1.6,0.2-4.3c0-1.2-0.2-3.6-0.5-4.6
				c0.2-3.7,0.5-7.7,0.5-10.4c0-1.3-0.1-3.6-0.2-5.9c0-1.1-0.1-2.3-0.1-3.3c0-0.5,0-1,0-1.4c0-0.3-0.1-0.6-0.1-0.8
				c-0.3-0.9-0.4-0.9-0.4-1c0-0.1,0-0.3-0.7-0.9C157,3,156.5,3,156,3c-0.6,0-1.3,0.1-2.6,0.1c-5.5,0-0.5-0.3-4.3-0.3
				c-2.7,0-0.5,0.2-3.2,0.2s-3.8-0.2-6.5-0.2c-2.7,0.1-13.5,0.3-16.2,0.3c-2.7,0-7-0.1-9.7-0.2c-2.7,0-6.8,0.1-9,0.2
				c-1.2,0-1.7-0.2-1.6-0.3H85.4C86.6,3,87.7,3,87.5,3.1c-1.5,0-1.5-0.2-4.2-0.2S80.7,3.1,78,3.1s-7-0.3-9.7-0.3
				c-2.7,0-2.7,0.2-5.4,0.2s-1.6-0.2-4.3-0.2s-4.4,0.1-5.8,0.3C51.2,3,52.7,2.8,50,2.8c-2.7,0,0.5,0.2-2.2,0.2s0.5-0.2-2.2-0.2
				c-2.7,0,0.5,0.2-2.2,0.2S43,2.8,40.3,2.8s-3.8,0.2-6.5,0.2s-4.3,0-5.1-0.2c-0.8,0-1.3,0.1-1.5,0.3c-1.5,0-1.5-0.2-4.2-0.2
				c-2.7,0-2.7,0.2-5.4,0.2S11.7,2.9,9,2.9C8.4,3,7.7,3,6.9,3L6.4,3C6.2,3,6.1,3,6,3c-0.3,0-0.5,0.1-0.7,0.2c-1,0.4-1.7,1.2-2,2.1
				C3.1,5.8,3.1,6.1,3.1,6.4c0,0.4,0,0.7,0,1C3,8,3,8.3,3,8.8c0,5.3,0,10.6-0.1,15.9c-0.1,0.6-0.1-1-0.1,1.7c0,2.7,0.3,10,0.5,14.4
				v3.8c-0.1,0.1-0.1-2.1-0.3-4.2v8c0,2.7,0.2,1.2,0.2,3.9c0,2.7-0.2,3.8-0.2,6.5c0,2.7,0.2,1.6,0.2,4.3c0,2.7-0.2,0.5-0.2,3.2
				c0,2.7,0.2,3.8,0.2,6.5c0,2.7-0.1,9.2-0.2,11.8c0,2-0.1,6.5,0.2,8c-0.1,1.6-0.2,3.8-0.3,4.7c0,2.9-0.1,3.5,0.1,3.5
				c0.2,0,0.1-2.2,0.2-1.8c-0.2,2.7-0.3,5.6-0.3,8.3c0,0.7,0.2,5.8,0.5,6.7v4c-0.2,0.1-0.3,2.2-0.5,3.1c0,0.8,0.1,1.3,0.3,1.7
				c-0.2,2.7-0.3,4.5-0.3,7.2c0,2.7,0.3,7,0.3,9.7c0,2.7-0.2,1.6-0.2,4.3c0,2.7,0,2.2,0.2,2.5c-0.1,1.7-0.3,0.2-0.3,2.9
				s0.2-0.5,0.2,2.2s-0.2,2.7-0.2,5.4c0,1.2,0,2.1,0,2.9c0,0.4,0,0.8,0,1c0,0.2,0.1,0.4,0.1,0.6c0.2,0.7,0.5,0.9,0.9,1
				c0,0,0.4,0.6,0.9,0.9c0.6,0.4,1.2,0.4,1.2,0.4c-0.1,0.2,1.6,0.5,3.2,0.5c2.7,0-0.5-0.2,2.2-0.2c2.7,0-0.5,0.2,2.2,0.2
				s4-0.2,5.9-0.3c1.6-0.1,3.3,0,5.9,0c2.7,0.1,13.5,0.3,16.2,0.3c9.3,0,6.5-0.3,10.8-0.3c4.6,0,1.5,0.3,10.8,0.3
				c2.7,0,5.9-0.2,8.6-0.2s7.3,0.2,10.4,0.3c0.9,0,1.5-0.1,1.6-0.3h3.6c2.7,0,2.2,0.2,4.2,0.2c0.6,0.1,0.5,0.2,1.4,0.3h3
				c2.7,0,1.7-0.1,3.2-0.3c2.1,0,5.3,0,7.4-0.1c1,0-0.9-0.1,1.8-0.1s7.3,0.2,10.4,0.3c0.9,0,1.5-0.1,1.8-0.3
				c1.7,0.1,4.5,0.2,7.2,0.2s5.7-0.1,8-0.2c1.2,0,1.7,0.2,1.6,0.3h5.9c0.9-0.1,0.7-0.2,0.9-0.3h5.6c2.7,0,1.2,0.2,3.9,0.2
				c1.3,0,2.2,0,2.6,0c0.4,0,0.5-0.1,0.6-0.2c0.7-0.1,1.2-0.4,1.5-0.7c0.4-0.3,0.6-0.6,0.7-0.8c0.3-0.5,0.4-0.7,0.5-1
				c0-0.1,0.1-0.3,0.1-0.5c0-0.1,0-0.2,0-0.3c0-0.1,0-0.3,0-0.5c0-0.7,0-1.9,0-3.8c0-4.7-0.3-10.4-0.3-11.8c0-2.7,0.3-4.8,0.3-7.5
				s-0.2-0.5-0.2-3.2c0-2.7,0.2,0.5,0.2-2.2c0-0.7,0-1.6,0-2.6c0-1.1,0-2.3-0.1-3.6c0-0.5,0-0.9,0-1.4l0-0.7l0-0.2l0-0.1l0.1,0
				l0.3,0c0.9,0,1.8,0,2.7-0.1c1.1,0,2.2-0.1,3.1-0.1c0.9,0-0.1,0,2.6,0c1.3,0,2.9,0,4.4,0.1c0.7,0,1.5,0.1,2.1,0.1
				c0.2,0,0.3,0,0.5,0l0.2,0c0.1,0,0,0,0.1,0l0.1,0.1h0.2c0.1-0.1,0.1-0.2,0.1-0.3c0.3,0.3,0.5,0.5,0.9,0.5c0,0.1-0.2,0.1-0.2,0.3
				c0,0.5,0.7,0.5,0.7,0.9c0,0.2,0,0.1,0,0.2c-0.1,0-0.8,0.2-0.8,0.5c0,0.2,0.2,0.2,0.2,0.3c-0.5,0-0.6,0.3-0.8,0.3
				c-0.1,0-0.2,0-0.3-0.1l0,0l0,0c0,0,0,0,0,0l-0.1,0c-0.3,0-0.6,0-0.9,0c-0.6,0-1.3,0-1.9,0c-2.7,0-3.8,0.2-6.5,0.2
				c-2.7,0-0.9-0.1-1.8-0.1c-0.5,0-1.1,0-1.7,0l-0.2,0l-0.1,0l-0.2,0c-0.1,0-0.1,0.1-0.1,0.1l0,0.2l0,0l0,0.1l0,0.5
				c0,0.3,0,0.6,0,0.9c0,2.5-0.1,4.7-0.1,6.1c0,2.7-0.1,4.9,0,6.7c0.1,1.8,0.3,3.5,0.3,6.2s-0.1,0.9-0.1,1.8c0,2,0,5.2,0,7.9
				c0,0.7,0,1.5,0,2.4c0,0.5,0,1,0,1.5l0,0.4c0,0.2,0,0.4,0,0.5c0,0.4-0.1,0.7-0.2,1.1c-0.4,1.5-1.4,2.8-2.8,3.7
				c-0.7,0.4-1.5,0.7-2.3,0.9c-0.2,0-0.4,0.1-0.6,0.1c-0.2,0-0.4,0-0.6,0l-0.9,0c-0.1-0.1,0.1-0.1,0.5-0.1c0.2,0,0.5,0,0.7,0
				c0.3,0,0.7-0.1,1-0.1c0,0-0.2,0-0.5,0c-0.3,0-0.7,0-1,0c-0.6,0-1.4-0.1-1.8-0.2c-0.8,0-0.8,0.2-3.5,0.2s-2-0.1-2.8-0.2
				c-1.8,0.1-3.7,0-3.7,0.2s2.2,0.1,2,0.2h-6.1c-1.3-0.2-2.9-0.3-5.6-0.3s0.5,0.2-2.2,0.2s0.5-0.2-2.2-0.2c-2.7,0-1.6,0.2-4.3,0.2
				c-2.7,0-2.7-0.2-5.4-0.2s-7.2,0.1-10,0.2c-1.9,0.1-3.1,0.2-4.7,0.3c-0.3-0.1,1.8-0.2,2-0.3c-5,0-12.5-0.2-15.2-0.2
				s-5.5,0-7.2,0.1v0c-3,0-1.3-0.1-2.2-0.2c-0.9,0-1.4,0.1-1.6,0.3c-1.5,0-0.4-0.2-3.1-0.2c-2.7,0-1.1,0-1.2,0.2
				c-1.5,0-2-0.2-1.8-0.3c-5,0-11.5,0-16.9,0c-0.5-0.1,1.1-0.1-1.6-0.1s-10.2,0.3-12.9,0.3c-2.7,0-3.8-0.3-6.5-0.3s0.5,0.2-2.2,0.2
				s-5.3-0.2-6.2-0.3c-0.8,0-1.3,0.1-1.5,0.3h-4c-0.1-0.1-2.2-0.2-3-0.3c-0.7,0-2.8,0.2-3.8,0.5h-4c-0.1-0.1,2-0.2,2.1-0.3
				c-1-0.1,0.5-0.1-2.2-0.1c-1.3,0-2.6,0.1-3.8,0.2c-0.6,0-1.2,0.1-1.8,0.1l-0.5,0c-0.2,0-0.4,0-0.6,0c-0.4,0-0.9-0.1-1.3-0.3
				c-0.9-0.3-1.4-0.6-1.7-0.9c-0.3-0.3-0.5-0.5-0.7-0.7c-0.2-0.2-0.3-0.4-0.6-0.8c-0.2-0.3-0.6-0.8-0.9-1.7
				c-0.3-0.8-0.3-1.4-0.4-1.8c0-0.3,0-0.5-0.1-0.8c0-0.4-0.1-0.8-0.1-2.2c0-2.7,0.2-0.5,0.2-3.2s0-2.2-0.2-2.5
				c0.1-1.6,0.2-3.1,0.3-4.8c0.1-1.8,0-5.1,0-7.8c0-2.7,0-5.9,0-7.9c0-1.2-0.1-1.9-0.3-3.5c0,0,0,1.2,0-1.5c0-2.7,0.2-3.7,0.3-5.2
				c0.1-0.7,0-1.8,0-4.5c0-9.2-0.3-6.3-0.3-10.8c0-3.5,0.3-4.1,0.5-8.2v-2.9c-0.1-0.9,0-0.7-0.2-0.7s-0.2,2.2-0.3,2v-7.8
				c0-2.7,0.2-2.8,0.2-5.5c0-2.7-0.1-3.9-0.2-5.6c0.1-0.3,0.2,1.8,0.3,1.9c0.1-1,0.1,0.5,0.1-2.2c0-2.7-0.2-1.6-0.2-4.3
				c0-2.7,0.2-1.6,0.2-4.3c0-2.7-0.2-4.8-0.2-7.5c0-2.7,0.2-3.8,0.2-6.5c0-2.7-0.2,0.5-0.2-2.2c0-2.7,0.2-0.5,0.2-3.2
				c0-2.7-0.2-0.5-0.2-3.2c0-2.7,0.2-5.3,0.3-6.1c-0.1-1.7,0-3.6-0.2-3.6S0.1,38.2,0,38c0-3.6,0.2-3.6,0.2-6.3c0-2.7,0-2.2-0.2-2.5
				c0.2-2.7,0.3-4.5,0.3-7.2c0-2.7-0.2-3.8-0.2-5.9c0-1.1,0.2-1.4,0.3-4H0c0,0,0-2.1,0-4.1c0-0.5,0-1,0-1.5c0-0.2,0-0.6,0-0.9
				c0-0.3,0.1-0.6,0.1-0.8c0.3-1,0.6-1.6,0.6-1.6C0.9,3.1,1.3,2.5,2,2c0.6-0.6,1.4-1,1.9-1.1c0.4-0.2,0.9-0.4,1.4-0.5
				c0.3-0.1,0.6-0.1,0.9-0.1c0.2,0,0.5,0,0.7,0c1,0,2-0.1,3.1-0.1C12.1,0,14.2,0,15.5,0c2.7,0,5.3,0.2,6.2,0.3
				c0.8,0,1.3-0.1,1.6-0.3c4.8,0.2,13.2,0.3,15.9,0.3c3.6,0,3.5,0,3.4-0.3h5.6c2.7,0,6.6,0.3,9.3,0.3c2.7,0,1.6-0.2,4.3-0.2
				s4.8,0.2,7.5,0.2c2.7,0,3.8-0.2,6.5-0.2S75.3,0.3,78,0.3s1.6-0.2,4.3-0.2s3.8,0.2,6.5,0.2c2.7,0,1.6-0.2,4.3-0.2
				c2.7,0-0.5,0.2,2.2,0.2s1.6-0.2,4.3-0.2s5.3,0.2,6.2,0.3c0.8,0,1.3-0.1,1.5-0.3c1.5,0,0.4,0.2,3.1,0.2s-0.5-0.2,2.2-0.2
				c2.7,0-0.5,0.2,2.2,0.2s1.2-0.1,1.7-0.1c2.1,0,8.4,0.1,10.4-0.2c1.4,0,1.9,0.2,2.2,0.3c1.6,0.1,3.5,0.2,6.2,0.2
				c1.6,0,3.6-0.2,4.5-0.5h6c1.3,0.2,1.9,0.3,4.5,0.3s0.5-0.2,3.2-0.2c0.7,0,1.2,0,1.8,0c0.3,0,0.5,0,0.8,0c0.3,0,0.6,0,0.9,0.1
				c1.2,0.2,2.4,0.8,3.5,2c1.1,1.3,1.4,2.5,1.5,3.4c0,0.2,0,0.4,0,0.6c0,0.2,0,0.3,0,0.4c0,0.3,0,0.5,0,0.8c0.1,1,0.2,0.8,0.3,1.4
				c0,1.1,0,3.8,0.2,7.7c-0.1,0.3-0.1-1-0.2-1.9c-0.1,0-0.1,2.1-0.3,2.9c0.1,1.7,0.2,4.1,0.2,6.8s-0.2,3.8-0.2,6.5
				c0,2.7,0.2-0.5,0.2,2.2c0,2.7-0.1,0.9-0.1,1.8c0,2,0,3,0,5.7c0,2.7,0,5.5,0.1,7.2h0c0,3-0.2,0.9-0.2,3.6c0,2.7,0.2,1.6,0.2,4.3
				c0,2.7-0.2,1.6-0.2,4.3s0.2,0.5,0.2,3.2c0,2.7-0.2,1.6-0.2,4.3c0,2.7,0.1,4.4,0.3,5.8c-0.2,2.6-0.3,6.5-0.3,9.2
				c0,2.7,0.2,1.6,0.2,4.3c0,2.7-0.2,0.5-0.2,3.2s0,2.2,0.2,2.3c0,1.5-0.2,2-0.3,1.8c0,0,0,1.2,0,2.9c0,0.4,0,0.9,0,1.4
				c0,0.1,0,0.2,0,0.3c0.1,0.1,0.2,0.3,0.3,0.4c0.6,0.9,1.3,1.9,1.9,2.8c2.6,3.8,5.2,7.7,5.2,7.7c1.5,2.2-0.2-0.5,1.3,1.7
				c1.5,2.2,0.2,0.5,1.7,2.8c1.5,2.2,1,1.2,2.5,3.5c1.5,2.2,0.8,1.4,2.3,3.7c0.1,0.1,0.1,0.2,0.1,0.2c0,0,0,0,0,0c0,0,0,0,0.1,0
				c0,0,0.1,0,0.1,0c0,0.2-0.1,0.4-0.2,0.6c0.1,0.2,0.2,0.6,0.1,0.7c0,0,0.2,0,0.3-0.1l0.2,0.2c0.1,0.2,0,0.2,0,0.4
				c-0.1,0.1,0,0.3-0.2,0.4s-0.2-0.1-0.4,0s-0.2,0.3-0.2,0.5c-0.3,0-0.6,0-0.9,0c-0.1-0.1,0-0.2,0-0.4l-0.4,0.3l-0.1-0.2
				c-0.1-0.2,0-0.1,0.1-0.2c0-0.1-0.2,0-0.3,0.1c-0.1-0.1,0-0.2,0-0.2c-0.1-0.1-0.2-0.3-0.2-0.4l-0.1-0.2c-0.5-0.8-1.1-1.6-1.6-2.4
				c-2.3-3.5-4.3-6.5-5.1-7.7c-1.5-2.2-3.2-4.7-4.3-6.2C164.3,107.8,165.3,109.6,165.6,110.2z"/>
		</g>
	</g>
</g>
<g>
</g>
<g>
</g>
<g>
</g>
<g>
</g>
<g>
</g>
<g>
</g>
<g>
</g>
<g>
</g>
<g>
</g>
<g>
</g>
<g>
</g>
<g>
</g>
<g>
</g>
<g>
</g>
<g>
</g>
</svg>
