<?xml version="1.0" encoding="utf-8"?>
<!-- Generator: Adobe Illustrator 18.0.0, SVG Export Plug-In . SVG Version: 6.00 Build 0)  -->
<!DOCTYPE svg PUBLIC "-//W3C//DTD SVG 1.1//EN" "http://www.w3.org/Graphics/SVG/1.1/DTD/svg11.dtd">
<svg version="1.1" id="Layer_1" xmlns="http://www.w3.org/2000/svg" xmlns:xlink="http://www.w3.org/1999/xlink" x="0px" y="0px"
	 viewBox="0 0 98.6 74" enable-background="new 0 0 98.6 74" xml:space="preserve">
<g>
	<path fill="#FFFFFF" d="M93.1,72.1H5.7c-2.3,0-4.2-1.9-4.2-4.2V34.7c0-2.3,1.9-4.2,4.2-4.2h87.4c2.3,0,4.2,1.9,4.2,4.2v33.2
		C97.3,70.2,95.4,72.1,93.1,72.1z"/>
	<g>
		<g>
			<path fill-rule="evenodd" clip-rule="evenodd" fill="#3A494F" d="M84.4,74c-0.6-0.1-1.3-0.1-2.1-0.2c-0.2-0.1-0.1-0.2-0.5-0.3
				c-1.3,0-2.1-0.2-3.2-0.2c-1.1,0-0.2,0.2-1.3,0.2c-1.1,0-0.6-0.2-1.7-0.2s-2.4,0.3-3.5,0.3c-1.1,0-0.2-0.2-1.3-0.2
				s-0.6,0.2-1.7,0.2s-2.1-0.3-2.9-0.5c-1.6,0.2-5.2,0.3-6.2,0.3c-2.1,0-1.4-0.2-3.3-0.3c0,0,0.5,0-0.6,0c-1.1,0-0.6,0.2-1.7,0.2
				c-1.1,0-0.6-0.2-1.7-0.2c-0.5,0-1.5,0.2-1.9,0.5c-1.5-0.2-3.1-0.5-4.2-0.5s-3.7,0.3-4.8,0.3s-0.2-0.2-1.3-0.2
				c-1.1,0-1.1,0.2-2.2,0.2c-2.2,0-0.2-0.3-1.7-0.3c-1.1,0-0.2,0.2-1.3,0.2s-1.5-0.2-2.6-0.2c-1.1,0-5.4,0.3-6.5,0.3
				c-1.1,0-2.8-0.2-3.9-0.2c-1.1,0-2.7,0.1-3.6,0.2c-0.5,0-0.7-0.2-0.6-0.3h-7c0.5,0.2,0.9,0.2,0.8,0.3c-0.6,0-0.6-0.2-1.7-0.2
				C9,73.4,9,73.5,8,73.5c-0.5,0-1.2-0.1-1.9-0.2c-0.3,0-0.8-0.1-1.2-0.2c-0.4-0.1-0.8-0.2-1.1-0.4c-0.6-0.3-0.9-0.4-1.2-0.6
				c-0.3-0.2-0.6-0.4-1.1-0.9c-0.4-0.6-0.5-0.8-0.5-1c-0.1-0.3-0.2-0.5-0.3-1.1c-0.1-0.3-0.1-0.6-0.2-0.9c0-0.2-0.1-0.5-0.1-0.7
				c-0.1-0.4-0.1-0.7-0.2-1c0.1-0.6,0.3,0,0.3-1.1s-0.2,0.2-0.2-0.9c0-1.1,0.2,0.2,0.2-0.9c0-1.1-0.2,0.2-0.2-0.9s0.2-0.2,0.2-1.3
				c0-1.1-0.2-1.5-0.2-2.6s0-1.7,0.2-2.1c0-0.3-0.1-0.5-0.3-0.6c0-0.6,0.2-0.6,0.2-1.7S0,53.5,0,52.5s0.2-2.4,0.2-3.5
				c0-1.1-0.2-2.4-0.2-3.5c0-1.1,0.1-1.2,0.1-1.6c0-2.1,0-4.3,0.1-6.4c0.1-0.2,0.1,0.4,0.1-0.7c0-0.3,0-0.7-0.1-1.1
				c0-0.2,0-0.5-0.1-0.7c0-0.1,0-0.3,0-0.4c0-0.2,0-0.4,0-0.5c0-1.5,0.8-3,1.7-3.8c0,0,0.4-0.4,0.9-0.6c0.5-0.3,1-0.4,1-0.4
				c0.1,0.1-1.1,0.5-1.8,1.5c0,0,0.8-0.8,1.8-1.1c0.5-0.2,1-0.3,1.4-0.4c0.4,0,0.7,0,0.6,0c1.1,0,0.5-0.2,1.6-0.2
				c1.1,0,1.5,0.2,2.6,0.2c1.1,0,0.6-0.2,1.7-0.2s0.2,0.2,1.3,0.2c1.1,0,1.5-0.2,2.6-0.2c1.1,0,3.7,0.2,4.8,0.2
				c0.8,0,2.6,0.1,3.2-0.2c0.6,0.1,1.5,0.2,1.9,0.3c1.2,0,1.4,0.1,1.4-0.1c0-0.2-0.9-0.1-0.7-0.2c1.1,0.2,2.2,0.3,3.3,0.3
				c0.3,0,2.3-0.2,2.7-0.5h1.6c0.1,0.2,0.9,0.3,1.3,0.5c0.3,0,0.5-0.1,0.7-0.3c1.1,0.2,1.8,0.3,2.9,0.3c1.1,0,2.8-0.3,3.9-0.3
				c1.1,0,0.6,0.2,1.7,0.2c1.1,0,0.9,0,1-0.2c0.7,0.1,0.1,0.3,1.2,0.3s-0.2-0.2,0.9-0.2s1.1,0.2,2.2,0.2c1.9,0,2.3,0,2.7-0.5h1.6
				c0.1,0.2,0.7,0.5,1.4,0.5c1.1,0-0.2-0.2,0.9-0.2s-0.2,0.2,0.9,0.2s1.6-0.2,2.4-0.3c0.6-0.1,1.3,0,2.4,0s5.4,0.3,6.5,0.3
				c3.7,0,2.6-0.3,4.3-0.3c1.8,0,0.6,0.3,4.3,0.3c1.1,0,2.4-0.2,3.5-0.2s2.9,0.2,4.2,0.3c0.4,0,0.6-0.1,0.7-0.3h1.5
				c1.1,0,0.9,0.2,1.7,0.2c0.2,0.1,0.2,0.2,0.6,0.3h1.2c1.1,0,0.7-0.1,1.3-0.3c0.4,0,1,0,1.5,0l0.4,0c0.2,0,0.3,0,0.5,0
				c0.3,0,0.6,0.1,0.9,0.1c0.3,0,0.2,0,0.2,0c0,0,0.1,0,0.8,0.2c0.6,0.3,1.4,0.9,2,1.7c0.6,0.8,0.9,1.8,0.9,2.5
				c0.1,0.4,0.2,0.7,0.4,0.9c-0.1,0.7-0.2,1.8-0.2,2.9c0,1.1,0.1,2.3,0.2,3.2c0,0.5-0.2,0.7-0.3,0.6v2.4c0.1,0.4,0.2,0.3,0.3,0.4
				v2.3c0,1.1-0.2,0.5-0.2,1.6s0,1.3,0.2,1.4c-0.2,3.1-0.3,1.2-0.3,4.2c0,1.9,0.3,4.2,0.3,4.8c0,1.1-0.3,1.9-0.3,3s0.2,0.2,0.2,1.3
				s-0.2-0.2-0.2,0.9c0,0.5,0,1.4,0.1,2.4c0,1,0.2,1.8,0.1,2.9c0,0.2,0,0.2-0.1,0.3c0,0.1-0.1,0.4-0.4,1c-0.3,0.6-0.8,1.3-1.5,1.8
				c-0.3,0.2-0.6,0.4-1,0.5c-0.1,0-0.2,0.1-0.2,0.1c-0.1,0-0.2,0.1-0.2,0l-0.1,0c0,0-0.2,0.1-0.2,0.1c-0.1,0.1,0,0.2,0,0.3
				c-0.4-0.2-0.7-0.3-1.3-0.2c0-0.1,0.2-0.1,0.1-0.3C93.7,72,93,72,93.1,71.7c0-0.2,0-0.1,0-0.2c0.1,0,0.6-0.2,0.6-0.6
				c0-0.2-0.1-0.2-0.2-0.3c0.3-0.1,0.3-0.4,0.4-0.4c0.1,0,0.1,0,0.2,0c0,0,0,0,0.1,0c0.1,0,0.1,0,0.2-0.1c0.1-0.1,0.3-0.1,0.4-0.3
				c0.3-0.2,0.4-0.4,0.4-0.7c0.1-0.2,0.1-0.4,0.2-0.7c0.1-0.6,0.1-0.2,0.2-0.4c0-0.8,0.1-1.8,0.1-2.8c0-1,0.1-1.9,0.1-2.4
				c0-1.1,0.1-2,0-2.7c-0.1-0.7-0.3-1.4-0.3-2.5s0.1-0.3,0.1-0.7c0-0.8,0-2.1,0-3.2c0-1.1,0-3.2-0.2-5.1c0.1-0.1,0.1,0.4,0.2,0.8
				c0.1,0,0.1-0.9,0.3-1.2c0-0.3-0.2-0.3-0.2-1.4s0.1-0.8,0.2-1.1c-0.1-0.7,0-1.5-0.2-1.5c-0.2,0-0.1,0.9-0.2,0.8v-2.4
				c0.2-0.5,0.3-1.2,0.3-2.3s-0.2,0.2-0.2-0.9c0-1.1,0.2,0.2,0.2-0.9s-0.2-0.6-0.2-1.7c0-1.1,0.2-1.1,0.2-2.1c0-0.4-0.1-0.8-0.4-1.2
				c-0.3-0.4-0.6-0.7-0.9-0.9c-0.4-0.2-0.8-0.1-1.1-0.1c-0.1-0.1,0.4-0.1,0.5-0.2c-0.1,0-0.3-0.1-0.5-0.1c-0.2,0-0.3,0-0.6,0
				c-0.6,0-1.2,0-1.8-0.1c-1.1,0-2.2-0.1-2.7-0.1c-1.1,0-2.2,0-2.9,0.1v0c-1.2,0-0.5-0.1-0.9-0.2c-0.4,0-0.6,0.1-0.6,0.3
				c-0.6,0-0.2-0.2-1.2-0.2c-1.1,0-0.4,0-0.5,0.2c-0.6,0-0.8-0.2-0.7-0.3c-2,0-4.6,0-6.8,0c-0.2-0.1,0.5-0.1-0.6-0.1
				c-1.1,0-4.1,0.3-5.2,0.3s-1.5-0.3-2.6-0.3c-1.1,0,0.2,0.2-0.9,0.2c-1.1,0-2.1-0.2-2.5-0.3c-0.3,0-0.5,0.1-0.6,0.3h-1.6
				c-0.1-0.1-0.9-0.2-1.2-0.3c-0.3,0-1.1,0.2-1.5,0.5h-1.6c-0.1-0.1,0.8-0.2,0.8-0.3c-0.4-0.1,0.2-0.1-0.9-0.1c-1.1,0-1.9,0.3-3,0.3
				c-1.1,0-0.6-0.2-1.7-0.2c-1.1,0-0.6,0.2-1.7,0.2c-1.1,0-0.2-0.2-1.3-0.2c-1.1,0-0.9,0-1,0.2c-0.7-0.1-1.2-0.2-1.9-0.3s-2,0-3.1,0
				c-1.1,0-2.4,0-3.2,0c-0.5,0-0.8,0.1-1.4,0.3c0,0,0.5,0-0.6,0c-1.1,0-1.5-0.2-2.1-0.3c-0.3-0.1-0.7,0-1.8,0
				c-3.7,0-2.5,0.3-4.3,0.3c-1.4,0-1.6-0.3-3.3-0.5h-1.2c-0.3,0.1-0.3,0-0.3,0.2s0.9,0.2,0.8,0.3h-3.1c-1.1,0-1.1-0.2-2.2-0.2
				s-1.6,0.1-2.2,0.2c-0.1-0.1,0.7-0.2,0.7-0.3c-0.4-0.1,0.2-0.1-0.9-0.1s-0.6,0.2-1.7,0.2c-1.1,0-0.6-0.2-1.7-0.2
				c-1.1,0-1.9,0.2-3,0.2c-1.1,0-1.5-0.2-2.6-0.2c-1.1,0,0.2,0.2-0.9,0.2c-1.1,0-0.2-0.2-1.3-0.2c-0.1,0-0.2,0-0.3,0
				c-0.1,0-0.1,0-0.1,0c-0.1,0-0.1,0-0.1,0.1c0,0-0.1,0.1-0.4,0.1c-0.7,0.1-1.4,0.5-1.6,0.6c-0.3,0.4-0.5,0.9-0.4,1
				c0.2,0.1,0.4-0.4,0.5-0.3c-0.2,0.4-0.3,0.6-0.4,0.8c-0.1,0.2-0.2,0.3-0.2,0.7c0,1.1,0,0.9,0.2,1c-0.2,1.1-0.3,1.8-0.3,2.9
				s0.2,1.5,0.2,2.4c0,0.4-0.2,0.6-0.3,1.6h0.5v3.3C3,46,2.9,46.8,2.8,47.1c0.2,1.1,0.3,3.4,0.3,4.5s-0.2,2.1-0.3,2.5
				c0,0.3,0.1,0.5,0.3,0.6c-0.2,1.9-0.3,5.3-0.3,6.4c0,1.5,0,1.4,0.3,1.4v2.3c0,0.5-0.1,1.2-0.2,1.9c-0.1,0.7-0.2,1.4-0.1,1.7
				C2.9,68.7,3,68.7,3,68.8c0.1,0.1,0.1,0.2,0.3,0.5c0.4,0.6,0.8,1.1,1.5,1.3c0.4,0.1,0.6,0.1,0.9,0c0.4,0,0.8-0.1,1.3-0.1
				c1.1,0-0.2,0.2,0.9,0.2s0.6-0.2,1.7-0.2s1.5,0.2,2.6,0.2c1.1,0,0.6-0.2,1.7-0.2c1.1,0-0.2,0.2,0.9,0.2c1.1,0,0.6-0.2,1.7-0.2
				c1.1,0,2.1,0.2,2.5,0.3c0.3,0,0.5-0.1,0.6-0.3c0.6,0,0.2,0.2,1.2,0.2s-0.2-0.2,0.9-0.2c1.1,0-0.2,0.2,0.9,0.2
				c1.1,0,0.5-0.1,0.7-0.1c0.8,0,3.4,0.1,4.2-0.2c0.6,0,0.8,0.2,0.9,0.3c0.7,0.1,1.4,0.2,2.5,0.2c0.6,0,1.5-0.2,1.8-0.5h2.4
				c0.5,0.2,0.7,0.3,1.8,0.3s0.2-0.2,1.3-0.2c1.1,0,1.5,0.2,2.6,0.2s1.5,0,1.9,0c0.4-0.1,0.3-0.2,0.6-0.3c0.5,0,1.5,0,3.1-0.2
				c0.1,0.1-0.4,0.1-0.8,0.2c0,0.1,0.9,0.1,1.2,0.3c0.7-0.1,1.7-0.2,2.7-0.2c1.1,0,1.5,0.2,2.6,0.2s-0.2-0.2,0.9-0.2
				s0.3,0.1,0.7,0.1c0.8,0,1.2,0,2.3,0c1.1,0,2.2,0,2.9-0.1v0c1.2,0,0.4,0.2,1.4,0.2s0.6-0.2,1.7-0.2c1.1,0,0.6,0.2,1.7,0.2
				c1.1,0,0.2-0.2,1.3-0.2s0.6,0.2,1.7,0.2c1.1,0,1.8-0.1,2.3-0.3c1.1,0.2,2.6,0.3,3.7,0.3c1.1,0,0.6-0.2,1.7-0.2s0.2,0.2,1.3,0.2
				c1.1,0,0.9,0,0.9-0.2c0.6,0,0.8,0.2,0.7,0.3h7.4c1.1,0-0.2-0.2,0.9-0.2s0.2,0.2,1.3,0.2c1.1,0,0.6-0.2,1.7-0.2
				c1.1,0,0.6,0.2,1.7,0.2c0.1,0,0.1,0,0.1,0c0,0,0,0,0,0c0,0,0,0,0,0c0,0,0-0.1,0-0.1c0.1,0.1,0.3,0.3,0.4,0.5
				c0.2,0,0.6,0.2,0.6,0.3c0.1,0,0.1-0.1,0.1-0.3h0.3c0.2,0,0.2,0.2,0.3,0.2c0,0.2,0.2,0.2,0.2,0.4s-0.2,0.1-0.2,0.3
				s0.1,0.3,0.3,0.4c-0.2,0.3-0.3,0.5-0.5,0.8c-0.1,0-0.2-0.2-0.3-0.2v0.5H92c-0.2,0-0.1-0.1-0.1-0.2c-0.1,0-0.1,0.1-0.1,0.3
				c-0.1,0-0.1-0.1-0.2-0.1c-0.1,0-0.3,0-0.5,0l-0.2,0c-0.4,0-0.8,0-1.2,0c-1.7,0-3.2-0.1-3.7-0.1c-1.1,0-2.3,0-3,0.1
				C83.3,73.7,84.1,73.9,84.4,74z"/>
		</g>
	</g>
</g>
<g>
	<line fill="#FFFFFF" x1="50.1" y1="30.7" x2="49.3" y2="4.7"/>
	<g>
		<g>
			<path fill-rule="evenodd" clip-rule="evenodd" fill="#3A494F" d="M48,27.9c0.1-0.1,0.1-0.1,0.1-0.2c0.1,0,0.2,0,0.3-0.1
				c0-0.1,0.2-0.2,0.2-0.3s-0.2,0-0.2-0.1c0-0.1,0.2-0.1,0.2-0.1s-0.3-0.2-0.3-0.3s0.2,0,0.2-0.1c0-0.1-0.2,0-0.2-0.1
				s0.3-0.2,0.5-0.2c-0.2-0.1-0.3-0.4-0.3-0.5c0-0.2,0.2-0.1,0.3-0.3c0,0,0,0,0-0.1s-0.2,0-0.2-0.1c0-0.1,0.2-0.1,0.2-0.1
				c0,0-0.2-0.1-0.5-0.1c0.2-0.1,0.5-0.3,0.5-0.4c0-0.1-0.3-0.3-0.3-0.4s0.2,0,0.2-0.1c0-0.1-0.2-0.1-0.2-0.2c0-0.2,0.3,0,0.3-0.2
				c0-0.1-0.2,0-0.2-0.1c0-0.1,0.2-0.1,0.2-0.2s-0.3-0.4-0.3-0.5s0.2-0.2,0.2-0.3c0-0.1-0.1-0.2-0.2-0.3c0,0,0.2-0.1,0.3-0.1l0-0.6
				c-0.2,0-0.2,0.1-0.3,0.1c0,0,0.1-0.1,0.1-0.1c0-0.1-0.2-0.1-0.2-0.2s0.3-0.2,0.3-0.3c0-0.1-0.2-0.1-0.2-0.2
				c0-0.1,0.2-0.1,0.2-0.1s-0.1-0.1-0.3-0.2c0.1-0.1,0.3,0,0.3-0.1c0-0.1-0.2,0-0.2-0.1c0-0.1,0.2,0,0.2-0.1s-0.2,0-0.2-0.1
				s0.2,0,0.2-0.1s-0.2-0.1-0.2-0.2c0-0.1,0-0.1,0.2-0.2c0,0-0.1,0-0.3,0c0,0,0.1-0.1,0.1-0.1c0-0.1-0.2-0.1-0.2-0.2
				c0-0.1,0.2-0.2,0.2-0.3s-0.2-0.2-0.2-0.3s0.1-0.1,0.1-0.1c0-0.2,0-0.3,0-0.5c0.1,0,0.1,0,0.1-0.1c0-0.1-0.3-0.3-0.5-0.5l0-0.1
				c0.1,0,0.1,0.1,0.3,0.1l0-0.3c0-0.1-0.2,0-0.2-0.1s0.2-0.1,0.2-0.2c0-0.1-0.2,0-0.2-0.1c0-0.1,0.2,0,0.2-0.1
				c0-0.1-0.2-0.1-0.2-0.2s0.2-0.3,0.2-0.4c0-0.1,0-0.2-0.2-0.3c0.1-0.1,0.2-0.1,0.3-0.2c0-0.1,0.1-0.1-0.1-0.1s-0.1,0.1-0.2,0.1
				c0.2-0.1,0.3-0.2,0.3-0.3c0,0-0.2-0.2-0.5-0.2l0-0.1c0.2,0,0.3-0.1,0.5-0.1c0,0-0.1,0-0.3,0c0.2-0.1,0.3-0.2,0.3-0.2
				s-0.3-0.2-0.3-0.3s0.2-0.1,0.2-0.1s0-0.1-0.2-0.1c0.1-0.1,0.3,0,0.3-0.1c0-0.1-0.2,0-0.2-0.1c0-0.1,0.2-0.1,0.2-0.2
				c0-0.2,0-0.2-0.5-0.2l0-0.1c0.2,0,0.5-0.1,0.5-0.1c0-0.1-0.2,0-0.2-0.1s0.2,0,0.2-0.1c0-0.1-0.2-0.1-0.3-0.2
				c-0.1-0.1,0-0.1,0-0.2s0.3-0.5,0.3-0.5c0-0.3-0.3-0.2-0.3-0.4c0-0.2,0.3-0.1,0.3-0.4c0-0.1-0.2-0.2-0.2-0.3s0.2-0.2,0.3-0.4
				c0,0-0.1,0-0.3,0l0-0.1c0-0.1,0.2-0.1,0.2-0.1c0.1,0,0.2,0,0.3-0.1l0-0.1c0-0.1-0.1-0.1-0.3-0.1c0-0.1,0-0.2-0.1-0.2
				c0,0-0.1,0-0.1-0.1s0.2-0.2,0.3-0.4c0,0-0.1,0-0.3-0.1c0.1-0.1,0.2-0.2,0.2-0.2c0-0.1-0.1-0.2-0.2-0.3c0,0,0.2-0.1,0.3-0.1l0-0.2
				c-0.1,0-0.2,0-0.3,0l0-0.2c0-0.1,0.2,0,0.2-0.1s0-0.1-0.2-0.1c0.2-0.3,0.3-0.1,0.3-0.4c0-0.2-0.3-0.3-0.3-0.4
				c0-0.1,0.3-0.2,0.3-0.3c0-0.1-0.2,0-0.2-0.1s0.2,0,0.2-0.1S48.3,7,48.1,6.9c0,0,0,0,0-0.1c0-0.1,0.2-0.2,0.3-0.3l0-0.2
				c-0.1-0.1-0.2,0-0.3-0.1c0.3-0.3,0.5-0.5,0.5-0.9c0.1,0,0.1,0.1,0.3,0.1c0.5,0,0.5-0.7,0.9-0.7c0.2,0,0.1,0,0.2,0
				c0.1,0.1,0.2,0.8,0.5,0.8c0.2,0,0.2-0.2,0.3-0.2c0,0.5,0.4,0.6,0.4,0.8c0,0.2-0.2,0.4-0.2,0.4c0,0.1,0.2,0.1,0.2,0.2
				s-0.1,0-0.1,0.1c0,0.1-0.2,0.4-0.2,0.4s-0.1,0.2,0,0.2s0.3,0.1,0.3,0.2c0,0.1-0.1,0-0.1,0.1c0,0.1,0,0.2,0,0.3s0,0.3,0.2,0.4
				c-0.1,0-0.1,0-0.2-0.1c-0.1,0-0.1,0.1-0.3,0.1c0,0,0.2,0,0.2,0.1c0,0.1-0.1,0.1-0.2,0.1c0.1,0.1,0,0.1,0.2,0.1
				c0.2,0,0.1-0.1,0.2-0.1l0,0.2c-0.2,0-0.3,0.1-0.3,0.2c0,0.1,0.2,0,0.2,0.1c0,0.1-0.2,0-0.2,0.1c0,0.1,0.2,0,0.2,0.1
				s-0.2,0.1-0.2,0.2c0,0.1,0.1,0.2,0.2,0.3c0.1,0.1,0.2,0.1,0.3,0.2c-0.1,0-0.2-0.1-0.3-0.1c0,0.2-0.1,0.4-0.1,0.5s0,0.2,0.1,0.2
				l0,0c0,0.1-0.1,0-0.2,0.1c0,0,0.1,0,0.3,0c0,0-0.2,0-0.1,0.1c0,0.1,0,0,0.2,0c0,0-0.2,0.1-0.3,0.1c0,0.2,0,0.4,0,0.6
				c-0.1,0-0.1,0-0.1,0.1c0,0.1,0.3,0.3,0.3,0.4c0,0.1-0.3,0.1-0.3,0.2c0,0.1,0.2,0,0.2,0.1c0,0.1-0.2,0.2-0.3,0.2c0,0,0.1,0,0.3,0
				l0,0.1c-0.1,0-0.2,0.1-0.3,0.1c0,0,0.2,0.1,0.5,0.1l0,0.1c-0.1,0-0.2-0.1-0.3-0.1c-0.1,0-0.1,0-0.1,0.1c0,0.1,0.3,0.2,0.3,0.2
				c0,0.1-0.2,0.1-0.2,0.1s0.2,0,0.2,0.1c0,0.1-0.2,0-0.2,0.1s0,0.1,0.2,0.1c-0.1,0.1-0.2,0.1-0.3,0.2s0,0.2,0,0.3
				c0,0.1,0,0.2,0,0.3c0,0,0.1,0.1,0.3,0.1c0,0,0,0,0,0c0,0.1-0.2,0.1-0.3,0.2c-0.1,0,0,0.1,0,0.1c0,0.3,0.3,0.2,0.3,0.4
				c0,0.1-0.3,0.1-0.5,0.3l0,0.1c0.1,0,0,0,0.2,0c0.2,0,0.2-0.1,0.3-0.1l0,0.3c0,0.1-0.2,0.1-0.2,0.2c0,0.1,0.1,0.1,0.2,0.2
				c-0.1,0-0.2-0.1-0.3-0.1c-0.1,0-0.1,0-0.1,0.1s0.2,0,0.2,0.1c0,0.1-0.2,0.1-0.2,0.1c0,0.1,0.2,0.2,0.2,0.2S51,17.2,51,17.3
				c0,0.1,0.2,0,0.2,0.1c0,0.1-0.2,0-0.2,0.1s0.2,0,0.2,0.1s-0.2,0.2-0.3,0.2c0.1,0.1,0,0.1,0.2,0.1c0.2,0,0.1-0.1,0.2-0.1
				c0,0.1-0.1,0.1-0.1,0.2s0,0.1,0.2,0.1c-0.2,0.1-0.3,0.2-0.3,0.2c0,0.1,0.2,0.1,0.2,0.2c0,0-0.2,0.1-0.3,0.1l0.5,0l0,0.3
				c-0.1,0-0.2,0.1-0.3,0.1c0.2,0.1,0.3,0.3,0.3,0.4c0,0.1-0.2,0.2-0.3,0.2c0,0,0.1,0,0.3,0c-0.2,0.2-0.3,0.4-0.3,0.5
				c0,0.1,0,0.1,0.3,0.1l0,0.2c0,0.1-0.3,0.2-0.3,0.3c0,0.1,0.2,0,0.2,0.1c0,0.1-0.2,0.2-0.2,0.3c0,0.1,0.2,0.1,0.2,0.2
				c0,0.1-0.2,0-0.2,0.1c0,0.1,0.2,0,0.2,0.1s-0.2,0.1-0.2,0.2c0,0.1,0.2,0,0.2,0.1c0,0.1-0.2,0-0.2,0.1s0.2,0,0.2,0.1
				c0,0.1-0.2,0.2-0.3,0.2c0,0,0.1,0,0.3,0c0,0-0.2,0-0.1,0.1s0.2,0,0.2,0.1s-0.2,0-0.2,0.1s0.1,0,0.1,0.1c0,0.1-0.1,0.3,0.2,0.3
				c0,0-0.2,0.1-0.2,0.1c-0.1,0.1-0.2,0.1-0.2,0.2c0,0.1,0.2,0.1,0.5,0.1l0,0.2c-0.2,0-0.3,0.1-0.3,0.2c0,0.1,0.2,0,0.2,0.1
				c0,0.1-0.2,0.1-0.2,0.2s0,0.1,0,0.2c0.1,0,0.2,0,0.3,0c0,0,0,0.1,0.2,0.3c-0.1,0-0.1,0-0.2-0.1c-0.1,0-0.1,0.1-0.3,0.1
				c0.1,0.1,0.2,0.1,0.2,0.2c0,0.1-0.2,0.1-0.2,0.2s0.2,0,0.2,0.1s-0.1,0-0.1,0.1c0,0.1,0,0.1,0,0.2c0,0.1,0,0.2,0.1,0.2l0,0
				c0,0.1-0.2,0-0.2,0.1c0,0.1,0.2,0,0.2,0.1c0,0.1-0.2,0.1-0.2,0.1s0.2,0,0.2,0.1s-0.2,0.1-0.2,0.1s0.1,0.1,0.3,0.2
				c-0.2,0.1-0.3,0.2-0.3,0.3s0.2,0,0.2,0.1c0,0.1-0.2,0-0.2,0.1s0,0.1,0.2,0.1c0,0-0.2,0.1-0.3,0.1l0,0.6c0,0.1,0.2,0,0.2,0.1
				c0,0.1-0.2,0-0.2,0.1c0,0.1,0.2,0,0.2,0.1s-0.2,0.1-0.2,0.1c0,0.2,0,0.2,0.2,0.2c-0.1,0.1-0.3,0.3-0.5,0.4c0,0.2-0.2,0.6-0.3,0.7
				c0,0.1,0.1,0.1,0.3,0.1l0,0.3c0,0.2-0.2,0.2-0.2,0.3c-0.2,0-0.2,0.2-0.4,0.2s-0.1-0.2-0.3-0.2c-0.2,0-0.3,0.1-0.4,0.3
				c-0.3-0.2-0.5-0.3-0.8-0.5c0-0.1,0.2-0.2,0.2-0.3l-0.5,0l0-0.2c0-0.2,0.1-0.1,0.2-0.1c0-0.1-0.1-0.1-0.3-0.1
				c0-0.1,0.1-0.1,0.1-0.2c0-0.1,0-0.3,0-0.5c0-0.1,0-0.2,0-0.3c0-0.1,0-0.1,0-0.1c0-0.1,0.1-0.3,0.1-0.3c0-0.1,0-0.2-0.1-0.3
				C48.3,27.8,48.2,27.9,48,27.9z"/>
		</g>
	</g>
</g>
<g>
	<circle fill="#3A494F" cx="49.7" cy="4.4" r="3.5"/>
	<g>
		<g>
			<path fill-rule="evenodd" clip-rule="evenodd" fill="#3A494F" d="M53.8,6.8c-0.1,0-0.1,0.1-0.2,0.1c-0.1,0-0.1-0.1-0.2,0
				C53.3,7,53.2,7,53.1,7.1c-0.1,0.1,0.1,0.1,0,0.2c-0.1,0.1-0.1,0-0.2,0.1c-0.1,0.1,0,0.3-0.1,0.4c-0.1,0.1-0.1-0.1-0.2,0
				c-0.1,0.1,0,0.1-0.1,0.2c-0.1,0.1-0.3,0-0.4-0.1c0,0.2-0.3,0.4-0.4,0.5c-0.2,0.1-0.2-0.1-0.4,0c0,0,0,0-0.1,0
				c-0.1,0,0,0.1-0.1,0.2c-0.1,0-0.1-0.1-0.2,0c0,0-0.1,0.2-0.1,0.3c-0.2,0-0.4-0.2-0.5-0.2c-0.1,0-0.3,0.3-0.4,0.3
				c-0.1,0,0-0.1-0.1-0.1c-0.1,0-0.1,0.1-0.2,0.1c-0.2,0,0-0.2-0.2-0.2c-0.1,0,0,0.1-0.1,0.1c-0.1,0-0.1-0.1-0.2-0.1
				c-0.1,0-0.5,0.1-0.6,0.1c-0.1,0-0.2-0.2-0.3-0.2c-0.1,0-0.3,0-0.4,0c0,0,0-0.1,0-0.2c0,0-0.6-0.3-0.6-0.3c0,0.1,0,0.2,0,0.2
				c-0.1,0,0-0.1-0.1-0.2c-0.1-0.1-0.1,0-0.2,0c-0.1-0.1-0.1-0.3-0.2-0.4c-0.1-0.1-0.1,0-0.2,0c-0.1-0.1,0-0.1,0-0.2
				c-0.1-0.1-0.2,0-0.3,0c0-0.1,0.1-0.1,0.1-0.2c-0.1-0.1-0.1,0.1-0.1,0c-0.1-0.1,0.1-0.1,0-0.1c-0.1-0.1-0.1,0.1-0.1,0
				c-0.1-0.1,0.1-0.1,0-0.2c-0.1-0.1-0.2,0-0.2-0.1c-0.1-0.1-0.1-0.1,0-0.2c0,0-0.1,0-0.2,0.1c0,0,0.1-0.1,0-0.2
				c-0.1-0.1-0.1,0-0.2-0.1c0-0.1,0-0.2,0-0.3c0-0.1-0.2-0.2-0.2-0.3c0-0.1,0-0.1,0-0.2c0-0.2-0.1-0.4-0.1-0.6c0,0,0.1,0,0.1-0.1
				c0-0.1-0.2-0.3-0.3-0.5l0-0.1c0.1,0,0.1,0.1,0.2,0.2c0,0,0-0.3,0-0.3c0-0.1-0.1,0-0.1-0.2c0-0.1,0.1-0.1,0.1-0.2
				c0-0.1-0.1-0.1-0.1-0.2c0-0.1,0.1,0,0.1-0.1c0-0.1-0.1-0.2,0-0.3c0-0.1,0.2-0.3,0.2-0.4c0-0.1,0.1-0.2,0-0.3
				c0.1,0,0.2-0.1,0.3-0.1c0-0.1,0.1-0.1,0-0.1c-0.1-0.1-0.1,0-0.2,0c0.1,0,0.3-0.1,0.3-0.2c0,0,0-0.2-0.1-0.4L46,1.7
				c0.1,0.1,0.2,0.1,0.3,0.1c0,0,0-0.1-0.1-0.2c0.1,0,0.3,0,0.3-0.1c0.1-0.1,0-0.3,0.1-0.4c0.1-0.1,0.1,0,0.2,0c0.1-0.1,0-0.1,0-0.1
				c0.1,0,0.1,0.1,0.2,0.1C47.1,1,46.9,1,47,1c0.1-0.1,0.1,0,0.2,0c0.1-0.1,0.2-0.1,0-0.4l0.1-0.1c0.1,0.1,0.2,0.2,0.3,0.2
				c0.1,0-0.1-0.1,0-0.1c0.1,0,0,0.1,0.1,0.1c0.1,0,0.1-0.2,0.1-0.3c0-0.1,0.1-0.1,0.2-0.1c0.1,0,0.5,0,0.6,0C49.1,0.2,49,0,49.1,0
				c0.2,0,0.1,0.2,0.4,0.2c0.1,0,0.2-0.1,0.3-0.1c0.1,0,0.3,0.1,0.4,0.2c0,0,0.1-0.1,0.1-0.2l0.1,0c0.1,0,0.1,0.1,0.1,0.1
				c0,0.1,0,0.1,0,0.2l0.1,0c0.1,0,0.1-0.1,0.2-0.2c0.1,0,0.2,0,0.3,0c0,0,0-0.1,0.1-0.1c0.1,0,0.2,0.2,0.3,0.3c0,0,0.1,0,0.1-0.2
				c0,0.1,0.1,0.2,0.2,0.2c0.1,0,0.2,0.1,0.3,0.1c0,0,0,0.1-0.1,0.2l0.2,0.1c0.1,0,0.1-0.1,0.1-0.1c0,0,0.2,0.1,0.2,0.1
				c0.1,0.1,0,0.1,0,0.2c0.1,0.1,0.1,0.1,0.2,0c0.1,0.3-0.1,0.2,0.1,0.4c0.1,0.1,0.4,0.2,0.4,0.2c0.1,0.1-0.1,0.3,0,0.3
				c0,0.1,0.1,0,0.1,0c0,0.1-0.1,0,0,0.1c0,0.1,0.2,0.2,0.4,0.3c0,0,0,0,0,0.1c0,0.1,0,0.2-0.1,0.4l0,0.2c0.1,0,0.1,0,0.2,0
				c-0.1,0.2-0.2,0.4-0.2,0.7c-0.1,0-0.1-0.1-0.2-0.1c-0.3,0-0.3,0.4-0.5,0.4c-0.1,0-0.1,0-0.1,0c0-0.1-0.1-0.4-0.4-0.4
				c-0.1,0-0.1,0.1-0.2,0.1c0-0.2-0.3-0.2-0.3-0.3c0-0.1,0.1-0.2,0-0.2c0-0.1-0.1,0-0.1-0.1c0,0,0,0,0.1-0.1c0-0.1,0-0.3,0-0.3
				c0-0.1,0-0.1-0.1-0.1c-0.1,0-0.2,0-0.2,0c0,0,0,0,0-0.1c0,0-0.1-0.1-0.1-0.1c0,0-0.1-0.1-0.3-0.1c0-0.1,0.1-0.1,0.1-0.1
				c0,0,0-0.1,0.1-0.2c0,0-0.1,0.1-0.1,0c0,0,0-0.1,0-0.1c-0.1,0-0.1,0-0.2,0.1c-0.1,0.1,0,0.1-0.1,0.1l-0.1-0.1
				c0-0.1,0.1-0.2,0-0.2c-0.1,0,0,0.1-0.1,0.1c0,0,0.1-0.1,0-0.1c-0.1,0-0.1,0.1-0.1,0c-0.1,0,0-0.1-0.1-0.1c-0.1,0-0.2,0-0.2,0
				c-0.1,0-0.1,0.1-0.2,0.1c0-0.1,0.1-0.1,0.1-0.2c-0.1,0-0.2-0.2-0.3-0.2c-0.1,0-0.1,0-0.2,0l0,0c-0.1,0,0-0.1,0-0.1
				c0,0,0,0.1-0.1,0.2c0,0,0-0.1-0.1-0.1c-0.1,0,0,0,0,0.1c0,0,0-0.1,0-0.2c-0.1,0-0.3,0-0.4,0c0,0,0-0.1,0-0.1
				c-0.1,0-0.2,0.2-0.3,0.2c-0.1,0-0.1-0.2-0.2-0.2c-0.1,0,0,0.1,0,0.1c-0.1,0-0.1-0.1-0.2-0.2c0,0,0,0.1,0,0.2l-0.1,0
				c0-0.1-0.1-0.1-0.1-0.2c0,0,0,0.1,0,0.3l-0.1,0c0-0.1,0-0.1,0-0.2c0,0,0,0-0.1,0c-0.1,0,0,0.2-0.1,0.3c0,0-0.1-0.1-0.1,0
				c-0.1,0,0,0.1,0,0.1c0,0-0.1-0.1-0.1,0c0,0,0,0,0,0.1c-0.1,0-0.1-0.1-0.2-0.1c-0.1,0-0.1,0.1-0.1,0.1c0,0-0.1,0.1-0.1,0.1
				c0,0,0,0.1,0.1,0.2c0,0,0,0,0,0c0,0-0.1,0-0.2,0c0,0,0,0-0.1,0.1c-0.1,0.2,0.1,0.2,0,0.3c0,0.1-0.2,0-0.4,0l0,0.1
				c0,0,0,0,0.1,0.1c0.1,0.1,0.1,0,0.2,0c0,0-0.1,0.2-0.1,0.2c0,0.1-0.1,0-0.1,0.1c0,0.1,0,0.1,0.1,0.1c-0.1,0-0.1-0.1-0.1-0.1
				c0,0,0,0,0,0c0,0.1,0.1,0.1,0.1,0.1c0,0.1-0.1,0-0.1,0.1C47,3.9,47.1,4,47.1,4c0,0.1-0.1,0.1-0.1,0.1c0,0.1,0.1,0,0.1,0.1
				c0,0.1-0.1,0-0.1,0.1c0,0.1,0.1,0,0.1,0.1c0,0.1-0.1,0.1-0.2,0.1c0.1,0,0,0.1,0.2,0.1c0.1,0,0.1-0.1,0.1-0.1
				c0,0.1-0.1,0.1-0.1,0.1c0,0.1,0,0,0.1,0C47.1,4.8,47,4.9,47,4.9C47,5,47.1,5,47.1,5c0,0-0.1,0.1-0.2,0.1l0.3-0.1
				c0,0,0.1,0.2,0.1,0.2c-0.1,0-0.1,0.1-0.2,0.1c0.1,0,0.3,0.1,0.3,0.1c0,0.1-0.1,0.2-0.1,0.2c0,0,0.1,0,0.2-0.1c0,0.1,0,0.4,0,0.4
				c0,0.1,0,0.1,0.2-0.1l0.1,0.1c0,0,0,0.2,0,0.3c0,0,0.1,0,0.1,0c0,0,0,0.1,0.1,0.2c0.1,0,0.1,0,0.2,0c0.1,0-0.1,0.1,0,0.1
				c0.1,0,0.1-0.1,0.1,0c0.1,0,0,0.1,0.1,0.2c0.1,0,0.1-0.1,0.1,0c0.1,0-0.1,0.1,0,0.1c0.1,0,0.1-0.1,0.1-0.1c0.1,0,0.1,0.1,0.1,0.2
				c0,0,0.1-0.1,0.1-0.2c0,0,0,0.1,0,0.1c0.1,0,0-0.1,0.1-0.1c0.1,0,0,0.1,0,0.1C49,7.1,49,7,49,7c0,0,0.2,0.1,0.2-0.1
				c0,0,0,0.1,0,0.2c0,0,0.1,0.2,0.1,0.2c0,0,0.1-0.1,0.1-0.3l0.1,0c0,0.1,0,0.2,0.1,0.2c0.1,0,0-0.1,0.1-0.1c0.1,0,0.1,0.1,0.2,0.1
				c0.1,0,0.1,0,0.1,0c0,0,0-0.1,0-0.2c0,0,0.1,0,0.1-0.2c0,0.1,0,0.1,0,0.1c0,0,0.1,0.1,0.1,0.1c0-0.1,0.1-0.1,0.1-0.1
				c0.1,0,0.1,0.1,0.2,0c0.1,0,0-0.1,0-0.1c0.1,0,0,0,0.1,0.1c0,0,0.1,0,0.1,0c0.1,0,0.1,0,0.1-0.1l0,0c0.1,0,0.1,0.1,0.1,0
				c0.1,0,0-0.1,0-0.1c0.1,0,0.1,0.1,0.1,0c0,0,0-0.1,0-0.1c0,0,0.1,0.1,0.1,0c0.1,0,0-0.1,0-0.2c0.1,0,0.2,0.1,0.3,0
				c0,0,0-0.1,0-0.1c0,0,0.1,0.1,0.1,0c0,0,0-0.1,0-0.1c0,0,0.1,0,0.2,0.1c0.1-0.1,0.2-0.2,0.2-0.4c0-0.1-0.1,0-0.1-0.1
				c0-0.1,0.1,0,0.1,0c0-0.1-0.1-0.1,0-0.1c0-0.1,0.1,0,0.1-0.1c0-0.1,0-0.1-0.1-0.1c0.1,0,0.2-0.1,0.3-0.1c0-0.1,0.2-0.3,0.3-0.3
				c0,0-0.1-0.1-0.2-0.1l0-0.1c0-0.1,0.1-0.1,0.1-0.2c0.1,0,0.1-0.1,0.2-0.1c0.1,0,0.1,0.1,0.2,0.1c0.1,0,0.2-0.1,0.3-0.2
				c0.2,0.1,0.3,0.2,0.5,0.4c0,0.1-0.1,0.1-0.1,0.2l0.3,0l0,0.2c0,0.2-0.1,0-0.1,0.1c0,0.1,0.1,0.1,0.2,0.1c0,0.1-0.1,0.1-0.1,0.1
				C54.1,5.7,54,5.8,54,6c-0.1,0.1-0.1,0.2-0.2,0.3c-0.1,0.1-0.2,0.3-0.2,0.3c-0.1,0.1-0.1,0.2-0.1,0.3C53.6,6.8,53.7,6.8,53.8,6.8z
				"/>
		</g>
	</g>
</g>
<g>
</g>
<g>
</g>
<g>
</g>
<g>
</g>
<g>
</g>
<g>
</g>
<g>
</g>
<g>
</g>
<g>
</g>
<g>
</g>
<g>
</g>
<g>
</g>
<g>
</g>
<g>
</g>
<g>
</g>
</svg>
