<svg xmlns="http://www.w3.org/2000/svg" viewBox="0 0 325.28 145.36"><defs><style>.cls-1{opacity:0.52;}.cls-2{fill:#3a494f;fill-rule:evenodd;}.cls-3{fill:#fff;}</style></defs><title>title-plate</title><g id="Layer_8" data-name="Layer 8"><path class="cls-2" d="M248.31,92.11a2,2,0,0,0-.38.39c-.1,0-.24-.08-.33,0-.16.25-.43.31-.55.53s.13.14,0,.35-.23,0-.38.23,0,.67-.2.87-.17-.08-.34.11,0,.23-.14.42-.62.08-.86.07a3.45,3.45,0,0,1-.88,1.19c-.41.29-.4,0-.83.13,0,0,.08-.09-.13,0s0,.25-.25.36-.22-.1-.44,0-.2.35-.16.68c-.41,0-.88-.25-1.11-.17s-.71.58-1,.64-.09-.16-.33-.12-.22.22-.47.26c-.51.07-.1-.36-.44-.32s0,.19-.28.2-.35-.16-.6-.15a10.59,10.59,0,0,1-1.51.27c-.25,0-.62-.27-.86-.33a2.49,2.49,0,0,0-.86,0c-.11,0-.08-.27,0-.41a11.1,11.1,0,0,1-1.47-.61c0,.26.08.32,0,.42s-.05-.21-.27-.32-.31,0-.53-.08-.37-.64-.55-.8-.31,0-.51-.14,0-.23-.19-.39a.65.65,0,0,0-.65-.09c0-.17.25-.27.07-.44s-.1.17-.27,0,.16-.09,0-.27-.1.16-.27,0,.1-.16-.06-.34-.36-.15-.51-.35-.22-.33-.13-.49-.19,0-.38.1c-.09-.11.07-.21-.06-.43s-.29-.11-.42-.33-.09-.58-.2-.8-.39-.43-.48-.67a.49.49,0,0,1,0-.4,10.27,10.27,0,0,1-.31-1.44c.08-.07.17.06.13-.18s-.5-.85-.68-1.28l0-.36c.13,0,.17.2.39.39a6.09,6.09,0,0,1,0-.74c0-.25-.19-.12-.17-.37s.19-.34.22-.58-.16-.17-.12-.42.19,0,.23-.27-.11-.38-.05-.63a7.83,7.83,0,0,1,.49-1c.07-.17.26-.54.1-.76a1.25,1.25,0,0,1,.53-.23c.11-.24.25-.22,0-.33s-.21.11-.32,0a1.72,1.72,0,0,0,.7-.49,1,1,0,0,0-.13-.81l.23-.31c.18.12.43.06.61.1s0-.19-.2-.35c.31-.09.55-.08.72-.27s.17-.72.37-.89.23,0,.42-.13.12-.16.06-.29c.19,0,.24.27.44.12s-.15-.11.05-.26.3,0,.5-.14c.36-.23.44-.29.24-.78l.33-.2c.09.14.4.4.53.34s-.13-.14.1-.25,0,.19.25.08.24-.37.37-.53.28-.13.51-.22a11.35,11.35,0,0,1,1.54,0c.84-.12.54-.46.94-.5s.17.36,1,.33c.24,0,.54-.16.79-.15a1.85,1.85,0,0,1,.89.49c.08,0,.16-.11.21-.33a1.94,1.94,0,0,1,.33.07c.24,0,.16.22.32.3s0,.26,0,.35L241,78c.23.07.19-.11.38-.23s.46.14.65.17,0-.17.21-.08a2.1,2.1,0,0,1,.69.75c.07,0,.18-.06.31-.24a1.42,1.42,0,0,0,.48.5,2.54,2.54,0,0,0,.69.27c.1.06,0,.28-.11.38.14.11.28.21.41.33s.2-.13.3-.22l.38.35c.19.16,0,.2.13.38s.23.18.34.11c.29.68-.07.43.33,1,.26.32.84.56.91.68s-.09.56,0,.78.19,0,.29.18-.18,0-.08.25a5.33,5.33,0,0,0,.73.93c.05.07,0,0,.1.22a1.23,1.23,0,0,1-.12.72l-.05.12a2,2,0,0,1,.06.26c.09.07.24,0,.38,0a1.56,1.56,0,0,0-.42,1.26c-.12,0-.14-.17-.37-.15-.54,0-.57.79-1,.78-.23,0-.16,0-.24,0s-.22-.79-.63-.74c-.23,0-.23.17-.35.17-.06-.45-.46-.49-.48-.67a1,1,0,0,1,.06-.32.31.31,0,0,0,0-.19c0-.17-.22-.19-.28-.34s.08-.08.12-.16a7.55,7.55,0,0,0-.13-.86c-.08-.15-.06-.33-.21-.38s-.42,0-.51-.16.06-.1.08-.18a1.85,1.85,0,0,0-.27-.42,1.14,1.14,0,0,0-.64-.49c.08-.1.16-.07.26-.07s0-.2.09-.36-.16.09-.29,0,0-.17,0-.26c-.15,0-.21-.13-.36.05s0,.19-.09.28l-.28-.25c.07-.2.08-.39-.06-.5s-.09.17-.22.07.13-.13,0-.24-.19.1-.33,0,0-.25-.2-.34A1.22,1.22,0,0,0,241,81a1.93,1.93,0,0,0-.4.21c0-.13.19-.17.26-.31-.3-.09-.69-.44-.87-.47s-.34-.11-.48,0v.06c-.19,0-.06-.12-.1-.21s-.11.13-.16.34c-.09,0,0-.17-.16-.2s-.08,0-.1.16-.1-.23-.07-.38c-.33,0-.75-.06-1.1-.07,0-.07.07-.14-.11-.13s-.64.42-.79.45-.31-.34-.49-.29.08.18-.09.22-.39-.12-.5-.26c-.05,0,0,.16,0,.37l-.24.09c0-.11-.2-.13-.31-.26a.75.75,0,0,0,0,.59l-.23.11c-.06-.11,0-.26,0-.33s0-.07-.16,0-.12.46-.27.54-.17-.1-.32,0,0,.21-.14.3-.13-.14-.27,0-.09.12,0,.25c-.14,0-.3-.08-.46-.1s-.26.22-.4.33-.32.24-.36.38,0,.2.07.38c0,0,.09,0,0,.1s-.33,0-.49,0-.08.09-.19.23c-.36.49.08.55-.07.79s-.43,0-.75.21l-.08.17c0,.09-.07,0,.14.12s.27,0,.39,0a3.62,3.62,0,0,0-.2.45c0,.16-.23.11-.29.27a.42.42,0,0,0,.07.4c-.14,0-.19-.18-.26-.21s-.06,0-.1.13.15.15.11.32-.21.06-.25.23.13.35.11.52-.23.22-.23.4.18,0,.17.16-.18,0-.19.2.18,0,.17.21-.19.36-.35.42c.1.11.06.24.29.22s.13-.15.26-.15c0,.23-.17.25-.14.42s.07.13.2.14c-.16.19-.32.34-.28.52s.24.2.27.33-.16.14-.29.36l.52-.16c0,.17.12.33.18.49-.12.06-.14.21-.27.32a1.53,1.53,0,0,1,.64.49.55.55,0,0,1-.12.54s.17,0,.37-.11a2.25,2.25,0,0,0,.31,1c.17.18.16.17.42-.08l.24.27c.13.11.07.54.2.67s.2-.06.34,0,.14.33.28.44.32,0,.46.08-.12.13,0,.23.18-.1.33,0,.14.27.3.35.17-.12.33,0-.1.16.06.22.17-.14.33-.08a.65.65,0,0,1,.28.49c.05,0,.13-.12.19-.32.1,0,0,.17.16.21s0-.19.18-.14-.08.17.09.21.09,0,.14-.11.53.24.69-.12c.09,0,.1.21.12.29s.21.27.4.28.25-.23.3-.54l.38,0c.09.19.15.36.33.34s0-.19.18-.22.27.15.45.12a.7.7,0,0,0,.3-.09c0-.07,0-.24,0-.32a1.16,1.16,0,0,0,.4-.34c.06.12,0,.19,0,.27s.18.1.28.23a.8.8,0,0,1,.35-.33c.17,0,.3.08.46,0s-.11-.15.05-.23.09.07.18.1a1.08,1.08,0,0,0,.34-.17c.15-.09.33-.17.34-.35l0,0c.16-.11.15.12.29,0s0-.22.12-.32.2.09.34,0-.09-.16,0-.28.2.06.33-.06.1-.31,0-.53a.91.91,0,0,0,.67-.2c.11-.15-.08-.2,0-.34s.17.08.28-.06,0-.15-.05-.22.25,0,.36.09a7.4,7.4,0,0,0,.6-1.11c.07-.16-.18,0-.12-.2s.18,0,.25-.14-.14-.17-.08-.33.22,0,.27-.22,0-.17-.13-.23a1.44,1.44,0,0,1,.61-.22c.1-.19.3-.54.5-.59,0-.07-.13-.13-.35-.17a2.48,2.48,0,0,0,0-.27c0-.21.18-.17.24-.34s.19-.2.42-.19.13.18.36.19.39-.15.52-.37a7.57,7.57,0,0,1,.85.67c0,.13-.19.23-.22.4l.56.06,0,.31c0,.28-.12.08-.21.16s.12.16.33.22c0,.15-.11.16-.18.25a10.15,10.15,0,0,1-.33,1c-.2.48-.45.89-.5,1a2.73,2.73,0,0,0-.24.67C247.92,92.23,248.17,92.12,248.31,92.11Z"/><path class="cls-2" d="M88.31,92.11a2,2,0,0,0-.38.39c-.1,0-.24-.08-.33,0-.16.25-.43.31-.55.53s.13.14,0,.35-.23,0-.38.23,0,.67-.2.87-.17-.08-.34.11,0,.23-.14.42-.62.08-.86.07a3.45,3.45,0,0,1-.88,1.19c-.41.29-.4,0-.83.13,0,0,.08-.09-.13,0s0,.25-.25.36-.22-.1-.44,0-.2.35-.16.68c-.41,0-.88-.25-1.11-.17s-.71.58-1,.64-.09-.16-.33-.12-.22.22-.47.26c-.51.07-.1-.36-.44-.32s0,.19-.28.2-.35-.16-.6-.15a10.59,10.59,0,0,1-1.51.27c-.25,0-.62-.27-.86-.33a2.49,2.49,0,0,0-.86,0c-.11,0-.08-.27,0-.41a11.1,11.1,0,0,1-1.47-.61c0,.26.08.32,0,.42s0-.21-.27-.32-.31,0-.53-.08-.37-.64-.55-.8-.31,0-.51-.14,0-.23-.19-.39a.65.65,0,0,0-.65-.09c0-.17.25-.27.07-.44s-.1.17-.27,0,.16-.09,0-.27-.1.16-.27,0,.1-.16-.06-.34-.36-.15-.51-.35-.22-.33-.13-.49-.19,0-.38.1c-.09-.11.07-.21-.06-.43s-.29-.11-.42-.33-.09-.58-.2-.8-.39-.43-.48-.67a.49.49,0,0,1,0-.4,10.27,10.27,0,0,1-.31-1.44c.08-.07.17.06.13-.18s-.5-.85-.68-1.28l0-.36c.13,0,.17.2.39.39a6.09,6.09,0,0,1,0-.74c0-.25-.19-.12-.17-.37s.19-.34.22-.58-.16-.17-.12-.42.19,0,.23-.27-.11-.38,0-.63a7.83,7.83,0,0,1,.49-1c.07-.17.26-.54.1-.76a1.25,1.25,0,0,1,.53-.23c.11-.24.25-.22,0-.33s-.21.11-.32,0a1.72,1.72,0,0,0,.7-.49,1,1,0,0,0-.13-.81l.23-.31c.18.12.43.06.61.1s0-.19-.2-.35c.31-.09.55-.08.72-.27s.17-.72.37-.89.23,0,.42-.13.12-.16.06-.29c.19,0,.24.27.44.12s-.15-.11.05-.26.3,0,.5-.14c.36-.23.44-.29.24-.78l.33-.2c.09.14.4.4.53.34s-.13-.14.1-.25,0,.19.25.08.24-.37.37-.53.28-.13.51-.22a11.35,11.35,0,0,1,1.54,0c.84-.12.54-.46.94-.5s.17.36,1,.33c.24,0,.54-.16.79-.15a1.85,1.85,0,0,1,.89.49c.08,0,.16-.11.21-.33a1.94,1.94,0,0,1,.33.07c.24,0,.16.22.32.3s0,.26,0,.35L81,78c.23.07.19-.11.38-.23s.46.14.65.17,0-.17.21-.08a2.1,2.1,0,0,1,.69.75c.07,0,.18-.06.31-.24a1.42,1.42,0,0,0,.48.5,2.54,2.54,0,0,0,.69.27c.1.06,0,.28-.11.38.14.11.28.21.41.33s.2-.13.3-.22l.38.35c.19.16,0,.2.13.38s.23.18.34.11c.29.68-.07.43.33,1,.26.32.84.56.91.68s-.09.56,0,.78.19,0,.29.18-.18,0-.08.25a5.33,5.33,0,0,0,.73.93c.05.07,0,0,.1.22a1.23,1.23,0,0,1-.12.72l0,.12a2,2,0,0,1,.06.26c.09.07.24,0,.38,0A1.56,1.56,0,0,0,88,86.87c-.12,0-.14-.17-.37-.15-.54,0-.57.79-1,.78-.23,0-.16,0-.24,0s-.22-.79-.63-.74c-.23,0-.23.17-.35.17-.06-.45-.46-.49-.48-.67a1,1,0,0,1,.06-.32.31.31,0,0,0,0-.19c0-.17-.22-.19-.28-.34s.08-.08.12-.16a7.55,7.55,0,0,0-.13-.86c-.08-.15-.06-.33-.21-.38s-.42,0-.51-.16.06-.1.08-.18a1.85,1.85,0,0,0-.27-.42,1.14,1.14,0,0,0-.64-.49c.08-.1.16-.07.26-.07s0-.2.09-.36-.16.09-.29,0,0-.17,0-.26c-.15,0-.21-.13-.36.05s0,.19-.09.28l-.28-.25c.07-.2.08-.39-.06-.5s-.09.17-.22.07.13-.13,0-.24-.19.1-.33,0,0-.25-.2-.34A1.22,1.22,0,0,0,81,81a1.93,1.93,0,0,0-.4.21c0-.13.19-.17.26-.31-.3-.09-.69-.44-.87-.47s-.34-.11-.48,0v.06c-.19,0-.06-.12-.1-.21s-.11.13-.16.34c-.09,0,0-.17-.16-.2s-.08,0-.1.16-.1-.23-.07-.38c-.33,0-.75-.06-1.1-.07,0-.07.07-.14-.11-.13s-.64.42-.79.45-.31-.34-.49-.29.08.18-.09.22-.39-.12-.5-.26c-.05,0,0,.16,0,.37l-.24.09c0-.11-.2-.13-.31-.26a.75.75,0,0,0,0,.59l-.23.11c-.06-.11,0-.26,0-.33s0-.07-.16,0-.12.46-.27.54-.17-.1-.32,0,0,.21-.14.3-.13-.14-.27,0-.09.12,0,.25c-.14,0-.3-.08-.46-.1s-.26.22-.4.33-.32.24-.36.38,0,.2.07.38c0,0,.09,0,0,.1s-.33,0-.49,0-.08.09-.19.23c-.36.49.08.55-.07.79s-.43,0-.75.21l-.08.17c0,.09-.07,0,.14.12s.27,0,.39,0a3.62,3.62,0,0,0-.2.45c0,.16-.23.11-.29.27a.42.42,0,0,0,.07.4c-.14,0-.19-.18-.26-.21s-.06,0-.1.13.15.15.11.32-.21.06-.25.23.13.35.11.52-.23.22-.23.4.18,0,.17.16-.18,0-.19.2.18,0,.17.21-.19.36-.35.42c.1.11.06.24.29.22S70.83,88,71,88c0,.23-.17.25-.14.42s.07.13.2.14c-.16.19-.32.34-.28.52s.24.2.27.33-.16.14-.29.36l.52-.16c.05.17.12.33.18.49-.12.06-.14.21-.27.32a1.53,1.53,0,0,1,.64.49.55.55,0,0,1-.12.54s.17,0,.37-.11a2.25,2.25,0,0,0,.31,1c.17.18.16.17.42-.08l.24.27c.13.11.07.54.2.67s.2-.06.34,0,.14.33.28.44.32,0,.46.08-.12.13,0,.23.18-.1.33,0,.14.27.3.35.17-.12.33,0-.1.16.06.22.17-.14.33-.08a.65.65,0,0,1,.28.49s.13-.12.19-.32c.1,0,0,.17.16.21s0-.19.18-.14-.08.17.09.21.09,0,.14-.11.53.24.69-.12c.09,0,.1.21.12.29s.21.27.4.28.25-.23.3-.54l.38,0c.09.19.15.36.33.34s0-.19.18-.22.27.15.45.12a.7.7,0,0,0,.3-.09c0-.07,0-.24,0-.32a1.16,1.16,0,0,0,.4-.34c.06.12,0,.19,0,.27s.18.1.28.23a.8.8,0,0,1,.35-.33c.17,0,.3.08.46,0s-.11-.15.05-.23.09.07.18.1a1.08,1.08,0,0,0,.34-.17c.15-.09.33-.17.34-.35l0,0c.16-.11.15.12.29,0s0-.22.12-.32.2.09.34,0-.09-.16,0-.28.2.06.33-.06.1-.31,0-.53a.91.91,0,0,0,.67-.2c.11-.15-.08-.2,0-.34s.17.08.28-.06,0-.15,0-.22.25,0,.36.09a7.4,7.4,0,0,0,.6-1.11c.07-.16-.18,0-.12-.2s.18,0,.25-.14-.14-.17-.08-.33.22,0,.27-.22,0-.17-.13-.23a1.44,1.44,0,0,1,.61-.22c.1-.19.3-.54.5-.59,0-.07-.13-.13-.35-.17a2.48,2.48,0,0,0,0-.27c0-.21.18-.17.24-.34s.19-.2.42-.19.13.18.36.19.39-.15.52-.37a7.57,7.57,0,0,1,.85.67c0,.13-.19.23-.22.4l.56.06,0,.31c0,.28-.12.08-.21.16s.12.16.33.22c0,.15-.11.16-.18.25a10.15,10.15,0,0,1-.33,1c-.2.48-.45.89-.5,1a2.73,2.73,0,0,0-.24.67C87.92,92.23,88.17,92.12,88.31,92.11Z"/><rect class="cls-3" x="1.79" y="87.83" width="322" height="55.33" rx="6.82" ry="6.82"/><path class="cls-2" d="M296.55,145.36c-1.64-.06-3.73-.14-6-.17a6.33,6.33,0,0,0-1.52-.31c-3.51,0-5.87-.21-8.9-.21s-.61.18-3.65.18-1.82-.18-4.85-.18-6.68.36-9.72.36-.61-.18-3.64-.18-1.82.18-4.86.18-5.89-.38-8-.55c-4.49.18-14.48.37-17.51.37-5.92,0-3.79-.23-9.26-.34,0,0,1.36,0-1.67,0s-1.82.19-4.86.19-1.82-.19-4.86-.19a26.89,26.89,0,0,0-5.23.55c-4.21-.19-8.73-.55-11.77-.55s-10.32.37-13.36.37-.61-.18-3.64-.18-3,.18-6.07.18c-6.23,0-.61-.37-4.86-.37-3,0-.61.19-3.64.19s-4.26-.19-7.29-.19-15.18.37-18.22.37-7.89-.18-10.93-.18-7.62.08-10.18.18c-1.35,0-2-.23-1.78-.39H90.59c1.3.24,2.55.25,2.37.38-1.65,0-1.65-.17-4.68-.17s-3,.18-6.07.18-7.9-.37-10.93-.37-3,.19-6.08.19-1.82-.19-4.85-.19a49.26,49.26,0,0,0-6.58.37c-1.75-.11-.1-.37-3.14-.37s.61.19-2.43.19.61-.19-2.43-.19.61.19-2.42.19-.61-.19-3.65-.19-4.25.19-7.28.19a43.29,43.29,0,0,1-5.79-.2,2.62,2.62,0,0,0-1.68.37c-1.64,0-1.64-.17-4.68-.17s-3,.18-6.07.18c-1.52,0-3.19,0-4.86-.09l-.62,0c-.21,0-.5,0-.74-.05a7.4,7.4,0,0,1-1.49-.28,8.69,8.69,0,0,1-6-5.95,10.28,10.28,0,0,1-.34-2.87l0-2.37c0-3,.1-3.36.15-4.44,0-5.93,0-12,.07-17.9.08-.67.15,1.09.15-1.95,0-1.52-.09-4.33-.2-7.39C.21,100,.15,98.42.09,96.89L0,94.68a9.29,9.29,0,0,1,.29-2.51,8.71,8.71,0,0,1,3-4.38c.12,0-.5.46-1.2,1.36A8.09,8.09,0,0,0,.48,92.92a8.44,8.44,0,0,1,2.79-4.63,8.29,8.29,0,0,1,5-1.93c3.14,0,1.39-.2,4.45-.21s4.25.18,7.29.18,1.82-.18,4.86-.18.6.18,3.64.18,4.25-.18,7.29-.18l13.36.18c2.27,0,7.33.07,9-.18,1.76.11,4.3.21,5.29.38,3.32,0,3.93.13,3.93-.1s-2.43-.14-2-.28c3.09.2,6.3.37,9.34.37A59.9,59.9,0,0,0,82.2,86h4.49a22.78,22.78,0,0,0,3.51.55,3.81,3.81,0,0,0,1.88-.38c3.09.2,5.09.37,8.12.37s7.9-.37,10.93-.37,1.82.18,4.86.18,2.43,0,2.8-.18c1.88.11.24.37,3.27.37s-.61-.19,2.43-.19,3,.19,6.07.19c5.32,0,6.53,0,7.49-.54h4.5a11.09,11.09,0,0,0,3.8.54c3,0-.61-.19,2.43-.19s-.61.19,2.43.19,4.52-.24,6.65-.34c1.82-.09,3.67,0,6.71,0s15.18.37,18.21.37c10.48,0,7.29-.37,12.15-.37,5.16,0,1.67.37,12.14.37,3,0,6.68-.19,9.72-.19s8.23.2,11.71.38c1,0,1.64-.14,1.82-.37h4.08c3,0,2.52.18,4.76.21a8.78,8.78,0,0,0,1.54.34h3.41a14,14,0,0,0,3.63-.34l8.29-.06c1.12-.06-1-.16,2.05-.16s8.23.2,11.71.38a4,4,0,0,0,2-.37c1.88.1,5.09.18,8.13.18s6.4-.09,9-.18c1.36,0,2,.23,1.79.37h6.64c1-.08.82-.24,1-.37h6.35c3,0,1.37.18,4.4.18s3.65,0,3.91-.18l2.64.09.93,0,.79.06a7.27,7.27,0,0,1,1.95.44,9.19,9.19,0,0,1,1.75.86,8,8,0,0,1,3.2,3.65,8.86,8.86,0,0,1,.63,2.28c.08.85.07,1.51.09,2.19,0,1.36.09,2.71.13,4,.09,2.47.18,4.48.18,5.32,0,3-.37,5.46-.37,8.5s.19.6.19,3.64-.19-.61-.19,2.43.18,10,.35,14l0,.71v1.3c0,.26,0,.56,0,1.05a8,8,0,0,1-2.54,5.32,7.81,7.81,0,0,1-2.41,1.51c-.2.09-.41.14-.61.21l-.3.09c-.11,0,0,0-.08,0l-.09,0L319,144c-.06.11,0,.25,0,.39a1.71,1.71,0,0,0-1.32-.35c0-.13.18-.14.16-.37-.07-.53-.81-.57-.8-1,0-.23,0-.17,0-.24s.77-.22.71-.65c0-.23-.18-.21-.18-.33.42-.08.43-.45.59-.5a.4.4,0,0,1,.24,0h.05l.11,0a4.59,4.59,0,0,0,.7-.27,4.69,4.69,0,0,0,1.3-.92,4.34,4.34,0,0,0,1.19-2.32,5.57,5.57,0,0,0,.08-1.18c0-.58,0-1.23,0-2,0-3,.1-1,.16-2,.06-4.67.16-11.94.2-15s.09-5.57,0-7.55-.35-4-.35-7,.1-1,.16-2,0-2.6,0-4.16V95.39c0-.4,0-.82,0-1.07a5.05,5.05,0,0,0-.4-1.66,5,5,0,0,0-3.37-2.83,5.07,5.07,0,0,0-.68-.11c-.27,0-.42,0-.79,0l-2,0-4.11.11c-.28-.14,1.11-.17,2.19-.25,0-.07-2.41-.14-3.4-.31a37.78,37.78,0,0,1-3.93.19,11.88,11.88,0,0,1-3.13-.18c-2.06.09-4.16,0-4.16.28s2.43.13,2.25.26h-6.83a44.78,44.78,0,0,0-6.35-.36c-3,0,.61.19-2.43.19s.61-.19-2.42-.19-1.83.19-4.86.19-3-.19-6.07-.19-8.09.09-11.28.21c-2.12.08-3.48.24-5.35.34-.38-.13,2.05-.22,2.23-.37-5.64,0-14.14-.18-17.18-.18s-6.2,0-8.1.13v.06c-3.44,0-1.44-.11-2.45-.19s-1.59.14-1.77.36c-1.65,0-.43-.17-3.47-.17s-1.21,0-1.39.17c-1.64,0-2.25-.22-2.07-.37l-19.06,0c-.51-.08,1.27-.14-1.77-.14s-11.53.37-14.57.37-4.25-.37-7.29-.37.61.18-2.42.18a58.27,58.27,0,0,1-7-.37c-.9,0-1.51.14-1.68.36h-4.53c-.15-.12-2.52-.2-3.38-.36a22.9,22.9,0,0,0-4.28.55h-4.48c-.16-.13,2.27-.22,2.32-.3a11.48,11.48,0,0,0-2.48-.06c-3,0-5.46.37-8.5.37s-1.82-.19-4.86-.19-1.82.19-4.85.19-.61-.19-3.65-.19-2.43,0-2.8.19l-5.44-.36c-2-.1-5.72,0-8.76,0s-6.64,0-8.92,0c-1.36,0-2.15.15-3.95.31,0,0,1.33,0-1.7,0a53,53,0,0,1-5.9-.36c-.76-.06-2,0-5,0-10.32,0-7.14.37-12.15.37-3.94,0-4.57-.33-9.27-.56H60.92c-1,.08-.79,0-.79.19s2.42.23,2.25.36H53.6c-3,0-3.19-.18-6.23-.18s-4.42.08-6.3.19c-.38-.14,2-.23,2.1-.31a11.4,11.4,0,0,0-2.48-.06c-3,0-1.82.18-4.85.18S34,89.29,31,89.29s-5.47.18-8.5.18-4.25-.18-7.29-.18.61.18-2.43.18-.6-.18-3.64-.18H8.61l-.31,0a1.61,1.61,0,0,0-.4.06,1,1,0,0,0-.3.11,1.54,1.54,0,0,1-.28.13,8.69,8.69,0,0,0-1,.4,5.94,5.94,0,0,0-2.39,2.16,9,9,0,0,0-.84,1.9v.61l0,.73c0,.47,0,.91,0,1.3,0,.77.08,1.29.19,1.29s.14-2.43.27-2.25c0,4.07-.17,4.07-.17,7.11s0,2.43.18,2.8c-.2,3.09-.37,5.09-.37,8.13s.19,4.25.19,6.68c0,1.21-.2,1.55-.38,4.5H3.6v9.3a7.22,7.22,0,0,0-.17,1.43c-.07.79-.08,1.28-.09,1.65a5.52,5.52,0,0,0,1,2,5.37,5.37,0,0,0,2.06,1.6,5.19,5.19,0,0,0,1.26.37,4.48,4.48,0,0,0,.63.06H9l2.81,0a55.61,55.61,0,0,1,7,.38,3.3,3.3,0,0,0,1.79-.37c5.45.18,14.89.36,17.93.36,4.1,0,3.95,0,3.8-.36h6.37c3,0,7.44.36,10.47.36s1.82-.18,4.86-.18,5.47.18,8.5.18,4.25-.18,7.29-.18-.61.18,2.43.18,1.82-.18,4.85-.18,4.25.18,7.29.18,1.82-.18,4.86-.18-.61.18,2.43.18,1.82-.18,4.86-.18a58.2,58.2,0,0,1,7,.37c.9,0,1.51-.14,1.68-.36,1.65,0,.43.17,3.47.17s-.61-.18,2.43-.18-.61.18,2.43.18,1.3-.07,1.9-.14c2.33,0,9.53.16,11.73-.22a7.9,7.9,0,0,1,2.47.29c1.82.08,3.94.26,7,.26a21.54,21.54,0,0,0,5.08-.55h6.8a26.65,26.65,0,0,0,5.12.36c3,0,.61-.18,3.65-.18s4.25.18,7.28.18l5.21,0a7.66,7.66,0,0,0,1.56-.3c1.26,0,4.31,0,8.71-.23.31.14-1.08.17-2.16.25,0,.07,2.41.14,3.27.3,2-.09,4.67-.18,7.7-.18s4.25.18,7.29.18-.61-.18,2.43-.18,1,.1,2.05.16l6.45,0c3,0,6.2,0,8.1-.13v-.05c3.43,0,1,.18,4,.18s1.82-.18,4.86-.18,1.82.18,4.86.18.6-.18,3.64-.18,1.82.18,4.86.18a49.37,49.37,0,0,0,6.58-.37c3,.2,7.38.37,10.42.37s1.82-.18,4.86-.18.61.18,3.64.18,2.43-.05,2.61-.17c1.64,0,2.25.22,2.07.36h20.82c3,0-.6-.19,2.43-.19s.61.19,3.65.19,1.82-.19,4.85-.19,1.83.19,4.86.19h.35l.06,0s0-.08,0-.15a1.75,1.75,0,0,0,1.15.93c.06,0,.11-.14.12-.37h.31c.23,0,.2.18.38.23s.22.18.22.41-.18.14-.18.37.16.37.37.5c-.19.31-.38.59-.58.88-.11,0-.21-.18-.36-.19V145h-.26c-.23,0-.08-.1-.16-.18s-.12.14-.13.36c-.13,0-.15-.09-.23-.14l-.53,0-.29,0-3.26,0-10.37-.1c-3,0-6.4,0-8.53.06C293.45,145.06,295.77,145.23,296.55,145.36Z"/><path class="cls-2" d="M75.59,73.82a2.76,2.76,0,0,0,.17-.59c.09-.07.26,0,.31-.15,0-.35.22-.59.22-.89s-.19-.06-.19-.36.19-.18.19-.49-.37-.66-.37-1,.18-.07.18-.37-.18-.18-.18-.48.38-.59.55-.8A7.17,7.17,0,0,1,76.1,67c0-.59.23-.38.34-.92,0,0,0,.13,0-.17s-.18-.18-.18-.48.18-.19.18-.49c0-.13-.23-.41-.55-.52.19-.42.55-.87.55-1.17s-.37-1-.37-1.33.19-.06.19-.37-.19-.3-.19-.6c0-.62.37-.06.37-.48s-.18-.06-.18-.37.18-.42.18-.72-.37-1.52-.37-1.82.19-.78.19-1.09a3.29,3.29,0,0,0-.19-1c0-.14.23-.2.39-.18v-2c-.23.13-.25.25-.37.23s.17-.16.17-.46-.19-.31-.19-.61.37-.79.37-1.09-.18-.3-.18-.6.18-.18.18-.49a.79.79,0,0,0-.37-.65c.11-.18.37,0,.37-.31s-.18.06-.18-.25.18.06.18-.24-.18.06-.18-.24.18-.06.18-.36-.18-.43-.18-.73,0-.48.19-.57c0-.09-.15-.15-.36-.17,0-.17.17-.17.17-.47s-.19-.3-.19-.6.19-.67.19-1-.19-.67-.19-1a.64.64,0,0,1,.15-.44l.07-1.78c.08-.07.15.1.15-.2a9,9,0,0,0-.54-1.62V39.3c.13,0,.15.24.37.48v-.9c0-.31-.2-.14-.2-.44s.19-.43.19-.73-.19-.18-.19-.48.19-.06.19-.36-.19-.43-.19-.73.19-1,.19-1.33.06-.73-.19-.9c.11-.17.21-.43.38-.52,0-.34.13-.4-.1-.4s-.14.25-.27.21a1.94,1.94,0,0,0,.36-.93c0-.08-.2-.65-.54-.75v-.45c.22,0,.38-.25.55-.35,0-.08-.15-.15-.37-.18a1.57,1.57,0,0,0,.36-.81c0-.3-.37-.79-.37-1.09s.19-.18.19-.48-.05-.25-.18-.28c.1-.19.36,0,.36-.33s-.18.06-.18-.24.18-.3.18-.61c0-.53,0-.65-.54-.74v-.45c.17,0,.54-.2.54-.38s-.18.06-.18-.24.18.06.18-.24-.23-.45-.34-.67,0-.36,0-.66.37-1.52.37-1.82c0-1-.37-.72-.37-1.21s.37-.16.37-1.21c0-.3-.18-.66-.18-1A3.12,3.12,0,0,1,76.66,17c0-.11-.14-.17-.37-.18v-.41c0-.3.18-.25.21-.47s.26-.06.34-.16v-.34c0-.3-.16-.19-.34-.36,0-.23,0-.59-.06-.83s-.15.1-.15-.2a3.22,3.22,0,0,1,.37-1.17c0-.1-.14-.16-.37-.2a1.83,1.83,0,0,0,.18-.81,2.88,2.88,0,0,0-.18-.89c0-.13.23-.2.37-.18v-.66c-.08-.1-.23-.08-.37-.1V9.36c0-.3.18-.14.18-.44s0-.36-.18-.39c.24-.86.37-.34.37-1.18A6.19,6.19,0,0,0,76.29,6c0-.31.37-.55.37-.85s-.19-.06-.19-.36.19.06.19-.24a4.86,4.86,0,0,0-.35-1.4c0-.1,0,0,0-.3a1.53,1.53,0,0,1,.37-.9V1.72c-.08-.07-.23-.06-.37-.09A1.13,1.13,0,0,0,76.85.57c.13,0,.13.17.36.17.54,0,.61-.74,1-.74.23,0,.16,0,.23.05s.18.87.6.87c.23,0,.23-.18.35-.17,0,.55.39.68.39.91s-.19.4-.19.73.19.42.19.72-.11.1-.17.21c0,.46-.2,1.18-.2,1.49s-.09.55,0,.75.36.4.36.7-.11.1-.17.2,0,.59,0,.89a4.55,4.55,0,0,0,.18,1.42c-.13,0-.17-.11-.24-.22s-.15.24-.32.34c0,.09.2.09.2.39s-.11.23-.19.32c.09.2.05.41.28.41s.14-.24.26-.23v.69a.75.75,0,0,0-.35.63c0,.3.18-.06.18.24s-.18-.06-.18.24.18.18.18.49-.18.3-.18.6a3.73,3.73,0,0,0,.2,1.12,3.33,3.33,0,0,0,.35.54c-.14,0-.23-.21-.38-.23,0,.57-.17,1.41-.17,1.72a1.34,1.34,0,0,0,.13.8h0c0,.35-.11.15-.19.25s.14.16.36.17c0,.17-.17.05-.17.35s0,.12.17.14-.22.22-.37.2a17.32,17.32,0,0,1,0,1.9c-.08.05-.14-.12-.14.18s.37,1.15.37,1.45-.37.42-.37.73.19-.06.19.24a.87.87,0,0,1-.38.69c0,.09.15.15.36.17v.45c-.12,0-.19.25-.36.34a1,1,0,0,0,.55.43v.44c-.13,0-.22-.22-.29-.23s-.07-.05-.07.25.37.54.37.84-.18.19-.18.49.18.18.18.48-.18.06-.18.37,0,.24.18.27c-.11.19-.25.35-.35.55s0,.57,0,.87a4.29,4.29,0,0,0,0,.89c0,.13.15.21.31.39,0,0,0-.13,0,.17s-.23.42-.36.59,0,.2,0,.5c0,1,.37.71.37,1.21s-.33.45-.56.92v.33c.09.1,0,.08.19.08s.23-.24.36-.22v.87c0,.3-.17.32-.17.62a1.07,1.07,0,0,0,.18.63c-.14,0-.23-.21-.3-.21s-.07-.06-.07.25.19.18.19.48-.19.18-.19.48.19.55.19.85-.19.42-.19.73.19-.06.19.24-.19.06-.19.36.19.06.19.36a.85.85,0,0,1-.38.69c.09.19,0,.4.28.4s.14-.24.27-.22c0,.4-.17.4-.17.71s0,.24.18.28a1.45,1.45,0,0,0-.37.81c0,.3.19.42.19.66s-.2.16-.38.45h.55v.93c-.13,0-.2.25-.36.33a3.36,3.36,0,0,1,.37,1.25.89.89,0,0,1-.38.7c0,.09.15.15.37.18a8.4,8.4,0,0,0-.36,1.79c0,.4,0,.39.36.38v.63c0,.3-.36.74-.36,1s.19.18.19.49-.19.54-.19.84.19.43.19.73-.19-.06-.19.24.19.18.19.49-.19.42-.19.72.19.18.19.48-.19-.06-.19.25.19.18.19.48a.9.9,0,0,1-.38.7c0,.09.15.15.36.17,0,.16-.17,0-.17.34s.19-.06.19.24-.19-.06-.19.24.07.13.14.19c.06.24-.16.95.22,1.17,0,.16-.2.21-.28.25a1.45,1.45,0,0,0-.26.69c0,.18.24.41.54.51v.68c-.2.14-.36.2-.36.51s.19.06.19.36-.19.42-.19.73a2.93,2.93,0,0,0,0,.51c.06.11.24.1.31.16a4.16,4.16,0,0,0,.22.87c-.13,0-.17-.11-.24-.22s-.15.24-.31.33a1.8,1.8,0,0,1,.19.76c0,.31-.19.43-.19.73s.19-.06.19.24-.11.1-.17.21a6,6,0,0,0,0,.64,1.38,1.38,0,0,0,.13.81h.06c0,.34-.19.1-.19.4s.19.18.19.48-.19.18-.19.49.19.06.19.36-.19.18-.19.48a.81.81,0,0,0,.37.66,2.12,2.12,0,0,0-.37,1c0,.3.19.18.19.48s-.19.06-.19.36.05.25.17.26c0,.17-.21.23-.36.21V74c0,.31.19-.06.19.25s-.18.06-.18.36.18.18.18.48-.18.18-.18.49,0,.19.18.22a1.23,1.23,0,0,1-.54.41,1.29,1.29,0,0,1-.39.74c0,.06.15.11.37.12v.31c0,.23-.18.2-.23.38S78.27,78,78,78s-.14-.18-.37-.18-.37.16-.49.37c-.32-.19-.6-.38-.89-.58,0-.11.18-.21.19-.36h-.56V77c0-.23.1-.08.19-.16s-.15-.12-.36-.13c0-.13.08-.15.13-.23,0-.25.05-.56.09-.85.06-.6.13-1.17.13-1.35A3.14,3.14,0,0,0,76,73.4C75.89,73.51,75.72,73.75,75.59,73.82Z"/><path class="cls-2" d="M235.93,74.16a3.05,3.05,0,0,0,.17-.6c.08-.06.25,0,.3-.15,0-.35.22-.58.22-.89s-.18-.06-.18-.36.18-.18.18-.48-.37-.67-.37-1,.19-.06.19-.36-.19-.19-.19-.49.38-.59.56-.79a6.87,6.87,0,0,1-.37-1.75c0-.59.23-.38.33-.92,0,0,0,.14,0-.17s-.18-.18-.18-.48.18-.18.18-.49c0-.13-.22-.4-.55-.52.19-.42.55-.87.55-1.17s-.36-1-.36-1.33.18-.06.18-.36-.18-.3-.18-.61c0-.62.36-.06.36-.48s-.18-.06-.18-.36.18-.43.18-.73-.36-1.51-.36-1.81.18-.79.18-1.09a3.69,3.69,0,0,0-.18-1c0-.13.23-.19.38-.18v-2c-.23.13-.25.25-.37.24,0-.17.17-.17.17-.47s-.18-.3-.18-.61.36-.78.36-1.08-.18-.31-.18-.61.18-.18.18-.48a.8.8,0,0,0-.36-.66c.1-.17.36,0,.36-.31s-.18.06-.18-.24.18.06.18-.24-.18.06-.18-.25.18-.06.18-.36-.18-.42-.18-.73,0-.47.19-.57c0-.09-.14-.15-.36-.17,0-.16.17-.16.17-.47s-.18-.3-.18-.6.18-.67.18-1-.18-.66-.18-1a.59.59,0,0,1,.15-.44l.06-1.78c.09-.07.15.11.15-.2a8.64,8.64,0,0,0-.54-1.61v-.43c.13,0,.15.24.37.48v-.9c0-.3-.19-.14-.19-.44s.18-.42.18-.72-.18-.19-.18-.49.18-.06.18-.36-.18-.42-.18-.73.18-1,.18-1.33.06-.73-.18-.89a1.48,1.48,0,0,1,.37-.53c0-.33.13-.39-.1-.39s-.14.24-.27.2a1.94,1.94,0,0,0,.36-.93c0-.07-.2-.65-.54-.75v-.44c.22,0,.39-.25.55-.35,0-.09-.14-.15-.37-.19a1.57,1.57,0,0,0,.36-.81c0-.3-.36-.79-.36-1.09s.18-.18.18-.48-.05-.24-.18-.28c.1-.19.36,0,.36-.33s-.18.06-.18-.24.18-.3.18-.6c0-.53,0-.65-.54-.75v-.45c.18,0,.54-.19.54-.38s-.18.06-.18-.24.18.06.18-.24-.23-.45-.33-.66,0-.37,0-.67.36-1.51.36-1.82c0-1-.36-.72-.36-1.2s.36-.17.36-1.21c0-.31-.18-.67-.18-1a3.22,3.22,0,0,1,.37-1.17c0-.1-.14-.16-.36-.18v-.41c0-.3.18-.25.21-.47.08-.06.26,0,.34-.15v-.34c0-.31-.17-.2-.35-.37,0-.23,0-.59-.06-.82s-.15.1-.15-.21a3.12,3.12,0,0,1,.37-1.16c0-.11-.14-.17-.37-.2a1.76,1.76,0,0,0,.18-.81,2.62,2.62,0,0,0-.18-.9c0-.13.23-.19.38-.17v-.67c-.09-.1-.24-.08-.37-.1V9.69c0-.3.17-.13.17-.44s0-.36-.17-.39c.24-.85.36-.33.36-1.18a6.37,6.37,0,0,0-.37-1.33c0-.3.37-.54.37-.85s-.19-.06-.19-.36.19.06.19-.24a5.25,5.25,0,0,0-.34-1.4c0-.09,0,0,0-.3a1.59,1.59,0,0,1,.37-.9V2.06c-.08-.08-.23-.06-.37-.1A1.14,1.14,0,0,0,237.19.9c.12,0,.12.17.35.17.55,0,.62-.74,1-.74.23,0,.16,0,.23.06s.18.87.6.87c.23,0,.23-.19.36-.17,0,.55.38.67.38.91s-.19.39-.19.72.19.42.19.73-.1.09-.17.2c0,.47-.2,1.19-.2,1.49s-.09.56,0,.75.36.4.36.7-.1.1-.17.21,0,.58,0,.88a4.55,4.55,0,0,0,.18,1.42c-.13,0-.16-.11-.24-.21s-.15.24-.31.33c0,.09.19.09.19.4s-.11.22-.19.31c.09.2.05.41.28.41s.14-.24.27-.22v.68a.74.74,0,0,0-.36.63c0,.3.18-.06.18.24s-.18-.06-.18.25.18.18.18.48-.18.3-.18.6a4.14,4.14,0,0,0,.2,1.13,4.86,4.86,0,0,0,.35.53c-.14,0-.23-.2-.38-.22,0,.56-.17,1.41-.17,1.71a1.38,1.38,0,0,0,.13.81h.05c0,.34-.1.14-.18.24s.14.16.36.18c0,.16-.18,0-.18.34s.05.12.18.14-.22.22-.37.21c0,.56,0,1.29,0,1.9-.08.05-.15-.13-.15.17s.37,1.15.37,1.45-.37.43-.37.73.19-.06.19.24a.9.9,0,0,1-.38.7c0,.09.15.15.36.17v.45c-.12,0-.19.25-.35.33a.83.83,0,0,0,.54.43v.45c-.12,0-.22-.23-.29-.24s-.07-.05-.07.25.37.55.37.85-.18.18-.18.48.18.18.18.49-.18.06-.18.36.05.24.18.28c-.1.18-.25.34-.35.54a2.47,2.47,0,0,0,0,.87,4.24,4.24,0,0,0,0,.89c0,.14.14.22.3.39,0,0,0-.13,0,.17s-.23.43-.36.59,0,.2,0,.5c0,1,.37.71.37,1.21s-.33.46-.55.93V34c.08.1,0,.08.18.08s.24-.24.37-.22v.87c0,.31-.18.32-.18.62a1.12,1.12,0,0,0,.18.63c-.13,0-.23-.2-.3-.21s-.07-.05-.07.25.19.18.19.48-.19.18-.19.49.19.54.19.84-.19.43-.19.73.19-.06.19.24-.19.06-.19.36.19.06.19.37a.85.85,0,0,1-.37.68c.09.2.05.41.28.41s.14-.25.26-.23c0,.41-.17.41-.17.71s.05.24.18.28c-.19.31-.37.51-.37.81s.19.42.19.66-.19.16-.38.45h.55v.93c-.12,0-.2.25-.36.33a3.47,3.47,0,0,1,.37,1.26.93.93,0,0,1-.37.7c0,.08.14.14.37.17a8.14,8.14,0,0,0-.37,1.79c0,.41,0,.39.37.38v.63c0,.31-.37.74-.37,1s.19.18.19.48-.19.54-.19.85.19.42.19.72-.19-.06-.19.24.19.19.19.49-.19.42-.19.72.19.19.19.49-.19-.06-.19.24.19.18.19.48a.89.89,0,0,1-.38.7c0,.09.15.15.37.17,0,.16-.18,0-.18.34s.19-.06.19.25-.19-.06-.19.24.07.13.15.19c.05.23-.16,1,.22,1.17,0,.15-.21.21-.29.24a1.55,1.55,0,0,0-.26.7c0,.18.24.41.54.5v.68c-.2.14-.36.21-.36.51s.19.06.19.36-.19.43-.19.73a3.07,3.07,0,0,0,0,.52c.07.11.24.09.31.15a4.16,4.16,0,0,0,.22.87c-.13,0-.16-.11-.24-.22s-.15.24-.31.33a1.89,1.89,0,0,1,.19.77c0,.3-.19.42-.19.72s.19-.06.19.25-.1.09-.17.2a6.13,6.13,0,0,0,0,.64,1.36,1.36,0,0,0,.14.81h0c0,.34-.19.1-.19.4s.19.18.19.49-.19.18-.19.48.19.06.19.36-.19.18-.19.49a.79.79,0,0,0,.37.65,2.3,2.3,0,0,0-.37,1c0,.3.19.18.19.48s-.19.07-.19.37.05.24.18.26-.22.22-.37.2v2.08c0,.3.19-.06.19.24s-.18.06-.18.36.18.18.18.49-.18.18-.18.48.05.19.18.22a1.19,1.19,0,0,1-.54.42c-.05.23-.21.64-.39.73,0,.07.15.11.37.13v.31c0,.23-.18.19-.22.38-.18,0-.18.22-.42.22s-.13-.19-.37-.19-.37.16-.49.37c-.32-.19-.59-.38-.88-.58,0-.11.17-.2.19-.36h-.56V77.3c0-.23.1-.08.18-.15s-.14-.13-.36-.14c0-.12.09-.15.14-.23,0-.25.05-.55.09-.85.06-.6.13-1.17.13-1.35a3.14,3.14,0,0,0-.07-.85C236.23,73.85,236.05,74.08,235.93,74.16Z"/></g></svg>