<?xml version="1.0" encoding="utf-8"?>
<!-- Generator: Adobe Illustrator 18.0.0, SVG Export Plug-In . SVG Version: 6.00 Build 0)  -->
<!DOCTYPE svg PUBLIC "-//W3C//DTD SVG 1.1//EN" "http://www.w3.org/Graphics/SVG/1.1/DTD/svg11.dtd">
<svg version="1.1" id="Layer_1" xmlns="http://www.w3.org/2000/svg" xmlns:xlink="http://www.w3.org/1999/xlink" x="0px" y="0px"
	 viewBox="0 0 21.6 21.4" enable-background="new 0 0 21.6 21.4" xml:space="preserve">
<path fill="#32B5A4" d="M15.6,1c-0.4-0.2-0.9-0.4-1.4-0.6c-0.3-0.1-0.5,0-0.7,0.2L5.5,11c-0.2,0.3,0,0.8,0.4,0.8h7
	c0.1,0,0.2,0.1,0.1,0.2l-2,2.6l-3.5,4.6c-0.1,0.1-0.2,0.1-0.3,0.1c-3.3-1.4-5.6-4.7-5.6-8.5c0-4.8,3.6-8.7,8.3-9.2
	c0.4,0,0.7-0.4,0.7-0.8c0-0.4-0.4-0.8-0.8-0.7C4.2,0.6,0,5.2,0,10.7c0,4.4,2.6,8.1,6.3,9.8c0.5,0.2,0.9,0.4,1.4,0.5
	c0.3,0.1,0.5,0,0.7-0.2l0.8-1l1.9-2.4l5.4-6.9c0.2-0.2,0-0.5-0.2-0.5H8.9c-0.1,0-0.2-0.1-0.1-0.2l5.7-7.4c0.1-0.1,0.2-0.1,0.3-0.1
	c3.1,1.5,5.3,4.7,5.3,8.4c0,4.8-3.6,8.7-8.3,9.2c-0.4,0-0.7,0.4-0.7,0.8c0,0.4,0.4,0.8,0.8,0.7c5.4-0.6,9.6-5.2,9.6-10.7
	C21.6,6.5,19.1,2.8,15.6,1z"/>
<g>
</g>
<g>
</g>
<g>
</g>
<g>
</g>
<g>
</g>
<g>
</g>
<g>
</g>
<g>
</g>
<g>
</g>
<g>
</g>
<g>
</g>
<g>
</g>
<g>
</g>
<g>
</g>
<g>
</g>
</svg>
