<?xml version="1.0" encoding="utf-8"?>
<!-- Generator: Adobe Illustrator 18.0.0, SVG Export Plug-In . SVG Version: 6.00 Build 0)  -->
<!DOCTYPE svg PUBLIC "-//W3C//DTD SVG 1.1//EN" "http://www.w3.org/Graphics/SVG/1.1/DTD/svg11.dtd">
<svg version="1.1" id="Layer_1" xmlns="http://www.w3.org/2000/svg" xmlns:xlink="http://www.w3.org/1999/xlink" x="0px" y="0px"
	 viewBox="0 0 130 112.6" enable-background="new 0 0 130 112.6" xml:space="preserve">
<g>
	<path fill="#FFFFFF" d="M129.9,80.3l-12.6-12.6v-63c0-1.9-1.6-3.5-3.5-3.5H4.7c-1.9,0-3.5,1.6-3.5,3.5v102.9c0,1.9,1.6,3.5,3.5,3.5
		h109c1.9,0,3.5-1.6,3.5-3.5V80.3H129.9z"/>
	<g>
		<g>
			<path fill-rule="evenodd" clip-rule="evenodd" fill="#38474D" d="M119.8,72.3c-0.7-0.8-1.6-1.7-2.6-2.7c-0.1-0.2-0.1-0.2-0.2-0.3
				c-0.1-0.1,0-0.2-0.5-0.6l-0.3-0.3l-0.1-0.1c0-0.1,0-0.1,0-0.2c0-0.2,0-0.5,0-0.7c0-0.3,0-0.6,0-0.8c0-0.5,0-0.9,0-1.4
				c0-0.9,0.1-1.7,0.1-2.7c0-1.9-0.1-0.4-0.1-2.3c0-1.9,0.1-1.1,0.1-3c0-1.9-0.2-4.2-0.2-6.1c0-1.9,0.1-0.4,0.1-2.3
				c0-1.9-0.1-1.1-0.1-3c0-1.9,0.3-3.7,0.4-5c-0.1-2.8-0.2-9-0.2-10.9c0-3.7,0.2-2.4,0.2-5.8c0,0,0,0.8,0-1s-0.1-1.1-0.1-3
				s0.1-1.1,0.1-3c0-0.9-0.2-2.6-0.4-3.3c0.1-2.6,0.4-5.4,0.4-7.3c0-0.5,0-1.2,0-1.8c0-0.5-0.3-1.1-0.7-1.5
				c-0.4-0.4-0.9-0.7-1.4-0.7c-0.4-0.1-1.2,0-1.6,0c-1.9,0-0.4-0.1-2.3-0.1c-1.9,0-1.9,0.1-3.8,0.1c-3.9,0-0.4-0.2-3-0.2
				c-1.9,0-0.4,0.1-2.3,0.1c-1.9,0-2.7-0.1-4.5-0.1c-1.9,0-9.5,0.2-11.4,0.2c-1.9,0-5-0.1-6.8-0.1c-1.9,0-4.8,0.1-6.4,0.1
				c-0.8,0-1.2-0.2-1.1-0.3H58.7c0.8,0.2,1.6,0.2,1.5,0.2c-1,0-1-0.1-2.9-0.1s-1.9,0.1-3.8,0.1c-1.9,0-4.9-0.2-6.8-0.2
				s-1.9,0.1-3.8,0.1c-1.9,0-1.1-0.1-3-0.1c-1.9,0-3.1,0.1-4.1,0.2c-1.1-0.1-0.1-0.2-2-0.2c-1.9,0,0.4,0.1-1.5,0.1
				c-1.9,0,0.4-0.1-1.5-0.1c-1.9,0,0.4,0.1-1.5,0.1c-1.9,0-0.4-0.1-2.3-0.1c-1.9,0-2.7,0.1-4.5,0.1c-1.9,0-3,0-3.6-0.1
				c-0.6,0-0.9,0.1-1,0.2c-1,0-1-0.1-2.9-0.1c-1.9,0-1.9,0.1-3.8,0.1S6.9,2.2,5,2.2c-0.3,0-0.4,0-0.6,0c-0.2,0-0.3,0.1-0.5,0.1
				C3.6,2.5,3.3,2.7,3,3C2.7,3.2,2.6,3.6,2.5,3.9C2.4,4.1,2.4,4.2,2.3,4.4c0,0.2,0,0.3,0,0.6c0,1.9-0.1,2.1-0.1,2.8
				c0,3.7,0,7.5,0,11.2c-0.1,0.4-0.1-0.7-0.1,1.2s0.2,7,0.4,10.1v2.6c-0.1,0.1-0.1-1.5-0.2-3v5.6c0,1.9,0.1,0.9,0.1,2.7
				S2.2,41,2.2,42.9c0,1.9,0.1,1.1,0.1,3c0,1.9-0.1,0.4-0.1,2.3s0.1,2.7,0.1,4.5c0,1.9-0.1,6.5-0.1,8.3c0,1.4,0,4.6,0.1,5.6
				c-0.1,1.1-0.1,2.7-0.2,3.3c0,2.1-0.1,2.5,0.1,2.5c0.2,0,0.1-1.5,0.2-1.3c-0.1,1.9-0.2,3.9-0.2,5.8c0,0.5,0.1,4.1,0.4,4.7v2.8
				c-0.1,0.1-0.3,1.6-0.4,2.2c0,0.6,0.1,0.9,0.2,1.2c-0.1,1.9-0.2,3.2-0.2,5.1c0,1.9,0.2,4.9,0.2,6.8s-0.1,1.1-0.1,3s0,1.5,0.1,1.7
				c-0.1,1.2-0.2,0.1-0.2,2c0,0.9,0,0.9,0.1,0.8c0,0,0-0.1,0,0c0,0.1,0,0.4,0,0.7c0.1,0.7,0.3,1,0.5,1.3c0.2,0.3,0.4,0.6,1.1,0.9
				c0.3,0.1,0.6,0.2,0.8,0.2c0.2,0,0.6,0,0.9,0c0.5,0,1,0,1.3,0c0.7,0,1-0.1,1.3-0.3h2.8c0.1,0.1,1.2,0.4,2.4,0.4
				c1.9,0-0.4-0.1,1.5-0.1c1.9,0-0.4,0.1,1.5,0.1c1.9,0,2.8-0.2,4.1-0.2c1.1-0.1,2.3,0,4.2,0c1.9,0,9.5,0.2,11.4,0.2
				c6.5,0,4.5-0.2,7.6-0.2c3.2,0,1,0.2,7.6,0.2c1.9,0,4.2-0.1,6.1-0.1c1.9,0,5.1,0.1,7.3,0.2c0.6,0,1-0.1,1.1-0.2h2.5
				c1.9,0,1.6,0.1,3,0.1c0.4,0.1,0.3,0.2,1,0.2h2.1c1.9,0,1.2-0.1,2.3-0.2c1.5,0,3.7,0,5.2,0c0.7,0-0.6-0.1,1.3-0.1
				c1.9,0,5.1,0.1,7.3,0.2c0.6,0,1-0.1,1.3-0.2c1.2,0.1,3.2,0.1,5.1,0.1c1.9,0,4-0.1,5.6-0.1c0.8,0,1.2,0.2,1.1,0.2h4.1
				c0.6-0.1,0.5-0.2,0.6-0.2h4c0.9,0,1.2,0,1.4,0.1c0.1,0,0.2,0,0.4,0c0.1,0,0.4,0,0.7-0.1c0.7-0.2,1-0.6,1.2-0.8
				c0.2-0.2,0.2-0.3,0.2-0.4c0.6-0.8,0.5-1.4,0.5-2c0-0.5,0.1-0.8,0.1-1.1c0-0.5,0.1-1,0.1-3.7c0-3.3-0.2-7.3-0.2-8.3
				c0-1.9,0.2-3.4,0.2-5.3s-0.1-0.4-0.1-2.3s0.1,0.4,0.1-1.5c0-1.1,0-2.9-0.1-4.8l0-0.5l0-0.1l0.1,0l0.1,0l0.2,0l1,0
				c0.5,0,1,0,1.5,0c0.8,0,1.5-0.1,2.2-0.1c0.6,0,0,0,1.9,0c0.9,0,2.1,0,3.1,0.1c0.5,0,1,0.1,1.5,0.1c0.1,0,0.2,0,0.3,0
				c0.1,0,0.2,0,0.2,0l0,0h0.2c0-0.1,0-0.2,0.1-0.2c0.2,0.2,0.4,0.4,0.7,0.4c0,0.1-0.1,0.1-0.1,0.2c0,0.4,0.5,0.4,0.5,0.7
				c0,0.2,0,0.1,0,0.2c-0.1,0-0.6,0.1-0.6,0.4c0,0.2,0.1,0.2,0.1,0.2c-0.4,0-0.5,0.3-0.6,0.3c-0.1,0-0.1,0-0.2-0.1l0,0
				c0,0,0,0-0.1,0l-0.6,0c-0.4,0-0.9,0-1.4,0c-1.9,0-2.7,0.1-4.5,0.1c-1.9,0-0.6-0.1-1.3-0.1c-0.4,0-0.8,0-1.2,0c-0.2,0-0.4,0-0.6,0
				c-0.1,0-0.1,0-0.1,0l-0.1,0c-0.1,0-0.2-0.1-0.2,0.1l0,0.1l0,0.1l0,0.3c0,1.7,0,3.3-0.1,4.3c0,1.9-0.1,3.5,0,4.7
				c0.1,1.2,0.2,2.5,0.2,4.4c0,1.9-0.1,0.6-0.1,1.3c0,1.4,0,3.6,0,5.5c0,0.9,0,2.3,0,3.9c0,0.4,0,0.8,0,1.2l0,0.3l0,0.4
				c0,0.3-0.1,0.6-0.2,0.8c-0.3,1.1-1,2.1-2,2.8c-0.3,0.1,0.8-0.6,1.2-1.4c0,0-0.3,0.4-0.8,0.8c-0.5,0.4-1.1,0.7-1.5,0.7
				c-0.3,0.1-0.5,0.2-0.9,0.3c-0.2,0-0.5,0.1-0.8,0.1c-0.3,0-0.6,0-1.1,0c-1.9,0-1.4-0.1-2-0.1c-1.3,0.1-2.6,0-2.6,0.2
				c0,0.2,1.5,0.1,1.4,0.2h-4.3c-0.9-0.1-2.1-0.2-4-0.2c-1.9,0,0.4,0.1-1.5,0.1c-1.9,0,0.4-0.1-1.5-0.1c-1.9,0-1.1,0.1-3,0.1
				s-1.9-0.1-3.8-0.1c-1.9,0-5,0.1-7,0.1c-1.3,0.1-2.2,0.2-3.3,0.2c-0.2-0.1,1.3-0.2,1.4-0.3c-3.5,0-8.8-0.1-10.7-0.1
				c-1.9,0-3.9,0-5.1,0.1v0c-2.1,0-0.9-0.1-1.5-0.1c-0.6,0-1,0.1-1.1,0.2c-1,0-0.3-0.1-2.2-0.1s-0.8,0-0.9,0.1c-1,0-1.4-0.1-1.3-0.2
				c-3.5,0-8.1,0-11.9,0c-0.3-0.1,0.8-0.1-1.1-0.1c-1.9,0-7.2,0.2-9.1,0.2c-1.9,0-2.7-0.2-4.5-0.2c-1.9,0,0.4,0.1-1.5,0.1
				c-1.9,0-3.7-0.1-4.4-0.2c-0.6,0-0.9,0.1-1,0.2h-2.8c-0.1-0.1-1.6-0.1-2.1-0.2c-0.5,0-2,0.1-2.7,0.4h-2.8
				c-0.1-0.1,1.4-0.1,1.4-0.2c-0.7-0.1,0.4,0-1.5,0c-1.9,0-3.4,0.2-5.3,0.2c-1.9,0-1.1-0.1-3-0.1c-0.9,0-1.2,0-1.5,0.1
				c-0.1,0-0.3,0-0.5,0c-0.1,0-0.2,0-0.4,0c-0.2,0-0.5,0-0.8-0.1c-1.3-0.3-1.3-0.5-1.4-0.5c-0.1,0-0.1-0.1-0.3-0.2
				c-0.2-0.1-0.5-0.3-0.9-0.7c-0.8-0.9-0.9-1.5-1-1.6c-0.1-0.2-0.1-0.2-0.2-0.3c-0.1-0.4-0.1-0.8-0.1-1.1c0-0.3,0-0.6,0.1-0.8
				c0-0.6,0.1-1.1,0.1-1.7c0.1-1.2,0-3.6,0-5.5s0-4.1,0-5.6c0-0.9-0.1-1.3-0.2-2.5c0,0,0,0.8,0-1.1s0.2-2.6,0.2-3.7
				c0-0.5,0-1.2,0-3.1c0-6.4-0.2-4.5-0.2-7.6c0-2.5,0.2-2.9,0.4-5.8v-2.1c-0.1-0.6,0-0.5-0.1-0.5c-0.2,0-0.2,1.5-0.2,1.4v-5.5
				c0-1.9,0.1-2,0.1-3.9S0.1,57.1,0,56c0.1-0.2,0.2,1.3,0.2,1.3c0.1-0.7,0,0.4,0-1.5s-0.1-1.1-0.1-3s0.1-1.1,0.1-3s-0.1-3.4-0.1-5.3
				s0.1-2.7,0.1-4.5s-0.1,0.4-0.1-1.5s0.1-0.4,0.1-2.3s-0.1-0.4-0.1-2.3s0.1-3.7,0.2-4.3c-0.1-1.2,0-2.5-0.2-2.5
				c-0.2,0-0.1,1.5-0.2,1.4c0-2.5,0.1-2.5,0.1-4.4c0-1.9,0-1.5-0.1-1.7c0.1-1.9,0.2-3.2,0.2-5.1s-0.1-2.7-0.1-4.2
				c0-0.8,0.1-1,0.2-2.8H0c0,0,0-1.4,0-2.9c0-0.7,0-1.4,0-2c0-0.3,0-0.5,0-0.7c0-0.2,0-0.3,0-0.3c0.1-0.1,0.1-0.6,0.4-1.1
				C0.7,2.5,1.1,2,1.3,1.8c0.4-0.5,1-1,1.8-1.4C3.6,0.3,4,0.2,4.5,0.1c0.5,0,0.8,0,1.2,0C7.1,0,8.6,0,9.6,0c1.9,0,3.7,0.1,4.4,0.2
				c0.6,0,0.9-0.1,1.1-0.2c3.4,0.1,9.3,0.2,11.2,0.2c2.6,0,2.5,0,2.4-0.2h4c1.9,0,4.6,0.2,6.5,0.2c1.9,0,1.1-0.1,3-0.1
				c1.9,0,3.4,0.1,5.3,0.1c1.9,0,2.7-0.1,4.5-0.1c1.9,0-0.4,0.1,1.5,0.1c1.9,0,1.1-0.1,3-0.1c1.9,0,2.7,0.1,4.5,0.1
				c1.9,0,1.1-0.1,3-0.1c1.9,0-0.4,0.1,1.5,0.1s1.1-0.1,3-0.1c1.9,0,3.7,0.1,4.4,0.2c0.6,0,0.9-0.1,1-0.2c1,0,0.3,0.1,2.2,0.1
				c1.9,0-0.4-0.1,1.5-0.1c1.9,0-0.4,0.1,1.5,0.1c1.9,0,0.8,0,1.2-0.1c1.5,0,5.9,0.1,7.3-0.1c1,0,1.3,0.1,1.5,0.2
				c1.1,0.1,2.5,0.2,4.3,0.2c1.1,0,2.6-0.2,3.2-0.4h4.2c0.9,0.1,1.3,0.2,3.2,0.2c1.9,0,0.4-0.1,2.3-0.1c1.9,0,2.7,0.1,4.5,0.1
				c0.9,0,1.6,0,2.1,0c0.2,0,0.5,0,0.7,0c0.2,0,0.5,0,0.7,0.1c0.9,0.1,0.8,0,1.3,0.2c0.5,0.2,1.3,0.7,2,1.7c0.3,0.5,0.6,1.2,0.7,2
				c0,0.2,0,0.4,0,0.6c0,0.2,0,0.3,0,0.5c0,0.3,0,0.6,0,1c-0.1,0.2-0.1-0.7-0.2-1.4c0,0-0.1,1.5-0.2,2c0.1,1.2,0.1,2.9,0.1,4.8
				s-0.1,2.7-0.1,4.5c0,1.9,0.1-0.4,0.1,1.5s-0.1,0.6-0.1,1.3c0,1.4,0,2.1,0,4c0,1.9,0,3.9,0.1,5.1h0c0,2.1-0.1,0.6-0.1,2.5
				s0.1,1.1,0.1,3s-0.1,1.1-0.1,3s0.1,0.4,0.1,2.3s-0.1,1.1-0.1,3s0.1,3.1,0.2,4.1c-0.1,1.8-0.2,4.6-0.2,6.5s0.1,1.1,0.1,3
				s-0.1,0.4-0.1,2.3s0,1.5,0.1,1.6c0,1-0.1,1.4-0.2,1.3c0,0,0,3.2,0,6.4c0,0.1,0,0.2,0.1,0.2l0.3,0.3c0.3,0.3,0.6,0.6,0.8,0.8
				c0.5,0.5,1,1,1.5,1.5c0.9,0.9,1.4,1.4,1.4,1.4c1.3,1.3-0.2-0.4,1.2,1c1.3,1.3,0.2,0.4,1.5,1.7c1.3,1.3,0.9,0.7,2.2,2.1
				c1.3,1.3,0.7,0.9,2.1,2.2c0.1,0.1,0.1,0.1,0.1,0.1c0,0,0,0,0,0c0,0,0,0,0,0c0,0,0,0,0.1-0.1c0,0.1,0,0.3-0.1,0.4
				c0.1,0.1,0.2,0.4,0.2,0.5c0,0,0.1,0,0.2-0.1l0.1,0.1c0.1,0.1,0,0.2,0.1,0.3c-0.1,0.1,0,0.2-0.1,0.3c-0.1,0.1-0.2,0-0.3,0.1
				c-0.1,0.1-0.1,0.3-0.1,0.4c-0.2,0.1-0.5,0.1-0.7,0.1c-0.1-0.1,0-0.2-0.1-0.3l-0.3,0.3l-0.1-0.1c-0.1-0.1,0-0.1,0-0.2
				c0,0-0.1,0-0.2,0.1c-0.1-0.1,0-0.1,0-0.2c-0.1-0.1-0.1-0.2-0.2-0.3l-0.1-0.1c-0.5-0.5-1-1-1.4-1.5c-2.1-2.1-3.9-3.9-4.5-4.6
				c-1.3-1.3-2.8-2.8-3.8-3.7C118.5,70.8,119.5,71.9,119.8,72.3z"/>
		</g>
	</g>
</g>
<g>
</g>
<g>
</g>
<g>
</g>
<g>
</g>
<g>
</g>
<g>
</g>
<g>
</g>
<g>
</g>
<g>
</g>
<g>
</g>
<g>
</g>
<g>
</g>
<g>
</g>
<g>
</g>
<g>
</g>
</svg>
