<?xml version="1.0" encoding="utf-8"?>
<!-- Generator: Adobe Illustrator 18.0.0, SVG Export Plug-In . SVG Version: 6.00 Build 0)  -->
<!DOCTYPE svg PUBLIC "-//W3C//DTD SVG 1.1//EN" "http://www.w3.org/Graphics/SVG/1.1/DTD/svg11.dtd">
<svg version="1.1" id="Layer_1" xmlns="http://www.w3.org/2000/svg" xmlns:xlink="http://www.w3.org/1999/xlink" x="0px" y="0px"
	 viewBox="0 0 12.7 7.2" enable-background="new 0 0 12.7 7.2" xml:space="preserve">
<g>
	
		<line fill="#8E4846" stroke="#8E4846" stroke-width="0.7241" stroke-linecap="round" stroke-miterlimit="10" x1="0.4" y1="3.6" x2="4.2" y2="0.4"/>
	
		<line fill="#8E4846" stroke="#8E4846" stroke-width="0.7241" stroke-linecap="round" stroke-miterlimit="10" x1="4.2" y1="6.9" x2="0.4" y2="3.6"/>
	<path fill="#8E4846" d="M11.7,4.6c0.6,0,1-0.4,1-1c0-0.6-0.4-1-1-1s-1,0.4-1,1C10.7,4.2,11.2,4.6,11.7,4.6z"/>
	<path fill="#8E4846" d="M7.7,4.6c0.6,0,1-0.4,1-1c0-0.6-0.4-1-1-1c-0.6,0-1,0.4-1,1C6.7,4.2,7.1,4.6,7.7,4.6z"/>
</g>
<g>
</g>
<g>
</g>
<g>
</g>
<g>
</g>
<g>
</g>
<g>
</g>
<g>
</g>
<g>
</g>
<g>
</g>
<g>
</g>
<g>
</g>
<g>
</g>
<g>
</g>
<g>
</g>
<g>
</g>
</svg>
