<?xml version="1.0" encoding="utf-8"?>
<!-- Generator: Adobe Illustrator 18.0.0, SVG Export Plug-In . SVG Version: 6.00 Build 0)  -->
<!DOCTYPE svg PUBLIC "-//W3C//DTD SVG 1.1//EN" "http://www.w3.org/Graphics/SVG/1.1/DTD/svg11.dtd">
<svg version="1.1" id="Layer_1" xmlns="http://www.w3.org/2000/svg" xmlns:xlink="http://www.w3.org/1999/xlink" x="0px" y="0px"
	 viewBox="0 0 16.2 16" enable-background="new 0 0 16.2 16" xml:space="preserve">
<g>
	<g>
		<circle fill="#3A494F" cx="8.1" cy="8" r="7.2"/>
		<g>
			<g>
				<path fill-rule="evenodd" clip-rule="evenodd" fill="#3A494F" d="M15.9,10.5c-0.1,0.1-0.1,0.2-0.2,0.3c-0.1,0-0.1,0-0.2,0
					c-0.1,0.2-0.2,0.3-0.3,0.5c-0.1,0.2,0.1,0.1,0,0.2c-0.1,0.2-0.1,0.1-0.2,0.2c-0.1,0.2-0.1,0.5-0.2,0.6c-0.1,0.2-0.1,0-0.2,0.1
					c-0.1,0.2,0,0.1-0.1,0.3c-0.1,0.2-0.4,0.2-0.5,0.2c-0.1,0.3-0.5,0.8-0.7,0.9c-0.3,0.3-0.3,0.1-0.6,0.2c0,0,0.1-0.1-0.1,0.1
					c-0.2,0.1,0,0.1-0.2,0.2c-0.2,0.1-0.1,0-0.3,0.1c-0.1,0-0.2,0.2-0.2,0.4c-0.3,0-0.6,0-0.8,0.1c-0.2,0.1-0.6,0.4-0.8,0.4
					c-0.2,0-0.1-0.1-0.3,0c-0.2,0-0.2,0.1-0.4,0.2c-0.4,0.1-0.1-0.2-0.3-0.1c-0.2,0,0,0.1-0.2,0.1c-0.2,0-0.3,0-0.5,0
					c-0.2,0-1,0.2-1.2,0.2c-0.2,0-0.5-0.1-0.7-0.2c-0.2,0-0.5,0-0.7,0c-0.1,0-0.1-0.1-0.1-0.2c0,0-0.3-0.1-0.6-0.2
					C5.3,15.3,5,15.2,5,15.2c0,0.1,0.1,0.2,0.1,0.2c-0.1,0-0.1-0.1-0.2-0.2c-0.2-0.1-0.2,0-0.4-0.1c-0.2-0.1-0.4-0.4-0.5-0.5
					c-0.2-0.1-0.2,0-0.4-0.1c-0.2-0.1,0-0.1-0.2-0.3c-0.2-0.1-0.3-0.1-0.4-0.1C2.8,14,3,14,2.8,13.8c-0.1-0.1,0,0.1-0.2,0
					c-0.1-0.1,0.1,0-0.1-0.2c-0.1-0.1,0,0.1-0.2,0c-0.1-0.1,0-0.1-0.1-0.2c-0.1-0.1-0.2-0.1-0.4-0.3c-0.1-0.2-0.2-0.3-0.2-0.3
					c0,0-0.1,0-0.2,0c-0.1-0.1,0-0.1-0.1-0.3c-0.1-0.2-0.2-0.1-0.3-0.3C1.1,12,1.1,11.7,1,11.5c-0.1-0.2-0.3-0.3-0.3-0.5
					c-0.1-0.2,0-0.2,0-0.3C0.5,10.4,0.4,10,0.3,9.6c0,0,0.1,0.1,0-0.1c0-0.2-0.3-0.7-0.4-1l0-0.3c0.1,0,0.1,0.2,0.2,0.3
					c0,0,0-0.6,0-0.6c0-0.2-0.1-0.1-0.1-0.3c0-0.2,0.1-0.3,0.1-0.5c0-0.2-0.1-0.1,0-0.3c0-0.2,0.1,0,0.1-0.2c0-0.2,0-0.3,0-0.5
					c0-0.2,0.2-0.6,0.3-0.8c0.1-0.1,0.2-0.4,0.1-0.6C0.9,4.7,1,4.5,1.1,4.5c0.1-0.2,0.2-0.2,0.1-0.2C1,4.2,1,4.4,1,4.3
					c0.2-0.1,0.3-0.3,0.4-0.4c0,0,0.1-0.4,0.1-0.5l0.2-0.2c0.1,0.1,0.2,0,0.3,0C2,3,2,3,1.9,2.9c0.2-0.1,0.3-0.1,0.5-0.3
					C2.5,2.5,2.6,2.1,2.8,2c0.1-0.1,0.1,0,0.3-0.1c0.2-0.1,0.1-0.1,0.1-0.2c0.1,0,0.1,0.1,0.3,0c0.2-0.1-0.1,0,0.1-0.2
					c0.2-0.1,0.2,0,0.4-0.1c0.3-0.2,0.4-0.2,0.3-0.5c0,0,0.3-0.1,0.3-0.1c0,0.1,0.2,0.2,0.3,0.1c0.2-0.1-0.1-0.1,0.1-0.1
					c0.2-0.1,0,0.1,0.2,0c0.2-0.1,0.2-0.2,0.3-0.3c0.1-0.1,0.2-0.1,0.4-0.2C6,0.3,6.8,0.2,7,0.2C7.6,0.1,7.4,0,7.7,0
					c0.3,0,0.1,0.1,0.8,0.2c0.2,0,0.4-0.1,0.6,0c0.2,0,0.5,0.2,0.7,0.3c0.1,0,0.1,0,0.2-0.1l0.3,0.1c0.2,0,0.1,0.1,0.3,0.2
					c0,0.1,0,0.1,0,0.2l0.2,0.1c0.2,0.1,0.1,0,0.3-0.1c0.1,0,0.4,0.1,0.5,0.2c0.1,0,0-0.1,0.1,0c0.2,0.1,0.4,0.3,0.6,0.5
					c0.1,0,0.1,0,0.2-0.1c0.1,0.1,0.2,0.3,0.4,0.4C13,1.8,13.2,1.9,13.3,2c0.1,0.1,0,0.2,0,0.2l0.3,0.3c0.1,0,0.1,0,0.2-0.1L14,2.7
					c0.1,0.1,0,0.1,0.1,0.3c0.1,0.2,0.2,0.2,0.2,0.1c0.2,0.5,0,0.3,0.3,0.7c0.2,0.3,0.5,0.6,0.6,0.7c0.1,0.2,0,0.4,0.1,0.6
					c0.1,0.2,0.1,0,0.2,0.2c0.1,0.2-0.1,0,0,0.2c0.1,0.2,0.3,0.6,0.4,0.8c0,0.1,0,0,0.1,0.2c0,0.2,0,0.5-0.1,0.6l0,0.1
					c0,0,0.1,0,0.2,0c-0.2,0.2-0.3,0.3-0.2,0.5c-0.1,0-0.1-0.1-0.2-0.1c-0.2,0-0.3,0.4-0.4,0.3C15,8,15.1,8,15,8
					c0-0.1-0.1-0.4-0.3-0.4c-0.1,0-0.1,0.1-0.2,0.1c0-0.2-0.2-0.3-0.2-0.4c0-0.1,0.1-0.2,0-0.3c0-0.2-0.1-0.2-0.1-0.4
					c0-0.2,0-0.1,0-0.1c0-0.2-0.1-0.6-0.1-0.8c-0.1-0.1-0.1-0.3-0.2-0.4c-0.1-0.1-0.2-0.1-0.3-0.3c-0.1-0.1,0-0.1,0-0.1
					c0-0.1-0.1-0.3-0.2-0.4C13.4,4.5,13.2,4.2,13,4c0,0,0.1,0,0.2,0c0,0,0-0.1,0-0.2c0,0-0.1,0-0.2-0.1c-0.1-0.1,0-0.1,0-0.2
					c-0.1-0.1-0.2-0.1-0.2-0.1c-0.1,0.1,0,0.1,0,0.2c0,0-0.2-0.3-0.2-0.2c0-0.1,0-0.2-0.1-0.3c-0.1-0.1,0,0.1-0.1,0
					c-0.1-0.1,0.1,0,0-0.1c-0.1-0.1-0.1,0-0.3-0.1c-0.1-0.1-0.1-0.2-0.2-0.3c-0.1-0.1-0.4-0.2-0.6-0.2c-0.1,0-0.2,0-0.3,0
					c0-0.1,0.1,0,0.2-0.1c-0.3-0.1-0.6-0.4-0.8-0.4C10,1.8,9.8,1.7,9.7,1.8l0,0c-0.2,0-0.1-0.1-0.1-0.1c-0.1,0-0.1,0-0.1,0.1
					c-0.1,0,0-0.1-0.2-0.1c-0.2,0-0.1,0-0.1,0.1c-0.1,0-0.1-0.1-0.1-0.2c-0.3-0.1-0.7-0.1-1-0.1c0,0,0.1-0.1-0.1-0.1
					c-0.2,0-0.6,0.2-0.8,0.2c-0.2,0-0.2-0.1-0.4-0.1c-0.2,0,0,0.1-0.1,0.1c-0.2,0-0.3,0-0.4-0.1c0,0-0.1,0.1,0,0.2
					c0,0-0.2,0.1-0.2,0.1c0-0.1-0.2,0-0.2-0.1c0,0-0.1,0.1-0.1,0.3c0,0-0.2,0.1-0.2,0.1c0-0.1,0.1-0.1,0.1-0.2c-0.1,0,0,0-0.1,0
					C5.3,2,5.3,2.2,5.1,2.3C5,2.4,5,2.3,4.9,2.4c-0.1,0.1,0,0.1-0.2,0.2c-0.1,0.1-0.1-0.1-0.2,0C4.4,2.7,4.4,2.7,4.4,2.7
					c-0.1,0-0.2,0-0.3,0C4,2.8,3.8,3,3.7,3.1C3.6,3.2,3.5,3.3,3.4,3.4c0,0.1,0,0.1,0,0.3c0,0,0.1,0,0,0.1C3.2,3.9,3.1,3.8,3,3.9
					c0,0-0.1,0.1-0.2,0.2C2.5,4.5,2.7,4.5,2.6,4.7C2.5,4.9,2.3,4.8,2.1,5L2.1,5.2c0,0.1,0,0,0.1,0.1c0.1,0,0.2-0.1,0.2,0
					c0,0-0.2,0.4-0.2,0.4C2.1,5.8,2,5.8,1.9,5.9c-0.1,0.1,0,0.2,0,0.3c-0.1,0-0.1-0.1-0.1-0.1c0,0,0,0-0.1,0.1c0,0.2,0.1,0.1,0,0.3
					c0,0.2-0.1,0.1-0.1,0.2c0,0.2,0,0.3,0,0.5c0,0.2-0.1,0.2-0.1,0.4c0,0.2,0.1,0,0.1,0.1c0,0.2-0.1,0-0.1,0.2c0,0.2,0.1,0,0.1,0.2
					c0,0.2-0.1,0.3-0.2,0.4c0,0.1,0,0.2,0.1,0.2c0.1,0,0.1-0.1,0.1-0.1c0,0.2-0.1,0.2,0,0.4c0,0.2,0,0.1,0.1,0.1
					C1.7,9.2,1.6,9.3,1.7,9.5c0,0.2,0.1,0.2,0.2,0.3c0,0.1-0.1,0.1-0.1,0.3L2,10l0.2,0.5c-0.1,0,0,0.2-0.1,0.2
					c0.2,0.1,0.4,0.4,0.5,0.5c0.1,0.1,0.1,0.3,0,0.4c0,0,0.1,0,0.2,0c0.1,0.3,0.3,0.7,0.5,0.8c0.1,0.2,0.1,0.2,0.3,0
					c0,0,0.2,0.2,0.2,0.2c0.1,0.1,0.2,0.4,0.3,0.5c0.1,0.1,0.1,0,0.3,0.1c0.1,0.1,0.2,0.2,0.3,0.3c0.1,0.1,0.2,0,0.4,0.1
					c0.1,0.1-0.1,0.1,0.1,0.1c0.1,0.1,0.1,0,0.3,0c0.1,0.1,0.2,0.2,0.3,0.2c0.2,0.1,0.1,0,0.3,0c0.2,0.1-0.1,0.1,0.1,0.1
					c0.2,0.1,0.1,0,0.3,0c0.2,0,0.3,0.2,0.3,0.3c0,0,0.1,0,0.1-0.1c0.1,0,0,0.1,0.2,0.1c0.2,0,0-0.1,0.1-0.1c0.2,0,0,0.1,0.1,0.1
					c0.2,0,0.1,0,0.1,0c0.1,0,0.5,0.1,0.6-0.1C8,14.4,8,14.5,8,14.5c0.1,0,0.2,0.1,0.4,0.1c0.1,0,0.2-0.1,0.3-0.3c0,0,0.4,0,0.4,0
					c0.1,0.1,0.1,0.1,0.3,0.1c0.2,0,0-0.1,0.2-0.1c0.2,0,0.2,0,0.4,0c0.2,0,0.2-0.1,0.3-0.1c0,0,0-0.1,0-0.2c0.1,0,0.2-0.1,0.4-0.2
					c0,0.1,0,0.1-0.1,0.1c0,0,0.1,0,0.2,0.1c0.1-0.1,0.2-0.2,0.3-0.3c0.1-0.1,0.2,0,0.4-0.1c0.1-0.1-0.1-0.1,0.1-0.1
					c0.1-0.1,0.1,0,0.1,0c0.1-0.1,0.2-0.1,0.3-0.2c0.1-0.1,0.3-0.2,0.3-0.3l0,0c0.1-0.1,0.1,0,0.2-0.1c0.1-0.1,0-0.1,0.1-0.2
					c0.1-0.1,0.1,0,0.2-0.1c0.1-0.1,0-0.1,0.1-0.2c0.1-0.1,0.1,0,0.2-0.1c0.1-0.1,0.1-0.3,0.1-0.4c0.2-0.1,0.4-0.2,0.5-0.4
					c0.1-0.1,0-0.1,0.1-0.3c0.1-0.1,0.1,0,0.2-0.1c0.1-0.1,0-0.1,0-0.2c0-0.1,0.1-0.1,0.2,0c0,0,0.4-1,0.4-1c0-0.2-0.1,0-0.1-0.2
					c0-0.2,0.1,0,0.1-0.2c0-0.2-0.1-0.1,0-0.3c0-0.2,0.1-0.1,0.1-0.2c0-0.1,0-0.1-0.1-0.1c0.1-0.1,0.2-0.1,0.3-0.1
					c0-0.1,0.1-0.3,0.2-0.3c0,0-0.1-0.1-0.2-0.1l0-0.1c0-0.1,0.1-0.1,0.1-0.2c0.1,0,0.1-0.1,0.2-0.1c0.1,0,0.1,0.1,0.2,0.1
					c0.1,0,0.2-0.1,0.2-0.2c0.1,0.1,0.3,0.2,0.4,0.3c0,0.1-0.1,0.1-0.1,0.2l0.3,0l0,0.1c0,0.1,0,0-0.1,0.1c0,0,0.1,0.1,0.2,0.1
					c0,0.1,0,0.1-0.1,0.1c0,0.2-0.1,0.4-0.2,0.6c-0.1,0.3-0.2,0.6-0.2,0.6c0,0.2-0.1,0.4-0.1,0.5C15.7,10.6,15.9,10.5,15.9,10.5z"/>
			</g>
		</g>
	</g>
	<g>
		<g>
			
				<path fill="none" stroke="#FFFFFF" stroke-width="0.483" stroke-linecap="round" stroke-linejoin="round" stroke-miterlimit="10" d="
				M11.7,6.7c0-2-1.6-3.5-3.5-3.5S4.7,4.8,4.7,6.7c0,1.5,0.9,2.7,2.2,3.3h2.8C10.8,9.4,11.7,8.2,11.7,6.7z"/>
			
				<polygon fill="none" stroke="#FFFFFF" stroke-width="0.483" stroke-linecap="round" stroke-linejoin="round" stroke-miterlimit="10" points="
				9.6,10 6.8,10 6.7,10 6.7,13 9.7,13 9.7,10 			"/>
		</g>
		<g>
			
				<path fill="none" stroke="#FFFFFF" stroke-width="0.483" stroke-linecap="round" stroke-linejoin="round" stroke-miterlimit="10" d="
				M7.7,13v0.4c0,0.3,0.2,0.5,0.5,0.5h0.1c0.3,0,0.5-0.2,0.5-0.5V13H7.7z"/>
		</g>
		
			<path fill="none" stroke="#FFFFFF" stroke-width="0.483" stroke-linecap="round" stroke-linejoin="round" stroke-miterlimit="10" d="
			M7.4,6.6c0,0.8-0.5,1.8-0.5,1.8S6.4,7.4,6.4,6.6s0.2-1.3,0.5-1.3C7.2,5.3,7.4,5.8,7.4,6.6z"/>
		
			<path fill="none" stroke="#FFFFFF" stroke-width="0.483" stroke-linecap="round" stroke-linejoin="round" stroke-miterlimit="10" d="
			M8.7,6.6c0,0.8-0.5,1.8-0.5,1.8S7.6,7.4,7.6,6.6s0.2-1.3,0.5-1.3C8.5,5.3,8.7,5.8,8.7,6.6z"/>
		
			<path fill="none" stroke="#FFFFFF" stroke-width="0.483" stroke-linecap="round" stroke-linejoin="round" stroke-miterlimit="10" d="
			M10,6.6c0,0.8-0.5,1.8-0.5,1.8S8.9,7.4,8.9,6.6s0.2-1.3,0.5-1.3C9.8,5.3,10,5.8,10,6.6z"/>
		
			<path fill="none" stroke="#FFFFFF" stroke-width="0.483" stroke-linecap="round" stroke-linejoin="round" stroke-miterlimit="10" d="
			M6.9,8.4c0,0,0.6,1.5,1.3,0"/>
		
			<path fill="none" stroke="#FFFFFF" stroke-width="0.483" stroke-linecap="round" stroke-linejoin="round" stroke-miterlimit="10" d="
			M8.2,8.4c0,0,0.6,1.5,1.3,0"/>
		
			<line fill="none" stroke="#FFFFFF" stroke-width="0.4471" stroke-linecap="round" stroke-linejoin="round" stroke-miterlimit="10" x1="7" y1="11" x2="9.6" y2="11"/>
		
			<line fill="none" stroke="#FFFFFF" stroke-width="0.4471" stroke-linecap="round" stroke-linejoin="round" stroke-miterlimit="10" x1="7" y1="11.9" x2="9.6" y2="11.9"/>
	</g>
</g>
<g>
</g>
<g>
</g>
<g>
</g>
<g>
</g>
<g>
</g>
<g>
</g>
<g>
</g>
<g>
</g>
<g>
</g>
<g>
</g>
<g>
</g>
<g>
</g>
<g>
</g>
<g>
</g>
<g>
</g>
</svg>
