<?xml version="1.0" encoding="utf-8"?>
<!-- Generator: Adobe Illustrator 18.0.0, SVG Export Plug-In . SVG Version: 6.00 Build 0)  -->
<!DOCTYPE svg PUBLIC "-//W3C//DTD SVG 1.1//EN" "http://www.w3.org/Graphics/SVG/1.1/DTD/svg11.dtd">
<svg version="1.1" id="Layer_1" xmlns="http://www.w3.org/2000/svg" xmlns:xlink="http://www.w3.org/1999/xlink" x="0px" y="0px"
	 viewBox="0 0 81.3 29.1" enable-background="new 0 0 81.3 29.1" xml:space="preserve">
<g>
	<path fill="#3A494F" d="M72.1,27.2H9.4c-4.3,0-7.9-3.5-7.9-7.9V9.5c0-4.3,3.5-7.9,7.9-7.9h62.7c4.3,0,7.9,3.5,7.9,7.9v9.8
		C80,23.7,76.5,27.2,72.1,27.2z"/>
	<g>
		<g>
			<path fill-rule="evenodd" clip-rule="evenodd" fill="#3A494F" d="M65.3,29.1c-0.4-0.1-1-0.1-1.5-0.2c-0.2-0.1-0.1-0.2-0.4-0.3
				c-0.9,0-1.5-0.2-2.3-0.2s-0.2,0.2-0.9,0.2c-0.8,0-0.5-0.2-1.3-0.2s-1.7,0.3-2.5,0.3s-0.2-0.2-0.9-0.2s-0.5,0.2-1.3,0.2
				s-1.5-0.3-2.1-0.5c-1.2,0.2-3.7,0.3-4.5,0.3c-1.5,0-1-0.2-2.4-0.3c0,0,0.4,0-0.4,0s-0.5,0.2-1.3,0.2s-0.5-0.2-1.3-0.2
				c-0.4,0-1.1,0.2-1.3,0.5c-1.1-0.2-2.3-0.5-3-0.5s-2.7,0.3-3.4,0.3s-0.2-0.2-0.9-0.2s-0.8,0.2-1.6,0.2c-1.6,0-0.2-0.3-1.3-0.3
				c-0.8,0-0.2,0.2-0.9,0.2s-1.1-0.2-1.9-0.2s-3.9,0.3-4.7,0.3s-2-0.2-2.8-0.2s-2,0.1-2.6,0.2c-0.3,0-0.5-0.2-0.5-0.3h-5.1
				c0.3,0.2,0.7,0.2,0.6,0.3c-0.4,0-0.4-0.2-1.2-0.2s-0.8,0.2-1.6,0.2c-0.2,0-0.4,0-0.7-0.1c-0.3,0-0.6-0.1-0.9-0.2
				c-0.3-0.1-0.6-0.2-0.8-0.2C7.3,28.1,7.1,28,6.8,28c-0.8-0.3-0.9-0.1-1.7-0.5C4.3,27,4.7,27.1,4,26.5c-0.7-0.5-1.2-0.9-1.7-1.1
				C2,25,2.5,25.2,2,24.5c-0.5-0.8,0,0.3-0.5-0.5c-0.4-0.8,0.2,0.1-0.2-0.7c-0.4-0.8-0.1,0.2-0.4-0.6c-0.3-0.9,0.1-0.2-0.2-1.1
				c-0.2-0.9-0.4-1.2-0.5-2.1c0-0.8,0-1.2,0.2-1.5c0-0.2-0.1-0.4-0.3-0.4c0-0.4,0.2-0.4,0.2-1.2c0-0.8-0.2-0.8-0.2-1.6
				c0-0.8,0.2-1.7,0.2-2.5c0-0.8-0.2-1.7-0.2-2.5c0-0.9,0.1-1,0.2-1.3c0.2-1.8,1-3.5,2.2-4.8c0.2-0.1-0.1,0.3,0.5-0.3
				c0.3-0.3,0.9-0.9,1.6-1.5c0.7-0.6,1.6-1.1,2.4-1.4c0,0,0.3-0.1,0.6-0.2c0.3-0.1,0.7-0.1,0.7-0.1c0.1,0.1-0.7,0.2-1.4,0.6
				c0,0,0.7-0.2,1.3-0.3c0.7-0.1,1.4-0.1,1.3-0.1c0.8,0,0.4-0.2,1.1-0.2s1.1,0.2,1.9,0.2s0.5-0.2,1.3-0.2s0.2,0.2,0.9,0.2
				s1.1-0.2,1.9-0.2s2.7,0.2,3.4,0.2c0.6,0,1.9,0.1,2.3-0.2c0.5,0.1,1.1,0.2,1.4,0.3c0.9,0,1,0.1,1-0.1s-0.6-0.1-0.5-0.2
				c0.8,0.2,1.6,0.3,2.4,0.3c0.2,0,1.7-0.2,1.9-0.5h1.2c0,0.2,0.6,0.3,0.9,0.5c0.2,0,0.4-0.1,0.5-0.3c0.8,0.2,1.3,0.3,2.1,0.3
				s2-0.3,2.8-0.3s0.5,0.2,1.3,0.2s0.6,0,0.7-0.2c0.5,0.1,0.1,0.3,0.8,0.3s-0.2-0.2,0.6-0.2s0.8,0.2,1.6,0.2c1.4,0,1.7,0,1.9-0.5
				h1.2c0,0.2,0.5,0.5,1,0.5c0.8,0-0.2-0.2,0.6-0.2s-0.2,0.2,0.6,0.2s1.2-0.2,1.7-0.3c0.5-0.1,0.9,0,1.7,0s3.9,0.3,4.7,0.3
				c2.7,0,1.9-0.3,3.1-0.3c1.3,0,0.4,0.3,3.1,0.3c0.8,0,1.7-0.2,2.5-0.2s2.1,0.2,3,0.3c0.3,0,0.4-0.1,0.5-0.3h1.1
				c0.8,0,0.7,0.2,1.2,0.2c0.2,0.1,0.1,0.2,0.4,0.3h0.9c0.8,0,0.5-0.1,0.9-0.3c0.3,0,0.7,0,1.1,0c0.4,0,0.9,0,1.2,0.1
				c0.3,0-0.3-0.2,0.6,0c0.9,0.2,2.3,1,3,1.7c0.2,0.2,0.5,0.2,0.7,0.1c0.4,0.4,1,1.1,1.6,1.9c0.5,0.7,1.1,1.6,1.4,2.3
				c0.2,0.4,0,0.6-0.2,0.6c0,0,0,0.1,0.1,0.3c0,0.2,0.1,0.4,0.1,0.6c0,0.2,0.1,0.5,0.1,0.7C81,8.9,81,9,81,9
				c0.1,0.3,0.2,0.2,0.3,0.3c0,0,0,0.1,0,0.3c0,0.2,0,0.4,0,0.6c0,0.4,0,0.8,0,0.8c0,0.8-0.2,0.4-0.2,1.1c0,0.8,0,0.9,0.2,1
				C81.1,15.3,81,14,81,16.2c0,1.4,0.3,3,0.3,3.5c0,0.9-0.5,1.6-0.8,2.4c-0.3,0.8,0.1,0.2-0.2,1.1c-0.4,0.8-0.1-0.2-0.5,0.6
				c-0.2,0.4-0.6,1-1.1,1.6c-0.5,0.6-1.1,1.2-1.5,1.6c-0.2,0.2,0,0-0.7,0.5c-0.4,0.2-0.9,0.4-1.4,0.5C74.9,28,74.7,28,74.4,28
				c-0.1,0-0.3,0-0.3,0l-0.1,0c0,0-0.2,0.1-0.2,0.1c-0.1,0.1,0,0.2,0,0.3c-0.4-0.3-0.6-0.4-1.1-0.4c0-0.1,0.2-0.1,0.1-0.3
				c0-0.5-0.7-0.5-0.7-0.9c0-0.2,0-0.1,0-0.2c0.1-0.1,0.7-0.2,0.7-0.6c0-0.2-0.2-0.2-0.2-0.3c0.4-0.1,0.4-0.4,0.6-0.4
				c0.1,0,0.2,0,0.2,0c0,0,0,0,0.1,0c0.1,0,0.1,0,0.2,0c0.1,0,0.3-0.1,0.4-0.1c0.6-0.2,0.7-0.5,1.2-0.8c0.5-0.4,0.2,0,0.4-0.1
				c0.8-0.5,1.8-1.7,2.1-2.3c0.3-0.6,0.5-1.1,0.5-1.5c0-0.2,0-0.4-0.1-0.7c-0.1-0.3-0.1-0.4-0.1-0.9c0-0.8,0.1-0.3,0.1-0.5
				c0-0.6,0-1.5,0-2.3c0-0.8,0-2.3-0.2-3.7c0.1-0.1,0.1,0.3,0.2,0.6c0.1,0,0.1-0.6,0.3-0.9c0-0.2-0.2-0.2-0.2-1
				c0-0.8,0.1-0.6,0.2-0.8c0-0.3,0-0.5-0.1-0.7c0-0.2-0.1-0.3-0.2-0.3c-0.1,0-0.1,0.1-0.1,0.3c0,0.2,0,0.3-0.1,0.3c0,0,0-0.1,0-0.3
				c0-0.1,0-0.3,0-0.5c0-0.2,0-0.3-0.1-0.5c0-0.1,0-0.2,0-0.2c0.1-0.3,0.2-0.7-0.1-1.3c-0.3-0.6-0.1,0.2-0.4-0.4
				c-0.3-0.5,0.2,0-0.1-0.5c-0.3-0.5-0.3-0.2-0.7-0.7c-0.4-0.5-0.3-0.6-0.8-1c-0.5-0.4-1.5-0.8-2.1-0.9c-0.2,0-0.4,0-0.6,0
				c-0.2,0-0.3,0.1-0.5,0.1c-0.1-0.1,0.4-0.1,0.5-0.3c-0.3,0-0.6-0.1-0.9-0.1l-0.3,0l-0.3,0c-0.2,0-0.4,0-0.6,0
				c-0.8,0-1.6-0.1-2-0.1c-0.8,0-1.6,0-2.1,0.1v0c-0.9,0-0.4-0.1-0.6-0.2c-0.3,0-0.4,0.1-0.5,0.3c-0.4,0-0.1-0.2-0.9-0.2
				s-0.3,0-0.4,0.2c-0.4,0-0.6-0.2-0.5-0.3c-1.5,0-3.3,0-4.9,0c-0.1-0.1,0.3-0.1-0.5-0.1s-3,0.3-3.8,0.3S54,2.9,53.2,2.9
				s0.2,0.2-0.6,0.2S51,2.9,50.8,2.8c-0.2,0-0.4,0.1-0.4,0.3h-1.2c0-0.1-0.7-0.2-0.9-0.3c-0.2,0-0.8,0.2-1.1,0.5h-1.2
				c0-0.1,0.6-0.2,0.6-0.3c-0.3-0.1,0.1-0.1-0.6-0.1s-1.4,0.3-2.2,0.3s-0.5-0.2-1.3-0.2s-0.5,0.2-1.3,0.2s-0.2-0.2-0.9-0.2
				s-0.6,0-0.7,0.2c-0.5-0.1-0.9-0.2-1.4-0.3c-0.5-0.1-1.5,0-2.3,0s-1.7,0-2.3,0c-0.4,0-0.6,0.1-1,0.3c0,0,0.3,0-0.4,0
				s-1.1-0.2-1.5-0.3c-0.2-0.1-0.5,0-1.3,0c-2.7,0-1.8,0.3-3.1,0.3c-1,0-1.2-0.3-2.4-0.5H23c-0.3,0.1-0.2,0-0.2,0.2s0.6,0.2,0.6,0.3
				h-2.3c-0.8,0-0.8-0.2-1.6-0.2s-1.1,0.1-1.6,0.2c-0.1-0.1,0.5-0.2,0.5-0.3c-0.3-0.1,0.1-0.1-0.6-0.1s-0.5,0.2-1.3,0.2
				s-0.5-0.2-1.3-0.2s-1.4,0.2-2.2,0.2S12,2.9,11.2,2.9s0.2,0.2-0.6,0.2s-0.2-0.2-0.9-0.2c-0.7,0-0.2,0.2-0.8,0.2
				c-0.6,0-1.3,0-1.5,0C7,3.3,6.5,3.4,6.6,3.6c0.1,0.2,0.5-0.1,0.5,0C6.4,4,6.3,3.9,5.8,4.2C5.3,4.6,5.4,4.6,5.4,4.7
				C4.8,5,4.4,5.2,4,5.7C3.6,6.3,3.7,6.6,3.4,7.1C3.4,7.3,3.1,7.3,2.8,7.9L3.3,8c0,0,0,0.1-0.1,0.3c0,0.2-0.1,0.4-0.1,0.6
				c0,0.2,0,0.5,0,0.7c0,0.2,0,0.4,0,0.4c-0.1,0-0.2,0.7-0.3,0.9c0.2,0.8,0.3,2.5,0.3,3.2c0,0.8-0.2,1.6-0.3,1.8
				c0,0.2,0.1,0.4,0.3,0.5C3,17.1,2.9,18,2.9,18.9c0,0.5,0,0.8,0,1.1c0,0.3,0.1,0.5,0.1,0.7c0.2,0.9,0.3,0.8,0.5,0.7
				c0,0,0.5,1.2,0.6,1.2c0.3,0.5,0.7,1.4,1.2,1.9c0.5,0.4,0.4,0.1,0.9,0.5c0.6,0.3,1,0.7,1.6,0.8c0.6,0.2,0.9,0,1.6,0
				c0.8,0-0.2,0.2,0.6,0.2c0.8,0,0.5-0.2,1.3-0.2s1.1,0.2,1.9,0.2s0.5-0.2,1.3-0.2s-0.2,0.2,0.6,0.2s0.5-0.2,1.3-0.2
				s1.6,0.2,1.8,0.3c0.2,0,0.4-0.1,0.4-0.3c0.4,0,0.1,0.2,0.9,0.2s-0.2-0.2,0.6-0.2s-0.2,0.2,0.6,0.2s0.3-0.1,0.5-0.1
				c0.6,0,2.5,0.1,3-0.2c0.4,0,0.5,0.2,0.6,0.3c0.5,0.1,1,0.2,1.8,0.2c0.5,0,1.1-0.2,1.3-0.5h1.8c0.4,0.2,0.5,0.3,1.3,0.3
				s0.2-0.2,0.9-0.2s1.1,0.2,1.9,0.2s1.1,0,1.3,0c0.3-0.1,0.2-0.2,0.4-0.3c0.3,0,1.1,0,2.2-0.2c0.1,0.1-0.3,0.1-0.6,0.2
				c0,0.1,0.6,0.1,0.8,0.3c0.5-0.1,1.2-0.2,2-0.2s1.1,0.2,1.9,0.2s-0.2-0.2,0.6-0.2s0.3,0.1,0.5,0.1c0.6,0,0.9,0,1.7,0
				s1.6,0,2.1-0.1v0c0.9,0,0.3,0.2,1,0.2s0.5-0.2,1.3-0.2s0.5,0.2,1.3,0.2s0.2-0.2,0.9-0.2s0.5,0.2,1.3,0.2s1.3-0.1,1.7-0.3
				c0.8,0.2,1.9,0.3,2.7,0.3s0.5-0.2,1.3-0.2s0.2,0.2,0.9,0.2s0.6,0,0.7-0.2c0.4,0,0.6,0.2,0.5,0.3h5.4c0.8,0-0.2-0.2,0.6-0.2
				s0.2,0.2,0.9,0.2s0.5-0.2,1.3-0.2s0.5,0.2,1.3,0.2c0.3,0,0.2,0,0.2-0.2c0.1,0.1,0.3,0.3,0.4,0.5c0.2,0,0.6,0.2,0.6,0.3
				c0.1,0,0.1-0.1,0.1-0.3h0.3c0.2,0,0.2,0.2,0.3,0.2c0,0.2,0.2,0.2,0.2,0.4s-0.2,0.1-0.2,0.3s0.1,0.3,0.3,0.4
				c-0.2,0.3-0.3,0.5-0.5,0.8c-0.1,0-0.2-0.2-0.3-0.2v0.5h-0.2c-0.2,0-0.1-0.1-0.1-0.2c-0.1,0-0.1,0.1-0.1,0.3
				c-0.1,0-0.1-0.1-0.2-0.1c-0.1,0-0.3,0-0.5,0l-0.3,0c-0.3,0-0.6,0-0.9,0c-1.2,0-2.3-0.1-2.7-0.1c-0.8,0-1.7,0-2.2,0.1
				C64.5,28.9,65,29,65.3,29.1z"/>
		</g>
	</g>
</g>
<g>
</g>
<g>
</g>
<g>
</g>
<g>
</g>
<g>
</g>
<g>
</g>
<g>
</g>
<g>
</g>
<g>
</g>
<g>
</g>
<g>
</g>
<g>
</g>
<g>
</g>
<g>
</g>
<g>
</g>
</svg>
