<?xml version="1.0" encoding="utf-8"?>
<!-- Generator: Adobe Illustrator 18.0.0, SVG Export Plug-In . SVG Version: 6.00 Build 0)  -->
<!DOCTYPE svg PUBLIC "-//W3C//DTD SVG 1.1//EN" "http://www.w3.org/Graphics/SVG/1.1/DTD/svg11.dtd">
<svg version="1.1" id="Layer_1" xmlns="http://www.w3.org/2000/svg" xmlns:xlink="http://www.w3.org/1999/xlink" x="0px" y="0px"
	 viewBox="0 0 61.6 22.1" enable-background="new 0 0 61.6 22.1" xml:space="preserve">
<g>
	<g>
		<path fill="#3A494F" d="M54.6,20.6H7.1c-3.3,0-6-2.7-6-6V7.2c0-3.3,2.7-6,6-6h47.5c3.3,0,6,2.7,6,6v7.4
			C60.6,17.9,57.9,20.6,54.6,20.6z"/>
		<g>
			<g>
				<path fill-rule="evenodd" clip-rule="evenodd" fill="#3A494F" d="M49.4,22.1c-0.3,0-0.7-0.1-1.2-0.1c-0.1-0.1-0.1-0.2-0.3-0.2
					c-0.7,0-1.1-0.1-1.7-0.1c-0.6,0-0.1,0.1-0.7,0.1c-0.6,0-0.4-0.1-0.9-0.1s-1.3,0.2-1.9,0.2c-0.6,0-0.1-0.1-0.7-0.1
					c-0.6,0-0.4,0.1-0.9,0.1s-1.2-0.3-1.6-0.4c-0.9,0.1-2.8,0.2-3.4,0.2c-1.2,0-0.7-0.2-1.8-0.2c0,0,0.3,0-0.3,0s-0.4,0.1-0.9,0.1
					s-0.4-0.1-0.9-0.1c-0.3,0-0.8,0.2-1,0.4c-0.8-0.1-1.7-0.4-2.3-0.4c-0.6,0-2,0.2-2.6,0.2c-0.6,0-0.1-0.1-0.7-0.1
					s-0.6,0.1-1.2,0.1c-1.2,0-0.1-0.2-0.9-0.2c-0.6,0-0.1,0.1-0.7,0.1c-0.6,0-0.8-0.1-1.4-0.1c-0.6,0-3,0.2-3.6,0.2
					c-0.6,0-1.5-0.1-2.1-0.1c-0.6,0-1.5,0.1-2,0.1c-0.3,0-0.4-0.2-0.3-0.3H9.2c0.3,0.2,0.5,0.2,0.5,0.2c-0.3,0-0.3-0.1-0.9-0.1
					c-0.6,0-0.6,0.1-1.2,0.1c-0.2,0-0.3,0-0.5,0c-0.2,0-0.4-0.1-0.7-0.1c-0.4-0.1-0.9-0.3-1.2-0.4c-0.6-0.2-0.7-0.1-1.3-0.4
					c-0.6-0.4-0.3-0.3-0.9-0.7c-0.5-0.4-0.9-0.6-1.3-0.8c-0.2-0.3,0.2-0.2-0.2-0.7c-0.4-0.6,0,0.2-0.4-0.4c-0.3-0.6,0.2,0.1-0.1-0.5
					c-0.3-0.6-0.1,0.2-0.3-0.5c-0.2-0.7,0-0.2-0.1-0.8c-0.2-0.7-0.3-0.9-0.3-1.6c0-0.6,0-0.9,0.1-1.1c0-0.2-0.1-0.3-0.2-0.3
					c0-0.3,0.1-0.3,0.1-0.9S0,11.7,0,11.1c0-0.6,0.1-1.3,0.1-1.9C0.1,8.6,0,7.9,0,7.3c0-0.7,0.1-0.8,0.2-1C0.3,5,0.9,3.7,1.8,2.7
					C2,2.6,1.7,2.9,2.2,2.4c0.2-0.2,0.7-0.7,1.2-1.1c0.5-0.4,1.2-0.8,1.8-1c0,0,0.2-0.1,0.5-0.1c0.2,0,0.5-0.1,0.5-0.1
					c0,0.1-0.5,0.2-1,0.5c0,0,0.5-0.2,1-0.2c0.5-0.1,1-0.1,1-0.1c0.6,0,0.3-0.1,0.9-0.1c0.6,0,0.8,0.1,1.4,0.1
					c0.6,0,0.4-0.1,0.9-0.1c0.6,0,0.1,0.1,0.7,0.1c0.6,0,0.8-0.1,1.4-0.1c0.6,0,2,0.1,2.6,0.1c0.4,0,1.4,0,1.8-0.1
					c0.3,0.1,0.8,0.1,1,0.3c0.6,0,0.8,0.1,0.8-0.1s-0.5-0.1-0.4-0.2c0.6,0.1,1.2,0.2,1.8,0.2c0.1,0,1.3-0.1,1.5-0.4h0.9
					c0,0.1,0.5,0.3,0.7,0.4c0.2,0,0.3-0.1,0.4-0.2c0.6,0.1,1,0.2,1.6,0.2c0.6,0,1.5-0.2,2.1-0.2c0.6,0,0.4,0.1,0.9,0.1
					c0.6,0,0.5,0,0.5-0.1c0.4,0.1,0,0.2,0.6,0.2c0.6,0-0.1-0.1,0.5-0.1c0.6,0,0.6,0.1,1.2,0.1c1,0,1.3,0,1.5-0.4h0.9
					c0,0.1,0.4,0.4,0.7,0.4c0.6,0-0.1-0.1,0.5-0.1c0.6,0-0.1,0.1,0.5,0.1c0.6,0,0.9-0.2,1.3-0.2c0.4-0.1,0.7,0,1.3,0s3,0.2,3.6,0.2
					c2,0,1.4-0.2,2.4-0.2c1,0,0.3,0.2,2.4,0.2c0.6,0,1.3-0.1,1.9-0.1s1.6,0.1,2.3,0.2c0.2,0,0.3-0.1,0.4-0.2h0.8
					c0.6,0,0.5,0.1,0.9,0.1c0.1,0.1,0.1,0.2,0.3,0.2h0.7c0.6,0,0.4-0.1,0.7-0.2c0.2,0,0.5,0,0.8,0c0.3,0,0.7,0,0.9,0.1
					c0.3,0-0.2-0.2,0.5,0c0.7,0.1,1.7,0.7,2.3,1.3c0.2,0.1,0.3,0.1,0.5,0.1c0.3,0.3,0.8,0.8,1.2,1.4c0.4,0.5,0.8,1.2,1.1,1.7
					c0.1,0.3,0,0.5-0.1,0.5c0,0,0.3,1.4,0.2,1.4C61.4,7,61.5,7,61.5,7c0,0,0,0.4,0,0.6c0,0.3,0,0.6,0,0.6c0,0.6-0.1,0.3-0.1,0.9
					s0,0.7,0.1,0.8c-0.2,1.7-0.2,0.7-0.2,2.3c0,1.1,0.3,2.2,0.2,2.6c0,0.7-0.4,1.2-0.6,1.8c-0.2,0.6,0.1,0.2-0.2,0.8
					c-0.3,0.6,0-0.2-0.4,0.4c-0.3,0.6-1.2,1.9-1.9,2.4c-0.2,0.1,0,0-0.6,0.4c-0.3,0.2-0.7,0.3-1.1,0.4c-0.3,0.1-0.8,0.1-0.8,0.1
					l-0.2,0c0,0.1,0,0.2,0,0.3c-0.3-0.2-0.5-0.3-0.8-0.3c0-0.1,0.1-0.1,0.1-0.2c0-0.4-0.5-0.4-0.5-0.7c0-0.2,0-0.1,0-0.2
					c0.1,0,0.5-0.1,0.5-0.4c0-0.2-0.1-0.1-0.1-0.2c0.3,0,0.3-0.3,0.4-0.3c0.1,0,0.1,0,0.2,0c0,0,0,0,0.1,0c0.1,0,0.1,0,0.2,0
					c0.1,0,0.2,0,0.3-0.1c0.4-0.2,0.6-0.4,0.9-0.6c0.4-0.3,0.2,0,0.3-0.1c0.6-0.4,1.4-1.3,1.6-1.7c0.2-0.4,0.4-0.8,0.4-1.1
					c0-0.2,0-0.3-0.1-0.5c0-0.2-0.1-0.3-0.1-0.7c0-0.6,0.1-0.2,0.1-0.4c0-0.5,0-1.1,0-1.7c0-0.6,0-1.7-0.1-2.8
					c0.1-0.1,0.1,0.2,0.2,0.4c0.1,0,0.1-0.5,0.2-0.7c0-0.2-0.1-0.2-0.1-0.8c0-0.6,0.1-0.4,0.1-0.6c-0.1-0.4,0-0.8-0.2-0.8
					c-0.1,0-0.1,0.1-0.1,0.2c0,0.1,0,0.2-0.1,0.2c0-0.1-0.1-1.1-0.1-1.1c0.1-0.2,0.1-0.6,0-1c-0.2-0.4-0.1,0.1-0.3-0.3
					c-0.2-0.4,0.2,0-0.1-0.4c-0.3-0.4-0.3-0.2-0.5-0.5c-0.3-0.3-0.2-0.4-0.6-0.7c-0.4-0.3-1.1-0.6-1.6-0.7c-0.3,0-0.6,0-0.8,0.1
					c0-0.1,0.3-0.1,0.4-0.2c-0.4-0.1-0.9-0.1-1.6-0.1c-0.6,0-1.2-0.1-1.5-0.1c-0.6,0-1.2,0-1.6,0.1v0c-0.7,0-0.3-0.1-0.5-0.1
					c-0.2,0-0.3,0.1-0.3,0.2c-0.3,0-0.1-0.1-0.7-0.1c-0.6,0-0.2,0-0.3,0.1c-0.3,0-0.4-0.1-0.4-0.2c-1.1,0-2.5,0-3.7,0
					c-0.1-0.1,0.2-0.1-0.3-0.1c-0.6,0-2.3,0.2-2.8,0.2c-0.6,0-0.8-0.2-1.4-0.2s0.1,0.1-0.5,0.1s-1.2-0.1-1.4-0.3
					c-0.2,0-0.3,0.1-0.3,0.2h-0.9c0-0.1-0.5-0.1-0.7-0.2c-0.1,0-0.6,0.1-0.8,0.4h-0.9c0-0.1,0.4-0.1,0.5-0.2c-0.2-0.1,0.1,0-0.5,0
					c-0.6,0-1.1,0.2-1.7,0.2s-0.4-0.1-0.9-0.1s-0.4,0.1-0.9,0.1c-0.6,0-0.1-0.1-0.7-0.1s-0.5,0-0.5,0.1c-0.4-0.1-0.7-0.2-1.1-0.2
					s-1.1,0-1.7,0c-0.6,0-1.3,0-1.7,0c-0.3,0-0.4,0.1-0.8,0.2c0,0,0.3,0-0.3,0c-0.6,0-0.8-0.2-1.2-0.2c-0.1,0-0.4,0-1,0
					c-2,0-1.4,0.2-2.4,0.2c-0.8,0-0.9-0.2-1.8-0.4h-0.6c-0.2,0.1-0.2,0-0.2,0.1s0.5,0.2,0.4,0.2H16c-0.6,0-0.6-0.1-1.2-0.1
					c-0.6,0-0.9,0.1-1.2,0.1C13.5,2.4,14,2.3,14,2.3c-0.2-0.1,0.1,0-0.5,0c-0.6,0-0.4,0.1-0.9,0.1c-0.6,0-0.4-0.1-0.9-0.1
					c-0.6,0-1.1,0.1-1.7,0.1c-0.6,0-0.8-0.1-1.4-0.1C7.9,2.2,8.6,2.3,8,2.3c-0.6,0-0.1-0.1-0.7-0.1c-0.6,0-0.1,0.1-0.6,0.1
					c-0.5,0-1,0-1.1,0C5.3,2.5,4.9,2.6,5,2.8c0.1,0.1,0.4-0.1,0.4,0C4.8,3,4.8,2.9,4.4,3.2C4,3.5,4.1,3.5,4.1,3.6
					C3.6,3.8,3.3,3.9,3,4.3C2.7,4.8,2.8,5,2.6,5.3C2.6,5.5,2.4,5.5,2.1,6L2.5,6c0,0,0,0.1-0.1,0.2c0,0.1,0,0.3-0.1,0.5
					c0,0.2,0,0.4,0,0.5c0,0.2,0,0.3,0,0.3C2.3,7.6,2.2,8,2.1,8.2c0.1,0.6,0.2,1.9,0.2,2.5S2.2,11.8,2.1,12c0,0.2,0.1,0.3,0.2,0.3
					c-0.1,0.5-0.1,1.3-0.2,1.9c0,0.4,0,0.6,0,0.8c0,0.2,0,0.4,0.1,0.5c0.2,0.6,0.2,0.6,0.4,0.5c0,0,0.4,0.9,0.4,0.9
					c0.2,0.4,0.5,1.1,0.9,1.4c0.4,0.3,0.3,0.1,0.7,0.3c0.4,0.2,0.7,0.5,1.2,0.6c0.5,0.1,0.7,0,1.2,0c0.6,0-0.1,0.1,0.5,0.1
					c0.6,0,0.4-0.1,0.9-0.1s0.8,0.1,1.4,0.1c0.6,0,0.4-0.1,0.9-0.1c0.6,0-0.1,0.1,0.5,0.1c0.6,0,0.4-0.1,0.9-0.1
					c0.6,0,1.2,0.1,1.4,0.3c0.2,0,0.3-0.1,0.3-0.2c0.3,0,0.1,0.1,0.7,0.1s-0.1-0.1,0.5-0.1s-0.1,0.1,0.5,0.1s0.3,0,0.4-0.1
					c0.5,0,1.9,0.1,2.3-0.1c0.3,0,0.4,0.1,0.5,0.2c0.4,0.1,0.8,0.2,1.4,0.2c0.4,0,0.8-0.2,1-0.4h1.3c0.3,0.1,0.4,0.2,1,0.2
					c0.6,0,0.1-0.1,0.7-0.1c0.6,0,0.8,0.1,1.4,0.1c0.6,0,0.8,0,1,0c0.2,0,0.2-0.2,0.3-0.2c0.2,0,0.8,0,1.7-0.1
					c0.1,0.1-0.2,0.1-0.4,0.2c0,0.1,0.5,0.1,0.6,0.2c0.4-0.1,0.9-0.1,1.5-0.1s0.8,0.1,1.4,0.1c0.6,0-0.1-0.1,0.5-0.1
					c0.6,0,0.2,0.1,0.4,0.1c0.4,0,0.7,0,1.3,0s1.2,0,1.6-0.1v0c0.7,0,0.2,0.1,0.8,0.1c0.6,0,0.4-0.1,0.9-0.1c0.6,0,0.4,0.1,0.9,0.1
					c0.6,0,0.1-0.1,0.7-0.1c0.6,0,0.4,0.1,0.9,0.1c0.6,0,1-0.1,1.3-0.2c0.6,0.1,1.4,0.2,2,0.2s0.4-0.1,0.9-0.1s0.1,0.1,0.7,0.1
					c0.6,0,0.5,0,0.5-0.1c0.3,0,0.4,0.1,0.4,0.2h4.1c0.6,0-0.1-0.1,0.5-0.1s0.1,0.1,0.7,0.1c0.6,0,0.4-0.1,0.9-0.1
					c0.6,0,0.4,0.1,0.9,0.1c0.2,0,0.1,0,0.2-0.1c0.1,0.1,0.2,0.2,0.3,0.4c0.2,0,0.4,0.1,0.5,0.3c0,0,0.1-0.1,0.1-0.2h0.2
					c0.2,0,0.1,0.1,0.3,0.2c0,0.1,0.1,0.1,0.1,0.3s-0.1,0.1-0.1,0.2s0.1,0.3,0.2,0.3c-0.1,0.2-0.3,0.4-0.4,0.6
					c-0.1,0-0.1-0.1-0.2-0.1v0.4h-0.2c-0.2,0-0.1-0.1-0.1-0.1c-0.1,0-0.1,0.1-0.1,0.2c-0.1,0-0.1-0.1-0.2-0.1c-0.1,0-0.2,0-0.4,0
					l-0.2,0c-0.2,0-0.4,0-0.7,0c-0.9,0-1.7-0.1-2-0.1c-0.6,0-1.3,0-1.7,0C48.8,21.9,49.2,22,49.4,22.1z"/>
			</g>
		</g>
	</g>
</g>
<g>
</g>
<g>
</g>
<g>
</g>
<g>
</g>
<g>
</g>
<g>
</g>
<g>
</g>
<g>
</g>
<g>
</g>
<g>
</g>
<g>
</g>
<g>
</g>
<g>
</g>
<g>
</g>
<g>
</g>
</svg>
