<?xml version="1.0" encoding="utf-8"?>
<!-- Generator: Adobe Illustrator 18.0.0, SVG Export Plug-In . SVG Version: 6.00 Build 0)  -->
<!DOCTYPE svg PUBLIC "-//W3C//DTD SVG 1.1//EN" "http://www.w3.org/Graphics/SVG/1.1/DTD/svg11.dtd">
<svg version="1.1" id="Layer_1" xmlns="http://www.w3.org/2000/svg" xmlns:xlink="http://www.w3.org/1999/xlink" x="0px" y="0px"
	 viewBox="0 0 12.3 12.1" enable-background="new 0 0 12.3 12.1" xml:space="preserve">
<g>
	<g>
		<circle fill="#3A494F" cx="6.1" cy="6.1" r="5.5"/>
		<g>
			<g>
				<path fill-rule="evenodd" clip-rule="evenodd" fill="#3A494F" d="M12.1,7.9C12,8,12,8.1,11.9,8.2c0,0-0.1,0-0.1,0
					c-0.1,0.2-0.2,0.2-0.2,0.4c-0.1,0.1,0,0.1,0,0.2c-0.1,0.1-0.1,0.1-0.2,0.2c-0.1,0.1-0.1,0.3-0.1,0.5c-0.1,0.1-0.1,0-0.2,0.1
					c-0.1,0.1,0,0.1-0.1,0.2c-0.1,0.1-0.3,0.1-0.4,0.2c-0.1,0.2-0.4,0.6-0.5,0.7c-0.2,0.2-0.2,0.1-0.4,0.2c0,0,0,0-0.1,0
					c-0.1,0.1,0,0.1-0.2,0.2c-0.1,0.1-0.1,0-0.2,0.1c-0.1,0-0.1,0.2-0.1,0.3c-0.2,0-0.5,0-0.6,0.1c-0.1,0-0.4,0.3-0.6,0.3
					c-0.1,0,0-0.1-0.2,0c-0.1,0-0.1,0.1-0.3,0.1c-0.3,0.1-0.1-0.1-0.3-0.1C7,11.9,7.1,12,7,12c-0.1,0-0.2,0-0.4,0
					c-0.1,0-0.7,0.2-0.9,0.1c-0.2,0-0.4-0.1-0.5-0.1c-0.1,0-0.4,0-0.5,0c-0.1,0-0.1-0.1-0.1-0.2c0,0-0.2,0-0.5-0.1
					c-0.2-0.1-0.4-0.2-0.4-0.2c0,0.1,0.1,0.1,0.1,0.2c-0.1,0-0.1-0.1-0.2-0.1c-0.1-0.1-0.2,0-0.3-0.1c-0.1-0.1-0.3-0.3-0.4-0.4
					C2.8,11,2.8,11,2.7,11c-0.1-0.1,0-0.1-0.2-0.2c-0.1-0.1-0.2-0.1-0.3-0.1c0-0.1,0.1-0.1,0-0.2c-0.1-0.1,0,0.1-0.1,0
					c-0.1-0.1,0.1,0,0-0.1c-0.1-0.1,0,0.1-0.1,0c-0.1-0.1,0-0.1-0.1-0.2C1.7,10,1.6,10,1.5,9.9C1.4,9.8,1.4,9.7,1.4,9.6
					c0,0-0.1,0-0.1,0c-0.1-0.1,0-0.1-0.1-0.2C1.1,9.3,1,9.3,0.9,9.2C0.9,9.1,0.8,8.9,0.8,8.7C0.7,8.6,0.6,8.5,0.5,8.3
					c-0.1-0.1,0-0.2,0-0.2C0.4,7.8,0.3,7.5,0.3,7.3c0,0,0.1,0,0-0.1C0.3,7,0.1,6.6,0,6.4l0-0.2c0,0,0.1,0.1,0.1,0.2c0,0,0-0.4,0-0.4
					c0-0.1-0.1-0.1-0.1-0.2c0-0.1,0.1-0.2,0.1-0.4c0-0.1-0.1-0.1,0-0.2c0-0.1,0.1,0,0.1-0.2c0-0.1,0-0.2,0-0.4
					c0-0.1,0.2-0.5,0.2-0.6c0-0.1,0.1-0.3,0.1-0.4c0.1-0.1,0.2-0.2,0.2-0.2c0.1-0.1,0.1-0.1,0.1-0.2c-0.1,0-0.1,0.1-0.1,0
					C0.9,3.2,1,3.1,1.1,2.9c0,0,0.1-0.3,0-0.4l0.1-0.2c0.1,0,0.2,0,0.3,0c0,0,0-0.1,0-0.2C1.6,2.1,1.7,2.1,1.8,2
					C1.9,1.9,2,1.6,2.1,1.5c0.1-0.1,0.1,0,0.2-0.1c0.1-0.1,0.1-0.1,0.1-0.1c0.1,0,0.1,0.1,0.2,0c0.1-0.1-0.1,0,0.1-0.1
					c0.1-0.1,0.2,0,0.3-0.1c0.2-0.1,0.3-0.2,0.2-0.4c0,0,0.2-0.1,0.2-0.1c0,0,0.2,0.1,0.2,0.1c0.1-0.1-0.1,0,0.1-0.1
					c0.1-0.1,0,0.1,0.1,0C3.9,0.5,4,0.4,4.1,0.4c0.1-0.1,0.2-0.1,0.3-0.1c0.1,0,0.7-0.1,0.9-0.1C5.8,0.1,5.6,0,5.8,0
					c0.3,0,0.1,0.1,0.6,0.1c0.1,0,0.3-0.1,0.5,0c0.1,0,0.4,0.1,0.5,0.2c0,0,0.1,0,0.1-0.1l0.2,0c0.1,0,0.1,0.1,0.2,0.1
					c0,0,0,0.1,0,0.1l0.2,0.1c0.1,0,0.1,0,0.2-0.1c0.1,0,0.3,0.1,0.4,0.1c0.1,0,0-0.1,0.1,0C9,0.8,9.1,1,9.3,1.1c0,0,0.1,0,0.2-0.1
					c0.1,0.1,0.2,0.2,0.3,0.3c0.1,0.1,0.3,0.2,0.4,0.2c0,0,0,0.1,0,0.2l0.2,0.2c0.1,0,0.1,0,0.1-0.1l0.2,0.2c0.1,0.1,0,0.1,0.1,0.2
					c0.1,0.1,0.1,0.1,0.2,0.1c0.2,0.4,0,0.2,0.2,0.5c0.1,0.2,0.4,0.4,0.4,0.5c0.1,0.1,0,0.3,0.1,0.4c0,0.1,0.1,0,0.1,0.1
					c0.1,0.1-0.1,0,0,0.1c0.1,0.1,0.2,0.4,0.3,0.6c0,0,0,0,0,0.1c0,0.1,0,0.4-0.1,0.4l0,0.1c0,0,0.1,0,0.1,0
					c-0.1,0.1-0.2,0.2-0.2,0.4c0,0,0-0.1-0.1-0.1c-0.2,0-0.2,0.3-0.3,0.3c-0.1,0-0.1,0-0.1,0c0-0.1-0.1-0.3-0.2-0.3
					c-0.1,0-0.1,0.1-0.1,0.1c0-0.2-0.1-0.2-0.1-0.3c0-0.1,0-0.1,0-0.3c0-0.1-0.1-0.2-0.1-0.3c0-0.1,0,0,0-0.1c0-0.2-0.1-0.5-0.1-0.6
					c0-0.1,0-0.2-0.1-0.3C10.5,4,10.4,4,10.4,3.9c-0.1-0.1,0-0.1,0-0.1c0-0.1-0.1-0.2-0.2-0.3C10.2,3.4,10,3.2,9.8,3.1
					c0,0,0.1,0,0.1,0c0,0,0-0.1,0-0.2c0,0-0.1,0-0.2-0.1c-0.1-0.1,0-0.1,0-0.1c-0.1,0-0.1-0.1-0.2-0.1c-0.1,0.1,0,0.1,0,0.1
					c0,0-0.2-0.2-0.2-0.2c0-0.1,0-0.2-0.1-0.3c-0.1-0.1,0,0.1-0.1,0c-0.1-0.1,0.1,0,0-0.1C9.1,2.1,9.1,2.2,9,2.1
					C8.9,2.1,8.9,2,8.8,1.9C8.7,1.9,8.5,1.8,8.4,1.8c-0.1,0-0.2,0-0.2,0c0,0,0.1,0,0.1-0.1C8.1,1.6,7.8,1.4,7.7,1.4
					c-0.1,0-0.2-0.1-0.3,0l0,0c-0.1,0,0,0-0.1-0.1c0,0-0.1,0-0.1,0.1c-0.1,0,0-0.1-0.1-0.1c-0.1,0,0,0-0.1,0.1
					c-0.1,0-0.1-0.1-0.1-0.1c-0.2,0-0.5-0.1-0.8-0.1c0,0,0.1,0-0.1,0C6,1.1,5.6,1.2,5.5,1.2c-0.1,0-0.2-0.1-0.3-0.1
					c-0.1,0,0,0.1-0.1,0.1c-0.1,0-0.2,0-0.3-0.1c0,0,0,0.1,0,0.1c0,0-0.2,0-0.2,0c0,0-0.1,0-0.2-0.1c0,0-0.1,0.1-0.1,0.2
					c0,0-0.2,0.1-0.2,0.1c0,0,0.1-0.1,0-0.1c-0.1,0,0,0-0.1,0C4,1.5,4,1.7,3.9,1.7c-0.1,0.1-0.1,0-0.2,0c-0.1,0.1,0,0.1-0.1,0.2
					C3.5,2,3.5,1.9,3.4,2C3.3,2,3.3,2,3.3,2.1c-0.1,0-0.2,0-0.2,0C3,2.1,2.9,2.2,2.8,2.3C2.7,2.4,2.6,2.5,2.6,2.6c0,0,0,0.1,0,0.2
					c0,0,0,0,0,0.1C2.4,2.9,2.3,2.9,2.3,2.9c0,0-0.1,0.1-0.1,0.2C1.9,3.4,2.1,3.4,2,3.6C1.9,3.7,1.8,3.7,1.6,3.8L1.6,3.9
					c0,0,0,0,0,0.1c0.1,0,0.1-0.1,0.2,0c0,0-0.2,0.3-0.1,0.3c0,0.1-0.1,0.1-0.1,0.2c0,0.1,0,0.2,0,0.3c0,0-0.1-0.1-0.1-0.1
					c0,0,0,0,0,0.1c0,0.1,0,0.1,0,0.2C1.3,5,1.3,5,1.2,5.1c0,0.1,0,0.2,0,0.3c0,0.1-0.1,0.2-0.1,0.3c0,0.1,0.1,0,0.1,0.1
					c0,0.1-0.1,0-0.1,0.1c0,0.1,0.1,0,0.1,0.1c0,0.1-0.1,0.2-0.1,0.3c0,0.1,0,0.2,0.1,0.2c0.1,0,0-0.1,0.1-0.1c0,0.2,0,0.2,0,0.3
					c0,0.1,0,0.1,0.1,0.1c0,0.1-0.1,0.2-0.1,0.3c0,0.1,0.1,0.1,0.1,0.2c0,0-0.1,0.1-0.1,0.2l0.2-0.1l0.1,0.3c0,0,0,0.1-0.1,0.2
					c0.1,0.1,0.3,0.3,0.3,0.4C2,8.6,2,8.7,2,8.8c0,0,0.1,0,0.1,0C2.2,9,2.4,9.3,2.4,9.4c0.1,0.1,0.1,0.1,0.2,0c0,0,0.2,0.2,0.2,0.2
					C2.9,9.7,3,9.9,3.1,10C3.2,10,3.2,10,3.3,10c0.1,0.1,0.1,0.2,0.2,0.2c0.1,0.1,0.2,0,0.3,0.1c0.1,0.1-0.1,0,0.1,0.1
					c0.1,0.1,0.1,0,0.2,0c0.1,0.1,0.1,0.1,0.2,0.2c0.1,0,0.1,0,0.2,0c0.1,0,0,0.1,0.1,0.1c0.1,0,0.1,0,0.2,0C4.9,10.8,5,10.9,5,11
					c0,0,0.1,0,0.1-0.1c0.1,0,0,0.1,0.1,0.1c0.1,0,0-0.1,0.1,0c0.1,0,0,0.1,0.1,0.1c0.1,0,0.1,0,0.1,0c0.1,0,0.4,0.1,0.5,0
					C6,10.9,6.1,11,6.1,11c0.1,0,0.2,0.1,0.3,0.1c0.1,0,0.2-0.1,0.2-0.2c0,0,0.3,0,0.3,0C6.9,10.9,6.9,11,7,10.9
					c0.1,0,0-0.1,0.1-0.1c0.1,0,0.2,0,0.3,0c0.1,0,0.2,0,0.2-0.1c0,0,0-0.1,0-0.1c0,0,0.2-0.1,0.3-0.2c0,0,0,0.1,0,0.1
					c0,0,0.1,0,0.2,0c0.1-0.1,0.1-0.1,0.3-0.2c0.1,0,0.2,0,0.3-0.1c0.1-0.1-0.1,0,0.1-0.1c0.1-0.1,0.1,0,0.1,0
					c0.1,0,0.1-0.1,0.2-0.1C9.1,10,9.2,10,9.2,9.9l0,0c0.1-0.1,0.1,0,0.2-0.1c0.1-0.1,0-0.1,0.1-0.2c0.1-0.1,0.1,0,0.2-0.1
					c0.1-0.1,0-0.1,0.1-0.2c0.1-0.1,0.1,0,0.2-0.1C10,9.2,10,9.1,10,9c0.1-0.1,0.3-0.2,0.3-0.3c0.1-0.1,0-0.1,0-0.2
					c0.1-0.1,0.1,0,0.1-0.1c0.1-0.1,0-0.1,0-0.1c0-0.1,0.1,0,0.1,0c0,0,0.3-0.8,0.3-0.8c0-0.1-0.1,0,0-0.1c0-0.1,0.1,0,0.1-0.1
					c0-0.1,0-0.1,0-0.2c0-0.1,0.1-0.1,0.1-0.2c0-0.1,0-0.1-0.1-0.1c0,0,0.1-0.1,0.2-0.1c0-0.1,0.1-0.2,0.2-0.2c0,0,0,0-0.1-0.1
					l0-0.1c0-0.1,0.1-0.1,0.1-0.1c0.1,0,0.1-0.1,0.1-0.1c0.1,0,0,0.1,0.1,0.1c0.1,0,0.1-0.1,0.2-0.1c0.1,0.1,0.2,0.1,0.3,0.2
					c0,0-0.1,0.1-0.1,0.1l0.2,0l0,0.1c0,0.1,0,0-0.1,0.1c0,0,0,0.1,0.1,0.1c0,0,0,0.1-0.1,0.1c0,0.1-0.1,0.3-0.1,0.5
					C12,7.4,12,7.6,12,7.7c0,0.1-0.1,0.3-0.1,0.4C11.9,8.1,12,8,12.1,7.9z"/>
			</g>
		</g>
	</g>
	<g>
		<g>
			
				<path fill="none" stroke="#FFFFFF" stroke-width="0.3655" stroke-linecap="round" stroke-linejoin="round" stroke-miterlimit="10" d="
				M8.9,5.1c0-1.5-1.2-2.7-2.7-2.7S3.5,3.6,3.5,5.1c0,1.1,0.7,2.1,1.6,2.5h2.1C8.2,7.1,8.9,6.2,8.9,5.1z"/>
			
				<polygon fill="none" stroke="#FFFFFF" stroke-width="0.3655" stroke-linecap="round" stroke-linejoin="round" stroke-miterlimit="10" points="
				7.3,7.5 5.2,7.5 5.1,7.5 5.1,9.8 7.3,9.8 7.3,7.5 			"/>
		</g>
		<g>
			
				<path fill="none" stroke="#FFFFFF" stroke-width="0.3655" stroke-linecap="round" stroke-linejoin="round" stroke-miterlimit="10" d="
				M5.8,9.8v0.3c0,0.2,0.2,0.4,0.4,0.4h0c0.2,0,0.4-0.2,0.4-0.4V9.8H5.8z"/>
		</g>
		
			<path fill="none" stroke="#FFFFFF" stroke-width="0.3655" stroke-linecap="round" stroke-linejoin="round" stroke-miterlimit="10" d="
			M5.6,5c0,0.6-0.4,1.3-0.4,1.3S4.8,5.6,4.8,5S5,4,5.2,4S5.6,4.4,5.6,5z"/>
		
			<path fill="none" stroke="#FFFFFF" stroke-width="0.3655" stroke-linecap="round" stroke-linejoin="round" stroke-miterlimit="10" d="
			M6.6,5c0,0.6-0.4,1.3-0.4,1.3S5.8,5.6,5.8,5S6,4,6.2,4S6.6,4.4,6.6,5z"/>
		
			<path fill="none" stroke="#FFFFFF" stroke-width="0.3655" stroke-linecap="round" stroke-linejoin="round" stroke-miterlimit="10" d="
			M7.6,5c0,0.6-0.4,1.3-0.4,1.3S6.8,5.6,6.8,5s0.2-1,0.4-1S7.6,4.4,7.6,5z"/>
		
			<path fill="none" stroke="#FFFFFF" stroke-width="0.3655" stroke-linecap="round" stroke-linejoin="round" stroke-miterlimit="10" d="
			M5.2,6.3c0,0,0.5,1.1,1,0"/>
		
			<path fill="none" stroke="#FFFFFF" stroke-width="0.3655" stroke-linecap="round" stroke-linejoin="round" stroke-miterlimit="10" d="
			M6.2,6.3c0,0,0.5,1.1,1,0"/>
		
			<line fill="none" stroke="#FFFFFF" stroke-width="0.3383" stroke-linecap="round" stroke-linejoin="round" stroke-miterlimit="10" x1="5.3" y1="8.4" x2="7.2" y2="8.4"/>
		
			<line fill="none" stroke="#FFFFFF" stroke-width="0.3383" stroke-linecap="round" stroke-linejoin="round" stroke-miterlimit="10" x1="5.3" y1="9" x2="7.2" y2="9"/>
	</g>
</g>
<g>
</g>
<g>
</g>
<g>
</g>
<g>
</g>
<g>
</g>
<g>
</g>
<g>
</g>
<g>
</g>
<g>
</g>
<g>
</g>
<g>
</g>
<g>
</g>
<g>
</g>
<g>
</g>
<g>
</g>
</svg>
