<?xml version="1.0" encoding="utf-8"?>
<!-- Generator: Adobe Illustrator 18.0.0, SVG Export Plug-In . SVG Version: 6.00 Build 0)  -->
<!DOCTYPE svg PUBLIC "-//W3C//DTD SVG 1.1//EN" "http://www.w3.org/Graphics/SVG/1.1/DTD/svg11.dtd">
<svg version="1.1" id="Layer_1" xmlns="http://www.w3.org/2000/svg" xmlns:xlink="http://www.w3.org/1999/xlink" x="0px" y="0px"
	 viewBox="0 0 148.5 76.9" enable-background="new 0 0 148.5 76.9" xml:space="preserve">
<g>
	<g>
		<path fill="#3A494F" d="M1.4,56.4c0,0.2-0.1,0.3-0.3,0.3c-0.1,0-0.1,0-0.2,0c-0.1,0-0.2,0-0.3-0.1c-0.1-0.1-0.2-0.2-0.3-0.4
			c0-0.1,0-0.2,0-0.3c0-0.1,0-0.1,0-0.2c0.1-0.5,0.2-1.2,0.2-2c0-0.1,0.1-0.3,0.2-0.4c0.1-0.1,0.2-0.1,0.3-0.1c0,0,0,0,0.1,0
			c0.2,0,0.3,0.1,0.4,0.2s0.2,0.3,0.2,0.4C1.7,54.8,1.6,55.7,1.4,56.4z M4.1,58.8c0.1,0.2,0.2,0.3,0.2,0.5c0,0,0,0.1,0,0.1
			c0,0.2-0.1,0.4-0.3,0.6c-0.1,0.1-0.2,0.2-0.4,0.2c0,0-0.1,0-0.1,0c-0.2,0-0.3-0.1-0.4-0.3c0-0.1,0-0.1-0.1-0.2c0,0,0,0,0,0
			s0,0,0,0C2.7,60.6,2.4,61.3,2,62c-0.1,0.2-0.3,0.3-0.5,0.3h0c-0.2,0-0.4-0.1-0.5-0.2c-0.2-0.2-0.3-0.4-0.3-0.6c0,0,0-0.1,0-0.1
			c0-0.2,0-0.4,0.1-0.5c0.4-0.7,0.7-1.5,0.8-2.4c0.1-0.9,0.2-1.9,0.2-3v-3.6c0-0.2,0.1-0.4,0.2-0.5C2.2,51,2.3,51,2.6,51
			c0.2,0,0.4,0.1,0.5,0.2c0.1,0.2,0.2,0.3,0.2,0.5v1.4c0,0,0,0,0,0c0-0.2,0.1-0.3,0.3-0.4c0.1,0,0.2-0.1,0.3-0.1c0.1,0,0.1,0,0.2,0
			l0,0c0.2,0.1,0.3,0.2,0.3,0.3c0,0.1,0,0.1,0,0.2c0,0.1,0,0.2-0.1,0.3C4,54.5,3.8,54.9,3.8,55c0,0.1-0.1,0.1-0.2,0.2
			c-0.1,0-0.2,0-0.3,0c0,0,0,0,0,0v0.2c0,0.8,0,1.5-0.1,2.1c0,0.1,0,0.2,0.1,0.2C3.5,57.9,3.8,58.3,4.1,58.8z M11.7,53.7
			c0.1,0.1,0.2,0.3,0.2,0.5s-0.1,0.4-0.2,0.5c-0.1,0.1-0.3,0.2-0.5,0.2h-0.5c0,0-0.1,0-0.1,0c0,0,0,0.1,0,0.1
			c0.2,0.9,0.5,1.7,0.9,2.3c0.2,0.2,0.2,0.5,0.2,0.8c0,0.3-0.1,0.6-0.3,0.8c-0.1,0.1-0.2,0.3-0.3,0.4c0,0.1,0,0.1,0,0.2
			c0.3,0.6,0.6,1.2,0.8,1.8c0,0.1,0,0.2,0,0.3c0,0.1,0,0.2-0.1,0.4c-0.1,0.2-0.3,0.4-0.5,0.4c-0.1,0-0.2,0-0.2,0
			c-0.1,0-0.2,0-0.3-0.1c-0.2-0.1-0.3-0.3-0.4-0.5c-0.1-0.3-0.2-0.6-0.4-1c0-0.1-0.1-0.2-0.1-0.4c0-0.1,0-0.3,0.1-0.4
			c0.1-0.3,0.3-0.4,0.6-0.5l0.2-0.1c0,0,0,0,0-0.1c0,0,0,0,0-0.1c-0.4-0.5-0.8-1.1-1.1-2c0,0,0,0,0,0s0,0,0,0
			c-0.3,0.7-0.8,1.3-1.4,1.8c-0.1,0.1-0.3,0.2-0.5,0.2c0,0-0.1,0-0.1,0c-0.2,0-0.4-0.1-0.5-0.3c-0.1-0.1-0.2-0.3-0.2-0.5
			c0-0.2,0.1-0.4,0.2-0.5c0.9-0.8,1.4-1.8,1.6-3c0-0.1,0-0.1-0.1-0.1H8.6c-0.1,0-0.2,0-0.3-0.1c-0.1-0.1-0.1-0.2-0.1-0.3
			c0,0,0,0,0,0c0,0,0,0,0,0c-0.6,2.3-1.5,4-3,5c0,0,0,0,0,0.1c0,0,0,0,0,0c0.2,0.1,0.4,0.2,0.6,0.5c0.1,0.1,0.1,0.3,0.1,0.4
			c0,0.1,0,0.2-0.1,0.3c-0.2,0.5-0.4,0.9-0.6,1.2c-0.1,0.2-0.3,0.3-0.5,0.3c-0.1,0-0.1,0-0.2,0c-0.2,0-0.3,0-0.5-0.1
			c-0.2-0.1-0.3-0.2-0.3-0.4c0,0,0-0.1,0-0.1c0-0.1,0-0.3,0.1-0.4c0.3-0.5,0.6-1,0.8-1.6c0-0.1,0.1-0.1,0.1-0.2c0.1,0,0.1,0,0.2,0
			c0,0,0,0,0,0c0,0,0,0,0,0c-0.1-0.1-0.1-0.2-0.2-0.3c-0.1-0.2-0.2-0.4-0.2-0.6c0,0,0-0.1,0-0.1c0-0.3,0.1-0.5,0.3-0.7
			c0.2-0.2,0.4-0.5,0.6-0.8c0-0.1,0-0.1,0-0.2c-0.1-0.1-0.3-0.3-0.6-0.5c0,0,0,0-0.1,0c-0.1,0.1-0.2,0.1-0.3,0.2
			c-0.1,0-0.2,0-0.3-0.1c-0.1-0.1-0.1-0.1-0.2-0.2c-0.2-0.1-0.2-0.3-0.3-0.5c0,0,0-0.1,0-0.1c0-0.2,0-0.3,0.1-0.4
			c0.6-0.9,1.1-2.1,1.4-3.6c0-0.2,0.2-0.3,0.3-0.5C5.7,51.1,5.9,51,6,51c0,0,0.1,0,0.1,0c0.2,0,0.3,0.1,0.5,0.3
			c0.1,0.1,0.1,0.2,0.1,0.4c0,0,0,0.1,0,0.1c0,0,0,0.1,0,0.1c0,0.1,0,0.1,0.1,0.1h0.6c0,0,0,0,0.1,0c0.1,0,0.1,0,0.2,0
			c0.1,0,0.2,0,0.3,0l0.2,0.1c0.1,0,0.2,0.1,0.3,0.2c0.1,0.1,0.1,0.2,0.1,0.3c0,0,0,0.1,0,0.1c0,0.2-0.1,0.4-0.1,0.7c0,0,0,0,0,0.1
			c0,0,0,0,0.1,0h0.4c0.1,0,0.1,0,0.1-0.1v-1.6c0-0.2,0.1-0.4,0.2-0.5c0.1-0.1,0.3-0.2,0.5-0.2H10c0.1,0,0.2,0,0.3,0.1
			s0.1,0.2,0.1,0.3c0,0,0,0.1,0,0l0.1,0c0.1,0,0.2-0.1,0.4-0.1s0.2,0,0.4,0.1c0.2,0.1,0.4,0.3,0.5,0.5c0,0.1,0.1,0.2,0.1,0.3
			c0,0.1,0,0.1,0,0.2c0,0.1,0,0.2-0.1,0.3c-0.1,0.2-0.2,0.3-0.4,0.3c-0.1,0-0.1,0-0.2,0c-0.1,0-0.2,0-0.2-0.1
			c-0.1-0.1-0.2-0.2-0.3-0.3c-0.1-0.3-0.2-0.5-0.3-0.8c0,0,0,0,0,0c0,0,0,0,0,0v1.4c0,0.1,0,0.1,0.1,0.1h0.6
			C11.4,53.5,11.6,53.6,11.7,53.7z M5.5,55.2c0,0.1,0,0.1,0,0.2c0.2,0.1,0.4,0.3,0.5,0.4c0.1,0,0.1,0,0.2,0c0-0.1,0.1-0.2,0.1-0.3
			c0-0.1,0-0.1,0-0.2C6.2,55.1,6,55,5.8,54.9c-0.1,0-0.1,0-0.2,0C5.6,55,5.6,55.1,5.5,55.2z M6.9,53.5C6.9,53.4,6.9,53.4,6.9,53.5
			c-0.1-0.1-0.1-0.1-0.1-0.1H6.4c-0.1,0-0.1,0-0.2,0.1c0,0,0,0.1,0,0.1s0,0.1,0,0.1c0,0.1,0,0.1,0.1,0.2c0.2,0.1,0.3,0.2,0.4,0.2
			c0,0,0,0,0.1,0c0,0,0,0,0.1-0.1C6.8,53.8,6.9,53.7,6.9,53.5z M6.3,60.7C6.3,60.7,6.3,60.7,6.3,60.7c0-0.2,0-0.4,0.1-0.5
			C6.6,60,6.8,59.9,7,59.9c0,0,0.1,0,0.1,0c0.2,0,0.3,0,0.4,0.1c0.2,0.1,0.3,0.3,0.3,0.5c0.1,0.5,0.1,0.9,0.1,1.1
			c0,0.2-0.1,0.4-0.2,0.5c-0.1,0.2-0.3,0.3-0.5,0.3c0,0-0.1,0-0.1,0c-0.2,0-0.3-0.1-0.4-0.2c-0.1-0.1-0.2-0.3-0.2-0.5
			C6.4,61.4,6.4,61.1,6.3,60.7z M8.2,60.7c0-0.1,0-0.1,0-0.2c0-0.1,0-0.2,0.1-0.3c0.1-0.2,0.2-0.3,0.4-0.3c0.1,0,0.1,0,0.2,0
			c0.1,0,0.2,0,0.3,0.1c0.2,0.1,0.3,0.2,0.4,0.4c0.1,0.3,0.2,0.7,0.3,1c0,0.1,0,0.1,0,0.2c0,0.2,0,0.3-0.1,0.4
			c-0.1,0.2-0.3,0.3-0.5,0.4c-0.1,0-0.1,0-0.2,0c-0.1,0-0.2,0-0.3-0.1c-0.2-0.1-0.3-0.3-0.3-0.5C8.3,61.4,8.3,61.1,8.2,60.7z"/>
		<path fill="#3A494F" d="M15.5,55.1C15.5,55.1,15.5,55.1,15.5,55.1C15.5,55.2,15.6,55.2,15.5,55.1l6.4,0.1c0.3,0,0.5,0.1,0.7,0.3
			s0.3,0.5,0.3,0.7v0.1c0,3,0.2,4.5,0.7,4.5c0.1,0,0.2-0.3,0.2-0.9c0-0.1,0.1-0.2,0.2-0.3c0.1,0,0.2,0,0.3,0.1
			c0.4,0.4,0.5,0.7,0.5,1.1c0,0.1,0,0.1,0,0.2c-0.1,0.5-0.2,0.9-0.5,1.2s-0.5,0.4-0.9,0.4c-0.3,0-0.6-0.1-0.8-0.2
			c-0.2-0.1-0.4-0.3-0.6-0.6c-0.2-0.3-0.3-0.6-0.4-0.9c-0.1-0.3-0.2-0.7-0.3-1.2c-0.1-0.5-0.1-0.9-0.1-1.4c0-0.5-0.1-1-0.1-1.6
			c0-0.1,0-0.1-0.1-0.1h-5.8c-0.2,0-0.3-0.1-0.4-0.2c-0.1-0.1-0.2-0.2-0.2-0.4c0,0,0-0.1,0-0.1c-0.2-0.1-0.4-0.3-0.7-0.5
			c-0.2-0.1-0.3-0.3-0.3-0.6c0,0,0,0,0-0.1c0-0.2,0.1-0.4,0.2-0.6c0.6-0.6,1.1-1.4,1.5-2.2c0.1-0.3,0.3-0.5,0.6-0.6
			c0.2-0.1,0.3-0.1,0.5-0.1c0.1,0,0.2,0,0.3,0l0.5,0.1c0.1,0,0.2,0.1,0.3,0.2s0.1,0.2,0,0.4c0,0,0,0,0,0h6.3c0.2,0,0.3,0.1,0.5,0.2
			s0.2,0.3,0.2,0.5c0,0.2-0.1,0.3-0.2,0.5s-0.3,0.2-0.5,0.2h-6.9c-0.1,0-0.2,0-0.2,0.1c0,0,0,0,0,0c0,0,0,0,0,0c0,0,0,0,0,0.1
			c0,0,0,0,0.1,0h6c0.2,0,0.3,0.1,0.4,0.2s0.2,0.3,0.2,0.4s-0.1,0.3-0.2,0.4s-0.3,0.2-0.4,0.2h-6c-0.1,0-0.3-0.1-0.4-0.2
			c-0.1-0.1-0.2-0.2-0.2-0.4c0,0,0,0,0,0c0,0,0,0,0,0C16,54.5,15.8,54.8,15.5,55.1z M20.9,58.6c0.1,0.1,0.2,0.2,0.2,0.2s0,0.1,0,0.3
			s-0.1,0.3-0.2,0.5c-0.1,0.1-0.3,0.2-0.5,0.2h-1.2c0,0,0,0,0,0c0,0,0,0,0,0c0.5,0.3,1,0.6,1.4,0.9c0.2,0.1,0.3,0.3,0.3,0.5
			c0,0.2-0.1,0.4-0.2,0.5c-0.2,0.1-0.4,0.2-0.6,0.2h0c-0.2,0-0.4-0.1-0.6-0.2c-0.3-0.2-0.5-0.4-0.9-0.6c0,0,0,0-0.1,0s0,0,0,0.1v0.6
			c0,0.2-0.1,0.4-0.2,0.6c-0.2,0.2-0.4,0.2-0.6,0.2c-0.2,0-0.4-0.1-0.6-0.2s-0.2-0.4-0.2-0.6V61c0,0,0,0,0,0s0,0-0.1,0
			c-0.5,0.5-0.9,0.9-1.5,1.2c-0.1,0.1-0.3,0.1-0.5,0.1c-0.1,0-0.1,0-0.2,0c-0.2-0.1-0.4-0.2-0.6-0.4c-0.1-0.1-0.1-0.2-0.1-0.4
			c0,0,0-0.1,0-0.1c0-0.2,0.2-0.3,0.3-0.4c0.6-0.3,1.1-0.6,1.5-1c0,0,0,0,0,0c0,0,0,0,0,0h-1.2c-0.2,0-0.3-0.1-0.5-0.2
			c-0.1-0.1-0.2-0.3-0.2-0.5s0.1-0.3,0.2-0.5c0.1-0.1,0.3-0.2,0.5-0.2h0.4c0,0,0.1,0,0.1,0c0,0,0,0,0-0.1c0-0.1-0.1-0.3-0.2-0.4
			c-0.1-0.1-0.1-0.2-0.1-0.3c0-0.1,0-0.1,0-0.2c0.1-0.2,0.2-0.3,0.3-0.4c0.1,0,0.2-0.1,0.3-0.1c0.1,0,0.2,0,0.3,0
			c0.2,0.1,0.4,0.2,0.5,0.4c0,0,0,0.1,0.1,0.1c0,0.1,0.1,0.2,0.1,0.3c0,0.1,0,0.2-0.1,0.3c-0.1,0.2-0.2,0.3-0.4,0.4c0,0,0,0,0,0
			c0,0,0,0,0,0h0.8c0.1,0,0.1,0,0.1-0.1v-0.7c0-0.2,0.1-0.4,0.2-0.6s0.4-0.2,0.6-0.2c0.2,0,0.4,0.1,0.6,0.2c0.2,0.2,0.2,0.4,0.2,0.6
			v0.7c0,0.1,0,0.1,0.1,0.1h0.6c0,0,0,0,0,0c0,0,0,0,0,0c-0.1,0-0.2-0.1-0.3-0.3c0-0.1,0-0.1,0-0.2c0-0.1,0-0.2,0.1-0.2
			c0-0.1,0.1-0.1,0.1-0.2c0.1-0.2,0.3-0.4,0.5-0.5c0.1-0.1,0.3-0.1,0.4-0.1c0.1,0,0.2,0,0.3,0c0.2,0,0.3,0.2,0.4,0.4
			c0,0.1,0,0.1,0,0.2c0,0.1,0,0.2-0.1,0.3c-0.2,0.2-0.3,0.4-0.4,0.5c0,0,0,0,0,0.1c0,0,0,0,0.1,0h0.4C20.6,58.4,20.8,58.5,20.9,58.6
			z"/>
	</g>
	<g>
		<path fill="#3A494F" d="M12.3,22.2c0.2,0.2,0.2,0.4,0.2,0.6c0,0.2-0.1,0.4-0.2,0.6c-0.2,0.2-0.4,0.2-0.6,0.2H9c0,0,0,0,0,0
			s0,0,0,0c0.9,0.3,1.8,0.7,2.8,1.1c0.2,0.1,0.3,0.3,0.3,0.5c0,0.2-0.1,0.4-0.3,0.5c-0.3,0.2-0.6,0.3-0.9,0.3c0,0,0,0-0.1,0
			c-0.3,0-0.6-0.1-0.8-0.2c-0.5-0.2-1-0.5-1.5-0.7c-0.2-0.1-0.3-0.3-0.4-0.5c0,0,0-0.1,0-0.1c0-0.2,0.1-0.3,0.2-0.5l0.4-0.3
			c0,0,0,0,0-0.1c0,0,0,0,0,0H5.4c0,0,0,0,0,0c0,0,0,0,0,0L5.7,24C5.9,24.1,6,24.2,6,24.5c0,0,0,0.1,0,0.1c0,0.2-0.1,0.4-0.4,0.5
			c-0.8,0.4-1.5,0.7-2.3,0.9c-0.1,0-0.3,0.1-0.4,0.1c-0.1,0-0.3,0-0.4,0c-0.2-0.1-0.5-0.2-0.6-0.4c-0.1-0.1-0.1-0.2-0.1-0.3
			c0,0,0-0.1,0-0.2c0.1-0.2,0.2-0.3,0.4-0.4c0.9-0.3,1.8-0.6,2.5-1c0,0,0,0,0,0c0,0,0,0,0,0H2.3c-0.2,0-0.4-0.1-0.6-0.2
			S1.5,23,1.5,22.8c0-0.2,0.1-0.4,0.2-0.6S2,22,2.3,22h1.1c0.1,0,0.1,0,0.1-0.1v-4.4c0-0.1,0-0.1-0.1-0.1H2.7
			c-0.2,0-0.4-0.1-0.6-0.2s-0.2-0.4-0.2-0.6c0-0.2,0.1-0.4,0.2-0.6s0.4-0.2,0.6-0.2h0.7c0.1,0,0.1,0,0.1-0.1v-0.1
			c0-0.2,0.1-0.4,0.3-0.6c0.2-0.2,0.4-0.3,0.6-0.3s0.5,0.1,0.6,0.3c0.2,0.2,0.3,0.4,0.3,0.6v0.1c0,0.1,0,0.1,0.1,0.1h3.3
			c0.1,0,0.1,0,0.1-0.1v0c0-0.2,0.1-0.5,0.3-0.6s0.4-0.3,0.6-0.3c0.3,0,0.5,0.1,0.6,0.3s0.3,0.4,0.3,0.6v0c0,0.1,0,0.1,0.1,0.1h0.8
			c0.2,0,0.4,0.1,0.6,0.2c0.2,0.2,0.2,0.4,0.2,0.6c0,0.2-0.1,0.4-0.2,0.6c-0.2,0.2-0.4,0.2-0.6,0.2h-0.8c-0.1,0-0.1,0-0.1,0.1v4.4
			c0,0.1,0,0.1,0.1,0.1h1.1C12,22,12.2,22,12.3,22.2z M8.7,17.5c0-0.1,0-0.1-0.1-0.1H5.3c-0.1,0-0.1,0-0.1,0.1v0.3
			c0,0.1,0,0.1,0.1,0.1h3.3c0.1,0,0.1,0,0.1-0.1V17.5z M5.3,19.3c-0.1,0-0.1,0-0.1,0.1v0.3c0,0.1,0,0.1,0.1,0.1h3.3
			c0.1,0,0.1,0,0.1-0.1v-0.3c0-0.1,0-0.1-0.1-0.1H5.3z M5.3,21.3c-0.1,0-0.1,0-0.1,0.1v0.4c0,0.1,0,0.1,0.1,0.1h3.3
			c0.1,0,0.1,0,0.1-0.1v-0.4c0-0.1,0-0.1-0.1-0.1H5.3z"/>
		<path fill="#3A494F" d="M21.2,24.5h2.1c0.3,0,0.5-0.1,0.6-0.2c0.1-0.1,0.2-0.3,0.3-0.6c0-0.2,0.1-0.3,0.3-0.4
			c0.1-0.1,0.2-0.1,0.3-0.1c0.1,0,0.2,0,0.3,0.1c0.2,0.1,0.4,0.3,0.6,0.5c0.1,0.2,0.1,0.3,0.1,0.5c0,0.1,0,0.1,0,0.2
			c-0.1,0.6-0.4,1.1-0.7,1.3c-0.3,0.3-0.8,0.4-1.5,0.4H21c-1,0-1.6-0.2-2-0.5c-0.3-0.3-0.5-1-0.5-1.9v-2.9c0,0,0,0,0,0s0,0,0,0
			c-0.1,0-0.2,0.1-0.3,0.1c-0.1,0-0.2,0-0.3-0.1c-0.2-0.1-0.3-0.2-0.4-0.4l-0.3-0.6c0,0,0,0,0,0s0,0,0,0v5.8c0,0.2-0.1,0.4-0.3,0.6
			c-0.2,0.2-0.4,0.3-0.6,0.3c-0.2,0-0.5-0.1-0.6-0.3c-0.2-0.2-0.3-0.4-0.3-0.6v-5c0,0,0,0,0,0c0,0,0,0,0,0c-0.1,0.1-0.2,0.2-0.3,0.2
			c0,0,0,0-0.1,0c-0.2,0-0.3-0.1-0.4-0.3c0-0.1-0.1-0.2-0.1-0.3c-0.1-0.2-0.2-0.5-0.2-0.7c0-0.1,0-0.1,0-0.2c0-0.3,0.1-0.6,0.3-0.8
			c0.7-0.8,1.2-1.8,1.7-2.9c0.1-0.2,0.3-0.4,0.5-0.5c0.1-0.1,0.3-0.1,0.4-0.1c0.1,0,0.2,0,0.3,0c0.2,0.1,0.4,0.2,0.5,0.4
			c0,0.1,0.1,0.2,0.1,0.3c0,0.1,0,0.2-0.1,0.3c-0.2,0.5-0.4,1-0.7,1.5c0,0.1,0,0.1,0,0.2v1.5c0,0,0,0,0,0.1s0,0,0.1,0l1.2-0.5
			c0.1,0,0.1-0.1,0.1-0.2v-1.7c0-0.2,0.1-0.4,0.3-0.6c0.2-0.2,0.4-0.3,0.6-0.3c0.2,0,0.5,0.1,0.6,0.3c0.2,0.2,0.3,0.4,0.3,0.6v1
			c0,0,0,0.1,0,0.1c0,0,0,0,0.1,0l0.6-0.2c0.1,0,0.1-0.1,0.1-0.2v-2.1c0-0.2,0.1-0.4,0.2-0.6s0.4-0.2,0.6-0.2c0.2,0,0.4,0.1,0.6,0.2
			s0.2,0.4,0.2,0.6V17c0,0,0,0.1,0,0.1c0,0,0,0,0.1,0l0.6-0.3c0,0,0.1,0,0.1-0.1c0.2-0.1,0.4-0.2,0.7-0.2c0.1,0,0.3,0,0.4,0.1
			l0.4,0.2c0.1,0,0.1,0.1,0.2,0.1c0,0.1,0,0.1,0,0.2c0,0,0,0,0,0.1c0,2.2,0,3.5-0.1,3.9c0,0.6-0.3,1-0.7,1.3
			c-0.1,0.1-0.3,0.1-0.4,0.1c-0.1,0-0.1,0-0.2,0c-0.2,0-0.4-0.1-0.6-0.2c-0.2-0.2-0.4-0.4-0.4-0.8c0-0.2-0.1-0.3-0.1-0.4
			c0,0,0,0,0,0c0,0,0,0,0,0v1.3c0,0.2-0.1,0.4-0.2,0.6s-0.4,0.2-0.6,0.2c-0.2,0-0.4-0.1-0.6-0.2s-0.2-0.4-0.2-0.6v-2.7
			c0,0,0,0,0-0.1c0,0,0,0-0.1,0l-0.6,0.2c-0.1,0-0.1,0.1-0.1,0.2v3.6c0,0.4,0,0.6,0.1,0.7C20.6,24.4,20.8,24.5,21.2,24.5z
			 M23.7,18.7C23.7,18.7,23.7,18.6,23.7,18.7c-0.1-0.1-0.1-0.1-0.1-0.1L23,18.9c-0.1,0-0.1,0.1-0.1,0.2v1.7c0,0.1,0,0.1,0.1,0.1
			c0.2,0,0.4,0,0.5,0c0.1,0,0.1,0,0.2,0c0,0,0.1-0.1,0.1-0.2C23.7,20.6,23.7,19.9,23.7,18.7z"/>
	</g>
	<g>
		<g>
			<polygon fill="#828282" points="73.1,38.7 73.1,38.7 73.1,38.7 			"/>
			<g>
				<g>
					<path fill-rule="evenodd" clip-rule="evenodd" fill="#3A494F" d="M71.5,40c0,0,0.1-0.1,0.1-0.1c0.1-0.1,0.2-0.1,0.2-0.2
						c0,0,0.2-0.1,0.2-0.1l-0.1,0.1l0.1-0.1l-0.3,0.2l0.1-0.1l-0.1,0.1c0,0,0.3-0.2,0.4-0.3c-0.1,0.1-0.3,0.2-0.3,0.2
						s0.2-0.1,0.2-0.2l0,0L72,39.6l0.1-0.1c0,0-0.2,0.1-0.4,0.3c0.1-0.1,0.4-0.3,0.4-0.3l-0.3,0.2l0.1-0.1l-0.1,0.1l0.3-0.2L72,39.6
						l0.1-0.1l-0.3,0.2l0.1-0.1c0,0-0.1,0.1-0.1,0.1c0,0,0.2-0.1,0.3-0.2l0,0c-0.2,0.1-0.2,0.1-0.3,0.2c0,0,0.1-0.1,0.1-0.1
						l-0.1,0.1l0.3-0.2L72,39.6l0.1-0.1c0,0-0.1,0.1-0.3,0.2c0.1-0.1,0.3-0.2,0.3-0.2L72,39.5l0.1-0.1L72,39.5l0.1-0.1L72,39.5
						c0,0,0,0,0.1-0.1c0,0-0.1,0.1-0.3,0.2c0,0,0.1-0.1,0.1-0.1s0,0-0.1,0.1c0,0,0,0,0,0c0.5-1.1,0.9-2,1.2-2.6l0,0l0,0.2l0-0.2
						c0,0,0,0.1,0,0.1c0,0,0,0,0,0.1c0,0.1,0,0.1,0,0.1s0-0.3,0-0.5h0c0,0.1,0,0.1,0,0.4h0c0,0,0-0.2,0-0.2l0,0.2l0-0.2l0,0.2l0-0.2
						l0,0.2c0,0,0,0.1,0-0.2c0,0.1,0,0.2,0,0.4c0,0,0,0.1,0-0.1c0-0.2,0-0.1,0-0.3c0,0.2,0,0.3,0,0.3s0-0.2,0-0.5h0
						c0,0.2,0,0.4,0,0.5c0,0,0-0.1,0-0.4c0,0.2,0,0.3,0,0.3l0-0.4l0,0.2c0,0,0,0,0-0.2c0,0.1,0,0.3,0,0.3l0-0.2l0,0.2c0,0,0,0,0-0.5
						h0c0,0.1,0,0.2,0,0.3c0,0.1,0,0.1,0,0.1c0.8,0.8,1.2,1.3,1.2,1.3l0.2,0l-0.2,0c0,0,0.2,0,0.3,0c0.1,0,0,0,0,0l-0.4,0l0.4,0
						l-0.4,0l0.2,0c0,0-0.2,0-0.4,0c0,0,0.1,0,0.3,0v0c0,0-0.2,0-0.2,0c-0.1,0-0.2,0-0.3,0v0c0,0,0.2,0,0.3,0c0,0,0,0,0.1,0
						c0.1,0,0.1,0,0.1,0s-0.2,0-0.4,0c0,0,0.1,0,0.3,0c-0.1,0-0.2,0-0.2,0s0.1,0,0.2,0c0,0-0.2,0-0.4,0v0c0.1,0,0.2,0,0.4,0v0
						c0,0-0.2,0-0.2,0s0,0,0.2,0c-0.2,0-0.3,0-0.3,0l0.4,0l-0.4,0l0.2,0l-0.2,0c0,0,0.2,0,0.3,0c0,0,0,0,0,0s-0.2,0-0.4,0v0
						c0.1,0,0.2,0,0.4,0c-0.3,0-0.5,0-0.5,0c-0.1,0-0.1,0-0.3,0c-0.5,0-0.6,0-1,0c-0.2,0-0.2,0-0.2,0c-0.1,0-0.2,0-0.6,0
						c-0.2,0-0.2,0-0.3,0c0,0-0.4,0-0.4,0l0.2,0l-0.2,0c0,0,0.1,0,0.2,0c0,0,0.2,0,0.2,0s0.1,0,0,0s-0.3,0-0.3,0s0.1,0,0.2,0
						c0,0,0,0,0,0s0,0-0.2,0c0.1,0,0.2,0,0.2,0c0.1,0,0.1,0,0.3,0c0,0-0.2,0-0.2,0s0.1,0,0.2,0c-0.1,0,0,0-0.3,0c-0.2,0-0.1,0-0.3,0
						v0c0.2,0,0.3,0,0.3,0l-0.2,0l0.2,0l-0.2,0l0.2,0c0,0-0.1,0-0.2,0c-0.1,0-0.2,0-0.3,0c0.1,0,0.2,0,0.4,0c0,0,0.2,0,0.2,0
						s0,0-0.1,0h-0.1c0,0,0.1,0,0.2,0c0,0-0.1,0-0.3,0c0,0,0.2,0,0.2,0s0,0-0.2,0c0,0,0.2,0,0.4,0c0,0,0,0,0,0c0.1,0,0.1,0,0.1,0
						l-0.4,0l0.4,0l-0.2,0c0,0,0.2,0,0.4,0c0,0-0.1,0-0.3,0v0c0.1,0,0.2,0,0.3,0c0,0-0.2,0-0.5,0v0c0.1,0,0.2,0,0.3,0
						c0.1,0,0.1,0,0.1,0s-0.1,0-0.2,0c0.5,0.6,1.1,1.1,1.6,1.6c0,0,0,0,0,0.1c0,0,0,0.1,0,0.1l0-0.2l0,0.2l0-0.2c0,0,0,0,0,0.2
						c0-0.1,0-0.2,0-0.3c0-0.1,0,0,0,0s0,0,0,0c0,0,0,0.1,0,0.3l0,0c0,0,0-0.2,0-0.3c0-0.1,0,0,0,0l0,0.4c0,0,0-0.3,0-0.5h0
						c0,0.1,0,0,0,0.2c0,0.2,0,0.2,0,0.3h0c0,0,0-0.2,0-0.2s0,0.1,0,0.2c0-0.1,0-0.2,0-0.3c0-0.1,0-0.1,0-0.1l0,0.2l0-0.2l0,0.2
						l0-0.2l0,0.2l0-0.2l0,0.2c0,0,0-0.2,0-0.4c0,0.1,0,0,0,0.3c0,0.2,0,0.1,0,0.3c0,0,0-0.2,0-0.2s0,0,0,0.2c0-0.2,0-0.3,0-0.3
						l0,0.2c0,0,0-0.2,0-0.4v0.5h0c0-0.1,0-0.2,0-0.3c0,0.2,0,0.4,0,0.4s0,0,0,0c0,0,0,0,0,0c0.4-0.8,0.8-1.7,1.3-2.7
						c-0.1,0-0.1,0.1-0.2,0.1c0,0,0.1-0.1,0.3-0.2c-0.1,0.1-0.3,0.2-0.3,0.2s0,0,0.3-0.2l0,0c0,0-0.3,0.2-0.3,0.2l0.1-0.1l-0.1,0.1
						l0.1-0.1l-0.1,0.1l0.1-0.1l-0.1,0.1l0.1-0.1l-0.1,0.1l0.1-0.1c0,0-0.2,0.1-0.3,0.2c0,0,0.1-0.1,0.3-0.2c0,0-0.1,0.1-0.1,0.1
						l0.1-0.1l-0.1,0.1c0,0,0.1,0,0.1-0.1c0,0-0.1,0.1,0.2-0.1c0,0-0.2,0.1-0.2,0.2c-0.1,0-0.2,0.2-0.2,0.2s0.2-0.1,0.4-0.3l0,0
						c-0.1,0.1-0.3,0.2-0.3,0.2l0.1-0.1l-0.1,0.1c0,0,0,0,0,0c0,0,0.2-0.1,0.2-0.2c0,0,0,0,0.2-0.1c-0.1,0.1-0.1,0.1-0.2,0.1
						c-0.1,0-0.1,0.1-0.2,0.2c0.1-0.1,0.1-0.1,0.1-0.1l-0.1,0.1l0.1-0.1c0,0-0.1,0.1-0.1,0.1c0,0,0,0,0,0s0,0,0.1-0.1l0,0l-0.1,0.1
						l0.1-0.1l-0.1,0.1l0.1-0.1l-0.1,0.1c0,0,0.1-0.1,0.3-0.2c-0.1,0.1-0.3,0.2-0.3,0.2l0.1-0.1l-0.1,0.1c0,0,0,0,0.1-0.1
						c0,0-0.2,0.1-0.3,0.2l0,0c0,0,0.1-0.1,0.1-0.1l-0.1,0.1l0.1-0.1l-0.1,0.1c0,0,0,0,0.1-0.1c-0.1,0.1-0.2,0.2-0.4,0.3
						c0,0-0.2,0.1-0.3,0.2c0,0,0.1-0.1,0.3-0.2l0,0c0,0-0.1,0.1-0.2,0.1c-0.1,0.1-0.1,0.1-0.3,0.2c-0.2,0.1-0.1,0.1-0.3,0.2
						c-0.2,0.1-0.3,0.2-0.4,0.3c-0.2,0.2-0.4,0.3-0.7,0.5c0,0,0.1-0.1,0.1-0.1l-0.4,0.3l0,0c0,0,0.1-0.1,0.1-0.1
						c0,0-0.1,0.1-0.3,0.2c0,0,0.1-0.1,0.1-0.1c0,0,0.2-0.1,0.2-0.1s0,0,0,0C71.7,39.8,71.6,39.9,71.5,40z"/>
				</g>
			</g>
		</g>
		<g>
			<path fill="#828282" d="M73.1,38.7L73.1,38.7l0,36.6c-0.8,0-1.7,0-2.5-0.1c-6.1-0.4-11.9-2.3-16.8-5.4
				c-10.4-6.5-17.3-18-17.3-31.1H73.1z"/>
			<g>
				<g>
					<path fill-rule="evenodd" clip-rule="evenodd" fill="#3A494F" d="M75.2,44.1c-0.1,0.3-0.1,0.6-0.2,1c-0.1,0.1-0.2,0.1-0.3,0.3
						c0,0.6-0.2,1-0.2,1.5s0.2,0.1,0.2,0.6s-0.2,0.3-0.2,0.8s0.4,1.1,0.4,1.7s-0.2,0.1-0.2,0.6c0,0.5,0.2,0.3,0.2,0.8
						s-0.4,1-0.5,1.4c0.2,0.8,0.4,2.5,0.4,3c0,1-0.2,0.6-0.3,1.6c0,0,0-0.2,0,0.3s0.2,0.3,0.2,0.8s-0.2,0.3-0.2,0.8
						c0,0.2,0.2,0.7,0.5,0.9c-0.2,0.7-0.5,1.5-0.5,2s0.4,1.8,0.4,2.3s-0.2,0.1-0.2,0.6s0.2,0.5,0.2,1c0,1.1-0.4,0.1-0.4,0.8
						c0,0.5,0.2,0.1,0.2,0.6s-0.2,0.7-0.2,1.2s0.4,2.6,0.4,3.1c0,0.3,0,0.6-0.1,0.9c0,0.1,0,0.2,0,0.4c0,0.1,0,0.3,0,0.4
						c0,0.3,0,0.5,0,0.7c0,0.4,0,1,0.1,1.6c0,0.1,0,0.3,0,0.4l0,0.2c0,0.1,0,0.2-0.1,0.1c-0.2,0-0.4,0-0.6,0c-0.4,0-0.7-0.2-0.8-0.4
						c0,0-1.3,0-2.6-0.1c-0.4,0-0.9-0.1-1.2-0.1c-0.3,0-0.5-0.1-0.5-0.1c0.2,0.2,0.4,0.3,0.4,0.4c-0.3,0-0.3-0.2-0.8-0.3
						c-0.5-0.1-0.6,0.1-1.1,0c-0.5-0.1-1.3-0.6-1.9-0.7c-0.5-0.1-0.6,0.1-1.1-0.1c-0.5-0.1-0.3-0.2-0.8-0.4c-0.5-0.1-0.9-0.1-1.2,0
						c-0.3-0.2,0.1-0.3-0.4-0.5c-0.5-0.2,0.1,0.2-0.5,0c-0.5-0.2,0.2-0.1-0.4-0.3c-0.5-0.2,0,0.2-0.5,0c-0.5-0.2,0-0.2-0.6-0.4
						c-0.5-0.2-0.8-0.1-1.3-0.3c-0.5-0.2-0.8-0.3-0.9-0.6c-0.1-0.1-0.3,0-0.4,0.2c-0.3-0.1-0.2-0.3-0.7-0.5c-0.5-0.2-0.6-0.1-1-0.3
						c-0.5-0.2-1-0.7-1.4-1c-0.5-0.3-1.1-0.4-1.6-0.7c-0.5-0.3-0.4-0.4-0.6-0.6c-0.4-0.3-0.9-0.6-1.3-0.9l-1.2-1
						c0-0.1,0.2,0-0.2-0.3c-0.4-0.3-1.7-1-2.5-1.5l-0.5-0.5c0.1-0.1,0.4,0.2,0.9,0.3l-1.1-1.1c-0.4-0.4-0.3,0-0.7-0.4
						c-0.4-0.4-0.4-0.7-0.7-1.1c-0.4-0.4-0.3-0.1-0.7-0.5c-0.3-0.4,0.1-0.2-0.3-0.6c-0.3-0.4-0.6-0.5-0.9-0.9
						c-0.4-0.4-0.9-1.6-1.2-2c-0.2-0.3-0.6-1.1-1-1.3c-0.1-0.3-0.2-0.8-0.2-1c-0.3-0.5-0.2-0.7-0.4-0.6c-0.2,0.1,0.1,0.4-0.1,0.5
						c-0.1-0.6-0.2-1.2-0.5-1.6c-0.1-0.1-0.7-0.9-1.1-1L38,54.1c0.2-0.1,0.1-0.6,0.2-0.8c-0.1-0.1-0.2-0.2-0.5-0.2
						c0-0.6,0-1-0.2-1.5c-0.1-0.3-0.3-0.5-0.5-0.8c-0.2-0.3-0.4-0.6-0.5-0.9c-0.2-0.5,0.1-0.4-0.1-0.9c-0.2-0.5-0.2-0.4-0.3-0.4
						c0-0.3,0.3-0.1,0.2-0.7c-0.1-0.5-0.1,0.1-0.3-0.4c-0.1-0.5,0-0.6-0.1-1.1c-0.2-0.9-0.2-1.1-0.8-1.2l-0.1-0.8
						c0.2-0.1,0.5-0.4,0.4-0.7c-0.1-0.5-0.2,0.1-0.2-0.4c-0.1-0.5,0.2,0.1,0.1-0.4c-0.1-0.5-0.3-0.8-0.4-1.1
						C35,41.7,35,41.5,35,41.3c0-0.1,0-0.3,0-0.4c0-0.2,0-0.4,0-0.6c0-0.4,0-1.5,0.1-2.5l0-0.4c0,0,0-0.2,0.1-0.1l0.2,0
						c0.3,0,0.5,0,0.8,0.1c0.5,0,0.8,0.1,1.1,0.1c0.7,0,1.2,0,1.5-0.1c0.2,0,0.3-0.1,0.4-0.1c0.2-0.1,0.3-0.2,0.7-0.2
						c0.9,0,0.3,0.4,2.1,0.4c0.5,0,1.1-0.2,1.7-0.2s1.4,0.2,2,0.4c0.2,0,0.3-0.1,0.3-0.3h0.7c0.5,0,0.4,0.2,0.8,0.2
						c0.1,0.1,0.1,0.2,0.3,0.3h0.6c0.5,0,0.3-0.2,0.6-0.3c0.4,0,1,0,1.4-0.1c0.2-0.1-0.2-0.1,0.3-0.1c0.5,0,1.4,0.2,2,0.4
						c0.2,0,0.3-0.1,0.3-0.3c0.3,0.1,0.9,0.2,1.4,0.2c0.5,0,1.1-0.1,1.5-0.2c0.2,0,0.3,0.2,0.3,0.4h1.1c0.2-0.1,0.1-0.2,0.2-0.4h1.1
						c0.5,0,0.2,0.2,0.8,0.2s0.6,0,0.7-0.2c1.5,0.2,0.6,0.3,2,0.3c0.9,0,2-0.4,2.3-0.4c0.5,0,0.9,0.4,1.5,0.4s0.1-0.2,0.6-0.2
						c0.5,0-0.1,0.2,0.4,0.2c0.5,0,1.7-0.2,2.4-0.3c0.2,0,0,0,0.5,0c0.3,0,0.6,0,0.9,0.1c0.3,0.1,0.6,0.2,0.6,0.2h0.2
						c0.1-0.1,0.1-0.2,0.1-0.4c0.3,0.3,0.5,0.6,1,0.5c0,0.1-0.2,0.1-0.2,0.3c0,0.5,0.7,0.6,0.7,1c0,0.2,0,0.2,0,0.2
						c-0.2,0.1-0.8,0.2-0.8,0.6c0,0.2,0.2,0.2,0.2,0.3c-0.5,0-0.6,0.4-0.9,0.4c-0.1,0-0.2,0-0.3-0.1c0,0-0.1,0-0.3-0.1
						c-0.1,0-0.2,0-0.4,0c-0.5,0-0.7,0.2-1.2,0.2c-0.5,0-0.2-0.1-0.3-0.2c-0.8,0-2-0.2-2.6-0.2c-0.5,0-1-0.1-1.3,0s-0.7,0.3-1.2,0.3
						c-0.5,0-0.2-0.1-0.4-0.2c-0.4,0-1,0-1.5,0s-1.5,0-2.4,0.2c0-0.1,0.2-0.2,0.4-0.2c0-0.1-0.4-0.1-0.6-0.3c-0.2,0-0.2,0.2-0.7,0.2
						c-0.5,0-0.4-0.1-0.5-0.2c-0.4,0.1-0.7,0-0.7,0.3s0.4,0.1,0.4,0.3h-1.2c-0.2-0.2-0.6-0.3-1.1-0.3s0.1,0.2-0.4,0.2
						c-0.5,0,0.1-0.2-0.4-0.2s-0.3,0.2-0.8,0.2s-0.5-0.2-1-0.2c-0.5,0-1.4,0.1-1.9,0.2c-0.4,0.1-0.6,0.2-0.9,0.3
						c-0.1-0.1,0.4-0.2,0.4-0.4c-1,0-2.4-0.2-2.9-0.2s-1.1,0-1.4,0.1v0.1c-0.6,0-0.2-0.1-0.4-0.2c-0.2,0-0.3,0.1-0.3,0.3
						c-0.3,0-0.1-0.2-0.6-0.2c-0.5,0-0.2,0-0.2,0.2c-0.3,0-0.4-0.2-0.4-0.4c-1,0-2.2,0-3.3,0c-0.1-0.1,0.2-0.1-0.3-0.1
						c-0.3,0-0.8,0.1-1.2,0.2c-0.3,0-0.5,0.1-0.7,0.1c-0.1,0-0.1,0.1-0.1,0.1c-0.1,0-0.3-0.4-0.5-0.4c-0.2,0,0.2,0.2,0.1,0.2
						c0,0.1-0.2,0.2-0.4,0.2c0,0.1,0.1,0.2,0.4,0.3l0,0.3c-0.1,0-0.1,0-0.1,0.1c0,0.1-0.1,0.3-0.2,0.3c0.1,0.1,0.2,0.5,0.6,0.7
						l0.1,0.7c-0.1,0-0.2-0.3-0.3-0.3c-0.1,0.2-0.1-0.1,0,0.4c0,0.5,0.5,0.8,0.5,1.3c0.1,0.5-0.1,0.3,0,0.8c0.1,0.5,0.2,0.3,0.3,0.7
						c0.1,0.5-0.1,0.1,0,0.6c0.1,0.5,0.1,0.4,0.3,0.4c0,0.3-0.1,0.6-0.1,0.9c0,0.3,0.3,0.9,0.4,1.4c0.1,0.5,0.3,1.1,0.5,1.4
						c0.1,0.2,0.3,0.3,0.5,0.5c0,0,0-0.2,0.1,0.2c0.2,0.5,0,0.7,0,1c0,0.1,0.1,0.3,0.3,0.8c0.7,1.6,0.8,0.9,1.2,1.6
						c0.3,0.6,0.1,0.8,0.3,1.6l0.3,0.5c0.1,0.1,0,0.1,0.2,0c0.2-0.1,0-0.5,0.1-0.5l0.7,1.2c0.3,0.4,0.1,0.5,0.4,0.9
						c0.3,0.4,0.5,0.6,0.7,0.7c-0.1,0.1-0.4-0.1-0.4-0.1c0,0.2-0.1,0,0.2,0.4c0.3,0.4,0.3,0.1,0.6,0.5c0.3,0.4,0,0.3,0.4,0.7
						c0.3,0.4,0.7,0.6,1,1c0.3,0.4,0.3,0.6,0.7,1c0.3,0.4,0.1-0.2,0.4,0.2c0.3,0.4-0.1,0.2,0.3,0.5c0.4,0.3,0.2-0.1,0.6,0.3
						c0.4,0.3,0.6,0.8,0.6,1c0.3,0.2,0.5,0.4,0.7,0.2c0.1-0.2-0.2-0.4-0.1-0.4c0.5,0.4,0.4,0.6,0.8,0.9c0.4,0.3,0.3,0.2,0.5,0.2
						c0.3,0.5,0.4,0.8,0.8,1.1c0.4,0.3,0.7,0.3,1,0.5c0.2,0.1,0.1,0.3,0.4,0.7l0.3-0.4l1.3,0.8c0,0.1,0.3,0.4,0.3,0.6
						c0.5,0.1,1.5,0.5,2,0.7c0.4,0.2,0.8,0.6,0.9,0.8c0.1,0.1,0.3,0,0.4-0.2c0.7,0.5,2.1,1.3,2.6,1.5c0.6,0.2,0.6,0.2,0.7-0.1l1,0.3
						c0.5,0.1,1.1,0.7,1.5,0.8c0.5,0.1,0.3-0.1,0.8,0c0.5,0.1,0.8,0.4,1.3,0.5c0.5,0.1,0.7,0,1.2,0c0.5,0.1-0.1,0.2,0.4,0.2
						c0.5,0.1,0.3-0.1,0.8-0.1c0.5,0.1,0.7,0.3,1.2,0.3c0.5,0,0.3-0.2,0.8-0.1c0.1,0,0.2,0,0.2,0c0,0,0,0,0,0.1c0,0,0,0.1,0.1,0.1
						c0.2,0,0.1-0.2,0.3-0.2c0.2,0,0.5,0.2,0.7,0.4c0,0,0,0,0-0.1c-0.1-0.1-0.1-0.2-0.2-0.3c0-0.1,0.2,0.1,0.2,0
						c0-0.2-0.2-0.1-0.2-0.2c0-0.1,0.2,0.1,0.2-0.1c0-0.2-0.1-0.1-0.1-0.1c0,0,0,0,0-0.1c0,0,0-0.1,0-0.2c0-0.2,0-0.4,0-0.6
						c0-0.4,0-0.8-0.2-1c0-0.3,0.2-0.4,0.3-0.4c0.1-0.3,0.2-0.7,0.2-1.2c0-0.3-0.2-0.7-0.5-0.9v-1.2c0.2-0.2,0.3-0.4,0.3-0.9
						s-0.2-0.1-0.2-0.6s0.2-0.7,0.2-1.2s0-0.7,0-0.9c-0.1-0.2-0.2-0.2-0.3-0.3c0-0.2,0-0.7-0.2-1.5c0.1-0.1,0.2,0.2,0.2,0.4
						c0.1,0,0.1-0.4,0.3-0.6c-0.1-0.3-0.2-0.8-0.2-1.3s0.2-0.7,0.2-1.2s-0.2,0.1-0.2-0.4s0.1-0.2,0.2-0.4c0-0.4,0-0.6,0-1.1
						s0-1.1-0.1-1.4h-0.1c0-0.6,0.2-0.2,0.2-0.7s-0.2-0.3-0.2-0.8s0.2-0.3,0.2-0.8s-0.2-0.1-0.2-0.6s0.2-0.3,0.2-0.8
						s-0.2-0.8-0.4-1.1c0.2-0.5,0.4-1.3,0.4-1.8s-0.2-0.3-0.2-0.8s0.2-0.1,0.2-0.6s0-0.4-0.2-0.4c0-0.3,0.2-0.4,0.3-0.4v-3.6
						c0-0.5-0.2,0.1-0.2-0.4c0-0.5,0.2-0.1,0.2-0.6s-0.2-0.3-0.2-0.8c0-0.5,0.2-0.3,0.2-0.8c0-0.3,0-0.2-0.2-0.2
						c0.1-0.1,0.3-0.3,0.5-0.4c0-0.2,0.2-0.6,0.4-0.7c0-0.1-0.1-0.1-0.4-0.1v-0.3c0-0.2,0.2-0.2,0.2-0.4c0.2,0,0.2-0.2,0.4-0.2
						c0.2,0,0.1,0.2,0.4,0.2c0.2,0,0.3-0.1,0.4-0.3c0-0.1-0.1-0.2-0.1-0.3l0-0.1l0.1,0h0l0.1,0.4c0.3,0.2,0.5,0.3,0.7,0.5
						c0,0.1-0.2,0.2-0.2,0.3h0.5v0.3c0,0.2-0.1,0.1-0.2,0.1c0,0.1,0.1,0.1,0.3,0.1c0,0.1-0.1,0.1-0.1,0.2c0,0.2,0,0.3,0,0.5l0,0.3
						c0,0.2,0,0.4,0,0.6c0,0.8-0.1,1.5-0.1,1.8c0,0.5,0,1.1,0.1,1.5C74.9,44.7,75.1,44.3,75.2,44.1z"/>
				</g>
			</g>
		</g>
		<g>
			<path fill="#FFFFFF" d="M50.3,10.1c-8.4,6.7-13.8,17-13.8,28.6v0h36.6h0V2.1C64.5,2.1,56.6,5.1,50.3,10.1z"/>
			<g>
				<g>
					<path fill-rule="evenodd" clip-rule="evenodd" fill="#3A494F" d="M47.8,15.2c-0.2,0.2-0.5,0.3-0.8,0.6c-0.1,0-0.2-0.1-0.4,0
						c-0.4,0.4-0.8,0.6-1.1,1c-0.3,0.4,0.1,0.2-0.2,0.6c-0.3,0.4-0.3,0.1-0.6,0.5c-0.3,0.4-0.3,1.1-0.6,1.5c-0.3,0.4-0.2,0-0.5,0.4
						c-0.3,0.4,0,0.3-0.3,0.8c-0.3,0.4-0.8,0.6-1.1,0.9c-0.2,0.7-0.8,2.3-1,2.7c-0.4,0.9-0.5,0.5-0.9,1.3c0,0,0.1-0.2-0.1,0.2
						c-0.2,0.5,0.1,0.3-0.1,0.8c-0.2,0.5-0.3,0.2-0.4,0.7c-0.1,0.2,0,0.7,0.2,1c-0.4,0.6-0.9,1.2-1,1.7c-0.2,0.5,0,1.7-0.1,2.2
						c-0.1,0.5-0.2,0.1-0.3,0.6c-0.1,0.5,0.1,0.5,0,1c-0.1,1-0.4,0.1-0.5,0.7c-0.1,0.5,0.2,0.1,0.1,0.6c0,0.5-0.2,0.7-0.3,1.2
						c0,0.1,0,0.2,0,0.2c0,0.1,0,0.1,0,0.2c0,0.1,0.1,0.2,0.1,0.3c0,0.1,0.1,0.1,0.1,0.2c0.1,0,0.2-0.1,0.2,0c0.1,0,0.1,0,0.2,0.1
						c0,0,0.1,0,0.1,0.1c0,0,0,0,0,0c0,0,0.1,0,0.1,0c0.1,0,0.1,0,0.2,0c0.5,0,1.3-0.1,1.7-0.2c0.2,0,0.3,0.2,0.3,0.4h3.4
						c-0.2-0.2-0.4-0.2-0.4-0.4c0.3,0,0.3,0.2,0.8,0.2s0.5-0.2,1-0.2s1.4,0.4,1.9,0.4s0.5-0.2,1-0.2s0.3,0.2,0.8,0.2
						s0.8-0.2,1.1-0.4c0.3,0.1,0,0.4,0.5,0.4s-0.1-0.2,0.4-0.2s-0.1,0.2,0.4,0.2s-0.1-0.2,0.4-0.2s0.1,0.2,0.6,0.2s0.7-0.2,1.2-0.2
						s0.8,0,1,0.2c0.2,0,0.3-0.1,0.3-0.3c0.3,0,0.3,0.2,0.8,0.2s0.5-0.2,1-0.2s1.1,0.2,1.7,0.2s1.1-0.2,1.7-0.2s0.6,0.1,0.8,0.1
						c1,0,2,0,3.1,0.1c0.1,0.1-0.2,0.1,0.3,0.1s1.9-0.3,2.8-0.5h0.7c0,0.1-0.4,0.1-0.8,0.4h1.5c0.5,0,0.2-0.2,0.8-0.2
						c0.3,0,0.4,0,0.6,0.1c0.1,0,0.2,0,0.3,0.1c0.1,0,0.2,0,0.2,0c0.2,0,0.1-0.2,0.2-0.2c0.1,0,0.1,0.2,0.3,0.2c0.2,0,0-0.3,0-0.4
						c0-0.1,0-0.1,0.1-0.3l0,0l0-0.2c0-0.1,0-0.2,0-0.3c0-0.2,0-0.4,0-0.5c0-0.4,0.1-1.3-0.2-1.5c0.1-0.3,0.2-0.7,0.4-0.9
						c0-0.6,0.1-0.7-0.1-0.7c-0.2,0-0.1,0.4-0.3,0.4c0.2-0.5,0.3-1.1,0.3-1.6c0-0.1-0.2-1.1-0.5-1.3v-0.8c0.2,0,0.4-0.4,0.5-0.6
						c0-0.2-0.1-0.3-0.4-0.3c0.2-0.5,0.3-0.9,0.3-1.4s-0.4-1.4-0.4-1.9s0.2-0.3,0.2-0.8c0-0.5,0-0.4-0.2-0.5c0.1-0.3,0.3,0,0.3-0.6
						s-0.2,0.1-0.2-0.4s0.2-0.5,0.2-1c0-0.9,0-1.1-0.5-1.3v-0.8c0.2,0,0.5-0.3,0.5-0.6c0-0.5-0.2,0.1-0.2-0.4s0.2,0.1,0.2-0.4
						c0-0.5-0.2-0.8-0.3-1.1c-0.1-0.3,0-0.6,0-1.1c0-0.5,0.4-2.6,0.4-3.1c0-1.8-0.4-1.2-0.4-2.1c0-0.9,0.4-0.3,0.4-2.1
						c0-0.5-0.2-1.1-0.2-1.7s0.2-1.4,0.4-2c0-0.2-0.1-0.3-0.3-0.3V4.1c0-0.2,0.2-0.2,0.2-0.4c0.1-0.1,0.2-0.2,0.3-0.3V3.1
						c0-0.2-0.1-0.1-0.2,0c-0.1,0.1-0.2,0.1-0.3,0.2c-0.2,0-0.4,0-0.6,0.1c-0.1,0.1,0,0.1-0.1,0.2c-0.5,0-1.4-0.1-1.9-0.2
						c-0.2,0-0.3,0.2-0.3,0.4c-0.3-0.1-0.9,0-1.3,0c-0.5,0.1-1,0.3-1.4,0.4c-0.2,0-0.4-0.2-0.4-0.3c0,0-0.3,0.1-0.5,0.1
						c-0.3,0.1-0.5,0.1-0.5,0.1c-0.1,0.1-0.1,0.3-0.1,0.4c0,0-0.3,0.1-0.5,0.1c-0.3,0.1-0.5,0.1-0.5,0.1c-0.5,0.1-0.3-0.1-0.7,0
						c-0.5,0.2-0.6,0.2-0.6,0.4c-1.4,0.2-0.6-0.2-2,0.3c-0.8,0.3-1.6,1.1-1.9,1.2c-0.4,0.2-1,0.1-1.4,0.3c-0.4,0.2,0,0.2-0.5,0.4
						c-0.4,0.2,0-0.2-0.4,0c-0.4,0.2-1.4,1-1.8,1.5c-0.1,0.1,0,0-0.4,0.3c-0.2,0.1-0.5,0.3-0.7,0.4c-0.2,0.1-0.6,0.2-0.6,0.2
						l-0.2,0.1c0,0.1,0.1,0.2,0.1,0.3c-0.4-0.1-0.7-0.1-1.1,0.2c-0.1-0.1,0.1-0.2-0.1-0.4c-0.3-0.4-0.9,0-1.2-0.3
						c-0.1-0.2-0.1-0.1-0.1-0.2c0.1-0.1,0.6-0.7,0.3-1c-0.1-0.2-0.3-0.1-0.3-0.2c0.4-0.3,0.3-0.7,0.5-0.8c0.1-0.1,0.2-0.1,0.3-0.1
						c0,0,0,0,0.1,0c0.1,0,0.1-0.1,0.2-0.1c0.1-0.1,0.2-0.1,0.3-0.2c0.4-0.3,0.5-0.6,1-0.9c0.5-0.3,0.2,0,0.4-0.1
						c0.7-0.4,1.9-0.9,2.4-1.2c0.5-0.3,0.9-0.4,1.2-0.6c0.3-0.2,0.5-0.6,1-0.8c0.5-0.2,0.2,0,0.4,0c0.4-0.1,1-0.4,1.5-0.6
						c0.5-0.2,1.5-0.6,2.4-1c0.1,0.1-0.1,0.2-0.3,0.3c0,0.1,0.5,0,0.7,0.1C62.1,2.3,62,2.2,62.5,2c0.5-0.2,0.4,0,0.6,0
						c0.3-0.2,0.7-0.2,0.6-0.4c-0.1-0.2-0.5,0-0.5-0.1l1.2-0.3c0.3,0.1,0.7,0.2,1.2,0.1c0.5-0.1-0.1-0.2,0.4-0.3
						c0.5-0.1-0.1,0.2,0.5,0.1c0.5-0.1,0.3-0.2,0.8-0.3c0.5-0.1,0.6,0.1,1.1,0c0.5-0.1,1.4-0.2,2-0.4c0.3-0.1,0.9-0.3,1.5-0.4
						c0.1,0.1-0.7,0.2-0.8,0.4c0.9,0,2,0,2.9,0c0.1,0,0.2,0,0.3,0l0.2,0c0,0,0.1,0,0.1,0.1c0,0.2,0,0.5,0,0.7c0,0.4,0,0.7,0,1
						c0,0.4,0,0.9,0,1.3c0,0.4,0,0.9,0.1,1h0.1c0,0.6-0.1,0.2-0.2,0.4c0,0.2,0.1,0.3,0.3,0.3c0,0.3-0.2,0.1-0.2,0.6
						c0,0.5,0,0.2,0.2,0.2c0,0.3-0.2,0.4-0.4,0.4c0,1,0,2.2,0,3.3c-0.1,0.1-0.1-0.2-0.1,0.3c0,0.5,0.4,2,0.4,2.5s-0.4,0.7-0.4,1.2
						c0,0.5,0.2-0.1,0.2,0.4c0,0.5-0.2,1-0.4,1.2c0,0.2,0.1,0.3,0.3,0.3v0.8c-0.1,0-0.2,0.4-0.3,0.6c0,0.1,0.2,0.5,0.5,0.7v0.8
						c-0.1,0-0.2-0.4-0.3-0.4c-0.1,0.2-0.1-0.1-0.1,0.4c0,0.5,0.4,0.9,0.4,1.5c0,0.5-0.2,0.3-0.2,0.8s0.2,0.3,0.2,0.8
						s-0.2,0.1-0.2,0.6c0,0.5,0,0.4,0.2,0.5c-0.1,0.3-0.2,0.6-0.3,0.9s0,1,0,1.5s0,1.1,0,1.5c0,0.2,0.1,0.4,0.3,0.7c0,0,0-0.2,0,0.3
						s-0.2,0.7-0.3,1c-0.1,0.1,0,0.3,0,0.9c0,1.8,0.4,1.2,0.4,2.1c0,0.7-0.3,0.8-0.5,1.6v0.6c0.1,0.2,0,0.1,0.2,0.1
						c0.2,0,0.2-0.4,0.3-0.4v1.5c0,0.5-0.2,0.5-0.2,1.1c0,0.3,0,0.4,0,0.6c0,0.2,0.1,0.5,0.1,0.8c-0.1,0.1-0.2-0.7-0.3-0.7
						c-0.1,0.3-0.1-0.2-0.1,0.7c0,0.9,0.2,0.6,0.2,1.5c0,0.5,0,0.6-0.1,0.7c0,0,0,0.1-0.1,0.2c0,0,0,0.1,0,0.2c0,0.1,0,0.2-0.1,0.2
						c-0.3,0-0.6,0-0.9,0.1c-0.5,0.1-0.9,0.1-1.5,0.1c-0.4,0-0.8,0-1.1-0.1c-0.2,0-0.4-0.1-0.6-0.1c-0.5,0,0.1,0.2-0.4,0.2
						S69.8,40,69.3,40s-0.1,0.2-0.6,0.2s-1-0.2-1.2-0.4c-0.3,0.1-0.7,0-0.7,0.3s0.4,0.1,0.4,0.3c-0.7,0-0.7-0.2-1.2-0.2
						c-0.5,0-0.4,0-0.5,0.2C65,40.2,64.6,40,64.1,40s-0.7,0.2-1.1,0.2c-0.2,0-0.3-0.2-0.8-0.4v0.5h-1.6c0-0.1-0.4-0.2-0.6-0.3
						c-0.5,0.2-1.6,0.4-2.2,0.4s-1-0.2-1.2-0.4c-0.2,0-0.3,0.1-0.3,0.4c-0.9-0.2-2.5-0.3-3.1-0.3c-0.7,0-0.7,0-0.7,0.3h-1.1
						c-0.5,0-1.3-0.3-1.8-0.3s-0.3,0.2-0.8,0.2S48,40,47.5,40s-0.7,0.2-1.2,0.2s0.1-0.2-0.4-0.2s-0.3,0.2-0.8,0.2S44.3,40,43.8,40
						s-0.3,0.2-0.8,0.2S43,40,42.5,40s-0.3,0.2-0.8,0.2s-1-0.2-1.2-0.4c-0.2,0-0.3,0.1-0.3,0.3c-0.3,0-0.1-0.2-0.6-0.2
						s0.1,0.2-0.4,0.2s0.1-0.2-0.4-0.2c-0.1,0-0.3,0-0.3,0c-0.1,0-0.1,0-0.1,0c0,0,0.1,0.1,0,0.1c-0.3,0-1.1,0-1.7,0
						c-0.3,0-0.7,0-1,0c-0.2,0-0.3,0-0.5,0.1c-0.1,0-0.1,0-0.2,0c-0.1,0-0.1,0-0.1-0.1c0-0.5,0.2-0.8,0.3-1c0.1-0.6,0.3-1.2,0.3-2
						c0-0.2,0-0.5-0.1-0.8c-0.1-0.2-0.2-0.3-0.3-0.4l0.1-1.2c0.2-0.2,0.4-0.3,0.4-0.9c0.1-0.5-0.2-0.1-0.1-0.7
						c0.1-0.5,0.3-0.7,0.4-1.3c0.1-0.5,0.1-0.7,0.2-0.9c0-0.2-0.2-0.2-0.2-0.3c0-0.2,0.1-0.8,0.1-1.6c0.1,0,0.1,0.2,0.1,0.4
						c0.1,0,0.2-0.4,0.4-0.5c0-0.4,0-0.8,0.2-1.4c0.2-0.5,0.4-0.7,0.6-1.2c0.2-0.5-0.2,0,0-0.5c0.2-0.5,0.1-0.1,0.3-0.3
						c0.2-0.4,0.2-0.6,0.4-1.1c0.2-0.5,0.4-1,0.4-1.4l0,0c0.3-0.6,0.2-0.1,0.5-0.6c0.2-0.5,0-0.4,0.2-0.9c0.2-0.5,0.3-0.2,0.6-0.7
						c0.3-0.5-0.1-0.2,0.1-0.7c0.3-0.5,0.3-0.2,0.6-0.7c0.3-0.5,0.3-0.8,0.3-1.2c0.4-0.4,1-0.9,1.3-1.4c0.3-0.4,0-0.4,0.3-0.8
						c0.3-0.4,0.2,0,0.5-0.4c0.3-0.4,0.2-0.4,0.2-0.5c0.2-0.2,0.4-0.2,0.5-0.1c0,0,0.6-0.7,1.2-1.4c0.6-0.7,1.2-1.4,1.2-1.4
						c0.4-0.4-0.2,0,0.2-0.4c0.4-0.4,0.2,0,0.6-0.3c0.4-0.4,0.1-0.3,0.5-0.7c0.4-0.4,0.4-0.1,0.7-0.5c0.2-0.2,0.1-0.2,0.1-0.3
						c0.2,0,0.4,0,0.6,0.1c0.2-0.1,0.6-0.3,0.8-0.2c0,0,0-0.2-0.1-0.3l0.2-0.2c0.2-0.1,0.3,0,0.4-0.1c0.1,0.1,0.3,0,0.4,0.2
						c0.1,0.2-0.1,0.2,0.1,0.4c0.1,0.2,0.3,0.2,0.6,0.1c0,0.4,0.1,0.7,0.1,1c-0.1,0.1-0.3,0-0.4,0.1l0.3,0.4l-0.2,0.2
						c-0.2,0.1-0.1,0-0.2,0c0,0,0,0.2,0.1,0.3c-0.1,0.1-0.2,0-0.2,0c-0.1,0.1-0.3,0.2-0.4,0.3l-0.2,0.2c-0.1,0.1-0.3,0.2-0.4,0.4
						c-0.6,0.5-1.1,0.9-1.3,1.1c-0.3,0.4-0.7,0.7-0.9,1.1C47.3,15.4,47.6,15.2,47.8,15.2z"/>
				</g>
			</g>
		</g>
		<g>
			<path fill="#27C1AE" d="M73.1,2.1v36.6v0v36.5c7.5,0,14.5-2.3,20.3-6.1c9.8-6.6,16.3-17.8,16.3-30.5v0c0-20-16-36.2-35.9-36.6
				c0,0-0.1,0-0.1,0C73.6,2.1,73.3,2.1,73.1,2.1z M73.8,39.2l0-0.2L73.8,39.2L73.8,39.2z"/>
			<g>
				<g>
					<g>
						<path fill-rule="evenodd" clip-rule="evenodd" fill="#3A494F" d="M71.7,39c0.1,0,0.1,0,0.2,0c0.1,0,0.2,0,0.3,0
							c0,0,0.2,0,0.2,0l-0.2,0l0.2,0L72,39l0.2,0L72,39c0,0,0.4,0,0.5,0c-0.2,0-0.3,0-0.3,0s0.2,0,0.3,0l0,0l-0.2,0l0.2,0
							c0,0-0.2,0-0.5,0c0.2,0,0.5,0,0.5,0l-0.3,0l0.2,0l-0.2,0l0.4,0l-0.2,0l0.2,0l-0.3,0l0.2,0c0,0-0.1,0-0.2,0c0,0,0.2,0,0.4,0
							l0,0c-0.2,0-0.2,0-0.4,0c0,0,0.2,0,0.2,0l-0.2,0l0.4,0l-0.2,0l0.2,0c0,0-0.2,0-0.3,0c0.1,0,0.3,0,0.3,0l-0.2,0l0.2,0l-0.2,0
							l0.2,0l-0.2,0c0,0,0,0,0.2,0c0,0-0.1,0-0.3,0c0,0,0.2,0,0.2,0l-0.2,0l0.2,0l-0.2,0c0,0,0.1,0,0.1,0c0,0,0,0,0,0l0,0
							c0.9-0.2,1.8-0.4,2.6-0.7l0,0l0,0c0,0,0,0,0,0c-0.1,0-0.1,0.1-0.1,0.1s0.3-0.2,0.4-0.3l0,0c-0.1,0.1-0.1,0.1-0.3,0.2l0,0
							c0,0,0.2-0.1,0.2-0.1L75,38.3l0.1-0.1L75,38.3l0.1-0.1L75,38.3c0,0,0,0,0.1-0.1c-0.1,0.1-0.2,0.1-0.3,0.2c0,0-0.1,0.1,0.1-0.1
							c0.2-0.1,0.1-0.1,0.2-0.1c-0.2,0.1-0.3,0.2-0.3,0.2s0.2-0.1,0.4-0.3l0,0c-0.2,0.1-0.3,0.2-0.4,0.3c0,0,0.1-0.1,0.3-0.2
							c-0.2,0.1-0.3,0.2-0.3,0.2l0.3-0.2L75,38.3c0,0,0,0,0.1-0.1c-0.1,0.1-0.3,0.2-0.3,0.2l0.1-0.1l-0.1,0.1c0,0,0,0,0.4-0.3l0,0
							c-0.1,0.1-0.4,0.3-0.4,0.3l0.1-0.1l-0.1,0.1c0,0,0.2-0.1,0.3-0.2c0,0,0,0,0,0c0,0.7,0,1.3,0,1.8l0,0c0,0,0,0,0,0l0,0l-0.3-0.2
							l0.3,0.2l-0.3-0.2l0.1,0.1c0,0-0.2-0.1-0.3-0.2c0,0,0.1,0.1,0.3,0.2l0,0c0,0-0.1-0.1-0.2-0.1c-0.1,0-0.2-0.1-0.3-0.2l0,0
							c0,0,0.1,0.1,0.3,0.2c0,0,0,0,0,0c0,0,0.1,0.1,0.1,0.1s-0.2-0.1-0.3-0.2c0,0,0.1,0.1,0.3,0.2c-0.1-0.1-0.1-0.1-0.1-0.1
							s0.1,0,0.1,0.1c0,0-0.2-0.1-0.3-0.2l0,0c0.1,0,0.2,0.1,0.3,0.2l0,0c0,0-0.1-0.1-0.1-0.1s0,0,0.1,0.1c-0.2-0.1-0.3-0.2-0.3-0.2
							l0.3,0.2l-0.3-0.2l0.1,0.1l-0.1-0.1c0,0,0.1,0.1,0.3,0.2c0,0,0,0,0,0s-0.2-0.1-0.3-0.2l0,0c0.1,0,0.2,0.1,0.3,0.2
							c-0.3-0.2-0.5-0.3-0.5-0.3c-0.1-0.1-0.1-0.1-0.3-0.2c-0.4-0.3-0.5-0.3-0.8-0.5c-0.2-0.1-0.1-0.1-0.2-0.1c0,0-0.1-0.1-0.5-0.3
							c-0.2-0.1-0.2-0.1-0.3-0.2c0,0-0.3-0.2-0.3-0.2l0.1,0.1l-0.1-0.1c0,0,0.1,0.1,0.1,0.1c0,0,0.2,0.1,0.2,0.1s0.1,0,0,0
							c-0.1-0.1-0.3-0.2-0.3-0.2s0.1,0.1,0.1,0.1c0,0,0,0,0,0s0,0-0.1-0.1c0.1,0.1,0.1,0.1,0.2,0.1c0.1,0,0.1,0.1,0.2,0.2
							c0,0-0.2-0.1-0.2-0.1s0.1,0.1,0.1,0.1c-0.1,0,0,0-0.2-0.1c-0.2-0.1-0.1-0.1-0.2-0.1l0,0c0.2,0.1,0.3,0.2,0.3,0.2l-0.1-0.1
							l0.1,0.1l-0.1-0.1l0.1,0.1c0,0-0.1,0-0.2-0.1c-0.1,0-0.2-0.1-0.3-0.2c0.1,0.1,0.2,0.1,0.3,0.2c0,0,0.1,0.1,0.1,0.1
							s0,0-0.1-0.1l0,0c0,0,0.1,0.1,0.2,0.1c0,0-0.1-0.1-0.3-0.2c0,0,0.1,0.1,0.1,0.1s0,0-0.1-0.1c0,0,0.2,0.1,0.3,0.2c0,0,0,0,0,0
							c0.1,0,0.1,0.1,0.1,0.1l-0.3-0.2l0.3,0.2l-0.1-0.1c0,0,0.2,0.1,0.3,0.2c0,0-0.1-0.1-0.3-0.2l0,0c0.1,0.1,0.2,0.1,0.3,0.2
							c0,0.4,0,0.8,0,1.3l0,0c0,0,0,0-0.1,0.1c-0.1,0-0.2,0.1-0.3,0.2l0,0c0.1-0.1,0.2-0.1,0.2-0.2c0.1,0,0.1,0,0.1,0L72.4,40
							l0.1-0.1L72.4,40l0.1-0.1c0,0,0,0-0.1,0.1c0.1-0.1,0.2-0.1,0.3-0.2c0.1-0.1,0,0,0,0s0,0,0,0c0,0-0.1,0.1-0.2,0.2l0,0
							c0,0,0.2-0.1,0.3-0.2c0,0,0,0,0,0L72.3,40c0,0,0.3-0.2,0.4-0.3l0,0c-0.1,0,0,0-0.1,0.1c-0.2,0.1-0.2,0.1-0.3,0.2l0,0
							c0,0,0.1-0.1,0.1-0.1s-0.1,0-0.1,0.1c0.1-0.1,0.2-0.1,0.2-0.2c0.1,0,0.1,0,0.1,0l-0.1,0.1l0.1-0.1l-0.1,0.1l0.1-0.1l-0.1,0.1
							l0.1-0.1l-0.1,0.1c0,0,0.2-0.1,0.3-0.2c-0.1,0,0,0-0.2,0.1c-0.2,0.1-0.1,0.1-0.2,0.1c0,0,0.1-0.1,0.1-0.1s0,0-0.1,0.1
							c0.2-0.1,0.3-0.2,0.3-0.2l-0.1,0.1c0,0,0,0,0,0c0.8-0.2,1.7-0.4,2.8-0.7l0,0c-0.1,0-0.2,0-0.2,0l0.5,0l0,0c-0.1,0-0.2,0-0.3,0
							c0.2,0,0.4,0,0.4,0s-0.2,0-0.4,0c0,0,0.1,0,0.3,0c-0.2,0-0.3,0-0.3,0s0,0,0.3,0l0,0c0,0-0.3,0-0.3,0l0.2,0l-0.2,0l0.2,0
							l-0.2,0l0.2,0l-0.2,0l0.2,0l-0.2,0l0.2,0c0,0-0.2,0-0.4,0c0,0,0.1,0,0.3,0c0,0-0.2,0-0.2,0l0.2,0l-0.2,0c0,0,0.1,0,0.1,0
							c0.1,0-0.1,0,0.2,0c0,0-0.2,0-0.3,0c-0.1,0-0.2,0-0.2,0s0.2,0,0.5,0l0,0c-0.2,0-0.3,0-0.3,0l0.2,0l-0.2,0c0,0,0,0,0,0
							c0.1,0,0.2,0,0.3,0c0,0,0,0,0.2,0c-0.1,0-0.2,0-0.2,0c-0.1,0-0.1,0-0.3,0c0.1,0,0.2,0,0.2,0l-0.2,0l0.2,0c0,0-0.1,0-0.2,0
							c0,0,0,0,0,0s0,0,0.1,0l0.1,0l-0.2,0l0.2,0l-0.2,0l0.2,0l-0.2,0c0,0,0.2,0,0.3,0c-0.2,0-0.3,0-0.3,0l0.2,0l-0.2,0
							c0,0,0,0,0.2,0c0,0-0.2,0-0.3,0l0,0c0,0,0.2,0,0.2,0l-0.2,0l0.2,0l-0.2,0c0,0,0,0,0.2,0c-0.1,0-0.3,0-0.5,0c0,0-0.2,0-0.4,0
							c0,0,0.1,0,0.3,0l0,0c0,0-0.2,0-0.2,0c-0.2,0-0.2,0-0.4,0c-0.2,0-0.1,0-0.3,0c-0.2,0-0.4,0-0.5,0c-0.3,0-0.6-0.1-0.8-0.1
							c0,0,0.2,0,0.2,0L72,39l0,0c0,0,0.1,0,0.2,0c0,0-0.1,0-0.3,0c0,0,0.1,0,0.1,0c0,0,0.2,0,0.2,0s0,0-0.1,0
							C72,39,71.8,39,71.7,39z"/>
					</g>
				</g>
				<g>
					<g>
						<path fill-rule="evenodd" clip-rule="evenodd" fill="#3A494F" d="M75.2,8.9c-0.1,0.4-0.1,0.9-0.2,1.5
							c-0.1,0.2-0.2,0.1-0.3,0.4c0,0.9-0.2,1.5-0.2,2.2c0,0.8,0.2,0.2,0.2,0.9s-0.2,0.5-0.2,1.2c0,0.8,0.4,1.7,0.4,2.4
							s-0.2,0.2-0.2,0.9c0,0.8,0.2,0.5,0.2,1.2c0,0.8-0.4,1.5-0.5,2c0.2,1.1,0.4,3.6,0.4,4.4c0,1.5-0.2,0.9-0.3,2.3c0,0,0-0.3,0,0.4
							c0,0.8,0.2,0.5,0.2,1.2c0,0.8-0.2,0.5-0.2,1.2c0,0.3,0.2,1,0.5,1.3c-0.2,1-0.5,2.2-0.5,2.9c0,0.8,0.4,2.6,0.4,3.3
							c0,0.8-0.2,0.2-0.2,0.9c0,0.8,0.2,0.8,0.2,1.5c0,1.5-0.4,0.2-0.4,1.2c0,0.8,0.2,0.2,0.2,0.9c0,0.8-0.2,1.1-0.2,1.8
							c0,0.8,0.4,3.8,0.4,4.5c0,0.8-0.2,2-0.2,2.7c0,0.8,0.1,1.9,0.2,2.5c0,0.3-0.2,0.5-0.4,0.4v4.9c0.2-0.3,0.2-0.6,0.4-0.6
							c0,0.4-0.2,0.4-0.2,1.2s0.2,0.8,0.2,1.5c0,0.8-0.4,2-0.4,2.7c0,0.8,0.2,0.8,0.2,1.5c0,0.8-0.2,0.5-0.2,1.2
							c0,0.8,0.2,1.2,0.4,1.6c-0.1,0.4-0.4,0-0.4,0.8c0,0.8,0.2-0.2,0.2,0.6c0,0.8-0.2-0.2-0.2,0.6c0,0.8,0.2-0.2,0.2,0.6
							c0,0.8-0.2,0.2-0.2,0.9c0,0.1,0,0.2,0,0.2c0,0,0,0.1,0,0.1c0,0.1,0,0.1,0.1,0.1c0,0.1,0.1,0.1,0.1,0.3c0,0.1,0,0.1,0,0.2
							c0,0,0.1,0,0.1,0c0.1,0,0.1,0.1,0.1,0.2c0.1,0,0.2-0.1,0.3-0.4c0.1,0,0.1,0,0.1,0.1c0,0,0,0,0.1,0.1c0,0,0,0,0.1,0
							c0.1,0,0.1,0,0.2,0c0.7,0,0.7-0.2,1.4-0.3c0.7-0.1,1.6,0,2.3-0.2c0.7-0.1,1.5-0.5,2.2-0.6c0.7-0.2,0.8-0.1,1.1-0.1
							c1.4-0.3,2.7-0.8,4.1-1.3c0.2,0-0.2,0.2,0.5,0c0.7-0.3,2.3-1.4,3.2-2.2l0.9-0.5c0.1,0.1-0.4,0.4-0.8,0.9c0,0,0.5-0.3,0.9-0.5
							c0.5-0.3,0.9-0.6,0.9-0.6c0.6-0.4,0.2-0.3,0.8-0.7c0.6-0.4,0.9-0.4,1.5-0.9c0.6-0.5,0.2-0.4,0.8-0.9c0.6-0.5,0.2,0,0.8-0.4
							c0.5-0.5,0.6-0.8,1.2-1.3c0.5-0.5,1.9-1.6,2.3-2.2c0.4-0.4,1.2-1.3,1.2-1.8c0.3-0.3,0.8-0.7,1.1-0.8c0.4-0.7,0.6-0.7,0.5-0.8
							c-0.2-0.1-0.4,0.4-0.5,0.3c0.5-0.5,1.2-1,1.5-1.7c0.1-0.2,0.6-1.4,0.5-1.8l0.5-0.9c0.2,0.1,0.6-0.4,0.8-0.5
							c0.1-0.2,0-0.4-0.1-0.6c0.5-0.6,0.8-1,1.1-1.7c0.2-0.7,0.3-1.9,0.5-2.6c0.2-0.7,0.3-0.4,0.5-1.1c0.2-0.7,0.1-0.6,0-0.7
							c0.2-0.4,0.3,0,0.5-0.7c0.2-0.7-0.2,0.1,0-0.6c0.2-0.7,0.3-0.7,0.4-1.4c0.2-1.3,0.2-1.6-0.3-1.8l0.1-1.1
							c0.2,0,0.6-0.4,0.6-0.9c0-0.7-0.2,0.1-0.2-0.6c0-0.7,0.2,0.2,0.2-0.6c0-0.7-0.2-1.1-0.3-1.6c-0.1-0.4-0.1-0.9-0.1-1.6
							c0.1-0.7-0.1-3.6-0.2-4.4c-0.5-2.5-0.8-1.6-1-2.7c-0.3-1.2,0.3-0.5-0.6-2.9c-0.2-0.7-0.7-1.4-1-2.1c-0.3-0.6-0.7-1.9-0.9-2.7
							c-0.1-0.2-0.3-0.3-0.5-0.2l-0.5-0.8c-0.4-0.6-0.2-0.6-0.4-1.1c0-0.2,0.1-0.2,0.1-0.5c0,0-0.5-0.7-0.5-0.7
							c-0.4-0.6-0.4-0.3-0.8-0.5c-0.4-0.4-0.9-1.2-1.2-1.6c-0.2-0.2,0,0.3-0.4-0.3c-0.5-0.5-1.2-1.6-1.6-2.3
							c-0.2-0.2-0.4-0.2-0.6-0.1c-0.3-0.4-0.8-1-1.3-1.5c-0.5-0.5-1.2-0.9-1.8-1.2c-0.3-0.2-0.2-0.5-0.1-0.5c0,0-0.3-0.2-0.6-0.5
							c-0.2-0.1-0.3-0.2-0.4-0.3c-0.1-0.1-0.2-0.1-0.2-0.1c-0.3-0.1-0.3,0.1-0.4,0.2l-1.3-0.8c-0.6-0.4-0.2-0.3-0.8-0.7
							c-0.6-0.4-0.8-0.4-0.9-0.3c-1.7-1.1-0.6-0.7-2.4-1.6c-1.2-0.5-2.8-0.7-3.1-0.8c-0.7-0.2-1.2-0.7-1.9-0.9
							c-0.7-0.2-0.2,0.1-0.9-0.1C80.9,4.2,81.7,4.2,81,4c-0.7-0.2-2.4-0.2-3.4-0.3c-0.2,0,0,0-0.7-0.1c-0.4,0-0.8-0.1-1.2-0.2
							c-0.4-0.1-0.9-0.2-0.8-0.3l-0.2,0c-0.1,0.1-0.1,0.2-0.1,0.3c-0.2-0.4-0.5-0.6-1-0.6c0-0.1,0.2-0.1,0.2-0.3
							c0-0.5-0.7-0.6-0.7-1c0-0.2,0-0.2,0.1-0.2c0.2,0,0.8-0.2,0.9-0.5c0-0.2-0.2-0.2-0.2-0.3c0.5,0,0.7-0.3,0.9-0.3
							c0.1,0,0.2,0.1,0.3,0.1c0,0,0,0,0.1,0c0.1,0,0.2,0,0.3,0c0.2,0,0.4,0.1,0.6,0.1c0.8,0.1,1.1-0.1,1.9,0
							c0.8,0.1,0.2,0.1,0.5,0.2c1.2,0.3,3,0.7,3.8,0.9c0.8,0.2,1.4,0.5,1.9,0.5c0.5,0,1.1-0.1,1.8,0.2c0.7,0.3,0.2,0.2,0.4,0.3
							C87,3,87.8,3.3,88.6,3.6c0.7,0.4,2.1,1,3.4,1.5c0,0.1-0.3,0-0.6-0.1c0,0.1,0.5,0.4,0.6,0.7c0.2,0.1,0.3,0,1,0.4
							c0.7,0.4,0.4,0.4,0.6,0.6C94,6.9,94.5,7.2,94.6,7c0.1-0.2-0.5-0.4-0.4-0.5c0,0,0.4,0.2,0.8,0.5c0.4,0.3,0.7,0.5,0.7,0.5
							c0.2,0.4,0.5,0.8,1.1,1.3c0.6,0.5,0-0.2,0.6,0.2c0.6,0.5-0.2,0,0.4,0.5c0.6,0.5,0.5,0.2,1,0.7c0.6,0.5,0.5,0.7,1,1.2
							c0.6,0.5,1.5,1.5,2.1,2c0.4,0.4,0.8,0.5,1.2,0.8c0,0.1-0.5-0.3-0.7-0.2c0.5,0.5,1,1.3,1.5,2c0.4,0.7,0.9,1.3,1.1,1.7
							c0.4,0.7,0.8,1.4,1.2,1.7l0,0c0.5,0.8,0.1,0.4,0.2,0.6c0.1,0.2,0.3,0.3,0.5,0.2c0.2,0.4-0.1,0.2,0.3,0.9
							c0.3,0.7,0.2,0.3,0.3,0.3c0.2,0.4,0.1,0.6-0.1,0.6c0.3,0.7,0.7,1.4,1,2.2c0.3,0.8,0.6,1.6,0.8,2.4c0,0.1-0.2-0.3,0,0.5
							c0.2,0.7,1.1,2.8,1.3,3.6c0.2,0.8-0.2,1.2,0,1.9c0.1,0.8,0.2-0.2,0.3,0.6c0.1,0.8,0.1,1.6-0.1,1.8c0,0.2,0.2,0.4,0.4,0.4
							l0.1,1.2c-0.1,0-0.2,0.7-0.3,0.9c0,0.2,0.2,0.8,0.6,1.1l0,1.2c-0.1,0-0.2-0.6-0.3-0.6c-0.1,0.3-0.1-0.1-0.1,0.6
							c0,0.8,0.3,1.4,0.2,2.2c-0.1,0.8-0.2,0.5-0.3,1.2c-0.1,0.8,0.1,0.5,0,1.3c-0.1,0.8-0.2,0.1-0.3,0.9c-0.1,0.8-0.1,0.6,0,0.7
							c-0.2,0.5-0.4,0.8-0.6,1.3c-0.2,0.5-0.4,1.4-0.6,2.2c-0.2,0.8-0.6,1.6-0.7,2.2c-0.1,0.3,0,0.6-0.1,1.1c0,0,0.2-0.3-0.1,0.4
							c-0.3,0.7-0.6,0.9-0.9,1.3c-0.1,0.2-0.2,0.5-0.6,1.2c-0.6,1.2-0.8,1.6-0.8,1.9c-0.1,0.3-0.1,0.4-0.4,1
							c-0.5,0.9-0.9,0.8-1.8,1.7c0,0-0.1,0.2-0.2,0.3c-0.1,0.2-0.3,0.3-0.3,0.3c-0.1,0.2-0.2,0.1,0,0.3c0.2,0.1,0.6-0.4,0.6-0.3
							c0,0-0.3,0.5-0.7,0.9c-0.2,0.2-0.3,0.5-0.5,0.6c-0.1,0.2-0.2,0.3-0.2,0.3c-0.5,0.6-0.7,0.5-1.2,1.1c-0.5,0.6-0.7,0.9-1,1.3
							c-0.2,0,0.2-0.5,0.2-0.6c-0.2,0.1,0.1-0.1-0.5,0.4c-0.6,0.6-0.2,0.5-0.8,1c-0.6,0.5-0.5,0.2-1,0.7c-0.6,0.5-1,1-1.6,1.5
							c-0.6,0.5-1,0.5-1.6,1c-0.6,0.5,0.2,0.1-0.4,0.5c-0.6,0.5-0.2,0-0.9,0.4c-0.7,0.4,0,0.2-0.7,0.7c-0.7,0.4-1.4,0.6-1.7,0.6
							c-0.4,0.3-0.9,0.5-0.8,0.7c0.1,0.2,0.6-0.2,0.6-0.1c-0.9,0.5-1,0.3-1.7,0.7c-0.7,0.3-0.6,0.3-0.6,0.5
							c-0.8,0.2-1.4,0.2-2.1,0.5c-0.7,0.3-1,0.6-1.6,0.8c-0.3,0.1-0.4,0-1.2,0l0.2,0.5c0,0-0.6,0.2-1.2,0.3
							c-0.6,0.1-1.2,0.3-1.2,0.3c-0.1-0.1-0.7,0-0.9-0.1c-0.8,0.4-2.4,0.8-3.2,0.9c-0.8,0.1-1.6,0-1.8-0.2c-0.2,0-0.4,0.2-0.4,0.4
							c-0.1,0-0.5,0-0.9,0c-0.3,0-0.7,0-1.1,0l-1.1,0l-0.5,0l-0.3,0l-0.1,0l0-0.1c0-1.5,0.1-2.8,0.1-3.4c0-1.1,0-1-0.3-1v-1.6
							c0-0.8,0.3-1.9,0.3-2.6s-0.2-0.5-0.2-1.2c0-0.8,0.2-1.4,0.2-2.1c0-0.8-0.2-1.1-0.2-1.8c0-0.8,0.2,0.2,0.2-0.6
							c0-0.8-0.2-0.5-0.2-1.2c0-0.8,0.2-1.1,0.2-1.8c0-0.8-0.2-0.5-0.2-1.2c0-0.8,0.2,0.2,0.2-0.6c0-0.8-0.2-0.5-0.2-1.2
							c0-0.8,0.2-1.5,0.4-1.7c0-0.2-0.1-0.4-0.3-0.4c0-0.4,0.2-0.1,0.2-0.9c0-0.8-0.2,0.2-0.2-0.6c0-0.8,0.2,0.2,0.2-0.6
							c0-0.8-0.1-0.3-0.1-0.5c-0.1-0.6,0.1-2.4-0.2-2.9c0-0.4,0.2-0.5,0.3-0.6c0.1-0.5,0.2-1,0.2-1.7c0-0.5-0.2-1-0.5-1.3v-1.7
							c0.2-0.4,0.3-0.5,0.3-1.3c0-0.8-0.2-0.2-0.2-0.9c0-0.8,0.2-1.1,0.2-1.8c0-0.8,0-1,0-1.3c-0.1-0.3-0.2-0.2-0.3-0.4
							c0-0.3,0-1.1-0.2-2.2c0.1-0.1,0.2,0.3,0.2,0.5c0.1,0,0.1-0.6,0.3-0.8c-0.1-0.5-0.2-1.2-0.2-1.9c0-0.8,0.2-1.1,0.2-1.8
							c0-0.8-0.2,0.2-0.2-0.6c0-0.8,0.1-0.2,0.2-0.5c0-0.6,0-0.9,0-1.6c0-0.8,0-1.5-0.1-2h-0.1c0-0.9,0.2-0.3,0.2-1
							c0-0.8-0.2-0.5-0.2-1.2c0-0.8,0.2-0.5,0.2-1.2c0-0.8-0.2-0.2-0.2-0.9c0-0.8,0.2-0.5,0.2-1.2s-0.2-1.2-0.4-1.6
							c0.2-0.7,0.4-1.8,0.4-2.6c0-0.8-0.2-0.5-0.2-1.2s0.2-0.2,0.2-0.9c0-0.8,0-0.6-0.2-0.6c0-0.4,0.2-0.6,0.3-0.5V8.5
							c0-0.8-0.2,0.2-0.2-0.6c0-0.8,0.2-0.2,0.2-0.9c0-0.8-0.2-0.5-0.2-1.2c0-0.8,0.2-0.5,0.2-1.2c0-0.3,0-0.2-0.2-0.2
							C71.8,4.2,72,4,72.2,3.9c0-0.2,0.2-0.6,0.4-0.7c0-0.1-0.1-0.1-0.4-0.1V2.8c0-0.2,0.2-0.2,0.2-0.4c0.2,0,0.2-0.2,0.4-0.2
							c0.2,0,0.1,0.2,0.4,0.2c0.2,0,0.4-0.2,0.5-0.3c0.3,0.2,0.6,0.4,0.8,0.5c0,0.1-0.2,0.2-0.2,0.3h0.5v0.3c0,0.2-0.1,0.1-0.2,0.1
							c0,0.1,0.1,0.1,0.3,0.1c0,0.1-0.1,0.1-0.1,0.2c0,0.2,0,0.3,0,0.5l0,0.3c0,0.3,0,0.6,0,0.8c0,1.2-0.1,2.2-0.1,2.6
							c0,0.8,0,1.6,0.1,2.1C74.9,9.7,75.1,9.1,75.2,8.9z"/>
					</g>
				</g>
			</g>
		</g>
		<g>
			<polygon fill="#828282" points="73.8,39.1 73.8,39.2 73.8,39 			"/>
			<g>
				<g>
					<path fill-rule="evenodd" clip-rule="evenodd" fill="#3A494F" d="M75.6,40.3c0,0-0.1-0.1-0.1-0.1c-0.1,0-0.2-0.1-0.2-0.2
						c0,0-0.2-0.1-0.2-0.1l0.1,0.1L75,39.9l0.3,0.2L75.1,40l0.1,0.1c0,0-0.3-0.2-0.4-0.3c0.1,0.1,0.3,0.2,0.3,0.2s-0.2-0.1-0.3-0.2
						l0,0l0.1,0.1l-0.1-0.1c0,0,0.2,0.1,0.4,0.3c-0.2-0.1-0.4-0.3-0.4-0.3l0.3,0.2L75,39.9l0.1,0.1l-0.3-0.2L75,40l-0.1-0.1l0.3,0.2
						L75,40c0,0,0.1,0,0.1,0.1c0,0-0.2-0.1-0.3-0.2l0,0l0,0l0,0c-0.8-0.3-1.5-0.5-2.3-0.8l0,0l0,0l0,0c-0.2,0-0.2,0-0.4,0
						c0,0,0.2,0,0.2,0l-0.2,0l0.4,0l-0.2,0l0.2,0c0,0-0.2,0-0.3,0c0.1,0,0.3,0,0.3,0l-0.2,0l0.2,0l-0.2,0l0.2,0l-0.2,0
						c0,0,0,0,0.2,0c0,0-0.1,0-0.3,0c0,0,0.2,0,0.2,0l-0.2,0l0.2,0l-0.2,0c0,0,0.1,0,0.1,0c0,0,0,0,0.1,0c0.1,0,0.1,0,0.1,0
						S72.2,39,72,39l0,0c0.1,0,0.1,0,0.4,0l0,0c0,0-0.2,0-0.2,0l0.2,0l-0.2,0l0.2,0l-0.2,0l0.2,0c0,0,0.1,0-0.2,0c0.1,0,0.2,0,0.4,0
						c0,0,0.1,0-0.1,0c-0.2,0-0.1,0-0.3,0c0.2,0,0.3,0,0.3,0s-0.2,0-0.5,0l0,0c0.2,0,0.4,0,0.5,0c0,0-0.1,0-0.4,0c0.2,0,0.3,0,0.3,0
						l-0.3,0l0.2,0c0,0,0,0-0.2,0c0.1,0,0.3,0,0.3,0l-0.2,0l0.2,0c0,0,0,0-0.5,0l0,0c0.2,0,0.5,0,0.5,0l-0.2,0l0.2,0
						c0,0-0.2,0-0.3,0c-0.1,0,0,0,0,0l0.4,0l-0.3,0l0.4,0l-0.2,0c0,0,0.9-0.2,2.6-0.7l0,0c0,0,0,0,0,0c0,0,0,0-0.1,0
						c-0.1,0-0.1,0.1-0.2,0.1c0,0,0.1-0.1,0.3-0.2l0,0c0,0-0.1,0.1-0.2,0.1c-0.1,0-0.2,0.1-0.3,0.2l0,0c0,0,0.1-0.1,0.3-0.2
						c0,0,0,0,0.1,0c0,0,0.1-0.1,0.1-0.1s-0.2,0.1-0.3,0.2c0,0,0.1-0.1,0.3-0.2c-0.1,0.1-0.1,0.1-0.1,0.1s0.1,0,0.1-0.1
						c0,0-0.2,0.1-0.3,0.2l0,0c0.1,0,0.2-0.1,0.3-0.2l0,0c0,0-0.1,0.1-0.1,0.1s0,0,0.1-0.1c-0.2,0.1-0.3,0.2-0.3,0.2l0.3-0.2
						l-0.3,0.2l0.1-0.1l-0.1,0.1c0,0,0.1-0.1,0.3-0.2c0,0,0,0,0,0s-0.2,0.1-0.3,0.2l0,0c0.1,0,0.2-0.1,0.3-0.2
						c-0.3,0.2-0.5,0.3-0.4,0.3c-0.1,0.1-0.1,0.1-0.3,0.2c-0.4,0.3-0.5,0.3-0.8,0.5c-0.2,0.1-0.1,0.1-0.2,0.1c0,0-0.1,0.1-0.5,0.3
						c-0.2,0.1-0.2,0.1-0.3,0.2c0,0-0.3,0.2-0.3,0.2l0.1-0.1l-0.1,0.1c0,0,0.1-0.1,0.1-0.1c0,0,0.2-0.1,0.2-0.1s0.1,0,0,0
						c-0.1,0.1-0.3,0.2-0.3,0.2s0.1-0.1,0.1-0.1c0,0,0,0,0,0s0,0-0.1,0.1c0.1-0.1,0.1-0.1,0.2-0.1c0.1,0,0.1-0.1,0.2-0.2
						c0,0-0.2,0.1-0.2,0.1s0.1-0.1,0.1-0.1c-0.1,0,0,0-0.2,0.1c-0.2,0.1-0.1,0.1-0.2,0.1l0,0c0.2-0.1,0.3-0.2,0.3-0.2L72.3,40
						l0.1-0.1L72.3,40l0.1-0.1c0,0-0.1,0-0.2,0.1c-0.1,0-0.2,0.1-0.3,0.2c0.1-0.1,0.2-0.1,0.3-0.2c0,0,0.1-0.1,0.1-0.1s0,0-0.1,0.1
						l0,0c0,0,0.1-0.1,0.1-0.1c0,0-0.1,0.1-0.3,0.2c0,0,0.1-0.1,0.1-0.1s0,0-0.1,0.1c0,0,0.2-0.1,0.3-0.2l0,0l0,0
						c1-0.3,2-0.5,2.8-0.7l0,0l0,0c0,0,0,0,0,0c-0.1,0-0.1,0-0.1,0l0.3,0l-0.4,0l0.2,0c0,0-0.2,0-0.4,0c0,0,0.1,0,0.3,0l0,0
						c-0.1,0-0.2,0-0.3,0c0,0,0.2,0,0.5,0l0,0c-0.1,0-0.2,0-0.3,0c-0.1,0-0.1,0-0.1,0l0.3,0l-0.2,0l0.2,0l-0.2,0c0,0,0,0,0.2,0
						c-0.1,0-0.2,0-0.3,0c-0.1,0,0,0,0,0s0,0,0,0c0,0,0.1,0,0.3,0l0,0c0,0-0.2,0-0.3,0c-0.1,0,0,0,0,0l0.3,0c0,0-0.3,0-0.5,0l0,0
						c0.1,0,0,0,0.2,0c0.2,0,0.2,0,0.3,0l0,0c0,0-0.2,0-0.2,0s0.1,0,0.2,0c-0.1,0-0.2,0-0.3,0c-0.1,0-0.1,0-0.1,0l0.2,0l-0.2,0
						l0.2,0l-0.2,0l0.2,0l-0.2,0l0.2,0c0,0-0.2,0-0.4,0c0.1,0,0,0,0.3,0c0.2,0,0.1,0,0.2,0c0,0-0.2,0-0.2,0s0,0,0.2,0
						c-0.2,0-0.3,0-0.3,0l0.2,0c0,0-0.2,0-0.4,0l0.5,0l0,0c-0.1,0-0.2,0-0.3,0c0.2,0,0.4,0,0.4,0s-0.2,0-0.4,0c0,0,0.1,0,0.3,0
						c-0.2,0-0.3,0-0.3,0s0,0,0.3,0l0,0c0,0-0.3,0-0.3,0l0.2,0l-0.2,0l0.2,0l-0.2,0l0.2,0l-0.2,0l0.2,0l-0.2,0c0,0-0.9-0.3-2.5-0.9
						l0,0c0,0,0,0,0,0c0,0,0,0-0.1,0c0,0-0.1,0-0.1,0s0.2,0.1,0.3,0.2c0,0-0.1-0.1-0.3-0.2c0,0,0.1,0.1,0.1,0.1l-0.1-0.1l0.1,0.1
						c0,0-0.1,0-0.1-0.1c0,0,0.1,0.1-0.2-0.1c0,0,0.2,0.1,0.2,0.1c0.1,0,0.2,0.1,0.2,0.1s-0.2-0.1-0.4-0.3l0,0
						c0.2,0.1,0.3,0.2,0.3,0.2l-0.1-0.1l0.1,0.1c0,0,0,0,0,0c-0.1,0-0.2-0.1-0.2-0.2c0,0,0,0-0.2-0.1c0.1,0.1,0.1,0.1,0.2,0.1
						c0.1,0,0.1,0.1,0.2,0.2c-0.1,0-0.1-0.1-0.1-0.1l0.1,0.1l-0.1-0.1c0,0,0.1,0.1,0.1,0.1c0,0,0,0,0,0s0,0-0.1-0.1l0,0l0.1,0.1
						l-0.1-0.1l0.1,0.1l-0.1-0.1l0.1,0.1c0,0-0.1-0.1-0.3-0.2c0.2,0.1,0.3,0.2,0.3,0.2l-0.1-0.1l0.1,0.1c0,0,0,0-0.1-0.1
						c0,0,0.2,0.1,0.3,0.2l0,0c0,0-0.2-0.1-0.2-0.1l0.1,0.1l-0.1-0.1l0.1,0.1c0,0,0,0-0.1-0.1c0.1,0.1,0.2,0.2,0.4,0.3
						c0,0,0.2,0.1,0.3,0.2c0,0-0.1-0.1-0.3-0.2l0,0c0,0,0.1,0.1,0.2,0.1c0.1,0.1,0.1,0.1,0.3,0.2c0.2,0.1,0.1,0.1,0.3,0.2
						c0.2,0.1,0.3,0.2,0.4,0.3c0.3,0.2,0.5,0.3,0.7,0.5c0,0-0.1-0.1-0.2-0.1l0.4,0.3l0,0c0,0-0.1-0.1-0.1-0.1c0,0,0.1,0.1,0.3,0.2
						c0,0-0.1,0-0.1-0.1c0,0-0.2-0.1-0.2-0.1s0,0,0,0C75.3,40.1,75.5,40.2,75.6,40.3z"/>
				</g>
			</g>
		</g>
	</g>
	<g>
		<path fill="#3A494F" d="M133.8,35.4c0.2,0,0.4,0.1,0.6,0.2c0.2,0.2,0.2,0.4,0.2,0.6c0,0.2-0.1,0.4-0.2,0.6
			c-0.2,0.2-0.4,0.2-0.6,0.2h-0.4c-0.1,0-0.1,0-0.1,0.1V38c0,0.4-0.1,0.8-0.2,1c-0.1,0.2-0.3,0.4-0.6,0.6c-0.3,0.2-0.8,0.3-1.5,0.3
			c0,0,0,0,0,0c-0.2,0-0.4-0.1-0.6-0.2c-0.2-0.2-0.4-0.4-0.5-0.6c0-0.1,0-0.1,0-0.2c0-0.1,0-0.2,0.1-0.3c0.1-0.2,0.3-0.3,0.5-0.3
			h0.3c0.1,0,0.2,0,0.3,0c0.1,0,0.1,0,0.2,0c0.1,0,0.2,0,0.2-0.1c0,0,0.1-0.1,0.1-0.2v-0.7c0-0.1,0-0.1-0.1-0.1h-5.1
			c-0.1,0-0.1,0-0.1,0.1v1.8c0,0.2-0.1,0.4-0.3,0.6c-0.2,0.2-0.4,0.3-0.6,0.3s-0.5-0.1-0.6-0.3c-0.2-0.2-0.3-0.4-0.3-0.6v-1.8
			c0-0.1,0-0.1-0.1-0.1h-0.4c-0.2,0-0.4-0.1-0.6-0.2s-0.2-0.4-0.2-0.6c0-0.2,0.1-0.4,0.2-0.6s0.4-0.2,0.6-0.2h0.4
			c0.1,0,0.1,0,0.1-0.1V32c0-0.3,0.1-0.5,0.3-0.7s0.5-0.3,0.7-0.3h2.4c0.1,0,0.1,0,0.1-0.1v-0.3c0-0.1,0-0.1-0.1-0.1h-3.4
			c-0.2,0-0.4-0.1-0.6-0.2s-0.2-0.4-0.2-0.6c0-0.2,0.1-0.4,0.2-0.6s0.4-0.2,0.6-0.2h9c0.2,0,0.4,0.1,0.6,0.2s0.2,0.4,0.2,0.6
			c0,0.2-0.1,0.4-0.2,0.6s-0.4,0.2-0.6,0.2h-3.5c-0.1,0-0.1,0-0.1,0.1v0.3c0,0.1,0,0.1,0.1,0.1h2.5c0.3,0,0.5,0.1,0.7,0.3
			s0.3,0.5,0.3,0.7v3.3c0,0.1,0,0.1,0.1,0.1H133.8z M127.9,32.7c0-0.1,0-0.1-0.1-0.1h-1.5c-0.1,0-0.1,0-0.1,0.1v0.4
			c0,0.1,0,0.1,0.1,0.1h1.5c0.1,0,0.1,0,0.1-0.1V32.7z M126.3,34.7c-0.1,0-0.1,0-0.1,0.1v0.5c0,0.1,0,0.1,0.1,0.1h1.5
			c0.1,0,0.1,0,0.1-0.1v-0.5c0-0.1,0-0.1-0.1-0.1H126.3z M131.5,32.7c0-0.1,0-0.1-0.1-0.1h-1.6c-0.1,0-0.1,0-0.1,0.1v0.4
			c0,0.1,0,0.1,0.1,0.1h1.6c0.1,0,0.1,0,0.1-0.1V32.7z M129.7,35.3c0,0.1,0,0.1,0.1,0.1h1.6c0.1,0,0.1,0,0.1-0.1v-0.5
			c0-0.1,0-0.1-0.1-0.1h-1.6c-0.1,0-0.1,0-0.1,0.1V35.3z"/>
		<path fill="#3A494F" d="M142.7,37.3c0,0.1,0,0.1,0.1,0.1h3.7c0.2,0,0.4,0.1,0.6,0.3s0.3,0.4,0.3,0.6s-0.1,0.4-0.3,0.6
			c-0.2,0.2-0.4,0.3-0.6,0.3H137c-0.2,0-0.4-0.1-0.6-0.3c-0.2-0.2-0.3-0.4-0.3-0.6s0.1-0.4,0.3-0.6c0.2-0.2,0.4-0.3,0.6-0.3h3.7
			c0.1,0,0.1,0,0.1-0.1v-1.9c0-0.1,0-0.1-0.1-0.1h-2.2c-0.2,0-0.4-0.1-0.6-0.3s-0.3-0.4-0.3-0.6c0-0.2,0.1-0.4,0.3-0.6
			s0.4-0.3,0.6-0.3h2.2c0.1,0,0.1,0,0.1-0.1v-1.6c0-0.1,0-0.1-0.1-0.1h-2.1c-0.1,0-0.1,0-0.2,0.1c-0.2,0.3-0.3,0.5-0.4,0.8
			c-0.1,0.2-0.3,0.3-0.6,0.4c-0.1,0-0.1,0-0.2,0c-0.2,0-0.4-0.1-0.6-0.2c-0.2-0.1-0.3-0.3-0.4-0.6c0-0.1,0-0.1,0-0.2
			c0-0.2,0.1-0.4,0.2-0.5c0.2-0.3,0.5-0.7,0.7-1.1c0.2-0.5,0.4-1,0.6-1.5c0.1-0.3,0.2-0.5,0.5-0.6c0.2-0.1,0.3-0.1,0.5-0.1
			c0.1,0,0.1,0,0.2,0c0.3,0.1,0.4,0.2,0.6,0.4c0.1,0.1,0.1,0.3,0.1,0.4c0,0.1,0,0.2-0.1,0.3c-0.1,0.2-0.1,0.4-0.2,0.6c0,0,0,0,0,0.1
			c0,0,0,0,0.1,0h1.3c0.1,0,0.1,0,0.1-0.1v-1.1c0-0.3,0.1-0.5,0.3-0.7c0.2-0.2,0.4-0.3,0.7-0.3c0.3,0,0.5,0.1,0.7,0.3
			c0.2,0.2,0.3,0.4,0.3,0.7v1.1c0,0.1,0,0.1,0.1,0.1h3c0.2,0,0.5,0.1,0.6,0.3c0.2,0.2,0.3,0.4,0.3,0.6s-0.1,0.5-0.3,0.6
			c-0.2,0.2-0.4,0.3-0.6,0.3h-3c-0.1,0-0.1,0-0.1,0.1v1.6c0,0.1,0,0.1,0.1,0.1h2.5c0.2,0,0.4,0.1,0.6,0.3s0.3,0.4,0.3,0.6
			c0,0.2-0.1,0.4-0.3,0.6s-0.4,0.3-0.6,0.3h-2.5c-0.1,0-0.1,0-0.1,0.1V37.3z"/>
		<path fill="#3A494F" d="M129.4,46C129.4,46,129.4,46,129.4,46c-0.1-0.1-0.1-0.1-0.1-0.1l-1,0.4c-0.1,0-0.1,0-0.2,0
			c-0.1,0-0.2,0-0.2-0.1c-0.1-0.1-0.2-0.2-0.3-0.3c0,0,0-0.1-0.1-0.1c-1,0.1-2.2,0.2-3.6,0.3c0,0,0,0-0.1,0c-0.2,0-0.4-0.1-0.6-0.2
			c-0.2-0.2-0.3-0.4-0.3-0.6c0,0,0,0,0-0.1c0-0.2,0.1-0.4,0.2-0.5c0.2-0.2,0.3-0.3,0.6-0.3h0c0.1,0,0.1,0,0.1-0.1
			c0.2-0.4,0.3-0.9,0.5-1.4c0.1-0.3,0.2-0.5,0.5-0.6c0.2-0.1,0.3-0.2,0.5-0.2c0.1,0,0.1,0,0.2,0c0.2,0,0.4,0.2,0.5,0.4
			c0.1,0.1,0.1,0.2,0.1,0.4c0,0.1,0,0.2-0.1,0.3c-0.1,0.4-0.3,0.7-0.4,1c0,0,0,0,0,0.1c0,0,0,0,0.1,0l0.9,0c0,0,0,0,0.1,0
			c0,0,0,0,0-0.1c0,0,0,0,0,0c0-0.1-0.1-0.2-0.1-0.3c0-0.1,0-0.2,0-0.3c0.1-0.2,0.2-0.3,0.4-0.4c0.1,0,0.2-0.1,0.3-0.1
			c0.1,0,0.2,0,0.3,0.1c0.2,0.1,0.4,0.2,0.5,0.4c0.5,0.8,0.8,1.5,0.9,2.1c0,0,0,0,0,0s0,0,0,0v0v-2.6c0-0.2,0.1-0.5,0.3-0.6
			c0.2-0.2,0.4-0.3,0.6-0.3c0.2,0,0.5,0.1,0.6,0.3c0.2,0.2,0.3,0.4,0.3,0.6v0.6c0,0,0,0,0,0.1c0,0,0,0,0.1,0c0.4-0.2,0.7-0.3,1-0.5
			c0.2-0.1,0.3-0.1,0.5-0.1c0.1,0,0.1,0,0.2,0c0.2,0,0.5,0.2,0.6,0.3c0.1,0.1,0.2,0.3,0.2,0.4c0,0,0,0.1,0,0.1
			c0,0.2-0.2,0.4-0.4,0.4c-0.6,0.3-1.3,0.5-2.1,0.7c-0.1,0-0.1,0.1-0.1,0.2v0.3c0,0.2,0,0.4,0.1,0.4c0.1,0.1,0.2,0.1,0.4,0.1h1
			c0.1,0,0.2,0,0.3-0.1c0.1,0,0.1-0.1,0.1-0.3c0-0.2,0.2-0.3,0.3-0.4c0.1-0.1,0.2-0.1,0.3-0.1c0.1,0,0.2,0,0.2,0
			c0.2,0.1,0.4,0.2,0.6,0.5c0.1,0.1,0.1,0.3,0.1,0.4c0,0.1,0,0.1,0,0.2c-0.1,0.5-0.3,0.8-0.6,1c-0.3,0.2-0.6,0.3-1.2,0.3h-1.5
			c-0.7,0-1.2-0.1-1.5-0.4C129.6,47.2,129.4,46.7,129.4,46z M127.5,46.7c0.3,0,0.5,0.1,0.7,0.3s0.3,0.5,0.3,0.7v4.4
			c0,0.4,0,0.7-0.1,0.9c-0.1,0.2-0.2,0.4-0.5,0.5c-0.2,0.1-0.5,0.2-0.9,0.3c0,0-0.1,0-0.1,0c-0.2,0-0.4-0.1-0.6-0.2
			c-0.2-0.2-0.3-0.3-0.4-0.6c0-0.1,0-0.2,0-0.3c0-0.1,0.1-0.2,0.2-0.3s0.2-0.1,0.3-0.1c0.1,0,0.1,0,0.1,0c0.1,0,0.1,0,0.2,0
			c0,0,0-0.1,0-0.1v-0.4c0-0.1,0-0.1-0.1-0.1h-1.2c-0.1,0-0.1,0-0.1,0.1V53c0,0.2-0.1,0.4-0.2,0.6c-0.2,0.2-0.4,0.2-0.6,0.2
			c-0.2,0-0.4-0.1-0.6-0.2c-0.2-0.2-0.2-0.4-0.2-0.6v-5.3c0-0.3,0.1-0.5,0.3-0.7s0.5-0.3,0.7-0.3H127.5z M126.8,48.2
			c0-0.1,0-0.1-0.1-0.1h-1.2c-0.1,0-0.1,0-0.1,0.1v0.2c0,0.1,0,0.1,0.1,0.1h1.2c0.1,0,0.1,0,0.1-0.1V48.2z M125.4,50.2
			c0,0.1,0,0.1,0.1,0.1h1.2c0.1,0,0.1,0,0.1-0.1v-0.2c0-0.1,0-0.1-0.1-0.1h-1.2c-0.1,0-0.1,0-0.1,0.1V50.2z M131.7,52.2h1
			c0.1,0,0.2,0,0.3-0.1c0.1-0.1,0.1-0.2,0.1-0.4c0-0.2,0.1-0.3,0.3-0.4c0.1-0.1,0.2-0.1,0.3-0.1c0.1,0,0.1,0,0.2,0
			c0.2,0.1,0.4,0.2,0.6,0.4c0.1,0.2,0.1,0.3,0.1,0.5c0,0.1,0,0.1,0,0.2c-0.1,0.5-0.3,0.9-0.6,1.1c-0.3,0.2-0.7,0.3-1.2,0.3h-1.5
			c-0.8,0-1.3-0.1-1.6-0.4c-0.3-0.3-0.4-0.8-0.4-1.6v-2.8c0-0.2,0.1-0.5,0.3-0.6c0.2-0.2,0.4-0.3,0.6-0.3s0.5,0.1,0.6,0.3
			c0.2,0.2,0.3,0.4,0.3,0.6v0.5c0,0,0,0,0,0.1c0,0,0,0,0.1,0c0.4-0.2,0.7-0.3,1.1-0.5c0.2-0.1,0.3-0.2,0.5-0.2c0.1,0,0.1,0,0.2,0
			c0.2,0,0.5,0.2,0.6,0.3c0.1,0.1,0.2,0.3,0.2,0.4c0,0,0,0.1,0,0.1c0,0.2-0.2,0.4-0.4,0.5c-0.6,0.3-1.4,0.6-2.2,0.9
			c-0.1,0-0.1,0.1-0.1,0.2v0.6c0,0.2,0,0.4,0.1,0.4C131.3,52.2,131.4,52.2,131.7,52.2z"/>
		<path fill="#3A494F" d="M138.1,46.2c0.2,0.1,0.3,0.3,0.4,0.6c0,0,0,0.1,0,0.1c0,0.2-0.1,0.4-0.2,0.5c-0.1,0.2-0.3,0.3-0.6,0.3
			c0,0-0.1,0-0.1,0c-0.2,0-0.4-0.1-0.5-0.2c-0.2-0.1-0.3-0.2-0.5-0.3c-0.2-0.1-0.3-0.3-0.4-0.5c0-0.1,0-0.1,0-0.2
			c0-0.1,0-0.3,0.1-0.4c0.2-0.2,0.3-0.3,0.6-0.4c0.1,0,0.2,0,0.3,0c0.1,0,0.3,0,0.4,0.1C137.8,46,138,46.1,138.1,46.2z M137.3,49.6
			c0.1-0.2,0.2-0.3,0.4-0.4c0.1,0,0.2,0,0.2,0c0.1,0,0.3,0,0.4,0.1c0.2,0.1,0.4,0.3,0.4,0.6c0,0.1,0.1,0.3,0.1,0.4s0,0.2-0.1,0.4
			c-0.3,0.8-0.5,1.5-0.8,2.2c-0.1,0.2-0.3,0.4-0.5,0.5c-0.1,0-0.2,0-0.3,0c-0.1,0-0.3,0-0.4-0.1c-0.2-0.1-0.4-0.3-0.5-0.6
			c0-0.1,0-0.2,0-0.3c0-0.1,0-0.3,0.1-0.4C136.7,51.2,137,50.4,137.3,49.6z M138.8,42.9c0.2,0.1,0.3,0.3,0.4,0.6c0,0,0,0.1,0,0.1
			c0,0.2-0.1,0.4-0.2,0.5c-0.1,0.2-0.3,0.3-0.6,0.3c0,0-0.1,0-0.1,0c-0.2,0-0.4-0.1-0.5-0.2c-0.2-0.1-0.4-0.2-0.6-0.3
			c-0.2-0.1-0.3-0.3-0.3-0.5c0-0.1,0-0.1,0-0.2c0-0.1,0-0.3,0.1-0.4c0.2-0.2,0.3-0.3,0.6-0.4c0.1,0,0.2,0,0.3,0c0.1,0,0.3,0,0.4,0.1
			C138.4,42.7,138.6,42.8,138.8,42.9z M147.1,48.8c0,0.3-0.1,0.5-0.3,0.7s-0.5,0.3-0.7,0.3h-0.9c-0.1,0-0.1,0-0.1,0.1v2.2
			c0,0.4,0,0.7-0.1,0.9c-0.1,0.2-0.2,0.4-0.5,0.5c-0.2,0.1-0.5,0.2-0.8,0.2c0,0-0.1,0-0.1,0c-0.2,0-0.4-0.1-0.6-0.2
			c-0.2-0.2-0.4-0.4-0.5-0.7c0-0.1,0-0.1-0.1-0.2c0,0,0,0,0,0c0,0,0,0,0,0c-0.1,0.2-0.3,0.3-0.5,0.3c0,0-0.1,0-0.1,0
			c-0.2,0-0.3-0.1-0.5-0.2h0c-0.2-0.1-0.3-0.3-0.3-0.5c0,0,0-0.1,0-0.1c0-0.2,0-0.3,0.1-0.4c0.2-0.2,0.3-0.5,0.4-0.8
			c0.1-0.2,0.2-0.4,0.4-0.5c0.1-0.1,0.3-0.1,0.4-0.1c0.1,0,0.1,0,0.2,0c0.2,0,0.4,0.2,0.5,0.4c0.1,0.1,0.1,0.2,0.1,0.3
			c0,0.1,0,0.2,0,0.3c-0.1,0.3-0.3,0.6-0.4,0.9c0,0,0,0,0,0.1c0,0,0,0,0.1,0h0.6c0.1,0,0.1,0,0.1,0c0,0,0-0.1,0-0.1V50
			c0-0.1,0-0.1-0.1-0.1h-0.6c-0.3,0-0.5-0.1-0.7-0.3s-0.3-0.4-0.3-0.7v-2.5c0-0.3,0.1-0.5,0.3-0.7s0.5-0.3,0.7-0.3h0.5
			c0.1,0,0.1,0,0.1-0.1c0-0.2,0.1-0.4,0.1-0.6c0,0,0-0.1,0-0.1c0,0-0.1,0-0.1,0h-1.8c-0.1,0-0.1,0-0.1,0.1v1.7c0,3-0.4,5.3-1.2,6.9
			c-0.1,0.2-0.3,0.3-0.5,0.4c-0.1,0-0.1,0-0.2,0c-0.2,0-0.3-0.1-0.5-0.2c-0.2-0.1-0.3-0.3-0.4-0.5c0-0.1,0-0.2,0-0.2
			c0-0.1,0-0.3,0.1-0.4c0.2-0.4,0.4-0.9,0.6-1.4c0.1-0.5,0.2-1.1,0.3-1.6c0.1-0.6,0.1-1,0.1-1.5c0-0.4,0-0.9,0-1.4v-2.4
			c0-0.3,0.1-0.5,0.3-0.7s0.5-0.3,0.7-0.3h6c0.2,0,0.4,0.1,0.6,0.2c0.2,0.2,0.2,0.3,0.2,0.6c0,0.2-0.1,0.4-0.2,0.6
			c-0.2,0.2-0.3,0.2-0.6,0.2h-1.1c-0.1,0-0.1,0-0.2,0.1l-0.2,0.6c0,0,0,0.1,0,0.1c0,0,0,0,0.1,0h0.9c0.3,0,0.5,0.1,0.7,0.3
			s0.3,0.5,0.3,0.7V48.8z M143.3,46.6c-0.1,0-0.1,0-0.1,0.1v0.2c0,0.1,0,0.1,0.1,0.1h2.1c0.1,0,0.1,0,0.1-0.1v-0.2
			c0-0.1,0-0.1-0.1-0.1H143.3z M143.3,48.2c-0.1,0-0.1,0-0.1,0.1v0.2c0,0.1,0,0.1,0.1,0.1h2.1c0.1,0,0.1,0,0.1-0.1v-0.2
			c0-0.1,0-0.1-0.1-0.1H143.3z M145.5,51.4c0-0.1-0.1-0.2-0.1-0.3c0-0.1,0-0.2,0.1-0.3c0.1-0.2,0.2-0.4,0.4-0.4
			c0.1,0,0.2-0.1,0.3-0.1c0.1,0,0.2,0,0.3,0.1c0.2,0.1,0.4,0.2,0.5,0.4c0.1,0.3,0.3,0.6,0.4,0.8c0,0.1,0.1,0.2,0.1,0.3
			c0,0.1,0,0.2-0.1,0.3c-0.1,0.2-0.3,0.4-0.5,0.5c-0.1,0-0.2,0.1-0.3,0.1c-0.1,0-0.2,0-0.3-0.1c-0.2-0.1-0.4-0.3-0.4-0.5
			C145.8,52,145.7,51.7,145.5,51.4z"/>
	</g>
	<g>
		<line fill="#934947" x1="90.5" y1="41.7" x2="116.7" y2="41.8"/>
		<g>
			<g>
				<path fill-rule="evenodd" clip-rule="evenodd" fill="#3A494F" d="M93.4,39.6c0,0.1,0.1,0.1,0.2,0.2c0,0.1,0,0.2,0,0.3
					c0.1,0,0.2,0.2,0.3,0.2c0.1,0,0-0.2,0.1-0.2c0.1,0,0.1,0.2,0.1,0.2s0.2-0.4,0.3-0.4c0.1,0,0,0.2,0.1,0.2c0.1,0,0.1-0.2,0.1-0.2
					s0.2,0.4,0.2,0.5c0.1-0.2,0.4-0.4,0.5-0.4c0.2,0,0.1,0.2,0.3,0.3c0,0,0,0,0,0c0.1,0,0.1-0.2,0.1-0.2c0.1,0,0.1,0.2,0.1,0.2
					c0,0,0.1-0.2,0.2-0.5c0.1,0.2,0.3,0.5,0.3,0.5c0.1,0,0.3-0.4,0.4-0.4c0.1,0,0,0.2,0.1,0.2c0.1,0,0.1-0.2,0.2-0.2
					c0.2,0,0,0.4,0.1,0.4c0.1,0,0-0.2,0.1-0.2c0.1,0,0.1,0.2,0.2,0.2s0.4-0.4,0.5-0.3c0.1,0,0.2,0.2,0.3,0.2c0.1,0,0.2-0.1,0.3-0.2
					c0,0,0.1,0.2,0.1,0.4l0.6,0c0-0.2-0.1-0.2-0.1-0.4c0,0,0,0.2,0.1,0.2c0.1,0,0.1-0.2,0.2-0.2c0.1,0,0.2,0.4,0.3,0.4
					c0.1,0,0.1-0.2,0.2-0.2c0.1,0,0.1,0.2,0.1,0.2s0.1-0.2,0.2-0.4c0.1,0.1,0,0.4,0.1,0.4c0.1,0,0-0.2,0.1-0.2c0.1,0,0,0.2,0.1,0.2
					c0.1,0,0-0.2,0.1-0.2c0.1,0,0,0.2,0.1,0.2c0.1,0,0.1-0.2,0.2-0.2c0.1,0,0.1,0,0.2,0.2c0,0,0-0.1,0.1-0.3c0,0,0,0.2,0.1,0.2
					c0.1,0,0.1-0.2,0.2-0.2c0.1,0,0.2,0.2,0.3,0.2s0.2-0.2,0.3-0.2c0.1,0,0.1,0.1,0.1,0.1c0.2,0,0.4,0,0.5,0.1c0,0.1,0,0.1,0.1,0.1
					c0.1,0,0.3-0.3,0.5-0.5l0.1,0c0,0.1-0.1,0.1-0.1,0.4l0.3,0c0.1,0,0-0.2,0.1-0.2c0.1,0,0.1,0.2,0.2,0.2s0.1-0.2,0.1-0.2
					c0.1,0,0,0.2,0.1,0.2c0.1,0,0.1-0.2,0.2-0.2c0.1,0,0.3,0.2,0.4,0.2c0.1,0,0.2,0.1,0.3-0.2c0.1,0.1,0.1,0.2,0.2,0.4
					c0.1,0,0.1,0.1,0.1-0.1s-0.1-0.1-0.1-0.3c0.1,0.2,0.2,0.3,0.3,0.3c0,0,0.2-0.2,0.2-0.5l0.1,0c0,0.2,0.1,0.4,0.1,0.5
					c0,0,0-0.1,0.1-0.4c0.1,0.2,0.1,0.3,0.2,0.3c0.1,0,0.2-0.4,0.3-0.4s0.1,0.2,0.1,0.2c0.1,0,0.1,0,0.1-0.2c0.1,0.1,0,0.3,0.1,0.3
					c0.1,0,0-0.2,0.1-0.2s0.1,0.2,0.2,0.2c0.2,0,0.2,0,0.2-0.5l0.1,0c0,0.2,0.1,0.5,0.1,0.5c0.1,0,0-0.2,0.1-0.2
					c0.1,0,0,0.2,0.1,0.2c0.1,0,0.1-0.2,0.2-0.3c0.1-0.1,0.1,0,0.2,0s0.4,0.4,0.5,0.4c0.3,0,0.2-0.4,0.4-0.4c0.2,0,0,0.4,0.4,0.4
					c0.1,0,0.2-0.2,0.3-0.2s0.2,0.2,0.3,0.4c0,0,0-0.1,0.1-0.3l0.1,0c0.1,0,0.1,0.2,0.1,0.2c0,0.1,0,0.2,0,0.3l0.1,0
					c0.1,0,0.1-0.2,0.1-0.3c0.1,0,0.2,0,0.2-0.1c0-0.1,0-0.1,0.1-0.1c0.1,0,0.2,0.2,0.3,0.4c0,0,0-0.1,0.1-0.3
					c0.1,0.1,0.1,0.2,0.2,0.2c0.1,0,0.2-0.1,0.3-0.2c0,0,0.1,0.2,0.1,0.4l0.2,0c0-0.1,0-0.2,0-0.4l0.2,0c0.1,0,0,0.2,0.1,0.2
					c0.1,0,0.1,0,0.1-0.2c0.3,0.2,0.1,0.3,0.3,0.3c0.2,0,0.3-0.4,0.4-0.4c0.1,0,0.2,0.4,0.3,0.4c0.1,0,0-0.2,0.1-0.2
					c0.1,0,0,0.2,0.1,0.2c0.1,0,0.3-0.2,0.4-0.3c0,0,0,0,0.1,0c0.1,0,0.2,0.2,0.3,0.4l0.2,0c0.1-0.1,0.1-0.2,0.1-0.4
					c0.3,0.3,0.5,0.6,1,0.5c0,0.1-0.2,0.1-0.2,0.3c0,0.5,0.7,0.6,0.7,1c0,0.2,0,0.2-0.1,0.2c-0.2,0.1-0.8,0.2-0.8,0.6
					c0,0.2,0.2,0.2,0.2,0.3c-0.5,0-0.6,0.4-0.9,0.4c-0.2,0-0.4-0.2-0.5-0.2c-0.1,0-0.1,0.2-0.2,0.2c-0.1,0,0-0.1-0.1-0.2
					c-0.1,0-0.4-0.2-0.4-0.2c-0.1,0-0.2-0.1-0.2,0c-0.1,0.1-0.1,0.3-0.2,0.3c-0.1,0,0-0.1-0.1-0.2c-0.1,0-0.2,0-0.3,0
					s-0.3,0-0.4,0.2c0-0.1,0-0.2,0.1-0.2c0-0.1-0.1-0.1-0.1-0.3c0,0,0,0.2-0.1,0.2c-0.1,0-0.1-0.1-0.1-0.2c-0.1,0.1-0.1,0-0.1,0.3
					c0,0.2,0.1,0.1,0.1,0.3l-0.2,0c0-0.2-0.1-0.3-0.2-0.3c-0.1,0,0,0.2-0.1,0.2c-0.1,0,0-0.2-0.1-0.2c-0.1,0-0.1,0.2-0.1,0.2
					c-0.1,0-0.1-0.2-0.2-0.2c-0.1,0-0.2,0.1-0.3,0.2c-0.1,0.1-0.1,0.2-0.2,0.3c0-0.1,0.1-0.2,0.1-0.4c-0.2,0-0.4-0.2-0.5-0.2
					s-0.2,0-0.2,0.1l0,0.1c-0.1,0,0-0.1-0.1-0.2c0,0,0,0.1-0.1,0.3c0,0,0-0.2-0.1-0.2c-0.1,0,0,0,0,0.2c0,0-0.1-0.2-0.1-0.4
					c-0.2,0-0.4,0-0.6,0c0-0.1,0-0.1-0.1-0.1c-0.1,0-0.3,0.4-0.4,0.4s-0.1-0.4-0.2-0.4c-0.1,0,0,0.2-0.1,0.2c-0.1,0-0.2-0.2-0.2-0.4
					c0,0,0,0.1-0.1,0.3l-0.1,0c0-0.1-0.1-0.2-0.1-0.3c0,0-0.1,0.2-0.1,0.5l-0.1,0c0-0.1,0.1-0.2,0.1-0.3c0-0.1,0-0.1-0.1-0.1
					c-0.1,0-0.2,0.4-0.3,0.4c-0.1,0-0.1-0.2-0.1-0.2c-0.1,0-0.1,0.2-0.1,0.2s0-0.2-0.1-0.2c-0.1,0-0.1,0-0.1,0.2
					c-0.1-0.1-0.1-0.2-0.2-0.3c-0.1-0.1-0.2,0-0.3,0c-0.1,0-0.2,0-0.3,0c0,0-0.1,0.1-0.1,0.3c0,0,0,0-0.1,0s-0.1-0.2-0.2-0.3
					c0-0.1-0.1,0-0.1,0c-0.3,0-0.2,0.4-0.4,0.4c-0.1,0-0.1-0.3-0.3-0.5l-0.1,0c0,0.1,0,0,0,0.2c0,0.2,0.1,0.2,0.1,0.3l-0.3,0
					c-0.1,0-0.1-0.2-0.2-0.2c-0.1,0-0.1,0.1-0.2,0.2c0-0.1,0.1-0.2,0.1-0.3c0-0.1,0-0.1-0.1-0.1c-0.1,0-0.1,0.2-0.1,0.2
					c-0.1,0-0.1-0.2-0.1-0.2c-0.1,0-0.2,0.2-0.3,0.2s-0.1-0.2-0.2-0.2c-0.1,0,0,0.2-0.1,0.2c-0.1,0,0-0.2-0.1-0.2s0,0.2-0.1,0.2
					c-0.1,0-0.2-0.2-0.2-0.4c-0.1,0.1-0.1,0-0.1,0.3c0,0.2,0.1,0.1,0.1,0.3c-0.1,0-0.1-0.2-0.2-0.2s-0.1,0-0.1,0.2
					c-0.1-0.2-0.1-0.3-0.2-0.3c-0.1,0-0.1,0.2-0.2,0.2c0,0,0-0.2-0.1-0.4l0,0.5l-0.3,0c0-0.1-0.1-0.2-0.1-0.3
					c-0.1,0.2-0.3,0.4-0.4,0.4c-0.1,0-0.2-0.2-0.2-0.4c0,0,0,0.1-0.1,0.4c-0.2-0.2-0.4-0.3-0.5-0.3c-0.1,0-0.1,0-0.1,0.3l-0.2,0
					c-0.1,0-0.2-0.3-0.3-0.3c-0.1,0-0.1,0.2-0.1,0.2c-0.1,0-0.2-0.2-0.3-0.2s-0.1,0.2-0.2,0.2c-0.1,0,0-0.2-0.1-0.2
					c-0.1,0-0.1,0.2-0.1,0.2c-0.1,0-0.1-0.2-0.2-0.2c-0.1,0-0.1,0.2-0.1,0.2c-0.1,0,0-0.2-0.1-0.2c-0.1,0-0.1,0.2-0.1,0.2
					s-0.2-0.2-0.2-0.4c0,0,0,0.1-0.1,0.3c0,0,0-0.2-0.1-0.2c-0.1,0,0,0.2-0.1,0.2c-0.1,0,0-0.2-0.1-0.2s0,0.1-0.1,0.1
					c-0.1,0.1-0.3-0.2-0.3,0.2c0,0-0.1-0.2-0.1-0.3c-0.1-0.1-0.1-0.2-0.2-0.2c-0.1,0-0.1,0.2-0.2,0.5l-0.2,0c0-0.2-0.1-0.3-0.2-0.3
					c-0.1,0,0,0.2-0.1,0.2c-0.1,0-0.1-0.2-0.2-0.2c-0.1,0-0.1,0-0.2,0c0,0.1,0,0.2,0,0.3c0,0-0.1,0-0.3,0.2c0-0.1,0-0.2,0.1-0.2
					c0-0.1-0.1-0.1-0.1-0.3c-0.1,0.1-0.1,0.2-0.2,0.2s-0.1-0.2-0.2-0.2c-0.1,0,0,0.2-0.1,0.2c-0.1,0,0-0.1-0.1-0.2
					c-0.1,0-0.1,0-0.2,0c-0.1,0-0.2,0-0.2,0.1l0,0.1c-0.1,0,0-0.2-0.1-0.2c-0.1,0-0.1,0.2-0.1,0.2s-0.1-0.2-0.1-0.2
					c-0.1,0,0,0.2-0.1,0.2c-0.1,0-0.1-0.2-0.1-0.2s-0.1,0.2-0.2,0.4c-0.1-0.2-0.2-0.4-0.3-0.4s-0.1,0.2-0.1,0.2s0-0.2-0.1-0.2
					c-0.1,0-0.1,0-0.1,0.2c0,0-0.1-0.2-0.1-0.3l-0.6,0c-0.1,0,0,0.2-0.1,0.2s0-0.2-0.1-0.2s-0.1,0.2-0.1,0.2c-0.1,0-0.1-0.2-0.1-0.2
					c-0.2,0-0.2,0-0.2,0.2c-0.1-0.1-0.3-0.3-0.4-0.5c-0.2,0-0.6-0.2-0.7-0.4c-0.1,0-0.1,0.1-0.1,0.4l-0.3,0c-0.2,0-0.2-0.2-0.4-0.2
					c0-0.2-0.2-0.2-0.2-0.4c0-0.2,0.2-0.1,0.2-0.4s-0.2-0.4-0.3-0.5c0.2-0.3,0.4-0.6,0.6-0.8c0.1,0,0.2,0.2,0.3,0.2l0-0.5l0.3,0
					c0.2,0,0.1,0.1,0.1,0.2c0.1,0,0.1-0.1,0.1-0.3c0.1,0,0.1,0.1,0.2,0.1c0.2,0,0.3,0,0.5,0c0.1,0,0.2,0,0.3,0c0.1,0,0.1,0,0.1,0
					c0.1,0,0.3,0.1,0.3,0.1c0.1,0,0.2,0,0.3-0.1C93.5,39.9,93.5,39.7,93.4,39.6z"/>
			</g>
		</g>
	</g>
	<g>
		<line fill="#828282" x1="31" y1="22.1" x2="57.8" y2="22.1"/>
		<g>
			<g>
				<path fill-rule="evenodd" clip-rule="evenodd" fill="#3A494F" d="M34,20c0,0.1,0.1,0.1,0.2,0.2c0,0.1,0,0.2,0,0.3
					c0.1,0,0.2,0.2,0.3,0.2c0.1,0,0-0.2,0.1-0.2c0.1,0,0.1,0.2,0.1,0.2c0.1,0,0.2-0.4,0.3-0.4c0.1,0,0,0.2,0.1,0.2
					c0.1,0,0.1-0.2,0.1-0.2c0.1,0,0.2,0.4,0.2,0.5c0.1-0.2,0.4-0.4,0.5-0.4c0.2,0,0.1,0.2,0.3,0.3c0,0,0,0,0.1,0s0.1-0.2,0.1-0.2
					c0.1,0,0.1,0.2,0.1,0.2c0,0,0.1-0.2,0.2-0.5c0.1,0.2,0.3,0.5,0.4,0.5c0.1,0,0.3-0.4,0.4-0.4c0.1,0,0,0.2,0.1,0.2
					c0.1,0,0.1-0.2,0.2-0.2c0.2,0,0,0.4,0.1,0.4c0.1,0,0-0.2,0.1-0.2c0.1,0,0.1,0.2,0.2,0.2c0.1,0,0.5-0.4,0.6-0.4
					c0.1,0,0.2,0.2,0.3,0.2c0.1,0,0.2-0.1,0.3-0.2c0,0,0.1,0.2,0.1,0.4h0.6c0-0.2-0.1-0.2-0.1-0.4c0,0,0,0.2,0.1,0.2
					c0.1,0,0.1-0.2,0.2-0.2c0.1,0,0.2,0.4,0.3,0.4c0.1,0,0.1-0.2,0.2-0.2c0.1,0,0.1,0.2,0.1,0.2s0.1-0.2,0.2-0.4
					c0.1,0.1,0,0.4,0.1,0.4c0.1,0,0-0.2,0.1-0.2c0.1,0,0,0.2,0.1,0.2c0.1,0,0-0.2,0.1-0.2c0.1,0,0,0.2,0.1,0.2
					c0.1,0,0.1-0.2,0.2-0.2c0.1,0,0.1,0,0.2,0.2c0,0,0-0.1,0.1-0.3c0,0,0,0.2,0.1,0.2c0.1,0,0.1-0.2,0.2-0.2c0.1,0,0.2,0.2,0.3,0.2
					c0.1,0,0.2-0.2,0.3-0.2c0.1,0,0.1,0.1,0.1,0.1c0.2,0,0.4,0,0.5,0.1c0,0.1,0,0.1,0.1,0.1c0.1,0,0.3-0.3,0.5-0.5h0.1
					c0,0.1-0.1,0.1-0.1,0.4h0.3c0.1,0,0-0.2,0.1-0.2c0.1,0,0.1,0.2,0.2,0.2c0.1,0,0.1-0.2,0.1-0.2c0.1,0,0,0.2,0.1,0.2
					c0.1,0,0.1-0.2,0.2-0.2c0.1,0,0.3,0.2,0.4,0.2c0.1,0,0.2,0.1,0.3-0.2c0.1,0.1,0.1,0.2,0.2,0.4c0.1,0,0.1,0.1,0.1-0.1
					s-0.1-0.1-0.1-0.3c0.1,0.2,0.2,0.3,0.3,0.3c0,0,0.2-0.2,0.2-0.5H47c0,0.2,0.1,0.4,0.1,0.5c0,0,0-0.1,0.1-0.4
					c0.1,0.2,0.2,0.3,0.2,0.3c0.1,0,0.2-0.4,0.3-0.4c0.1,0,0.1,0.2,0.1,0.2c0.1,0,0.1,0,0.1-0.2c0.1,0.1,0,0.3,0.1,0.3
					s0-0.2,0.1-0.2c0.1,0,0.1,0.2,0.2,0.2c0.2,0,0.2,0,0.2-0.5h0.1c0,0.2,0.1,0.5,0.1,0.5c0.1,0,0-0.2,0.1-0.2c0.1,0,0,0.2,0.1,0.2
					c0.1,0,0.1-0.2,0.2-0.3c0.1-0.1,0.1,0,0.2,0c0.1,0,0.5,0.4,0.6,0.4c0.3,0,0.2-0.4,0.4-0.4c0.2,0,0.1,0.4,0.4,0.4
					c0.1,0,0.2-0.2,0.3-0.2c0.1,0,0.2,0.2,0.4,0.4c0,0,0-0.1,0.1-0.3h0.1c0.1,0,0.1,0.2,0.1,0.2c0,0.1,0,0.2,0,0.3h0.1
					c0.1,0,0.1-0.2,0.1-0.3c0.1,0,0.2,0,0.3-0.1c0-0.1,0-0.1,0.1-0.1c0.1,0,0.2,0.2,0.4,0.4c0,0,0-0.1,0.1-0.3
					c0.1,0.1,0.2,0.2,0.2,0.2c0.1,0,0.2-0.1,0.3-0.2c0,0,0.1,0.2,0.1,0.4h0.2c0-0.1,0-0.2,0-0.4h0.2c0.1,0,0,0.2,0.1,0.2
					c0.1,0,0.1,0,0.1-0.2c0.3,0.2,0.1,0.3,0.4,0.3c0.2,0,0.4-0.4,0.4-0.4c0.1,0,0.2,0.4,0.3,0.4c0.1,0,0-0.2,0.1-0.2s0,0.2,0.1,0.2
					c0.1,0,0.3-0.2,0.4-0.3c0,0,0,0,0.1,0c0.1,0,0.2,0.2,0.3,0.4h0.2c0.1-0.1,0.1-0.2,0.1-0.4c0.3,0.3,0.5,0.6,1,0.5
					c0,0.1-0.2,0.1-0.2,0.3c0,0.5,0.7,0.6,0.7,1c0,0.2,0,0.2,0,0.2c-0.2,0.1-0.8,0.2-0.8,0.6c0,0.2,0.2,0.2,0.2,0.3
					c-0.5,0-0.6,0.4-0.9,0.4c-0.2,0-0.4-0.2-0.5-0.2c-0.1,0-0.1,0.2-0.2,0.2c-0.1,0,0-0.1-0.1-0.2c-0.1,0-0.4-0.2-0.5-0.2
					s-0.2-0.1-0.2,0S54.7,24,54.6,24c-0.1,0,0-0.1-0.1-0.2c-0.1,0-0.2,0-0.3,0c-0.1,0-0.3,0-0.4,0.2c0-0.1,0-0.2,0.1-0.2
					c0-0.1-0.1-0.1-0.1-0.3c0,0,0,0.2-0.1,0.2c-0.1,0-0.1-0.1-0.1-0.2c-0.1,0.1-0.1,0-0.1,0.3s0.1,0.1,0.1,0.3h-0.2
					c0-0.2-0.1-0.3-0.2-0.3c-0.1,0,0,0.2-0.1,0.2c-0.1,0,0-0.2-0.1-0.2c-0.1,0-0.1,0.2-0.1,0.2c-0.1,0-0.1-0.2-0.2-0.2
					c-0.1,0-0.2,0.1-0.3,0.2c-0.1,0.1-0.1,0.2-0.2,0.3c0-0.1,0.1-0.2,0.1-0.4c-0.2,0-0.4-0.2-0.5-0.2c-0.1,0-0.2,0-0.2,0.1v0.1
					c-0.1,0,0-0.1-0.1-0.2c0,0,0,0.1-0.1,0.3c0,0,0-0.2-0.1-0.2c-0.1,0,0,0,0,0.2c0,0-0.1-0.2-0.1-0.4c-0.2,0-0.4,0-0.6,0
					c0-0.1,0-0.1-0.1-0.1c-0.1,0-0.3,0.4-0.4,0.4c-0.1,0-0.1-0.4-0.2-0.4c-0.1,0,0,0.2-0.1,0.2c-0.1,0-0.2-0.2-0.2-0.4
					c0,0,0,0.1-0.1,0.3h-0.1c0-0.1-0.1-0.2-0.1-0.3c0,0-0.1,0.2-0.1,0.5H49c0-0.1,0.1-0.2,0.1-0.3c0-0.1,0-0.1-0.1-0.1
					c-0.1,0-0.2,0.4-0.3,0.4s-0.1-0.2-0.1-0.2c-0.1,0-0.1,0.2-0.1,0.2c-0.1,0,0-0.2-0.1-0.2c-0.1,0-0.1,0-0.1,0.2
					c-0.1-0.1-0.1-0.2-0.2-0.3s-0.2,0-0.3,0c-0.1,0-0.2,0-0.3,0c0,0-0.1,0.1-0.1,0.3c0,0,0,0-0.1,0c-0.1,0-0.1-0.2-0.2-0.3
					c0-0.1-0.1,0-0.2,0c-0.3,0-0.2,0.4-0.4,0.4c-0.1,0-0.1-0.3-0.3-0.5h-0.1c0,0.1,0,0,0,0.2c0,0.2,0.1,0.2,0.1,0.3H46
					c-0.1,0-0.1-0.2-0.2-0.2c-0.1,0-0.1,0.1-0.2,0.2c0-0.1,0.1-0.2,0.1-0.3c0-0.1,0-0.1-0.1-0.1c-0.1,0-0.1,0.2-0.1,0.2
					c-0.1,0-0.1-0.2-0.1-0.2c-0.1,0-0.2,0.2-0.3,0.2c-0.1,0-0.1-0.2-0.2-0.2c-0.1,0,0,0.2-0.1,0.2c-0.1,0,0-0.2-0.1-0.2
					c-0.1,0,0,0.2-0.1,0.2c-0.1,0-0.2-0.2-0.2-0.4c-0.1,0.1-0.1,0-0.1,0.3c0,0.2,0.1,0.1,0.1,0.3c-0.1,0-0.1-0.2-0.2-0.2
					c-0.1,0-0.1,0-0.1,0.2c-0.1-0.2-0.2-0.3-0.2-0.3s-0.1,0.2-0.2,0.2c0,0,0-0.2-0.1-0.4v0.5h-0.3c0-0.1-0.1-0.2-0.1-0.3
					c-0.1,0.2-0.3,0.4-0.4,0.4c-0.1,0-0.2-0.2-0.2-0.4c0,0,0,0.1-0.1,0.4c-0.2-0.2-0.5-0.3-0.5-0.3c-0.1,0-0.1,0-0.1,0.3h-0.2
					c-0.1,0-0.2-0.3-0.3-0.3c-0.1,0-0.1,0.2-0.1,0.2c-0.1,0-0.2-0.2-0.3-0.2c-0.1,0-0.1,0.2-0.2,0.2s0-0.2-0.1-0.2
					c-0.1,0-0.1,0.2-0.1,0.2c-0.1,0-0.1-0.2-0.2-0.2c-0.1,0-0.1,0.2-0.1,0.2c-0.1,0,0-0.2-0.1-0.2c-0.1,0-0.1,0.2-0.1,0.2
					c-0.1,0-0.2-0.2-0.2-0.4c0,0,0,0.1-0.1,0.3c0,0,0-0.2-0.1-0.2c-0.1,0,0,0.2-0.1,0.2c-0.1,0,0-0.2-0.1-0.2c-0.1,0,0,0.1-0.1,0.1
					c-0.1,0.1-0.3-0.1-0.4,0.2c0,0-0.1-0.2-0.1-0.3c-0.1-0.1-0.1-0.2-0.2-0.2c-0.1,0-0.1,0.2-0.2,0.5h-0.2c0-0.2-0.1-0.3-0.2-0.3
					c-0.1,0,0,0.2-0.1,0.2c-0.1,0-0.1-0.2-0.2-0.2c-0.1,0-0.1,0-0.2,0c0,0.1,0,0.2,0,0.3c0,0-0.1,0-0.3,0.2c0-0.1,0-0.2,0.1-0.2
					c0-0.1-0.1-0.1-0.1-0.3c-0.1,0.1-0.1,0.2-0.2,0.2c-0.1,0-0.1-0.2-0.2-0.2c-0.1,0,0,0.2-0.1,0.2c-0.1,0,0-0.1-0.1-0.2
					c-0.1,0-0.1,0-0.2,0s-0.2,0-0.2,0.1v0.1c-0.1,0,0-0.2-0.1-0.2c-0.1,0-0.1,0.2-0.1,0.2c-0.1,0-0.1-0.2-0.1-0.2
					c-0.1,0,0,0.2-0.1,0.2c-0.1,0-0.1-0.2-0.1-0.2c-0.1,0-0.1,0.2-0.2,0.4c-0.1-0.2-0.2-0.4-0.3-0.4c-0.1,0-0.1,0.2-0.1,0.2
					s0-0.2-0.1-0.2c-0.1,0-0.1,0-0.1,0.2c0,0-0.1-0.2-0.1-0.3H34c-0.1,0,0,0.2-0.1,0.2c-0.1,0,0-0.2-0.1-0.2c-0.1,0-0.1,0.2-0.1,0.2
					c-0.1,0-0.1-0.2-0.1-0.2c-0.2,0-0.2,0-0.2,0.2c-0.1-0.1-0.3-0.3-0.4-0.5c-0.2,0-0.6-0.2-0.7-0.4c-0.1,0-0.1,0.1-0.1,0.4h-0.3
					c-0.2,0-0.2-0.2-0.4-0.2c0-0.2-0.2-0.2-0.2-0.4s0.2-0.1,0.2-0.4c0-0.2-0.2-0.4-0.3-0.5c0.2-0.3,0.4-0.6,0.5-0.8
					c0.1,0,0.2,0.2,0.3,0.2v-0.5h0.3c0.2,0,0.1,0.1,0.1,0.2c0.1,0,0.1-0.1,0.1-0.3c0.1,0,0.1,0.1,0.2,0.1c0.2,0,0.3,0,0.5,0
					c0.1,0,0.2,0,0.3,0c0.1,0,0.1,0,0.1,0c0.1,0,0.3,0.1,0.3,0.1c0.1,0,0.2,0,0.3-0.1C34.1,20.3,34,20.1,34,20z"/>
			</g>
		</g>
	</g>
	<g>
		<line fill="#934947" x1="58.3" y1="54.8" x2="29.7" y2="55"/>
		<g>
			<g>
				<path fill-rule="evenodd" clip-rule="evenodd" fill="#3A494F" d="M55.3,56.9c-0.1-0.1-0.1-0.1-0.2-0.2c0-0.1,0-0.2-0.1-0.3
					c-0.1,0-0.2-0.2-0.3-0.2c-0.1,0,0,0.2-0.1,0.2c-0.1,0-0.1-0.2-0.2-0.2c-0.1,0-0.2,0.4-0.3,0.4c-0.1,0,0-0.2-0.1-0.2
					c-0.1,0-0.1,0.2-0.2,0.2c-0.1,0-0.2-0.4-0.3-0.5c-0.1,0.2-0.5,0.4-0.6,0.4c-0.2,0-0.1-0.2-0.3-0.3c0,0,0,0-0.1,0
					c-0.1,0-0.1,0.2-0.2,0.2c-0.1,0-0.1-0.2-0.2-0.2c0,0-0.1,0.2-0.2,0.5c-0.1-0.2-0.3-0.5-0.4-0.5c-0.1,0-0.3,0.4-0.4,0.4
					c-0.1,0,0-0.2-0.1-0.2c-0.1,0-0.1,0.2-0.2,0.2c-0.2,0,0-0.4-0.2-0.4c-0.1,0,0,0.2-0.1,0.2c-0.1,0-0.1-0.2-0.2-0.2
					c-0.1,0-0.5,0.4-0.6,0.4c-0.1,0-0.3-0.2-0.4-0.2c-0.1,0-0.2,0.1-0.3,0.2c0,0-0.1-0.2-0.1-0.4l-0.6,0c0,0.2,0.1,0.2,0.1,0.4
					c-0.1,0-0.1-0.2-0.2-0.2c-0.1,0-0.1,0.2-0.2,0.2c-0.1,0-0.3-0.3-0.4-0.3c-0.1,0-0.1,0.2-0.2,0.2c-0.1,0-0.1-0.2-0.2-0.2
					c-0.1,0-0.2,0.2-0.2,0.4c-0.1-0.1,0-0.4-0.1-0.3c-0.1,0,0,0.2-0.1,0.2c-0.1,0,0-0.2-0.1-0.2c-0.1,0,0,0.2-0.1,0.2
					c-0.1,0,0-0.2-0.1-0.2c-0.1,0-0.1,0.2-0.2,0.2c-0.1,0-0.2,0-0.2-0.2c0,0,0,0.1-0.1,0.3c-0.1,0-0.1-0.2-0.2-0.2
					c-0.1,0-0.1,0.2-0.2,0.2c-0.1,0-0.2-0.2-0.3-0.2c-0.1,0-0.2,0.2-0.3,0.2c-0.1,0-0.1-0.1-0.1-0.1c-0.2,0-0.4,0-0.6-0.1
					c0-0.1,0-0.1-0.1-0.1c-0.1,0-0.4,0.3-0.5,0.5l-0.1,0c0-0.1,0.1-0.1,0.2-0.4l-0.3,0c-0.1,0,0,0.2-0.1,0.2c-0.1,0-0.1-0.2-0.2-0.2
					c-0.1,0-0.1,0.2-0.2,0.2c-0.1,0,0-0.2-0.1-0.2c-0.1,0-0.1,0.2-0.2,0.2c-0.1,0-0.3-0.2-0.4-0.2c-0.1,0-0.2-0.1-0.3,0.2
					c-0.1-0.1-0.1-0.2-0.2-0.4c-0.1,0-0.1-0.1-0.1,0.1c0,0.2,0.1,0.1,0.1,0.3c-0.1-0.2-0.2-0.3-0.3-0.3c0,0-0.2,0.2-0.2,0.5l-0.1,0
					c0-0.2-0.1-0.4-0.1-0.5c0,0,0,0.1-0.1,0.4c-0.1-0.2-0.2-0.3-0.3-0.3c-0.1,0-0.3,0.4-0.4,0.4c-0.1,0-0.1-0.2-0.2-0.2
					c-0.1,0-0.1,0-0.1,0.2c-0.1-0.1,0-0.3-0.1-0.3c-0.1,0,0,0.2-0.1,0.2c-0.1,0-0.1-0.2-0.2-0.2c-0.2,0-0.2,0-0.2,0.5l-0.1,0
					c0-0.2-0.1-0.5-0.1-0.5c-0.1,0,0,0.2-0.1,0.2c-0.1,0,0-0.2-0.1-0.2c-0.1,0-0.1,0.2-0.2,0.3c-0.1,0.1-0.1,0-0.2,0
					c-0.1,0-0.5-0.3-0.6-0.3c-0.3,0-0.2,0.4-0.4,0.4c-0.2,0-0.1-0.4-0.4-0.3c-0.1,0-0.2,0.2-0.3,0.2c-0.1,0-0.3-0.2-0.4-0.4
					c0,0-0.1,0.1-0.1,0.3l-0.1,0c-0.1,0-0.1-0.2-0.2-0.2c0-0.1,0-0.2-0.1-0.3l-0.1,0c-0.1,0-0.1,0.2-0.1,0.3c-0.1,0-0.2,0-0.3,0.1
					c0,0.1,0,0.1-0.1,0.1c-0.1,0-0.3-0.2-0.4-0.4c0,0-0.1,0.1-0.1,0.4c-0.1-0.1-0.2-0.2-0.3-0.2c-0.1,0-0.2,0.1-0.3,0.2
					c0,0-0.1-0.2-0.1-0.4l-0.2,0c0,0.1,0,0.2,0,0.4l-0.2,0c-0.1,0,0-0.2-0.1-0.2c-0.1,0-0.1,0-0.1,0.2c-0.3-0.2-0.1-0.3-0.4-0.3
					c-0.2,0-0.4,0.4-0.4,0.4c-0.1,0-0.2-0.3-0.3-0.3c-0.1,0,0,0.2-0.1,0.2c-0.1,0,0-0.2-0.1-0.2c-0.1,0-0.3,0.2-0.5,0.3
					c0,0,0,0-0.1,0c-0.1,0-0.2-0.2-0.4-0.4l-0.2,0c-0.1,0.1-0.1,0.2-0.1,0.4c-0.3-0.3-0.5-0.6-1-0.5c0-0.1,0.2-0.1,0.2-0.3
					c0-0.5-0.7-0.6-0.7-1c0-0.2,0-0.2,0-0.2c0.2-0.1,0.8-0.2,0.8-0.6c0-0.2-0.2-0.2-0.2-0.3c0.5,0,0.6-0.4,0.9-0.4
					c0.2,0,0.4,0.2,0.5,0.2c0.1,0,0.1-0.2,0.2-0.2c0.1,0,0,0.1,0.1,0.2c0.2,0,0.4,0.2,0.5,0.2c0.1,0,0.2,0.1,0.2,0s0.1-0.3,0.2-0.3
					c0.1,0,0,0.1,0.1,0.2c0.1,0,0.2,0,0.3,0c0.1,0,0.3,0,0.5-0.2c0,0.1,0,0.2-0.1,0.2c0,0.1,0.1,0.1,0.1,0.3c0,0,0-0.2,0.1-0.2
					c0.1,0,0.1,0.1,0.1,0.2c0.1-0.1,0.1,0,0.1-0.3c0-0.2-0.1-0.1-0.1-0.3l0.2,0c0,0.2,0.1,0.3,0.2,0.3c0.1,0,0-0.2,0.1-0.2
					c0.1,0,0,0.2,0.1,0.2c0.1,0,0.1-0.2,0.2-0.2s0.1,0.2,0.2,0.2s0.3-0.1,0.4-0.2c0.1-0.1,0.1-0.2,0.2-0.3c0,0.1-0.1,0.2-0.1,0.4
					c0.2,0,0.5,0.2,0.6,0.2c0.1,0,0.2,0,0.3-0.1l0-0.1c0.1,0,0,0.1,0.1,0.2c0,0,0.1-0.1,0.1-0.3c0.1,0,0,0.2,0.1,0.2
					c0.1,0,0,0,0-0.2c0.1,0,0.1,0.2,0.1,0.4c0.2,0,0.4,0,0.6,0c0,0.1,0,0.1,0.1,0.1c0.1,0,0.4-0.4,0.5-0.4c0.1,0,0.1,0.4,0.2,0.3
					c0.1,0,0-0.2,0.1-0.2c0.1,0,0.2,0.2,0.2,0.4c0,0,0-0.1,0.1-0.3l0.1,0c0,0.1,0.1,0.2,0.1,0.3c0,0,0.1-0.2,0.1-0.5l0.1,0
					c0,0.1-0.1,0.2-0.1,0.3c0,0.1,0,0.1,0.1,0.1c0.1,0,0.2-0.4,0.3-0.4c0.1,0,0.1,0.2,0.2,0.2c0.1,0,0.1-0.2,0.2-0.2
					c0.1,0,0,0.2,0.1,0.2c0.1,0,0.1,0,0.1-0.2c0.1,0.1,0.1,0.2,0.2,0.3c0.1,0.1,0.2,0,0.3,0c0.1,0,0.2,0,0.3,0c0,0,0.1-0.1,0.1-0.3
					c0,0,0,0,0.1,0s0.1,0.2,0.2,0.3c0,0.1,0.1,0,0.2,0c0.3,0,0.2-0.4,0.4-0.4c0.1,0,0.2,0.3,0.3,0.5l0.1,0c0-0.1,0,0,0-0.2
					c0-0.2-0.1-0.2-0.1-0.3l0.3,0c0.1,0,0.1,0.2,0.2,0.2c0.1,0,0.1-0.1,0.2-0.2c0,0.1-0.1,0.2-0.1,0.3c0,0.1,0,0.1,0.1,0.1
					c0.1,0,0.1-0.2,0.2-0.2c0.1,0,0.1,0.2,0.2,0.2c0.1,0,0.2-0.2,0.3-0.2c0.1,0,0.1,0.2,0.2,0.2c0.1,0,0-0.2,0.1-0.2
					c0.1,0,0,0.2,0.1,0.2c0.1,0,0-0.2,0.1-0.2c0.1,0,0.2,0.2,0.2,0.4c0.1-0.1,0.1,0,0.1-0.3c0-0.2-0.1-0.1-0.1-0.3
					c0.1,0,0.1,0.2,0.2,0.2c0.1,0,0.1,0,0.1-0.2c0.1,0.2,0.2,0.3,0.3,0.3c0.1,0,0.1-0.2,0.2-0.2c0,0,0.1,0.2,0.2,0.4l0-0.5l0.3,0
					c0,0.1,0.1,0.2,0.1,0.3c0.1-0.2,0.3-0.4,0.4-0.4c0.1,0,0.2,0.2,0.2,0.4c0,0,0-0.1,0.1-0.4c0.2,0.2,0.5,0.3,0.6,0.3
					c0.1,0,0.1,0,0.1-0.3l0.2,0c0.1,0,0.2,0.3,0.3,0.3c0.1,0,0.1-0.2,0.2-0.2c0.1,0,0.2,0.2,0.3,0.2c0.1,0,0.1-0.2,0.2-0.2
					c0.1,0,0,0.2,0.1,0.2c0.1,0,0.1-0.2,0.2-0.2c0.1,0,0.1,0.2,0.2,0.2c0.1,0,0.1-0.2,0.2-0.2c0.1,0,0,0.2,0.1,0.2
					c0.1,0,0.1-0.2,0.2-0.2c0.1,0,0.2,0.2,0.2,0.4c0,0,0-0.1,0.1-0.3c0.1,0,0,0.2,0.1,0.2c0.1,0,0-0.2,0.1-0.2c0.1,0,0,0.2,0.1,0.2
					c0.1,0,0-0.1,0.1-0.1c0.1-0.1,0.3,0.1,0.4-0.2c0.1,0,0.1,0.2,0.1,0.3c0.1,0.1,0.1,0.2,0.2,0.2c0.1,0,0.1-0.2,0.2-0.5l0.2,0
					c0,0.2,0.1,0.3,0.2,0.3c0.1,0,0-0.2,0.1-0.2c0.1,0,0.1,0.2,0.2,0.2c0.1,0,0.1,0,0.2,0c0-0.1,0-0.2,0-0.3c0,0,0.1,0,0.3-0.2
					c0,0.1,0,0.2-0.1,0.2c0,0.1,0.1,0.1,0.1,0.3c0.1-0.1,0.2-0.2,0.3-0.2c0.1,0,0.1,0.2,0.2,0.2c0.1,0,0-0.2,0.1-0.2
					c0.1,0,0,0.1,0.1,0.2c0.1,0,0.1,0,0.2,0c0.1,0,0.2,0,0.3-0.1l0-0.1c0.1,0,0,0.2,0.1,0.2c0.1,0,0.1-0.2,0.2-0.2
					c0.1,0,0.1,0.2,0.2,0.2c0.1,0,0-0.2,0.1-0.2c0.1,0,0.1,0.2,0.2,0.2c0.1,0,0.2-0.2,0.2-0.4c0.1,0.2,0.2,0.3,0.3,0.3
					c0.1,0,0.1-0.2,0.2-0.2c0.1,0,0,0.2,0.1,0.2c0.1,0,0.1,0,0.1-0.2c0.1,0,0.1,0.2,0.1,0.3l0.7,0c0.1,0,0-0.2,0.1-0.2
					c0.1,0,0,0.2,0.1,0.2c0.1,0,0.1-0.2,0.2-0.2c0.1,0,0.1,0.2,0.2,0.2c0.2,0,0.2,0,0.2-0.2c0.1,0.1,0.3,0.3,0.4,0.5
					c0.2,0,0.6,0.2,0.7,0.4c0.1,0,0.1-0.1,0.1-0.4l0.3,0c0.2,0,0.2,0.2,0.4,0.2c0,0.2,0.2,0.2,0.2,0.4c0,0.2-0.2,0.1-0.2,0.4
					c0,0.2,0.2,0.4,0.4,0.5c-0.2,0.3-0.4,0.6-0.5,0.8c-0.1,0-0.2-0.2-0.3-0.2l0,0.5l-0.3,0c-0.2,0-0.1-0.1-0.1-0.2
					c-0.1,0-0.1,0.1-0.1,0.3c-0.1,0-0.1-0.1-0.2-0.1c-0.2,0-0.3,0-0.5,0c-0.1,0-0.2,0-0.3,0c-0.1,0-0.1,0-0.1,0
					c-0.2,0-0.3-0.1-0.3-0.1c-0.1,0-0.2,0-0.3,0.1C55.1,56.6,55.2,56.8,55.3,56.9z"/>
			</g>
		</g>
	</g>
</g>
<g>
</g>
<g>
</g>
<g>
</g>
<g>
</g>
<g>
</g>
<g>
</g>
<g>
</g>
<g>
</g>
<g>
</g>
<g>
</g>
<g>
</g>
<g>
</g>
<g>
</g>
<g>
</g>
<g>
</g>
</svg>
