<?xml version="1.0" encoding="utf-8"?>
<!-- Generator: Adobe Illustrator 18.0.0, SVG Export Plug-In . SVG Version: 6.00 Build 0)  -->
<!DOCTYPE svg PUBLIC "-//W3C//DTD SVG 1.1//EN" "http://www.w3.org/Graphics/SVG/1.1/DTD/svg11.dtd">
<svg version="1.1" id="Layer_1" xmlns="http://www.w3.org/2000/svg" xmlns:xlink="http://www.w3.org/1999/xlink" x="0px" y="0px"
	 viewBox="0 0 32.5 32.3" enable-background="new 0 0 32.5 32.3" xml:space="preserve">
<path fill="#27C1AE" d="M23.4,1.6c-0.7-0.3-1.3-0.6-2-0.8c-0.4-0.1-0.8,0-1,0.3L8.3,16.6c-0.4,0.5,0,1.2,0.6,1.2h10.5
	c0.2,0,0.3,0.2,0.2,0.3l-3,3.9l-5.3,6.9C11,29,10.8,29,10.7,29c-5-2.2-8.4-7.1-8.4-12.8C2.3,8.9,7.7,3,14.7,2.2c0.6-0.1,1-0.6,1-1.2
	c0-0.7-0.6-1.2-1.2-1.1C6.4,0.9,0,7.8,0,16.1c0,6.6,3.9,12.2,9.5,14.8c0.7,0.3,1.4,0.6,2.1,0.8c0.4,0.1,0.8,0,1-0.3l1.2-1.5l2.8-3.6
	l8.1-10.4c0.3-0.3,0-0.8-0.4-0.8h-11c-0.2,0-0.3-0.2-0.2-0.3l8.6-11.1c0.1-0.1,0.3-0.2,0.5-0.1c4.7,2.3,7.9,7.1,7.9,12.6
	c0,7.2-5.5,13.1-12.5,13.9c-0.6,0.1-1,0.6-1,1.2c0,0.7,0.6,1.2,1.2,1.1c8.1-0.9,14.4-7.8,14.4-16.1C32.5,9.8,28.8,4.2,23.4,1.6"/>
<g>
</g>
<g>
</g>
<g>
</g>
<g>
</g>
<g>
</g>
<g>
</g>
<g>
</g>
<g>
</g>
<g>
</g>
<g>
</g>
<g>
</g>
<g>
</g>
<g>
</g>
<g>
</g>
<g>
</g>
</svg>
