<?xml version="1.0" encoding="utf-8"?>
<!-- Generator: Adobe Illustrator 18.0.0, SVG Export Plug-In . SVG Version: 6.00 Build 0)  -->
<!DOCTYPE svg PUBLIC "-//W3C//DTD SVG 1.1//EN" "http://www.w3.org/Graphics/SVG/1.1/DTD/svg11.dtd">
<svg version="1.1" id="Layer_1" xmlns="http://www.w3.org/2000/svg" xmlns:xlink="http://www.w3.org/1999/xlink" x="0px" y="0px"
	 viewBox="0 0 19.2 10.9" enable-background="new 0 0 19.2 10.9" xml:space="preserve">
<g>
	
		<line fill="none" stroke="#934947" stroke-width="1.091" stroke-linecap="round" stroke-miterlimit="10" x1="18.6" y1="5.5" x2="12.9" y2="0.5"/>
	
		<line fill="none" stroke="#934947" stroke-width="1.091" stroke-linecap="round" stroke-miterlimit="10" x1="12.9" y1="10.4" x2="18.6" y2="5.5"/>
	<path fill="#934947" d="M1.5,7C0.7,7,0,6.3,0,5.5c0-0.9,0.7-1.5,1.5-1.5c0.9,0,1.5,0.7,1.5,1.5C3.1,6.3,2.3,7,1.5,7"/>
	<path fill="#934947" d="M7.6,7C6.8,7,6.1,6.3,6.1,5.5c0-0.9,0.7-1.5,1.5-1.5c0.9,0,1.5,0.7,1.5,1.5C9.2,6.3,8.5,7,7.6,7"/>
</g>
<g>
</g>
<g>
</g>
<g>
</g>
<g>
</g>
<g>
</g>
<g>
</g>
<g>
</g>
<g>
</g>
<g>
</g>
<g>
</g>
<g>
</g>
<g>
</g>
<g>
</g>
<g>
</g>
<g>
</g>
</svg>
