<?xml version="1.0" encoding="utf-8"?>
<!-- Generator: Adobe Illustrator 18.0.0, SVG Export Plug-In . SVG Version: 6.00 Build 0)  -->
<!DOCTYPE svg PUBLIC "-//W3C//DTD SVG 1.1//EN" "http://www.w3.org/Graphics/SVG/1.1/DTD/svg11.dtd">
<svg version="1.1" id="Layer_1" xmlns="http://www.w3.org/2000/svg" xmlns:xlink="http://www.w3.org/1999/xlink" x="0px" y="0px"
	 viewBox="0 0 195.8 169.6" enable-background="new 0 0 195.8 169.6" xml:space="preserve">
<g>
	<path fill="#FFFFFF" d="M195.6,121l-19-19V7.1c0-2.9-2.4-5.3-5.3-5.3H7.1c-2.9,0-5.3,2.4-5.3,5.3v155c0,2.9,2.4,5.3,5.3,5.3h164.3
		c2.9,0,5.3-2.4,5.3-5.3V121H195.6z"/>
	<path fill-rule="evenodd" clip-rule="evenodd" fill="#3A494F" d="M180.4,108.8c-1.1-1.1-2.4-2.6-3.9-4.1c-0.2-0.2-0.2-0.4-0.3-0.5
		c-0.1-0.2-0.1-0.2-0.8-1l-0.4-0.4l-0.2-0.2c0-0.1,0-0.2,0-0.3c0-0.4,0-0.7,0-1c0-0.4,0-0.8,0-1.2c0-0.7,0-1.4,0.1-2.1
		c0-1.3,0.1-2.6,0.1-4c0-2.9-0.2-0.6-0.2-3.4c0-2.9,0.2-1.7,0.2-4.6c0-2.9-0.4-6.3-0.4-9.1c0-2.9,0.2-0.6,0.2-3.4
		c0-2.9-0.2-1.7-0.2-4.6c0-2.9,0.4-5.5,0.6-7.5c-0.2-4.2-0.4-13.6-0.4-16.5c0-5.6,0.2-3.6,0.3-8.7c0,0,0,1.3,0-1.6
		c0-2.9-0.2-1.7-0.2-4.6c0-2.9,0.2-1.7,0.2-4.6c0-1.3-0.2-3.9-0.6-4.9c0.2-4,0.6-8.2,0.6-11.1c0-0.7,0-1.7-0.1-2.7
		c0-0.8-0.4-1.7-1-2.3c-0.6-0.6-1.4-1-2.2-1.1c-0.6-0.1-1.8,0-2.4,0c-2.9,0-0.6-0.2-3.4-0.2c-2.9,0-2.9,0.2-5.7,0.2
		c-5.8,0-0.6-0.4-4.6-0.4c-2.9,0-0.6,0.2-3.4,0.2c-2.9,0-4-0.2-6.8-0.2c-2.9,0-14.3,0.4-17.1,0.4c-2.9,0-7.4-0.2-10.3-0.2
		c-2.9,0-7.2,0.1-9.6,0.2c-1.3,0-1.8-0.2-1.7-0.4H88.5c1.2,0.2,2.4,0.2,2.2,0.4c-1.5,0-1.5-0.2-4.4-0.2c-2.9,0-2.9,0.2-5.7,0.2
		c-2.9,0-7.4-0.4-10.3-0.4c-2.9,0-2.9,0.2-5.7,0.2c-2.9,0-1.7-0.2-4.6-0.2c-2.9,0-4.6,0.2-6.2,0.4c-1.6-0.1-0.1-0.4-2.9-0.4
		c-2.9,0,0.6,0.2-2.3,0.2c-2.9,0,0.6-0.2-2.3-0.2c-2.9,0,0.6,0.2-2.3,0.2c-2.9,0-0.6-0.2-3.4-0.2c-2.9,0-4,0.2-6.8,0.2
		c-2.9,0-4.5,0-5.4-0.2c-0.8,0-1.4,0.1-1.6,0.4c-1.5,0-1.5-0.2-4.4-0.2c-2.9,0-2.9,0.2-5.7,0.2c-2.9,0-6.3-0.2-9.1-0.2
		c-0.2,0-0.4,0-0.5,0c-0.1,0-0.3,0-0.4,0c-0.3,0-0.5,0.1-0.8,0.2c-0.5,0.2-1,0.5-1.4,0.9C4.1,4.9,3.9,5.4,3.7,5.9
		C3.6,6.1,3.6,6.4,3.5,6.6c0,0.3,0,0.5,0,0.9c0,2.9-0.1,3.2-0.2,4.2c0,5.6,0,11.3-0.1,16.8c-0.1,0.6-0.2-1-0.2,1.8
		c0,2.9,0.4,10.6,0.5,15.3v4c-0.1,0.1-0.2-2.2-0.4-4.5v8.5c0,2.9,0.2,1.3,0.2,4.1s-0.2,4-0.2,6.8c0,2.9,0.2,1.7,0.2,4.6
		c0,2.9-0.2,0.6-0.2,3.4s0.2,4,0.2,6.8c0,2.8-0.1,9.7-0.2,12.6c0,2.1-0.1,6.9,0.2,8.5c-0.1,1.7-0.2,4-0.4,5c0,3.1-0.1,3.7,0.1,3.7
		c0.2,0,0.1-2.3,0.3-1.9c-0.2,2.9-0.4,5.9-0.4,8.8c0,0.7,0.2,6.1,0.5,7.1v4.2c-0.2,0.1-0.4,2.4-0.5,3.3c0,0.8,0.1,1.4,0.4,1.8
		c-0.2,2.9-0.4,4.8-0.4,7.6c0,2.9,0.4,7.4,0.4,10.3c0,2.9-0.2,1.7-0.2,4.6s0,2.3,0.2,2.6c-0.1,1.8-0.4,0.2-0.4,3.1
		c0,1.4,0,1.3,0.1,1.1c0-0.1,0-0.1,0.1,0c0,0.1,0,0.5,0.1,1c0.1,1,0.4,1.5,0.7,1.9c0.3,0.4,0.6,0.9,1.6,1.3c0.4,0.2,0.9,0.3,1.2,0.3
		c0.2,0,0.4,0,0.7,0c0.2,0,0.4,0,0.7,0c0.8,0,1.5,0,2-0.1c1-0.1,1.5-0.2,2-0.5h4.2c0.1,0.2,1.9,0.5,3.6,0.5c2.9,0-0.6-0.2,2.3-0.2
		c2.9,0-0.6,0.2,2.3,0.2c2.9,0,4.3-0.2,6.3-0.3c1.7-0.1,3.5,0,6.3,0c2.9,0,14.3,0.4,17.1,0.4c9.8,0,6.8-0.4,11.4-0.4
		c4.9,0,1.6,0.4,11.4,0.4c2.9,0,6.3-0.2,9.1-0.2c2.9,0,7.7,0.2,11,0.4c1,0,1.5-0.1,1.7-0.4h3.8c2.9,0,2.4,0.2,4.5,0.2
		c0.6,0.1,0.5,0.3,1.5,0.3h3.2c2.9,0,1.8-0.2,3.4-0.3c2.2,0,5.6,0,7.8-0.1c1-0.1-0.9-0.2,1.9-0.2c2.9,0,7.7,0.2,11,0.4
		c1,0,1.5-0.1,1.9-0.4c1.8,0.1,4.8,0.2,7.6,0.2c2.9,0,6-0.1,8.4-0.2c1.3,0,1.8,0.2,1.7,0.4h6.2c0.9-0.1,0.8-0.2,0.9-0.4h6
		c1.4,0,1.7,0,2.1,0.1c0.2,0,0.3,0.1,0.6,0.1c0.2,0,0.6,0,1.1-0.1c1-0.3,1.5-0.8,1.7-1.1c0.2-0.3,0.3-0.5,0.3-0.6
		c0.9-1.2,0.7-2.1,0.8-3c0.1-0.8,0.1-1.2,0.1-1.6c0.1-0.8,0.1-1.5,0.1-5.5c0-5-0.4-11-0.4-12.6c0-2.9,0.4-5.1,0.4-8
		s-0.2-0.6-0.2-3.4c0-2.9,0.2,0.6,0.2-2.3c0-0.7,0-1.7,0-2.7c0-1.4-0.1-2.9-0.1-4.5l0-0.7l0-0.1l0.1,0l0.2,0l0.4,0l1.5,0
		c0.8,0,1.6,0,2.3-0.1c1.2,0,2.3-0.1,3.2-0.1c0.9,0-0.1,0,2.8,0c1.4,0,3.1,0,4.7,0.1c0.8,0,1.5,0.1,2.3,0.1c0.2,0,0.3,0,0.5,0l0.2,0
		c0.1,0,0,0,0.1,0c0,0,0,0,0.1,0.1h0.2c0.1-0.1,0.1-0.2,0.1-0.4c0.3,0.4,0.5,0.6,1.1,0.6c0,0.1-0.2,0.1-0.2,0.4c0,0.5,0.7,0.6,0.7,1
		c0,0.2,0,0.2-0.1,0.2c-0.2,0.1-0.9,0.2-0.9,0.6c0,0.2,0.2,0.2,0.2,0.4c-0.6,0-0.7,0.4-0.9,0.4c-0.1,0-0.2,0-0.3-0.1l0,0l0,0
		c0,0,0,0,0,0l-0.1,0c-0.3,0-0.7,0-1,0c-0.7,0-1.3,0-2.1,0c-2.9,0-4,0.2-6.8,0.2c-2.9,0-0.9-0.1-1.9-0.2c-0.6,0-1.1,0-1.8,0
		c-0.3,0-0.6,0-0.9,0l-0.1,0l0,0l-0.1,0c-0.1,0-0.3-0.1-0.3,0.1l0,0.2l0,0.1l0,0.4c0,2.6-0.1,5-0.1,6.5c0,2.9-0.1,5.2,0,7.1
		c0.1,1.9,0.4,3.7,0.4,6.6c0,2.9-0.1,0.9-0.2,1.9c0,2.1,0,5.5,0,8.3c0,1.4,0,3.5,0,5.9c0,0.6,0,1.2,0,1.8l0,0.5l0,0.6
		c0,0.4-0.1,0.9-0.2,1.3c-0.5,1.7-1.6,3.2-3,4.2c-0.4,0.1,1.2-0.9,1.9-2.1c0,0-0.5,0.6-1.2,1.1c-0.7,0.6-1.6,1-2.2,1.1
		c-0.5,0.2-0.8,0.3-1.3,0.4c-0.1,0-0.3,0.1-0.5,0.1c-0.2,0-0.4,0-0.6,0c-0.4,0-0.9,0-1.7,0c-2.9,0-2.1-0.1-2.9-0.2
		c-1.9,0.1-3.9,0-3.9,0.3c0,0.2,2.3,0.1,2.1,0.3h-6.4c-1.3-0.2-3.1-0.4-6-0.4c-2.9,0,0.6,0.2-2.3,0.2c-2.9,0,0.6-0.2-2.3-0.2
		c-2.9,0-1.7,0.2-4.6,0.2c-2.9,0-2.9-0.2-5.7-0.2c-2.9,0-7.6,0.1-10.6,0.2c-2,0.1-3.3,0.2-5,0.3c-0.4-0.1,1.9-0.2,2.1-0.4
		c-5.3,0-13.3-0.2-16.1-0.2c-2.9,0-5.8,0-7.6,0.1v0.1c-3.2,0-1.3-0.1-2.3-0.2c-0.9,0-1.5,0.1-1.7,0.4c-1.5,0-0.4-0.2-3.3-0.2
		c-2.9,0-1.1,0-1.3,0.2c-1.5,0-2.1-0.2-1.9-0.4c-5.3,0-12.2,0-17.9,0c-0.5-0.1,1.2-0.1-1.7-0.1c-2.9,0-10.8,0.4-13.7,0.4
		c-2.9,0-4-0.4-6.8-0.4c-2.9,0,0.6,0.2-2.3,0.2c-2.9,0-5.6-0.2-6.6-0.4c-0.8,0-1.4,0.1-1.6,0.4h-4.3c-0.1-0.1-2.4-0.2-3.2-0.4
		c-0.7,0-3,0.2-4,0.5h-4.2c-0.1-0.1,2.1-0.2,2.2-0.3c-1-0.1,0.5-0.1-2.3-0.1c-2.9,0-5.1,0.4-8,0.4c-2.9,0-1.7-0.2-4.6-0.2
		c-1.4,0-1.9,0-2.3,0.1c-0.2,0-0.4,0-0.8,0.1c-0.2,0-0.4,0-0.6,0c-0.3,0-0.7,0-1.2-0.1c-1-0.2-1.4-0.4-1.7-0.5
		c-0.3-0.1-0.3-0.2-0.4-0.3c-0.1-0.1-0.1-0.1-0.4-0.3c-0.3-0.2-0.7-0.5-1.3-1.1c-0.6-0.7-1-1.3-1.2-1.7c-0.2-0.4-0.3-0.7-0.4-0.8
		c-0.1-0.3-0.2-0.2-0.3-0.4c-0.1-0.6-0.2-1.2-0.2-1.7c0-0.5,0.1-0.8,0.1-1.3c0.1-0.8,0.1-1.7,0.2-2.6c0.1-1.9,0-5.4,0-8.2
		c0-2.9,0-6.2,0-8.4c0-1.3-0.1-2-0.3-3.7c0,0,0,1.2,0-1.6c0-2.9,0.2-4,0.4-5.5c0.1-0.7,0-1.9,0-4.7c0-9.7-0.4-6.7-0.4-11.4
		c0-3.7,0.3-4.3,0.6-8.7V103c-0.1-0.9,0-0.7-0.2-0.7c-0.2,0-0.2,2.3-0.4,2.1v-8.3c0-2.9,0.2-3,0.2-5.8c0-2.9-0.1-4.2-0.2-5.9
		c0.1-0.4,0.2,1.9,0.3,2c0.1-1,0.1,0.5,0.1-2.3c0-2.9-0.2-1.7-0.2-4.6c0-2.9,0.2-1.7,0.2-4.6c0-2.9-0.2-5.1-0.2-8
		c0-2.9,0.2-4,0.2-6.8c0-2.9-0.2,0.6-0.2-2.3s0.2-0.6,0.2-3.4c0-2.9-0.2-0.6-0.2-3.4c0-2.9,0.2-5.6,0.4-6.5c-0.1-1.8,0-3.8-0.3-3.8
		c-0.2,0-0.1,2.3-0.3,2.1c0-3.8,0.2-3.8,0.2-6.7c0-2.9,0-2.3-0.2-2.6c0.2-2.9,0.4-4.8,0.4-7.6c0-2.9-0.2-4-0.2-6.3
		c0-1.1,0.2-1.5,0.4-4.2H0v-4.4V8.7V7.6L0,7c0-0.2,0-0.5,0-0.7c0.1-0.1,0.2-0.9,0.6-1.7C1,3.8,1.6,3,2,2.7C2.6,2,3.5,1.1,4.8,0.7
		c0.6-0.3,1.3-0.4,2-0.5c0.4,0,0.6,0,0.9,0l0.8,0C10.8,0,13,0,14.4,0c2.9,0,5.6,0.2,6.6,0.4c0.8,0,1.4-0.1,1.7-0.4
		c5.1,0.2,14,0.4,16.8,0.4c3.9,0,3.7,0,3.6-0.4h6c2.9,0,7,0.4,9.8,0.4c2.9,0,1.7-0.2,4.6-0.2c2.9,0,5.1,0.2,8,0.2
		c2.9,0,4-0.2,6.8-0.2c2.9,0-0.6,0.2,2.3,0.2c2.9,0,1.7-0.2,4.6-0.2c2.9,0,4,0.2,6.8,0.2c2.9,0,1.7-0.2,4.6-0.2
		c2.9,0-0.6,0.2,2.3,0.2c2.9,0,1.7-0.2,4.6-0.2c2.9,0,5.6,0.2,6.6,0.4c0.8,0,1.4-0.1,1.6-0.4c1.5,0,0.4,0.2,3.3,0.2
		c2.9,0-0.6-0.2,2.3-0.2c2.9,0-0.6,0.2,2.3,0.2c2.9,0,1.2-0.1,1.8-0.1c2.2-0.1,9,0.2,11-0.2c1.5,0,2,0.2,2.3,0.3
		c1.7,0.1,3.7,0.3,6.5,0.3c1.7,0,3.9-0.2,4.8-0.5h6.4c1.3,0.2,2,0.4,4.8,0.4c2.9,0,0.6-0.2,3.4-0.2c2.9,0,4,0.2,6.8,0.2
		c1.4,0,2.4,0,3.1,0c0.4,0,0.7,0,1,0c0.4,0,0.7,0,1,0.1c0.7,0.1,1,0.1,1.2,0.1c0.2,0,0.4,0,0.7,0.1c0.7,0.3,2,1,3,2.6
		c0.5,0.8,0.9,1.8,1.1,3c0,0.3,0.1,0.6,0.1,0.9c0,0.2,0,0.5,0,0.7c0,0.5,0,1,0.1,1.5c-0.1,0.3-0.2-1-0.2-2c-0.1,0-0.1,2.3-0.3,3.1
		c0.1,1.8,0.2,4.4,0.2,7.2c0,2.9-0.2,4-0.2,6.8c0,2.9,0.2-0.6,0.2,2.3c0,2.9-0.1,0.9-0.2,1.9c0,2.1,0,3.2,0,6.1c0,2.9,0,5.8,0.1,7.6
		h0.1c0,3.2-0.2,0.9-0.2,3.8c0,2.9,0.2,1.7,0.2,4.6c0,2.9-0.2,1.7-0.2,4.6c0,2.9,0.2,0.6,0.2,3.4c0,2.9-0.2,1.7-0.2,4.6
		c0,2.9,0.2,4.6,0.4,6.2c-0.2,2.8-0.4,6.9-0.4,9.8c0,2.9,0.2,1.7,0.2,4.6c0,2.9-0.2,0.6-0.2,3.4c0,2.9,0,2.3,0.2,2.5
		c0,1.5-0.2,2.1-0.4,1.9v9.6c0,0.1,0,0.2,0,0.3l0.2,0.2l0.8,0.8l1.7,1.7l3.5,3.5c2,2-0.3-0.5,1.8,1.5c2,2,0.3,0.5,2.3,2.6
		c2,2,1.3,1.1,3.4,3.1c2,2,1.1,1.3,3.1,3.4c0.1,0.1,0.1,0.1,0.2,0.2c0,0,0,0,0,0c0,0,0,0,0.1,0c0,0,0.1,0,0.1-0.1
		c0,0.2,0,0.5-0.1,0.7c0.1,0.2,0.3,0.6,0.2,0.8c0.1,0,0.2,0,0.4-0.2l0.2,0.2c0.2,0.2,0,0.3,0.1,0.4c-0.1,0.1,0,0.3-0.1,0.4
		c-0.2,0.2-0.2,0-0.4,0.1c-0.2,0.2-0.2,0.4-0.1,0.6c-0.4,0.1-0.7,0.2-1,0.2c-0.1-0.1,0-0.3-0.1-0.4l-0.4,0.4l-0.2-0.2
		c-0.2-0.2,0-0.1,0-0.2c-0.1,0-0.2,0-0.3,0.2c-0.1-0.1,0-0.2-0.1-0.3c-0.1-0.1-0.2-0.3-0.3-0.4l-0.2-0.2c-0.7-0.7-1.4-1.5-2.1-2.2
		c-3.1-3.2-5.8-5.9-6.8-7c-2-2-4.3-4.3-5.7-5.6C178.5,106.6,180,108.2,180.4,108.8"/>
</g>
<g>
</g>
<g>
</g>
<g>
</g>
<g>
</g>
<g>
</g>
<g>
</g>
<g>
</g>
<g>
</g>
<g>
</g>
<g>
</g>
<g>
</g>
<g>
</g>
<g>
</g>
<g>
</g>
<g>
</g>
</svg>
