<?xml version="1.0" encoding="utf-8"?>
<!-- Generator: Adobe Illustrator 18.0.0, SVG Export Plug-In . SVG Version: 6.00 Build 0)  -->
<!DOCTYPE svg PUBLIC "-//W3C//DTD SVG 1.1//EN" "http://www.w3.org/Graphics/SVG/1.1/DTD/svg11.dtd">
<svg version="1.1" id="Layer_1" xmlns="http://www.w3.org/2000/svg" xmlns:xlink="http://www.w3.org/1999/xlink" x="0px" y="0px"
	 viewBox="0 0 151.6 132.6" enable-background="new 0 0 151.6 132.6" xml:space="preserve">
<g>
	<path fill="#FFFFFF" d="M1.2,1.8l149,0V109h-11.4l4.6,20.6c0.3,1.2-1.1,2.1-2.1,1.3l-28.1-22H1.2V1.8z"/>
	<g>
		<g>
			<path fill-rule="evenodd" clip-rule="evenodd" fill="#3A494F" d="M16.4,0c1.2,0,2.7,0.1,4.4,0.1c0.5,0.1,0.3,0.2,1.1,0.2
				c2.6,0,4.3,0.2,6.6,0.2c2.2,0,0.4-0.2,2.7-0.2c2.2,0,1.3,0.2,3.6,0.2c2.2,0,4.9-0.3,7.1-0.3c2.2,0,0.4,0.2,2.7,0.2
				s1.3-0.2,3.6-0.2c2.2,0,4.3,0.3,5.9,0.5c3.3-0.1,10.6-0.3,12.9-0.3c4.4,0,2.8,0.2,6.8,0.3c0,0-1,0,1.2,0c2.2,0,1.3-0.2,3.6-0.2
				c2.2,0,1.3,0.2,3.6,0.2c1,0,3-0.2,3.8-0.4c3.1,0.2,6.4,0.4,8.7,0.4s7.6-0.3,9.8-0.3c2.2,0,0.4,0.2,2.7,0.2s2.2-0.2,4.5-0.2
				c4.6,0,0.4,0.3,3.6,0.3c2.2,0,0.4-0.2,2.7-0.2c2.2,0,3.1,0.2,5.4,0.2c2.2,0,11.2-0.3,13.4-0.3c2.2,0,5.8,0.1,8,0.2
				c1.1,0,2.5,0,3.9,0c0.6,0,1.2,0,1.7,0c0.3,0,0.6,0,0.8,0c0.1,0,0.3,0,0.4,0l0,0.4c0,1,0,2,0.1,2.8c0,1-0.2,1.4-0.3,1.3v14.5
				c0.2-1,0.2-1.9,0.3-1.7c0,1.2-0.1,1.2-0.1,3.4c0,2.2,0.2,2.2,0.2,4.5c0,2.2-0.3,5.8-0.3,8s0.2,2.2,0.2,4.5c0,2.2-0.2,1.3-0.2,3.6
				s0.1,3.6,0.3,4.8c-0.1,1.3-0.3,0.1-0.3,2.3s0.2-0.4,0.2,1.8c0,2.2-0.2-0.4-0.2,1.8c0,2.2,0.2-0.4,0.2,1.8c0,2.2-0.2,0.4-0.2,2.7
				s0.2,3.1,0.2,5.4s0,3.5-0.2,4.3c0,0.7,0.1,1.1,0.3,1.2c0,1.2-0.1,1.2-0.1,3.4c0,2.2,0.2,2.2,0.2,4.5s-0.2,4.9-0.2,7.1
				c0,2.2,0.2,4.9,0.2,7.1c0,2.2-0.1,2.5-0.1,3.3c0,4.4,0,8.8-0.1,13.2c0,0.2-0.1,0-0.1,0.1c0,0,0,0.1,0,0.3c0,0.3,0,0.7,0,1.5
				c-0.1,0.6,0.5,2.3-1.1,1.9c-0.6,0-1.2,0-1.9,0c-0.4,0-0.9,0-1.3,0.1c-1.8,0.1-3.9,0.2-5.7,0.2l-0.2,0l0,0l-0.1,0c0,0-0.1,0-0.1,0
				c0,0,0,0-0.1,0c0,0,0,0.1,0,0.1c0.1,0.2,0.1,0.5,0.1,0.5c0,0-0.1-0.1-0.1-0.2c0-0.1-0.1-0.1-0.1-0.2c0-0.1-0.1-0.2-0.1-0.3
				c0,0,0-0.1,0-0.1l0.1,0c0,0,0.1,0,0.2-0.1c0,0-0.1,0-0.3,0c0,0.2,0.1,0.5,0.2,0.8c0.4,1.6,0.7,3.2,0.7,3.2
				c0.5,2.2,0.4,0.9,0.9,3.1c0.5,2.2,0.5,3.1,1,5.3c0.5,2.2,0.4,1.3,0.9,3.5c0,0,0,0,0,0.1c0.2,1,0.2,1.1,0.2,1.3c0,0.1,0,0.1,0,0.3
				c0,0.1,0,0.2,0.1,0.4c0.1,0.3,0.1,0.6,0.2,1.1c0.2,0.9,0.1,1.5-0.3,2.1c-0.3,0.5-0.8,0.9-1.3,1.1c-0.5,0.2-1.1,0.2-1.7,0
				c-0.3-0.1-0.6-0.3-1-0.5c-0.3-0.2-0.6-0.5-1-0.8c-1.7-1.4-5.9-4.8-7.6-6.2c-1.3-1-4.2-3.4-5.3-4c-1-0.9-2.4-2.1-2.9-2.6
				c-1.9-1.5-2.2-1.9-2.3-1.7s1.3,1.2,1.1,1.1c-1.7-1.5-3.5-3.1-5.2-4.5c-0.2-0.2-1.2-0.9-2.2-1.6c-0.5-0.3-1-0.7-1.5-1
				c-0.1-0.1-0.2-0.1-0.3-0.2c-0.1-0.1-0.2-0.1-0.2-0.1c0,0-0.1,0-0.1,0c0,0,0,0-0.1,0h-0.2h-0.8H110c-0.1-0.2-1.9-0.3-2.6-0.4
				c-0.7,0-1.1,0.1-1.4,0.3c-2.3-0.2-3.7-0.3-6-0.3c-2.2,0-5.8,0.3-8,0.3c-2.2,0-1.3-0.2-3.6-0.2s-1.8,0-2.1,0.1
				c-1.4-0.1-0.2-0.3-2.4-0.3c-2.2,0,0.4,0.2-1.8,0.2s-2.2-0.2-4.5-0.2c-3.9,0-4.8,0-5.5,0.4h-3.3c-0.1-0.1-1.5-0.4-2.8-0.4
				c-2.2,0,0.4,0.2-1.8,0.2c-2.2,0,0.4-0.2-1.8-0.2c-2.2,0-3.3,0.2-4.9,0.3c-1.3,0.1-2.7,0-4.9,0c-2.2,0-11.2-0.3-13.4-0.3
				c-7.7,0-5.4,0.3-8.9,0.3c-3.8,0-1.2-0.3-8.9-0.3c-2.2,0-4.9,0.2-7.1,0.2c-2.2,0-6.1-0.2-8.6-0.3c-0.8,0-1.2,0.1-1.3,0.3H0.2
				l-0.2,0c0,0,0-0.1,0-0.2c0-0.1,0-0.2,0-0.3c0-0.2,0-0.4,0-0.6c0-0.3,0-0.6,0-0.9c0-0.5,0-0.9,0.1-1.1c0-0.4,0.1-0.7,0.1-1.5
				c0.1-0.5,0.2-0.4,0.3-1.1V102c0-2.2-0.1-1.4-0.3-2.7c0-1.7,0-4.4-0.1-6.1c0-0.8-0.1,0.7-0.1-1.5c0-2.2,0.2-6.1,0.3-8.6
				c0-0.8-0.1-1.2-0.3-1.5c0.1-1.4,0.1-3.7,0.1-6c0-2.2-0.1-4.7-0.1-6.6c0-1,0.2-1.4,0.3-1.3v-4.9c-0.1-0.7-0.2-0.6-0.3-0.7v-4.7
				c0-2.2,0.1-1,0.1-3.2c0-2.2,0-2.7-0.1-2.9c0.2-6.3,0.3-2.5,0.3-8.7C0.3,38.7,0,34,0,32.7c0-2.2,0.3-4,0.3-6.3
				c0-2.2-0.2-0.4-0.2-2.7c0-2.2,0.2,0.4,0.2-1.8c0-2.2-0.1-7.4-0.3-10.3c0-0.7,0,0,0-2.2c0-1.1,0-2.4,0.1-3.7
				c0-0.6,0.1-1.2,0.1-1.8c0-0.1,0-0.3,0-0.4l0-0.2c0-0.1,0,0,0-0.1l0.1-0.1V3.2C0.2,3.1,0.1,3.1,0,3.1c0.3-0.2,0.5-0.4,0.5-0.9
				c0.1,0,0.1,0.1,0.3,0.1c0.4,0,0.5-0.6,0.8-0.6c0.2,0,0.1,0,0.2,0c0,0.1,0.1,0.7,0.5,0.7c0.2,0,0.2-0.2,0.3-0.1
				c0,0.5,0.3,0.6,0.3,0.7c0,0.1,0,0.2-0.1,0.3l0,0l0,0c0,0,0,0,0,0l0,0.1l0,0.8c0,0.5,0,1,0,1.6c0,2.2,0.2,3.1,0.2,5.4
				S2.8,12,2.7,12.8c-0.1,3.4-0.1,8.8-0.2,11c0,2.2-0.1,4.1,0,5.6c0.1,1.5,0.3,2.9,0.3,5.2S2.8,35.2,2.7,36c0,1.7,0,4.3,0,6.5
				c0,2.2,0,6.5,0.1,10.5c-0.1,0.2-0.1-0.8-0.2-1.6c-0.1,0-0.1,1.8-0.3,2.5c0,0.7,0.2,0.7,0.2,2.9c0,2.2-0.1,1.7-0.2,2.3
				c0.1,1.5,0,3.1,0.2,3.1s0.1-1.8,0.2-1.7v5c-0.2,1-0.3,2.4-0.3,4.7c0,2.2,0.2-0.4,0.2,1.8c0,2.2-0.2-0.4-0.2,1.8
				c0,2.2,0.2,1.3,0.2,3.6c0,2.2-0.2,2.2-0.2,4.5s0.1,5.9,0.2,8.3c0.1,1.6,0.2,2.6,0.3,3.9c-0.1,0.3-0.2-1.5-0.3-1.6
				c0,4.2-0.1,10.4-0.1,12.6c0,0.6,0,1.1,0,1.7c0,0.2,0,0.4,0,0.5l0,0.2c0,0,0,0.2,0,0.1c0.1,0,0.1,0,0.2,0c0.1,0,0.1,0,0.2,0l0.1,0
				l0.3,0v0c2.5,0,1.1,0.1,1.8,0.2c0.7,0,1.2-0.1,1.3-0.3c1.2,0,0.3,0.1,2.5,0.1c2.2,0,0.9,0,1-0.1c1.2,0,1.7,0.2,1.5,0.3
				c4.2,0,9.5,0,14,0c0.4,0.1-0.9,0.1,1.3,0.1s8.5-0.3,10.7-0.3c2.2,0,3.1,0.3,5.4,0.3c2.2,0-0.4-0.2,1.8-0.2c2.2,0,4.4,0.2,5.1,0.3
				c0.7,0,1.1-0.1,1.2-0.3h3.3c0.1,0.1,1.9,0.2,2.5,0.3c0.6,0,2.3-0.1,3.1-0.4h3.3c0.1,0.1-1.7,0.2-1.7,0.2c0.8,0.1-0.4,0.1,1.8,0.1
				c2.2,0,4-0.3,6.3-0.3c2.2,0,1.3,0.2,3.6,0.2c2.2,0,1.3-0.2,3.6-0.2c2.2,0,0.4,0.2,2.7,0.2c2.2,0,1.8,0,2.1-0.1
				c1.3,0.1,2.6,0.2,4,0.3c1.5,0.1,4.2,0,6.4,0c2.2,0,4.9,0,6.6,0c1,0,1.6-0.1,2.9-0.3c0,0-1,0,1.3,0s3.1,0.2,4.3,0.3
				c0.6,0,1.5,0,3.7,0c0.8,0,1.6,0,2.2,0c0.2,0,0.5,0,0.7,0c0.2,0.1,0.4,0.3,0.5,0.4c0.2,0.2,0.5,0.3,0.7,0.5
				c0.7,0.5,1.2,0.8,1.5,1.1c1.1,0.7,1.2,0.7,2.9,2c2.3,1.8,2.5,2.3,5.1,4.6l1.9,1.5c0.6,0.4,0.4,0.4,0.6,0.2s-1.3-1.2-1.1-1.3
				l5.1,4c1.8,1.4,1.8,1.6,3.5,2.9c1.8,1.4,2.6,2,3.7,2.7c0.1,0.3-1.3-0.8-1.4-0.8c0.6,0.5-0.4-0.2,1.4,1.2c1.8,1.4,1.1,0.7,2.9,2.1
				c0.1,0,0.1,0.1,0.2,0.1c0,0,0,0,0.1,0.1c0,0,0.1,0.1,0.1,0.1c0.1,0.1,0.1,0.1,0.1,0.2c0.1,0.1,0.3,0.2,0.5,0
				c0.2-0.2,0-0.5-0.1-0.7c-0.2-0.6-0.3-1.3-0.5-1.9c-0.1-0.6-0.3-1.2-0.4-1.8c-0.5-2.2-0.5-3.1-1-5.3c-0.5-2.2-0.1,0.5-0.5-1.7
				c-0.5-2.2,0.1-0.5-0.4-2.6c-0.5-2.2-0.2-0.4-0.7-2.6c-0.1-0.6-0.3-1.3-0.4-1.9c-0.2-0.8-0.3-1.7-0.5-2.5c0-0.2-0.1-0.4-0.1-0.5
				c-0.1-0.1,0.1-0.1,0.2-0.1l0.3,0c0.3,0,0.7,0,0.9,0.1c0.6,0,1,0.1,1.3,0.1c0.4,0,0.9,0,1.3,0c1.1,0,2.1,0,2.1-0.2
				c0-0.2-1.8-0.1-1.7-0.2c3,0,3,0.1,5.2,0.1c0.6,0,0.9,0,1.2,0c0.1,0,0.2,0,0.3,0c0,0,0,0,0,0c0,0,0-0.1,0-0.1c0.1,0,0.4,0.2,0.3,0
				c0-0.2,0.1-0.1,0.1-0.8c0-0.7,0.1-1.5,0.1-2.4c0-2.2-0.2-3.1-0.2-4.9c0-0.9,0.2-1.1,0.3-3.3h-0.4v-6.8c0.1-0.1,0.2-1.9,0.3-2.5
				c-0.1-2.3-0.3-7-0.3-9.3s0.2-4.4,0.3-5.1c0-0.7-0.1-1.1-0.3-1.3c0.1-4,0.3-11,0.3-13.2c0-3,0-2.9-0.3-2.8v-4.7
				c0-2.2,0.3-5.5,0.3-7.7c0-2.2-0.2-1.3-0.2-3.6c0-2.2,0.2-4,0.2-6.3c0-2.2-0.2-3.1-0.2-5.4c0-2.2,0.2,0.4,0.2-1.8
				c0-2.2-0.2-1.3-0.2-3.6s0.2-3.1,0.2-5.4s-0.2-1.3-0.2-3.6s0.2,0.4,0.2-1.8c0-2.2-0.2-1.3-0.2-3.6c0-1.1,0-2.2,0.1-3.1
				c0-0.2,0-0.4,0-0.6c0-0.1,0-0.2,0-0.3l0-0.1c0,0,0,0,0-0.1c0-0.1,0.1-0.2,0.1-0.3c0-0.1,0-0.2-0.1-0.3c-0.1,0-0.2,0.1-0.3,0.2
				c-0.2,0-0.2,0-0.2-0.1c0,0-0.1,0-0.1-0.1c-0.2,0-0.6,0-1.1,0c-2.2,0,0.4,0.2-1.8,0.2c-2.2,0,0.4-0.2-1.8-0.2s-1,0.1-1.4,0.1
				c-1.7,0-7-0.1-8.6,0.2c-1.1,0-1.6-0.2-1.8-0.2c-1.3-0.1-2.9-0.2-5.1-0.2c-1.3,0-3,0.2-3.7,0.4h-5c-1-0.2-1.5-0.3-3.8-0.3
				s-0.4,0.2-2.7,0.2c-2.2,0-3.1-0.2-5.4-0.2c-2.2,0-3,0-3.8,0c-0.8,0.1-0.7,0.2-1.1,0.3c-0.9,0-3.2,0-6.4,0.2
				c-0.2-0.1,0.8-0.1,1.6-0.2c0-0.1-1.8-0.1-2.4-0.3c-1.4,0.1-3.4,0.2-5.7,0.2S85.2,3,83,3c-2.2,0,0.4,0.2-1.8,0.2S80.5,3,79.7,3
				C78,3,77.2,3,75,3c-2.2,0-4.6,0-6,0.1v0c-2.5,0-0.7-0.2-3-0.2s-1.3,0.2-3.6,0.2c-2.2,0-1.3-0.2-3.6-0.2s-0.4,0.2-2.7,0.2
				C54,3.1,54.9,3,52.6,3S49,3.1,47.8,3.3C45.6,3.1,42.4,3,40.1,3c-2.2,0-1.3,0.2-3.6,0.2c-2.2,0-0.4-0.2-2.7-0.2
				c-2.2,0-1.8,0-1.9,0.1c-1.2,0-1.7-0.2-1.5-0.3H15.1c-2.2,0,0.4,0.2-1.8,0.2s-0.4-0.2-2.7-0.2C8.4,2.8,9.3,3,7.1,3
				C4.8,3,5.7,2.8,3.5,2.8c-0.1,0-0.2,0-0.2,0c0,0,0,0,0,0c0,0,0,0,0,0c0,0,0,0.1,0,0.1C3,2.9,2.9,2.7,2.8,2.5
				c-0.2,0-0.5-0.2-0.6-0.3c-0.1,0-0.1,0.1-0.1,0.3H1.9c-0.2,0-0.2-0.1-0.3-0.2c0-0.1-0.2-0.1-0.2-0.3c0-0.2,0.2-0.1,0.2-0.3
				c0-0.2-0.1-0.3-0.3-0.4C1.4,1,1.5,0.8,1.7,0.6c0.1,0,0.2,0.1,0.3,0.2V0.3h0.2c0.2,0,0.1,0.1,0.1,0.1c0.1,0,0.1-0.1,0.1-0.3
				c0.1,0,0.1,0.1,0.2,0.1c0.1,0,0.3,0,0.4,0l0.2,0c0.8,0,1.6,0,2.4,0c3.5,0,6.5,0.1,7.6,0.1c2.2,0,4.7,0,6.3,0
				C18.7,0.2,17,0.1,16.4,0z"/>
		</g>
	</g>
</g>
<g>
</g>
<g>
</g>
<g>
</g>
<g>
</g>
<g>
</g>
<g>
</g>
<g>
</g>
<g>
</g>
<g>
</g>
<g>
</g>
<g>
</g>
<g>
</g>
<g>
</g>
<g>
</g>
<g>
</g>
</svg>
