<?xml version="1.0" encoding="utf-8"?>
<!-- Generator: Adobe Illustrator 18.0.0, SVG Export Plug-In . SVG Version: 6.00 Build 0)  -->
<!DOCTYPE svg PUBLIC "-//W3C//DTD SVG 1.1//EN" "http://www.w3.org/Graphics/SVG/1.1/DTD/svg11.dtd">
<svg version="1.1" id="Layer_1" xmlns="http://www.w3.org/2000/svg" xmlns:xlink="http://www.w3.org/1999/xlink" x="0px" y="0px"
	 viewBox="0 0 6.2 6.2" enable-background="new 0 0 6.2 6.2" xml:space="preserve">
<g>
	<g>
		<circle fill="#3A494F" cx="3.1" cy="3.1" r="2.8"/>
		<g>
			<g>
				<path fill-rule="evenodd" clip-rule="evenodd" fill="#3A494F" d="M6.1,4C6.1,4,6,4.1,6,4.1c0,0,0,0-0.1,0c0,0.1-0.1,0.1-0.1,0.2
					c0,0.1,0,0,0,0.1c0,0.1,0,0-0.1,0.1c0,0.1,0,0.2-0.1,0.2c0,0.1,0,0-0.1,0.1c0,0.1,0,0.1,0,0.1C5.5,5,5.4,5,5.3,5
					c0,0.1-0.2,0.3-0.3,0.3C5,5.5,5,5.4,4.9,5.5c0,0,0,0,0,0c-0.1,0,0,0.1-0.1,0.1c-0.1,0-0.1,0-0.1,0c0,0-0.1,0.1-0.1,0.2
					c-0.1,0-0.2,0-0.3,0C4.2,5.8,4.1,6,4,6C3.9,6,4,6,3.9,6C3.8,6,3.8,6,3.7,6.1c-0.2,0,0-0.1-0.1,0c-0.1,0,0,0-0.1,0
					c-0.1,0-0.1,0-0.2,0C3.3,6.1,3,6.1,2.9,6.1c-0.1,0-0.2,0-0.3-0.1C2.6,6,2.5,6,2.4,6c0,0,0-0.1,0-0.1c0,0-0.5-0.2-0.5-0.2
					c0,0.1,0,0.1,0,0.1c0,0,0,0-0.1-0.1c-0.1,0-0.1,0-0.1,0c-0.1,0-0.1-0.2-0.2-0.2c-0.1,0-0.1,0-0.1-0.1c-0.1,0,0-0.1-0.1-0.1
					c-0.1,0-0.1,0-0.2-0.1c0,0,0-0.1,0-0.1c-0.1,0,0,0-0.1,0c-0.1-0.1,0,0,0-0.1c-0.1-0.1,0,0-0.1,0c-0.1-0.1,0,0,0-0.1
					C0.9,5,0.8,5,0.8,5c0-0.1-0.1-0.1-0.1-0.1c0,0,0,0-0.1,0c0,0,0-0.1,0-0.1c0-0.1-0.1,0-0.1-0.1c0-0.1-0.1-0.2-0.1-0.2
					c0-0.1-0.1-0.1-0.1-0.2c0-0.1,0-0.1,0-0.1C0.2,4,0.2,3.8,0.1,3.7c0,0,0,0,0-0.1C0.1,3.5,0,3.4,0,3.2l0-0.1c0,0,0,0.1,0.1,0.1
					c0,0,0-0.2,0-0.2c0-0.1,0,0,0-0.1c0-0.1,0-0.1,0-0.2c0-0.1,0,0,0-0.1c0-0.1,0,0,0-0.1c0-0.1,0-0.1,0-0.2c0-0.1,0.1-0.2,0.1-0.3
					c0-0.1,0.1-0.2,0.1-0.2c0,0,0.1-0.1,0.1-0.1c0-0.1,0.1-0.1,0-0.1c0,0,0,0-0.1,0c0.1-0.1,0.1-0.1,0.2-0.2c0,0,0.1-0.2,0-0.2
					l0.1-0.1c0,0,0.1,0,0.1,0c0,0,0,0,0-0.1c0.1,0,0.1-0.1,0.2-0.1C1,0.9,1,0.8,1.1,0.8c0.1-0.1,0.1,0,0.1-0.1c0.1,0,0,0,0-0.1
					c0,0,0,0,0.1,0c0.1,0,0,0,0-0.1c0.1,0,0.1,0,0.1-0.1c0.1-0.1,0.1-0.1,0.1-0.2l0.1-0.1c0,0,0.1,0.1,0.1,0c0.1,0,0,0,0-0.1
					c0.1,0,0,0,0.1,0C2,0.3,2,0.2,2.1,0.2c0,0,0.1,0,0.2-0.1c0.1,0,0.4,0,0.5,0C2.9,0.1,2.8,0,3,0c0.1,0,0,0.1,0.3,0.1
					c0.1,0,0.2,0,0.2,0c0.1,0,0.2,0.1,0.3,0.1c0,0,0,0,0.1-0.1l0.1,0C4,0.2,4,0.2,4,0.2c0,0,0,0,0,0.1l0.1,0c0.1,0,0.1,0,0.1,0
					c0.1,0,0.1,0.1,0.2,0.1c0,0,0,0,0.1,0c0.1,0,0.2,0.1,0.2,0.2c0,0,0,0,0.1,0c0,0,0.1,0.1,0.1,0.1C5,0.7,5,0.7,5.1,0.8
					c0,0,0,0.1,0,0.1L5.2,1c0,0,0,0,0.1,0l0.1,0.1c0.1,0.1,0,0,0,0.1c0,0.1,0.1,0.1,0.1,0.1c0.1,0.2,0,0.1,0.1,0.3
					c0.1,0.1,0.2,0.2,0.2,0.3c0,0.1,0,0.1,0,0.2c0,0.1,0,0,0.1,0.1c0,0.1,0,0,0,0.1C5.9,2.2,6,2.3,6,2.4c0,0,0,0,0,0.1
					c0,0.1,0,0.2,0,0.2l0,0c0,0,0,0,0.1,0C6,2.8,6,2.9,6,3c0,0,0,0-0.1,0c-0.1,0-0.1,0.1-0.2,0.1c0,0,0,0,0,0c0,0,0-0.1-0.1-0.1
					c0,0,0,0-0.1,0c0-0.1-0.1-0.1-0.1-0.1c0,0,0-0.1,0-0.1c0-0.1,0-0.1-0.1-0.1c0-0.1,0,0,0,0c0-0.1,0-0.2-0.1-0.3
					c0-0.1,0-0.1-0.1-0.1c0,0-0.1,0-0.1-0.1c0-0.1,0,0,0,0c0,0-0.1-0.1-0.1-0.2c0-0.1-0.1-0.1-0.2-0.2c0,0,0,0,0.1,0
					c0,0,0-0.1,0-0.1c0,0,0,0-0.1,0c0,0,0,0,0-0.1c0,0-0.1-0.1-0.1,0c0,0,0,0.1,0,0.1L4.7,1.3c0,0,0-0.1-0.1-0.1c0,0,0,0-0.1,0
					c0,0,0,0,0-0.1c0,0,0,0-0.1,0c0,0,0-0.1-0.1-0.1c-0.1,0-0.1-0.1-0.2-0.1c0,0-0.1,0-0.1,0c0,0,0.1,0,0.1,0
					C4.1,0.8,3.9,0.7,3.9,0.7c-0.1,0-0.1,0-0.2,0l0,0c-0.1,0,0,0,0,0c0,0,0,0,0,0.1c0,0,0,0-0.1,0c-0.1,0,0,0,0,0c0,0,0,0,0-0.1
					c-0.1,0-0.3,0-0.4,0c0,0,0,0,0,0C3,0.5,2.8,0.6,2.8,0.6c-0.1,0-0.1-0.1-0.2,0c-0.1,0,0,0,0,0c-0.1,0-0.1,0-0.2,0c0,0,0,0,0,0.1
					l-0.1,0c0,0-0.1,0-0.1,0c0,0-0.1,0.1,0,0.1l-0.1,0c0,0,0-0.1,0-0.1c0,0,0,0-0.1,0C2,0.8,2,0.9,2,0.9c-0.1,0,0,0-0.1,0
					c-0.1,0,0,0-0.1,0.1c-0.1,0,0,0-0.1,0c-0.1,0,0,0,0,0.1c0,0-0.1,0-0.1,0c0,0-0.1,0.1-0.1,0.1c0,0-0.1,0.1-0.1,0.1
					c0,0,0,0.1,0,0.1c0,0,0,0,0,0c0,0-0.1,0-0.1,0c0,0,0,0-0.1,0.1C0.9,1.7,1,1.7,1,1.8c0,0.1-0.1,0-0.2,0.1l0,0.1c0,0,0,0,0,0
					c0,0,0.1,0,0.1,0c0,0-0.1,0.2-0.1,0.2c0,0.1-0.1,0-0.1,0.1c0,0.1,0,0.1,0,0.1c0,0,0-0.1,0-0.1c0,0,0,0,0,0c0,0.1,0,0,0,0.1
					c0,0.1,0,0-0.1,0.1c0,0.1,0,0.1,0,0.2c0,0.1,0,0.1,0,0.1c0,0.1,0,0,0,0.1c0,0.1,0,0,0,0.1c0,0.1,0,0,0,0.1c0,0.1,0,0.1-0.1,0.1
					c0,0,0,0.1,0.1,0.1c0,0,0-0.1,0,0c0,0.1,0,0.1,0,0.1c0,0.1,0,0,0,0.1c0,0.1,0,0.1,0,0.2c0,0.1,0.1,0.1,0.1,0.1c0,0,0,0,0,0.1
					l0.1,0L0.8,4c0,0,0,0.1,0,0.1c0.1,0,0.1,0.1,0.2,0.2c0,0.1,0,0.1,0,0.2c0,0,0,0,0.1,0c0,0.1,0.1,0.3,0.2,0.3
					c0.1,0.1,0.1,0.1,0.1,0l0.1,0.1c0,0,0.1,0.2,0.1,0.2c0,0,0,0,0.1,0c0,0,0.1,0.1,0.1,0.1c0.1,0,0.1,0,0.1,0c0.1,0,0,0,0,0
					c0.1,0,0,0,0.1,0c0.1,0,0.1,0.1,0.1,0.1c0.1,0,0,0,0.1,0c0.1,0,0,0,0,0c0.1,0,0,0,0.1,0c0.1,0,0.1,0.1,0.1,0.1c0,0,0,0,0-0.1
					c0,0,0,0,0.1,0c0.1,0,0,0,0.1,0c0.1,0,0,0,0,0c0.1,0,0,0,0,0c0,0,0.2,0,0.2,0c0,0,0,0,0,0.1c0,0,0.1,0,0.1,0c0,0,0.1,0,0.1-0.1
					l0.1,0c0,0,0.1,0.1,0.1,0c0.1,0,0,0,0.1,0c0.1,0,0.1,0,0.2,0c0.1,0,0.1,0,0.1,0c0,0,0,0,0-0.1c0,0,0.1,0,0.1-0.1c0,0,0,0,0,0.1
					c0,0,0.1,0,0.1,0c0,0,0.1-0.1,0.1-0.1c0.1,0,0.1,0,0.1,0c0.1,0,0,0,0-0.1c0.1,0,0,0,0.1,0c0,0,0.1,0,0.1-0.1
					c0,0,0.1-0.1,0.1-0.1l0,0c0.1,0,0,0,0.1,0c0,0,0,0,0.1-0.1c0,0,0.1,0,0.1,0c0,0,0,0,0-0.1c0,0,0,0,0.1-0.1c0,0,0-0.1,0-0.1
					c0.1,0,0.1-0.1,0.2-0.1c0-0.1,0,0,0-0.1c0-0.1,0,0,0.1,0c0-0.1,0,0,0-0.1c0,0,0.1,0,0.1,0c0,0,0.2-0.4,0.2-0.4c0-0.1,0,0,0-0.1
					c0-0.1,0,0,0-0.1c0-0.1,0,0,0-0.1c0-0.1,0,0,0-0.1c0,0,0,0,0,0c0,0,0.1,0,0.1-0.1c0,0,0-0.1,0.1-0.1c0,0,0,0-0.1,0l0-0.1
					c0,0,0,0,0-0.1c0,0,0,0,0.1,0c0,0,0,0,0.1,0c0,0,0.1,0,0.1-0.1c0.1,0,0.1,0.1,0.1,0.1c0,0,0,0,0,0.1l0.1,0l0,0.1c0,0,0,0,0,0
					c0,0,0,0,0.1,0c0,0,0,0,0,0c0,0.1-0.1,0.4-0.1,0.5C6,4,6,4,6,4.1C6,4.1,6.1,4,6.1,4z"/>
			</g>
		</g>
	</g>
	<g>
		<path fill="#FFFFFF" d="M3.1,4.8c-0.1,0-0.2,0-0.3-0.1C2.8,4.6,2.7,4.5,2.7,4.4V3c0,0,0,0,0,0H2.4c-0.1,0-0.2,0-0.2-0.1
			C2.1,2.8,2.1,2.7,2.1,2.6s0-0.2,0.1-0.2c0.1-0.1,0.1-0.1,0.2-0.1h0.8c0.1,0,0.2,0,0.3,0.1s0.1,0.2,0.1,0.3v1.7
			c0,0.1,0,0.2-0.1,0.3C3.3,4.8,3.3,4.8,3.1,4.8L3.1,4.8z M3.4,1.9C3.3,1.9,3.2,2,3.1,2C3,2,2.9,1.9,2.8,1.9
			C2.7,1.8,2.7,1.7,2.7,1.6s0-0.2,0.1-0.3C2.9,1.2,3,1.2,3.1,1.2c0.1,0,0.2,0,0.3,0.1c0.1,0.1,0.1,0.2,0.1,0.3S3.5,1.8,3.4,1.9z"/>
	</g>
</g>
<g>
</g>
<g>
</g>
<g>
</g>
<g>
</g>
<g>
</g>
<g>
</g>
<g>
</g>
<g>
</g>
<g>
</g>
<g>
</g>
<g>
</g>
<g>
</g>
<g>
</g>
<g>
</g>
<g>
</g>
</svg>
