<?xml version="1.0" encoding="utf-8"?>
<!-- Generator: Adobe Illustrator 18.0.0, SVG Export Plug-In . SVG Version: 6.00 Build 0)  -->
<!DOCTYPE svg PUBLIC "-//W3C//DTD SVG 1.1//EN" "http://www.w3.org/Graphics/SVG/1.1/DTD/svg11.dtd">
<svg version="1.1" id="Layer_1" xmlns="http://www.w3.org/2000/svg" xmlns:xlink="http://www.w3.org/1999/xlink" x="0px" y="0px"
	 viewBox="0 0 120 71.1" enable-background="new 0 0 120 71.1" xml:space="preserve">
<g>
	<rect x="1.4" y="1.4" fill="#3A494F" width="117.5" height="68"/>
	<g>
		<g>
			<path fill-rule="evenodd" clip-rule="evenodd" fill="#3A494F" d="M108.1,71.1c-0.8,0-1.9-0.1-3-0.1c-0.3-0.1-0.2-0.2-0.8-0.2
				c-1.7,0-2.9-0.2-4.4-0.2s-0.3,0.1-1.8,0.1c-1.5,0-0.9-0.1-2.4-0.1c-1.5,0-3.3,0.3-4.8,0.3s-0.3-0.1-1.8-0.1s-0.9,0.1-2.4,0.1
				s-2.9-0.3-4-0.4c-2.2,0.1-7.2,0.3-8.7,0.3c-2.9,0-1.9-0.2-4.6-0.3c0,0,0.7,0-0.8,0s-0.9,0.1-2.4,0.1s-0.9-0.1-2.4-0.1
				c-0.7,0-2,0.2-2.6,0.4c-2.1-0.1-4.3-0.4-5.9-0.4s-5.1,0.3-6.7,0.3s-0.3-0.1-1.8-0.1c-1.5,0-1.5,0.1-3,0.1c-3.1,0-0.3-0.3-2.4-0.3
				c-1.5,0-0.3,0.1-1.8,0.1s-2.1-0.1-3.6-0.1s-7.6,0.3-9.1,0.3s-3.9-0.1-5.4-0.1s-3.8,0.1-5.1,0.1c-0.7,0-1-0.2-0.9-0.3H5.5
				c0.6,0.2,1.3,0.2,1.2,0.3c-0.8,0-0.8-0.1-2.3-0.1c-0.4,0-0.7,0-0.9,0c-0.3,0-0.5,0-0.7,0c-0.4,0-0.7,0-1.1,0c-0.2,0-0.4,0-0.7,0
				c-0.1,0-0.3,0-0.4,0c-0.1,0-0.2,0-0.2,0c-0.1,0-0.2,0-0.2-0.1c0-0.7,0-1.5,0-2.3c0-0.2,0-0.4,0-0.6c0-0.1,0-0.2,0-0.4
				c0-0.2,0-0.5,0.1-0.7c0.1-1,0.1-2,0.1-2.7c0-1.5-0.1-1.5-0.1-3c0-1.5,0.1-0.9,0.1-2.4s-0.1-2.5-0.3-3.3c0.1-0.9,0.3,0,0.3-1.6
				S0.3,54,0.3,52.5s0.1,0.3,0.1-1.2S0.3,51.6,0.3,50s0.1-0.3,0.1-1.8s-0.1-2.1-0.1-3.6s0-2.4,0.1-2.9c0-0.4-0.1-0.7-0.3-0.8
				c0-0.8,0.1-0.8,0.1-2.3c0-1.5-0.1-1.5-0.1-3s0.1-3.3,0.1-4.8s-0.1-3.3-0.1-4.8c0-1.5,0.1-1.7,0.1-2.2c0-3,0-6,0-8.9
				c0.1-0.3,0.1,0.5,0.1-1S0.1,8.2,0,5.7V3.6c0.1-0.1,0.1,1.2,0.3,2.4V3.1V0.4c0,0,0-0.1,0-0.1l0.1,0c0.1,0,0.1,0,0.2,0
				c0.1,0,0.2,0,0.3,0c0.2,0,0.4,0,0.5,0c0.3,0,0.4,0,0.5-0.1c0.1,0,0.3,0,0.6,0c0.2,0,0.5,0,1,0c1.5,0,2.1,0.1,3.6,0.1
				s0.9-0.1,2.4-0.1s0.3,0.1,1.8,0.1c1.5,0,2.1-0.1,3.6-0.1c1.5,0,5.2,0.1,6.7,0.1c1.1,0,3.7,0,4.5-0.1c0.9,0.1,2.1,0.2,2.6,0.3
				c1.7,0,2,0.1,2-0.1s-1.2-0.1-1-0.2c1.5,0.1,3.1,0.3,4.6,0.3c0.4,0,3.3-0.2,3.7-0.4h2.2c0.1,0.2,1.3,0.3,1.7,0.4
				c0.4,0,0.7-0.1,0.9-0.3c1.5,0.1,2.5,0.3,4,0.3s3.9-0.3,5.4-0.3s0.9,0.1,2.4,0.1s1.2,0,1.4-0.1c0.9,0.1,0.1,0.3,1.6,0.3
				c1.5,0-0.3-0.1,1.2-0.1s1.5,0.1,3,0.1c2.6,0,3.3,0,3.7-0.4h2.2c0.1,0.1,1,0.4,1.9,0.4c1.5,0-0.3-0.1,1.2-0.1s-0.3,0.1,1.2,0.1
				s2.3-0.2,3.3-0.3c0.9-0.1,1.8,0,3.3,0s7.6,0.3,9.1,0.3c5.2,0,3.6-0.3,6-0.3c2.6,0,0.8,0.3,6,0.3c1.5,0,3.3-0.1,4.8-0.1
				s4.1,0.1,5.8,0.3c0.5,0,0.8-0.1,0.9-0.3h2c1.5,0,1.3,0.1,2.4,0.2c0.3,0.1,0.3,0.2,0.8,0.3h2.3c0.1,0,0.1,0,0.2,0
				c0.1,0,0,0.1,0,0.1c0,0.1,0,0.2,0,0.3c0,0.2,0,0.3,0,0.5c0,0.2,0,0.4,0.1,0.5c0,0.2,0.1,0.3,0.2,1c0,1.2,0,3,0,4.1
				c0,0.6,0.1-0.5,0.1,1s-0.1,4.1-0.3,5.8c0,0.5,0.1,0.8,0.3,1c-0.1,0.9-0.1,2.5-0.1,4s0.1,3.2,0.1,4.5c0,0.7-0.2,1-0.3,0.9v3.3
				c0.1,0.5,0.2,0.4,0.3,0.5v3.2c0,1.5-0.1,0.7-0.1,2.2c0,1.5,0,1.8,0.1,1.9c-0.2,4.3-0.3,1.7-0.3,5.9c0,2.6,0.3,5.8,0.3,6.7
				c0,1.5-0.3,2.7-0.3,4.2s0.1,0.3,0.1,1.8c0,1.5-0.1-0.3-0.1,1.2c0,1.5,0.1,5,0.3,7c0,0.5,0,0,0,1.5c0,0.8,0,1.6-0.1,2.5
				c0,0.4-0.1,0.8-0.1,1.2l0,0.3c0,0.1,0,0.2,0,0.2l0,0.1v0.2c0.1,0.1,0.2,0,0.3,0.1c-0.3,0.2-0.4,0.4-0.4,0.8
				c-0.1,0-0.1-0.1-0.3-0.1c-0.4,0-0.5,0.6-0.8,0.6c-0.2,0-0.1,0-0.2,0c0-0.1-0.1-0.7-0.4-0.7c-0.2,0-0.2,0.1-0.3,0.1
				c0-0.4-0.3-0.5-0.3-0.7c0-0.1,0-0.2,0.1-0.2l0,0c0,0,0,0,0-0.1l0-0.5c0-0.4,0-0.7,0-1.1c0-1.5-0.1-2.1-0.1-3.6s0.1-0.5,0.1-1
				c0-2.3,0.1-6,0.2-7.5c0-1.5,0.1-2.8,0-3.8s-0.3-2-0.3-3.5s0.1-0.5,0.1-1c0-1.1,0-2.9,0-4.4c0-1.5,0-4.4-0.1-7.1
				c0.1-0.1,0.1,0.5,0.2,1.1c0.1,0,0.1-1.2,0.2-1.7c0-0.4-0.1-0.4-0.1-2s0.1-1.1,0.1-1.6c-0.1-1,0-2.1-0.2-2.1s-0.1,1.2-0.2,1.1
				v-3.4c0.1-0.7,0.3-1.6,0.3-3.2s-0.1,0.3-0.1-1.2s0.1,0.3,0.1-1.2s-0.1-0.9-0.1-2.4c0-1.5,0.1-1.5,0.1-3s-0.1-4-0.2-5.6
				c-0.1-1.1-0.2-1.7-0.3-2.7c0.1-0.2,0.2,1,0.3,1.1c0-0.7,0-1.5,0-2.3c0-0.8,0-1.6,0-2.3c0-0.2,0.1-0.4-0.1-0.4c-0.1,0-0.1,0-0.2,0
				c-0.3,0-0.5,0-0.6,0c-1.5,0-3.1,0-4,0.1v0c-1.7,0-0.7-0.1-1.2-0.1c-0.5,0-0.8,0.1-0.9,0.3c-0.8,0-0.2-0.1-1.7-0.1s-0.6,0-0.7,0.1
				c-0.8,0-1.1-0.2-1-0.3c-2.8,0-6.5,0-9.5,0c-0.3-0.1,0.6-0.1-0.9-0.1c-1.5,0-5.7,0.3-7.3,0.3s-2.1-0.3-3.6-0.3s0.3,0.1-1.2,0.1
				s-3-0.2-3.5-0.3c-0.4,0-0.7,0.1-0.8,0.3H78c-0.1-0.1-1.3-0.1-1.7-0.3c-0.4,0-1.6,0.1-2.1,0.4h-2.2c-0.1-0.1,1.1-0.2,1.2-0.2
				c-0.5-0.1,0.3,0-1.2,0s-2.7,0.3-4.2,0.3s-0.9-0.1-2.4-0.1s-0.9,0.1-2.4,0.1S62.5,2.6,61,2.6s-1.2,0-1.4,0.1
				c-0.9-0.1-1.8-0.2-2.7-0.3c-1-0.1-2.9,0-4.4,0s-3.3,0-4.4,0c-0.7,0-1.1,0.1-2,0.2c0,0,0.7,0-0.8,0c-1.5,0-2.1-0.2-2.9-0.3
				c-0.4,0-1,0-2.5,0c-5.1,0-3.6,0.3-6,0.3c-2,0-2.3-0.2-4.6-0.4h-1.6c-0.5,0.1-0.4,0-0.4,0.1s1.2,0.2,1.1,0.3h-4.4
				c-1.5,0-1.6-0.1-3.1-0.1c-1.5,0-2.2,0.1-3.1,0.1c-0.2-0.1,1-0.2,1-0.2c-0.5-0.1,0.3,0-1.2,0S16.5,2.6,15,2.6s-0.9-0.1-2.4-0.1
				S9.9,2.6,8.4,2.6S6.3,2.5,4.7,2.5S5,2.6,3.5,2.6c-0.2,0-0.3,0-0.4,0C3,2.6,3,2.6,3,2.6c0,0,0,0-0.1,0c0,0-0.1-0.1-0.3-0.1
				c-0.2,0-0.1,0.1-0.1,0.1c0,0,0,0.1,0,0.1c0,0,0.1,0.1,0.1,0.3c0,0.3,0,0.7,0,1c0,0.4,0,0.7-0.1,1C2.5,5.6,2.4,6.1,2.3,6.3
				c0.1,1,0,2,0.2,2s0.1-1.2,0.2-1.1c0,2-0.1,2-0.1,3.5s0,1.2,0.1,1.4c-0.1,1.5-0.3,2.5-0.3,4s0.1,2.1,0.1,3.3
				c0,0.6-0.1,0.8-0.3,2.2h0.4v4.6c-0.1,0.1-0.1,1.3-0.3,1.7c0.1,1.6,0.3,4.8,0.3,6.3s-0.2,3-0.3,3.5c0,0.4,0.1,0.7,0.3,0.9
				c-0.1,2.7-0.3,7.4-0.3,8.9c0,2,0,2,0.3,1.9v3.2c0,1.5-0.3,3.7-0.3,5.2s0.1,0.9,0.1,2.4S2.5,63,2.5,64.6c0,0.8,0,1.3,0.1,1.8
				c0,0.3,0,0.5,0,0.8c0,0.2,0,0.4,0,0.7c0,0.4-0.1,0-0.1,0.4c0.2,0,0.3,0,0.4-0.1c0,0,0.1,0,0.1,0c0.1,0,0.4,0,0.7,0
				c1.5,0,2.1,0.1,3.6,0.1s0.9-0.1,2.4-0.1s-0.3,0.1,1.2,0.1s0.9-0.1,2.4-0.1s3,0.2,3.5,0.3c0.4,0,0.7-0.1,0.8-0.3
				c0.8,0,0.2,0.1,1.7,0.1s-0.3-0.1,1.2-0.1c1.5,0-0.3,0.1,1.2,0.1s0.6-0.1,0.9-0.1c1.2,0,4.7,0.1,5.8-0.2c0.8,0,1.1,0.2,1.2,0.2
				c0.9,0.1,2,0.2,3.5,0.2c0.9,0,2-0.2,2.5-0.4h3.4c0.7,0.2,1,0.3,2.6,0.3s0.3-0.1,1.8-0.1s2.1,0.1,3.6,0.1s2,0,2.6,0
				c0.6,0,0.5-0.2,0.8-0.2c0.6,0,2.1,0,4.3-0.2c0.2,0.1-0.5,0.1-1.1,0.2c0,0.1,1.2,0.1,1.6,0.2c1-0.1,2.3-0.1,3.8-0.1
				c1.5,0,2.1,0.1,3.6,0.1s-0.3-0.1,1.2-0.1s0.5,0.1,1,0.1c1.1,0,1.7,0,3.2,0c1.5,0,3.1,0,4-0.1v0c1.7,0,0.5,0.1,2,0.1
				s0.9-0.1,2.4-0.1s0.9,0.1,2.4,0.1s0.3-0.1,1.8-0.1s0.9,0.1,2.4,0.1s2.5-0.1,3.3-0.3c1.5,0.1,3.7,0.3,5.2,0.3s0.9-0.1,2.4-0.1
				s0.3,0.1,1.8,0.1s1.2,0,1.3-0.1c0.8,0,1.1,0.2,1,0.3H109c1.5,0-0.3-0.1,1.2-0.1s0.3,0.1,1.8,0.1s0.9-0.1,2.4-0.1s0.9,0.1,2.4,0.1
				c0.1,0,0.1,0,0.2,0c0,0,0,0,0,0c0,0,0,0,0,0c0,0,0-0.1,0-0.1c0.1,0.1,0.3,0.2,0.3,0.4c0.2,0,0.5,0.2,0.5,0.3
				c0.1,0,0.1-0.1,0.1-0.3h0.2c0.2,0,0.1,0.1,0.3,0.2c0,0.1,0.2,0.1,0.2,0.3s-0.1,0.1-0.1,0.3s0.1,0.3,0.3,0.4
				c-0.1,0.2-0.3,0.4-0.4,0.7c-0.1,0-0.2-0.1-0.3-0.1v0.4H118c-0.2,0-0.1-0.1-0.1-0.1c-0.1,0-0.1,0.1-0.1,0.3
				c-0.1,0-0.1-0.1-0.2-0.1c-0.1,0-0.3,0-0.4,0l-0.2,0c-0.6,0-1.1,0-1.6,0c-2.4,0-4.4-0.1-5.2-0.1c-1.5,0-3.2,0-4.2,0
				C106.5,70.9,107.7,71,108.1,71.1z"/>
		</g>
	</g>
</g>
<g>
</g>
<g>
</g>
<g>
</g>
<g>
</g>
<g>
</g>
<g>
</g>
<g>
</g>
<g>
</g>
<g>
</g>
<g>
</g>
<g>
</g>
<g>
</g>
<g>
</g>
<g>
</g>
<g>
</g>
</svg>
