<?xml version="1.0" encoding="utf-8"?>
<!-- Generator: Adobe Illustrator 18.0.0, SVG Export Plug-In . SVG Version: 6.00 Build 0)  -->
<!DOCTYPE svg PUBLIC "-//W3C//DTD SVG 1.1//EN" "http://www.w3.org/Graphics/SVG/1.1/DTD/svg11.dtd">
<svg version="1.1" id="Layer_1" xmlns="http://www.w3.org/2000/svg" xmlns:xlink="http://www.w3.org/1999/xlink" x="0px" y="0px"
	 viewBox="0 0 17.8 17.6" enable-background="new 0 0 17.8 17.6" xml:space="preserve">
<g>
	<g>
		<circle fill="#3A494F" cx="8.9" cy="8.8" r="8"/>
		<g>
			<g>
				<path fill-rule="evenodd" clip-rule="evenodd" fill="#3A494F" d="M17.5,11.5c-0.1,0.1-0.2,0.2-0.2,0.4c-0.1,0-0.1,0-0.2,0
					c-0.1,0.2-0.3,0.3-0.4,0.5c-0.1,0.2,0.1,0.1,0,0.3c-0.1,0.2-0.1,0.1-0.2,0.3c-0.1,0.2-0.1,0.5-0.2,0.7c-0.1,0.2-0.1,0-0.2,0.2
					c-0.1,0.2,0,0.2-0.1,0.3c-0.1,0.2-0.4,0.2-0.6,0.3c-0.1,0.3-0.6,0.9-0.7,1c-0.3,0.3-0.3,0.1-0.6,0.3c0,0,0.1-0.1-0.1,0.1
					c-0.2,0.1,0,0.2-0.2,0.3c-0.2,0.1-0.2,0-0.3,0.1c-0.1,0-0.2,0.2-0.2,0.4c-0.3,0.1-0.7,0-0.9,0.1c-0.2,0.1-0.6,0.4-0.8,0.5
					c-0.2,0.1-0.1-0.1-0.3,0c-0.2,0.1-0.2,0.1-0.4,0.2c-0.4,0.1-0.1-0.2-0.4-0.1c-0.2,0,0,0.1-0.2,0.1c-0.2,0-0.3,0-0.5,0
					c-0.2,0-1.1,0.2-1.3,0.2c-0.2,0-0.6-0.1-0.8-0.2c-0.2,0-0.5,0-0.7,0c-0.1,0-0.1-0.1-0.1-0.2c0,0-0.1,0-0.2-0.1
					c-0.1,0-0.3-0.1-0.5-0.1c-0.3-0.1-0.6-0.2-0.6-0.2c0,0.2,0.1,0.2,0.1,0.2c-0.1,0-0.1-0.1-0.3-0.2c-0.2-0.1-0.2,0-0.4-0.1
					c-0.2-0.1-0.4-0.4-0.6-0.5c-0.2-0.1-0.2,0-0.4-0.2c-0.2-0.1,0-0.2-0.2-0.3c-0.2-0.1-0.3-0.1-0.5-0.1c-0.1-0.1,0.1-0.1,0-0.3
					c-0.2-0.1,0,0.1-0.2,0C2.8,15,3,15.1,2.9,15c-0.2-0.1,0,0.1-0.2-0.1c-0.1-0.2,0-0.1-0.1-0.3c-0.1-0.2-0.3-0.2-0.4-0.3
					C2,14.2,2,14.1,2,14c0,0-0.1,0-0.2,0c-0.1-0.1,0-0.1-0.1-0.3c-0.1-0.2-0.2-0.1-0.3-0.3c-0.1-0.2-0.2-0.5-0.3-0.6
					c-0.1-0.2-0.3-0.4-0.4-0.6c-0.1-0.2,0-0.2,0-0.3c-0.1-0.4-0.2-0.8-0.3-1.2c0-0.1,0.1,0.1,0.1-0.1c0-0.2-0.3-0.8-0.4-1.1L0,9
					c0.1,0,0.1,0.2,0.2,0.3c0,0,0-0.6,0-0.6c0-0.2-0.1-0.1-0.1-0.3c0-0.2,0.1-0.3,0.1-0.5c0-0.2-0.1-0.1,0-0.4c0-0.2,0.1,0,0.1-0.2
					c0-0.2,0-0.3,0-0.5c0-0.2,0.3-0.7,0.4-0.9c0.1-0.2,0.2-0.5,0.1-0.6C0.9,5.1,1.1,5,1.2,5c0.1-0.2,0.2-0.2,0.1-0.3
					C1.1,4.6,1.1,4.8,1.1,4.8c0.2-0.2,0.4-0.3,0.5-0.5c0,0,0.1-0.4,0.1-0.6l0.2-0.3c0.1,0.1,0.3,0,0.4,0c0-0.1,0-0.1-0.1-0.2
					C2.3,3.1,2.5,3,2.6,2.9c0.1-0.2,0.3-0.5,0.4-0.7c0.2-0.1,0.2,0,0.3-0.2c0.2-0.1,0.1-0.1,0.1-0.2c0.1,0,0.1,0.1,0.3,0
					c0.2-0.1-0.1,0,0.1-0.2C4,1.6,4.1,1.6,4.3,1.5C4.6,1.3,4.6,1.3,4.6,1c0,0,0.3-0.1,0.3-0.1C4.9,0.9,5.1,1,5.2,1
					c0.2-0.1-0.1-0.1,0.1-0.2c0.2-0.1,0,0.1,0.2,0c0.2-0.1,0.3-0.2,0.4-0.3C6,0.4,6.2,0.4,6.4,0.4c0.2-0.1,1.1-0.1,1.3-0.1
					C8.4,0.2,8.2,0,8.5,0c0.4,0,0.1,0.2,0.9,0.2c0.2,0,0.5-0.1,0.7,0c0.2,0,0.6,0.2,0.8,0.3c0.1,0,0.1,0,0.2-0.1l0.3,0.1
					c0.2,0.1,0.1,0.1,0.3,0.2c0,0.1,0,0.1,0,0.2l0.2,0.1C12,1,12,0.9,12.1,0.8c0.2,0,0.4,0.2,0.5,0.2c0.1,0,0-0.1,0.2,0
					c0.2,0.1,0.5,0.4,0.6,0.6c0.1,0,0.1,0,0.2-0.1c0.1,0.1,0.2,0.3,0.4,0.4c0.2,0.1,0.4,0.2,0.5,0.3c0.1,0.1,0,0.2,0,0.2l0.3,0.3
					c0.1,0,0.1,0,0.2-0.1L15.4,3c0.1,0.2,0,0.1,0.1,0.3c0.1,0.2,0.2,0.2,0.2,0.2c0.3,0.6,0,0.3,0.3,0.8c0.2,0.3,0.6,0.6,0.6,0.7
					c0.1,0.2,0,0.4,0.1,0.6c0.1,0.2,0.1,0,0.2,0.2c0.1,0.2-0.1,0,0,0.2c0.1,0.2,0.3,0.6,0.4,0.9c0,0.1,0,0,0.1,0.2
					c0,0.2,0,0.5-0.1,0.6l0,0.1c0,0,0.1,0,0.2,0c-0.2,0.2-0.3,0.3-0.3,0.6c-0.1,0-0.1-0.1-0.2-0.1c-0.3,0-0.3,0.4-0.5,0.4
					c-0.1,0-0.1,0-0.1,0c0-0.1-0.1-0.4-0.3-0.4c-0.1,0-0.1,0.1-0.2,0.1c0-0.3-0.2-0.3-0.2-0.4c0-0.1,0.1-0.2,0-0.4
					c0-0.2-0.1-0.2-0.2-0.4c0-0.2,0-0.1,0.1-0.1c0-0.3-0.1-0.7-0.2-0.9c-0.1-0.2-0.1-0.3-0.2-0.4c-0.1-0.1-0.3-0.1-0.3-0.3
					c-0.1-0.2,0-0.1,0-0.1c0-0.1-0.2-0.3-0.3-0.4c-0.1-0.2-0.3-0.4-0.5-0.6c0-0.1,0.1,0,0.2,0c0,0,0-0.2,0-0.3c0,0-0.1,0-0.2-0.1
					c-0.1-0.1,0-0.1-0.1-0.2c-0.1-0.1-0.2-0.2-0.3-0.1c-0.1,0.1,0,0.2,0,0.2c0,0-0.3-0.3-0.3-0.3c0-0.1,0-0.3-0.1-0.4
					c-0.1-0.1,0,0.1-0.2,0c-0.1-0.1,0.1-0.1-0.1-0.2c-0.1-0.1-0.1,0-0.3-0.1c-0.1-0.1-0.1-0.2-0.2-0.3c-0.2-0.1-0.4-0.2-0.6-0.2
					c-0.1,0-0.2,0-0.4,0c0-0.1,0.2-0.1,0.2-0.1c-0.3-0.1-0.7-0.4-0.9-0.5C11,2,10.8,1.9,10.7,2l0,0c-0.2,0-0.1-0.1-0.1-0.1
					c-0.1,0-0.1,0-0.1,0.2c-0.1,0,0-0.1-0.2-0.1c-0.2,0-0.1,0-0.1,0.1c-0.1,0-0.1-0.1-0.1-0.2C9.7,1.7,9.3,1.7,9,1.6
					c0,0,0.1-0.1-0.1-0.1C8.7,1.6,8.2,1.8,8,1.8c-0.2,0-0.3-0.1-0.4-0.1c-0.2,0,0.1,0.1-0.1,0.1c-0.2,0-0.4,0-0.4-0.1
					C7,1.7,6.9,1.8,7,1.9C7,1.9,6.7,2,6.7,2c0-0.1-0.2,0-0.2-0.1c0,0-0.1,0.1-0.1,0.3c0,0-0.2,0.1-0.2,0.1c0-0.1,0.1-0.2,0.1-0.2
					c-0.1,0,0,0-0.1,0C5.9,2.2,5.8,2.5,5.7,2.5c-0.2,0.1-0.1,0-0.3,0.1c-0.2,0.1,0,0.1-0.2,0.2C5,2.9,5.1,2.8,4.9,2.8
					C4.8,2.9,4.8,3,4.9,3c-0.1,0-0.2,0-0.4,0c-0.1,0-0.3,0.2-0.4,0.3C4,3.5,3.8,3.6,3.7,3.8c0,0.1,0,0.1,0,0.3c0,0,0.1,0,0,0.1
					C3.5,4.2,3.4,4.2,3.3,4.3c0,0-0.1,0.1-0.2,0.2C2.7,5,3,4.9,2.9,5.2C2.7,5.4,2.6,5.3,2.4,5.5L2.3,5.7c0,0.1,0,0,0.1,0.1
					c0.1,0,0.2-0.1,0.2,0c0,0-0.2,0.5-0.2,0.5C2.3,6.4,2.2,6.3,2.1,6.5c-0.1,0.2,0,0.3,0,0.4C2,6.9,2,6.7,2,6.7
					c-0.1,0.1,0,0-0.1,0.1C1.9,7,2,7,2,7.1c0,0.2-0.1,0.1-0.2,0.3c0,0.2,0,0.3,0,0.5c0,0.2-0.1,0.2-0.1,0.4c0,0.2,0.1,0,0.1,0.1
					c0,0.2-0.1,0-0.1,0.2c0,0.2,0.1,0,0.1,0.2c0,0.2-0.1,0.4-0.2,0.4c0.1,0.1,0,0.2,0.2,0.2c0.1,0,0.1-0.1,0.1-0.1
					c0,0.2-0.1,0.2,0,0.4c0,0.2,0,0.1,0.1,0.1c-0.1,0.2-0.1,0.3-0.1,0.5c0,0.2,0.2,0.2,0.2,0.4c0,0.1-0.1,0.1-0.1,0.3L2.2,11
					l0.2,0.5c-0.1,0,0,0.2-0.1,0.2c0.2,0.1,0.4,0.4,0.5,0.6c0.1,0.1,0.1,0.3,0,0.4c0,0,0.1,0,0.2,0c0.1,0.3,0.4,0.8,0.5,0.9
					c0.2,0.2,0.2,0.2,0.3,0c0,0,0.3,0.3,0.3,0.3c0.1,0.1,0.2,0.4,0.3,0.5c0.1,0.1,0.1,0,0.3,0.1c0.1,0.1,0.2,0.3,0.4,0.4
					C5.2,15,5.3,15,5.5,15.1c0.2,0.1-0.1,0.1,0.1,0.1c0.2,0.1,0.1,0,0.3,0c0.2,0.1,0.2,0.2,0.4,0.3c0.2,0.1,0.1-0.1,0.3,0
					c0.2,0.1-0.1,0.1,0.1,0.1c0.2,0.1,0.1-0.1,0.3,0c0.2,0,0.3,0.2,0.4,0.3c0.1,0,0.1,0,0.1-0.2c0.1,0,0,0.1,0.2,0.1
					c0.2,0,0-0.1,0.2-0.1c0.2,0,0,0.1,0.1,0.1c0.2,0,0.1,0,0.1-0.1c0.1,0,0.6,0.1,0.7-0.1c0.1,0,0.1,0.1,0.1,0.2
					c0.1,0.1,0.2,0.1,0.4,0.1c0.1,0,0.2-0.1,0.3-0.3c0,0,0.4,0,0.4,0c0.1,0.1,0.1,0.2,0.3,0.1c0.2,0,0-0.1,0.2-0.1
					c0.2,0,0.3,0,0.4,0c0.2,0,0.2-0.1,0.3-0.1c0.1-0.1,0-0.1,0-0.2c0.1,0,0.2-0.1,0.4-0.3c0,0.1,0,0.1-0.1,0.2c0,0,0.2,0,0.2,0.1
					c0.1-0.1,0.2-0.2,0.4-0.3c0.2-0.1,0.3,0,0.4-0.1c0.2-0.1-0.1-0.1,0.1-0.2c0.2-0.1,0.1,0,0.1,0c0.1-0.1,0.2-0.1,0.3-0.2
					c0.1-0.1,0.3-0.2,0.3-0.3l0,0c0.2-0.1,0.1,0,0.2-0.1c0.1-0.1,0-0.1,0.1-0.3c0.1-0.1,0.1,0,0.3-0.1c0.1-0.1,0-0.1,0.1-0.2
					c0.1-0.1,0.1,0,0.3-0.1c0.1-0.1,0.1-0.3,0.1-0.4c0.2-0.1,0.4-0.2,0.5-0.4c0.1-0.2,0-0.1,0.1-0.3c0.1-0.2,0.1,0,0.2-0.1
					c0.1-0.2,0-0.1,0-0.2c0-0.1,0.2-0.1,0.2,0c0,0,0.5-1.1,0.5-1.1c0-0.2-0.1,0-0.1-0.2c0-0.2,0.1,0,0.1-0.2c0-0.2-0.1-0.1,0-0.3
					c0-0.2,0.1-0.1,0.1-0.3c0-0.1,0-0.1-0.1-0.1c0.1-0.1,0.2-0.1,0.3-0.2c0-0.1,0.1-0.3,0.2-0.3c0,0-0.1-0.1-0.2-0.1l0-0.1
					c0-0.1,0.1-0.1,0.1-0.2c0.1,0,0.1-0.1,0.2-0.1c0.1,0,0.1,0.1,0.2,0.1c0.1,0,0.2-0.1,0.3-0.2c0.2,0.1,0.3,0.2,0.4,0.3
					c0,0.1-0.1,0.1-0.1,0.2l0.3,0l0,0.1c0,0.1-0.1,0-0.1,0.1c0,0,0.1,0.1,0.2,0.1c0,0.1,0,0.1-0.1,0.1c0,0.2-0.1,0.4-0.2,0.7
					c-0.1,0.3-0.2,0.6-0.2,0.7c0,0.2-0.1,0.4-0.2,0.6C17.3,11.7,17.5,11.6,17.5,11.5z"/>
			</g>
		</g>
	</g>
	<g>
		<path fill="#FFFFFF" d="M8.9,13.4c-0.3,0-0.5-0.1-0.8-0.3c-0.2-0.2-0.3-0.5-0.3-0.8V8.1C7.9,8,7.8,8,7.8,8H6.9
			C6.6,8,6.4,7.9,6.3,7.7S6,7.3,6,7.1s0.1-0.5,0.3-0.6s0.4-0.3,0.6-0.3h2.2c0.3,0,0.5,0.1,0.8,0.3C10,6.7,10.1,7,10.1,7.3v5
			c0,0.3-0.1,0.5-0.3,0.8c-0.2,0.2-0.5,0.3-0.8,0.3H8.9z M9.8,4.9C9.6,5.1,9.3,5.2,8.9,5.2C8.5,5.2,8.2,5.1,8,4.9
			C7.7,4.7,7.6,4.4,7.6,4.1c0-0.3,0.1-0.6,0.4-0.8s0.5-0.3,0.9-0.3c0.4,0,0.7,0.1,0.9,0.3c0.2,0.2,0.4,0.5,0.4,0.8
			C10.2,4.4,10.1,4.7,9.8,4.9z"/>
	</g>
</g>
<g>
</g>
<g>
</g>
<g>
</g>
<g>
</g>
<g>
</g>
<g>
</g>
<g>
</g>
<g>
</g>
<g>
</g>
<g>
</g>
<g>
</g>
<g>
</g>
<g>
</g>
<g>
</g>
<g>
</g>
</svg>
