<?xml version="1.0" encoding="utf-8"?>
<!-- Generator: Adobe Illustrator 18.0.0, SVG Export Plug-In . SVG Version: 6.00 Build 0)  -->
<!DOCTYPE svg PUBLIC "-//W3C//DTD SVG 1.1//EN" "http://www.w3.org/Graphics/SVG/1.1/DTD/svg11.dtd">
<svg version="1.1" id="Layer_1" xmlns="http://www.w3.org/2000/svg" xmlns:xlink="http://www.w3.org/1999/xlink" x="0px" y="0px"
	 viewBox="0 0 7 6.8" enable-background="new 0 0 7 6.8" xml:space="preserve">
<g>
	<g>
		<circle fill="#3A494F" cx="3.5" cy="3.4" r="2.8"/>
		<g>
			<g>
				<path fill-rule="evenodd" clip-rule="evenodd" fill="#3A494F" d="M6.8,5c0,0-0.1,0.1-0.1,0.1c0,0-0.1,0-0.1,0
					C6.5,5.2,6.4,5.2,6.3,5.3c0,0.1,0,0.1,0,0.1c0,0.1-0.1,0-0.1,0.1c0,0.1,0,0.2-0.1,0.3c-0.1,0.1-0.1,0-0.1,0C6,5.8,6,5.9,6,5.9
					c-0.1,0.1-0.2,0-0.3,0c0,0.1-0.2,0.3-0.3,0.4c-0.1,0.1-0.1,0-0.3,0c0,0,0,0,0,0C5,6.4,5.1,6.4,5,6.5c-0.1,0-0.1,0-0.1,0
					c0,0-0.1,0.1-0.1,0.2c-0.1,0-0.3-0.1-0.4-0.1c-0.1,0-0.2,0.2-0.3,0.2c-0.1,0,0-0.1-0.1,0C4,6.8,4,6.8,3.9,6.8
					c-0.2,0,0-0.1-0.1-0.1c-0.1,0,0,0.1-0.1,0.1c-0.1,0-0.1-0.1-0.2-0.1C3.4,6.7,3.1,6.9,3,6.8c-0.1,0-0.2-0.1-0.3-0.1
					c-0.1,0-0.2,0-0.3,0c0,0,0-0.1,0-0.1c0,0-0.5-0.2-0.5-0.2c0,0.1,0,0.1,0,0.1c0,0,0-0.1-0.1-0.1c-0.1,0-0.1,0-0.2,0
					c-0.1,0-0.1-0.2-0.2-0.3c-0.1,0-0.1,0-0.2,0C1.3,6,1.4,6,1.3,5.9c-0.1-0.1-0.1,0-0.2,0c0-0.1,0.1-0.1,0-0.1
					c-0.1-0.1,0,0.1-0.1,0c-0.1-0.1,0.1,0,0-0.1C1,5.6,1,5.7,1,5.7C0.9,5.6,1,5.6,1,5.6c-0.1-0.1-0.1,0-0.2-0.1c0-0.1-0.1-0.1,0-0.2
					c0,0-0.1,0-0.1,0c0,0,0-0.1,0-0.1c0-0.1-0.1,0-0.1-0.1c0-0.1,0-0.2-0.1-0.3c0-0.1-0.1-0.1-0.2-0.2c0-0.1,0-0.1,0-0.1
					c0-0.2-0.1-0.3-0.1-0.5c0,0,0.1,0,0-0.1c0-0.1-0.2-0.3-0.2-0.4l0-0.1c0,0,0.1,0.1,0.1,0.1c0,0,0-0.2,0-0.2c0-0.1-0.1,0-0.1-0.1
					c0-0.1,0.1-0.1,0.1-0.2c0-0.1-0.1-0.1,0-0.1c0-0.1,0.1,0,0.1-0.1c0-0.1,0-0.1,0-0.2c0-0.1,0.1-0.2,0.2-0.3c0-0.1,0.1-0.2,0-0.2
					C0.4,2,0.5,2,0.5,2c0-0.1,0.1-0.1,0-0.1c-0.1,0-0.1,0-0.1,0c0.1,0,0.2-0.1,0.2-0.1c0,0,0-0.2-0.1-0.3l0.1-0.1c0.1,0,0.1,0,0.2,0
					c0,0,0-0.1-0.1-0.1c0.1,0,0.2,0,0.2-0.1c0-0.1,0-0.2,0.1-0.3c0.1-0.1,0.1,0,0.1,0c0.1-0.1,0-0.1,0-0.1c0.1,0,0.1,0.1,0.1,0
					c0.1,0-0.1,0,0-0.1c0.1,0,0.1,0,0.2,0c0.1-0.1,0.1-0.1,0.1-0.3l0.1-0.1c0,0,0.1,0.1,0.2,0.1c0.1,0,0-0.1,0-0.1
					c0.1,0,0,0.1,0.1,0c0.1,0,0.1-0.1,0.1-0.2c0,0,0.1,0,0.2-0.1c0.1,0,0.4,0,0.5,0C3.1,0.1,3,0,3.2,0c0.1,0,0.1,0.1,0.3,0.1
					c0.1,0,0.2-0.1,0.3-0.1c0.1,0,0.2,0.1,0.3,0.2c0,0,0,0,0.1-0.1l0.1,0c0.1,0,0.1,0.1,0.1,0.1c0,0,0,0.1,0,0.1l0.1,0
					c0.1,0,0.1,0,0.1-0.1c0.1,0,0.1,0,0.2,0.1c0,0,0-0.1,0.1,0c0.1,0,0.2,0.2,0.2,0.2c0,0,0.1,0,0.1-0.1c0,0.1,0.1,0.1,0.1,0.2
					c0.1,0,0.2,0.1,0.2,0.1c0,0,0,0.1,0,0.1l0.1,0.1c0,0,0.1-0.1,0.1-0.1L5.8,1c0.1,0.1,0,0.1,0,0.1c0.1,0.1,0.1,0.1,0.1,0
					c0.1,0.2,0,0.1,0.1,0.3c0.1,0.1,0.3,0.2,0.3,0.2c0,0.1,0,0.2,0,0.3c0,0.1,0.1,0,0.1,0.1c0,0.1-0.1,0,0,0.1
					c0,0.1,0.2,0.2,0.3,0.3c0,0,0,0,0,0.1c0,0.1,0,0.2,0,0.2l0,0l0,0.1c0,0,0.1,0,0.1,0C6.7,2.9,6.7,3,6.7,3.2c0,0,0-0.1-0.1-0.1
					c-0.2,0-0.2,0.3-0.3,0.3c-0.1,0-0.1,0-0.1,0c0-0.1-0.1-0.3-0.2-0.3c-0.1,0-0.1,0.1-0.1,0.1C5.7,3.1,5.6,3,5.6,3
					c0-0.1,0-0.1,0-0.2c0-0.1-0.1,0-0.1-0.1c0,0,0,0,0-0.1c0-0.1,0-0.2,0-0.3c0,0,0-0.1-0.1-0.1c-0.1,0-0.1,0-0.2,0c0,0,0,0,0-0.1
					c0,0-0.1-0.1-0.1-0.1C5.2,2,5.1,2,5,1.9c0,0,0.1,0,0.1,0c0,0,0-0.1,0-0.1c0,0-0.1,0-0.1,0c0,0,0-0.1,0-0.1c0,0-0.1,0-0.1,0
					c-0.1,0.1,0,0.1,0,0.1L4.8,1.7c0-0.1,0-0.1,0-0.2c0,0,0,0.1-0.1,0c0,0,0,0,0-0.1c0,0-0.1,0-0.1,0c0,0,0-0.1-0.1-0.1
					c0,0-0.1,0-0.2,0c0,0-0.1,0.1-0.1,0.1c0,0,0.1-0.1,0.1-0.1c-0.1,0-0.2-0.1-0.3-0.1c-0.1,0-0.1,0-0.1,0l0,0c-0.1,0,0,0,0-0.1
					c0,0,0,0,0,0.1c0,0,0-0.1,0-0.1c-0.1,0,0,0,0,0.1c0,0,0-0.1,0-0.1c-0.1,0-0.2,0-0.3,0c0,0,0-0.1,0,0c-0.1,0-0.2,0.2-0.2,0.2
					C3.1,1.3,3,1.1,3,1.2c-0.1,0,0,0.1,0,0.1c-0.1,0-0.1,0-0.2-0.1c0,0,0,0.1,0,0.1l-0.1,0c0,0-0.1,0-0.1-0.1c0,0,0,0.1,0,0.2
					l-0.1,0c0,0,0-0.1,0-0.1c0,0,0,0,0,0c0,0,0,0.2-0.1,0.2c0,0-0.1,0-0.1,0c0,0,0,0.1,0,0.1c0,0,0,0-0.1,0c0,0,0,0,0,0.1
					c0,0-0.1,0-0.2,0C2,1.6,2,1.7,1.9,1.7c0,0-0.1,0.1-0.1,0.1c0,0,0,0.1,0,0.1c0,0,0,0,0,0c0,0-0.1,0-0.2,0c0,0,0,0-0.1,0.1
					c-0.1,0.2,0,0.2,0,0.2c0,0.1-0.1,0-0.3,0.1l0,0.1c0,0,0,0,0.1,0c0.1,0,0.1,0,0.1,0L1.5,2.6c0,0-0.1,0-0.1,0.1c0,0,0,0.1,0,0.1
					c0,0-0.1-0.1-0.1-0.1c0,0,0,0,0,0c0,0.1,0.1,0,0,0.1c0,0.1-0.1,0-0.1,0.1c0,0.1,0.1,0.1,0,0.2c0,0.1-0.1,0.1-0.1,0.1
					c0,0.1,0.1,0,0.1,0c0,0.1-0.1,0-0.1,0.1c0,0.1,0.1,0,0.1,0.1c0,0.1-0.1,0.1-0.1,0.1c0,0,0,0.1,0.1,0.1c0.1,0,0,0,0.1,0
					c0,0.1-0.1,0.1-0.1,0.1c0,0.1,0,0,0.1,0C1.3,3.8,1.2,3.8,1.2,3.9C1.2,3.9,1.3,4,1.3,4c0,0-0.1,0-0.1,0.1l0.2-0.1
					c0,0,0.1,0.1,0.1,0.1c0,0-0.1,0.1-0.1,0.1c0.1,0,0.2,0.1,0.2,0.1c0,0,0,0.1-0.1,0.2c0,0,0.1,0,0.1,0c0,0.1,0,0.3,0.1,0.3
					c0,0.1,0,0.1,0.1,0L1.9,5c0,0,0,0.2,0,0.2c0,0,0.1,0,0.1,0c0,0,0,0.1,0.1,0.1c0,0,0.1,0,0.1,0c0,0,0,0,0,0.1c0,0,0.1,0,0.1,0
					c0,0,0,0.1,0.1,0.1c0,0,0.1,0,0.1,0c0,0,0,0.1,0,0.1c0.1,0,0.1-0.1,0.1,0c0,0,0.1,0.1,0.1,0.2c0,0,0,0,0.1-0.1c0,0,0,0.1,0,0.1
					c0.1,0,0-0.1,0.1-0.1c0.1,0,0,0.1,0,0.1c0.1,0,0,0,0,0c0,0,0.2,0.1,0.2,0c0,0,0,0.1,0,0.1c0,0,0.1,0.1,0.1,0.1
					c0,0,0.1-0.1,0.1-0.2l0.1,0c0,0.1,0,0.1,0.1,0.1c0.1,0,0-0.1,0.1-0.1c0.1,0,0.1,0.1,0.1,0c0.1,0,0.1,0,0.1,0c0,0,0-0.1,0-0.1
					c0,0,0.1,0,0.1-0.1c0,0,0,0.1,0,0.1c0,0,0.1,0,0.1,0.1c0,0,0.1-0.1,0.1-0.1c0,0,0.1,0,0.1,0c0,0,0-0.1,0-0.1c0,0,0,0,0.1,0
					c0,0,0.1,0,0.1,0c0,0,0.1-0.1,0.1-0.1l0,0c0.1,0,0.1,0,0.1,0c0,0,0-0.1,0-0.1s0.1,0,0.1,0c0,0,0-0.1,0-0.1c0,0,0.1,0,0.1,0
					c0,0,0-0.1,0-0.2c0.1,0,0.2,0,0.2,0c0,0,0-0.1,0-0.1c0,0,0.1,0,0.1,0c0,0,0,0,0-0.1c0,0,0.1,0,0.1,0c0,0,0.2-0.3,0.2-0.3
					c0-0.1-0.1,0,0-0.1c0,0,0.1,0,0.1,0c0-0.1,0-0.1,0-0.1c0-0.1,0.1,0,0.1-0.1c0-0.1,0-0.1,0-0.1c0,0,0.1-0.1,0.2-0.1
					C6,4,6.1,3.9,6.1,3.8c0,0,0,0-0.1-0.1l0-0.1c0-0.1,0.1-0.1,0.1-0.1c0.1,0,0.1-0.1,0.2-0.1c0.1,0,0,0.1,0.1,0.1
					c0.1,0,0.1-0.1,0.2-0.1c0.1,0.1,0.2,0.2,0.3,0.2c0,0-0.1,0.1-0.1,0.1l0.2,0l0,0.1C7,4,6.9,4,6.9,4c0,0,0,0.1,0.1,0.1
					c0,0.1,0,0.1-0.1,0.1c0,0.1-0.1,0.2-0.1,0.3C6.7,4.7,6.7,4.8,6.6,4.8c0,0.1-0.1,0.2-0.1,0.2C6.6,5.1,6.7,5,6.8,5z"/>
			</g>
		</g>
	</g>
	<g>
		<path fill="#FFFFFF" d="M2.8,5.1C2.7,5.1,2.7,5,2.6,5C2.6,4.9,2.5,4.8,2.5,4.8c0-0.1,0-0.1,0.1-0.2c0.1-0.1,0.1-0.1,0.2-0.1h0.4
			c0,0,0,0,0,0V2.4c0,0,0,0,0,0H2.9c-0.1,0-0.1,0-0.2-0.1c0,0-0.1-0.1-0.1-0.2s0-0.1,0.1-0.2c0-0.1,0.1-0.1,0.2-0.1
			c0.1,0,0.2-0.1,0.3-0.1c0.2-0.1,0.3-0.1,0.5-0.1c0.1,0,0.1,0,0.2,0.1c0,0,0.1,0.1,0.1,0.2v2.6c0,0,0,0,0,0h0.3
			c0.1,0,0.1,0,0.2,0.1c0.1,0.1,0.1,0.1,0.1,0.2c0,0.1,0,0.1-0.1,0.2C4.4,5,4.3,5.1,4.2,5.1H2.8z"/>
	</g>
</g>
<g>
</g>
<g>
</g>
<g>
</g>
<g>
</g>
<g>
</g>
<g>
</g>
<g>
</g>
<g>
</g>
<g>
</g>
<g>
</g>
<g>
</g>
<g>
</g>
<g>
</g>
<g>
</g>
<g>
</g>
</svg>
