<?xml version="1.0" encoding="utf-8"?>
<!-- Generator: Adobe Illustrator 18.0.0, SVG Export Plug-In . SVG Version: 6.00 Build 0)  -->
<!DOCTYPE svg PUBLIC "-//W3C//DTD SVG 1.1//EN" "http://www.w3.org/Graphics/SVG/1.1/DTD/svg11.dtd">
<svg version="1.1" id="Layer_1" xmlns="http://www.w3.org/2000/svg" xmlns:xlink="http://www.w3.org/1999/xlink" x="0px" y="0px"
	 viewBox="0 0 114.5 111.3" enable-background="new 0 0 114.5 111.3" xml:space="preserve">
<g>
	<path fill="#FFFFFF" d="M109.9,1.2H17.5c-1.8,0-3.3,1.5-3.3,3.3v15.8H1.5c-0.5,0-0.7,0.6-0.4,0.9l13.1,13.1v72.5
		c0,1.8,1.5,3.3,3.3,3.3h92.4c1.8,0,3.3-1.5,3.3-3.3V4.5C113.1,2.7,111.7,1.2,109.9,1.2z"/>
	<g>
		<g>
			<path fill-rule="evenodd" clip-rule="evenodd" fill="#3A494F" d="M98,2.6c-0.9,0-2.2-0.1-3.4-0.1c-0.4-0.1-0.2-0.2-0.9-0.2
				c-2,0-3.4-0.1-5.1-0.1c-1.8,0-0.4,0.1-2.1,0.1c-1.8,0-1.1-0.1-2.8-0.1S79.8,2.4,78,2.4s-0.4-0.1-2.1-0.1c-1.8,0-1.1,0.1-2.8,0.1
				c-1.8,0-3.4-0.2-4.6-0.3c-2.6,0.1-8.3,0.2-10.1,0.2c-3.4,0-2.2-0.1-5.3-0.2c0,0,0.8,0-1,0s-1.1,0.1-2.8,0.1s-1.1-0.1-2.8-0.1
				c-0.8,0-2.4,0.1-3,0.3c-2.4-0.1-5-0.3-6.8-0.3s-6,0.2-7.7,0.2s-0.4-0.1-2.1-0.1c-1.8,0-1.8,0.1-3.5,0.1c-3.6,0-0.4-0.2-2.8-0.2
				c-1.8,0-0.3,0.1-2.1,0.1c-0.4,0-0.8,0-1.1,0c-0.2,0-0.5,0-0.7,0.1c-0.4,0.1-0.9,0.3-1.3,0.9c-0.2,0.3-0.4,0.8-0.4,1.6
				c0,0.9,0.1,2,0.1,3.1c0.1,2.2,0.1,4.4,0.1,5.3s0,2-0.1,3.2c0,0.6,0,1.1,0,1.7c0,0.6,0,1.2,0,1.7c0,0.4,0,0.8,0,1.2l0,0.3l0,0.2
				l-0.2,0c-0.2,0-0.4,0-0.6,0c-0.7,0-1.5,0-2.2,0c-1,0-2.1,0.1-2.8,0.1c-0.8,0-1.1-0.1-1-0.2c0,0-2.6,0-5.2,0H2.7
				c-0.1,0-0.3,0.1-0.2,0.3C2.6,21.6,2.8,21.8,3,22c0.6,0.6,1,1,1,1c-0.4-0.6-0.9-1.2-0.8-1.1C3.3,22,3.4,22,3.4,22.1
				c0.1,0.1,0.1,0.1,0.2,0.2c0.1,0.1,0.2,0.2,0.3,0.4c0.2,0.3,0.5,0.6,1.1,1.2c1.2,1.2,1.3,1.2,2.6,2.4s3.1,3.4,4.3,4.6
				s1.3,1.2,2.6,2.4c0.2,0.3,0.5,0.5,0.6,0.6c0.1,0.1,0.1,0.2,0.1,0.3c0,0.1,0,0.2,0,0.3c0,0.2,0,0.3,0,0.4c0,0.1,0,0.1,0,0.2
				c0,0.3-0.1,0.5-0.1,1.4c0,1.8,0.1,2.8,0.2,3.8c-0.1,1-0.2,0.1-0.2,1.8c0,1.8,0.1-0.4,0.1,1.4c0,1.8-0.1-0.4-0.1,1.4
				c0,1.8,0.1-0.4,0.1,1.4c0,1.8-0.1,0.4-0.1,2.1c0,1.8,0.1,2.5,0.1,4.2c0,1.8,0,2.8-0.1,3.3c0,0.5,0.1,0.9,0.2,1
				c0,0.9-0.1,0.9-0.1,2.7c0,1.8,0.1,1.8,0.1,3.5c0,1.7-0.1,3.9-0.1,5.6c0,1.7,0.1,3.9,0.1,5.6c0,1.8-0.1,1.9-0.1,2.6
				c0,3.4,0,6.9,0,10.3c-0.1,0.4-0.1-0.6-0.1,1.1s0.2,6.5,0.3,9.4v2.4c-0.1,0.1-0.1-1.4-0.2-2.8v5.2c0,1.8,0.1,0.8,0.1,2.5
				c0,0.4,0,0.8,0,1.1c0,0.2,0,0.3,0,0.5c0,0.2,0,0.2,0,0.3c0,0.4,0.1,0.9,0.6,1.3c0.5,0.4,0.7,0.5,0.8,0.5c0.2,0,0.3,0.1,1,0.1
				c1.8,0,0.4,0.1,2.1,0.1c1.8,0,2.5-0.1,4.2-0.1c1.7,0,6,0.1,7.7,0.1c1.3,0,4.2,0,5.2-0.1c1,0.1,2.5,0.1,3.1,0.2
				c1.9,0,2.3,0.1,2.3-0.1c0-0.1-1.4-0.1-1.2-0.2c1.8,0.1,3.6,0.2,5.4,0.2c0.4,0,3.8-0.1,4.3-0.3h2.6c0.1,0.1,1.5,0.2,2,0.3
				c0.5,0,0.9-0.1,1.1-0.2c1.8,0.1,2.9,0.2,4.7,0.2s4.6-0.2,6.3-0.2s1.1,0.1,2.8,0.1s1.4,0,1.6-0.1c1.1,0.1,0.1,0.2,1.9,0.2
				c1.8,0-0.4-0.1,1.4-0.1s1.8,0.1,3.5,0.1c3.1,0,3.8,0,4.3-0.3h2.6c0.1,0.1,1.1,0.3,2.2,0.3c1.8,0-0.4-0.1,1.4-0.1
				s-0.4,0.1,1.4,0.1s2.6-0.1,3.8-0.2c1.1-0.1,2.1,0,3.9,0c1.7,0,8.8,0.2,10.5,0.2c0.4,0,0.7,0,1,0c0.3,0,0.5,0,0.7-0.1
				c0.4-0.1,0.7-0.3,0.9-0.4c0.4-0.3,0.6-0.6,0.6-0.8c0.1-0.2,0.1-0.4,0.1-0.6c0-0.2,0-0.4,0-1.2c0-3,0.2-1,0.2-7
				c0-1.7-0.1-3.9-0.1-5.6c0-1.8,0.1-4.7,0.2-6.8c0-0.6-0.1-0.9-0.2-1.1v-2.3c0-1.8,0.1-1.5,0.1-2.7c0.1-0.4,0.2-0.3,0.2-0.9v-2
				c0-1.8-0.1-1.1-0.2-2.1c0-1.4,0-3.4,0-4.8c0-0.6-0.1,0.6-0.1-1.2c0-1.8,0.1-4.7,0.2-6.8c0-0.6-0.1-0.9-0.2-1.2
				c0.1-1.1,0.1-2.9,0.1-4.7c0-1.8-0.1-3.7-0.1-5.2c0-0.8,0.1-1.1,0.2-1v-3.8c-0.1-0.6-0.1-0.5-0.2-0.6v-3.7c0-1.8,0.1-0.8,0.1-2.5
				c0-1.8,0-2.1-0.1-2.3c0.1-5,0.2-1.9,0.2-6.8c0-3.1-0.2-6.7-0.2-7.7c0-1.8,0.2-3.2,0.2-4.9c0-1.8-0.1-0.4-0.1-2.1
				c0-1.8,0.1,0.4,0.1-1.4c0-1.8-0.1-5.8-0.2-8.1c0-0.6,0,0,0-1.7c0-0.4,0-1,0-1.2c0-0.3-0.2-0.7-0.4-1c-0.2-0.3-0.4-0.6-0.7-0.8
				c-0.1-0.1-0.1-0.1-0.2-0.1c-0.1,0-0.1-0.1-0.1-0.1l0,0l-0.1,0c0,0-0.1,0.1-0.1,0.2c-0.1-0.2-0.2-0.4-0.4-0.4
				c0-0.1,0.1-0.1,0.1-0.2c0.1-0.3-0.4-0.4-0.4-0.7c0-0.1,0-0.1,0-0.1c0.1,0,0.6-0.1,0.7-0.3c0-0.1-0.1-0.2-0.1-0.2
				c0.4,0.1,0.6-0.1,0.8-0.1c0.1,0,0.2,0.1,0.2,0.1l0,0l0,0c0,0,0,0,0,0l0.1,0c0.2,0.1,0.5,0.3,0.7,0.4c0.4,0.3,0.8,0.7,1.2,1.2
				c0.6,1,0.8,1.9,0.8,2.6c0,0.6,0.1,1.2,0.1,2.1c0,1.8-0.1,0.6-0.1,1.2c0,2.7-0.1,6.9-0.1,8.6c0,1.8-0.1,3.2,0,4.4s0.2,2.3,0.2,4
				c0,1.8-0.1,0.6-0.1,1.2c0,1.3,0,3.4,0,5.1c0,1.8,0,5.1,0.1,8.2c-0.1,0.2-0.1-0.6-0.2-1.3c0,0-0.1,1.4-0.2,2
				c0,0.5,0.1,0.5,0.1,2.3c0,1.8-0.1,1.3-0.1,1.8c0.1,1.2,0,2.4,0.2,2.4s0.1-1.4,0.2-1.3v3.9c-0.1,0.8-0.2,1.9-0.2,3.7
				c0,1.8,0.1-0.4,0.1,1.4c0,1.8-0.1-0.4-0.1,1.4c0,1.8,0.1,1.1,0.1,2.8c0,1.8-0.1,1.8-0.1,3.5c0,1.8,0.1,4.7,0.1,6.5
				c0.1,1.2,0.2,2,0.2,3.1c-0.1,0.2-0.1-1.2-0.2-1.3c0,3.3-0.1,8.2-0.1,9.9s0,3.6,0.1,4.7h0c0,2-0.1,0.8-0.1,1.4
				c0,0.6,0.1,0.9,0.2,1c0,0.9-0.1,0.2-0.1,2s0,0.7,0.1,0.8c0,0.9-0.1,1.3-0.2,1.2c0,3.3,0,7.5,0,11c0,0.3-0.1-0.7-0.1,1
				c0,0.4,0,1.1,0,1.8c0,0.4,0,0.8,0,1.2c0,0.2,0,0.4,0,0.7c0,0.3,0,0.5-0.1,0.8c-0.2,1.1-0.9,2-1.7,2.6c-0.8,0.6-1.7,0.8-2.2,0.8
				c-0.3,0-0.5,0-0.7,0c-0.2,0-0.4,0-0.5,0c-0.3,0-0.6-0.1-1-0.1c-0.6-0.1-1.2-0.1-2.1-0.1c-1.8,0,0.3,0.1-1.4,0.1
				c-1.8,0-3.5-0.1-4-0.2c-0.5,0-0.9,0.1-1,0.2h-2.6c-0.1-0.1-1.5-0.1-2-0.2c-0.4,0-1.8,0.1-2.5,0.3h-2.6c-0.1-0.1,1.3-0.1,1.3-0.2
				c-0.6,0,0.3,0-1.4,0s-3.2,0.2-4.9,0.2c-1.8,0-1.1-0.1-2.8-0.1s-1.1,0.1-2.8,0.1c-1.8,0-0.4-0.1-2.1-0.1c-1.8,0-1.4,0-1.6,0.1
				c-1-0.1-2.1-0.1-3.1-0.2c-1.1-0.1-3.3,0-5.1,0s-3.8,0-5.1,0c-0.8,0-1.2,0.1-2.3,0.2c0,0,0.8,0-1,0c-1.8,0-2.4-0.1-3.4-0.2
				c-0.4,0-1.2,0-2.9,0c-6,0-4.1,0.2-7,0.2c-2.3,0-2.6-0.2-5.3-0.3h-1.9c-0.6,0.1-0.5,0-0.5,0.1c0,0.1,1.4,0.1,1.3,0.2h-5.1
				c-1.8,0-1.8-0.1-3.6-0.1c-1.8,0-2.6,0-3.6,0.1c-0.2-0.1,1.2-0.1,1.2-0.2c-0.6,0,0.3,0-1.4,0s-1.1,0.1-2.8,0.1
				c-1.8,0-1.1-0.1-2.8-0.1c-0.9,0-1.7,0-2.5,0.1l-1.2,0c-0.5,0-1.1-0.1-1.6-0.3c-1.1-0.5-1.6-1.1-2-1.8c-0.2-0.3-0.3-0.7-0.4-1.1
				c-0.1-0.2-0.1-0.4-0.1-0.7c0-0.1,0-0.2,0-0.4c0-0.1,0-0.2,0-0.3c0-1.8-0.1,0.4-0.1-1.4s0.1-0.4,0.1-2.1c0-1.8-0.1-0.4-0.1-2.1
				s0.1-3.5,0.2-4c-0.1-1.1,0-2.3-0.2-2.3s-0.1,1.4-0.2,1.3c0-2.3,0.1-2.3,0.1-4.1s0-1.4-0.1-1.6c0.1-1.8,0.2-2.9,0.2-4.7
				s-0.1-2.5-0.1-3.9c0-0.7,0.1-0.9,0.2-2.6h-0.3v-5.4c0.1-0.1,0.1-1.5,0.2-1.9c-0.1-1.8-0.2-5.5-0.2-7.3c0-1.8,0.1-3.5,0.2-4
				c0-0.5-0.1-0.9-0.2-1c0.1-3.1,0.2-8.6,0.2-10.3c0-2.4,0-2.3-0.2-2.2v-3.7c0-1.8,0.2-4.3,0.2-6c0-0.9,0-1.1-0.1-1.4
				c0-0.1,0-0.3,0-0.5c0-0.1,0-0.3,0-0.6c0-0.1-0.1-0.1-0.1-0.1l-0.4-0.4l-0.8-0.9c-0.5-0.6-1.1-1.2-1.7-1.8
				c-1.2-1.2-1.8-1.7-3.1-2.9c-1.2-1.2,0.3,0.2-0.9-1.1C5,26.4,5.4,27,4.2,25.7c-0.6-0.6-1-1.1-1.4-1.5c-0.2-0.2-0.4-0.5-0.6-0.7
				c-0.4-0.4-0.8-0.8-1.2-1.2c-0.5-0.5-0.6-0.8-0.7-1C0.1,21,0,20.9,0,20.8c0-0.2,0-0.4,0.1-0.6c0.1-0.1,0.2-0.3,0.3-0.4
				c0.1-0.1,0.2-0.2,0.5-0.3c0.5-0.2,0.9-0.2,1-0.2c0.1,0,0.1,0,0,0c-0.1,0-0.2,0.1,1.2,0.1c0.3,0,0.5,0,0.7,0c0.1,0,0.3,0,0.4,0
				c0.2,0,0.3,0,0.5,0c0.3,0,0.5-0.1,1.4-0.1c1.8,0,3.5,0.1,4,0.2c0.5,0,0.9-0.1,1-0.2c0.5,0,0.5,0,0.7,0.1c0.1,0,0.2,0,0.4,0
				c0.2,0,0.4,0,0.8,0c0.3,0,0.2,0,0.2-0.1c0,0,0,0,0,0c0,0,0,0,0,0c0,0,0,0,0,0c0,0,0,0,0-0.1c0-0.2,0-0.2,0.1-0.2c0,0,0,0,0,0
				c0,0,0,0,0-0.1c0-0.1,0-0.2,0-0.4c0-1.8,0-0.8-0.1-1.1c0-1.3,0.1-5.5-0.1-6.8c0-0.9,0.1-1.2,0.2-1.4c0.1-1.1,0.2-2.3,0.2-4
				c0-0.3,0-0.5,0-0.8c0-0.3,0-0.7,0.1-1c0.1-0.7,0.4-1.2,0.5-1.6c0,0,0.2-0.3,0.5-0.6c0.4-0.3,0.9-0.7,1.5-0.9
				c0.3-0.1,0.6-0.2,0.9-0.2c0.3,0,0.6,0,0.8,0c0.4,0,0.6,0,0.6,0c0.8,0.1,1.2,0.2,3,0.2c1.8,0,0.4-0.1,2.1-0.1s2.5,0.1,4.2,0.1
				c1.7,0,2.4,0,3,0c0.6,0,0.6-0.1,0.9-0.2c0.7,0,2.5,0,5-0.1c0.2,0.1-0.6,0.1-1.2,0.2c0,0,1.4,0.1,1.9,0.2c1.1-0.1,2.7-0.1,4.4-0.1
				c1.8,0,2.5,0.1,4.2,0.1c1.8,0-0.4-0.1,1.4-0.1c1.8,0,0.6,0.1,1.2,0.1c1.3,0,2,0,3.7,0c1.8,0,3.6,0,4.7-0.1v0c2,0,0.6,0.1,2.3,0.1
				c1.8,0,1.1-0.1,2.8-0.1c1.8,0,1.1,0.1,2.8,0.1s0.4-0.1,2.1-0.1c1.8,0,1.1,0.1,2.8,0.1s2.8-0.1,3.8-0.2c1.7,0.1,4.3,0.2,6,0.2
				c1.8,0,1.1-0.1,2.8-0.1c1.8,0,0.4,0.1,2.1,0.1s1.4,0,1.5-0.1c0.9,0,1.3,0.1,1.2,0.2h12c1.8,0-0.4-0.1,1.4-0.1
				c1.8,0,0.4,0.1,2.1,0.1c1.8,0,1.1-0.1,2.8-0.1s1.1,0.1,2.8,0.1c0.1,0,0.1,0,0.2,0c0,0,0,0,0,0c0,0,0,0,0,0c0,0,0,0,0-0.1
				c0.1,0.1,0.2,0.2,0.3,0.3c0.1,0,0.4,0.1,0.5,0.2c0,0,0.1-0.1,0.1-0.2h0.2c0.1,0,0.1,0.1,0.2,0.1c0,0.1,0.1,0.1,0.1,0.3
				c0,0.1-0.1,0.1-0.1,0.2c0,0.1,0.1,0.2,0.2,0.3c-0.1,0.2-0.2,0.4-0.4,0.6c-0.1,0-0.1-0.1-0.2-0.1v0.3h-0.2c-0.1,0,0-0.1-0.1-0.1
				c0,0-0.1,0.1-0.1,0.2c-0.1,0-0.1-0.1-0.1-0.1c-0.1,0-0.2,0-0.3,0l-0.2,0c-0.6,0-1.3,0-1.9,0c-2.7,0-5.1-0.1-6-0.1
				c-1.8,0-3.7,0-4.9,0C96.2,2.4,97.5,2.5,98,2.6z"/>
		</g>
	</g>
</g>
<g>
</g>
<g>
</g>
<g>
</g>
<g>
</g>
<g>
</g>
<g>
</g>
<g>
</g>
<g>
</g>
<g>
</g>
<g>
</g>
<g>
</g>
<g>
</g>
<g>
</g>
<g>
</g>
<g>
</g>
</svg>
