<?xml version="1.0" encoding="utf-8"?>
<!-- Generator: Adobe Illustrator 18.0.0, SVG Export Plug-In . SVG Version: 6.00 Build 0)  -->
<!DOCTYPE svg PUBLIC "-//W3C//DTD SVG 1.1//EN" "http://www.w3.org/Graphics/SVG/1.1/DTD/svg11.dtd">
<svg version="1.1" id="Layer_1" xmlns="http://www.w3.org/2000/svg" xmlns:xlink="http://www.w3.org/1999/xlink" x="0px" y="0px"
	 viewBox="0 0 55.7 23.9" enable-background="new 0 0 55.7 23.9" xml:space="preserve">
<g>
	<path fill="#828282" d="M18.6,9.1L18.6,9.1c-1.9,0-3.5-1.6-3.5-3.5c0-1.9,1.6-3.5,3.5-3.5c1.9,0,3.5,1.6,3.5,3.5
		C22,7.5,20.5,9.1,18.6,9.1"/>
	<path fill-rule="evenodd" clip-rule="evenodd" fill="#3A494F" d="M16.1,9.6c0-0.1-0.1-0.1-0.1-0.2C16,9.4,16,9.3,16,9.3
		C16,9.2,16,9,15.9,9c-0.1-0.1-0.1,0.1-0.2,0c-0.1-0.1,0-0.1,0-0.2c-0.1-0.1-0.3,0-0.4-0.1c-0.1-0.1,0.1-0.1,0-0.2
		c-0.1-0.1-0.1,0-0.2-0.1c-0.1-0.1,0-0.3,0.1-0.4c-0.2,0-0.4-0.3-0.5-0.4c-0.1-0.2,0.1-0.2,0-0.4c0,0,0,0,0-0.1c0-0.1-0.1,0-0.2-0.1
		c0-0.1,0.1-0.1,0-0.2c0,0-0.2-0.1-0.4-0.1c0.1-0.2,0.2-0.4,0.2-0.5c0-0.1-0.3-0.3-0.3-0.4c0-0.1,0.1,0,0.1-0.1
		c0-0.1-0.1-0.1-0.1-0.2c0-0.2,0.2,0,0.2-0.2c0-0.1-0.1,0-0.1-0.1c0-0.1,0.1-0.1,0.1-0.2c0-0.1-0.1-0.5-0.1-0.6
		c0-0.1,0.2-0.2,0.2-0.3c0-0.1,0-0.2,0-0.3c0,0,0.1,0,0.2,0c0.1-0.2,0.2-0.4,0.3-0.6c-0.1,0-0.2,0-0.2,0c0-0.1,0.1,0,0.2-0.1
		c0.1-0.1,0-0.1,0-0.2C15,3.1,15.2,3.1,15.3,3c0.1-0.1,0-0.1,0-0.2c0.1-0.1,0.1,0,0.2,0c0.1-0.1,0-0.2,0-0.3c0.1,0,0.1,0.1,0.2,0.1
		c0.1-0.1-0.1-0.1,0-0.1c0.1-0.1,0.1,0.1,0.1,0c0.1-0.1-0.1-0.1,0-0.1c0.1-0.1,0.1,0.1,0.2,0c0.1-0.1,0-0.2,0.1-0.2
		c0.1-0.1,0.1-0.1,0.2,0c0,0,0-0.1-0.1-0.2c0,0,0.1,0.1,0.2,0c0.1-0.1,0-0.1,0.1-0.2c0.1,0,0.2,0,0.3,0c0.1,0,0.2-0.2,0.3-0.2
		c0.1,0,0.1,0,0.2,0c0.2,0,0.4-0.1,0.6-0.1c0,0,0,0.1,0.1,0.1c0.1,0,0.3-0.2,0.5-0.4c0,0,0.1,0,0.1,0c0,0.1-0.1,0.1-0.2,0.2
		c0.1,0,0.2,0,0.3,0c0.1,0,0-0.1,0.1-0.1c0.1,0,0.1,0.1,0.2,0.1c0.1,0,0.1-0.1,0.2-0.1c0.1,0,0,0.1,0.1,0.1c0.1,0,0.2-0.1,0.3,0
		c0.1,0,0.3,0.2,0.4,0.2c0.1,0,0.2,0.1,0.3,0c0,0.1,0.1,0.2,0.1,0.3c0.1,0,0.1,0.1,0.1,0c0.1-0.1,0-0.1,0-0.2c0,0.1,0.1,0.3,0.2,0.3
		c0,0,0.2,0,0.4-0.1L21.2,2c-0.1,0.1-0.1,0.2-0.1,0.3c0,0,0.1,0,0.2-0.1c0,0.1,0,0.3,0.1,0.3c0.1,0.1,0.3,0,0.4,0.1
		c0.1,0.1,0,0.1,0,0.2c0.1,0.1,0.1,0,0.1,0c0,0.1-0.1,0.1-0.1,0.2c0.1,0.1,0.1-0.1,0.1,0c0.1,0.1,0,0.1,0,0.2c0.1,0.1,0.1,0.2,0.4,0
		l0.1,0.1c-0.1,0.1-0.2,0.2-0.2,0.3c0,0.1,0.1-0.1,0.1,0c0,0.1-0.1,0-0.1,0.1c0,0.1,0.2,0.1,0.3,0.1c0.1,0,0.1,0.1,0.1,0.2
		c0,0.1,0,0.5,0,0.6C22.7,5,22.9,4.9,22.9,5c0,0.2-0.2,0.1-0.2,0.4c0,0.1,0.1,0.2,0.1,0.3c0,0.1-0.1,0.3-0.2,0.4
		c0,0,0.1,0.1,0.2,0.1l0,0.1c0,0.1-0.1,0.1-0.1,0.1c-0.1,0-0.1,0-0.2,0l0,0.1c0,0.1,0.1,0.1,0.2,0.2c0,0.1,0,0.2,0,0.3
		c0,0,0.1,0,0.1,0.1c0,0.1-0.2,0.2-0.3,0.3c0,0,0.1,0.1,0.2,0.1c-0.1,0-0.2,0.1-0.2,0.2c0,0.1-0.1,0.2-0.1,0.3c0,0-0.1,0-0.2-0.1
		c0,0.1-0.1,0.1-0.1,0.2c0,0.1,0.1,0.1,0.1,0.1l-0.1,0.2c-0.1,0.1-0.1,0-0.2,0c-0.1,0.1-0.1,0.1,0,0.2c-0.3,0.1-0.2-0.1-0.4,0.1
		c-0.1,0.1-0.1,0.4-0.2,0.4c-0.1,0.1-0.3-0.1-0.3,0c-0.1,0,0,0.1,0,0.1c-0.1,0,0-0.1-0.1-0.1c-0.1,0.1-0.2,0.2-0.3,0.4
		c0,0,0,0-0.1,0.1c-0.1,0-0.2,0-0.4-0.1c-0.1,0-0.1,0-0.2,0c0,0.1,0,0.1,0,0.2c-0.2-0.1-0.4-0.2-0.8-0.2c0-0.1,0.1-0.1,0.1-0.2
		c0-0.3-0.5-0.3-0.5-0.5c0-0.1,0-0.1,0-0.1c0.1,0,0.4-0.1,0.4-0.4c0-0.1-0.1-0.1-0.1-0.2c0.2,0,0.2-0.3,0.3-0.3c0.1,0,0.2,0,0.2,0
		c0.1,0,0-0.1,0.1-0.1c0,0,0,0,0.1,0.1c0.1,0,0.3,0,0.3,0c0,0,0.1,0,0.1-0.1c0-0.1-0.1-0.2,0-0.2c0,0,0,0,0.1,0.1
		c0,0,0.1-0.1,0.1-0.1c0,0,0.1-0.1,0.1-0.3c0.1,0,0.1,0.1,0.1,0.1c0,0,0.1,0,0.2,0.1c0,0-0.1-0.1,0-0.1c0,0,0.1,0,0.1,0
		c0-0.1,0-0.1-0.1-0.2c-0.1-0.1-0.1,0-0.1-0.1L20.5,7c0.1,0,0.2,0.1,0.2,0c0,0-0.1,0-0.1-0.1c0,0,0.1,0.1,0.1,0c0,0-0.1-0.1,0-0.1
		c0,0,0.1,0,0.1-0.1c0-0.1,0-0.2,0-0.2c0-0.1-0.1-0.1-0.2-0.2c0.1,0,0.1,0.1,0.2,0.1c0-0.1,0.2-0.2,0.2-0.3C21,6.1,21.1,6,21,6l0,0
		c0-0.1,0.1,0,0.1,0c0,0-0.1,0-0.2-0.1c0,0,0.1,0,0.1-0.1c0-0.1,0,0-0.1,0c0,0,0.1,0,0.2,0c0-0.1,0-0.2,0-0.4c0,0,0.1,0,0.1,0
		c0-0.1-0.2-0.2-0.2-0.2c0-0.1,0.2-0.1,0.2-0.2c0-0.1-0.1,0-0.1,0c0-0.1,0.1-0.1,0.2-0.2c0,0-0.1,0-0.2,0l0-0.1
		c0.1,0,0.1-0.1,0.2-0.1c0,0-0.1,0-0.3,0.1l0-0.1c0.1,0,0.1,0,0.2,0c0,0,0,0,0-0.1c0-0.1-0.2,0-0.3,0c0,0,0.1-0.1,0-0.1
		c0,0-0.1,0-0.1,0c0,0,0.1-0.1,0-0.1c0,0,0,0-0.1,0c0-0.1,0.1-0.1,0.1-0.2c0-0.1-0.1-0.1-0.1-0.1c0,0-0.1-0.1-0.1-0.1
		c0,0-0.1,0-0.2,0.1c0,0,0,0,0,0c0,0,0-0.1,0-0.2c0,0,0,0-0.1-0.1c-0.2-0.1-0.2,0.1-0.3,0c-0.1,0,0-0.2,0-0.4l-0.1,0
		c0,0,0,0-0.1,0.1c-0.1,0.1,0,0.1,0,0.2c0,0-0.1-0.1-0.1-0.1c-0.1,0,0-0.1-0.1-0.1c-0.1,0-0.1,0-0.1,0.1c0-0.1,0.1-0.1,0.1-0.2
		c0,0,0,0,0,0c-0.1,0-0.1,0.1-0.1,0.1c-0.1,0,0-0.1-0.1-0.1C19,3,19,3.1,18.9,3.1c-0.1,0-0.1-0.1-0.1-0.1c-0.1,0,0,0.1-0.1,0.1
		c-0.1,0,0-0.1-0.1-0.1c-0.1,0,0,0.1-0.1,0.1c-0.1,0-0.1-0.1-0.1-0.2c0,0.1-0.1,0-0.1,0.2c0,0.1,0.1,0.1,0.1,0.1
		c-0.1,0-0.1-0.1-0.1-0.1c-0.1,0,0,0,0,0.1C18.2,3.1,18.1,3,18.1,3C18,3,18,3.2,18,3.2c0,0-0.1-0.1-0.1-0.2l0.1,0.3
		c-0.1,0-0.1,0-0.2,0.1c0-0.1-0.1-0.1-0.1-0.2c0,0.1-0.1,0.3-0.1,0.3c0,0-0.2-0.1-0.2-0.1c0,0,0,0.1,0.1,0.2c-0.1,0-0.3,0-0.4,0
		c-0.1,0-0.1,0,0.1,0.2l-0.1,0.1c0,0-0.2-0.1-0.3,0c0,0,0.1,0.1,0,0.1c0,0-0.2,0-0.2,0.1c0,0,0,0.1,0,0.2c0,0-0.1-0.1-0.1,0
		c0,0.1,0.1,0.1,0,0.1c0,0-0.1,0-0.2,0.1c0,0.1,0.1,0.1,0.1,0.1c0,0.1-0.1-0.1-0.1,0c0,0.1,0.1,0.1,0.1,0.1c0,0.1-0.1,0.1-0.2,0.1
		c0,0,0.1,0.1,0.2,0.1c0,0-0.1,0-0.1,0c0,0.1,0.1,0,0.1,0.1c0,0.1-0.1,0-0.1,0c0,0.1,0,0,0.1,0.1c0,0-0.1,0.2,0.1,0.2
		c0,0-0.1,0-0.2,0c-0.1,0-0.2,0.1-0.2,0.1c0,0,0.1,0.1,0.3,0.1l0,0.1c-0.1,0-0.2,0-0.2,0.1c0,0.1,0.1,0,0.1,0.1
		c0,0.1-0.1,0.1-0.1,0.1c0,0.1,0,0.1,0,0.1c0,0,0.1,0,0.2,0c0,0,0,0.1,0.2,0.1c-0.1,0-0.1,0-0.1,0c0,0-0.1,0.1-0.2,0.1
		c0.1,0,0.1,0.1,0.1,0.1c0,0.1-0.1,0.1-0.1,0.2c0,0.1,0.1,0,0.1,0c0,0.1,0,0-0.1,0.1c0,0,0,0.1,0,0.1c0,0.1,0,0.1,0.1,0.1l0,0
		c0,0.1-0.1,0.1-0.1,0.1c0,0.1,0.1,0,0.1,0c0,0-0.1,0.1,0,0.1c0,0,0.1,0,0.1,0c0,0-0.1,0.1,0,0.1c0,0,0.1,0,0.2,0
		c0,0.1-0.1,0.2,0,0.3c0,0,0.1,0,0.1,0c0,0-0.1,0.1,0,0.1c0,0,0.1,0,0.1,0c0,0,0,0.1-0.1,0.2C16.9,7.8,17,7.9,17.2,8
		c0.1,0,0-0.1,0.1-0.1c0.1,0,0,0.1,0,0.1c0.1,0,0.1-0.1,0.1,0c0.1,0,0,0.1,0,0.1c0.1,0,0.1,0,0.1-0.1c0,0.1,0.1,0.2,0.1,0.3
		c0.1,0.1,0.3,0.2,0.3,0.3c0,0,0.1-0.1,0.1-0.2l0.1,0c0.1,0,0.1,0.1,0.2,0.1c0,0.1,0.1,0.1,0.1,0.2c0,0.1-0.1,0.1-0.1,0.2
		c0,0.1,0,0.1,0.1,0.2c0,0,0,0,0.1,0.1l0,0l0,0l0,0l0,0l0,0l0,0h0l0,0V9.1v0.3v0h0l0,0l0,0l0,0l0,0l0,0l0,0l0,0.1l-0.1,0.1
		c-0.1,0.1-0.1,0.2-0.2,0.2c-0.1,0-0.1-0.1-0.2-0.1l0,0.3l-0.2,0c-0.2,0,0-0.1-0.1-0.1c-0.1,0-0.1,0.1-0.1,0.2
		c-0.1,0-0.1-0.1-0.1-0.1c-0.1,0-0.2-0.1-0.4-0.2c-0.1,0-0.1-0.1-0.2-0.1l-0.1-0.1c-0.1-0.1-0.3-0.2-0.3-0.2
		c-0.1-0.1-0.2-0.1-0.3-0.1C16.1,9.4,16.1,9.5,16.1,9.6"/>
	<g>
		<path fill="#FFFFFF" d="M50.6,14.3L50.6,14.3c0.7-0.9,1.1-2.1,1.1-3.4v-0.4c0-3-2.5-5.5-5.5-5.5h-7.9c-3,0-5.5,2.5-5.5,5.5h-3.8
			c-2.3,0-4.2,1.9-4.2,4.2c0,2.3,1.9,4.2,4.2,4.2H34c1.7,0,3.3-1.1,3.9-2.6c0.1,0,0.2,0,0.3,0h6.5c-0.1,0.3-0.2,0.7-0.2,1.1v1.2
			c0,1.8,1.5,3.3,3.3,3.3h2.8c1.8,0,3.3-1.5,3.3-3.3v-1.2C53.8,15.8,52.4,14.3,50.6,14.3"/>
	</g>
	<path fill-rule="evenodd" clip-rule="evenodd" fill="#50ACD1" d="M51.6,11.5c0-0.2,0.1-0.4,0.1-0.6c0-0.1,0.1,0,0.1-0.2
		c0-0.4,0.1-0.6,0-1c0-0.3-0.1-0.1-0.1-0.4c-0.1-0.3,0-0.2-0.1-0.5c-0.1-0.2-0.1-0.3-0.2-0.5c-0.1-0.1-0.2-0.3-0.3-0.4
		c-0.2-0.3,0-0.1-0.1-0.4c-0.2-0.3-0.2-0.1-0.3-0.4c-0.2-0.2-0.3-0.6-0.4-0.7C50,6.4,49.7,6.2,49.3,6c-0.3-0.2-0.6-0.3-0.8-0.3
		c-0.6-0.2-0.3-0.2-0.9-0.4c0,0,0.1,0-0.2,0c-0.3,0-0.2,0-0.5,0c-0.3,0-0.2-0.1-0.5-0.1c-0.2,0-0.5,0.1-0.6,0.2
		c-0.5-0.1-1-0.2-1.4-0.2c-0.4,0-1.2,0.1-1.6,0.1c-0.4,0-0.1-0.1-0.4-0.1c-0.4,0-0.4,0.1-0.7,0.1c-0.7,0-0.1-0.1-0.6-0.1
		c-0.4,0-0.1,0.1-0.4,0.1c-0.4,0-0.5-0.1-0.9-0.1c-0.2,0-0.6,0-1.1,0.1c-0.2,0-0.4,0-0.6,0.1c-0.2,0-0.3,0-0.4,0.1
		c-0.3,0-0.8,0.1-1.1,0.2c-0.3,0.1-0.7,0.4-0.9,0.5c-0.1,0.1-0.2,0-0.2,0C34.9,6.5,34.4,7,34,7.6c0.1-0.1,0.2-0.2,0.3-0.1
		c-0.1,0.1-0.1,0.1-0.3,0.4c-0.2,0.3-0.1,0.3-0.2,0.6c-0.1,0.3-0.4,0.7-0.5,1.1c0,0.1,0,0.1,0,0.2c0,0,0,0,0,0.1l0,0
		c0,0,0,0.1,0,0.1c0,0.1,0,0.3,0,0.6c0,0.3,0,0.4-0.1,0.4c-0.1,0-0.2,0-0.5,0c-0.3,0-0.5,0-0.7,0c-0.1,0-0.2,0.1-0.3,0.1
		c-0.2,0,0-0.1-0.4-0.1C31,10.9,31.4,11,31,11c-0.4,0,0.1-0.1-0.3-0.1s0.1,0.1-0.3,0.1c-0.4,0-0.1-0.1-0.4-0.1
		c-0.4,0-0.5,0.1-0.9,0.1c-0.4,0-0.6,0-0.7-0.1c-0.1,0-0.2,0.1-0.2,0.1c-0.2,0-0.2,0-0.5,0c-0.3,0.1-0.3,0.1-0.6,0.2
		c-0.3,0.1-0.6,0.2-0.9,0.4c-0.3,0.2-0.5,0.5-0.7,0.7c-0.2,0.2-0.2,0.3-0.3,0.3c-0.3,0.5-0.5,1.1-0.6,1.7c0,0.1,0-0.1-0.1,0.2
		c0,0.3,0.2,1.2,0.5,1.6c0.1,0.1,0.1,0.3,0.2,0.4c0,0-0.2-0.2-0.3-0.4c0.1,0.3,0.3,0.6,0.5,0.8c0.2,0.2,0.1,0.1,0.3,0.3
		c0.2,0.2,0.3,0.4,0.5,0.5c0.3,0.2,0.2,0,0.5,0.2c0.3,0.1,0,0.1,0.3,0.2c0.3,0.1,0.4,0.1,0.7,0.2c0.2,0,0.4,0.1,0.7,0.1
		c0.3,0,0.6,0,0.8,0c0.3,0,0.9,0,1.1-0.1c0.2,0,0.5,0.1,0.6,0.1c0.4,0,0.5,0,0.5,0c0-0.1-0.3-0.1-0.2-0.1c0.4,0.1,0.7,0.1,1.1,0.1
		c0.1,0,0.8-0.1,0.9-0.2h0.5c0,0.1,0.3,0.1,0.4,0.2c0.1,0,0.2-0.1,0.2-0.1c0.3,0,0.5,0.1,0.8,0c0.3-0.1,0.7-0.4,0.9-0.6
		c0.2-0.2,0.2-0.1,0.4-0.3c0.2-0.2,0.2-0.2,0.2-0.2c0.2-0.1,0.1,0.1,0.3-0.2c0.2-0.3-0.1,0,0.1-0.2c0.1-0.1,0.1-0.2,0.2-0.2
		c0,0,0-0.1,0.1-0.1c0.1-0.1,0.1-0.2,0.2-0.3c0.1-0.1,0.1-0.2,0.1-0.3c0-0.1,0.1-0.1,0.1-0.1c0,0,0.1,0,0.1,0c0.2,0,0.3,0,0.4,0
		c0.2,0,0.2-0.1,0.3-0.2h0.5c0,0.1,0.2,0.2,0.4,0.2c0.4,0-0.1-0.1,0.3-0.1c0.4,0-0.1,0.1,0.3,0.1c0.4,0,0.5-0.1,0.8-0.1
		c0.2,0,0.4,0,0.8,0c0.4,0,1.8,0.1,2.1,0.1c0.2,0,0.3,0,0.5,0c0.2,0,0.3,0,0.4,0c0.2,0,0.4,0,0.5,0c0.1,0,0.2,0,0.3,0
		c0.1,0,0.1,0,0.2,0l0.1,0c0,0,0,0,0,0c0,0.1,0,0.1-0.1,0.2c-0.2,0.6-0.3,0.7-0.4,0.9c0,0.1,0,0.1-0.1,0.2c0,0.1,0,0.2,0,0.2
		c0,0.1,0,0.3,0,0.6c0,0.3,0.1,0.8,0.1,1.1c0,0.3,0.1,0.8,0.2,1.2c0.1,0.1,0.1,0.1,0.2,0.1c0.1,0.1,0.2,0.2,0.2,0.3
		c0.2,0.2,0.1,0.2,0.3,0.4c0,0.1,0,0.1,0.1,0.2c0.1,0.1,0.2,0.1,0.3,0.2c0.3,0.1,0.2,0,0.4,0.1c0.2,0.1,0.6,0.2,0.8,0.2
		c0.1,0-0.1-0.1,0.2,0c0.3,0,1,0.1,1.4,0.1c0.1,0,0.2-0.1,0.2-0.1c0.2,0,0.6,0.1,1,0.1c0.4,0,0.7,0,0.9-0.1c0.1,0,0.2,0,0.2,0.1
		c0.2-0.1,0.4-0.1,0.6-0.2c0.1-0.1,0-0.1,0-0.2c0.2-0.1,0.4-0.2,0.5-0.4c0.2-0.2,0.1,0,0.3-0.3c0.2-0.2,0.2-0.3,0.2-0.4
		C54,20,54,20,54.1,19.9c0-0.1,0.1-0.1,0.2-0.6c0-0.1,0-0.3,0-0.4c0-0.1,0-0.3,0-0.5c0-0.3-0.1-0.5-0.1-0.6c0-0.3,0.1-0.6,0-0.9
		c-0.1-0.3-0.1,0-0.2-0.3c-0.1-0.3,0.1,0,0-0.3c-0.1-0.3-0.6-0.8-1-1c-0.1-0.1,0,0-0.3-0.1c-0.1-0.1-0.2-0.1-0.4-0.2
		c-0.1-0.1-0.3-0.2-0.3-0.2c0,0-0.1,0-0.1,0c0,0,0,0.1-0.1,0.1c-0.1-0.1-0.1-0.2-0.3-0.2c0,0,0.1,0,0.1-0.1c0-0.2-0.2-0.2-0.3-0.4
		c0-0.1,0-0.1,0-0.1c0.1,0,0.3,0,0.4-0.2c0-0.1-0.1-0.1-0.1-0.1c0.2,0,0.3-0.1,0.4-0.1c0.1,0,0.1,0,0.1,0.1c0,0,0,0,0,0
		c0,0,0.1,0,0.1,0c0.1,0,0.2,0.1,0.3,0.1c0.4,0.1,0.6,0.2,0.9,0.4c0.3,0.3,0.1,0.1,0.2,0.2c0.5,0.4,1.1,1.3,1.2,1.7
		c0.2,0.4,0.2,0.7,0.3,1c0.1,0.3,0.2,0.6,0.2,0.9c0,0.4,0,0.1-0.1,0.2c0,0.1,0,0.3,0,0.5c0,0.2,0,0.4,0,0.6c0,0.4-0.3,1.2-0.7,1.9
		c-0.1,0,0-0.2,0.1-0.3c0,0-0.2,0.3-0.4,0.3c-0.1,0.1,0,0.1-0.3,0.4c-0.3,0.3-0.3,0.2-0.4,0.2c-0.2,0.2-0.5,0.3-0.4,0.4
		c0,0.1,0.3-0.1,0.3-0.1c-0.3,0.2-0.6,0.3-0.9,0.4c-0.2,0-0.5,0-0.9,0.1c-0.4,0,0.1,0.1-0.3,0.1c-0.4,0,0.1-0.1-0.3-0.1
		c-0.4,0-0.2,0.1-0.6,0.1c-0.4,0-0.4-0.1-0.7-0.1c-0.4,0-0.9,0-1.3,0.1c-0.2,0-0.5,0.1-0.7,0.1c0-0.1,0.3,0,0.3-0.1
		c-0.4,0-0.9-0.1-1.3-0.3c-0.4-0.2-0.7-0.4-0.9-0.6c-0.3-0.3-0.6-0.6-0.8-0.8l0,0c-0.3-0.4-0.1-0.2-0.1-0.3
		c-0.1-0.1-0.2-0.2-0.2-0.1c-0.1-0.2,0-0.1-0.1-0.5c-0.1-0.4-0.1-0.2-0.1-0.2c-0.1-0.2,0-0.3,0.1-0.3c-0.1-0.2-0.1-0.4-0.1-0.6
		c0-0.1,0-0.2,0-0.3v-0.3c0-0.4,0-0.7,0-1.2c0,0,0,0,0,0c0,0,0,0,0,0c0,0,0-0.1,0-0.1c0-0.1,0-0.2,0-0.2c-0.1,0-0.2,0.1-0.2,0.1
		c-0.3,0-0.5-0.1-0.8-0.1c-0.4,0,0.1,0.1-0.3,0.1c-0.4,0-0.7-0.1-0.8-0.1c-0.1,0-0.2,0.1-0.2,0.1h-0.5c0,0-0.3-0.1-0.4-0.1
		c-0.1,0-0.4,0.1-0.5,0.2h-0.5c0,0,0.3-0.1,0.3-0.1c-0.1,0,0.1,0-0.3,0c-0.4,0-0.6,0.1-1,0.1c-0.3,0-0.2-0.1-0.6-0.1
		c-0.1,0,0,0-0.1,0.1c0,0,0,0,0,0c0,0,0,0,0,0c0,0,0,0,0,0l0,0c0,0,0,0,0,0.1c-0.2,0.3-0.2,0.3-0.1,0.4c-0.2,0.2-0.3,0.3-0.5,0.5
		c-0.2,0.2-0.5,0.5-0.9,0.7c-0.3,0.2-0.8,0.4-1,0.5c-0.2,0.1-0.2,0.1-0.5,0.3c0,0,0.2,0-0.2,0.1c-0.4,0.1-0.6,0-0.8,0
		c-0.1,0-0.3,0-0.6,0c-1.2,0-0.8,0.1-1.4,0.1c-0.5,0-0.5-0.1-1.1-0.2h-0.4c-0.1,0-0.1,0-0.1,0.1s0.3,0.1,0.3,0.1h-1
		c-0.4,0-0.4-0.1-0.7-0.1c-0.4,0-0.5,0-0.8,0.1c0-0.1,0.3-0.1,0.3-0.1c-0.1,0,0.1,0-0.3,0c-0.4,0-0.2,0-0.6,0
		c-0.4-0.1-0.2-0.1-0.6-0.2c-0.4-0.1-0.7-0.2-1-0.4c-0.3-0.2-0.4-0.4-0.7-0.6c-0.3-0.3,0,0.1-0.3-0.2c-0.3-0.3,0-0.1-0.3-0.4
		c-0.2-0.3-0.1,0-0.3-0.4c-0.2-0.3-0.3-0.7-0.3-0.9c-0.1-0.2-0.2-0.5-0.3-0.5c-0.1,0,0,0.3,0,0.3c-0.2-0.5-0.1-0.5-0.2-0.9
		c-0.1-0.4,0-0.3-0.1-0.4c0-0.4,0.1-0.7,0.2-1.1c0.1-0.4,0-0.6,0.1-0.9c0.1-0.1,0.1-0.2,0.4-0.5l-0.2-0.1c0.2-0.4,0.4-0.7,0.7-1.1
		c0.1,0,0.3-0.2,0.4-0.2c0.2-0.3,0.9-0.9,1.3-1.1c0.4-0.2,0.8-0.2,0.9-0.2c0.1,0,0.2-0.1,0.2-0.2c0.2,0,0.4,0,0.6,0
		c0.2,0,0.5,0,0.7,0c0.4,0,0.8,0,0.9,0c0.5,0,0.5,0,0.4-0.1h0.7c0.2,0,0.4,0,0.6,0.1c0.1,0,0.2,0,0.3,0c0,0,0.1,0,0.1,0
		c0.1,0,0.1,0,0.1,0c0,0,0,0,0-0.1c0,0,0-0.1,0-0.1c0,0,0-0.1,0-0.1c0,0,0-0.1,0-0.1c0-0.1,0-0.2,0.1-0.3c0.1-0.4,0.1-0.6,0.2-0.9
		c0.1-0.4,0,0.1,0.2-0.3c0.2-0.4,0-0.2,0.2-0.6c0.2-0.3,0.3-0.4,0.6-0.7c0.2-0.3,0.1-0.2,0.3-0.5c0.3-0.3,0,0.1,0.3-0.2
		c0.3-0.3,0.1-0.2,0.4-0.5c0.3-0.2,0.7-0.4,0.8-0.4C35.4,5,35.5,5,35.4,4.9c0.2-0.1,0.1,0,0.4-0.1c0.4-0.2-0.1,0,0.3-0.2
		c0.4-0.1,0,0.1,0.3,0c0.4-0.1,0.2-0.1,0.2-0.1c0.3-0.1,1.2-0.2,1.5-0.3c0.2,0,0.3,0.1,0.3,0.1c0.2,0,0.5,0.1,0.8,0.1
		c0.2,0,0.5-0.1,0.6-0.2h0.8c0.2,0.1,0.2,0.1,0.6,0.1c0.4,0,0.1-0.1,0.4-0.1c0.4,0,0.5,0.1,0.9,0.1c0.4,0,0.5,0,0.6,0
		c0.1,0,0.1-0.1,0.2-0.1c0.1,0,0.5,0,1-0.1c0,0-0.1,0.1-0.3,0.1c0,0,0.3,0.1,0.4,0.1c0.2,0,0.5-0.1,0.9-0.1c0.4,0,0.5,0.1,0.9,0.1
		c0.4,0-0.1-0.1,0.3-0.1c0.4,0,0.1,0,0.3,0.1c0.3,0,0.4,0,0.8,0.1c0.4,0,0.8,0.2,1,0.2l0,0c0.4,0.2,0.1,0.1,0.5,0.2
		c0.3,0.2,0.2,0,0.6,0.2c0.3,0.2,0.2,0.2,0.5,0.4c0.3,0.2,0.1,0,0.4,0.2C50.9,5.8,50.8,5.7,51,6c0.3,0.3,0.5,0.4,0.7,0.5
		c0.2,0.3,0.4,0.9,0.6,1.2c0.2,0.3,0.2,0.2,0.3,0.5c0.1,0.4,0,0.1,0.1,0.5C52.8,9.1,52.8,9,52.8,9c0.1,0.2,0,0.3-0.1,0.3
		c0.1,0.4,0.1,0.9,0.1,1.3c0,0.4,0,0.9-0.1,1.3c-0.1,0.4,0.1-0.1,0,0.3c-0.1,0.4-0.1,0.1-0.2,0.4c-0.1,0.4,0,0.2-0.2,0.6
		c-0.2,0.4-0.2,0.2-0.3,0.5c-0.1,0.1,0,0.1,0,0.1c-0.1,0-0.2,0.1-0.3,0c-0.1,0.1-0.2,0.2-0.3,0.2c0,0,0,0.1,0.1,0.1l-0.1,0.1
		c-0.1,0.1-0.1,0-0.2,0.1c0,0-0.1,0-0.1,0c0,0,0,0,0,0c0,0,0,0,0,0l0,0l-0.1-0.2v0v0l0,0v0v0v0v0l0,0v0v0l0.1,0.1l0,0c0,0,0,0,0,0
		c0,0,0,0,0,0c0,0,0,0,0-0.1c0,0-0.1,0-0.1,0l0.1,0.3c0,0,0,0,0.1,0l-0.1,0.1v0L51,14.1c0-0.1-0.1-0.2-0.1-0.2c0,0,0.1,0,0.1-0.1
		l-0.2-0.1l0-0.1c0-0.1,0,0,0.1,0c0,0,0-0.1-0.1-0.1c0,0,0.1,0,0.1,0c0,0,0.1-0.1,0.1-0.1l0.1-0.1c0-0.1,0.1-0.2,0.2-0.3
		c0.2-0.4,0.4-0.9,0.4-1c0.1-0.3,0.1-0.7,0.1-0.9C51.7,11.2,51.6,11.5,51.6,11.5"/>
	<g>
		<path fill="#FFFFFF" d="M34.5,8.3H16.3c-3.5,0-6.4,2.9-6.4,6.4s2.9,6.4,6.4,6.4h18.2c3.5,0,6.4-2.9,6.4-6.4S38,8.3,34.5,8.3"/>
	</g>
	<path fill-rule="evenodd" clip-rule="evenodd" fill="#50ACD1" d="M31.8,8.9c-0.2,0-0.4-0.1-0.6-0.1c-0.1,0,0-0.1-0.2-0.1
		c-0.4,0-0.6-0.1-0.9-0.1S30,8.7,29.6,8.7c-0.3,0-0.2-0.1-0.5-0.1c-0.3,0-0.7,0.1-1,0.1c-0.3,0-0.1-0.1-0.4-0.1
		c-0.3,0-0.2,0.1-0.5,0.1c-0.3,0-0.6-0.1-0.8-0.2c-0.5,0.1-1.5,0.1-1.8,0.1c-0.6,0-0.4-0.1-1-0.1c0,0,0.1,0-0.2,0
		c-0.3,0-0.2,0.1-0.5,0.1c-0.3,0-0.2-0.1-0.5-0.1c-0.1,0-0.4,0.1-0.6,0.2c-0.4-0.1-0.9-0.2-1.2-0.2c-0.3,0-1.1,0.1-1.4,0.1
		c-0.3,0-0.1-0.1-0.4-0.1c-0.3,0-0.3,0.1-0.6,0.1c-0.7,0-0.1-0.1-0.5-0.1c-0.3,0-0.1,0.1-0.4,0.1c-0.3,0-0.4-0.1-0.8-0.1
		c-0.2,0-0.6,0-0.9,0.1c-0.4,0-0.7,0.1-0.9,0.2c-0.3,0-0.8,0.1-1,0.2c-0.3,0.1-0.7,0.3-0.9,0.5c-0.1,0.1-0.2,0-0.2,0
		c-0.6,0.3-1.1,0.7-1.5,1.2c0.1,0,0.2-0.1,0.3-0.1c-0.1,0.1-0.2,0.1-0.3,0.3c-0.2,0.2-0.1,0.3-0.3,0.5c-0.1,0.1-0.2,0.3-0.3,0.4
		c-0.1,0.2-0.2,0.3-0.3,0.4c-0.1,0.3,0,0.3-0.1,0.6c-0.1,0.3-0.1,0.1-0.2,0.4c-0.1,0.3,0,0.5,0,0.6c-0.1,0.2-0.1,0-0.2,0.3
		c0,0.3,0.1-0.1,0.1,0.2c0,0.3-0.1-0.1-0.1,0.2c0,0.3,0.1-0.1,0.1,0.2c0,0.3-0.1,0.1,0,0.4c0,0.3,0.1,0.4,0.2,0.7
		c0.1,0.3,0.1,0.5,0.1,0.6c0,0.1,0.1,0.1,0.2,0.1c0.1,0.1,0,0.2,0.1,0.4c0.1,0.3,0.2,0.2,0.3,0.5c0.1,0.2,0.3,0.6,0.5,0.8
		c0.2,0.2,0.5,0.5,0.7,0.7c0.2,0.2,0.2,0.2,0.3,0.3c0.4,0.4,0.9,0.7,1.5,0.9c0,0.1-0.1,0,0.2,0.1c0.3,0.1,1.1,0.2,1.6,0.2
		c0.1,0,0.3,0,0.4,0c0,0-0.2,0.1-0.5,0.1c0.3,0.1,0.6,0,0.9,0.1c0.3,0,0.1-0.1,0.5-0.1c0.3,0,0.4,0.1,0.8,0.1c0.3,0,0.2-0.1,0.5-0.1
		c0.3,0,0.1,0.1,0.4,0.1c0.3,0,0.4-0.1,0.8-0.1c0.3,0,1.1,0.1,1.4,0.1c0.2,0,0.8,0,0.9-0.1c0.2,0,0.5,0.1,0.6,0.1c0.3,0,0.4,0,0.4,0
		s-0.3,0-0.2-0.1c0.3,0.1,0.7,0.1,1,0.1c0.1,0,0.7-0.1,0.8-0.2H24c0,0.1,0.3,0.1,0.4,0.2c0.1,0,0.2-0.1,0.2-0.1
		c0.3,0.1,0.5,0.1,0.9,0.1c0.3,0,0.8-0.1,1.2-0.1c0.3,0,0.2,0.1,0.5,0.1c0.3,0,0.3,0,0.3-0.1c0.2,0,0,0.1,0.3,0.1
		c0.3,0-0.1-0.1,0.3-0.1c0.3,0,0.3,0.1,0.6,0.1c0.6,0,0.7,0,0.8-0.2h0.5c0,0.1,0.2,0.2,0.4,0.2c0.3,0-0.1-0.1,0.3-0.1
		c0.3,0-0.1,0.1,0.3,0.1c0.3,0,0.5-0.1,0.7-0.1c0.2,0,0.4,0,0.7,0c0.3,0,1.6,0.1,1.9,0.1c0.6,0,0.7-0.1,0.8-0.1
		c0.1,0,0.1-0.1,0.4-0.1c0.5-0.1,0.2,0.2,1.2-0.1c0.1-0.1,0.3-0.1,0.4-0.2c0.1-0.1,0.3-0.2,0.4-0.2c0.3-0.1,0.7-0.3,1-0.5
		c0.1-0.1,0.1-0.1,0.1-0.2l0.3-0.3c0.2-0.2,0.2-0.1,0.4-0.3c0.1,0,0.1,0,0.2,0c0.1-0.1,0.2-0.2,0.2-0.3c0.2-0.2,0.1-0.2,0.1-0.4
		c0.1-0.2,0.3-0.5,0.4-0.7c0-0.1-0.1,0.1,0-0.2c0.1-0.1,0.2-0.3,0.3-0.5c0.1-0.2,0.2-0.4,0.3-0.5c0-0.1,0-0.2-0.1-0.2
		c0.1-0.2,0.2-0.5,0.2-0.8c0-0.3,0-0.6-0.1-0.9c0-0.1,0.1-0.2,0.1-0.2c0-0.2-0.1-0.4-0.1-0.7c0-0.1-0.1-0.1-0.1-0.1L40.4,13
		c-0.1-0.3,0-0.1-0.1-0.4c-0.1-0.3-0.2-0.3-0.2-0.3c-0.1-0.4-0.2-0.5-0.2-0.6c0-0.1,0-0.2-0.3-0.5c-0.3-0.4-0.8-0.8-1-0.9
		c-0.2-0.2-0.3-0.4-0.6-0.6c-0.2-0.2-0.1,0-0.3-0.1c-0.3-0.2,0.1,0-0.2-0.2c-0.1-0.1-0.4-0.2-0.6-0.3c-0.3-0.1-0.5-0.1-0.7-0.2
		c-0.1,0,0,0-0.3-0.1c-0.1,0-0.3-0.1-0.5-0.1c-0.1,0-0.4-0.1-0.3-0.1c0,0-0.1,0-0.1,0c0,0,0,0.1,0,0.1c-0.1-0.1-0.2-0.2-0.3-0.2
		c0,0,0.1,0,0.1-0.1c0-0.2-0.3-0.2-0.3-0.4c0-0.1,0-0.1,0-0.1c0.1,0,0.3-0.1,0.3-0.2c0-0.1-0.1-0.1-0.1-0.1c0.2,0,0.3-0.1,0.4-0.1
		c0,0,0.1,0,0.1,0c0,0,0,0,0,0c0,0,0.1,0,0.1,0c0.1,0,0.2,0,0.2,0c0.3,0,0.5,0,0.8,0.1c0.3,0.1,0.1,0.1,0.2,0.1
		c0.5,0.2,1.2,0.6,1.5,0.8c0.3,0.2,0.5,0.4,0.7,0.5c0.2,0.1,0.4,0.2,0.7,0.4c0.2,0.3,0.1,0.1,0.1,0.2c0.1,0.1,0.2,0.2,0.3,0.4
		c0.1,0.1,0.2,0.3,0.3,0.4c0.2,0.3,0.6,0.9,0.9,1.4c0,0-0.1-0.1-0.2-0.2c0,0,0.1,0.3,0,0.4c0,0.1,0.1,0.1,0.2,0.4
		c0.1,0.3,0,0.3,0,0.4c0.1,0.2,0.1,0.5,0.2,0.4c0.1,0,0-0.3,0-0.3c0.1,0.3,0.1,0.5,0.1,0.8c0,0.2-0.1,0.4-0.1,0.7
		c0,0.3,0.1-0.1,0.1,0.3c0,0.4-0.1-0.1-0.1,0.3c0,0.3,0.1,0.2,0,0.6c-0.1,0.3-0.1,0.3-0.2,0.7c-0.1,0.3-0.2,0.9-0.3,1.3
		c-0.1,0.2-0.1,0.4-0.2,0.6c-0.1,0,0-0.3,0-0.3c-0.3,0.6-0.9,1.4-1.2,1.6c-0.2,0.3-0.5,0.5-0.6,0.7l0,0c-0.3,0.3-0.2,0.1-0.3,0.1
		C39,20.5,39,20.6,39,20.6c-0.2,0.1-0.1,0-0.4,0.2c-0.3,0.2-0.1,0.1-0.1,0.1c-0.2,0.1-0.3,0.1-0.3,0c-0.5,0.3-1.3,0.7-2,0.8
		c-0.1,0,0.1-0.1-0.2,0c-0.1,0-0.5,0.1-0.8,0.2c-0.3,0-0.7,0.1-0.8,0.1c-0.3,0-0.4-0.1-0.8-0.1c-0.3,0,0.1,0.1-0.3,0.1
		c-0.3,0-0.6-0.1-0.7-0.1c-0.1,0-0.2,0.1-0.2,0.1H32c0,0-0.3-0.1-0.4-0.1c-0.1,0-0.3,0.1-0.5,0.2h-0.5c0,0,0.2-0.1,0.2-0.1
		c-0.1,0,0.1,0-0.3,0c-0.3,0-0.6,0.1-0.9,0.1c-0.3,0-0.2-0.1-0.5-0.1c-0.3,0-0.2,0.1-0.5,0.1c-0.3,0-0.1-0.1-0.4-0.1
		c-0.3,0-0.3,0-0.3,0.1c-0.2,0-0.4-0.1-0.6-0.1c-0.2,0-0.6,0-0.9,0c-0.3,0-0.7,0-0.9,0c-0.1,0-0.2,0.1-0.4,0.1c0,0,0.1,0-0.2,0
		c-0.3,0-0.4-0.1-0.6-0.1c-0.1,0-0.2,0-0.5,0c-1.1,0-0.8,0.1-1.3,0.1c-0.4,0-0.5-0.1-1-0.2h-0.3c-0.1,0-0.1,0-0.1,0.1
		c0,0.1,0.3,0.1,0.2,0.1h-0.9c-0.3,0-0.3-0.1-0.7-0.1c-0.3,0-0.5,0-0.7,0.1c0,0,0.2-0.1,0.2-0.1c-0.1,0,0.1,0-0.3,0
		c-0.3,0-0.2,0.1-0.5,0.1c-0.3,0-0.2-0.1-0.5-0.1c-0.3,0-0.6,0.1-0.9,0.1c-0.3,0-0.4-0.1-0.8-0.1c-0.3,0,0.1,0.1-0.3,0.1
		c-0.3,0-0.1-0.1-0.4-0.1c-0.3,0-0.1,0.1-0.4,0.1c-0.4,0-0.7-0.1-0.8-0.2c-0.2,0-0.5-0.1-0.5,0c0,0.1,0.3,0.1,0.2,0.1
		c-0.5-0.1-0.4-0.2-0.8-0.2c-0.3-0.1-0.3-0.1-0.3,0c-0.3-0.2-0.5-0.3-0.8-0.5c-0.3-0.1-0.5-0.2-0.7-0.3c-0.1-0.1-0.1-0.2-0.3-0.4
		l-0.1,0.2c-0.3-0.2-0.6-0.5-0.8-0.7c0,0-0.1-0.3-0.2-0.4c-0.3-0.2-0.8-0.8-1-1.1c-0.2-0.3-0.2-0.7-0.3-0.8c0-0.1-0.1-0.1-0.2-0.1
		c-0.2-0.6-0.4-1.7-0.4-2c0-0.5,0-0.4-0.2-0.4c0-0.2,0-0.5,0-0.7c0-0.4,0.2-0.8,0.3-1.2c0.1-0.3,0-0.2,0.1-0.6
		c0.1-0.3,0.3-0.6,0.4-0.9c0.1-0.3,0.1-0.5,0.3-0.8c0.2-0.3,0,0.1,0.2-0.2c0.2-0.3,0.1-0.2,0.3-0.5c0.2-0.3,0.4-0.3,0.6-0.6
		c0.2-0.2,0.1-0.2,0.4-0.4c0.3-0.2,0,0.1,0.3-0.1C11.5,9,11.3,9,11.6,8.8c0.3-0.2,0.6-0.3,0.7-0.3c0.1,0,0.1-0.1,0.1-0.2
		c0.2-0.1,0.1,0,0.4-0.1c0.3-0.1-0.1,0,0.2-0.2c0.3-0.1,0,0.1,0.3,0c0.3-0.1,0.1-0.1,0.2-0.1c0.1,0,0.4-0.1,0.7-0.2
		c0.3,0,0.5-0.1,0.6-0.2c0.2,0,0.3,0.1,0.3,0.1c0.2,0,0.5,0.1,0.8,0.1c0.2,0,0.4-0.1,0.5-0.2h0.7c0.1,0.1,0.2,0.1,0.5,0.1
		c0.3,0,0.1-0.1,0.4-0.1c0.3,0,0.4,0.1,0.8,0.1c0.3,0,0.4,0,0.5,0c0.1,0,0.1-0.1,0.2-0.1c0.1,0,0.5,0,0.9-0.1c0,0-0.1,0.1-0.2,0.1
		c0,0,0.3,0.1,0.3,0.1c0.2,0,0.5-0.1,0.8-0.1c0.3,0,0.4,0.1,0.8,0.1c0.3,0-0.1-0.1,0.3-0.1c0.3,0,0.1,0,0.2,0.1c0.3,0,0.4,0,0.7,0
		c0.3,0,0.7,0,0.9,0v0c0.4,0,0.1,0.1,0.4,0.1c0.3,0,0.2-0.1,0.5-0.1c0.3,0,0.2,0.1,0.5,0.1c0.3,0,0.1-0.1,0.4-0.1
		c0.3,0,0.2,0.1,0.5,0.1c0.3,0,0.5-0.1,0.7-0.1c0.3,0.1,0.8,0.1,1.1,0.1c0.3,0,0.2-0.1,0.5-0.1c0.3,0,0.1,0.1,0.4,0.1
		c0.3,0,0.3,0,0.3-0.1c0.2,0,0.2,0.1,0.2,0.1h2.2c0.3,0-0.1-0.1,0.3-0.1c0.3,0,0.1,0.1,0.4,0.1c0.3,0,0.2-0.1,0.5-0.1
		c0.3,0,0.2,0.1,0.5,0.1c0.1,0,0.1,0,0.1-0.1c0.1,0,0.1,0.1,0.2,0.2c0.1,0,0.2,0.1,0.3,0.1c0,0,0-0.1,0-0.1h0.1
		c0.1,0,0.1,0.1,0.1,0.1c0,0.1,0.1,0.1,0.1,0.1c0,0.1-0.1,0.1-0.1,0.1s0.1,0.1,0.1,0.2c-0.1,0.1-0.1,0.2-0.2,0.3
		c0,0-0.1-0.1-0.1-0.1v0.2h-0.1c-0.1,0,0,0-0.1-0.1c0,0,0,0.1,0,0.1c0,0-0.1,0-0.1-0.1c-0.1,0-0.1,0-0.2,0l-0.1,0
		c-0.1,0-0.2,0-0.4,0c-0.5,0-0.9,0-1.1,0c-0.3,0-0.7,0-0.9,0C31.4,8.8,31.7,8.8,31.8,8.9"/>
	<path fill="#FFFFFF" d="M30.9,11.3c0.4-0.6,0.7-1.3,0.7-2.1c0-2-1.6-3.7-3.7-3.7h-1.6c0.1-0.3,0.1-0.6,0.1-0.9
		c0-1.9-1.6-3.5-3.5-3.5h-6.7c-1.9,0-3.5,1.6-3.5,3.5s1.6,3.5,3.5,3.5h3c-0.1,0.3-0.2,0.7-0.2,1.1c0,1.1,0.5,2.1,1.3,2.8
		c-0.6,0.5-1.1,1.2-1.1,2.1c0,1.4,1.2,2.6,2.6,2.6c1.4,0,2.6-1.2,2.6-2.6c0-0.4-0.1-0.8-0.3-1.2H28c0.2,0,0.3,0,0.5,0
		c-0.1,0.3-0.2,0.7-0.2,1c0,1.4,1.2,2.6,2.6,2.6c1.4,0,2.6-1.2,2.6-2.6C33.4,12.4,32.3,11.3,30.9,11.3"/>
	<path fill-rule="evenodd" clip-rule="evenodd" fill="#50ACD1" d="M30.7,8.7c0-0.1,0-0.3,0-0.4c0-0.1,0.1-0.1,0.1-0.1
		c-0.1-0.3-0.1-0.5-0.2-0.7c-0.1-0.2-0.1,0-0.2-0.2c-0.1-0.2,0-0.2-0.2-0.3c-0.2-0.2-0.5-0.3-0.7-0.4c-0.2-0.1,0-0.1-0.2-0.2
		c-0.2-0.1-0.2,0-0.4-0.1c-0.2-0.1-0.4-0.3-0.5-0.4c-0.1,0-0.2,0-0.3,0c-0.2,0-0.3,0-0.4,0c-0.2,0-0.3,0-0.5,0c-0.3,0-0.5,0-0.6,0
		c-0.5,0-0.6,0-0.8-0.1c-0.1,0-0.1,0-0.2,0c0,0-0.1,0-0.1-0.1c0-0.1,0.1-0.2,0.1-0.3c0,0,0,0.2,0.1-0.3c0.1-0.5,0-0.3,0.1-0.8
		c0-0.3,0.1-0.2,0.1-0.4c0-0.1-0.1-0.3-0.3-0.4c0-0.3,0-0.7-0.2-0.9c-0.1-0.2-0.6-0.6-0.8-0.7c-0.2-0.1,0-0.1-0.2-0.2
		C24,1.6,24,1.7,23.8,1.6c-0.5-0.2,0-0.2-0.3-0.3c-0.2-0.1-0.1,0-0.3,0c-0.2,0-0.3-0.1-0.6-0.1c-0.3,0-1.4,0.1-1.7,0.1
		c-0.3,0-0.8-0.1-1-0.1s-0.7,0-1,0.1c-0.1,0-0.2-0.1-0.2-0.2h-1.9C16.9,1.3,17,1.3,17,1.4c-0.2,0-0.2-0.1-0.4-0.1
		c-0.3,0-0.3,0.1-0.6,0.1c-0.1,0-0.2,0-0.2,0c-0.1,0-0.1,0-0.2,0c-0.2,0-0.3,0-0.4,0c-0.2,0.1-0.2,0.1-0.4,0.2
		c-0.2,0.1-0.2,0-0.4,0.1c-0.2,0.1-0.3,0.3-0.3,0.4c-0.1,0.1-0.1-0.1-0.3,0.1c-0.2,0.2,0.1,0-0.1,0.2c-0.2,0.2,0-0.1-0.2,0.1
		c-0.1,0.2,0.1,0-0.1,0.2c-0.1,0.2-0.1,0-0.2,0.2C12.9,3,13,3.2,12.9,3.4c-0.1,0.2-0.1,0.4-0.2,0.4c0,0.1,0,0.1,0.1,0.2
		c0,0.1-0.1,0.1-0.1,0.4c0,0.2,0.1,0.2,0.1,0.5c0,0.2,0.1,0.5,0.2,0.7c0.1,0.2,0.3,0.4,0.5,0.6c0.2,0.2,0.1,0.2,0.2,0.3
		C14,6.8,14.4,7,14.9,7.2c0,0-0.1,0,0.1,0.1c0.1,0,0.4,0,0.6,0c0.3,0,0.6-0.1,0.8-0.1h0.4c0,0.1-0.2,0.1-0.5,0.1h0.9
		c0.3,0,0.1-0.1,0.4-0.1c0.1,0,0.1,0,0.2,0c0.1,0,0.2,0,0.3,0c0.2,0,0.3,0,0.6,0c0.3,0,0.3,0,0.5,0c0.1,0,0.2,0,0.4,0
		c0.3,0,0.1,0.1,0.1,0.2c0,0-0.1,0.1-0.1,0.4c-0.1,0.3-0.1,0.4-0.1,0.6c0,0.1,0,0.2,0,0.3c0,0.1,0,0.2,0,0.3c0,0.2,0,0.8,0.1,1.1
		c0,0.2,0.2,0.6,0.4,0.6c0,0.1,0.1,0.3,0.1,0.5c0.3,0.4,0.4,0.5,0.5,0.4c0.1,0-0.2-0.3-0.1-0.3c0.1,0.1,0.2,0.2,0.2,0.3
		c0.1,0.1,0.2,0.3,0.3,0.4c0,0,0,0,0,0l-0.1,0c0,0-0.1,0.1-0.1,0.1c-0.1,0.1-0.2,0.1-0.2,0.2c0,0-0.3,0.2-0.4,0.4
		c0,0-0.1,0.1-0.1,0.1c0,0,0,0.1,0,0.1c0,0.1,0,0.1,0,0.1c-0.1,0.1-0.1,0.2-0.1,0.3c-0.1,0-0.2,0.1-0.3,0.2c0,0.1,0,0.1,0.1,0.2
		c-0.1,0.2-0.2,0.4-0.2,0.6c0,0.2,0.3,0.5,0.4,0.7c0.1,0.2,0,0.2,0.1,0.3c0.1,0.2,0.1,0.1,0.2,0.1c0.1,0.1-0.1,0.1,0.1,0.3
		c0.2,0.1,0-0.1,0.2,0.1c0.2,0.1,0.2,0.2,0.4,0.3c0.4,0.1,0.5,0.1,0.6-0.1c0.1,0,0.2,0,0.3,0c0,0.1,0.2,0.2,0.3,0.2
		c0.2,0-0.1-0.1,0.2-0.1c0.2-0.1,0,0.1,0.2,0c0.2-0.1,0.3-0.2,0.4-0.3c0.1-0.1,0.2-0.2,0.4-0.3c0.1-0.1,0.3-0.3,0.4-0.5
		c0.2-0.2,0.2-0.5,0.2-0.6c0-0.2,0-0.3,0-0.5c0-0.2-0.1-0.3-0.2-0.4c-0.1-0.2-0.2-0.3-0.4-0.8c-0.1-0.1-0.1-0.2-0.1-0.3
		c0-0.1-0.1-0.2,0-0.1c0.1,0,0.1,0,0.2,0c0.2,0,0.5,0.1,1.3,0.1c0.1,0,0.2,0,0.4,0c0.1,0,0.3,0,0.3,0c0.2,0,0.3,0,0.5,0
		c0.3,0,0.8,0.1,1.1,0.1c0.1,0,0.2-0.1,0.2-0.1h0.4c0.5,0,0.4,0.1,0.7,0.1c0.1,0,0,0.1,0.1,0.1l0.5,0c0.1,0,0.1,0,0.1,0
		c0,0,0,0,0.1,0c0,0,0.1,0,0.1,0c0,0,0.1,0,0.1,0.1c-0.1,0.4-0.4,1.1-0.4,1.3c0,0.1,0.1-0.1,0.1,0.2c0,0.2,0,0.6,0.1,0.9
		c0,0.1,0.1,0.1,0.2,0.1c0,0.1,0.2,0.4,0.3,0.5c0.2,0.2,0.4,0.3,0.6,0.3c0.1,0,0.1,0.1,0.1,0.2c0.2,0.1,0.3,0.1,0.5,0.1
		c0.1,0,0.1-0.1,0.1-0.1c0.2,0,0.3,0,0.5,0c0.2,0,0.1,0.1,0.3,0c0.2-0.1,0.3-0.1,0.2-0.2c0.3-0.1,0.4-0.1,0.4-0.1
		c0.1,0,0.1,0,0.4-0.3c0.3-0.3,0.3-0.9,0.3-1c0-0.2,0.2-0.4,0.2-0.6c0-0.2-0.1,0-0.1-0.3c-0.1-0.2,0.1,0,0-0.2
		c-0.1-0.2-0.4-0.7-0.7-0.8c-0.1,0,0,0-0.2-0.1c-0.1-0.1-0.2-0.1-0.3-0.2c-0.1-0.1-0.2-0.2-0.2-0.2l-0.1,0c0,0,0,0.1-0.1,0.1
		c0-0.2-0.1-0.3-0.3-0.3c0-0.1,0.1,0,0.1-0.1c0-0.2-0.3-0.3-0.2-0.4c0-0.1,0-0.1,0-0.1c0.1,0,0.4,0,0.4-0.2c0-0.1-0.1-0.1-0.1-0.2
		c0.3,0,0.4-0.1,0.5,0c0.1,0,0.1,0,0.1,0.1c0,0,0,0,0,0c0,0,0.1,0,0.1,0.1c0.1,0,0.2,0.1,0.2,0.1c0.3,0.2,0.5,0.2,0.8,0.5
		c0.3,0.3,0.1,0.1,0.1,0.2c0.2,0.2,0.4,0.5,0.5,0.8c0.1,0.3,0.2,0.6,0.2,0.8c0.1,0.4,0.1,0.7,0.1,0.9c0,0.2,0.1,0.5,0,0.9
		C34,15.2,34,15,33.9,15.1c-0.1,0.3-0.3,0.6-0.6,0.9c-0.2,0.3-0.8,0.8-1.4,1.1c-0.1,0,0.1-0.1,0.2-0.2c0,0-0.3,0.1-0.4,0
		c-0.1,0-0.1,0.1-0.4,0.2c-0.4,0.1-0.3,0-0.4,0c-0.2,0.1-0.5,0-0.5,0.1c0,0.1,0.3,0.1,0.3,0.1c-0.3,0-0.6,0-0.8-0.1
		c-0.2-0.1-0.3-0.2-0.7-0.4c-0.3-0.2,0,0.1-0.3-0.1c-0.3-0.2,0.1,0-0.2-0.2c-0.3-0.2-0.2-0.1-0.5-0.3c-0.2-0.3-0.2-0.3-0.4-0.6
		c-0.2-0.3-0.4-0.9-0.5-1.3c0-0.1-0.1-0.2-0.1-0.3c0-0.1,0-0.1,0-0.2l0-0.1c0,0,0,0,0,0c0,0,0.1,0,0.1,0c0,0.1,0,0.2,0.1,0.2
		c0-0.2,0-0.2,0-0.2c0,0,0-0.1,0-0.1l0-0.1l0,0c0,0,0,0-0.1,0c0,0-0.1,0-0.1,0c0,0,0,0-0.1,0c-0.1,0-0.1,0-0.2,0v0
		c-0.3,0-0.1,0-0.2-0.1c-0.1,0-0.2,0.1-0.2,0.1c-0.2,0,0-0.1-0.3-0.1c-0.3,0-0.1,0-0.1,0.1c-0.2,0-0.2-0.1-0.2-0.1
		c-0.3,0-0.6,0-0.9,0c-0.1,0-0.2,0-0.3,0c0,0,0-0.1-0.1-0.1c0,0,0,0,0,0.1c0,0,0.1,0.1,0.1,0.1c0,0,0.1,0.1,0.1,0.1
		c0,0.1,0,0.3,0,0.4c0,0.4-0.2,0.5-0.3,0.8c-0.1,0.3,0.1,0,0,0.3c-0.1,0.3-0.4,0.6-0.5,0.6c-0.1,0.1-0.1,0.2,0,0.2
		c-0.1,0.1-0.2,0.3-0.4,0.4c0,0-0.3,0.1-0.4,0.1c-0.1,0.1-0.3,0.3-0.3,0.4c-0.2,0.1-0.3,0.1-0.5,0.2c0,0,0.2-0.2,0.2-0.2
		c-0.1,0,0.1,0-0.3,0.1c-0.3,0.1-0.6,0.3-1,0.3c-0.4,0-0.2-0.1-0.6-0.1c-0.4-0.1-0.2,0-0.6-0.1c-0.3-0.1,0-0.1-0.4-0.2
		c-0.3-0.2-0.3-0.1-0.3-0.1c-0.2-0.2-0.3-0.3-0.4-0.5c-0.1-0.2-0.4-0.5-0.6-0.8c-0.2-0.3-0.3-0.7-0.3-1c0-0.2-0.1-0.2-0.2-0.5
		c0,0,0,0.2,0-0.2c0-0.4,0.2-0.5,0.2-0.7c0-0.1,0.1-0.2,0.2-0.5c0.1-0.3,0.2-0.4,0.3-0.6c0-0.1,0-0.1,0-0.1c0,0,0,0,0,0
		c0,0,0-0.1,0-0.1c0.1,0,0.1,0,0.1-0.1c0,0,0-0.1,0-0.1c0,0-0.1-0.1-0.2-0.2c-0.1-0.1,0-0.1-0.1,0c-0.1,0.1,0.1,0.3,0,0.3
		c-0.2-0.3-0.4-0.6-0.5-0.9c-0.1-0.3-0.1-0.4-0.2-0.7C18.1,9.8,18,9.7,18,9.4c0,0,0.1,0.2,0.1,0.2c0-0.1,0,0.1,0-0.3
		c0-0.3-0.1-0.2-0.1-0.5c0-0.1,0-0.1,0-0.1c0,0,0,0,0,0c0,0,0,0,0-0.1c0-0.1,0-0.1-0.1-0.1h0c-0.1,0-0.1-0.1-0.2-0.1
		c0,0-0.1,0-0.1,0c0,0,0,0,0,0c0,0,0,0-0.1,0c-0.3,0-0.1-0.1-0.3-0.1c-0.3,0-0.1,0.1-0.3,0.1c-0.3,0-0.6-0.1-0.7-0.1
		c-0.2,0-0.4,0-0.4,0.1c0,0.1,0.2,0.1,0.2,0.1c-0.4,0-0.4-0.1-0.7-0.1c-0.3,0-0.3,0-0.3,0c-0.3-0.1-0.5-0.3-0.8-0.4
		c-0.3-0.1-0.5-0.1-0.7-0.3c-0.1-0.1-0.1-0.2-0.3-0.4l-0.1,0.2c-0.3-0.2-0.5-0.5-0.7-0.8c0,0-0.1-0.3-0.1-0.4
		c-0.3-0.2-0.6-0.9-0.7-1.2c-0.1-0.3,0-0.7,0-0.8c0-0.1-0.1-0.2-0.2-0.2c0-0.3,0.1-0.7,0.2-1.1c0.1-0.4,0.3-0.7,0.4-0.8
		C12.2,2,12.2,2,12.1,2c0.1-0.2,0.3-0.4,0.5-0.6c0.2-0.3,0.7-0.5,1-0.6c0.3-0.2,0.1-0.2,0.4-0.3c0.3-0.1,0.6-0.1,0.9-0.2
		c0.3-0.1,0.5-0.1,0.8-0.1c0.3,0-0.1,0.1,0.2,0.1c0.3,0,0.2-0.1,0.5-0.1c0.3,0,0.4,0.1,0.7,0.1c0.3,0,0.2-0.1,0.5-0.1
		c0.3,0-0.1,0.1,0.2,0.1c0.3,0,0.2-0.1,0.5-0.1c0.3,0,0.6,0.1,0.7,0.1c0.1,0,0.1-0.1,0.2-0.1c0.2,0,0,0.1,0.3,0.1
		c0.3,0-0.1-0.1,0.2-0.1c0.3,0-0.1,0.1,0.2,0.1c0.3,0,0.1,0,0.2-0.1c0.2,0,0.9,0.1,1.1-0.1c0.1,0,0.2,0.1,0.2,0.1
		c0.2,0,0.4,0.1,0.7,0.1c0.2,0,0.4-0.1,0.5-0.2c0.2,0,0.5,0,0.8,0.1c0.1,0.1,0.2,0.2,0.5,0.3c0.3,0.1,0.1,0,0.4,0.1
		c0.3,0.1,0.4,0.3,0.7,0.4c0.3,0.2,0.4,0.3,0.5,0.3c0.1,0.1,0.1,0,0.2,0c0.1,0.1,0.4,0.3,0.7,0.7c0,0.1-0.1-0.1-0.2-0.1
		c0,0,0.1,0.3,0.1,0.4c0.1,0.2,0.3,0.4,0.4,0.7c0.1,0.3,0.1,0.5,0.1,0.8c0,0.3,0.1-0.1,0.1,0.3c0,0.3,0,0.1-0.1,0.2
		c0,0.1,0,0.1,0,0.2l0,0c0,0,0,0.1,0,0.1c0,0,0,0.1,0,0.1c0.1,0,0.1,0,0.1,0l0,0c0.1,0,0,0.1,0.1,0.1c0.1,0,0-0.1,0.3-0.1
		c0.3,0,0.2,0.1,0.5,0.1c0.3,0,0.1-0.1,0.4-0.1c0.3,0,0.2,0.1,0.5,0.2c0.3,0.1,0.5,0.1,0.7,0.1c0.3,0.2,0.7,0.5,0.9,0.7
		c0.3,0.2,0.2,0.1,0.5,0.3c0.2,0.2,0,0.1,0.2,0.3c0.2,0.3,0.2,0.2,0.2,0.2c0.1,0.1,0.1,0.2,0,0.3C31.8,7.3,32,8,32.1,8.7
		c0,0.3,0.1-0.1,0.1,0.3c0,0.3-0.1,0.1-0.1,0.4c0,0.3,0.1,0.2,0,0.5c-0.1,0.3-0.1,0.2-0.2,0.5c0,0.1,0,0.1,0,0.1
		c-0.1,0-0.2,0.1-0.3,0.1c-0.1,0.1-0.2,0.2-0.3,0.2c0,0,0,0.1,0.1,0.1l-0.1,0.1c0,0.1-0.1,0-0.2,0.1c-0.1,0-0.1,0-0.2,0
		C31,11.1,31,11.1,31,11c-0.1,0-0.2,0-0.2,0c-0.1-0.1-0.1-0.2-0.2-0.4c0,0,0.1,0,0.1-0.1l-0.2-0.1l0-0.1c0-0.1,0,0,0.1,0
		c0,0,0-0.1-0.1-0.1c0,0,0.1,0,0.1,0c0,0,0.1-0.1,0.1-0.1l0-0.1c0,0,0.1-0.2,0.1-0.2c0.1-0.4,0.1-0.7,0.1-0.8c0-0.2,0-0.5-0.1-0.7
		C30.8,8.4,30.7,8.6,30.7,8.7"/>
	<g>
		<path fill="#FFFFFF" d="M51.5,2.4h-0.2c-1.8,0-3.3,1.5-3.3,3.3c0,1.8,1.5,3.3,3.3,3.3h0.2c1.8,0,3.3-1.5,3.3-3.3
			C54.7,3.8,53.3,2.4,51.5,2.4"/>
	</g>
	<path fill-rule="evenodd" clip-rule="evenodd" fill="#50ACD1" d="M50.6,3.5c0,0-0.1,0-0.1,0c0,0,0-0.1-0.1-0.1c-0.1,0-0.2,0-0.2,0
		c-0.1,0,0,0.1,0,0.1c-0.1,0-0.1,0-0.1,0c-0.1,0-0.1,0.2-0.1,0.2c-0.1,0-0.1,0-0.1,0c-0.1,0,0,0.1,0,0.1c0,0-0.2,0-0.3,0
		c0,0.1-0.1,0.3-0.2,0.4c-0.1,0.1-0.1,0-0.2,0.1c0,0,0,0,0,0c0,0.1,0,0.1,0,0.1c0,0.1-0.1,0-0.1,0.1c0,0,0,0.1,0.1,0.2
		c-0.1,0-0.3,0.1-0.3,0.2c0,0.1,0,0.3,0,0.3c0,0.1-0.1,0-0.1,0.1c0,0.1,0,0.1,0,0.1c0,0.1-0.1,0-0.1,0.1c0,0.1,0.1,0,0.1,0.1
		c0,0.1-0.1,0.1-0.1,0.2c0,0.1,0.1,0.3,0.1,0.4c0,0.1,0,0.2,0,0.3c0,0.1,0.1,0.2,0.1,0.2c0,0-0.1,0.1-0.1,0.1c0,0.1,0.1,0.3,0.2,0.4
		c0.1-0.1,0.1-0.1,0.1-0.1c0,0,0,0.1,0,0.1c0,0.1,0.1,0,0.1,0.1c0,0.1,0,0.2,0,0.3c0,0.1,0.1,0,0.1,0.1c0,0.1,0,0.1,0,0.1
		c0,0.1,0.1,0,0.2,0c0,0.1-0.1,0.1-0.1,0.1c0,0.1,0-0.1,0.1,0c0,0.1-0.1,0,0,0.1c0.1,0,0-0.1,0.1,0c0.1,0,0,0.1,0,0.1
		c0.1,0,0.1,0,0.2,0.1c0.1,0,0.1,0.1,0.1,0.1c0,0,0.1,0,0.1-0.1c0,0,0,0.1,0.1,0.1c0.1,0,0.1,0,0.2,0c0.1,0,0.1,0.1,0.2,0.2
		c0.1,0,0.2,0,0.2,0c0.1,0,0.1,0.1,0.1,0.1c0.1,0.1,0.3,0.1,0.4,0.1c0,0,0,0.1,0,0.1c0.1,0,0.3-0.1,0.4-0.2l0.1,0
		c0,0-0.1,0.1-0.1,0.1c0.1,0,0.1,0,0.2,0c0.1,0,0-0.1,0.1-0.1c0.1,0,0.1,0.1,0.2,0.1c0.1,0,0-0.1,0.1-0.1c0.1,0,0,0.1,0.1,0.1
		c0.1,0,0.1-0.1,0.2-0.1c0.1,0,0.2,0,0.3,0c0.1,0,0.2,0,0.2-0.1c0.1,0,0.1,0,0.2,0.1c0.1,0,0.1,0,0.1-0.1c0-0.1-0.1,0-0.1-0.1
		c0.1,0,0.2,0.1,0.2,0c0,0,0.1-0.1,0-0.3l0.1-0.1c0,0.1,0.1,0.1,0.2,0.1c0,0,0-0.1,0-0.1c0.1,0,0.2,0,0.2,0c0.1,0,0-0.2,0.1-0.3
		c0-0.1,0.1,0,0.1,0c0-0.1,0-0.1,0-0.1c0.1,0,0.1,0.1,0.2,0c0-0.1-0.1,0,0-0.1c0-0.1,0.1,0,0.1-0.1c0.1-0.1,0.1-0.1-0.1-0.2L54,7.3
		c0.1,0,0.2,0.1,0.2,0c0-0.1-0.1,0,0-0.1c0-0.1,0.1,0,0.1,0c0-0.1,0-0.1,0-0.2c0,0,0-0.1,0-0.1c0-0.1,0.2-0.3,0.2-0.4
		c0-0.2-0.1-0.2-0.1-0.3c0-0.1,0.1,0,0.2-0.3c0-0.1-0.1-0.2-0.1-0.2c0-0.1,0.1-0.2,0.1-0.3c0,0-0.1,0-0.1,0l0-0.1c0-0.1,0-0.1,0-0.1
		c0,0,0.1,0,0.1-0.1l0-0.1c0-0.1-0.1,0-0.1,0c0,0-0.1-0.1-0.1-0.2c0,0,0,0-0.1,0c0-0.1,0-0.2,0-0.3c0,0-0.1,0-0.1,0
		c0-0.1,0-0.1,0-0.2c0-0.1-0.1-0.1-0.2-0.1c0,0,0-0.1,0.1-0.1c0,0-0.1-0.1-0.1-0.1c0,0-0.1,0-0.1,0.1L53.7,4c0,0,0-0.1,0-0.1
		c-0.1,0-0.1,0-0.1,0c-0.1-0.2,0-0.2-0.1-0.3c-0.1-0.1-0.3,0-0.3-0.1c-0.1,0,0-0.2-0.1-0.2c-0.1,0,0,0.1-0.1,0c-0.1,0,0-0.1,0-0.1
		c-0.1,0-0.2,0-0.3,0c0,0,0,0-0.1,0c-0.1,0-0.1-0.1-0.2-0.2l0,0c0,0-0.1,0-0.1,0c0,0,0,0.1-0.1,0.1C52.1,3,52,2.9,51.8,2.9
		c0,0,0.1,0,0.1-0.1c0-0.2-0.2-0.2-0.3-0.4c0-0.1,0-0.1,0-0.1c0.1,0,0.3,0,0.4-0.2C52,2,52,2,52,2c0.2,0,0.3-0.1,0.4-0.1
		c0.1,0,0.1,0,0.2,0.1c0,0,0.1,0,0.1,0c0.1,0,0.2,0,0.2,0c0.1,0,0,0,0,0.1c0.1,0.1,0.3,0.2,0.4,0.2c0.1,0,0.1,0.1,0.2,0.1
		c0.1,0,0.2,0,0.3,0c0.1,0.1,0,0,0,0.1c0.1,0.1,0.2,0.1,0.2,0.2c0.1,0.1,0.2,0.2,0.4,0.3c0,0-0.1,0-0.1,0c0,0,0,0.1,0,0.2
		c0,0,0.1,0,0.1,0c0.1,0.1,0,0.1,0,0.1c0.1,0,0.1,0.1,0.2,0c0.1-0.1,0-0.1,0-0.1c0,0.1,0.1,0.1,0.1,0.2c0,0.1,0,0.2,0,0.2
		c0.1,0.1,0-0.1,0.1,0c0.1,0.1-0.1,0,0,0.1c0.1,0.1,0.1,0,0.1,0.1c0.1,0.1,0,0.1,0,0.2c0,0.1,0.1,0.2,0.2,0.3c0.1,0,0.1,0.1,0.2,0.1
		c0,0-0.1,0-0.2,0c0.1,0.2,0.1,0.4,0.1,0.5c0,0.1,0,0.2,0.1,0.2l0,0c0,0.1,0,0.1-0.1,0.1c0,0,0.1,0,0.1,0c0,0.1-0.1,0,0,0.1
		c0,0.1,0,0,0.1,0c0,0.1-0.1,0.1-0.1,0.1c0,0.2,0,0.4,0,0.6c0,0,0,0-0.1,0.1c0,0.1,0.1,0.4,0.1,0.5c0,0.1-0.2,0.1-0.2,0.2
		c0,0.1,0.1,0,0,0.1c0,0.1-0.1,0.2-0.2,0.2c0,0,0,0.1,0.1,0.1l0,0.1c0,0-0.1,0-0.2,0c0,0,0,0.1,0.1,0.2l-0.1,0.1c0,0,0-0.1-0.1-0.1
		c0,0,0,0-0.1,0.1c0,0.1,0,0.2,0,0.3C55.1,8.1,55,8,55,8.1c-0.1,0.1,0,0.1,0,0.2c-0.1,0.1-0.1,0-0.1,0.1c-0.1,0.1,0,0.1,0,0.1
		c-0.1,0-0.1,0-0.2,0.1c-0.1,0-0.1,0.1-0.2,0.2c-0.1,0.1-0.2,0.1-0.2,0.2c0,0,0,0.1,0,0.2c0,0,0,0,0,0c-0.1,0.1-0.2,0-0.2,0
		c0,0,0,0-0.1,0.1c-0.3,0.2-0.1,0.2-0.3,0.3c-0.1,0.1-0.2,0-0.4-0.1c0,0-0.1,0-0.1,0c0,0,0,0,0,0.1c0,0.1,0.1,0.1,0.1,0.1l-0.3,0.1
		c-0.1,0-0.1,0-0.2,0c-0.1,0-0.1,0.1-0.2,0.1c0,0,0-0.1,0-0.1c0,0,0,0-0.1,0c-0.1,0,0,0.1-0.1,0.1c-0.1,0-0.1-0.1-0.2,0
		c-0.1,0-0.2,0.1-0.3,0.1c-0.1,0-0.1-0.1-0.2-0.1c-0.1,0,0,0.1-0.1,0.1c-0.1,0,0-0.1-0.1-0.1c-0.1,0,0,0.1-0.1,0.1
		c-0.1,0-0.2-0.1-0.2-0.1c-0.1,0-0.1,0-0.1,0.1c0,0.1,0.1,0.1,0.1,0.1C51,10,51.1,9.9,51,9.9c-0.1,0-0.1,0-0.1,0.1
		c-0.1-0.1-0.1-0.2-0.2-0.2c-0.1,0-0.1,0-0.2,0c0,0,0-0.1-0.1-0.2l-0.1,0.2L50,9.7c0,0,0-0.1,0-0.2c-0.1,0-0.3,0-0.4-0.1
		c-0.1-0.1-0.1-0.2-0.1-0.2c0,0-0.1,0-0.1,0.1C49.1,9.2,49,9,48.9,8.9c-0.1-0.1-0.1-0.1-0.2,0c0,0-0.1-0.1-0.1-0.1
		c-0.1-0.1-0.1-0.3-0.1-0.3c-0.1-0.1-0.1,0-0.1-0.1c-0.1-0.1-0.1-0.2-0.1-0.3C48.1,8,48.1,8,48,7.9c0-0.1,0.1,0,0-0.1
		c0-0.1-0.1,0-0.1-0.1c0-0.1,0-0.2,0-0.2c0-0.1-0.1,0-0.1-0.1c0-0.1,0.1,0,0-0.1c0-0.1-0.1,0-0.1-0.1c0-0.1,0-0.2,0.1-0.2
		c0,0-0.1,0-0.1,0c0-0.1,0.1,0,0-0.1c0-0.1-0.1,0-0.1-0.1c0-0.1,0.1,0,0.1-0.1c0-0.1,0,0-0.1-0.1c0-0.1,0-0.3-0.1-0.4
		c0,0,0.1-0.1,0.1-0.1c0-0.1,0.1-0.1,0.1-0.2c0-0.1-0.1-0.1-0.2-0.2c0-0.1,0-0.1,0-0.2c0.1,0,0.1-0.1,0.2-0.1c0-0.1-0.1,0,0-0.1
		c0-0.1,0.1-0.1,0.1-0.2c0-0.1,0-0.1,0-0.2c0,0-0.1-0.1-0.1-0.1c0,0,0-0.1,0-0.3c0,0,0,0.1,0.1,0.1c0,0,0.1-0.1,0.1-0.1
		c0-0.1,0-0.2,0-0.2c0-0.1,0.1-0.1,0.2-0.2c0-0.1-0.1,0,0-0.1c0-0.1,0,0,0.1,0c0-0.1,0.1-0.1,0.1-0.2c0-0.1,0.1-0.2,0.1-0.2l0,0
		c0.1-0.1,0.1,0,0.1-0.1c0.1-0.1,0-0.1,0-0.2c0.1-0.1,0.1,0,0.2-0.1c0.1-0.1,0-0.1,0-0.1c0.1-0.1,0.1,0,0.2-0.1
		C48.9,3,48.9,3,48.9,2.9c0.1,0,0.3,0,0.3-0.1c0.1-0.1,0-0.1,0.1-0.1c0.1-0.1,0.1,0,0.1,0c0.1,0,0.1-0.1,0-0.1c0,0,0.1,0,0.1,0.1
		c0.2-0.1,0.4-0.2,0.6-0.3c0.1,0,0-0.1,0-0.1c0.1,0,0,0.1,0.1,0c0.1,0,0-0.1,0.1-0.1c0.1,0,0.1,0.1,0.2,0c0.1,0,0.1,0,0.1-0.1
		c0.1,0,0.2,0.1,0.2,0.2c0.1,0,0.3,0,0.3,0.1c0,0,0-0.1,0-0.1l0.1,0c0.1,0,0.1,0.1,0.1,0.1c0,0.1,0.1,0.1,0.1,0.1s-0.1,0.1-0.1,0.1
		s0.1,0.1,0.1,0.2c-0.1,0.1-0.1,0.2-0.2,0.3c0,0-0.1-0.1-0.1-0.1l0,0.2l-0.1,0c-0.1,0,0,0-0.1-0.1c0,0,0,0.1,0,0.1c0,0,0,0-0.1,0
		c-0.1,0-0.2,0-0.2,0c-0.1,0-0.3,0-0.3,0c-0.1,0-0.1,0-0.2,0.1C50.5,3.5,50.5,3.5,50.6,3.5"/>
	<g>
		<line fill="#828282" x1="1.1" y1="22.5" x2="14.1" y2="16.1"/>
		<g>
			<g>
				<path fill-rule="evenodd" clip-rule="evenodd" fill="#3A494F" d="M1.8,21.5c0,0,0.1,0,0.1,0c0,0,0,0.1,0.1,0.1
					c0.1,0,0.1,0,0.2,0c0,0,0-0.1,0-0.1c0,0,0.1,0,0.1,0c0,0,0.1-0.2,0.1-0.2c0,0,0,0,0.1,0c0,0,0-0.1,0.1-0.1c0,0,0.1,0.1,0.2,0.1
					c0-0.1,0.2-0.2,0.2-0.2c0.1,0,0.1,0,0.2,0c0,0,0,0,0,0c0,0,0-0.1,0.1-0.1c0,0,0.1,0,0.1,0c0,0,0-0.1,0-0.2
					c0.1,0,0.2,0.1,0.3,0.1c0,0,0.1-0.2,0.2-0.2c0,0,0,0,0.1,0c0,0,0-0.1,0.1-0.1c0.1,0,0.1,0.1,0.1,0.1c0,0,0-0.1,0-0.1
					c0,0,0.1,0,0.1,0c0,0,0.2-0.2,0.2-0.2c0,0,0.2,0,0.2,0c0,0,0.1-0.1,0.1-0.1c0,0,0.1,0,0.1,0.1l0.3-0.2C5.1,20,5.1,20,5.1,20
					c0,0,0,0,0.1,0s0-0.1,0.1-0.1c0,0,0.2,0,0.2,0c0,0,0-0.1,0.1-0.1c0,0,0.1,0,0.1,0c0,0,0.1-0.1,0.1-0.2c0,0,0.1,0.1,0.1,0.1
					c0,0,0,0,0-0.1c0,0,0,0.1,0.1,0c0,0,0,0,0-0.1c0,0,0,0,0.1,0c0,0,0-0.1,0.1-0.1c0,0,0.1,0,0.1,0c0,0,0-0.1,0-0.1c0,0,0,0,0.1,0
					s0-0.1,0.1-0.1c0,0,0.1,0,0.2,0c0,0,0.1-0.1,0.1-0.1c0,0,0.1,0,0.1,0c0.1-0.1,0.2-0.1,0.3-0.1c0,0,0,0.1,0.1,0
					c0,0,0.1-0.2,0.2-0.3l0.1,0c0,0,0,0.1,0,0.1l0.1-0.1c0,0,0-0.1,0-0.1c0,0,0.1,0,0.1,0c0,0,0-0.1,0.1-0.1c0,0,0,0,0.1,0
					c0,0,0-0.1,0.1-0.1c0,0,0.2,0,0.2-0.1c0,0,0.1,0,0.1-0.1c0,0,0.1,0,0.1,0.1c0.1,0,0.1,0,0-0.1c0-0.1-0.1,0-0.1-0.1
					c0.1,0,0.1,0.1,0.2,0c0,0,0.1-0.1,0-0.2l0.1,0c0,0.1,0.1,0.1,0.1,0.1c0,0,0-0.1,0-0.1c0.1,0,0.1,0.1,0.2,0C9,18.2,9,18,9,18
					c0,0,0.1,0,0.1,0c0,0,0,0,0-0.1c0,0,0.1,0.1,0.1,0.1s0,0,0-0.1c0,0,0.1,0,0.1,0c0.1,0,0.1-0.1,0-0.2l0.1,0c0,0,0.1,0.1,0.1,0.1
					c0,0,0,0,0-0.1c0,0,0,0.1,0.1,0c0,0,0-0.1,0.1-0.1c0,0,0.1,0,0.1-0.1c0,0,0.3,0,0.3,0c0.2-0.1,0.1-0.2,0.1-0.2
					c0.1,0,0.1,0.1,0.2,0c0,0,0.1-0.1,0.1-0.1c0,0,0.2,0,0.2,0c0,0,0-0.1,0-0.1l0.1,0c0,0,0.1,0,0.1,0c0,0,0,0.1,0.1,0.1l0.1,0
					c0,0,0-0.1,0-0.1c0.1,0,0.1,0,0.1-0.1c0,0,0,0,0-0.1c0,0,0.2,0,0.2,0c0,0,0-0.1,0-0.1c0,0,0.1,0,0.2,0c0,0,0.1-0.1,0.1-0.1
					c0,0,0.1,0,0.1,0.1l0.1-0.1c0,0,0-0.1,0-0.1l0.1-0.1c0,0,0,0,0.1,0c0,0,0.1,0,0-0.1c0.2,0,0.1,0.1,0.2,0c0.1,0,0.1-0.2,0.2-0.2
					c0,0,0.1,0.1,0.2,0c0,0,0-0.1,0-0.1c0,0,0,0.1,0.1,0c0,0,0.1-0.1,0.2-0.2c0,0,0,0,0,0c0,0,0.1,0,0.2,0l0,0l0.1,0
					c0,0,0-0.1,0-0.1c0.1,0.1,0.2,0.1,0.4,0c0,0,0,0.1,0,0.1c0.1,0.1,0.3,0.1,0.3,0.2c0,0.1,0,0,0,0.1c0,0-0.2,0.2-0.2,0.3
					c0,0.1,0.1,0,0.1,0.1c-0.1,0.1-0.1,0.2-0.2,0.2c-0.1,0-0.1,0-0.2,0c0,0,0,0.1-0.1,0.1c0,0,0,0-0.1,0c-0.1,0-0.2,0-0.3,0.1
					c0,0-0.1,0-0.1,0.1c0,0,0,0.1-0.1,0.2c0,0,0,0-0.1,0c0,0-0.1,0-0.1,0.1s-0.1,0.1-0.2,0.2c0,0,0-0.1,0-0.1c0,0-0.1,0-0.1-0.1
					c0,0,0,0.1,0,0.1c0,0-0.1,0-0.1,0c0,0-0.1,0,0,0.1c0,0.1,0.1,0,0.1,0.1l-0.1,0.1c0,0-0.1-0.1-0.1,0c0,0,0,0,0,0.1
					c0,0,0-0.1-0.1,0c0,0,0,0.1-0.1,0.1c0,0-0.1,0-0.1,0s-0.1,0.1-0.2,0.1c0,0,0,0.1,0,0.1c0,0,0-0.1,0-0.1c-0.1,0-0.2,0.1-0.3,0.1
					c0,0-0.1,0-0.1,0.1l0,0c-0.1,0,0,0-0.1,0c0,0,0,0.1,0,0.1c0,0,0,0-0.1,0c0,0,0,0,0,0.1c0,0-0.1,0-0.1-0.1
					c-0.1,0-0.2,0.1-0.3,0.1c0,0,0,0,0,0c0,0-0.1,0.2-0.2,0.2s-0.1-0.1-0.2,0c0,0,0,0,0,0.1c0,0-0.1,0-0.2,0c0,0,0,0.1,0,0.1l-0.1,0
					c0,0-0.1,0-0.1-0.1c0,0,0,0.1,0,0.2l-0.1,0c0,0,0-0.1,0-0.1c0,0,0,0,0,0s0,0.1-0.1,0.2c0,0-0.1,0-0.1,0s0,0.1-0.1,0.1
					c0,0,0,0-0.1,0c0,0,0,0,0,0.1c0,0-0.1,0-0.1-0.1c0,0-0.1,0-0.1,0.1c0,0-0.1,0-0.1,0.1c0,0,0,0.1,0,0.1c0,0,0,0,0,0
					c0,0-0.1,0-0.1-0.1c0,0,0,0-0.1,0c-0.2,0.1-0.1,0.2-0.1,0.2c-0.1,0-0.1-0.1-0.2-0.1l-0.1,0c0,0,0,0,0,0.1c0,0.1,0.1,0,0.1,0.1
					l-0.1,0.1c0,0-0.1,0-0.1,0c0,0-0.1,0.1-0.1,0.1c0,0,0-0.1,0-0.1c0,0,0,0,0,0c0,0,0,0.1-0.1,0.1c0,0-0.1,0-0.1,0
					c0,0-0.1,0.1-0.1,0.1c0,0-0.1,0-0.1,0c0,0,0,0,0,0.1c0,0,0,0-0.1,0c0,0,0,0.1,0,0.1c0,0-0.1,0-0.2,0c0,0-0.1,0,0,0.1
					c0,0.1,0.1,0,0.1,0.1c-0.1,0-0.1,0-0.1,0c0,0,0,0,0,0.1c-0.1,0-0.1-0.1-0.2,0c0,0,0,0.1-0.1,0.1c0,0-0.1,0-0.1-0.1l0.1,0.1
					l-0.1,0.1c0,0-0.1,0-0.1-0.1c0,0.1-0.1,0.2-0.2,0.2c0,0-0.1,0-0.2,0c0,0,0,0.1,0,0.1c-0.1,0-0.3,0-0.3,0c-0.1,0-0.1,0,0,0.1
					l-0.1,0.1c0,0-0.2,0-0.2,0c0,0,0,0.1-0.1,0.1c0,0-0.1,0-0.2,0c0,0,0,0.1-0.1,0.1c0,0,0-0.1-0.1,0c0,0,0,0.1-0.1,0.1
					c0,0-0.1,0-0.1,0c0,0,0,0.1-0.1,0.1c0,0,0-0.1-0.1,0c0,0,0,0.1-0.1,0.1c0,0-0.1,0-0.2,0c0,0,0,0.1,0,0.1c0,0,0,0-0.1,0
					c0,0,0,0,0,0.1c0,0,0-0.1-0.1,0c0,0,0,0,0,0.1c0,0-0.2,0-0.2,0.2c0,0-0.1,0-0.1-0.1c0,0-0.1,0-0.1,0c0,0,0,0.1,0,0.2l-0.1,0.1
					c0,0-0.1-0.1-0.1-0.1c0,0,0,0.1,0,0.1c0,0-0.1,0-0.1,0c0,0-0.1,0-0.1,0c0,0,0,0.1,0,0.1c0,0-0.1,0-0.1,0.1c0,0,0-0.1,0-0.1
					c0,0-0.1,0-0.1-0.1c0,0,0,0.1-0.1,0.1c0,0-0.1,0-0.1,0c0,0,0,0,0,0.1c0,0,0,0-0.1,0c0,0-0.1,0-0.1,0c0,0-0.1,0-0.1,0.1l0,0
					c-0.1,0,0,0-0.1,0c0,0,0,0.1-0.1,0.1c0,0-0.1,0-0.1,0c0,0,0,0.1,0,0.1c0,0-0.1,0-0.1,0c0,0-0.1,0.1-0.1,0.2c-0.1,0-0.2,0-0.2,0
					c0,0,0,0.1-0.1,0.1c0,0,0,0-0.1,0c0,0,0,0,0,0.1c0,0-0.1,0-0.1-0.1l-0.3,0.2c0,0,0,0,0,0.1c0,0,0,0-0.1,0c0,0,0,0.1-0.1,0.1
					c0,0-0.1,0-0.1,0c-0.1,0,0,0,0,0.1c-0.1,0-0.1,0-0.2-0.1c-0.1,0-0.2,0-0.3,0c0,0,0,0.1,0,0.1l-0.1,0c-0.1,0-0.1,0-0.1,0
					c0,0-0.1,0-0.1-0.1c0-0.1,0-0.1,0-0.1c0-0.1-0.1-0.1-0.2-0.1c0-0.1,0-0.2,0-0.3c0,0,0.1,0,0.1,0l-0.1-0.2l0.1,0c0.1,0,0,0,0.1,0
					c0,0,0-0.1,0-0.1c0,0,0.1,0,0.1,0c0,0,0.1-0.1,0.2-0.1c0.1,0,0.2-0.1,0.2-0.1c0,0,0.1,0,0.1-0.1C1.8,21.5,1.8,21.5,1.8,21.5z"/>
			</g>
		</g>
	</g>
	<g>
		<circle fill="#3A494F" cx="1.2" cy="22.6" r="0.9"/>
		<g>
			<g>
				<path fill-rule="evenodd" clip-rule="evenodd" fill="#3A494F" d="M1.6,21.3C1.6,21.3,1.6,21.3,1.6,21.3c0,0.1,0,0.1,0,0.1
					c0,0,0,0.1,0.1,0.1c0,0,0,0,0,0c0,0,0,0,0,0.1c0,0,0.1,0,0.1,0c0,0,0,0,0,0.1c0,0,0,0,0.1,0c0,0,0,0.1,0,0.1c0.1,0,0.1,0,0.2,0
					c0,0,0,0.1,0,0.1c0,0,0,0,0,0c0,0,0,0,0.1,0c0,0,0,0,0,0.1c0,0,0.1,0,0.1,0c0,0.1-0.1,0.1,0,0.1c0,0,0.1,0,0.1,0.1c0,0,0,0,0,0
					c0,0,0,0,0.1,0c0,0.1-0.1,0-0.1,0.1c0,0,0,0,0,0c0,0,0,0,0,0.1c0,0,0.1,0.1,0.1,0.1c0,0,0,0.1,0,0.1c0,0,0,0.1,0,0.1
					c0,0,0,0-0.1,0l0,0.2c0.1,0,0.1,0,0.1,0c0,0,0,0,0,0c0,0,0,0,0,0.1c0,0-0.1,0-0.1,0.1c0,0,0,0,0,0.1c0,0,0,0-0.1,0
					c0,0,0,0.1,0.1,0.1c0,0-0.1,0-0.1,0c0,0,0,0,0,0c0,0,0,0,0,0c0,0,0,0,0,0c0,0,0,0,0,0c0,0,0,0.1,0,0.1c0,0,0,0-0.1,0
					c0,0,0,0,0.1,0.1c0,0,0,0-0.1,0c0,0,0,0,0,0.1c0,0-0.1,0-0.1,0c0,0,0,0.1,0,0.1c0,0,0,0-0.1,0c0,0-0.1,0.1-0.1,0.1c0,0,0,0,0,0
					c0,0,0,0.1-0.1,0.2l0,0c0,0,0,0,0-0.1l-0.1,0c0,0,0,0,0,0.1c0,0,0,0-0.1,0c0,0,0,0,0,0c0,0,0,0,0,0c0,0,0,0-0.1,0.1
					c0,0-0.1,0-0.1,0c0,0-0.1,0-0.1,0c0,0,0,0,0-0.1c0,0,0,0,0,0c0,0,0,0,0,0.1c0,0-0.1-0.1-0.1-0.1c0,0-0.1,0-0.1,0.1l0,0
					c0,0,0-0.1,0-0.1c0,0,0,0,0,0.1c0,0,0-0.1,0-0.1c0,0-0.1,0.1-0.1,0c0,0,0,0,0-0.1c0,0,0,0,0,0c0,0,0-0.1,0-0.1c0,0,0,0,0,0
					c0,0,0,0,0-0.1c0,0,0,0-0.1,0.1l0,0c0,0,0-0.1,0-0.1c0,0,0,0,0,0c0,0,0,0,0,0c0,0-0.1,0-0.1,0c0,0,0,0,0,0c0,0,0-0.1-0.1-0.2
					c-0.1-0.1-0.1,0-0.1,0c0,0,0.1-0.1,0-0.1c0,0-0.1,0-0.1-0.1c0,0,0-0.1,0-0.1c0,0,0,0-0.1,0l0,0c0,0,0,0,0-0.1c0,0,0.1,0,0.1,0
					l0,0c0,0,0,0-0.1,0c0,0,0,0,0-0.1c0,0,0,0,0,0c0,0,0-0.1,0.1-0.1c0,0,0,0-0.1,0c0,0,0,0,0-0.1c0,0,0-0.1,0-0.1c0,0,0,0,0.1,0
					l0-0.1c0,0-0.1,0-0.1,0l0-0.1c0,0,0,0,0,0c0,0,0,0,0,0c0.1-0.1,0.1,0,0.1-0.1c0,0,0-0.1,0-0.1c0,0,0.1,0,0.1,0c0,0,0,0,0,0
					c0,0,0,0,0,0c0,0,0-0.1,0-0.1c0,0,0,0,0,0c0,0,0.1,0,0.1,0l0-0.1c0,0,0,0,0-0.1c0.1,0,0.2,0,0.3-0.1c0,0,0,0,0,0.1
					c0.1,0.1,0.2,0,0.2,0.1c0,0,0,0,0,0c0,0-0.1,0.1-0.1,0.2c0,0,0.1,0,0.1,0c-0.1,0,0,0.1,0,0.1c0,0-0.1,0-0.1,0c0,0,0,0,0,0
					c0,0,0,0,0,0c0,0-0.1,0-0.1,0c0,0,0,0,0,0c0,0,0.1,0,0.1,0c0,0,0,0,0,0c0,0,0,0,0,0c0,0,0,0,0,0.1c0,0,0,0,0,0c0,0,0,0-0.1,0
					c0,0,0,0,0,0c0,0,0,0,0,0c0,0,0,0,0.1,0c0,0,0,0,0.1,0l0,0c0,0-0.1,0-0.1,0c0,0,0,0,0,0c0,0,0,0,0,0c0,0,0,0,0,0c0,0,0,0,0,0
					c0,0,0,0,0,0c0,0,0.1,0,0.1,0c0,0,0,0-0.1,0c0,0,0,0.1,0,0.1c0,0,0,0,0,0l0,0c0,0,0,0,0,0c0,0,0,0,0.1,0c0,0,0,0,0,0
					c0,0,0,0,0,0c0,0,0,0-0.1,0c0,0,0,0,0,0.1c0,0,0,0,0,0c0,0,0.1,0,0.1,0c0,0,0,0.1,0,0.1c0,0,0,0,0,0c0,0,0,0,0,0.1
					c0,0,0,0,0.1-0.1l0,0c0,0,0,0,0,0.1c0,0,0,0,0.1-0.1l0,0c0,0,0,0,0,0c0,0,0,0,0,0c0,0,0.1-0.1,0.1,0c0,0,0,0,0,0c0,0,0,0,0,0
					c0,0,0,0,0,0c0,0,0,0,0,0c0,0,0,0.1,0,0.1c0,0,0,0,0,0c0,0,0,0,0,0c0,0,0,0,0-0.1c0,0,0,0,0,0c0,0,0,0.1,0,0.1c0,0,0,0,0,0
					c0,0,0-0.1,0.1-0.1c0,0,0,0.1,0,0.1l0,0c0,0,0,0,0,0c0,0,0,0,0-0.1l0,0c0,0,0,0,0,0c0,0,0,0,0,0c0,0,0,0,0,0.1c0,0,0,0,0,0
					c0,0,0,0,0,0c0,0,0,0,0,0c0,0,0,0,0,0c0,0,0,0,0,0c0,0,0,0,0,0c0,0,0,0,0,0c0,0,0,0,0,0c0,0,0,0,0.1,0.1c0,0,0,0,0-0.1
					c0,0,0,0,0,0c0,0,0,0,0,0c0,0,0,0,0,0c0,0,0.1,0.1,0.1,0c0,0,0,0,0,0c0,0,0,0,0.1,0.1L1.5,23l0,0c0,0,0,0,0.1,0c0,0,0-0.1,0-0.1
					c0,0,0,0,0.1,0c0,0,0,0-0.1-0.1c0,0,0.1,0,0.1,0c0,0,0,0-0.1-0.1l0,0c0,0,0.1,0,0.1,0c0,0,0,0,0,0c0,0,0,0,0,0c0,0,0,0,0,0
					c0,0,0,0,0,0c0,0,0,0,0,0c0,0,0,0,0,0c0,0,0,0,0,0c0,0,0,0,0,0c0,0,0,0,0,0c0,0,0,0,0.1,0c0,0,0,0-0.1,0c0,0,0,0,0,0
					c0,0,0,0,0,0c0,0,0,0,0,0c0,0,0,0,0,0c0,0,0,0-0.1,0c0,0,0,0,0.1,0c0,0,0.1,0,0,0c0,0-0.1,0-0.1,0l0,0c0,0,0.1,0,0.1,0
					c0,0,0,0,0,0c0,0,0,0,0,0c0,0,0,0,0,0c0,0,0,0-0.1,0c0,0,0,0-0.1,0c0,0,0,0,0,0c0,0,0,0,0.1,0c0,0,0,0-0.1,0c0,0,0,0,0,0
					c0,0,0,0,0,0c0,0,0,0,0,0c0,0,0,0,0,0c0,0,0,0,0,0l0,0c0,0,0,0,0,0c0,0,0,0,0,0c0,0,0,0,0,0c0,0,0,0,0,0c0,0,0,0,0,0
					c0,0,0,0-0.1,0.1c0,0,0-0.1,0-0.1c0,0,0,0,0,0c0,0,0,0,0,0c0,0,0,0,0,0c0,0,0,0,0-0.1l-0.1,0c0,0,0,0,0,0c0,0,0,0,0,0
					c0,0,0,0,0,0c0,0,0,0,0,0c0,0,0,0,0,0c0,0,0-0.1-0.1-0.1c0,0-0.1,0-0.1-0.1c0,0,0,0,0,0.1l-0.1,0c0,0,0,0-0.1,0
					c0,0-0.1,0-0.1-0.1c0,0,0,0,0-0.1c0,0-0.1-0.1-0.1-0.1c0-0.1,0-0.2,0.1-0.2c0,0,0.1,0,0.1,0l0-0.1l0.1,0c0.1,0,0,0,0.1,0
					c0,0,0,0,0-0.1c0,0,0,0,0.1,0c0.1,0,0.3,0,0.3,0C1.5,21.4,1.5,21.4,1.6,21.3c0,0.1,0,0.1,0,0.1C1.6,21.4,1.6,21.3,1.6,21.3z"/>
			</g>
		</g>
	</g>
</g>
<g>
</g>
<g>
</g>
<g>
</g>
<g>
</g>
<g>
</g>
<g>
</g>
<g>
</g>
<g>
</g>
<g>
</g>
<g>
</g>
<g>
</g>
<g>
</g>
<g>
</g>
<g>
</g>
<g>
</g>
</svg>
