<?xml version="1.0" encoding="utf-8"?>
<!-- Generator: Adobe Illustrator 22.1.0, SVG Export Plug-In . SVG Version: 6.00 Build 0)  -->
<!DOCTYPE svg PUBLIC "-//W3C//DTD SVG 1.1//EN" "http://www.w3.org/Graphics/SVG/1.1/DTD/svg11.dtd">
<svg version="1.1" id="Layer_1" xmlns="http://www.w3.org/2000/svg" xmlns:xlink="http://www.w3.org/1999/xlink" x="0px" y="0px"
	 viewBox="0 0 80 80" style="enable-background:new 0 0 80 80;" xml:space="preserve">
<style type="text/css">
	.st0{fill:#27C1AE;}
	.st1{enable-background:new    ;}
	.st2{fill:#FFFFFF;}
</style>
<g id="Group_30" transform="translate(-588 -124)">
	<circle id="Ellipse_24" class="st0" cx="628" cy="164" r="40"/>
	<g class="st1">
		<path class="st2" d="M642.4,185.4l-0.7,5.1c-1.7,0.2-3.5,0.4-5.5,0.4c-3.1,0-5.4-0.5-6.9-1.5c-1.2-0.9-2.3-2.4-3-4.5l-1.1-3
			c-5.1-0.4-9-2.6-11.8-6.6c-2.5-3.6-3.8-8.3-3.8-14.1c0-7,1.8-12.4,5.4-16.1c3-3.2,7-4.8,11.9-4.8c5.6,0,10,2,13.1,6.1
			c2.8,3.7,4.2,8.5,4.2,14.7c0,5.9-1.3,10.6-3.9,14.3c-2.2,3.1-5.1,5.1-8.7,5.9l0.7,2c0.4,1.1,1,1.8,1.8,2.2
			c0.7,0.4,1.8,0.6,3.2,0.6C638.8,185.9,640.5,185.7,642.4,185.4z M626.8,145.6c-3.3,0-5.8,1.4-7.5,4.3c-1.6,2.7-2.4,6.3-2.4,11
			c0,5.3,1,9.4,3.1,12.1c1.7,2.3,4,3.4,6.8,3.4c3.3,0,5.7-1.5,7.5-4.4c1.6-2.7,2.4-6.4,2.4-11.1c0-5.4-1-9.4-3-12.1
			C631.9,146.7,629.7,145.6,626.8,145.6z"/>
	</g>
</g>
</svg>
