<?xml version="1.0" encoding="utf-8"?>
<!-- Generator: Adobe Illustrator 18.0.0, SVG Export Plug-In . SVG Version: 6.00 Build 0)  -->
<!DOCTYPE svg PUBLIC "-//W3C//DTD SVG 1.1//EN" "http://www.w3.org/Graphics/SVG/1.1/DTD/svg11.dtd">
<svg version="1.1" id="Layer_1" xmlns="http://www.w3.org/2000/svg" xmlns:xlink="http://www.w3.org/1999/xlink" x="0px" y="0px"
	 viewBox="0 0 111.6 74.1" enable-background="new 0 0 111.6 74.1" xml:space="preserve">
<g>
	<rect x="1.3" y="1.3" fill="#FFFFFF" width="109.3" height="71.3"/>
	<g>
		<g>
			<path fill-rule="evenodd" clip-rule="evenodd" fill="#3A494F" d="M100.1,74.1c-0.8,0-1.8-0.1-2.9-0.1c-0.3-0.1-0.2-0.2-0.7-0.2
				c-1.7,0-2.8-0.1-4.3-0.1c-1.5,0-0.3,0.1-1.8,0.1s-0.9-0.1-2.4-0.1s-3.2,0.3-4.7,0.3s-0.3-0.1-1.8-0.1c-1.5,0-0.9,0.1-2.4,0.1
				c-1.5,0-2.9-0.3-3.9-0.4c-2.2,0.1-7,0.3-8.5,0.3c-2.9,0-1.8-0.2-4.5-0.2c0,0,0.7,0-0.8,0c-1.5,0-0.9,0.1-2.4,0.1
				c-1.5,0-0.9-0.1-2.4-0.1c-0.7,0-2,0.2-2.5,0.4c-2-0.1-4.2-0.4-5.7-0.4c-1.5,0-5,0.3-6.5,0.3s-0.3-0.1-1.8-0.1
				c-1.5,0-1.5,0.1-2.9,0.1c-3,0-0.3-0.3-2.4-0.3c-1.5,0-0.3,0.1-1.8,0.1c-1.5,0-2.1-0.1-3.5-0.1c-1.4,0-7.4,0.2-8.8,0.3
				c-1.5,0-3.8-0.1-5.3-0.1c-1.5,0-3.7,0.1-4.9,0.1c-0.7,0-1-0.2-0.9-0.3H1.9c-0.5,0-1.1,0-1.6,0v-1.6c-0.1,0.5-0.1,1.1-0.2,1.5
				c0,0.1,0,0.2,0,0.3l0,0.1l0,0l0.1,0c0.1,0,0.1,0,0,0.1c-0.1,0-0.2,0-0.2,0c0-0.1,0-0.2,0-0.2c0-0.1,0-0.3,0-0.4
				c0-0.2,0-0.5,0-0.7c0-0.5,0.1-1.3,0.1-1.9c0-1.5-0.1-1.5-0.1-2.9c0-1.5,0.3-3.8,0.3-5.3c0-1.5-0.1-1.5-0.1-2.9
				c0-1.5,0.1-0.9,0.1-2.4c0-1.5-0.1-2.4-0.3-3.2c0.1-0.8,0.3,0,0.3-1.5c0-1.5-0.1,0.3-0.1-1.2c0-1.5,0.1,0.3,0.1-1.2
				c0-1.5-0.1,0.3-0.1-1.2c0-1.5,0.1-0.3,0.1-1.8c0-1.5-0.1-2.1-0.1-3.5c0-1.5,0-2.3,0.1-2.8c0-0.4-0.1-0.7-0.2-0.8
				c0-0.8,0.1-0.8,0.1-2.3c0-1.5-0.1-1.5-0.1-2.9c0-1.5,0.1-3.2,0.1-4.7c0-1.5-0.1-3.2-0.1-4.7c0-1.5,0.1-1.6,0.1-2.2
				c0-2.9,0-5.8,0-8.7c0.1-0.3,0.1,0.5,0.1-0.9c0-1.5-0.2-5.5-0.4-7.9V3.4c0.1-0.1,0.1,1.2,0.3,2.3V2.9V0.4l0-0.1l0.1,0
				c0.1,0,0.1,0,0.2,0c0.1,0,0.2,0,0.3,0c0.2,0,0.3,0,0.5,0c0.3,0,0.4,0,0.5,0c0.1,0,0.3,0,0.5,0c0.3,0,0.5,0,0.9,0
				c1.5,0,2.1,0.1,3.5,0.1c1.5,0,0.9-0.1,2.4-0.1c1.5,0,0.3,0.1,1.8,0.1s2.1-0.1,3.5-0.1c1.5,0,5,0.1,6.5,0.1c1.1,0,3.6,0,4.4-0.1
				c0.9,0.1,2.1,0.1,2.6,0.3c1.6,0,1.9,0.1,1.9-0.1s-1.2-0.1-1-0.2c1.5,0.1,3.1,0.3,4.5,0.3c0.4,0,3.2-0.1,3.6-0.4h2.2
				c0.1,0.1,1.2,0.3,1.7,0.4c0.4,0,0.7-0.1,0.9-0.3c1.5,0.1,2.5,0.3,3.9,0.3s3.8-0.3,5.3-0.3c1.5,0,0.9,0.1,2.4,0.1
				c1.5,0,1.2,0,1.4-0.1c0.9,0.1,0.1,0.3,1.6,0.3S56,0.2,57.5,0.2s1.5,0.1,2.9,0.1c2.6,0,3.2,0,3.6-0.4h2.2c0.1,0.1,1,0.4,1.8,0.4
				c1.5,0-0.3-0.1,1.2-0.1S69,0.4,70.5,0.4s2.2-0.2,3.2-0.2c0.9-0.1,1.8,0,3.3,0c1.4,0,7.4,0.2,8.8,0.3c5.1,0,3.5-0.3,5.9-0.3
				c2.5,0,0.8,0.3,5.9,0.3c1.5,0,3.2-0.1,4.7-0.1s4,0.1,5.7,0.3c0.5,0,0.8-0.1,0.9-0.2c0,0,0.8,0,1.5,0c0.4,0,0.8,0,1.1,0h0.1
				c0,0,0,0,0,0.1c0,0,0,0.1,0,0.1c0,0.1,0,0.1,0,0.2c0,0.1,0,0.1,0,0.1c0,1.2,0,1.8-0.1,2.1c0,0.3-0.1,0.5-0.1,1
				c-0.1,0.3-0.2,0.3-0.2,0.7v1.7c0,1.5,0.1,0.9,0.2,1.8c0,1.1,0,2.9,0,4c0,0.5,0.1-0.5,0.1,1c0,1.5-0.1,4-0.3,5.7
				c0,0.5,0.1,0.8,0.3,1c-0.1,0.9-0.1,2.5-0.1,3.9c0,1.5,0.1,3.1,0.1,4.3c0,0.7-0.2,1-0.3,0.9v3.2c0.1,0.5,0.2,0.4,0.3,0.5v3.1
				c0,1.5-0.1,0.7-0.1,2.1c0,1.5,0,1.8,0.1,1.9c-0.2,4.2-0.2,1.6-0.2,5.8c0,2.6,0.3,5.7,0.3,6.5c0,1.5-0.3,2.6-0.3,4.1
				c0,1.5,0.1,0.3,0.1,1.8c0,1.5-0.1-0.3-0.1,1.2c0,1.5,0.1,4.9,0.2,6.8c0,0.5,0,0,0,1.4c0,0.7,0,1.6-0.1,2.4c0,0.4-0.1,0.8-0.1,1.2
				l0,0.3c0,0.1,0,0.2,0,0.2l0,0v0.2c0.1,0.1,0.2,0,0.3,0.1c-0.3,0.2-0.4,0.4-0.4,0.7c-0.1,0-0.1-0.1-0.2-0.1
				c-0.4,0-0.4,0.5-0.7,0.5c-0.2,0-0.1,0-0.2,0c0-0.1-0.1-0.6-0.4-0.6c-0.2,0-0.2,0.1-0.2,0.1c0-0.4-0.3-0.5-0.3-0.6
				c0-0.1,0-0.2,0.1-0.2l0,0c0,0,0,0,0-0.1l0-0.5c0-0.3,0-0.7,0-1.1c0-1.5-0.1-2.1-0.1-3.5c0-1.5,0.1-0.5,0.1-1
				c0-2.2,0.1-5.8,0.1-7.3c0-1.5,0.1-2.7,0-3.7c-0.1-1-0.2-1.9-0.2-3.4c0-1.5,0.1-0.5,0.1-1c0-1.1,0-2.8,0-4.3c0-1.5,0-4.3-0.1-6.9
				c0.1-0.1,0.1,0.5,0.2,1.1c0.1,0,0.1-1.2,0.2-1.6c0-0.4-0.1-0.4-0.1-1.9c0-1.5,0.1-1.1,0.1-1.5c-0.1-1,0-2-0.2-2
				c-0.2,0-0.1,1.2-0.2,1.1v-3.3c0.1-0.7,0.2-1.6,0.2-3.1c0-1.5-0.1,0.3-0.1-1.2c0-1.5,0.1,0.3,0.1-1.2c0-1.5-0.1-0.9-0.1-2.4
				c0-1.5,0.1-1.5,0.1-2.9c0-1.5-0.1-3.9-0.1-5.5c-0.1-1-0.2-1.7-0.2-2.6c0.1-0.2,0.2,1,0.3,1.1c0-2.7,0.1-6.9,0.1-8.3
				c0-0.4,0-0.7,0-1.1l0-0.4l0-0.1l0-0.1c0,0,0-0.1-0.1,0c-0.1,0-0.1,0-0.2,0.1l0,0c-0.2,0-0.3,0-0.4,0c-0.2,0-0.2,0-0.2,0
				c0,0,0.1-0.1-0.2-0.1c-0.5,0-0.8,0.1-0.9,0.2c-0.8,0-0.2-0.1-1.7-0.1s-0.6,0-0.7,0.1c-0.8,0-1.1-0.1-1-0.3c-2.7,0-6.3,0-9.2,0
				c-0.2-0.1,0.6-0.1-0.9-0.1S88.4,2.5,87,2.5s-2.1-0.3-3.5-0.3s0.3,0.1-1.2,0.1s-2.9-0.1-3.4-0.3c-0.4,0-0.7,0.1-0.8,0.2h-2.2
				c-0.1-0.1-1.2-0.1-1.6-0.2c-0.4,0-1.5,0.1-2.1,0.4H70c-0.1-0.1,1.1-0.1,1.1-0.2c-0.5-0.1,0.3,0-1.2,0c-1.5,0-2.6,0.3-4.1,0.3
				s-0.9-0.1-2.4-0.1S62.5,2.5,61,2.5s-0.3-0.1-1.8-0.1c-1.5,0-1.2,0-1.4,0.1c-0.9-0.1-1.7-0.2-2.6-0.2c-1-0.1-2.8,0-4.2,0
				c-1.5,0-3.2,0-4.3,0c-0.7,0-1,0.1-1.9,0.2c0,0,0.6,0-0.8,0c-1.5,0-2-0.2-2.9-0.2c-0.4,0-1,0-2.4,0c-5,0-3.5,0.3-5.9,0.3
				c-1.9,0-2.2-0.2-4.5-0.4h-1.6c-0.5,0.1-0.4,0-0.4,0.1c0,0.2,1.2,0.2,1.1,0.2h-4.3c-1.5,0-1.5-0.1-3-0.1S18,2.5,17.1,2.5
				c-0.2-0.1,1-0.2,1-0.2c-0.5-0.1,0.3,0-1.2,0S16,2.4,14.5,2.4s-0.9-0.1-2.4-0.1S9.5,2.4,8.1,2.4C6.6,2.4,6,2.3,4.5,2.3
				C3,2.3,4.8,2.4,3.3,2.4c-0.8,0-0.6,0-0.7-0.1c0,0-0.1-0.1-0.3-0.1c-0.2,0-0.1,0.1-0.1,0.1c0,0,0,0.1,0,0.1c0,0,0.1,0.1,0.1,0.3
				c0,1.4-0.1,2.9-0.3,3.3c0.1,1,0,2,0.2,2c0.2,0,0.1-1.2,0.2-1.1c0,2-0.1,2-0.1,3.4c0,1.5,0,1.2,0.1,1.4c-0.1,1.5-0.3,2.5-0.3,3.9
				s0.1,2.1,0.1,3.2c0,0.6-0.1,0.8-0.3,2.2h0.4v4.5c-0.1,0.1-0.1,1.2-0.2,1.6c0.1,1.5,0.3,4.6,0.3,6.1c0,1.5-0.1,2.9-0.3,3.4
				c0,0.4,0.1,0.7,0.3,0.9c-0.1,2.6-0.2,7.2-0.2,8.7c0,2,0,1.9,0.2,1.8v3.1c0,1.5-0.2,3.6-0.2,5.1c0,1.5,0.1,0.9,0.1,2.4
				c0,1.5-0.1,2.6-0.1,4.1c0,1.5,0.1,2.1,0.1,3.5c0,1.5-0.1-0.3-0.1,1.2c0,1.5,0.1,0.9,0.1,2.4c0,0.7,0,1.4-0.1,1.4
				c0,0.1,0,0.2,0,0.3c0,0.1,0,0.1,0.1,0.1c0.1,0,0.1,0,0.2,0c0.1,0,0.1,0,0.3,0c0.2,0,0.3,0,0.4,0c0.2,0,0.4-0.1,1.2-0.1
				c1.5,0-0.3,0.1,1.2,0.1s0.9-0.1,2.4-0.1s2.9,0.1,3.4,0.3c0.4,0,0.7-0.1,0.8-0.2c0.8,0,0.2,0.1,1.7,0.1s-0.3-0.1,1.2-0.1
				s-0.3,0.1,1.2,0.1s0.6,0,0.9-0.1c1.1,0,4.6,0.1,5.7-0.2c0.8,0,1,0.1,1.2,0.2c0.9,0.1,1.9,0.2,3.4,0.2c0.9,0,2-0.2,2.5-0.4h3.3
				c0.7,0.1,1,0.2,2.5,0.2c1.5,0,0.3-0.1,1.8-0.1s2.1,0.1,3.5,0.1c1.5,0,2,0,2.5,0c0.5,0,0.5-0.2,0.8-0.2c0.6,0,2.1,0,4.2-0.2
				c0.1,0.1-0.5,0.1-1.1,0.2c0,0.1,1.2,0.1,1.6,0.2c1-0.1,2.3-0.1,3.7-0.1s2.1,0.1,3.5,0.1s-0.3-0.1,1.2-0.1s0.5,0.1,1,0.1
				c1.1,0,1.7,0,3.1,0c1.5,0,3,0,3.9-0.1v0c1.7,0,0.5,0.1,2,0.1c1.5,0,0.9-0.1,2.4-0.1c1.5,0,0.9,0.1,2.4,0.1c1.5,0,0.3-0.1,1.8-0.1
				s0.9,0.1,2.4,0.1s2.4-0.1,3.2-0.3c1.4,0.1,3.6,0.3,5.1,0.3s0.9-0.1,2.4-0.1s0.3,0.1,1.8,0.1c1.5,0,1.2,0,1.3-0.1
				c0.8,0,1.1,0.1,1,0.2H101c1.5,0-0.3-0.1,1.2-0.1s0.3,0.1,1.8,0.1c1.5,0,0.9-0.1,2.4-0.1c1.5,0,0.9,0.1,2.4,0.1c0.1,0,0.1,0,0.2,0
				c0,0,0,0,0,0c0,0,0,0,0,0c0,0,0-0.1,0-0.1c0.1,0.1,0.2,0.2,0.3,0.4c0.2,0,0.4,0.1,0.5,0.3c0,0,0.1-0.1,0.1-0.3h0.2
				c0.2,0,0.1,0.1,0.3,0.2c0,0.1,0.2,0.1,0.2,0.3c0,0.2-0.1,0.1-0.1,0.3c0,0.2,0.1,0.3,0.3,0.3c-0.1,0.2-0.3,0.4-0.4,0.6
				c-0.1,0-0.1-0.1-0.2-0.1v0.4h-0.2c-0.2,0-0.1-0.1-0.1-0.1c-0.1,0-0.1,0.1-0.1,0.2c-0.1,0-0.1-0.1-0.2-0.1c-0.1,0-0.2,0-0.4,0
				l-0.2,0c-0.5,0-1.1,0-1.6,0c-2.3,0-4.3-0.1-5-0.1c-1.5,0-3.1,0-4.1,0C98.6,73.9,99.7,74,100.1,74.1z"/>
		</g>
	</g>
</g>
<g>
</g>
<g>
</g>
<g>
</g>
<g>
</g>
<g>
</g>
<g>
</g>
<g>
</g>
<g>
</g>
<g>
</g>
<g>
</g>
<g>
</g>
<g>
</g>
<g>
</g>
<g>
</g>
<g>
</g>
</svg>
