<?xml version="1.0" encoding="utf-8"?>
<!-- Generator: Adobe Illustrator 18.0.0, SVG Export Plug-In . SVG Version: 6.00 Build 0)  -->
<!DOCTYPE svg PUBLIC "-//W3C//DTD SVG 1.1//EN" "http://www.w3.org/Graphics/SVG/1.1/DTD/svg11.dtd">
<svg version="1.1" id="Layer_1" xmlns="http://www.w3.org/2000/svg" xmlns:xlink="http://www.w3.org/1999/xlink" x="0px" y="0px"
	 viewBox="0 0 111.2 70.5" enable-background="new 0 0 111.2 70.5" xml:space="preserve">
<g>
	<rect x="1.3" y="1.3" fill="#3A494F" width="108.8" height="67.6"/>
	<g>
		<g>
			<path fill-rule="evenodd" clip-rule="evenodd" fill="#3A494F" d="M99.8,70.5c-0.8,0-1.8-0.1-2.8-0.1c-0.3-0.1-0.2-0.2-0.7-0.2
				c-1.7,0-2.8-0.2-4.2-0.2c-1.4,0-0.3,0.1-1.7,0.1S89.5,70,88,70c-1.4,0-3.2,0.3-4.6,0.3s-0.3-0.1-1.7-0.1c-1.4,0-0.9,0.1-2.3,0.1
				s-2.8-0.3-3.8-0.4c-2.1,0.1-6.9,0.3-8.3,0.3c-2.8,0-1.8-0.2-4.4-0.2c0,0,0.6,0-0.8,0c-1.4,0-0.9,0.1-2.3,0.1
				c-1.4,0-0.9-0.1-2.3-0.1c-0.6,0-1.9,0.2-2.5,0.4c-2-0.1-4.1-0.4-5.6-0.4c-1.4,0-4.9,0.3-6.3,0.3S42.9,70,41.5,70
				c-1.4,0-1.4,0.1-2.9,0.1c-2.9,0-0.3-0.3-2.3-0.3c-1.4,0-0.3,0.1-1.7,0.1c-1.4,0-2-0.1-3.4-0.1c-1.4,0-7.2,0.3-8.6,0.3
				S18.8,70,17.3,70s-3.6,0.1-4.8,0.1c-0.6,0-0.9-0.2-0.8-0.3H2C3.1,70,3.5,70,3.5,70.1c-0.2,0-0.3,0-0.5,0c-0.2,0-0.4,0-0.6,0
				c-0.3,0-0.5,0-0.9,0c-0.2,0-0.4,0-0.6,0c-0.1,0-0.2,0-0.4,0c-0.1,0-0.4,0.1-0.3-0.1c0-1.2,0-1.8-0.1-2.4c0-0.4-0.1-0.7-0.1-1.5
				c0-1.4,0.3-3.7,0.3-5.2c0-1.4-0.1-1.4-0.1-2.9s0.1-0.9,0.1-2.3c0-1.4-0.1-2.3-0.3-3.1c0.1-0.8,0.3,0,0.3-1.5
				c0-1.4-0.1,0.3-0.1-1.1c0-1.4,0.1,0.3,0.1-1.1c0-1.4-0.1,0.3-0.1-1.1s0.1-0.3,0.1-1.7c0-1.4-0.1-2-0.1-3.4s0-2.3,0.1-2.7
				c0-0.4-0.1-0.7-0.3-0.8c0-0.8,0.1-0.8,0.1-2.2c0-1.4-0.1-1.4-0.1-2.9c0-1.4,0.1-3.2,0.1-4.6c0-1.4-0.1-3.2-0.1-4.6
				c0-1.4,0.1-1.6,0.1-2.1c0-2.8,0-5.7,0-8.5c0.1-0.3,0.1,0.5,0.1-0.9c0-1.4-0.3-5.3-0.4-7.7v-2c0.1-0.1,0.1,1.1,0.3,2.3V2.9V0.4
				c0-0.1,0.1-0.1,0.1-0.1c0.1,0,0.1,0,0.2,0c0.1,0,0.2,0,0.3,0c0.2,0,0.3,0,0.5,0c0.2,0,0.4,0,0.5,0c0.1,0,0.3,0,0.5,0
				c0.2,0,0.5,0,0.9,0c1.4,0,2,0.1,3.4,0.1s0.9-0.1,2.3-0.1c1.4,0,0.3,0.1,1.7,0.1c1.4,0,2-0.1,3.4-0.1c1.4,0,4.9,0.1,6.3,0.1
				c1.1,0,3.5,0,4.3-0.1c0.8,0.1,2,0.2,2.5,0.3c1.6,0,1.9,0.1,1.9-0.1c0-0.2-1.1-0.1-1-0.2c1.5,0.1,3,0.3,4.4,0.3
				c0.4,0,3.1-0.1,3.6-0.4h2.1c0.1,0.2,1.2,0.3,1.7,0.4c0.4,0,0.7-0.1,0.9-0.3c1.5,0.1,2.4,0.3,3.8,0.3c1.4,0,3.7-0.3,5.2-0.3
				c1.4,0,0.9,0.1,2.3,0.1c1.4,0,1.1,0,1.3-0.1c0.9,0.1,0.1,0.3,1.5,0.3c1.4,0-0.3-0.1,1.1-0.1c1.4,0,1.4,0.1,2.9,0.1
				c2.5,0,3.1,0,3.5-0.4h2.1c0.1,0.1,0.9,0.4,1.8,0.4c1.4,0-0.3-0.1,1.1-0.1c1.4,0-0.3,0.1,1.1,0.1S71,0.2,72,0.1
				c0.9-0.1,1.7,0,3.2,0s7.2,0.3,8.6,0.3c5,0,3.4-0.3,5.7-0.3c2.4,0,0.8,0.3,5.7,0.3c1.4,0,3.2-0.1,4.6-0.1s3.9,0.1,5.5,0.3
				c0.5,0,0.8-0.1,0.9-0.3h1.9c0.5,0,0.9,0,1.2,0c0.3,0,0.5,0,0.7,0c0.2,0,0.4,0,0.6,0.1l0.2,0c0.1,0,0.2,0,0.1,0.1
				c0,0.2,0,0.3,0,0.6c-0.1,0.5-0.2,0.5-0.2,1.2v1.8c0,1.4,0.1,0.9,0.2,1.7c0,1.1,0,2.8,0,3.9c0,0.5,0.1-0.5,0.1,1s-0.1,3.9-0.3,5.5
				c0,0.5,0.1,0.8,0.3,1c-0.1,0.9-0.1,2.4-0.1,3.8s0.1,3,0.1,4.2c0,0.6-0.2,0.9-0.3,0.8v3.1c0.1,0.5,0.2,0.4,0.3,0.5v3
				c0,1.4-0.1,0.6-0.1,2.1c0,1.4,0,1.7,0.1,1.8c-0.2,4.1-0.3,1.6-0.3,5.6c0,2.5,0.3,5.5,0.3,6.3c0,1.4-0.3,2.6-0.3,4
				c0,1.4,0.1,0.3,0.1,1.7c0,1.4-0.1-0.3-0.1,1.1c0,1.4,0.1,4.7,0.2,6.6c0,0.5,0,0,0,1.4c0,0.7,0,1.6-0.1,2.4c0,0.4-0.1,0.8-0.1,1.1
				l0,0.3c0,0.1,0,0.2,0,0.2l0,0.1v0.2c0.1,0.1,0.2,0,0.3,0.1c-0.3,0.2-0.4,0.4-0.4,0.8c-0.1,0-0.1-0.1-0.3-0.1
				c-0.4,0-0.4,0.5-0.7,0.5c-0.2,0-0.1,0-0.2,0c0-0.1-0.1-0.6-0.4-0.6c-0.2,0-0.2,0.1-0.3,0.1c0-0.4-0.3-0.5-0.3-0.7
				c0-0.1,0-0.2,0.1-0.2c0,0,0,0,0-0.1l0-0.5c0-0.3,0-0.7,0-1c0-1.4-0.1-2-0.1-3.4s0.1-0.5,0.1-1c0-2.2,0.1-5.7,0.1-7.1
				c0-1.4,0.1-2.6,0-3.6c-0.1-0.9-0.3-1.9-0.3-3.3c0-1.4,0.1-0.5,0.1-1c0-1.1,0-2.8,0-4.2c0-1.4,0-4.2-0.1-6.8
				c0.1-0.1,0.1,0.5,0.2,1c0.1,0,0.1-1.1,0.2-1.6c0-0.4-0.1-0.4-0.1-1.9c0-1.4,0.1-1.1,0.1-1.5c-0.1-1,0-2-0.2-2s-0.1,1.1-0.2,1.1
				v-3.2c0.1-0.7,0.3-1.6,0.3-3c0-1.4-0.1,0.3-0.1-1.1c0-1.4,0.1,0.3,0.1-1.1c0-1.4-0.1-0.9-0.1-2.3c0-1.4,0.1-1.4,0.1-2.9
				c0-1.4-0.1-3.8-0.1-5.3c-0.1-1-0.2-1.6-0.3-2.5c0.1-0.2,0.2,1,0.3,1.1c0-1.3,0-3,0.1-4.5c0-1.3,0.1-2.4,0.1-3
				c0.1-0.3-0.2-0.2-0.4-0.2c-0.3,0-0.5,0-0.8,0c-0.3,0-0.6,0-0.8,0.1v0c-1.6,0-0.7-0.1-1.2-0.1c-0.5,0-0.8,0.1-0.8,0.3
				c-0.8,0-0.2-0.1-1.6-0.1c-1.4,0-0.6,0-0.7,0.1c-0.8,0-1.1-0.2-1-0.3c-2.7,0-6.1,0-9,0c-0.2-0.1,0.6-0.1-0.8-0.1
				c-1.4,0-5.5,0.3-6.9,0.3s-2-0.3-3.4-0.3c-1.4,0,0.3,0.1-1.1,0.1s-2.8-0.2-3.3-0.3c-0.4,0-0.7,0.1-0.8,0.3h-2.1
				c-0.1-0.1-1.2-0.1-1.6-0.3c-0.4,0-1.5,0.1-2,0.4h-2.1c-0.1-0.1,1.1-0.2,1.1-0.2c-0.5-0.1,0.3,0-1.2,0s-2.6,0.3-4,0.3
				S63.4,2.5,62,2.5c-1.4,0-0.9,0.1-2.3,0.1S59.4,2.5,58,2.5s-1.1,0-1.3,0.1c-0.8-0.1-1.7-0.2-2.6-0.3c-0.9-0.1-2.7,0-4.1,0
				c-1.4,0-3.1,0-4.2,0c-0.6,0-1,0.1-1.9,0.2c0,0,0.6,0-0.8,0s-2-0.2-2.8-0.3c-0.4,0-0.9,0-2.4,0c-4.9,0-3.4,0.3-5.7,0.3
				c-1.9,0-2.2-0.2-4.4-0.4h-1.6c-0.5,0.1-0.4,0-0.4,0.1c0,0.2,1.1,0.2,1.1,0.3h-4.2c-1.4,0-1.5-0.1-2.9-0.1c-1.4,0-2.1,0.1-3,0.1
				c-0.2-0.1,1-0.2,1-0.2c-0.5-0.1,0.3,0-1.2,0s-0.9,0.1-2.3,0.1c-1.4,0-0.9-0.1-2.3-0.1S9.4,2.5,8,2.5S6,2.4,4.5,2.4
				c-1.4,0,0.3,0.1-1.1,0.1c-0.2,0-0.3,0-0.4,0c-0.1,0-0.1,0-0.1,0c0,0,0,0-0.1,0c0,0-0.1-0.1-0.3-0.1c-0.2,0-0.1,0.1-0.1,0.1
				c0,0,0,0.1,0,0.1c0,0,0.1,0.1,0.1,0.3c0,0.3,0,0.6,0,0.9c0,0.3,0,0.7-0.1,1C2.4,5.3,2.3,5.8,2.3,6c0.1,0.9,0,1.9,0.2,1.9
				s0.1-1.1,0.2-1.1c0,1.9-0.1,1.9-0.1,3.4c0,1.4,0,1.1,0.1,1.3C2.5,13,2.4,14,2.4,15.4c0,1.4,0.1,2,0.1,3.2c0,0.6-0.1,0.7-0.3,2.1
				h0.4v4.4c-0.1,0.1-0.1,1.2-0.3,1.6c0.1,1.5,0.3,4.5,0.3,6c0,1.4-0.2,2.8-0.3,3.3c0,0.4,0.1,0.7,0.3,0.8c-0.1,2.6-0.3,7-0.3,8.5
				c0,1.9,0,1.9,0.3,1.8v3c0,1.4-0.3,3.5-0.3,5c0,1.4,0.1,0.9,0.1,2.3c0,1.4-0.1,2.6-0.1,4s0.1,2,0.1,3.4S2.4,64.5,2.4,66
				c0,0.7,0,0.9,0.1,1.1c0,0.3,0.1,0.3,0.1,0.5c-0.1,0.2,0.1,0.2,0.2,0.2c0,0,0.7,0.1,1.4,0.1c1.4,0,0.9-0.1,2.3-0.1
				s-0.3,0.1,1.1,0.1s0.9-0.1,2.3-0.1c1.4,0,2.8,0.2,3.3,0.3c0.4,0,0.7-0.1,0.8-0.3c0.8,0,0.2,0.1,1.6,0.1c1.4,0-0.3-0.1,1.1-0.1
				s-0.3,0.1,1.1,0.1s0.6-0.1,0.9-0.1c1.1,0,4.5,0.1,5.5-0.2c0.7,0,1,0.1,1.2,0.2c0.9,0.1,1.9,0.2,3.3,0.2c0.9,0,1.9-0.2,2.4-0.4
				h3.2c0.7,0.1,1,0.3,2.4,0.3s0.3-0.1,1.7-0.1s2,0.1,3.4,0.1s1.9,0,2.5,0c0.5,0,0.5-0.2,0.7-0.2c0.6,0,2,0,4.1-0.2
				c0.1,0.1-0.5,0.1-1,0.2c0,0.1,1.1,0.1,1.5,0.2c0.9-0.1,2.2-0.1,3.6-0.1s2,0.1,3.4,0.1c1.4,0-0.3-0.1,1.1-0.1s0.5,0.1,1,0.1
				c1.1,0,1.6,0,3.1,0c1.4,0,2.9,0,3.8-0.1v0c1.6,0,0.5,0.1,1.9,0.1s0.9-0.1,2.3-0.1c1.4,0,0.9,0.1,2.3,0.1c1.4,0,0.3-0.1,1.7-0.1
				s0.9,0.1,2.3,0.1c1.4,0,2.3-0.1,3.1-0.3c1.4,0.1,3.5,0.3,4.9,0.3s0.9-0.1,2.3-0.1c1.4,0,0.3,0.1,1.7,0.1s1.1,0,1.2-0.1
				c0.8,0,1.1,0.2,1,0.3h9.9c1.4,0-0.3-0.1,1.1-0.1c1.4,0,0.3,0.1,1.7,0.1c1.4,0,0.9-0.1,2.3-0.1s0.9,0.1,2.3,0.1c0.1,0,0.1,0,0.2,0
				c0,0,0,0,0,0c0,0,0,0,0,0c0,0,0-0.1,0-0.1c0.1,0.1,0.2,0.2,0.3,0.4c0.2,0,0.5,0.2,0.5,0.3c0,0,0.1-0.1,0.1-0.3h0.2
				c0.2,0,0.1,0.1,0.3,0.2c0,0.1,0.2,0.1,0.2,0.3c0,0.2-0.1,0.1-0.1,0.3s0.1,0.3,0.3,0.4c-0.1,0.2-0.3,0.4-0.4,0.6
				c-0.1,0-0.1-0.1-0.3-0.1v0.4h-0.2c-0.2,0-0.1-0.1-0.1-0.1c-0.1,0-0.1,0.1-0.1,0.3c-0.1,0-0.1-0.1-0.2-0.1c-0.1,0-0.2,0-0.4,0
				l-0.2,0c-0.5,0-1,0-1.6,0c-2.3,0-4.2-0.1-4.9-0.1c-1.4,0-3,0-4,0C98.4,70.3,99.4,70.4,99.8,70.5z"/>
		</g>
	</g>
</g>
<g>
</g>
<g>
</g>
<g>
</g>
<g>
</g>
<g>
</g>
<g>
</g>
<g>
</g>
<g>
</g>
<g>
</g>
<g>
</g>
<g>
</g>
<g>
</g>
<g>
</g>
<g>
</g>
<g>
</g>
</svg>
