<?xml version="1.0" encoding="utf-8"?>
<!-- Generator: Adobe Illustrator 18.0.0, SVG Export Plug-In . SVG Version: 6.00 Build 0)  -->
<!DOCTYPE svg PUBLIC "-//W3C//DTD SVG 1.1//EN" "http://www.w3.org/Graphics/SVG/1.1/DTD/svg11.dtd">
<svg version="1.1" id="Layer_1" xmlns="http://www.w3.org/2000/svg" xmlns:xlink="http://www.w3.org/1999/xlink" x="0px" y="0px"
	 viewBox="0 0 131.2 153.5" enable-background="new 0 0 131.2 153.5" xml:space="preserve">
<g>
	<g>
		<path fill="#FFFFFF" d="M120.8,151.3H10.4c-4.8,0-8.7-3.9-8.7-8.7V22.8c0-4.8,3.9-8.7,8.7-8.7h110.3c4.8,0,8.7,3.9,8.7,8.7v119.7
			C129.5,147.4,125.6,151.3,120.8,151.3z"/>
		<g>
			<g>
				<path fill-rule="evenodd" clip-rule="evenodd" fill="#3A494F" d="M105.8,153.5c-1.1-0.1-2.6-0.1-4.1-0.2c-0.4-0.1-0.3-0.3-1-0.3
					c-2.4,0-4.1-0.2-6.2-0.2c-2.1,0-0.4,0.2-2.5,0.2s-1.3-0.2-3.4-0.2c-2.1,0-4.6,0.4-6.7,0.4c-2.1,0-0.4-0.2-2.5-0.2
					c-2.1,0-1.3,0.2-3.4,0.2c-2.1,0-4.1-0.4-5.5-0.6c-3.1,0.2-10,0.4-12.1,0.4c-4.1,0-2.6-0.2-6.4-0.3c0,0,0.9,0-1.2,0
					s-1.3,0.2-3.4,0.2s-1.3-0.2-3.4-0.2c-0.9,0-2.8,0.2-3.6,0.6c-2.9-0.2-6-0.6-8.1-0.6s-7.1,0.4-9.2,0.4c-2.1,0-0.4-0.2-2.5-0.2
					s-2.1,0.2-4.2,0.2c-4.3,0-0.4-0.4-3.4-0.4c-2.1,0-0.4,0.2-2.5,0.2c-1.2,0-2.1-0.2-2.9-0.5c-0.8-0.3-1.6-0.6-2.6-1.3
					c-0.5-0.3-1.4-0.9-2.3-1.9c-0.9-0.9-1.7-2.2-2.2-3.7c-0.5-1.5-0.5-3.1-0.6-4.1c0-1.1-0.1-2-0.1-2.6c0-2.1,0.2-5.5,0.2-7.6
					c0-2.1-0.1-5.3-0.2-7c0-0.9,0.2-1.4,0.4-1.2v-13.6c-0.2,0.9-0.2,1.8-0.4,1.6c0-1.1,0.2-1.1,0.2-3.2c0-2.1-0.2-2.1-0.2-4.2
					c0-2.1,0.4-5.5,0.4-7.6c0-2.1-0.2-2.1-0.2-4.2c0-2.1,0.2-1.3,0.2-3.4c0-2.1-0.2-3.4-0.4-4.6c0.1-1.2,0.4-0.1,0.4-2.2
					c0-2.1-0.2,0.4-0.2-1.7c0-2.1,0.2,0.4,0.2-1.7c0-2.1-0.2,0.4-0.2-1.7c0-2.1,0.2-0.4,0.2-2.5c0-2.1-0.2-2.9-0.2-5
					c0-2.1,0-3.3,0.2-4c0-0.6-0.1-1-0.4-1.2c0-1.1,0.2-1.1,0.2-3.2S0,58.6,0,56.5c0-2.1,0.2-4.6,0.2-6.7S0,45.2,0,43.1
					s0.1-2.3,0.2-3.1c0-4.1,0-8.3,0.1-12.4c0.1-0.5,0.2,0.8,0.2-1.3c0-0.5,0-1.3-0.1-2.2c0-0.4,0-0.9-0.1-1.4c0-0.3,0-0.6,0-0.9
					c0-0.3,0.1-0.6,0.1-0.9c0.2-1.2,0.6-2.5,1.2-3.6c0.6-1.1,1.4-2,2.2-2.7c0,0,0.7-0.6,1.5-1C5.6,13.4,6,13.2,6.3,13
					c0.3-0.1,0.5-0.2,0.5-0.2c0.2,0.1-1.9,0.8-3.2,2.3c0,0,0.1-0.1,0.2-0.2c0.2-0.1,0.4-0.3,0.7-0.5c0.6-0.4,1.3-0.9,2.2-1.2
					c0.8-0.4,1.8-0.5,2.4-0.6c0.7-0.1,1.1-0.1,1.1-0.1c2.1,0,1-0.2,3.1-0.2c2.1,0,2.9,0.2,5,0.2s1.3-0.2,3.4-0.2s0.4,0.2,2.5,0.2
					s2.9-0.2,5-0.2c2.1,0,7.2,0.1,9.2,0.2c1.6,0,5.1,0.1,6.2-0.2c1.2,0.1,3,0.2,3.7,0.4c2.3,0,2.7,0.1,2.7-0.1s-1.7-0.1-1.4-0.3
					c2.1,0.2,4.4,0.4,6.5,0.4c0.5,0,4.5-0.2,5.2-0.5h3.1c0.1,0.2,1.7,0.4,2.4,0.5c0.6,0,1-0.1,1.3-0.4c2.1,0.2,3.5,0.4,5.6,0.4
					c2.1,0,5.5-0.4,7.6-0.4s1.3,0.2,3.4,0.2s1.7,0,1.9-0.2c1.3,0.1,0.2,0.4,2.3,0.4c2.1,0-0.4-0.2,1.7-0.2s2.1,0.2,4.2,0.2
					c3.7,0,4.5,0,5.2-0.5h3.1c0.1,0.2,1.4,0.5,2.6,0.5c2.1,0-0.4-0.2,1.7-0.2s-0.4,0.2,1.7,0.2c2.1,0,3.1-0.2,4.6-0.3
					c1.3-0.1,2.5,0,4.6,0c0.5,0,1.4,0,2.6,0.1c1.3,0,2.9,0.4,4.2,1.1c1.4,0.7,2.5,1.7,3.3,2.7c0.8,1,1.3,2,1.5,2.5
					c0.8,1.9,0.8,3.4,0.9,4.3c0,0.9,0.1,1.4,0.1,1.8c0.1,0.8,0.2,1.1,0.2,2.7c0,3.6-0.4,1.2-0.4,8.4c0,2.1,0.2,4.6,0.2,6.7
					c0,2.1-0.2,5.7-0.4,8.1c0,0.7,0.1,1.1,0.4,1.3v2.8c0,2.1-0.2,1.7-0.2,3.3c-0.1,0.4-0.3,0.4-0.3,1.1v2.4c0,2.1,0.2,1.3,0.3,2.5
					c0,1.6,0,4.1,0.1,5.7c0.1,0.8,0.2-0.7,0.2,1.4s-0.2,5.7-0.4,8.1c0,0.7,0.1,1.1,0.4,1.4c-0.1,1.3-0.2,3.5-0.2,5.6
					c0,2.1,0.1,4.4,0.2,6.2c0,0.9-0.2,1.4-0.4,1.2v4.6c0.1,0.7,0.2,0.6,0.4,0.7v4.4c0,2.1-0.2,0.9-0.2,3c0,2.1,0,2.5,0.2,2.7
					c-0.2,6-0.4,2.3-0.4,8.2c0,3.7,0.4,8.1,0.4,9.2c0,2.1-0.4,3.8-0.4,5.9c0,2.1,0.2,0.4,0.2,2.5s-0.2-0.4-0.2,1.7
					c0,1,0,2.8,0.1,4.6c0,0.5,0,0.9,0,1.4c0,0.3,0,0.5,0,0.8c0,0.3-0.1,0.5-0.1,0.8c-0.1,1-0.4,1.9-0.7,2.7
					c-0.2,0.4-0.1,0.4-0.2,0.5c-0.1,0.2-0.3,0.6-1,1.5c-0.8,1-1.9,1.9-3.1,2.4c-0.3,0.1-0.6,0.3-0.9,0.4c-0.3,0.1-0.6,0.2-0.9,0.3
					c-0.1,0-0.3,0.1-0.4,0.1l-0.2,0c-0.1,0,0,0-0.1,0c0,0-0.1,0-0.1,0c0,0-0.3,0.1-0.3,0.1c-0.1,0.1,0,0.2,0,0.4
					c-0.4-0.3-0.7-0.5-1.3-0.4c0-0.1,0.2-0.1,0.2-0.4c-0.1-0.5-0.8-0.6-0.8-1c0-0.2,0-0.2,0-0.2c0.2-0.1,0.8-0.2,0.7-0.6
					c0-0.2-0.2-0.2-0.2-0.3c0.4-0.1,0.5-0.5,0.7-0.5c0.1,0,0.2,0,0.3,0l0,0c0,0,0,0,0.1,0c0.2,0,0.4-0.1,0.5-0.1
					c0.4-0.1,0.7-0.3,1.1-0.4c1.4-0.9,1.8-1.5,2.6-2.9c0.4-0.7,0.4-0.8,0.4-0.8c0,0,0,0.2,0.2-0.1c0.2-0.6,0.4-1.3,0.4-2.1
					c0-0.9,0.1-1.9,0.1-2.9c0-1.9,0.1-3.7,0.1-4.7c0-2.1,0.1-3.9,0-5.2c-0.1-1.4-0.4-2.8-0.4-4.9c0-2.1,0.1-0.7,0.2-1.4
					c0-1.6,0-4,0-6.1c0-2.1,0-6.1-0.2-9.9c0.1-0.2,0.2,0.8,0.2,1.5c0.1,0,0.1-1.7,0.3-2.4c0-0.6-0.2-0.6-0.2-2.7
					c0-2.1,0.1-1.6,0.2-2.2c-0.1-1.4,0-2.9-0.3-2.9c-0.2,0-0.1,1.7-0.3,1.6v-4.7c0.2-1,0.4-2.3,0.4-4.4c0-2.1-0.2,0.4-0.2-1.7
					c0-2.1,0.2,0.4,0.2-1.7c0-2.1-0.2-1.3-0.2-3.4s0.2-2.1,0.2-4.2c0-2.1-0.1-5.6-0.2-7.8c-0.1-1.5-0.2-2.4-0.3-3.7
					c0.1-0.3,0.2,1.4,0.4,1.5c0-3.9,0.2-9.8,0.2-11.9s0-4.3-0.1-5.6h-0.1c0-2.4,0.1-1,0.2-1.7c0-0.7-0.1-1.1-0.4-1.2
					c0-1.1,0.2-0.3,0.2-2.4s0-0.8-0.2-1c0-1.1,0.2-1.6,0.4-1.4c0-3.9,0-9,0-13.2c0.1-0.4,0.1,0.9,0.1-1.2c0-1-0.1-3-0.2-5
					c0-1-0.1-2-0.1-2.9c0-0.2,0-0.4,0-0.6c0-0.2,0-0.3,0-0.5c-0.1-0.3-0.1-0.5-0.1-0.7c-0.4-1.6-0.5-2.4-1.6-3.7
					c-0.6-0.6-0.6-0.5-0.6-0.4c0,0.1,0.1,0.2-0.6-0.3c-1.4-1-3.1-1.4-3.7-1.6c-0.5,0-1,0.1-1.1,0.3h-3.1c-0.1-0.1-1.7-0.2-2.3-0.4
					c-0.5,0-2.2,0.2-3,0.5h-3.1c-0.1-0.1,1.6-0.2,1.6-0.3c-0.7-0.1,0.4-0.1-1.7-0.1s-3.8,0.4-5.9,0.4s-1.3-0.2-3.4-0.2
					s-1.3,0.2-3.4,0.2s-0.4-0.2-2.5-0.2s-1.7,0-1.9,0.2c-1.3-0.1-2.4-0.2-3.8-0.4c-1.4-0.1-4,0-6.1,0s-4.6,0-6.2,0
					c-0.9,0-1.5,0.1-2.7,0.3c0,0,0.9,0-1.2,0c-2.1,0-2.9-0.2-4.1-0.4c-0.5-0.1-1.4,0-3.5,0c-7.1,0-4.9,0.4-8.4,0.4
					c-2.7,0-3.2-0.3-6.4-0.6h-2.3c-0.7,0.1-0.5,0-0.5,0.2s1.7,0.2,1.6,0.4h-6.1c-2.1,0-2.2-0.2-4.3-0.2c-2.1,0-3.1,0.1-4.4,0.2
					c-0.3-0.1,1.4-0.2,1.5-0.3c-0.7-0.1,0.4-0.1-1.7-0.1c-2.1,0-1.3,0.2-3.4,0.2c-2.1,0-1.3-0.2-3.4-0.2c-2.1,0-3.8,0.2-5.9,0.2
					c-2.1,0-2.9-0.2-5-0.2c-2.1,0,0.4,0.2-1.7,0.2s-0.4-0.2-2.5-0.2c-0.6,0-0.7,0-0.9,0.1c-0.1,0-0.2,0-0.2,0.1
					c-0.1,0.1-0.2,0.1-1,0.3c-1.7,0.4-3.1,1.3-3.6,1.6c-0.8,0.9-1.4,2-1.2,2.1c0.2,0.1,0.8-1.1,0.9-0.9c-0.6,0.9-0.9,1.4-1.1,1.9
					c-0.2,0.4-0.4,0.9-0.5,1.7c0,0.2,0,0.4,0,0.5c0,0.2,0,0.3,0,0.5c0,0.3,0,0.4,0,0.5c0,0.2,0.1,0.1,0.1,0.3
					c-0.2,2.1-0.4,3.5-0.4,5.6s0.2,2.9,0.2,4.6c0,0.8-0.2,1.1-0.4,3.1h0.5v6.4c-0.1,0.1-0.2,1.8-0.4,2.3c0.2,2.2,0.4,6.6,0.4,8.7
					S3.3,59,3.1,59.7c0,0.6,0.1,1,0.4,1.2c-0.2,3.8-0.4,10.3-0.4,12.4c0,2.8,0,2.7,0.4,2.6v4.4c0,2.1-0.4,5.1-0.4,7.2
					c0,2.1,0.2,1.3,0.2,3.4c0,2.1-0.2,3.8-0.2,5.9c0,2.1,0.2,2.9,0.2,5c0,2.1-0.2-0.4-0.2,1.7c0,2.1,0.2,1.3,0.2,3.4
					c0,2.1-0.2,2.9-0.2,5s0.2,1.3,0.2,3.4c0,2.1-0.2-0.4-0.2,1.7c0,2.1,0.2,1.3,0.2,3.4c0,2.1-0.2,4.2-0.4,4.8c0,0.6,0.1,1,0.4,1.2
					c0,1.1-0.2,0.3-0.2,2.4c0,2.1,0.2-0.4,0.2,1.7c0,2.1-0.2-0.4-0.2,1.7c0,2.1,0.1,0.9,0.1,1.3c0.1,1.6-0.2,6.6,0.2,8.1
					c0,0.5-0.1,0.9-0.1,1.1c0,0.2-0.1,0.3-0.2,0.5c0,1,0.1,2.3,1.1,3.8c0.6,0.9,1.9,1.6,2.5,1.6c0,0,0.8,0.5,1.7,0.7
					c0.4,0.1,0.9,0.2,1.3,0.2c0.3,0,0.6,0,0.6,0c1,0.2,1.4,0.4,3.5,0.4c2.1,0,0.4-0.2,2.5-0.2c2.1,0,2.9,0.2,5,0.2s2.8,0,3.6,0
					c0.8-0.1,0.7-0.2,1.1-0.3c0.9,0,3,0,6-0.2c0.2,0.1-0.7,0.2-1.5,0.2c0,0.1,1.7,0.1,2.3,0.3c1.4-0.1,3.2-0.2,5.3-0.2
					c2.1,0,2.9,0.2,5,0.2c2.1,0-0.4-0.2,1.7-0.2s0.7,0.1,1.4,0.2c1.6,0,2.4,0,4.5,0c2.1,0,4.3,0,5.6-0.1v-0.1c2.4,0,0.7,0.2,2.8,0.2
					s1.3-0.2,3.4-0.2s1.3,0.2,3.4,0.2s0.4-0.2,2.5-0.2s1.3,0.2,3.4,0.2s3.4-0.2,4.6-0.4c2,0.2,5.1,0.4,7.2,0.4s1.3-0.2,3.4-0.2
					s0.4,0.2,2.5,0.2s1.7,0,1.8-0.2c1.1,0,1.6,0.2,1.4,0.4h14.4c2.1,0-0.4-0.2,1.7-0.2c2.1,0,0.4,0.2,2.5,0.2c2.1,0,1.3-0.2,3.4-0.2
					c2.1,0,1.3,0.2,3.4,0.2c0.1,0,0.2,0,0.2,0c0,0,0,0,0.1,0c0,0,0,0,0.1,0c0,0,0-0.1,0-0.1c0.1,0.1,0.3,0.3,0.4,0.5
					c0.2,0,0.6,0.2,0.7,0.4c0.1,0,0.1-0.1,0.1-0.4h0.3c0.2,0,0.2,0.2,0.4,0.2c0,0.2,0.2,0.2,0.2,0.4s-0.2,0.1-0.2,0.4
					s0.2,0.4,0.4,0.5c-0.2,0.3-0.4,0.6-0.6,0.9c-0.1,0-0.2-0.2-0.4-0.2v0.6h-0.3c-0.2,0-0.1-0.1-0.2-0.2c-0.1,0-0.1,0.1-0.1,0.4
					c-0.1,0-0.1-0.1-0.2-0.1c-0.2,0-0.3,0-0.5,0l-0.3,0c-0.8,0-1.5,0-2.3,0c-3.3,0-6.1-0.1-7.2-0.1c-2.1,0-4.4,0-5.9,0.1
					C103.7,153.2,105.3,153.4,105.8,153.5z"/>
			</g>
		</g>
	</g>
	<g>
		<path fill="#3A494F" d="M115.9,144.2H16.1c-4.3,0-7.9-3.6-7.9-7.9V28c0-4.3,3.6-7.9,7.9-7.9h99.7c4.3,0,7.9,3.6,7.9,7.9v108.3
			C123.8,140.7,120.2,144.2,115.9,144.2z"/>
		<g>
			<g>
				<path fill-rule="evenodd" clip-rule="evenodd" fill="#3A494F" d="M101.8,146.7c-1-0.1-2.3-0.2-3.7-0.2c-0.4-0.1-0.3-0.3-0.9-0.4
					c-2.2,0-3.7-0.2-5.6-0.2c-1.9,0-0.4,0.2-2.3,0.2s-1.1-0.2-3-0.2c-1.9,0-4.2,0.4-6.1,0.4c-1.9,0-0.4-0.2-2.3-0.2
					c-1.9,0-1.1,0.2-3,0.2s-3.7-0.4-5-0.6c-2.8,0.2-9,0.4-10.9,0.4c-3.7,0-2.4-0.3-5.8-0.4c0,0,0.8,0-1,0c-1.9,0-1.1,0.2-3,0.2
					c-1.9,0-1.1-0.2-3-0.2c-0.9,0-2.6,0.3-3.3,0.6c-2.6-0.2-5.4-0.6-7.3-0.6c-1.9,0-6.4,0.4-8.3,0.4c-1.9,0-0.4-0.2-2.3-0.2
					c-1.9,0-1.9,0.2-3.8,0.2c-3.9,0-0.4-0.4-3-0.4c-0.9,0-1,0.1-1.1,0.1c0,0-0.1,0.1-0.2,0.1c-0.1,0-0.2,0-0.3,0c-0.1,0-0.3,0-0.6,0
					c-1.2,0-1.9-0.3-2.7-0.6c-0.7-0.3-1.4-0.7-2.4-1.3c-0.5-0.3-1.3-0.9-2-1.8c-0.8-0.9-1.5-2.2-1.9-3.6c-0.2-0.7-0.3-1.4-0.4-2.1
					c0-0.6-0.1-1.1-0.1-1.7c0-1-0.1-1.8-0.1-2.3c0-1.9,0.2-4.9,0.2-6.8s-0.1-4.8-0.2-6.3c0-0.8,0.3-1.2,0.4-1.1V106
					c-0.3,0.8-0.3,1.6-0.4,1.5c0-1,0.2-1,0.2-2.9s-0.2-1.9-0.2-3.8c0-1.9,0.4-4.9,0.4-6.8c0-1.9-0.2-1.9-0.2-3.8s0.2-1.1,0.2-3
					c0-1.9-0.2-3.1-0.4-4.1c0.1-1.1,0.4-0.1,0.4-2s-0.2,0.4-0.2-1.5c0-1.9,0.2,0.4,0.2-1.5c0-1.9-0.2,0.4-0.2-1.5
					c0-1.9,0.2-0.4,0.2-2.3s-0.2-2.6-0.2-4.5c0-1.9,0-3,0.2-3.6c0-0.6-0.2-0.9-0.4-1c0-1,0.2-1,0.2-2.9c0-1.9-0.2-1.9-0.2-3.8
					c0-1.9,0.2-4.2,0.2-6.1c0-1.9-0.2-4.2-0.2-6.1c0-1.9,0.1-2.1,0.2-2.8c0-3.7,0-7.5,0.1-11.2c0.1-0.4,0.2,0.7,0.2-1.2
					c0-0.5,0-1.1-0.1-1.9c0-0.4-0.1-0.8-0.1-1.3c0-0.5,0-1.1,0.1-1.7c0.2-1.2,0.6-2.3,1.2-3.4c0.6-1,1.3-1.9,2.1-2.6
					c0,0,0.7-0.5,1.4-0.9c0.4-0.2,0.8-0.4,1-0.5c0.3-0.1,0.5-0.2,0.5-0.2c0.2,0.1-1.8,0.8-3,2.2c0,0,0.1-0.1,0.2-0.2
					c0.1-0.1,0.4-0.3,0.6-0.5c0.5-0.4,1.3-0.8,2.1-1.1c0.8-0.3,1.6-0.5,2.3-0.6c0.6-0.1,1.1-0.1,1.1-0.1c1.9,0,0.9-0.2,2.7-0.2
					c1.9,0,2.6,0.2,4.5,0.2s1.1-0.2,3-0.2c1.9,0,0.4,0.2,2.3,0.2c1.9,0,2.7-0.2,4.5-0.2c1.9,0,6.4,0.2,8.3,0.2
					c1.4,0,4.6,0.1,5.6-0.2c1.1,0.1,2.7,0.2,3.3,0.4c2.1,0,2.5,0.2,2.5-0.1c0-0.3-1.5-0.2-1.3-0.3c1.9,0.2,3.9,0.4,5.8,0.4
					c0.5,0,4.1-0.2,4.7-0.6h2.8c0.1,0.3,1.6,0.4,2.2,0.6c0.6,0,0.9-0.2,1.2-0.4c1.9,0.2,3.2,0.4,5.1,0.4c1.9,0,4.9-0.4,6.8-0.4
					s1.1,0.2,3,0.2s1.5-0.1,1.7-0.2c1.2,0.1,0.1,0.4,2,0.4c1.9,0-0.4-0.2,1.5-0.2c1.9,0,1.9,0.2,3.8,0.2c3.3,0,4.1,0,4.7-0.6h2.8
					c0.1,0.2,1.2,0.6,2.4,0.6c1.9,0-0.4-0.2,1.5-0.2c1.9,0-0.4,0.2,1.5,0.2c1.9,0,2.8-0.3,4.1-0.4c1.1-0.1,2.3,0,4.2,0
					c0.5,0,1.3,0,2.3,0.1c1.2,0,2.7,0.3,4,1c1.3,0.6,2.4,1.6,3.2,2.5c0.8,0.9,1.2,1.8,1.5,2.3c0.8,1.8,0.9,3.2,1,4
					c0,0.8,0.1,1.2,0.1,1.6c0.1,0.7,0.2,1,0.2,2.5c0,3.2-0.4,1-0.4,7.6c0,1.9,0.2,4.2,0.2,6.1c0,1.9-0.2,5.1-0.4,7.3
					c0,0.6,0.2,1,0.4,1.1v2.5c0,1.9-0.2,1.6-0.2,3c-0.1,0.4-0.3,0.3-0.4,1v2.1c0,1.9,0.2,1.2,0.4,2.3c0,1.5,0.1,3.7,0.1,5.2
					c0.1,0.7,0.2-0.6,0.2,1.3c0,1.9-0.2,5.1-0.4,7.3c0,0.6,0.2,1,0.4,1.3c-0.1,1.2-0.2,3.2-0.2,5.1c0,1.9,0.1,4,0.2,5.6
					c0,0.8-0.3,1.2-0.4,1.1V96c0.1,0.6,0.3,0.5,0.4,0.6v4c0,1.9-0.2,0.9-0.2,2.7s0.1,2.3,0.2,2.4c-0.3,5.4-0.4,2.1-0.4,7.4
					c0,3.3,0.4,7.3,0.4,8.3c0,1.9-0.4,3.4-0.4,5.3s0.2,0.4,0.2,2.3c0,1.9-0.2-0.4-0.2,1.5c0,0.9,0.1,2.5,0.1,4.1
					c0,0.4,0,0.8,0.1,1.2c0,0.4,0,0.9,0,1.4c-0.1,0.9-0.3,1.8-0.5,2.5c-0.1,0.3-0.1,0.3-0.2,0.5c-0.1,0.2-0.2,0.5-0.9,1.5
					c-0.7,0.9-1.7,1.9-2.8,2.4c-0.6,0.3-1.1,0.5-1.6,0.7c-0.1,0-0.3,0.1-0.4,0.1l-0.2,0c-0.1,0,0,0-0.1,0c0,0-0.1,0-0.1,0l-0.3,0.1
					c-0.1,0.1,0,0.3,0,0.4c-0.5-0.3-0.9-0.5-1.5-0.4c0-0.1,0.2-0.2,0.2-0.4c-0.1-0.6-0.9-0.7-0.9-1.1c0-0.3,0-0.2,0.1-0.3
					c0.2-0.1,0.9-0.3,0.8-0.8c0-0.3-0.2-0.2-0.2-0.4c0.5-0.1,0.5-0.5,0.7-0.6c0.1,0,0.2,0,0.3,0c0,0,0,0,0.1,0l0.5-0.1
					c0.3-0.1,0.6-0.2,0.9-0.4c0.6-0.4,0.9-0.8,1.2-1.2c0.3-0.4,0.5-0.8,0.8-1.4c0.5-1.2,0.3-0.4,0.5-0.8c0.1-0.3,0.1-0.5,0.2-0.8
					c0-0.1,0-0.3,0-0.5c0-0.1,0-0.3,0-0.5c0-0.9,0.1-1.8,0.1-2.6c0.1-1.7,0.1-3.3,0.1-4.3c0-1.9,0.1-3.5,0-4.7
					c-0.1-1.2-0.4-2.5-0.4-4.4c0-1.9,0.1-0.6,0.2-1.3c0-1.4,0-3.6,0-5.5c0-1.9,0-5.5-0.2-8.9c0.2-0.2,0.2,0.7,0.3,1.4
					c0.1,0,0.2-1.5,0.4-2.1c0-0.6-0.2-0.6-0.2-2.5c0-1.9,0.1-1.4,0.2-2c-0.1-1.3-0.1-2.6-0.3-2.6s-0.2,1.5-0.3,1.4v-4.3
					c0.2-0.9,0.4-2.1,0.4-4s-0.2,0.4-0.2-1.5s0.2,0.4,0.2-1.5c0-1.9-0.2-1.1-0.2-3c0-1.9,0.2-1.9,0.2-3.8c0-1.9-0.1-5-0.2-7
					c-0.1-1.3-0.3-2.2-0.4-3.3c0.2-0.2,0.3,1.3,0.4,1.4c0-3.5,0.2-8.8,0.2-10.7c0-1.9,0-3.9-0.2-5.1h-0.1c0-2.1,0.1-0.9,0.2-1.5
					c0-0.6-0.2-1-0.4-1.1c0-1,0.2-0.3,0.2-2.2c0-1.9-0.1-0.8-0.2-0.9c0-1,0.3-1.4,0.4-1.3c0-3.5,0-8.1,0-11.9
					c0.1-0.3,0.2,0.8,0.2-1.1c0-0.9-0.1-2.7-0.2-4.5c-0.1-0.9-0.1-1.8-0.1-2.6c-0.1-0.6-0.1-1.1-0.2-1.4c-0.2-0.7-0.3-1.2-0.4-1.6
					c-0.1-0.5-0.4-1-0.9-1.5c-1.1-0.9,0.1,0.3-1.1-0.6c-1.2-0.8-2.6-1.2-3.1-1.4c-0.5,0-0.9,0.2-1,0.4h-2.8
					c-0.1-0.1-1.6-0.2-2.1-0.4c-0.5,0.1-2,0.2-2.7,0.6h-2.8c-0.1-0.1,1.4-0.3,1.4-0.3c-0.7-0.1,0.3-0.1-1.5-0.1
					c-1.9,0-3.4,0.4-5.3,0.4c-1.9,0-1.1-0.2-3-0.2s-1.1,0.2-3,0.2c-1.9,0-0.4-0.2-2.3-0.2c-1.9,0-1.5,0.1-1.7,0.2
					c-1.2-0.1-2.2-0.3-3.4-0.4c-1.2-0.1-3.6,0-5.5,0s-4.1,0-5.6,0c-0.9,0-1.3,0.2-2.5,0.4c0,0,0.8,0-1.1,0c-1.9,0-2.6-0.3-3.7-0.4
					c-0.5-0.1-1.2,0-3.1,0c-6.4,0-4.4,0.4-7.6,0.4c-2.5,0-2.9-0.4-5.8-0.6h-2.1c-0.6,0.1-0.5-0.1-0.5,0.2s1.5,0.3,1.4,0.4h-5.5
					c-1.9,0-2-0.2-3.9-0.2c-1.9,0-2.8,0.1-3.9,0.2c-0.2-0.2,1.3-0.3,1.3-0.3c-0.7-0.1,0.3-0.1-1.5-0.1c-1.9,0-1.1,0.2-3,0.2
					c-1.9,0-1.1-0.2-3-0.2c-1.9,0-3.4,0.2-5.3,0.2s-2.7-0.2-4.5-0.2c-1.9,0,0.4,0.2-1.5,0.2c-1.9,0-0.4-0.2-2.3-0.2
					c-0.5,0-0.7,0-0.8,0.1c-0.1,0-0.2,0.1-0.2,0.1c-0.1,0.1-0.1,0.1-0.8,0.2c-1.4,0.3-2.7,1-3.1,1.2c-0.7,0.8-1.2,1.7-0.9,1.8
					c0.2,0.1,0.7-0.9,0.8-0.7c-0.5,0.8-0.8,1.2-1,1.5c-0.2,0.4-0.3,0.7-0.4,1.4c0,0.7,0,1.2,0,1.3c0,0.2,0.1,0.1,0.2,0.3
					c-0.2,1.9-0.4,3.2-0.4,5.1c0,1.9,0.2,2.7,0.2,4.2c0,0.8-0.2,1-0.4,2.8h0.6v5.8c-0.1,0.1-0.2,1.6-0.4,2.1c0.2,2,0.4,6,0.4,7.9
					c0,1.9-0.2,3.7-0.4,4.4c0,0.6,0.2,0.9,0.4,1.1c-0.2,3.4-0.4,9.3-0.4,11.2c0,2.6,0,2.5,0.4,2.4v4c0,1.9-0.4,4.6-0.4,6.5
					c0,1.9,0.2,1.1,0.2,3s-0.2,3.4-0.2,5.3s0.2,2.6,0.2,4.5c0,1.9-0.2-0.4-0.2,1.5c0,1.9,0.2,1.1,0.2,3s-0.2,2.6-0.2,4.5
					c0,1.9,0.2,1.1,0.2,3s-0.2-0.4-0.2,1.5c0,1.9,0.2,1.1,0.2,3c0,1.9-0.2,3.7-0.4,4.4c0,0.6,0.2,0.9,0.4,1c0,1-0.2,0.3-0.2,2.2
					c0,1.9,0.2-0.4,0.2,1.5s-0.2-0.4-0.2,1.5s0.1,0.8,0.2,1.2c0.1,1.5-0.2,5.9,0.3,7.3c0,1-0.2,1.4-0.3,1.5c-0.1,0.9-0.1,2,0.7,3.3
					c0.5,0.8,1.6,1.4,2.2,1.3c0,0,0.2,0.1,0.4,0.3c0.3,0.1,0.6,0.3,1,0.4c0.7,0.3,1.5,0.3,1.5,0.3c0.3,0.1,0.7,0.2,1.1,0.3
					c0.5,0.1,1,0.1,2,0.1c1.9,0,0.4-0.2,2.3-0.2c1.9,0,2.7,0.2,4.5,0.2c1.9,0,2.6,0,3.2,0c0.7-0.1,0.6-0.3,1-0.4
					c0.8,0,2.7-0.1,5.4-0.3c0.2,0.2-0.7,0.2-1.4,0.3c0,0.1,1.5,0.2,2,0.4c1.2-0.1,2.9-0.2,4.8-0.2c1.9,0,2.6,0.2,4.5,0.2
					s-0.4-0.2,1.5-0.2c1.9,0,0.6,0.1,1.3,0.2c1.4,0,2.1,0,4,0c1.9,0,3.9,0,5.1-0.2v-0.1c2.1,0,0.6,0.2,2.5,0.2s1.1-0.2,3-0.2
					c1.9,0,1.1,0.2,3,0.2c1.9,0,0.4-0.2,2.3-0.2c1.9,0,1.1,0.2,3,0.2c1.9,0,3.1-0.2,4.1-0.4c1.8,0.2,4.6,0.4,6.5,0.4
					c1.9,0,1.1-0.2,3-0.2c1.9,0,0.4,0.2,2.3,0.2s1.5-0.1,1.6-0.2c1,0,1.4,0.3,1.3,0.4h13c1.9,0-0.4-0.2,1.5-0.2s0.4,0.2,2.3,0.2
					c1.9,0,1.1-0.2,3-0.2c1.9,0,1.1,0.2,3,0.2c0.1,0,0.2,0,0.2,0c0,0,0,0,0.1,0c0,0,0.1,0,0.1,0c0,0,0-0.1,0-0.2
					c0.2,0.1,0.4,0.4,0.5,0.6c0.3,0.1,0.7,0.2,0.8,0.4c0.1,0,0.1-0.2,0.1-0.4h0.4c0.3,0,0.2,0.2,0.4,0.3c0,0.2,0.3,0.2,0.3,0.5
					c0,0.3-0.2,0.2-0.2,0.4s0.2,0.4,0.4,0.6c-0.2,0.4-0.4,0.7-0.7,1c-0.1,0-0.2-0.2-0.4-0.2v0.6h-0.3c-0.3,0-0.1-0.1-0.2-0.2
					c-0.1,0-0.1,0.2-0.2,0.4c-0.1,0-0.2-0.1-0.3-0.2c-0.2,0-0.4,0-0.6-0.1l-0.3,0c-0.7,0-1.4,0-2.1,0c-3-0.1-5.5-0.1-6.5-0.1
					c-1.9,0-4,0-5.3,0.1C99.8,146.4,101.3,146.6,101.8,146.7z"/>
			</g>
		</g>
	</g>
	<g>
		<path fill="#FFB048" d="M115.9,126.2H16.1c-4.3,0-7.9-3.6-7.9-7.9V10c0-4.3,3.6-7.9,7.9-7.9h99.7c4.3,0,7.9,3.6,7.9,7.9v108.3
			C123.8,122.7,120.2,126.2,115.9,126.2z"/>
		<g>
			<g>
				<path fill-rule="evenodd" clip-rule="evenodd" fill="#3A494F" d="M101.8,128.7c-1-0.1-2.3-0.2-3.7-0.2c-0.4-0.1-0.3-0.3-0.9-0.4
					c-2.2,0-3.7-0.2-5.6-0.2c-1.9,0-0.4,0.2-2.3,0.2s-1.1-0.2-3-0.2c-1.9,0-4.2,0.4-6.1,0.4c-1.9,0-0.4-0.2-2.3-0.2
					c-1.9,0-1.1,0.2-3,0.2s-3.7-0.4-5-0.6c-2.8,0.2-9,0.4-10.9,0.4c-3.7,0-2.4-0.3-5.8-0.4c0,0,0.8,0-1,0c-1.9,0-1.1,0.2-3,0.2
					c-1.9,0-1.1-0.2-3-0.2c-0.9,0-2.6,0.3-3.3,0.6c-2.6-0.2-5.4-0.6-7.3-0.6c-1.9,0-6.4,0.4-8.3,0.4c-1.9,0-0.4-0.2-2.3-0.2
					c-1.9,0-1.9,0.2-3.8,0.2c-3.9,0-0.4-0.4-3-0.4c-0.9,0-1,0.1-1.1,0.1c0,0-0.1,0.1-0.2,0.1c-0.1,0-0.2,0-0.3,0c-0.1,0-0.3,0-0.6,0
					c-1.2,0-1.9-0.3-2.7-0.6c-0.7-0.3-1.4-0.7-2.4-1.3c-0.5-0.3-1.3-0.9-2-1.8c-0.8-0.9-1.5-2.2-1.9-3.6c-0.2-0.7-0.3-1.4-0.4-2.1
					c0-0.6-0.1-1.1-0.1-1.7c0-1-0.1-1.8-0.1-2.3c0-1.9,0.2-4.9,0.2-6.8s-0.1-4.8-0.2-6.3c0-0.8,0.3-1.2,0.4-1.1V88
					c-0.3,0.8-0.3,1.6-0.4,1.5c0-1,0.2-1,0.2-2.9s-0.2-1.9-0.2-3.8c0-1.9,0.4-4.9,0.4-6.8c0-1.9-0.2-1.9-0.2-3.8s0.2-1.1,0.2-3
					c0-1.9-0.2-3.1-0.4-4.1c0.1-1.1,0.4-0.1,0.4-2c0-1.9-0.2,0.4-0.2-1.5c0-1.9,0.2,0.4,0.2-1.5c0-1.9-0.2,0.4-0.2-1.5
					c0-1.9,0.2-0.4,0.2-2.3c0-1.9-0.2-2.7-0.2-4.5c0-1.9,0-3,0.2-3.6c0-0.6-0.2-0.9-0.4-1c0-1,0.2-1,0.2-2.9c0-1.9-0.2-1.9-0.2-3.8
					c0-1.9,0.2-4.2,0.2-6.1c0-1.9-0.2-4.2-0.2-6.1c0-1.9,0.1-2.1,0.2-2.8c0-3.7,0-7.5,0.1-11.2c0.1-0.4,0.2,0.7,0.2-1.2
					c0-0.5,0-1.1-0.1-1.9c0-0.4-0.1-0.8-0.1-1.3c0-0.5,0-1.1,0.1-1.7C6.8,7,7.2,5.8,7.8,4.8c0.6-1,1.3-1.9,2.1-2.6
					c0,0,0.7-0.5,1.4-0.9c0.4-0.2,0.8-0.4,1-0.5c0.3-0.1,0.5-0.2,0.5-0.2c0.2,0.1-1.8,0.8-3,2.2c0,0,0.1-0.1,0.2-0.2
					c0.1-0.1,0.4-0.3,0.6-0.5c0.5-0.4,1.3-0.8,2.1-1.1c0.8-0.3,1.6-0.5,2.3-0.6c0.6-0.1,1.1-0.1,1.1-0.1c1.9,0,0.9-0.2,2.7-0.2
					c1.9,0,2.6,0.2,4.5,0.2s1.1-0.2,3-0.2c1.9,0,0.4,0.2,2.3,0.2c1.9,0,2.7-0.2,4.5-0.2c1.9,0,6.4,0.2,8.3,0.2
					c1.4,0,4.6,0.1,5.6-0.2c1.1,0.1,2.7,0.2,3.3,0.4c2.1,0,2.5,0.2,2.5-0.1c0-0.3-1.5-0.2-1.3-0.3c1.9,0.2,3.9,0.4,5.8,0.4
					c0.5,0,4.1-0.2,4.7-0.6h2.8c0.1,0.3,1.6,0.4,2.2,0.6c0.6,0,0.9-0.2,1.2-0.4c1.9,0.2,3.2,0.4,5.1,0.4c1.9,0,4.9-0.4,6.8-0.4
					s1.1,0.2,3,0.2s1.5-0.1,1.7-0.2c1.2,0.1,0.1,0.4,2,0.4c1.9,0-0.4-0.2,1.5-0.2c1.9,0,1.9,0.2,3.8,0.2c3.3,0,4.1,0,4.7-0.6h2.8
					c0.1,0.2,1.2,0.6,2.4,0.6c1.9,0-0.4-0.2,1.5-0.2c1.9,0-0.4,0.2,1.5,0.2c1.9,0,2.8-0.3,4.1-0.4c1.1-0.1,2.3,0,4.2,0
					c0.5,0,1.3,0,2.3,0.1c1.2,0,2.7,0.3,4,1c1.3,0.6,2.4,1.6,3.2,2.5c0.8,0.9,1.2,1.8,1.5,2.3c0.8,1.8,0.9,3.2,1,4
					c0,0.8,0.1,1.2,0.1,1.6c0.1,0.7,0.2,1,0.2,2.5c0,3.2-0.4,1-0.4,7.6c0,1.9,0.2,4.2,0.2,6.1c0,1.9-0.2,5.1-0.4,7.3
					c0,0.6,0.2,1,0.4,1.1v2.5c0,1.9-0.2,1.6-0.2,3c-0.1,0.4-0.3,0.3-0.4,1v2.1c0,1.9,0.2,1.2,0.4,2.3c0,1.5,0.1,3.7,0.1,5.2
					c0.1,0.7,0.2-0.6,0.2,1.3c0,1.9-0.2,5.1-0.4,7.3c0,0.6,0.2,1,0.4,1.3c-0.1,1.2-0.2,3.2-0.2,5.1c0,1.9,0.1,4,0.2,5.6
					c0,0.8-0.3,1.2-0.4,1.1V78c0.1,0.6,0.3,0.5,0.4,0.6v4c0,1.9-0.2,0.9-0.2,2.7s0.1,2.3,0.2,2.4c-0.3,5.4-0.4,2.1-0.4,7.4
					c0,3.3,0.4,7.3,0.4,8.3c0,1.9-0.4,3.4-0.4,5.3s0.2,0.4,0.2,2.3c0,1.9-0.2-0.4-0.2,1.5c0,0.9,0.1,2.5,0.1,4.1
					c0,0.4,0,0.8,0.1,1.2c0,0.4,0,0.9,0,1.4c-0.1,0.9-0.3,1.8-0.5,2.5c-0.1,0.3-0.1,0.3-0.2,0.5c-0.1,0.2-0.2,0.5-0.9,1.5
					c-0.7,0.9-1.7,1.9-2.8,2.4c-0.6,0.3-1.1,0.5-1.6,0.7c-0.1,0-0.3,0.1-0.4,0.1l-0.2,0c-0.1,0,0,0-0.1,0c0,0-0.1,0-0.1,0l-0.3,0.1
					c-0.1,0.1,0,0.3,0,0.4c-0.5-0.3-0.9-0.5-1.5-0.4c0-0.1,0.2-0.2,0.2-0.4c-0.1-0.6-0.9-0.7-0.9-1.1c0-0.3,0-0.2,0.1-0.3
					c0.2-0.1,0.9-0.3,0.8-0.8c0-0.3-0.2-0.2-0.2-0.4c0.5-0.1,0.5-0.5,0.7-0.6c0.1,0,0.2,0,0.3,0c0,0,0,0,0.1,0l0.5-0.1
					c0.3-0.1,0.6-0.2,0.9-0.4c0.6-0.4,0.9-0.8,1.2-1.2c0.3-0.4,0.5-0.8,0.8-1.4c0.5-1.2,0.3-0.4,0.5-0.8c0.1-0.3,0.1-0.5,0.2-0.8
					c0-0.1,0-0.3,0-0.5c0-0.1,0-0.3,0-0.5c0-0.9,0.1-1.8,0.1-2.6c0.1-1.7,0.1-3.3,0.1-4.3c0-1.9,0.1-3.5,0-4.7
					c-0.1-1.2-0.4-2.5-0.4-4.4c0-1.9,0.1-0.6,0.2-1.3c0-1.4,0-3.6,0-5.5c0-1.9,0-5.5-0.2-8.9c0.2-0.2,0.2,0.7,0.3,1.4
					c0.1,0,0.2-1.5,0.4-2.1c0-0.6-0.2-0.6-0.2-2.5c0-1.9,0.1-1.4,0.2-2c-0.1-1.3-0.1-2.6-0.3-2.6s-0.2,1.5-0.3,1.4v-4.3
					c0.2-0.9,0.4-2.1,0.4-4s-0.2,0.4-0.2-1.5s0.2,0.4,0.2-1.5c0-1.9-0.2-1.1-0.2-3c0-1.9,0.2-1.9,0.2-3.8c0-1.9-0.1-5-0.2-7
					c-0.1-1.3-0.3-2.2-0.4-3.3c0.2-0.2,0.3,1.3,0.4,1.4c0-3.5,0.2-8.8,0.2-10.7c0-1.9,0-3.9-0.2-5.1h-0.1c0-2.1,0.1-0.9,0.2-1.5
					c0-0.6-0.2-1-0.4-1.1c0-1,0.2-0.3,0.2-2.2c0-1.9-0.1-0.8-0.2-0.9c0-1,0.3-1.4,0.4-1.3c0-3.5,0-8.1,0-11.9
					c0.1-0.3,0.2,0.8,0.2-1.1c0-0.9-0.1-2.7-0.2-4.5c-0.1-0.9-0.1-1.8-0.1-2.6c-0.1-0.6-0.1-1.1-0.2-1.4C121.3,8,121.2,7.5,121,7
					c-0.1-0.5-0.4-1-0.9-1.5C119,4.6,120.2,5.8,119,5c-1.2-0.8-2.6-1.2-3.1-1.4c-0.5,0-0.9,0.2-1,0.4h-2.8c-0.1-0.1-1.6-0.2-2.1-0.4
					c-0.5,0.1-2,0.2-2.7,0.6h-2.8c-0.1-0.1,1.4-0.3,1.4-0.3c-0.7-0.1,0.3-0.1-1.5-0.1c-1.9,0-3.4,0.4-5.3,0.4c-1.9,0-1.1-0.2-3-0.2
					s-1.1,0.2-3,0.2c-1.9,0-0.4-0.2-2.3-0.2c-1.9,0-1.5,0.1-1.7,0.2c-1.2-0.1-2.2-0.3-3.4-0.4c-1.2-0.1-3.6,0-5.5,0s-4.1,0-5.6,0
					c-0.9,0-1.3,0.2-2.5,0.4c0,0,0.8,0-1.1,0c-1.9,0-2.6-0.3-3.7-0.4c-0.5-0.1-1.2,0-3.1,0c-6.4,0-4.4,0.4-7.6,0.4
					c-2.5,0-2.9-0.4-5.8-0.6h-2.1c-0.6,0.1-0.5-0.1-0.5,0.2s1.5,0.3,1.4,0.4h-5.5c-1.9,0-2-0.2-3.9-0.2c-1.9,0-2.8,0.1-3.9,0.2
					c-0.2-0.2,1.3-0.3,1.3-0.3c-0.7-0.1,0.3-0.1-1.5-0.1c-1.9,0-1.1,0.2-3,0.2c-1.9,0-1.1-0.2-3-0.2c-1.9,0-3.4,0.2-5.3,0.2
					s-2.7-0.2-4.5-0.2c-1.9,0,0.4,0.2-1.5,0.2c-1.9,0-0.4-0.2-2.3-0.2c-0.5,0-0.7,0-0.8,0.1c-0.1,0-0.2,0.1-0.2,0.1
					c-0.1,0.1-0.1,0.1-0.8,0.2c-1.4,0.3-2.7,1-3.1,1.2c-0.7,0.8-1.2,1.7-0.9,1.8c0.2,0.1,0.7-0.9,0.8-0.7c-0.5,0.8-0.8,1.2-1,1.5
					c-0.2,0.4-0.3,0.7-0.4,1.4c0,0.7,0,1.2,0,1.3c0,0.2,0.1,0.1,0.2,0.3c-0.2,1.9-0.4,3.2-0.4,5.1c0,1.9,0.2,2.7,0.2,4.2
					c0,0.8-0.2,1-0.4,2.8h0.6v5.8c-0.1,0.1-0.2,1.6-0.4,2.1c0.2,2,0.4,6,0.4,7.9c0,1.9-0.2,3.7-0.4,4.4c0,0.6,0.2,0.9,0.4,1.1
					c-0.2,3.4-0.4,9.3-0.4,11.2c0,2.6,0,2.5,0.4,2.4v4c0,1.9-0.4,4.6-0.4,6.5c0,1.9,0.2,1.1,0.2,3s-0.2,3.4-0.2,5.3s0.2,2.6,0.2,4.5
					c0,1.9-0.2-0.4-0.2,1.5c0,1.9,0.2,1.1,0.2,3s-0.2,2.6-0.2,4.5c0,1.9,0.2,1.1,0.2,3S9.9,93,9.9,94.9c0,1.9,0.2,1.1,0.2,3
					c0,1.9-0.2,3.7-0.4,4.4c0,0.6,0.2,0.9,0.4,1c0,1-0.2,0.3-0.2,2.2c0,1.9,0.2-0.4,0.2,1.5s-0.2-0.4-0.2,1.5s0.1,0.8,0.2,1.2
					c0.1,1.5-0.2,5.9,0.3,7.3c0,1-0.2,1.4-0.3,1.5c-0.1,0.9-0.1,2,0.7,3.3c0.5,0.8,1.6,1.4,2.2,1.3c0,0,0.2,0.1,0.4,0.3
					c0.3,0.1,0.6,0.3,1,0.4c0.7,0.3,1.5,0.3,1.5,0.3c0.3,0.1,0.7,0.2,1.1,0.3c0.5,0.1,1,0.1,2,0.1c1.9,0,0.4-0.2,2.3-0.2
					c1.9,0,2.7,0.2,4.5,0.2c1.9,0,2.6,0,3.2,0c0.7-0.1,0.6-0.3,1-0.4c0.8,0,2.7-0.1,5.4-0.3c0.2,0.2-0.7,0.2-1.4,0.3
					c0,0.1,1.5,0.2,2,0.4c1.2-0.1,2.9-0.2,4.8-0.2c1.9,0,2.6,0.2,4.5,0.2s-0.4-0.2,1.5-0.2c1.9,0,0.6,0.1,1.3,0.2c1.4,0,2.1,0,4,0
					c1.9,0,3.9,0,5.1-0.2v-0.1c2.1,0,0.6,0.2,2.5,0.2s1.1-0.2,3-0.2c1.9,0,1.1,0.2,3,0.2c1.9,0,0.4-0.2,2.3-0.2c1.9,0,1.1,0.2,3,0.2
					c1.9,0,3.1-0.2,4.1-0.4c1.8,0.2,4.6,0.4,6.5,0.4c1.9,0,1.1-0.2,3-0.2c1.9,0,0.4,0.2,2.3,0.2s1.5-0.1,1.6-0.2
					c1,0,1.4,0.3,1.3,0.4h13c1.9,0-0.4-0.2,1.5-0.2s0.4,0.2,2.3,0.2c1.9,0,1.1-0.2,3-0.2c1.9,0,1.1,0.2,3,0.2c0.1,0,0.2,0,0.2,0
					c0,0,0,0,0.1,0c0,0,0.1,0,0.1,0c0,0,0-0.1,0-0.2c0.2,0.1,0.4,0.4,0.5,0.6c0.3,0.1,0.7,0.2,0.8,0.4c0.1,0,0.1-0.2,0.1-0.4h0.4
					c0.3,0,0.2,0.2,0.4,0.3c0,0.2,0.3,0.2,0.3,0.5c0,0.3-0.2,0.2-0.2,0.4s0.2,0.4,0.4,0.6c-0.2,0.4-0.4,0.7-0.7,1
					c-0.1,0-0.2-0.2-0.4-0.2v0.6h-0.3c-0.3,0-0.1-0.1-0.2-0.2c-0.1,0-0.1,0.2-0.2,0.4c-0.1,0-0.2-0.1-0.3-0.2c-0.2,0-0.4,0-0.6-0.1
					l-0.3,0c-0.7,0-1.4,0-2.1,0c-3-0.1-5.5-0.1-6.5-0.1c-1.9,0-4,0-5.3,0.1C99.8,128.4,101.3,128.6,101.8,128.7z"/>
			</g>
		</g>
	</g>
	<g>
		<g>
			<g>
				<path fill-rule="evenodd" clip-rule="evenodd" fill="#3A494F" d="M96.2,117.3c-0.9,0-2-0.1-3.1-0.1c-0.3,0-0.2-0.1-0.8-0.2
					c-1.8,0-3.1-0.1-4.7-0.1s-0.3,0.1-1.9,0.1s-1-0.1-2.5-0.1s-3.5,0.2-5.1,0.2s-0.3-0.1-1.9-0.1s-1,0.1-2.5,0.1s-3.1-0.2-4.2-0.3
					c-2.3,0.1-7.6,0.2-9.2,0.2c-3.1,0-2-0.1-4.8-0.2c0,0,0.7,0-0.9,0s-1,0.1-2.5,0.1s-1-0.1-2.5-0.1c-0.7,0-2.2,0.1-2.7,0.3
					c-2.2-0.1-4.6-0.3-6.2-0.3c-1.6,0-5.4,0.2-7,0.2s-0.3-0.1-1.9-0.1s-1.6,0.1-3.2,0.1c-3.3,0-0.3-0.2-2.5-0.2
					c-1.6,0-0.3,0.1-1.9,0.1c-0.9,0-1.5-0.2-2.1-0.3c-0.6-0.2-1.2-0.4-1.9-0.9c-0.4-0.2-1-0.7-1.6-1.4c-0.6-0.7-1.2-1.7-1.5-2.7
					c-0.4-1.1-0.3-2.2-0.4-3c0-0.9,0-1.5,0-1.9c0-1.6,0.1-4.2,0.1-5.7c0-1.6,0-4-0.1-5.3c0-0.7,0.1-1,0.2-0.9V84.3
					c-0.1,0.7-0.1,1.3-0.2,1.2c0-0.9,0.1-0.9,0.1-2.4s-0.1-1.6-0.1-3.2c0-1.6,0.2-4.1,0.2-5.7s-0.1-1.6-0.1-3.2c0-1.6,0.1-1,0.1-2.5
					c0-1.6-0.1-2.6-0.2-3.4c0.1-0.9,0.2-0.1,0.2-1.6s-0.1,0.3-0.1-1.3s0.1,0.3,0.1-1.3s-0.1,0.3-0.1-1.3s0.1-0.3,0.1-1.9
					c0-1.6-0.1-2.2-0.1-3.8c0-1.6,0-2.5,0.1-3c0-0.5-0.1-0.8-0.2-0.9c0-0.9,0.1-0.9,0.1-2.4c0-1.6-0.1-1.6-0.1-3.2
					c0-1.5,0.1-3.5,0.1-5.1c0-1.5-0.1-3.5-0.1-5.1c0-1.6,0.1-1.8,0.1-2.3c0-3.1,0-6.3,0-9.4c0-0.3,0.1,0.6,0.1-1c0-0.4,0-0.9,0-1.6
					c0-0.3,0-0.7,0-1.1c0-0.4,0-0.9,0.1-1.3c0.2-1.8,1.3-3.6,2.5-4.6c0,0,0.1-0.1,0.3-0.2c0.2-0.2,0.5-0.3,0.7-0.5
					c0.3-0.2,0.6-0.3,0.8-0.4c0.2-0.1,0.4-0.1,0.4-0.1c0.1,0-1.4,0.6-2.3,1.6c0,0,0.2-0.2,0.6-0.5c0.4-0.3,1-0.6,1.6-0.9
					c1.2-0.5,2.6-0.5,2.6-0.5c1.6,0,0.7-0.1,2.3-0.1c1.6,0,2.2,0.1,3.8,0.1s1-0.1,2.5-0.1s0.3,0.1,1.9,0.1s2.2-0.1,3.8-0.1
					c1.6,0,5.4,0.1,7,0.1c1.2,0,3.8,0,4.7-0.1c0.9,0.1,2.3,0.1,2.8,0.2c1.7,0,2.1,0.1,2.1-0.1s-1.3-0.1-1.1-0.1
					c1.6,0.1,3.3,0.2,4.9,0.2c0.4,0,3.4-0.1,3.9-0.3h2.3c0.1,0.1,1.3,0.2,1.8,0.3c0.5,0,0.8-0.1,1-0.2c1.6,0.1,2.7,0.2,4.3,0.2
					s4.1-0.2,5.7-0.2c1.6,0,1,0.1,2.5,0.1c1.6,0,1.3,0,1.5-0.1c1,0.1,0.1,0.2,1.7,0.2s-0.3-0.1,1.3-0.1s1.6,0.1,3.2,0.1
					c2.8,0,3.4,0,3.9-0.3h2.4c0.1,0.1,1,0.3,2,0.3c1.6,0-0.3-0.1,1.3-0.1s-0.3,0.1,1.3,0.1s2.4-0.1,3.5-0.2c1-0.1,1.9,0,3.5,0
					c0.2,0,0.5,0,0.8,0c0.3,0,0.7,0,1.2,0.1c1,0.1,2,0.5,3,1.1c1,0.6,1.7,1.4,2.3,2.2c0.5,0.8,0.8,1.5,0.9,1.9
					c0.5,1.5,0.4,2.5,0.4,3.1c0,0.7,0,1,0.1,1.3c0.1,0.6,0.1,0.8,0.1,2.1c0,2.7-0.2,0.9-0.2,6.4c0,1.5,0.1,3.5,0.1,5.1
					c0,1.6-0.1,4.3-0.2,6.1c0,0.5,0.1,0.9,0.2,1v2.1c0,1.6-0.1,1.3-0.1,2.5c0,0.3-0.1,0.3-0.2,0.8v1.8c0,1.6,0.1,1,0.2,1.9
					c0,1.2,0,3.1,0,4.3c0,0.6,0.1-0.5,0.1,1.1c0,1.6-0.1,4.3-0.2,6.1c0,0.5,0.1,0.9,0.2,1.1c-0.1,1-0.1,2.7-0.1,4.3
					c0,1.6,0,3.4,0.1,4.7c0,0.7-0.1,1-0.2,0.9v3.5c0,0.5,0.1,0.4,0.2,0.5v3.3c0,1.6-0.1,0.7-0.1,2.3c0,1.6,0,1.9,0.1,2
					c-0.1,4.5-0.2,1.8-0.2,6.2c0,2.8,0.2,6.1,0.2,7c0,1.6-0.2,2.9-0.2,4.4s0.1,0.3,0.1,1.9c0,1.6-0.1-0.3-0.1,1.3
					c0,0.8,0,2.1,0.1,3.5c0,0.7,0,1.5-0.2,2.2c-0.1,0.7-0.4,1.4-0.7,1.9c-0.1,0.2-0.1,0.2-0.2,0.4c-0.1,0.1-0.2,0.4-0.8,1
					c-0.6,0.7-1.5,1.3-2.4,1.6c-0.5,0.2-0.9,0.3-1.3,0.4c-0.1,0-0.2,0-0.3,0.1c-0.1,0-0.2,0-0.2,0l0,0l-0.1,0c0,0.1,0,0.1,0,0.2
					c-0.2-0.2-0.4-0.3-0.7-0.2c0-0.1,0.1-0.1,0.1-0.2c0-0.3-0.4-0.3-0.4-0.5c0-0.1,0-0.1,0-0.1c0.1,0,0.4-0.1,0.4-0.3
					c0-0.1-0.1-0.1-0.1-0.2c0.3,0,0.3-0.2,0.4-0.2c0.1,0,0.1,0,0.2,0c0,0,0,0,0.1,0c0.2,0,0.3-0.1,0.5-0.1c0.3-0.1,0.6-0.2,0.9-0.3
					c0.6-0.3,1-0.6,1.3-0.9c0.3-0.3,0.6-0.7,1-1.2c0.6-1.2,0.3-0.3,0.5-0.7c0.2-0.5,0.4-1.1,0.4-1.7l0-0.5l0-0.5c0-0.4,0-0.7,0-1.1
					c0-1.5,0-2.8,0.1-3.6c0-1.6,0-2.9,0-3.9c-0.1-1-0.2-2.1-0.2-3.7c0-1.6,0.1-0.5,0.1-1.1c0-1.2,0-3.1,0-4.6c0-1.6,0-4.6-0.1-7.5
					c0.1-0.2,0.1,0.6,0.1,1.1c0,0,0.1-1.3,0.2-1.8c0-0.5-0.1-0.5-0.1-2.1s0.1-1.2,0.1-1.6c0-1.1,0-2.2-0.2-2.2s-0.1,1.3-0.1,1.2
					v-3.6c0.1-0.7,0.2-1.7,0.2-3.3c0-1.6-0.1,0.3-0.1-1.3c0-1.6,0.1,0.3,0.1-1.3c0-1.6-0.1-1-0.1-2.5c0-1.6,0.1-1.6,0.1-3.2
					s0-4.2-0.1-5.9c0-1.1-0.1-1.8-0.2-2.8c0.1-0.2,0.1,1.1,0.2,1.2c0-3,0.1-7.4,0.1-9c0-1.6,0-3.2-0.1-4.2h0c0-1.8,0.1-0.8,0.1-1.3
					c0-0.5-0.1-0.8-0.2-0.9c0-0.9,0.1-0.2,0.1-1.8c0-1.6,0-0.6-0.1-0.7c0-0.9,0.1-1.2,0.2-1.1c0-3,0-6.8,0-10c0-0.3,0.1,0.7,0.1-0.9
					c0-0.8,0-2.3-0.1-3.8c0-0.8,0-1.5-0.1-2.2c0-0.3,0-0.7,0-0.9c0-0.2,0-0.4-0.1-0.6c-0.1-0.7-0.2-1.1-0.3-1.6
					c-0.2-0.5-0.4-0.9-0.8-1.5c-1-1,0.2,0.2-0.9-0.7c-1.1-0.9-2.4-1.3-2.9-1.4c-0.4,0-0.7,0-0.8,0.2h-2.4c-0.1-0.1-1.3-0.1-1.8-0.2
					c-0.4,0-1.7,0.1-2.2,0.3h-2.3C98,13.1,99.3,13,99.3,13c-0.6,0,0.3,0-1.3,0c-1.6,0-2.9,0.2-4.4,0.2s-1-0.1-2.5-0.1
					s-1,0.1-2.5,0.1S88.2,13,86.6,13s-1.3,0-1.5,0.1c-0.9-0.1-1.9-0.1-2.8-0.2c-1-0.1-3,0-4.6,0c-1.6,0-3.5,0-4.7,0
					c-0.7,0-1.1,0.1-2.1,0.2c0,0,0.7,0-0.9,0S67.9,13,67,12.9c-0.4,0-1,0-2.6,0c-5.4,0-3.7,0.2-6.4,0.2c-2.1,0-2.4-0.2-4.9-0.3h-1.7
					c-0.5,0-0.4,0-0.4,0.1s1.3,0.1,1.2,0.2h-4.6C46,13.1,46,13,44.4,13s-2.3,0-3.3,0.1c-0.2-0.1,1.1-0.1,1.1-0.2c-0.6,0,0.3,0-1.3,0
					s-1,0.1-2.5,0.1s-1-0.1-2.5-0.1S32.9,13,31.3,13c-1.6,0-2.2-0.1-3.8-0.1s0.3,0.1-1.3,0.1c-1.6,0-0.3-0.1-1.9-0.1
					c-0.8,0-0.8,0.1-0.9,0.1c-0.1,0-0.1,0-0.8,0.2c-1.4,0.3-2.5,1.2-2.8,1.4c-0.6,0.7-1.1,1.6-1,1.6c0.1,0,0.6-0.9,0.6-0.8
					c-0.5,0.7-0.7,1.2-0.9,1.5c-0.1,0.4-0.3,0.7-0.3,1.4c0,0.3,0,0.6,0,0.8c0,0.2,0,0.3,0,0.4c0,0.1,0,0.1,0.1,0.2
					c-0.1,1.6-0.2,2.7-0.2,4.3c0,1.6,0.1,2.2,0.1,3.5c0,0.6-0.1,0.8-0.2,2.4h0.3v4.9c-0.1,0.1-0.1,1.3-0.2,1.8
					c0.1,1.6,0.2,5,0.2,6.6c0,1.6-0.1,3.1-0.2,3.7c0,0.5,0.1,0.8,0.2,0.9c-0.1,2.9-0.2,7.8-0.2,9.4c0,2.1,0,2.1,0.2,2v3.3
					c0,1.6-0.2,3.9-0.2,5.5s0.1,1,0.1,2.5s-0.1,2.9-0.1,4.4c0,1.6,0.1,2.2,0.1,3.8c0,1.6-0.1-0.3-0.1,1.3c0,1.6,0.1,1,0.1,2.5
					c0,1.6-0.1,2.2-0.1,3.8c0,1.6,0.1,1,0.1,2.5c0,1.6-0.1-0.3-0.1,1.3c0,1.6,0.1,1,0.1,2.5c0,1.6-0.1,3.1-0.2,3.7
					c0,0.5,0.1,0.8,0.2,0.9c0,0.9-0.1,0.2-0.1,1.8c0,1.6,0.1-0.3,0.1,1.3c0,1.6-0.1-0.3-0.1,1.3s0,0.7,0.1,1c0,1.2-0.1,5,0.1,6.1
					c0,0.4,0,0.7-0.1,0.9c0,0.2-0.1,0.3-0.1,0.4c0,0.8,0.1,1.9,0.9,3c0.5,0.7,1.4,1.3,1.9,1.4c0,0,0.6,0.4,1.4,0.6
					c0.7,0.2,1.5,0.2,1.5,0.2c0.7,0.1,1.1,0.2,2.7,0.2c1.6,0,0.3-0.1,1.9-0.1s2.2,0.1,3.8,0.1c1.6,0,2.1,0,2.7,0
					c0.6,0,0.5-0.1,0.8-0.2c0.7,0,2.3,0,4.6-0.1c0.2,0.1-0.6,0.1-1.1,0.1c0,0,1.3,0.1,1.7,0.2c1,0,2.4-0.1,4-0.1s2.2,0.1,3.8,0.1
					s-0.3-0.1,1.3-0.1s0.5,0.1,1.1,0.1c1.2,0,1.8,0,3.4,0c1.6,0,3.2,0,4.2-0.1v0c1.8,0,0.5,0.1,2.1,0.1s1-0.1,2.5-0.1s1,0.1,2.5,0.1
					s0.3-0.1,1.9-0.1s1,0.1,2.5,0.1s2.6-0.1,3.4-0.2c1.5,0.1,3.9,0.2,5.5,0.2c1.6,0,1-0.1,2.5-0.1c1.6,0,0.3,0.1,1.9,0.1
					s1.3,0,1.4-0.1c0.9,0,1.2,0.1,1.1,0.2h10.9c1.6,0-0.3-0.1,1.3-0.1s0.3,0.1,1.9,0.1s1-0.1,2.5-0.1s1,0.1,2.5,0.1
					c0.1,0,0.1,0,0.2,0c0,0,0,0,0,0c0,0,0,0,0,0c0,0,0,0,0-0.1c0.1,0.1,0.2,0.2,0.2,0.3c0.1,0,0.3,0.1,0.4,0.2c0,0,0.1-0.1,0.1-0.2
					h0.2c0.1,0,0.1,0.1,0.2,0.1c0,0.1,0.1,0.1,0.1,0.2s-0.1,0.1-0.1,0.2s0.1,0.2,0.2,0.3c-0.1,0.2-0.2,0.3-0.3,0.5
					c-0.1,0-0.1-0.1-0.2-0.1v0.3h-0.1c-0.1,0,0-0.1-0.1-0.1c0,0-0.1,0.1-0.1,0.2c-0.1,0-0.1,0-0.1-0.1c-0.1,0-0.2,0-0.3,0l-0.2,0
					c-0.6,0-1.2,0-1.7,0c-2.5,0-4.6,0-5.4-0.1c-1.6,0-3.4,0-4.5,0C94.6,117.1,95.8,117.2,96.2,117.3z"/>
			</g>
		</g>
	</g>
</g>
<g>
</g>
<g>
</g>
<g>
</g>
<g>
</g>
<g>
</g>
<g>
</g>
<g>
</g>
<g>
</g>
<g>
</g>
<g>
</g>
<g>
</g>
<g>
</g>
<g>
</g>
<g>
</g>
<g>
</g>
</svg>
