<svg xmlns="http://www.w3.org/2000/svg" xmlns:xlink="http://www.w3.org/1999/xlink" viewBox="0 0 28 28"><defs><style>.cls-1{fill:none;}.cls-2{isolation:isolate;}.cls-3{clip-path:url(#clip-path);}.cls-4{fill:#afafb0;}.cls-5{fill:#fff;}.cls-6{fill:#27c1ae;}.cls-7{opacity:0.1;mix-blend-mode:multiply;}.cls-8{clip-path:url(#clip-path-2);}.cls-9{fill:#3a494f;fill-rule:evenodd;}.cls-10{opacity:0.52;}</style><clipPath id="clip-path"><rect class="cls-1" x="124.57" y="-629.06" width="667" height="768"/></clipPath><clipPath id="clip-path-2"><rect class="cls-1" x="124.19" y="-620.5" width="283.49" height="797.96"/></clipPath></defs><title>energy-handle</title><g class="cls-2"><g id="圖稿"><g class="cls-3"><path class="cls-4" d="M-109.3-83.52H186.19s63,6,46.49,66c0,0,46.5-7.5,46.5,43.5,0,0-6,42,63,42h45s69-1.5,69,69h-552Z"/></g><path class="cls-5" d="M27.32,13.94a12.87,12.87,0,0,1-3.91,9.43A12.87,12.87,0,0,1,14,27.28a12.83,12.83,0,0,1-9.44-3.91A12.83,12.83,0,0,1,.62,13.94,12.83,12.83,0,0,1,4.53,4.5,12.83,12.83,0,0,1,14,.59,12.87,12.87,0,0,1,23.41,4.5,12.87,12.87,0,0,1,27.32,13.94Z"/><path class="cls-6" d="M20.05,1.76a14,14,0,0,0-1.71-.71.78.78,0,0,0-.88.27L7.31,14.4a.6.6,0,0,0,.47,1h8.81a.17.17,0,0,1,.13.28l-2.53,3.26L9.72,24.67a.32.32,0,0,1-.38.09A11.73,11.73,0,0,1,12.75,2.33a.94.94,0,0,0,.83-1,1,1,0,0,0-1-.92,13.65,13.65,0,0,0-4.19,26,15,15,0,0,0,1.77.66.82.82,0,0,0,.86-.26l1-1.26,2.37-3.06,6.79-8.75a.39.39,0,0,0-.3-.64H11.57a.18.18,0,0,1-.14-.29L18.68,3.5a.32.32,0,0,1,.4-.09,11.74,11.74,0,0,1-3.79,22.26,1,1,0,0,0,.21,1.89,13.66,13.66,0,0,0,4.55-25.8Z"/></g><g id="雙台灣"><g class="cls-7"><g class="cls-8"><path class="cls-5" d="M295.12-372.13a48.14,48.14,0,0,1-34.4-23.11,68.7,68.7,0,0,0-17.16-19.41h0a14.78,14.78,0,0,0-16.92-.73h0a18,18,0,0,0-6.89,8.12l-1.29,3a14.77,14.77,0,0,1-13.59,9H188.21a58.08,58.08,0,0,0-50.16,28.81h0a30.42,30.42,0,0,1-26.28,15.1h0a14.78,14.78,0,0,0-11.35,5.31L13.94-242.51a194.56,194.56,0,0,0-31.59,53.22l-4.75,12.06a137.58,137.58,0,0,0-3.21,91.9l3.52,11.13A150.39,150.39,0,0,0,15-13.16h0A88.35,88.35,0,0,1,40.83,47.77l.34,19.3A14.78,14.78,0,0,0,56,81.6h0A14.78,14.78,0,0,0,70.68,68.13l.93-10.39a102.89,102.89,0,0,1,39.11-71.92h0a208.8,208.8,0,0,0,52.21-60.08l48-83.2,46.51-87.65a151.94,151.94,0,0,0,17.69-68l.32-15.3a14.74,14.74,0,0,1,4.33-10.14l.22-.22a49.84,49.84,0,0,0,14.2-29.94C294.48-371,294.78-372.48,295.12-372.13Z"/><path class="cls-9" d="M264.78-385.93a17.67,17.67,0,0,1-1.48-1.82l-1.57-2.06c-.56-.71-1-1.53-1.54-2.32s-1.07-1.65-1.55-2.44a12.8,12.8,0,0,0-1.07-2.3c-1.6-2.45-3-4.44-4.48-6.28a55,55,0,0,0-4.75-5.3,13.25,13.25,0,0,0-2.29-2,25.31,25.31,0,0,1-2.37-1.88l-1.24-1-.8-.58c-.46-.29-.73-.51-1-.67a8.13,8.13,0,0,0-1.1-.58,11.09,11.09,0,0,0-2.34-.73,12.38,12.38,0,0,0-7.21.8,16.28,16.28,0,0,0-5.81,4.41,21.58,21.58,0,0,0-1.32,1.72c-.23.3-.3.39-.38.48a2.25,2.25,0,0,0-.36.5,6.12,6.12,0,0,0-.39.7c-.16.31-.34.71-.6,1.33L220-403.36c-.28.63-.44,1-.65,1.43a10.23,10.23,0,0,1-.78,1.36,14.44,14.44,0,0,1-2,2.4,15.18,15.18,0,0,1-7.24,4,15.25,15.25,0,0,1-3.65.41h-.85l-.74-.05-1.4-.07c-3.81.11-10,.14-15.84.31l-2.11.09c-.7,0-1.38.14-2.05.21l-2,.21-1.82.33-1.67.29c-.53.11-1,.24-1.48.35l-2.32.56-3,.89c-.82.24-1.47.52-2,.71-1.12.4-1.85.61-2.53.9l-2.38.95c-.51.2-1.07.52-1.78.86s-1.57.75-2.53,1.36c0,0,1.91-1.22-2.39,1.44-4.12,2.94-2.41,1.86-6.26,5.1-.93.86-1.54,1.4-2,1.8l-1,.93c-.28.25-.56.51-1,.94l-.77.78c-.29.32-.62.73-1,1.21a31.13,31.13,0,0,0-4.59,7.38L138.7-364c-.56.78-1.15,1.56-1.78,2.28a33.34,33.34,0,0,1-4,4,36.18,36.18,0,0,1-8.3,5,35.48,35.48,0,0,1-4.94,1.77,31.27,31.27,0,0,1-6.59,1.1l-1.67.09a11.52,11.52,0,0,0-1.44.15,13.55,13.55,0,0,0-2.65.72,13.69,13.69,0,0,0-3.8,2.23,17.09,17.09,0,0,0-1.56,1.47,4.44,4.44,0,0,1-.47.44,19.79,19.79,0,0,0-2.06,2.33c-3.32,4-3.18,4.1-6.5,8.08-6.8,8.15-1,.54-5.61,6.11-3.32,4-.51.92-3.83,4.9s-4.8,5.44-8.12,9.42L55.73-289.81,43.62-275.62c-3.32,4-8.26,10.05-11,13.47-1.48,1.77-2.33,2.41-2.26,2.08L19.58-247.15c-3.6,4.32-7.21,8.57-10.55,13,1.51-1.63,2.85-3.25,2.76-2.94-1.7,2.2-1.88,2.06-4.91,6.21s-2.82,4.3-5.64,8.59S-6-211-8.35-206.44s-2.16,4.68-4.29,9.35c-1.07,2.34-1.38,3.05-1.74,3.73s-.69,1.38-1.66,3.77c-1.91,4.8-2.93,7.87-3.77,10.58-1.16,2.72-.47,0-2.25,4.83s.5-.91-1.2,3.92.13-1-1.44,3.85.44-.94-.94,4a30.17,30.17,0,0,1-.88,2.94,18.47,18.47,0,0,0-.78,3c-.62,2.49-.82,4.28-1.12,6.05s-.47,3.56-.84,6.09c-.63,5.09-.86,8-1.11,9.71a6.64,6.64,0,0,0,.22,2.84c0,1.39-.07,2.08-.13,3.07a40.6,40.6,0,0,0-.09,4.82c.13,5.12.39,5.11.78,10.21a147.71,147.71,0,0,0,2.36,16.2c1.13,5,3,10.82,4.61,15.77s1.62,5.5,2.13,7.27a150.52,150.52,0,0,0,12,27.72c.23.52,0,.13,0,.18A3.6,3.6,0,0,0-8.3-46c.24.4.62,1.07,1.27,2.18a117.83,117.83,0,0,0,7,10.37A141,141,0,0,0,9.46-21.93c.76.92,1.58,1.78,2.38,2.67s1.61,1.76,2.45,2.6a71.67,71.67,0,0,1-5.72-5.7c.82,1,1.66,1.93,2.53,2.86s1.69,1.89,2.59,2.79L16.35-14l2.7,2.84c3.44,4,1.78,1.6,5.05,5.76.83,1,1.43,2,2,2.82s1.1,1.6,1.57,2.41l1.48,2.45c.54.87,1.06,1.87,1.72,3s1.05,1.9,1.36,2.45.5.89.7,1.23.41.68.71,1.23.64,1.35,1.18,2.55a20.12,20.12,0,0,1,.95,2.29,4.78,4.78,0,0,1,.2.67,23.77,23.77,0,0,0,1,3L38.19,22l.87,2.73c.59,1.75,1,3.55,1.63,6.13a87.29,87.29,0,0,1,1.53,11.51c.28,4.51.23,8.91.29,11.49,0,1.95.09,5.07.14,8.07l.13,4.23,0,.91.08.73a5.12,5.12,0,0,0,.22,1.14,12.77,12.77,0,0,0,1.26,4.23,18.38,18.38,0,0,0,2,3,14.64,14.64,0,0,0,2.41,2c.35.21.64.41.91.55l.71.35c.8.38,1.05.38,1.08.28S51.3,79.17,51,79l-1.07-.56c-.73-.43-1.38-.85-1.1-.76a13.8,13.8,0,0,0,3.11,1.65,12.75,12.75,0,0,0,3.51.72,13.68,13.68,0,0,0,1.81,0A13.18,13.18,0,0,0,59,79.82a11.71,11.71,0,0,0,3.33-1.24l.67-.39c.29-.21.66-.47,1.07-.78a14.55,14.55,0,0,0,2.43-2.59,13.59,13.59,0,0,0,1.59-3.2c.13-.51.26-1,.32-1.33a5.42,5.42,0,0,0,.07-.85c.13-.56.17-1.08.25-1.67l.17-1.91.34-3.81c.27-.25.74-4.23,1.15-5.93a10.35,10.35,0,0,0,0-3.28c1-5.27,1.81-8.64,3.22-13.7.35-1.27.7-2.74,1.21-4.27s.91-3.19,1.53-4.79a88.78,88.78,0,0,1,3.54-8.79c2.43-4.67,1.52-2.77,4.16-7.32.65-1.15,1.12-1.94,1.48-2.48s.55-.88.66-1.08a2.35,2.35,0,0,0,.26-.67c1.88-2.66.46-.18,3.53-4.44,1.53-2.14,1.37-1.93,1.16-1.76s-.4.35,1.24-1.7c.83-1,1.45-1.79,2-2.42l1.47-1.55c.93-.93,1.77-1.94,3.64-3.78,6.5-6.5,8.35-7.6,9.24-9.14,2-1.66,4-3.16,5.93-4.82a25,25,0,0,0,5.24-3.76c3.83-3.44-.87.57,2.92-2.91s-.6.86,3.13-2.68c.92-.9,1.71-1.7,2.42-2.42s1.31-1.42,1.89-2.06c1.16-1.27,2.15-2.45,3.33-3.8l3.27-3.67c1.22-1.33,2.56-2.9,4.22-4.86s5.8-6.89,9.59-12.08,7.31-10.58,8.66-12.77c2.28-3.81,3.76-6.44,4.79-8.3s1.62-3,2.06-3.83c.87-1.7,1.14-2.37,3.21-6,4.41-7.62,1.76-2.27,10.7-17.75l8.12-14.45c2.59-4.49,7.2-12.07,10.33-17.12a7,7,0,0,0,1.22-2.88l3.48-6c2.58-4.49,2.31-3.64,4.25-6.93a23.67,23.67,0,0,0,1.63-2.11c1-1.66,1.88-3.39,2.79-5.11a38.09,38.09,0,0,0,2.59-5.64l6.58-12.53c.84-1.71-.94,1.42,1.49-3.16s6.76-12.31,9.71-17.47a10.52,10.52,0,0,0,1.28-3.23c1.59-2.77,4.23-7.58,6.66-12.15s5-9.71,7-13.61c1.08-2,1.78-2.85,1.77-2.5l5.31-10c.72-1.55.44-1.35.46-1.69,1.71-3.2,3.33-6.34,4.85-9.6,1.07-2.32,1.31-2.85,1.6-3.35a25.73,25.73,0,0,0,1.53-3.4c1-2.37,1.47-3.83,1.79-4.73a6.72,6.72,0,0,0,.4-1.5l1.51-4.19.9-2.66c.48-1.36.7-2,.92-2.7a83.42,83.42,0,0,0,2.47-9.67,138.13,138.13,0,0,0,2.62-22.42c.28-5.1.69-9.26.81-14.44s-.17-1-.06-6.22a12.34,12.34,0,0,1,.22-2.27c.05-.24.06-.1.06,0s0,.29.06.05.14-.87.52-2.21a16.61,16.61,0,0,1,2.33-4.82,14.5,14.5,0,0,1,1-1.28c.36-.43.78-.83,1.12-1.2.72-.76,1.44-1.56,2.14-2.4a49,49,0,0,0,3.8-5.28,48,48,0,0,0,2.68-5c.35-.72.31-.7.48-1.07s.54-1.12,1.42-3.47a59,59,0,0,0,2.3-7.89c.29-1.37.5-2.69.7-3.93l.15-.94.08-.46c0-.1,0-.1,0-.1h0l.08-.07,0-.27c-.07-.1-.23-.11-.36-.17a1.59,1.59,0,0,0,.88-1.14c.12,0,.05.26.28.33s.49-.09.7-.2a.37.37,0,0,1,.16-.05s0,0,0,0,0-.07,0,0,0,0,0,0a.21.21,0,0,1,0,.07.14.14,0,0,1-.06.05s0,0,.08-.08,0,0,0-.06a.11.11,0,0,0,.05.09,1.39,1.39,0,0,0,.17.16l.28.18,0,0s0,.06,0,.09a.51.51,0,0,0,.35.4c.24.06.27-.07.4,0-.09.4.27.63.23.82a.86.86,0,0,1-.14.29l0,0,0,0s0,0,0,0l0,.2-.24,1.71-.27,1.88-.34,1.94c-.52,2.64-1,4.46-1.5,6.28a43.75,43.75,0,0,1-2.26,6.06c-.58,1.22-.95,1.91-1.16,2.3s-.29.47-.3.46.15-.43-.33.38a50.48,50.48,0,0,1-8.69,11.37,13.12,13.12,0,0,0-3.24,4.86,12.72,12.72,0,0,0-.82,4.38c-.11,5.19-.3,9.52-.26,12.89a110.76,110.76,0,0,1-.22,12.11c-.49,5.23-.26,1.66-.5,3.51-.45,3.91-1.35,10-2.46,15.15-.27,1.28-.6,2.86-1.05,4.63s-.95,3.74-1.52,5.84c-1.18,4.17-2.65,8.81-4.26,13.24-.3.42.5-1.85,1.08-3.63-.12,0-1.56,3.86-2.4,5.36a62.18,62.18,0,0,1-2.48,6.32,27.45,27.45,0,0,1-2.5,4.8c-1.52,3.22-3.24,6.34-3,6.46s2.07-3.59,2-3.28l-5.46,10.33c-1.33,2-3,4.81-5.41,9.38s.66-.82-1.77,3.76.31-1-2.12,3.57-1.29,2.84-3.72,7.42-2.6,4.49-5,9.06-6.39,12.24-8.84,17.11c-1.62,3.24-2.56,5.37-4,8.25-.42.5,1.44-3.21,1.44-3.56-2.28,4.24-5.13,9.56-7.73,14.39s-4.92,9.16-6.28,11.38c-2.59,4.48-5.31,9.15-6.8,12l0,0c-2.93,5.08-1.32,2.07-2.26,3.53a6.88,6.88,0,0,0-1.18,2.8c-1.39,2.43-.53.54-3.12,5s-1,1.82-1,2.15c-1.39,2.44-2.12,3.22-2.11,2.88L178-97c-.51.71.95-2-1.64,2.54s-9.5,17.25-12.11,21.74c-1.34,2.24-2.34,3.78-3.41,5.27s-2.09,3-3.55,5.17c-2.9,4.34.78-.74-2.18,3.56a89.45,89.45,0,0,1-7.45,9.46,7.46,7.46,0,0,0-1.5,2.5c-1.61,2-3.29,4-5,6-.26.12-3,3.11-4.15,4.09-.84,1-3.56,4.1-4.66,5.73-1.78,1.85-3.65,3.62-5.5,5.41-.26.1,2.65-2.89,2.66-3a31.49,31.49,0,0,0-3.11,2.91c-3.8,3.58-6.7,6.61-10.72,10s-2.62,1.82-6.55,5.07a26.26,26.26,0,0,0-3,2.75c-.51.57-1.1,1.06-2.89,2.86A16.87,16.87,0,0,1,101.05-3,12.61,12.61,0,0,0,98.91-.78,36.3,36.3,0,0,0,96.3,2.29a2.21,2.21,0,0,0-.31.62c-1,1.2-2,2.25-2.92,3.42S91.21,8.65,90.23,10a95.61,95.61,0,0,0-7.37,12.74,99.06,99.06,0,0,0-5.48,13.93,29.92,29.92,0,0,0-.75,3c-.2,1-.46,2-.72,3.52,0,0,.53-2.17-.57,2.8s-1.5,6.92-2,9.7c-.09.63-.21,1.46-.33,2.79l-.49,5.73c-.22,2.22-.29,3.94-.58,5.72a17.77,17.77,0,0,1-1.31,4.06,18.88,18.88,0,0,1-2.56,4l-1,1.07-1.08,1a15.44,15.44,0,0,1-4.26,2.42,15,15,0,0,1-4.61,1,12.79,12.79,0,0,1-1.87,0,11.51,11.51,0,0,1-1.75-.24l-.87-.18-.89-.27A15.35,15.35,0,0,1,49.9,82a17.59,17.59,0,0,1-4.47-3,16,16,0,0,1-3.77-4.77A8.76,8.76,0,0,1,41,73c-.06-.13-.05,0-.16,0s.27,1.14.78,2.13,1.16,1.87,1,1.77a16.62,16.62,0,0,1-3.21-7.72c-.11-.69-.12-1.41-.17-2.1l0-1.87-.07-3.74c-.09-5.19.09-5.45,0-10.63a76.43,76.43,0,0,0-.72-10.57c.08-.64.55,3.4.63,3.47a28,28,0,0,0-.3-4.14c-.7-5-.55-3-1.49-8-1.17-4.94-.44-3-1.86-7.92a88.23,88.23,0,0,0-5.49-13.12c-.59-1.13-1-2.11-1.52-3L27.09,5.11c-.4-.79-.88-1.54-1.39-2.38S24.64,1,23.88-.08c-3-4.14.47.92-2.55-3.17s-.41-1-3.72-4.84A19.71,19.71,0,0,0,16-9.84a3.92,3.92,0,0,0-.51-.44,17.75,17.75,0,0,1-2.19-2.15,75.44,75.44,0,0,1-7.71-9C3.31-23.95,1.12-26.82.94-26.68s2.49,3.38,2.2,3.22C-1.26-29-1-29.12-4.07-33.4s-2.37-3.46-2.84-3.93l-1.84-3.22c-.55-1-1.08-2-1.59-2.94s-1-1.93-1.55-2.94-1.12-2.06-1.7-3.23l-1.57-3c-.45-.89-.84-1.68-1.23-2.44-.79-1.51-1.44-2.94-2.28-4.86a21.89,21.89,0,0,1-.93-2.61c-.34-1-.78-2.39-1.55-4.76l-.54.19c-1.85-5-3.35-10.12-5-15.15a21.4,21.4,0,0,0-.57-2.38c-.3-1.2-.62-2.55-.74-3.25-.44-1.29-1-2.92-1.44-4.75s-1.06-3.8-1.46-5.81-.9-4-1.17-5.85-.63-3.49-.74-4.8c-.3-2.61-.56-5.2-.6-7.36a42.56,42.56,0,0,1,0-4.72,8.56,8.56,0,0,0-.48-3.08,146.45,146.45,0,0,1,1-17l.24-2.18c.11-.71.22-1.4.32-2.08.21-1.36.41-2.66.6-3.85.45-2.37.83-4.33,1.08-5.62,1.55-6.9,1.57-6.63,1.13-6.49l1.47-5.31,1.69-5.24c1.75-5,4.91-11.79,6.81-16.62s.95-3,3-7.79,4.1-8.47,6.53-13.09,3.33-6.52,6.05-11-.4,1,2.39-3.44,1.54-2.74,4.51-7,4.46-5.8,7.71-9.88,1.84-2.54,5.16-6.53-.51.92,2.81-3.06,1.84-2.51,5.16-6.49,6.74-7.73,8-8.92a6.76,6.76,0,0,0,1.55-2.44c1.78-2.16.6-.45,3.92-4.43s-.81.68,2.51-3.3-.51.92,2.81-3.06,1.36-1.75,2-2.59c2.5-3.09,10.55-12.38,12.65-15.51a21.49,21.49,0,0,1,2.93-3c2.06-2.33,4.51-5,7.83-9a60.61,60.61,0,0,0,5.13-7l7.43-8.9a75.05,75.05,0,0,0,5.89-6.48c3.32-4,.52-.92,3.84-4.9s4.8-5.44,8.12-9.42a23.53,23.53,0,0,1,2.36-2.59,15.07,15.07,0,0,1,2-1.61,17,17,0,0,1,3.13-1.63c1-.41,1.39-.57,1.7-.72a4.67,4.67,0,0,1,1.07-.4,14.91,14.91,0,0,1,2.43-.3l1.51-.07a16.31,16.31,0,0,0,1.64-.11,27.46,27.46,0,0,0,8.49-2.27c.25,0-.12.19-.78.46-.33.14-.71.32-1.13.48l-1.27.44a3.82,3.82,0,0,0,.65-.14,13.61,13.61,0,0,0,1.42-.4c1.09-.33,2.29-.84,3-1.05a36,36,0,0,0,4.66-3.06,31.51,31.51,0,0,0,4.84-4.83c1.55-1.93,2.35-3.32,3.44-4.93.53-.76,1-1.57,1.63-2.39l2.08-2.8c3.41-4.08-.86.68,2.6-3.38,3.68-3.87,1.24-1.17,2.61-2.48s2.54-2.4,3.86-3.41c.65-.52,1.31-1.09,2.11-1.68l2.81-2a69.71,69.71,0,0,1,12.61-6.48l0-.05a22.45,22.45,0,0,1,2.76-.89,6,6,0,0,1,.89-.2c.36,0,.6-.16,3.2-.74,1.29-.31,2.13-.51,2.76-.61s1-.21,1.4-.3.78-.18,1.4-.3,1.49-.19,2.81-.32a22.44,22.44,0,0,1,2.83-.14c.64,0,1,0,1.44,0,.81,0,1.57.07,4.17.07,5.18,0,1-.2,6.21-.2,2.59,0,3.37,0,4.15.1.39,0,.78.05,1.39.06s1.52.06,2.64,0a12.24,12.24,0,0,0,5.47-1.79,11.54,11.54,0,0,0,3.06-2.81,12.17,12.17,0,0,0,2.16-2.95c.3-.54.63-1.31,1-2s.63-1.39,1-2.2a20.54,20.54,0,0,1,6.23-7.34,21,21,0,0,1,2.56-1.59c.6-.32,1-.5,1.39-.68a12.32,12.32,0,0,1,1.45-.55,15,15,0,0,1,3-.56,12,12,0,0,1,2.71,0,3.07,3.07,0,0,1,.74.13,5.63,5.63,0,0,0,.74.19,19.15,19.15,0,0,1,2.58.69,17.32,17.32,0,0,1,2.84,1.31c.62.35.95.58,1.15.7.4.25.26.1.44.14,2.33,1.76,2.92,2.67,2.6,2.57a70.11,70.11,0,0,1,12.11,13.41c.85,1.24,1.69,2.5,2.46,3.79s1.59,2.42,2.38,3.64,1.77,2.27,2.65,3.41,2,2.11,2.94,3.16c3.76,3.35-.62-.79,3.15,2.52,4,3,.6.87,4.8,3.65a25,25,0,0,0,3.56,1.89l1.24.53,1,.45,1.47.6c1.15.5,1.93.75,2.48,1s.91.37,1.26.49a24.48,24.48,0,0,0,3.86,1.12l.44.09h.06l.06,0A.69.69,0,0,0,293-374a1.42,1.42,0,0,1,.31.64c.22.09.61.33.67.53.07,0,.14-.13.19-.36l.3,0c.23,0,.17.22.35.29,0,.19.2.22.17.46s-.2.12-.23.36a.58.58,0,0,0,.34.56c-.25.31-.49.57-.75.84-.13,0-.21-.22-.37-.25l-.09.58-.29-.05c-.25,0-.07-.12-.14-.22s-.15.13-.21.35c-.14,0-.15-.12-.23-.19a5.27,5.27,0,0,1-.56-.15l-.3-.1h0l-.07,0-.81-.17-1.59-.41c-1.05-.29-2.08-.59-3.07-.94A53.56,53.56,0,0,1,276.33-377c-1.33-.89-2.54-1.63-3.49-2.35l-2.23-1.72c-1-.85-2-1.81-3.07-2.72s-1.89-2-2.8-2.93a56,56,0,0,1-4.23-5.49l.93,1.63c.36.61.82,1.2,1.24,1.81C263.53-387.61,264.32-386.46,264.78-385.93Z"/><path class="cls-5" d="M295.12-382.08a48.14,48.14,0,0,1-34.4-23.11,68.7,68.7,0,0,0-17.16-19.41h0a14.78,14.78,0,0,0-16.92-.73h0a18,18,0,0,0-6.89,8.12l-1.29,3a14.77,14.77,0,0,1-13.59,9H188.21a58.08,58.08,0,0,0-50.16,28.81h0a30.42,30.42,0,0,1-26.28,15.1h0A14.78,14.78,0,0,0,100.42-356L13.94-252.46a194.56,194.56,0,0,0-31.59,53.22l-4.75,12.06a137.58,137.58,0,0,0-3.21,91.9l3.52,11.13A150.39,150.39,0,0,0,15-23.11h0A88.35,88.35,0,0,1,40.83,37.82l.34,19.3A14.78,14.78,0,0,0,56,71.65h0A14.78,14.78,0,0,0,70.68,58.18l.93-10.39a102.89,102.89,0,0,1,39.11-71.92h0a208.67,208.67,0,0,0,52.21-60.08l48-83.2,46.51-87.65a151.94,151.94,0,0,0,17.69-68l.32-15.3a14.74,14.74,0,0,1,4.33-10.14l.22-.22a49.84,49.84,0,0,0,14.2-29.94C294.48-380.94,294.78-382.43,295.12-382.08Z"/><path class="cls-9" d="M264.78-395.88a17.67,17.67,0,0,1-1.48-1.82l-1.57-2.06c-.56-.71-1-1.53-1.54-2.32s-1.07-1.65-1.55-2.44a12.8,12.8,0,0,0-1.07-2.3c-1.6-2.45-3-4.44-4.48-6.28a55,55,0,0,0-4.75-5.3,13.25,13.25,0,0,0-2.29-2,25.31,25.31,0,0,1-2.37-1.88l-1.24-1-.8-.58c-.46-.29-.73-.51-1-.67a8.13,8.13,0,0,0-1.1-.58,11.09,11.09,0,0,0-2.34-.73,12.38,12.38,0,0,0-7.21.8,16.28,16.28,0,0,0-5.81,4.41,21.58,21.58,0,0,0-1.32,1.72c-.23.3-.3.39-.38.48a2.25,2.25,0,0,0-.36.5,6.12,6.12,0,0,0-.39.7c-.16.31-.34.71-.6,1.33L220-413.31c-.28.63-.44,1-.65,1.43a10.23,10.23,0,0,1-.78,1.36,14.44,14.44,0,0,1-2,2.4,15.18,15.18,0,0,1-7.24,4,15.25,15.25,0,0,1-3.65.41h-.85l-.74-.05-1.4-.07c-3.81.11-10,.14-15.84.31l-2.11.09c-.7,0-1.38.14-2.05.21l-2,.21-1.82.33-1.67.29c-.53.11-1,.24-1.48.35l-2.32.56-3,.89c-.82.24-1.47.52-2,.71-1.12.4-1.85.61-2.53.9l-2.38.95c-.51.2-1.07.52-1.78.86s-1.57.75-2.53,1.36c0,0,1.91-1.22-2.39,1.44-4.12,2.94-2.41,1.86-6.26,5.1-.93.86-1.54,1.4-2,1.8l-1,.93c-.28.26-.56.51-1,.94l-.77.78c-.29.32-.62.73-1,1.21a31.13,31.13,0,0,0-4.59,7.38L138.7-374c-.56.78-1.15,1.56-1.78,2.28a33.34,33.34,0,0,1-4,4,36.18,36.18,0,0,1-8.3,5,35.48,35.48,0,0,1-4.94,1.77,31.27,31.27,0,0,1-6.59,1.1l-1.67.09a11.52,11.52,0,0,0-1.44.15,13.55,13.55,0,0,0-2.65.72,13.69,13.69,0,0,0-3.8,2.23,17.09,17.09,0,0,0-1.56,1.47,4.44,4.44,0,0,1-.47.44,19.79,19.79,0,0,0-2.06,2.33c-3.32,4-3.18,4.1-6.5,8.08-6.8,8.15-1,.54-5.61,6.11-3.32,4-.51.92-3.83,4.9s-4.8,5.45-8.12,9.42L55.73-299.76,43.62-285.57c-3.32,4-8.26,10.05-11,13.47-1.48,1.77-2.33,2.41-2.26,2.08L19.58-257.1c-3.6,4.32-7.21,8.57-10.55,13,1.51-1.63,2.85-3.25,2.76-2.94-1.7,2.2-1.88,2.06-4.91,6.21s-2.82,4.3-5.64,8.59S-6-221-8.35-216.39s-2.16,4.68-4.29,9.35c-1.07,2.34-1.38,3-1.74,3.73s-.69,1.38-1.66,3.77c-1.91,4.8-2.93,7.87-3.77,10.58-1.16,2.72-.47,0-2.25,4.83s.5-.91-1.2,3.92.13-1-1.44,3.85.44-.94-.94,4a30.17,30.17,0,0,1-.88,2.94,18.47,18.47,0,0,0-.78,3c-.62,2.49-.82,4.28-1.12,6.05s-.47,3.56-.84,6.09c-.63,5.09-.86,8-1.11,9.71a6.64,6.64,0,0,0,.22,2.84c0,1.39-.07,2.08-.13,3.07a40.6,40.6,0,0,0-.09,4.82c.13,5.13.39,5.11.78,10.21a147.71,147.71,0,0,0,2.36,16.2c1.13,5,3,10.82,4.61,15.77s1.62,5.5,2.13,7.27a150.52,150.52,0,0,0,12,27.72c.23.52,0,.13,0,.18a3.6,3.6,0,0,0,.27.57c.24.4.62,1.07,1.27,2.18a117.83,117.83,0,0,0,7,10.37A141,141,0,0,0,9.46-31.88c.76.92,1.58,1.78,2.38,2.67s1.61,1.76,2.45,2.6a71.67,71.67,0,0,1-5.72-5.7c.82,1,1.66,1.93,2.53,2.86s1.69,1.89,2.59,2.79l2.66,2.75,2.7,2.83c3.44,4,1.78,1.6,5.05,5.76.83,1,1.43,2,2,2.82s1.1,1.6,1.57,2.41l1.48,2.45c.54.87,1.06,1.87,1.72,3s1.05,1.9,1.36,2.45.5.89.7,1.23.41.68.71,1.23.64,1.35,1.18,2.55a20.12,20.12,0,0,1,.95,2.29,4.78,4.78,0,0,1,.2.67,23.77,23.77,0,0,0,1,3L38.19,12l.87,2.73c.59,1.75,1,3.55,1.63,6.13a87.29,87.29,0,0,1,1.53,11.51c.28,4.51.23,8.91.29,11.49,0,2,.09,5.07.14,8.07l.13,4.23,0,.91.08.73A5.12,5.12,0,0,0,43.12,59a12.77,12.77,0,0,0,1.26,4.23,18.38,18.38,0,0,0,2,3,14.64,14.64,0,0,0,2.41,2c.35.21.64.41.91.55l.71.35c.8.38,1.05.38,1.08.28s-.18-.17-.49-.31l-1.07-.56c-.73-.43-1.38-.85-1.1-.76a13.8,13.8,0,0,0,3.11,1.65,12.75,12.75,0,0,0,3.51.72,13.68,13.68,0,0,0,1.81,0A13.18,13.18,0,0,0,59,69.87a11.71,11.71,0,0,0,3.33-1.24l.67-.39c.29-.21.66-.47,1.07-.78a14.55,14.55,0,0,0,2.43-2.59,13.59,13.59,0,0,0,1.59-3.2c.13-.51.26-1,.32-1.33a5.42,5.42,0,0,0,.07-.85c.13-.56.17-1.08.25-1.67l.17-1.91.34-3.81c.27-.25.74-4.23,1.15-5.93a10.35,10.35,0,0,0,0-3.28c1-5.27,1.81-8.64,3.22-13.7.35-1.27.7-2.74,1.21-4.27s.91-3.19,1.53-4.79a88.78,88.78,0,0,1,3.54-8.79C82.33,6.67,81.42,8.57,84.06,4c.65-1.15,1.12-1.94,1.48-2.48s.55-.88.66-1.08a2.35,2.35,0,0,0,.26-.67c1.88-2.66.46-.18,3.53-4.44,1.53-2.14,1.37-1.93,1.16-1.76s-.4.35,1.24-1.7c.83-1,1.45-1.79,2-2.42l1.47-1.55c.93-.93,1.77-1.94,3.64-3.78,6.5-6.5,8.35-7.6,9.24-9.14,2-1.66,4-3.16,5.93-4.82a25,25,0,0,0,5.24-3.76c3.83-3.44-.87.57,2.92-2.91s-.6.86,3.13-2.68c.92-.9,1.71-1.7,2.42-2.42s1.31-1.42,1.89-2.06c1.16-1.27,2.15-2.45,3.33-3.8l3.27-3.67c1.22-1.33,2.56-2.9,4.22-4.86s5.8-6.89,9.59-12.08,7.31-10.58,8.66-12.77c2.28-3.81,3.76-6.44,4.79-8.3s1.62-3,2.06-3.83c.87-1.7,1.14-2.37,3.21-6,4.41-7.62,1.76-2.27,10.7-17.75l8.12-14.45c2.59-4.49,7.2-12.07,10.33-17.12.89-1.54,1.28-2.5,1.22-2.88l3.48-6c2.58-4.49,2.31-3.63,4.25-6.93a23.67,23.67,0,0,0,1.63-2.11c1-1.66,1.88-3.39,2.79-5.11a38.09,38.09,0,0,0,2.59-5.64l6.58-12.53c.84-1.71-.94,1.42,1.49-3.16s6.76-12.31,9.71-17.47a10.52,10.52,0,0,0,1.28-3.23c1.59-2.77,4.23-7.58,6.66-12.15s5-9.71,7-13.61c1.08-2,1.78-2.85,1.77-2.5l5.31-10c.72-1.55.44-1.35.46-1.69,1.71-3.2,3.33-6.34,4.85-9.6,1.07-2.32,1.31-2.85,1.6-3.35a25.73,25.73,0,0,0,1.53-3.4c1-2.37,1.47-3.83,1.79-4.73a6.72,6.72,0,0,0,.4-1.5l1.51-4.19.9-2.66c.48-1.36.7-2,.92-2.7a83.42,83.42,0,0,0,2.47-9.67,138.13,138.13,0,0,0,2.62-22.42c.28-5.1.69-9.26.81-14.44s-.17-1-.06-6.22a12.34,12.34,0,0,1,.22-2.27c.05-.24.06-.1.06,0s0,.29.06,0,.14-.87.52-2.21a16.61,16.61,0,0,1,2.33-4.82,14.5,14.5,0,0,1,1-1.28c.36-.43.78-.83,1.12-1.2.72-.76,1.44-1.56,2.14-2.4a49,49,0,0,0,3.8-5.28,48,48,0,0,0,2.68-5c.35-.72.31-.7.48-1.07s.54-1.12,1.42-3.47a59,59,0,0,0,2.3-7.89c.29-1.37.5-2.69.7-3.93l.15-.94.08-.46c0-.1,0-.1,0-.1h0l.08-.07,0-.27c-.07-.09-.23-.11-.36-.17a1.59,1.59,0,0,0,.88-1.14c.12,0,.05.26.28.33s.49-.09.7-.2A.37.37,0,0,1,295-382s0,0,0,0,0-.07,0,0,0,0,0,0l0,.08-.06,0s0,0,.08-.08,0,0,0-.06a.11.11,0,0,0,.05.09,1.39,1.39,0,0,0,.17.16l.28.18,0,0s0,.06,0,.09a.51.51,0,0,0,.35.4c.24.06.27-.07.4,0-.09.39.27.62.23.81a.86.86,0,0,1-.14.29l0,0,0,0s0,0,0,0l0,.21-.24,1.7-.27,1.88-.34,1.94c-.52,2.64-1,4.46-1.5,6.28a43.75,43.75,0,0,1-2.26,6.06c-.58,1.22-.95,1.91-1.16,2.3s-.29.47-.3.46.15-.43-.33.38a50.48,50.48,0,0,1-8.69,11.37,13.12,13.12,0,0,0-3.24,4.86,12.72,12.72,0,0,0-.82,4.38c-.11,5.19-.3,9.52-.26,12.89a110.76,110.76,0,0,1-.22,12.11c-.49,5.23-.26,1.66-.5,3.51-.45,3.91-1.35,10-2.46,15.15-.27,1.28-.6,2.86-1.05,4.63s-.95,3.74-1.52,5.84c-1.18,4.17-2.65,8.81-4.26,13.24-.3.42.5-1.85,1.08-3.63-.12,0-1.56,3.86-2.4,5.36a62.18,62.18,0,0,1-2.48,6.32,27.45,27.45,0,0,1-2.5,4.8c-1.52,3.22-3.24,6.34-3,6.46s2.07-3.59,2-3.28l-5.46,10.33c-1.33,2-3,4.81-5.41,9.39s.66-.83-1.77,3.75.31-1-2.12,3.57-1.29,2.84-3.72,7.42-2.6,4.49-5,9.06-6.39,12.24-8.84,17.11c-1.62,3.24-2.56,5.37-4,8.25-.42.5,1.44-3.21,1.44-3.56-2.28,4.24-5.13,9.56-7.73,14.39s-4.92,9.16-6.28,11.38c-2.59,4.48-5.31,9.15-6.8,12l0,0c-2.93,5.08-1.32,2.07-2.26,3.53a6.88,6.88,0,0,0-1.18,2.8c-1.39,2.43-.53.54-3.12,5s-1,1.82-1,2.15c-1.39,2.44-2.12,3.22-2.11,2.88L178-107c-.51.71.95-2-1.64,2.54s-9.5,17.25-12.11,21.74c-1.34,2.24-2.34,3.78-3.41,5.27s-2.09,3-3.55,5.17c-2.9,4.34.78-.74-2.18,3.56a89.45,89.45,0,0,1-7.45,9.46,7.46,7.46,0,0,0-1.5,2.5c-1.61,2-3.29,4-5,6-.26.12-3,3.11-4.15,4.09-.84,1-3.56,4.1-4.66,5.73-1.78,1.85-3.65,3.62-5.5,5.41-.26.1,2.65-2.89,2.66-3a31.49,31.49,0,0,0-3.11,2.91c-3.8,3.58-6.7,6.61-10.72,10s-2.62,1.82-6.55,5.07a26.26,26.26,0,0,0-3,2.75c-.51.57-1.1,1.06-2.89,2.86a16.87,16.87,0,0,1-2.22,2.1,12.61,12.61,0,0,0-2.14,2.18A36.3,36.3,0,0,0,96.3-7.66,2.21,2.21,0,0,0,96-7c-1,1.2-2,2.25-2.92,3.42S91.21-1.3,90.23,0a95.61,95.61,0,0,0-7.37,12.74,98.67,98.67,0,0,0-5.48,13.94,29.08,29.08,0,0,0-.75,3c-.2,1-.46,2-.72,3.52,0,0,.53-2.17-.57,2.8s-1.5,6.92-2,9.7c-.09.63-.21,1.46-.33,2.79l-.49,5.73c-.22,2.22-.29,3.94-.58,5.72A17.77,17.77,0,0,1,70.68,64a18.88,18.88,0,0,1-2.56,4l-1,1.07-1.08,1a15.44,15.44,0,0,1-4.26,2.42,15,15,0,0,1-4.61,1,12.79,12.79,0,0,1-1.87,0,11.51,11.51,0,0,1-1.75-.24L52.71,73l-.89-.27A15.35,15.35,0,0,1,49.9,72a17.59,17.59,0,0,1-4.47-3,16,16,0,0,1-3.77-4.77A8.76,8.76,0,0,1,41,63c-.06-.13-.05,0-.16,0s.27,1.14.78,2.13,1.16,1.87,1,1.77a16.62,16.62,0,0,1-3.21-7.72c-.11-.69-.12-1.41-.17-2.1l0-1.87-.07-3.74c-.09-5.19.09-5.45,0-10.63a76.43,76.43,0,0,0-.72-10.57c.08-.64.55,3.4.63,3.47a28.06,28.06,0,0,0-.3-4.14c-.7-5-.55-3-1.49-8-1.17-4.94-.44-3-1.86-7.92A88.23,88.23,0,0,0,29.93.57c-.59-1.13-1-2.11-1.52-3L27.09-4.84c-.4-.79-.88-1.54-1.39-2.38S24.64-9,23.88-10c-3-4.14.47.92-2.55-3.17s-.41-1-3.72-4.84A19.71,19.71,0,0,0,16-19.79a3.92,3.92,0,0,0-.51-.44,17.75,17.75,0,0,1-2.19-2.15,75.44,75.44,0,0,1-7.71-9C3.31-33.9,1.12-36.77.94-36.63s2.49,3.38,2.2,3.22c-4.4-5.5-4.18-5.66-7.21-9.94s-2.37-3.46-2.84-3.93c-.66-1.16-1.27-2.21-1.84-3.22s-1.08-2-1.59-2.94-1-1.93-1.55-2.94-1.12-2.06-1.7-3.23l-1.57-3c-.45-.89-.84-1.68-1.23-2.44-.79-1.51-1.44-2.94-2.28-4.86a22.38,22.38,0,0,1-.93-2.6l-1.55-4.77-.54.19c-1.85-5.05-3.35-10.12-5-15.15a21.4,21.4,0,0,0-.57-2.38c-.3-1.2-.62-2.55-.74-3.25-.44-1.29-1-2.92-1.44-4.75s-1.06-3.8-1.46-5.81-.9-4-1.17-5.85-.63-3.49-.74-4.8c-.3-2.61-.56-5.2-.6-7.36a42.56,42.56,0,0,1,0-4.72,8.56,8.56,0,0,0-.48-3.08,146.45,146.45,0,0,1,1-17l.24-2.18c.11-.71.22-1.4.32-2.08.21-1.36.41-2.66.6-3.85.45-2.37.83-4.33,1.08-5.62,1.55-6.9,1.57-6.63,1.13-6.49l1.47-5.31,1.69-5.24c1.75-5,4.91-11.79,6.81-16.62s.95-3,3-7.79,4.1-8.47,6.53-13.09,3.33-6.52,6.05-11-.4,1,2.39-3.44S0-236.73,3-241s4.46-5.8,7.71-9.88,1.84-2.54,5.16-6.53-.51.92,2.81-3.06S20.51-263,23.83-267s6.74-7.73,8-8.92a6.76,6.76,0,0,0,1.55-2.44c1.78-2.16.6-.45,3.92-4.43s-.81.68,2.51-3.3-.51.92,2.81-3.06,1.36-1.75,2-2.59c2.5-3.09,10.55-12.38,12.65-15.51a21.49,21.49,0,0,1,2.93-3.05c2.06-2.33,4.51-5,7.83-9a59.76,59.76,0,0,0,5.13-7l7.43-8.9a75.05,75.05,0,0,0,5.89-6.48c3.32-4,.52-.92,3.84-4.9s4.8-5.44,8.12-9.42a23.53,23.53,0,0,1,2.36-2.59,15.07,15.07,0,0,1,2-1.61,17,17,0,0,1,3.13-1.63c1-.41,1.39-.57,1.7-.72a4.67,4.67,0,0,1,1.07-.4,14.91,14.91,0,0,1,2.43-.3l1.51-.06c.51,0,1.06,0,1.64-.12a27.46,27.46,0,0,0,8.49-2.27c.25,0-.12.19-.78.46-.33.14-.71.32-1.13.48l-1.27.44a3.82,3.82,0,0,0,.65-.14,13.61,13.61,0,0,0,1.42-.4c1.09-.33,2.29-.84,3-1.05a36,36,0,0,0,4.66-3.06,31.51,31.51,0,0,0,4.84-4.83c1.55-1.93,2.35-3.32,3.44-4.93.53-.76,1-1.57,1.63-2.39l2.08-2.8c3.41-4.08-.86.68,2.6-3.38,3.68-3.87,1.24-1.17,2.61-2.48s2.54-2.4,3.86-3.41c.65-.51,1.31-1.09,2.11-1.68l2.81-2a69.71,69.71,0,0,1,12.61-6.48l0-.05a22.45,22.45,0,0,1,2.76-.89,6,6,0,0,1,.89-.2c.36,0,.6-.16,3.2-.74,1.29-.31,2.13-.51,2.76-.61s1-.21,1.4-.3.78-.18,1.4-.3,1.49-.19,2.81-.32a22.44,22.44,0,0,1,2.83-.14l1.44,0c.81,0,1.57.07,4.17.07,5.18,0,1-.2,6.21-.2,2.59,0,3.37.05,4.15.1.39,0,.78.05,1.39.07s1.52.05,2.64,0a12.24,12.24,0,0,0,5.47-1.79,11.54,11.54,0,0,0,3.06-2.81,12.17,12.17,0,0,0,2.16-2.95c.3-.54.63-1.31,1-2s.63-1.39,1-2.2a20.54,20.54,0,0,1,6.23-7.34,21,21,0,0,1,2.56-1.59c.6-.32,1-.5,1.39-.68a12.32,12.32,0,0,1,1.45-.55,15,15,0,0,1,3-.56,12,12,0,0,1,2.71,0,3.07,3.07,0,0,1,.74.13,4.3,4.3,0,0,0,.74.19,19.15,19.15,0,0,1,2.58.69,17.32,17.32,0,0,1,2.84,1.31c.62.35.95.58,1.15.7.4.25.26.1.44.14,2.33,1.76,2.92,2.67,2.6,2.57a70.11,70.11,0,0,1,12.11,13.41c.85,1.24,1.69,2.5,2.46,3.79s1.59,2.42,2.38,3.64,1.77,2.27,2.65,3.42,2,2.1,2.94,3.15c3.76,3.35-.62-.79,3.15,2.52,4,3,.6.87,4.8,3.65a25,25,0,0,0,3.56,1.89l1.24.53,1,.45,1.47.6c1.15.5,1.93.75,2.48,1s.91.37,1.26.49a24.48,24.48,0,0,0,3.86,1.12l.44.09h.06l.06,0A.69.69,0,0,0,293-384a1.42,1.42,0,0,1,.31.64c.22.09.61.33.67.53.07,0,.14-.13.19-.36l.3,0c.23,0,.17.22.35.29,0,.19.2.22.17.46s-.2.12-.23.36a.58.58,0,0,0,.34.56c-.25.31-.49.57-.75.84-.13,0-.21-.22-.37-.25l-.09.58-.29-.05c-.25,0-.07-.12-.14-.22s-.15.13-.21.35c-.14,0-.15-.12-.23-.19a5.27,5.27,0,0,1-.56-.15l-.3-.1h0l-.07,0-.81-.17-1.59-.41c-1.05-.29-2.08-.59-3.07-.94A53.56,53.56,0,0,1,276.33-387c-1.33-.89-2.54-1.63-3.49-2.35L270.61-391c-1-.85-2-1.81-3.07-2.72s-1.89-2-2.8-2.93a56,56,0,0,1-4.23-5.49l.93,1.63c.36.61.82,1.2,1.24,1.81C263.53-397.56,264.32-396.41,264.78-395.88Z"/></g></g></g></g></svg>