<svg id="Layer_1" data-name="Layer 1" xmlns="http://www.w3.org/2000/svg" viewBox="0 0 236 356"><defs><style>.cls-1{fill:#fff;}</style></defs><title>grain-pattern</title><polygon class="cls-1" points="234.09 0.11 233.82 0.24 233.7 -0.05 233.97 -0.17 234.09 0.11"/><polygon class="cls-1" points="230.5 14.87 230.4 13.97 231.23 13.86 231.34 14.76 230.5 14.87"/><polygon class="cls-1" points="234.25 27.91 234.11 27.94 234.09 27.79 234.23 27.77 234.25 27.91"/><polygon class="cls-1" points="231.83 44.97 232.63 44.21 233.34 45.06 232.55 45.82 231.83 44.97"/><polygon class="cls-1" points="231.62 53.94 231.58 53.88 231.63 53.84 231.67 53.89 231.62 53.94"/><polygon class="cls-1" points="233.52 70.76 232.54 70.7 232.59 69.65 233.57 69.71 233.52 70.76"/><polygon class="cls-1" points="234.16 82.86 234.1 81.53 235.34 81.48 235.4 82.8 234.16 82.86"/><polygon class="cls-1" points="224.16 0.63 223.52 0.81 223.35 0.13 223.99 -0.05 224.16 0.63"/><polygon class="cls-1" points="223.45 17.39 222.37 17.9 221.89 16.75 222.97 16.23 223.45 17.39"/><polygon class="cls-1" points="226.82 29.49 225.85 29.71 225.65 28.68 226.61 28.46 226.82 29.49"/><polygon class="cls-1" points="224.48 40.6 224.72 39.92 225.36 40.19 225.11 40.86 224.48 40.6"/><polygon class="cls-1" points="227.11 54.5 227.25 53.57 228.12 53.72 227.98 54.65 227.11 54.5"/><polygon class="cls-1" points="225.8 69.86 225.78 69.7 225.93 69.68 225.95 69.83 225.8 69.86"/><polygon class="cls-1" points="223.97 83.75 223.63 83.74 223.64 83.37 223.98 83.38 223.97 83.75"/><polygon class="cls-1" points="215.95 5.5 215.44 5.3 215.63 4.76 216.14 4.96 215.95 5.5"/><polygon class="cls-1" points="218.47 15.09 218.56 14.54 219.08 14.65 218.98 15.19 218.47 15.09"/><polygon class="cls-1" points="217.94 28.71 217.94 28.71 217.94 28.71 217.94 28.71 217.94 28.71"/><polygon class="cls-1" points="218.71 45.88 218.1 45.42 218.53 44.77 219.14 45.23 218.71 45.88"/><polygon class="cls-1" points="219.8 58.67 219.81 58.47 219.99 58.48 219.98 58.68 219.8 58.67"/><polygon class="cls-1" points="217.11 69.6 217.15 69.41 217.33 69.45 217.29 69.64 217.11 69.6"/><polygon class="cls-1" points="216.01 84.21 216.66 84.23 216.64 84.93 215.99 84.91 216.01 84.21"/><polygon class="cls-1" points="209.98 5 209.92 4.75 210.16 4.69 210.22 4.94 209.98 5"/><polygon class="cls-1" points="209.03 15.28 209.52 15.26 209.54 15.78 209.05 15.8 209.03 15.28"/><polygon class="cls-1" points="211.33 31.45 211.53 31.54 211.44 31.75 211.24 31.66 211.33 31.45"/><polygon class="cls-1" points="212.1 45.38 211.52 45.56 211.35 44.94 211.93 44.77 212.1 45.38"/><polygon class="cls-1" points="209.9 58.18 209.89 58.15 209.93 58.14 209.93 58.18 209.9 58.18"/><polygon class="cls-1" points="209.28 71.9 209.7 71.5 210.07 71.95 209.65 72.35 209.28 71.9"/><polygon class="cls-1" points="211.93 83.25 213.03 83.81 212.51 84.99 211.41 84.44 211.93 83.25"/><polygon class="cls-1" points="205.56 5.87 204.31 5.84 204.34 4.52 205.58 4.54 205.56 5.87"/><polygon class="cls-1" points="204.09 18.22 205.24 18.19 205.27 19.42 204.11 19.45 204.09 18.22"/><polygon class="cls-1" points="203.79 28.39 203.58 27.65 204.27 27.44 204.47 28.17 203.79 28.39"/><polygon class="cls-1" points="204.89 43.55 204.75 42.84 205.41 42.69 205.55 43.4 204.89 43.55"/><polygon class="cls-1" points="203.29 58.43 202.32 58.23 202.51 57.19 203.49 57.39 203.29 58.43"/><polygon class="cls-1" points="206.07 71.61 207.2 71.35 207.44 72.57 206.3 72.82 206.07 71.61"/><polygon class="cls-1" points="206.42 82.03 206.07 81.75 206.34 81.39 206.68 81.67 206.42 82.03"/><polygon class="cls-1" points="195.59 1.22 196.61 0.89 196.91 1.98 195.89 2.3 195.59 1.22"/><polygon class="cls-1" points="196.13 16.84 195.36 17.18 195.05 16.36 195.81 16.02 196.13 16.84"/><polygon class="cls-1" points="196.39 27.63 197.22 28.03 196.84 28.92 196.01 28.51 196.39 27.63"/><polygon class="cls-1" points="198.9 42.09 198.8 42.06 198.83 41.96 198.92 41.99 198.9 42.09"/><polygon class="cls-1" points="198.74 56.51 198.91 56.51 198.9 56.69 198.73 56.69 198.74 56.51"/><polygon class="cls-1" points="197.82 70.61 196.89 70.28 197.21 69.29 198.13 69.63 197.82 70.61"/><polygon class="cls-1" points="196.32 86.84 195.48 85.83 196.43 84.93 197.27 85.94 196.32 86.84"/><polygon class="cls-1" points="192.44 2.65 192.56 2.47 192.73 2.61 192.6 2.78 192.44 2.65"/><polygon class="cls-1" points="190.71 15.9 191.15 15.79 191.25 16.26 190.81 16.37 190.71 15.9"/><polygon class="cls-1" points="189.85 29.22 189.93 29.14 190 29.22 189.93 29.29 189.85 29.22"/><polygon class="cls-1" points="192.88 44.7 191.87 44.72 191.85 43.64 192.87 43.62 192.88 44.7"/><polygon class="cls-1" points="189.65 54.33 190.02 53.86 190.46 54.25 190.09 54.73 189.65 54.33"/><polygon class="cls-1" points="190.65 67.76 191.27 67.94 191.1 68.6 190.48 68.42 190.65 67.76"/><polygon class="cls-1" points="189.02 81.18 189.89 81.26 189.81 82.19 188.94 82.11 189.02 81.18"/><polygon class="cls-1" points="181.13 3.42 182.05 2.66 182.76 3.64 181.84 4.4 181.13 3.42"/><polygon class="cls-1" points="181.02 17.25 181.07 16.39 181.87 16.44 181.83 17.3 181.02 17.25"/><polygon class="cls-1" points="184.5 29.62 184.51 29.61 184.53 29.61 184.52 29.63 184.5 29.62"/><polygon class="cls-1" points="185.24 44.12 185.22 43.83 185.49 43.81 185.51 44.1 185.24 44.12"/><polygon class="cls-1" points="183.52 56.57 183.45 56.23 183.76 56.15 183.84 56.49 183.52 56.57"/><polygon class="cls-1" points="185.23 67.82 185.82 67.28 186.33 67.91 185.74 68.45 185.23 67.82"/><polygon class="cls-1" points="184.65 83.43 184.52 83.47 184.49 83.32 184.62 83.29 184.65 83.43"/><polygon class="cls-1" points="176.48 1.16 176.28 1.02 176.41 0.82 176.61 0.96 176.48 1.16"/><polygon class="cls-1" points="175.67 14.81 175.69 14.52 175.97 14.54 175.95 14.83 175.67 14.81"/><polygon class="cls-1" points="178.49 31.59 179.59 31.34 179.82 32.51 178.73 32.76 178.49 31.59"/><polygon class="cls-1" points="177.45 42.39 177.42 42.11 177.68 42.08 177.72 42.35 177.45 42.39"/><polygon class="cls-1" points="177.01 58.65 176.51 58.77 176.4 58.23 176.9 58.12 177.01 58.65"/><polygon class="cls-1" points="176.5 69.03 176.6 69.03 176.6 69.14 176.5 69.14 176.5 69.03"/><polygon class="cls-1" points="176.92 83.55 176.5 82.42 177.56 81.97 177.98 83.09 176.92 83.55"/><polygon class="cls-1" points="169.96 3.17 170.01 2.78 170.37 2.84 170.31 3.22 169.96 3.17"/><polygon class="cls-1" points="167.71 19.01 167.93 18.63 168.28 18.86 168.07 19.24 167.71 19.01"/><polygon class="cls-1" points="171.67 32.2 171.24 32.38 171.07 31.92 171.5 31.74 171.67 32.2"/><polygon class="cls-1" points="168.04 41.3 168.61 41.19 168.7 41.8 168.14 41.9 168.04 41.3"/><polygon class="cls-1" points="170.54 58.38 170.64 58.06 170.94 58.17 170.84 58.49 170.54 58.38"/><polygon class="cls-1" points="170.47 72.24 170.28 71.7 170.79 71.49 170.98 72.03 170.47 72.24"/><polygon class="cls-1" points="172.39 85.96 172.15 86.01 172.1 85.75 172.34 85.7 172.39 85.96"/><polygon class="cls-1" points="164.37 1.71 164.31 1.7 164.32 1.64 164.38 1.65 164.37 1.71"/><polygon class="cls-1" points="161.55 18.78 161.31 18.46 161.6 18.2 161.85 18.52 161.55 18.78"/><polygon class="cls-1" points="161.02 31.94 161.21 31.18 161.93 31.38 161.73 32.14 161.02 31.94"/><polygon class="cls-1" points="164.57 46.7 164.11 45.87 164.88 45.38 165.34 46.21 164.57 46.7"/><polygon class="cls-1" points="163.18 55.52 162.83 55.6 162.76 55.24 163.1 55.16 163.18 55.52"/><polygon class="cls-1" points="164.1 70.87 164.54 70.79 164.61 71.25 164.18 71.33 164.1 70.87"/><polygon class="cls-1" points="161.29 85.29 161.75 84.94 162.08 85.42 161.63 85.78 161.29 85.29"/><polygon class="cls-1" points="234.09 90.06 233.82 90.19 233.7 89.9 233.97 89.77 234.09 90.06"/><polygon class="cls-1" points="230.5 104.82 230.4 103.92 231.23 103.81 231.34 104.7 230.5 104.82"/><polygon class="cls-1" points="234.25 117.86 234.11 117.89 234.09 117.74 234.23 117.71 234.25 117.86"/><polygon class="cls-1" points="231.83 134.92 232.63 134.16 233.34 135.01 232.55 135.77 231.83 134.92"/><polygon class="cls-1" points="231.62 143.88 231.58 143.83 231.63 143.78 231.67 143.84 231.62 143.88"/><polygon class="cls-1" points="233.52 160.7 232.54 160.65 232.59 159.6 233.57 159.66 233.52 160.7"/><polygon class="cls-1" points="234.16 172.81 234.1 171.48 235.34 171.42 235.4 172.75 234.16 172.81"/><polygon class="cls-1" points="224.16 90.58 223.52 90.76 223.35 90.08 223.99 89.9 224.16 90.58"/><polygon class="cls-1" points="223.45 107.33 222.37 107.85 221.89 106.7 222.97 106.18 223.45 107.33"/><polygon class="cls-1" points="226.82 119.44 225.85 119.66 225.65 118.63 226.61 118.41 226.82 119.44"/><polygon class="cls-1" points="224.48 130.55 224.72 129.87 225.36 130.13 225.11 130.81 224.48 130.55"/><polygon class="cls-1" points="227.11 144.44 227.25 143.51 228.12 143.67 227.98 144.6 227.11 144.44"/><polygon class="cls-1" points="225.8 159.8 225.78 159.65 225.93 159.62 225.95 159.78 225.8 159.8"/><polygon class="cls-1" points="223.97 173.69 223.63 173.68 223.64 173.32 223.98 173.33 223.97 173.69"/><polygon class="cls-1" points="215.95 95.45 215.44 95.25 215.63 94.7 216.14 94.9 215.95 95.45"/><polygon class="cls-1" points="218.47 105.03 218.56 104.49 219.08 104.6 218.98 105.14 218.47 105.03"/><polygon class="cls-1" points="217.94 118.66 217.94 118.66 217.94 118.66 217.94 118.66 217.94 118.66"/><polygon class="cls-1" points="218.71 135.82 218.1 135.36 218.53 134.71 219.14 135.17 218.71 135.82"/><polygon class="cls-1" points="219.8 148.62 219.81 148.42 219.99 148.43 219.98 148.63 219.8 148.62"/><polygon class="cls-1" points="217.11 159.54 217.15 159.36 217.33 159.4 217.29 159.59 217.11 159.54"/><polygon class="cls-1" points="216.01 174.16 216.66 174.18 216.64 174.88 215.99 174.86 216.01 174.16"/><polygon class="cls-1" points="209.98 94.95 209.92 94.7 210.16 94.64 210.22 94.89 209.98 94.95"/><polygon class="cls-1" points="209.03 105.23 209.52 105.2 209.54 105.72 209.05 105.75 209.03 105.23"/><polygon class="cls-1" points="211.33 121.39 211.53 121.48 211.44 121.7 211.24 121.61 211.33 121.39"/><polygon class="cls-1" points="212.1 135.33 211.52 135.51 211.35 134.89 211.93 134.71 212.1 135.33"/><polygon class="cls-1" points="209.9 148.13 209.89 148.1 209.93 148.09 209.93 148.12 209.9 148.13"/><polygon class="cls-1" points="209.28 161.85 209.7 161.45 210.07 161.9 209.65 162.29 209.28 161.85"/><polygon class="cls-1" points="211.93 173.2 213.03 173.76 212.51 174.94 211.41 174.38 211.93 173.2"/><polygon class="cls-1" points="205.56 95.82 204.31 95.79 204.34 94.46 205.58 94.49 205.56 95.82"/><polygon class="cls-1" points="204.09 108.16 205.24 108.14 205.27 109.37 204.11 109.4 204.09 108.16"/><polygon class="cls-1" points="203.79 118.33 203.58 117.6 204.27 117.39 204.47 118.12 203.79 118.33"/><polygon class="cls-1" points="204.89 133.5 204.75 132.78 205.41 132.63 205.55 133.34 204.89 133.5"/><polygon class="cls-1" points="203.29 148.38 202.32 148.17 202.51 147.13 203.49 147.34 203.29 148.38"/><polygon class="cls-1" points="206.07 161.55 207.2 161.3 207.44 162.51 206.3 162.77 206.07 161.55"/><polygon class="cls-1" points="206.42 171.98 206.07 171.7 206.34 171.33 206.68 171.61 206.42 171.98"/><polygon class="cls-1" points="195.59 91.16 196.61 90.83 196.91 91.92 195.89 92.25 195.59 91.16"/><polygon class="cls-1" points="196.13 106.79 195.36 107.13 195.05 106.31 195.81 105.97 196.13 106.79"/><polygon class="cls-1" points="196.39 117.58 197.22 117.98 196.84 118.87 196.01 118.46 196.39 117.58"/><polygon class="cls-1" points="198.9 132.04 198.8 132.01 198.83 131.91 198.92 131.94 198.9 132.04"/><polygon class="cls-1" points="198.74 146.46 198.91 146.46 198.9 146.64 198.73 146.63 198.74 146.46"/><polygon class="cls-1" points="197.82 160.56 196.89 160.23 197.21 159.24 198.13 159.57 197.82 160.56"/><polygon class="cls-1" points="196.32 176.79 195.48 175.78 196.43 174.88 197.27 175.89 196.32 176.79"/><polygon class="cls-1" points="192.44 92.59 192.56 92.42 192.73 92.55 192.6 92.73 192.44 92.59"/><polygon class="cls-1" points="190.71 105.85 191.15 105.74 191.25 106.21 190.81 106.32 190.71 105.85"/><polygon class="cls-1" points="189.85 119.16 189.93 119.09 190 119.17 189.93 119.24 189.85 119.16"/><polygon class="cls-1" points="192.88 134.65 191.87 134.67 191.85 133.58 192.87 133.57 192.88 134.65"/><polygon class="cls-1" points="189.65 144.28 190.02 143.81 190.46 144.2 190.09 144.67 189.65 144.28"/><polygon class="cls-1" points="190.65 157.71 191.27 157.89 191.1 158.55 190.48 158.37 190.65 157.71"/><polygon class="cls-1" points="189.02 171.13 189.89 171.21 189.81 172.14 188.94 172.06 189.02 171.13"/><polygon class="cls-1" points="181.13 93.37 182.05 92.61 182.76 93.58 181.84 94.35 181.13 93.37"/><polygon class="cls-1" points="181.02 107.2 181.07 106.34 181.87 106.39 181.83 107.25 181.02 107.2"/><polygon class="cls-1" points="184.5 119.57 184.51 119.55 184.53 119.56 184.52 119.58 184.5 119.57"/><polygon class="cls-1" points="185.24 134.06 185.22 133.78 185.49 133.76 185.51 134.04 185.24 134.06"/><polygon class="cls-1" points="183.52 146.51 183.45 146.18 183.76 146.1 183.84 146.44 183.52 146.51"/><polygon class="cls-1" points="185.23 157.77 185.82 157.23 186.33 157.86 185.74 158.4 185.23 157.77"/><polygon class="cls-1" points="184.65 173.38 184.52 173.41 184.49 173.27 184.62 173.24 184.65 173.38"/><polygon class="cls-1" points="176.48 91.11 176.28 90.97 176.41 90.77 176.61 90.9 176.48 91.11"/><polygon class="cls-1" points="175.67 104.76 175.69 104.46 175.97 104.49 175.95 104.78 175.67 104.76"/><polygon class="cls-1" points="178.49 121.54 179.59 121.29 179.82 122.46 178.73 122.71 178.49 121.54"/><polygon class="cls-1" points="177.45 132.34 177.42 132.06 177.68 132.02 177.72 132.3 177.45 132.34"/><polygon class="cls-1" points="177.01 148.6 176.51 148.72 176.4 148.18 176.9 148.06 177.01 148.6"/><polygon class="cls-1" points="176.5 158.98 176.6 158.98 176.6 159.09 176.5 159.09 176.5 158.98"/><polygon class="cls-1" points="176.92 173.5 176.5 172.37 177.56 171.91 177.98 173.04 176.92 173.5"/><polygon class="cls-1" points="169.96 93.11 170.01 92.73 170.37 92.79 170.31 93.17 169.96 93.11"/><polygon class="cls-1" points="167.71 108.96 167.93 108.58 168.28 108.81 168.07 109.19 167.71 108.96"/><polygon class="cls-1" points="171.67 122.15 171.24 122.33 171.07 121.87 171.5 121.69 171.67 122.15"/><polygon class="cls-1" points="168.04 131.24 168.61 131.14 168.7 131.74 168.14 131.84 168.04 131.24"/><polygon class="cls-1" points="170.54 148.33 170.64 148.01 170.94 148.12 170.84 148.44 170.54 148.33"/><polygon class="cls-1" points="170.47 162.19 170.28 161.65 170.79 161.44 170.98 161.98 170.47 162.19"/><polygon class="cls-1" points="172.39 175.9 172.15 175.96 172.1 175.7 172.34 175.65 172.39 175.9"/><polygon class="cls-1" points="164.37 91.65 164.31 91.64 164.32 91.58 164.38 91.59 164.37 91.65"/><polygon class="cls-1" points="161.55 108.73 161.31 108.41 161.6 108.14 161.85 108.46 161.55 108.73"/><polygon class="cls-1" points="161.02 121.88 161.21 121.12 161.93 121.33 161.73 122.09 161.02 121.88"/><polygon class="cls-1" points="164.57 136.65 164.11 135.82 164.88 135.33 165.34 136.16 164.57 136.65"/><polygon class="cls-1" points="163.18 145.47 162.83 145.55 162.76 145.18 163.1 145.11 163.18 145.47"/><polygon class="cls-1" points="164.1 160.81 164.54 160.74 164.61 161.2 164.18 161.28 164.1 160.81"/><polygon class="cls-1" points="161.29 175.24 161.75 174.88 162.08 175.37 161.63 175.73 161.29 175.24"/><polygon class="cls-1" points="234.09 180.01 233.82 180.13 233.7 179.85 233.97 179.72 234.09 180.01"/><polygon class="cls-1" points="230.5 194.76 230.4 193.87 231.23 193.75 231.34 194.65 230.5 194.76"/><polygon class="cls-1" points="234.25 207.81 234.11 207.84 234.09 207.69 234.23 207.66 234.25 207.81"/><polygon class="cls-1" points="231.83 224.87 232.63 224.11 233.34 224.95 232.55 225.71 231.83 224.87"/><polygon class="cls-1" points="231.62 233.83 231.58 233.78 231.63 233.73 231.67 233.78 231.62 233.83"/><polygon class="cls-1" points="233.52 250.65 232.54 250.59 232.59 249.55 233.57 249.6 233.52 250.65"/><polygon class="cls-1" points="234.16 262.76 234.1 261.43 235.34 261.37 235.4 262.7 234.16 262.76"/><polygon class="cls-1" points="224.16 180.52 223.52 180.7 223.35 180.03 223.99 179.84 224.16 180.52"/><polygon class="cls-1" points="223.45 197.28 222.37 197.8 221.89 196.65 222.97 196.13 223.45 197.28"/><polygon class="cls-1" points="226.82 209.39 225.85 209.6 225.65 208.57 226.61 208.35 226.82 209.39"/><polygon class="cls-1" points="224.48 220.5 224.72 219.82 225.36 220.08 225.11 220.76 224.48 220.5"/><polygon class="cls-1" points="227.11 234.39 227.25 233.46 228.12 233.62 227.98 234.54 227.11 234.39"/><polygon class="cls-1" points="225.8 249.75 225.78 249.59 225.93 249.57 225.95 249.73 225.8 249.75"/><polygon class="cls-1" points="223.97 263.64 223.63 263.63 223.64 263.27 223.98 263.28 223.97 263.64"/><polygon class="cls-1" points="215.95 185.39 215.44 185.2 215.63 184.65 216.14 184.85 215.95 185.39"/><polygon class="cls-1" points="218.47 194.98 218.56 194.44 219.08 194.54 218.98 195.09 218.47 194.98"/><polygon class="cls-1" points="217.94 208.61 217.94 208.6 217.94 208.6 217.94 208.61 217.94 208.61"/><polygon class="cls-1" points="218.71 225.77 218.1 225.31 218.53 224.66 219.14 225.12 218.71 225.77"/><polygon class="cls-1" points="219.8 238.56 219.81 238.37 219.99 238.38 219.98 238.57 219.8 238.56"/><polygon class="cls-1" points="217.11 249.49 217.15 249.3 217.33 249.35 217.29 249.54 217.11 249.49"/><polygon class="cls-1" points="216.01 264.11 216.66 264.13 216.64 264.83 215.99 264.81 216.01 264.11"/><polygon class="cls-1" points="209.98 184.9 209.92 184.64 210.16 184.58 210.22 184.84 209.98 184.9"/><polygon class="cls-1" points="209.03 195.18 209.52 195.15 209.54 195.67 209.05 195.7 209.03 195.18"/><polygon class="cls-1" points="211.33 211.34 211.53 211.43 211.44 211.65 211.24 211.56 211.33 211.34"/><polygon class="cls-1" points="212.1 225.28 211.52 225.46 211.35 224.84 211.93 224.66 212.1 225.28"/><polygon class="cls-1" points="209.9 238.08 209.89 238.04 209.93 238.04 209.93 238.07 209.9 238.08"/><polygon class="cls-1" points="209.28 251.79 209.7 251.4 210.07 251.85 209.65 252.24 209.28 251.79"/><polygon class="cls-1" points="211.93 263.15 213.03 263.71 212.51 264.89 211.41 264.33 211.93 263.15"/><polygon class="cls-1" points="205.56 185.77 204.31 185.74 204.34 184.41 205.58 184.44 205.56 185.77"/><polygon class="cls-1" points="204.09 198.11 205.24 198.08 205.27 199.32 204.11 199.35 204.09 198.11"/><polygon class="cls-1" points="203.79 208.28 203.58 207.55 204.27 207.33 204.47 208.06 203.79 208.28"/><polygon class="cls-1" points="204.89 223.44 204.75 222.73 205.41 222.58 205.55 223.29 204.89 223.44"/><polygon class="cls-1" points="203.29 238.33 202.32 238.12 202.51 237.08 203.49 237.29 203.29 238.33"/><polygon class="cls-1" points="206.07 251.5 207.2 251.25 207.44 252.46 206.3 252.72 206.07 251.5"/><polygon class="cls-1" points="206.42 261.93 206.07 261.65 206.34 261.28 206.68 261.56 206.42 261.93"/><polygon class="cls-1" points="195.59 181.11 196.61 180.78 196.91 181.87 195.89 182.2 195.59 181.11"/><polygon class="cls-1" points="196.13 196.74 195.36 197.08 195.05 196.26 195.81 195.92 196.13 196.74"/><polygon class="cls-1" points="196.39 207.52 197.22 207.93 196.84 208.81 196.01 208.41 196.39 207.52"/><polygon class="cls-1" points="198.9 221.99 198.8 221.96 198.83 221.86 198.92 221.88 198.9 221.99"/><polygon class="cls-1" points="198.74 236.4 198.91 236.41 198.9 236.59 198.73 236.58 198.74 236.4"/><polygon class="cls-1" points="197.82 250.51 196.89 250.18 197.21 249.19 198.13 249.52 197.82 250.51"/><polygon class="cls-1" points="196.32 266.73 195.48 265.72 196.43 264.82 197.27 265.84 196.32 266.73"/><polygon class="cls-1" points="192.44 182.54 192.56 182.37 192.73 182.5 192.6 182.68 192.44 182.54"/><polygon class="cls-1" points="190.71 195.79 191.15 195.69 191.25 196.16 190.81 196.27 190.71 195.79"/><polygon class="cls-1" points="189.85 209.11 189.93 209.03 190 209.11 189.93 209.19 189.85 209.11"/><polygon class="cls-1" points="192.88 224.6 191.87 224.62 191.85 223.53 192.87 223.51 192.88 224.6"/><polygon class="cls-1" points="189.65 234.22 190.02 233.75 190.46 234.15 190.09 234.62 189.65 234.22"/><polygon class="cls-1" points="190.65 247.65 191.27 247.84 191.1 248.5 190.48 248.32 190.65 247.65"/><polygon class="cls-1" points="189.02 261.08 189.89 261.16 189.81 262.08 188.94 262 189.02 261.08"/><polygon class="cls-1" points="181.13 183.32 182.05 182.55 182.76 183.53 181.84 184.3 181.13 183.32"/><polygon class="cls-1" points="181.02 197.15 181.07 196.29 181.87 196.34 181.83 197.2 181.02 197.15"/><polygon class="cls-1" points="184.5 209.52 184.51 209.5 184.53 209.51 184.52 209.52 184.5 209.52"/><polygon class="cls-1" points="185.24 224.01 185.22 223.73 185.49 223.71 185.51 223.99 185.24 224.01"/><polygon class="cls-1" points="183.52 236.46 183.45 236.13 183.76 236.05 183.84 236.38 183.52 236.46"/><polygon class="cls-1" points="185.23 247.72 185.82 247.18 186.33 247.81 185.74 248.35 185.23 247.72"/><polygon class="cls-1" points="184.65 263.33 184.52 263.36 184.49 263.22 184.62 263.19 184.65 263.33"/><polygon class="cls-1" points="176.48 181.06 176.28 180.92 176.41 180.71 176.61 180.85 176.48 181.06"/><polygon class="cls-1" points="175.67 194.71 175.69 194.41 175.97 194.43 175.95 194.73 175.67 194.71"/><polygon class="cls-1" points="178.49 211.49 179.59 211.24 179.82 212.41 178.73 212.66 178.49 211.49"/><polygon class="cls-1" points="177.45 222.28 177.42 222 177.68 221.97 177.72 222.25 177.45 222.28"/><polygon class="cls-1" points="177.01 238.55 176.51 238.66 176.4 238.13 176.9 238.01 177.01 238.55"/><polygon class="cls-1" points="176.5 248.93 176.6 248.92 176.6 249.03 176.5 249.04 176.5 248.93"/><polygon class="cls-1" points="176.92 263.44 176.5 262.31 177.56 261.86 177.98 262.99 176.92 263.44"/><polygon class="cls-1" points="169.96 183.06 170.01 182.68 170.37 182.74 170.31 183.12 169.96 183.06"/><polygon class="cls-1" points="167.71 198.91 167.93 198.53 168.28 198.76 168.07 199.13 167.71 198.91"/><polygon class="cls-1" points="171.67 212.1 171.24 212.27 171.07 211.81 171.5 211.64 171.67 212.1"/><polygon class="cls-1" points="168.04 221.19 168.61 221.09 168.7 221.69 168.14 221.79 168.04 221.19"/><polygon class="cls-1" points="170.54 238.28 170.64 237.96 170.94 238.07 170.84 238.39 170.54 238.28"/><polygon class="cls-1" points="170.47 252.13 170.28 251.59 170.79 251.39 170.98 251.93 170.47 252.13"/><polygon class="cls-1" points="172.39 265.85 172.15 265.91 172.1 265.65 172.34 265.59 172.39 265.85"/><polygon class="cls-1" points="164.37 181.6 164.31 181.59 164.32 181.53 164.38 181.54 164.37 181.6"/><polygon class="cls-1" points="161.55 198.67 161.31 198.35 161.6 198.09 161.85 198.41 161.55 198.67"/><polygon class="cls-1" points="161.02 211.83 161.21 211.07 161.93 211.28 161.73 212.04 161.02 211.83"/><polygon class="cls-1" points="164.57 226.59 164.11 225.77 164.88 225.28 165.34 226.1 164.57 226.59"/><polygon class="cls-1" points="163.18 235.42 162.83 235.5 162.76 235.13 163.1 235.05 163.18 235.42"/><polygon class="cls-1" points="164.1 250.76 164.54 250.68 164.61 251.15 164.18 251.23 164.1 250.76"/><polygon class="cls-1" points="161.29 265.19 161.75 264.83 162.08 265.32 161.63 265.68 161.29 265.19"/><polygon class="cls-1" points="234.09 269.96 233.82 270.08 233.7 269.8 233.97 269.67 234.09 269.96"/><polygon class="cls-1" points="230.5 284.71 230.4 283.82 231.23 283.7 231.34 284.6 230.5 284.71"/><polygon class="cls-1" points="234.25 297.76 234.11 297.78 234.09 297.63 234.23 297.61 234.25 297.76"/><polygon class="cls-1" points="231.83 314.81 232.63 314.05 233.34 314.9 232.55 315.66 231.83 314.81"/><polygon class="cls-1" points="231.62 323.78 231.58 323.72 231.63 323.68 231.67 323.73 231.62 323.78"/><polygon class="cls-1" points="233.52 340.6 232.54 340.54 232.59 339.49 233.57 339.55 233.52 340.6"/><polygon class="cls-1" points="234.16 352.7 234.1 351.38 235.34 351.32 235.4 352.65 234.16 352.7"/><polygon class="cls-1" points="224.16 270.47 223.52 270.65 223.35 269.97 223.99 269.79 224.16 270.47"/><polygon class="cls-1" points="223.45 287.23 222.37 287.75 221.89 286.59 222.97 286.08 223.45 287.23"/><polygon class="cls-1" points="226.82 299.33 225.85 299.55 225.65 298.52 226.61 298.3 226.82 299.33"/><polygon class="cls-1" points="224.48 310.44 224.72 309.77 225.36 310.03 225.11 310.7 224.48 310.44"/><polygon class="cls-1" points="227.11 324.34 227.25 323.41 228.12 323.56 227.98 324.49 227.11 324.34"/><polygon class="cls-1" points="225.8 339.7 225.78 339.54 225.93 339.52 225.95 339.67 225.8 339.7"/><polygon class="cls-1" points="223.97 353.59 223.63 353.58 223.64 353.21 223.98 353.22 223.97 353.59"/><polygon class="cls-1" points="215.95 275.34 215.44 275.14 215.63 274.6 216.14 274.8 215.95 275.34"/><polygon class="cls-1" points="218.47 284.93 218.56 284.38 219.08 284.49 218.98 285.04 218.47 284.93"/><polygon class="cls-1" points="217.94 298.56 217.94 298.55 217.94 298.55 217.94 298.55 217.94 298.56"/><polygon class="cls-1" points="218.71 315.72 218.1 315.26 218.53 314.61 219.14 315.07 218.71 315.72"/><polygon class="cls-1" points="219.8 328.51 219.81 328.32 219.99 328.33 219.98 328.52 219.8 328.51"/><polygon class="cls-1" points="217.11 339.44 217.15 339.25 217.33 339.3 217.29 339.49 217.11 339.44"/><polygon class="cls-1" points="216.01 354.06 216.66 354.08 216.64 354.77 215.99 354.75 216.01 354.06"/><polygon class="cls-1" points="209.98 274.84 209.92 274.59 210.16 274.53 210.22 274.78 209.98 274.84"/><polygon class="cls-1" points="209.03 285.12 209.52 285.1 209.54 285.62 209.05 285.64 209.03 285.12"/><polygon class="cls-1" points="211.33 301.29 211.53 301.38 211.44 301.6 211.24 301.5 211.33 301.29"/><polygon class="cls-1" points="212.1 315.23 211.52 315.4 211.35 314.78 211.93 314.61 212.1 315.23"/><polygon class="cls-1" points="209.9 328.02 209.89 327.99 209.93 327.99 209.93 328.02 209.9 328.02"/><polygon class="cls-1" points="209.28 341.74 209.7 341.35 210.07 341.8 209.65 342.19 209.28 341.74"/><polygon class="cls-1" points="211.93 353.1 213.03 353.65 212.51 354.84 211.41 354.28 211.93 353.1"/><polygon class="cls-1" points="205.56 275.71 204.31 275.69 204.34 274.36 205.58 274.38 205.56 275.71"/><polygon class="cls-1" points="204.09 288.06 205.24 288.03 205.27 289.27 204.11 289.3 204.09 288.06"/><polygon class="cls-1" points="203.79 298.23 203.58 297.5 204.27 297.28 204.47 298.01 203.79 298.23"/><polygon class="cls-1" points="204.89 313.39 204.75 312.68 205.41 312.53 205.55 313.24 204.89 313.39"/><polygon class="cls-1" points="203.29 328.27 202.32 328.07 202.51 327.03 203.49 327.23 203.29 328.27"/><polygon class="cls-1" points="206.07 341.45 207.2 341.19 207.44 342.41 206.3 342.66 206.07 341.45"/><polygon class="cls-1" points="206.42 351.88 206.07 351.6 206.34 351.23 206.68 351.51 206.42 351.88"/><polygon class="cls-1" points="195.59 271.06 196.61 270.73 196.91 271.82 195.89 272.15 195.59 271.06"/><polygon class="cls-1" points="196.13 286.69 195.36 287.02 195.05 286.2 195.81 285.87 196.13 286.69"/><polygon class="cls-1" points="196.39 297.47 197.22 297.88 196.84 298.76 196.01 298.36 196.39 297.47"/><polygon class="cls-1" points="198.9 311.93 198.8 311.91 198.83 311.8 198.92 311.83 198.9 311.93"/><polygon class="cls-1" points="198.74 326.35 198.91 326.36 198.9 326.54 198.73 326.53 198.74 326.35"/><polygon class="cls-1" points="197.82 340.46 196.89 340.12 197.21 339.13 198.13 339.47 197.82 340.46"/><polygon class="cls-1" points="196.32 356.68 195.48 355.67 196.43 354.77 197.27 355.78 196.32 356.68"/><polygon class="cls-1" points="192.44 272.49 192.56 272.31 192.73 272.45 192.6 272.63 192.44 272.49"/><polygon class="cls-1" points="190.71 285.74 191.15 285.63 191.25 286.11 190.81 286.21 190.71 285.74"/><polygon class="cls-1" points="189.85 299.06 189.93 298.98 190 299.06 189.93 299.14 189.85 299.06"/><polygon class="cls-1" points="192.88 314.55 191.87 314.56 191.85 313.48 192.87 313.46 192.88 314.55"/><polygon class="cls-1" points="189.65 324.17 190.02 323.7 190.46 324.1 190.09 324.57 189.65 324.17"/><polygon class="cls-1" points="190.65 337.6 191.27 337.78 191.1 338.45 190.48 338.26 190.65 337.6"/><polygon class="cls-1" points="189.02 351.02 189.89 351.11 189.81 352.03 188.94 351.95 189.02 351.02"/><polygon class="cls-1" points="181.13 273.26 182.05 272.5 182.76 273.48 181.84 274.24 181.13 273.26"/><polygon class="cls-1" points="181.02 287.09 181.07 286.24 181.87 286.29 181.83 287.14 181.02 287.09"/><polygon class="cls-1" points="184.5 299.46 184.51 299.45 184.53 299.46 184.52 299.47 184.5 299.46"/><polygon class="cls-1" points="185.24 313.96 185.22 313.67 185.49 313.65 185.51 313.94 185.24 313.96"/><polygon class="cls-1" points="183.52 326.41 183.45 326.07 183.76 326 183.84 326.33 183.52 326.41"/><polygon class="cls-1" points="185.23 337.67 185.82 337.12 186.33 337.75 185.74 338.3 185.23 337.67"/><polygon class="cls-1" points="184.65 353.28 184.52 353.31 184.49 353.17 184.62 353.13 184.65 353.28"/><polygon class="cls-1" points="176.48 271.01 176.28 270.87 176.41 270.66 176.61 270.8 176.48 271.01"/><polygon class="cls-1" points="175.67 284.65 175.69 284.36 175.97 284.38 175.95 284.68 175.67 284.65"/><polygon class="cls-1" points="178.49 301.44 179.59 301.18 179.82 302.36 178.73 302.61 178.49 301.44"/><polygon class="cls-1" points="177.45 312.23 177.42 311.95 177.68 311.92 177.72 312.2 177.45 312.23"/><polygon class="cls-1" points="177.01 328.5 176.51 328.61 176.4 328.07 176.9 327.96 177.01 328.5"/><polygon class="cls-1" points="176.5 338.88 176.6 338.87 176.6 338.98 176.5 338.99 176.5 338.88"/><polygon class="cls-1" points="176.92 353.39 176.5 352.26 177.56 351.81 177.98 352.94 176.92 353.39"/><polygon class="cls-1" points="169.96 273.01 170.01 272.62 170.37 272.68 170.31 273.07 169.96 273.01"/><polygon class="cls-1" points="167.71 288.85 167.93 288.48 168.28 288.7 168.07 289.08 167.71 288.85"/><polygon class="cls-1" points="171.67 302.04 171.24 302.22 171.07 301.76 171.5 301.59 171.67 302.04"/><polygon class="cls-1" points="168.04 311.14 168.61 311.04 168.7 311.64 168.14 311.74 168.04 311.14"/><polygon class="cls-1" points="170.54 328.22 170.64 327.9 170.94 328.02 170.84 328.33 170.54 328.22"/><polygon class="cls-1" points="170.47 342.08 170.28 341.54 170.79 341.33 170.98 341.88 170.47 342.08"/><polygon class="cls-1" points="172.39 355.8 172.15 355.85 172.1 355.6 172.34 355.54 172.39 355.8"/><polygon class="cls-1" points="164.37 271.55 164.31 271.54 164.32 271.48 164.38 271.49 164.37 271.55"/><polygon class="cls-1" points="161.55 288.62 161.31 288.3 161.6 288.04 161.85 288.36 161.55 288.62"/><polygon class="cls-1" points="161.02 301.78 161.21 301.02 161.93 301.22 161.73 301.99 161.02 301.78"/><polygon class="cls-1" points="164.57 316.54 164.11 315.72 164.88 315.23 165.34 316.05 164.57 316.54"/><polygon class="cls-1" points="163.18 325.37 162.83 325.45 162.76 325.08 163.1 325 163.18 325.37"/><polygon class="cls-1" points="164.1 340.71 164.54 340.63 164.61 341.1 164.18 341.18 164.1 340.71"/><polygon class="cls-1" points="161.29 355.13 161.75 354.78 162.08 355.27 161.63 355.62 161.29 355.13"/><polygon class="cls-1" points="157.66 -0.1 157.95 -0.15 158 0.16 157.71 0.21 157.66 -0.1"/><polygon class="cls-1" points="157.46 18.67 157.22 17.66 158.17 17.4 158.41 18.41 157.46 18.67"/><polygon class="cls-1" points="157.33 28.11 157.7 27.22 158.53 27.61 158.16 28.5 157.33 28.11"/><polygon class="cls-1" points="158.54 43.91 157.44 43.25 158.06 42.08 159.16 42.74 158.54 43.91"/><polygon class="cls-1" points="156.56 55.57 156.51 55.27 156.79 55.2 156.85 55.51 156.56 55.57"/><polygon class="cls-1" points="155.39 68.46 154.58 68.97 154.1 68.1 154.91 67.59 155.39 68.46"/><polygon class="cls-1" points="158.17 83.84 157.35 83.58 157.59 82.7 158.41 82.96 158.17 83.84"/><polygon class="cls-1" points="151.9 0.11 151.63 0.24 151.52 -0.05 151.78 -0.17 151.9 0.11"/><polygon class="cls-1" points="148.31 14.87 148.21 13.97 149.05 13.86 149.15 14.76 148.31 14.87"/><polygon class="cls-1" points="152.06 27.91 151.93 27.94 151.9 27.79 152.04 27.77 152.06 27.91"/><polygon class="cls-1" points="149.65 44.97 150.44 44.21 151.15 45.06 150.36 45.82 149.65 44.97"/><polygon class="cls-1" points="149.44 53.94 149.39 53.88 149.44 53.84 149.49 53.89 149.44 53.94"/><polygon class="cls-1" points="151.33 70.76 150.35 70.7 150.4 69.65 151.38 69.71 151.33 70.76"/><polygon class="cls-1" points="151.97 82.86 151.91 81.53 153.16 81.48 153.21 82.8 151.97 82.86"/><polygon class="cls-1" points="141.97 0.63 141.33 0.81 141.16 0.13 141.8 -0.05 141.97 0.63"/><polygon class="cls-1" points="141.26 17.39 140.18 17.9 139.7 16.75 140.78 16.23 141.26 17.39"/><polygon class="cls-1" points="144.63 29.49 143.66 29.71 143.46 28.68 144.42 28.46 144.63 29.49"/><polygon class="cls-1" points="142.29 40.6 142.54 39.92 143.17 40.19 142.92 40.86 142.29 40.6"/><polygon class="cls-1" points="144.92 54.5 145.06 53.57 145.93 53.72 145.79 54.65 144.92 54.5"/><polygon class="cls-1" points="143.62 69.86 143.59 69.7 143.74 69.68 143.76 69.83 143.62 69.86"/><polygon class="cls-1" points="141.78 83.75 141.44 83.74 141.45 83.37 141.79 83.38 141.78 83.75"/><polygon class="cls-1" points="133.76 5.5 133.26 5.3 133.44 4.76 133.95 4.96 133.76 5.5"/><polygon class="cls-1" points="136.28 15.09 136.38 14.54 136.89 14.65 136.79 15.19 136.28 15.09"/><polygon class="cls-1" points="135.75 28.71 135.75 28.71 135.75 28.71 135.75 28.71 135.75 28.71"/><polygon class="cls-1" points="136.52 45.88 135.91 45.42 136.34 44.77 136.95 45.23 136.52 45.88"/><polygon class="cls-1" points="137.62 58.67 137.63 58.47 137.81 58.48 137.8 58.68 137.62 58.67"/><polygon class="cls-1" points="134.92 69.6 134.97 69.41 135.14 69.45 135.1 69.64 134.92 69.6"/><polygon class="cls-1" points="133.82 84.21 134.47 84.23 134.45 84.93 133.8 84.91 133.82 84.21"/><polygon class="cls-1" points="127.79 5 127.74 4.75 127.97 4.69 128.03 4.94 127.79 5"/><polygon class="cls-1" points="126.84 15.28 127.33 15.26 127.35 15.78 126.86 15.8 126.84 15.28"/><polygon class="cls-1" points="129.14 31.45 129.34 31.54 129.26 31.75 129.06 31.66 129.14 31.45"/><polygon class="cls-1" points="129.91 45.38 129.33 45.56 129.17 44.94 129.75 44.77 129.91 45.38"/><polygon class="cls-1" points="127.71 58.18 127.71 58.15 127.74 58.14 127.74 58.18 127.71 58.18"/><polygon class="cls-1" points="127.09 71.9 127.51 71.5 127.88 71.95 127.46 72.35 127.09 71.9"/><polygon class="cls-1" points="129.74 83.25 130.85 83.81 130.32 84.99 129.22 84.44 129.74 83.25"/><polygon class="cls-1" points="123.37 5.87 122.12 5.84 122.15 4.52 123.39 4.54 123.37 5.87"/><polygon class="cls-1" points="121.9 18.22 123.06 18.19 123.08 19.42 121.93 19.45 121.9 18.22"/><polygon class="cls-1" points="121.6 28.39 121.4 27.65 122.08 27.44 122.28 28.17 121.6 28.39"/><polygon class="cls-1" points="122.7 43.55 122.56 42.84 123.22 42.69 123.37 43.4 122.7 43.55"/><polygon class="cls-1" points="121.11 58.43 120.13 58.23 120.33 57.19 121.3 57.39 121.11 58.43"/><polygon class="cls-1" points="123.88 71.61 125.02 71.35 125.25 72.57 124.12 72.82 123.88 71.61"/><polygon class="cls-1" points="124.23 82.03 123.89 81.75 124.15 81.39 124.5 81.67 124.23 82.03"/><polygon class="cls-1" points="113.4 1.22 114.42 0.89 114.73 1.98 113.71 2.3 113.4 1.22"/><polygon class="cls-1" points="113.94 16.84 113.17 17.18 112.86 16.36 113.63 16.02 113.94 16.84"/><polygon class="cls-1" points="114.21 27.63 115.03 28.03 114.66 28.92 113.83 28.51 114.21 27.63"/><polygon class="cls-1" points="116.71 42.09 116.62 42.06 116.64 41.96 116.74 41.99 116.71 42.09"/><polygon class="cls-1" points="116.55 56.51 116.72 56.51 116.71 56.69 116.54 56.69 116.55 56.51"/><polygon class="cls-1" points="115.63 70.61 114.71 70.28 115.02 69.29 115.94 69.63 115.63 70.61"/><polygon class="cls-1" points="114.14 86.84 113.3 85.83 114.24 84.93 115.08 85.94 114.14 86.84"/><polygon class="cls-1" points="110.25 2.65 110.38 2.47 110.54 2.61 110.42 2.78 110.25 2.65"/><polygon class="cls-1" points="108.52 15.9 108.96 15.79 109.06 16.26 108.62 16.37 108.52 15.9"/><polygon class="cls-1" points="107.67 29.22 107.74 29.14 107.81 29.22 107.74 29.29 107.67 29.22"/><polygon class="cls-1" points="110.7 44.7 109.68 44.72 109.67 43.64 110.68 43.62 110.7 44.7"/><polygon class="cls-1" points="107.46 54.33 107.83 53.86 108.27 54.25 107.9 54.73 107.46 54.33"/><polygon class="cls-1" points="108.47 67.76 109.09 67.94 108.92 68.6 108.3 68.42 108.47 67.76"/><polygon class="cls-1" points="106.83 81.18 107.7 81.26 107.62 82.19 106.76 82.11 106.83 81.18"/><polygon class="cls-1" points="98.94 3.42 99.86 2.66 100.57 3.64 99.66 4.4 98.94 3.42"/><polygon class="cls-1" points="98.84 17.25 98.88 16.39 99.69 16.44 99.64 17.3 98.84 17.25"/><polygon class="cls-1" points="102.32 29.62 102.32 29.61 102.34 29.61 102.33 29.63 102.32 29.62"/><polygon class="cls-1" points="103.05 44.12 103.03 43.83 103.3 43.81 103.32 44.1 103.05 44.12"/><polygon class="cls-1" points="101.33 56.57 101.26 56.23 101.58 56.15 101.65 56.49 101.33 56.57"/><polygon class="cls-1" points="103.04 67.82 103.63 67.28 104.14 67.91 103.55 68.45 103.04 67.82"/><polygon class="cls-1" points="102.46 83.43 102.33 83.47 102.3 83.32 102.43 83.29 102.46 83.43"/><polygon class="cls-1" points="94.29 1.16 94.1 1.02 94.23 0.82 94.42 0.96 94.29 1.16"/><polygon class="cls-1" points="93.49 14.81 93.51 14.52 93.78 14.54 93.76 14.83 93.49 14.81"/><polygon class="cls-1" points="96.31 31.59 97.4 31.34 97.64 32.51 96.54 32.76 96.31 31.59"/><polygon class="cls-1" points="95.27 42.39 95.23 42.11 95.5 42.08 95.53 42.35 95.27 42.39"/><polygon class="cls-1" points="94.82 58.65 94.32 58.77 94.21 58.23 94.72 58.12 94.82 58.65"/><polygon class="cls-1" points="94.31 69.03 94.41 69.03 94.42 69.14 94.31 69.14 94.31 69.03"/><polygon class="cls-1" points="94.73 83.55 94.31 82.42 95.37 81.97 95.79 83.09 94.73 83.55"/><polygon class="cls-1" points="87.77 3.17 87.82 2.78 88.18 2.84 88.13 3.22 87.77 3.17"/><polygon class="cls-1" points="85.53 19.01 85.74 18.63 86.09 18.86 85.88 19.24 85.53 19.01"/><polygon class="cls-1" points="89.48 32.2 89.05 32.38 88.89 31.92 89.31 31.74 89.48 32.2"/><polygon class="cls-1" points="85.86 41.3 86.42 41.19 86.52 41.8 85.95 41.9 85.86 41.3"/><polygon class="cls-1" points="88.35 58.38 88.46 58.06 88.75 58.17 88.65 58.49 88.35 58.38"/><polygon class="cls-1" points="88.29 72.24 88.09 71.7 88.6 71.49 88.79 72.03 88.29 72.24"/><polygon class="cls-1" points="90.2 85.96 89.96 86.01 89.91 85.75 90.15 85.7 90.2 85.96"/><polygon class="cls-1" points="82.18 1.71 82.12 1.7 82.13 1.64 82.19 1.65 82.18 1.71"/><polygon class="cls-1" points="79.36 18.78 79.12 18.46 79.42 18.2 79.66 18.52 79.36 18.78"/><polygon class="cls-1" points="78.83 31.94 79.03 31.18 79.74 31.38 79.55 32.14 78.83 31.94"/><polygon class="cls-1" points="82.38 46.7 81.92 45.87 82.7 45.38 83.16 46.21 82.38 46.7"/><polygon class="cls-1" points="80.99 55.52 80.64 55.6 80.57 55.24 80.92 55.16 80.99 55.52"/><polygon class="cls-1" points="81.91 70.87 82.35 70.79 82.42 71.25 81.99 71.33 81.91 70.87"/><polygon class="cls-1" points="79.11 85.29 79.56 84.94 79.89 85.42 79.44 85.78 79.11 85.29"/><polygon class="cls-1" points="157.66 89.85 157.95 89.79 158 90.11 157.71 90.16 157.66 89.85"/><polygon class="cls-1" points="157.46 108.61 157.22 107.6 158.17 107.35 158.41 108.36 157.46 108.61"/><polygon class="cls-1" points="157.33 118.05 157.7 117.17 158.53 117.56 158.16 118.44 157.33 118.05"/><polygon class="cls-1" points="158.54 133.86 157.44 133.2 158.06 132.02 159.16 132.69 158.54 133.86"/><polygon class="cls-1" points="156.56 145.52 156.51 145.22 156.79 145.15 156.85 145.46 156.56 145.52"/><polygon class="cls-1" points="155.39 158.41 154.58 158.92 154.1 158.05 154.91 157.54 155.39 158.41"/><polygon class="cls-1" points="158.17 173.78 157.35 173.53 157.59 172.65 158.41 172.91 158.17 173.78"/><polygon class="cls-1" points="151.9 90.06 151.63 90.19 151.52 89.9 151.78 89.77 151.9 90.06"/><polygon class="cls-1" points="148.31 104.82 148.21 103.92 149.05 103.81 149.15 104.7 148.31 104.82"/><polygon class="cls-1" points="152.06 117.86 151.93 117.89 151.9 117.74 152.04 117.71 152.06 117.86"/><polygon class="cls-1" points="149.65 134.92 150.44 134.16 151.15 135.01 150.36 135.77 149.65 134.92"/><polygon class="cls-1" points="149.44 143.88 149.39 143.83 149.44 143.78 149.49 143.84 149.44 143.88"/><polygon class="cls-1" points="151.33 160.7 150.35 160.65 150.4 159.6 151.38 159.66 151.33 160.7"/><polygon class="cls-1" points="151.97 172.81 151.91 171.48 153.16 171.42 153.21 172.75 151.97 172.81"/><polygon class="cls-1" points="141.97 90.58 141.33 90.76 141.16 90.08 141.8 89.9 141.97 90.58"/><polygon class="cls-1" points="141.26 107.33 140.18 107.85 139.7 106.7 140.78 106.18 141.26 107.33"/><polygon class="cls-1" points="144.63 119.44 143.66 119.66 143.46 118.63 144.42 118.41 144.63 119.44"/><polygon class="cls-1" points="142.29 130.55 142.54 129.87 143.17 130.13 142.92 130.81 142.29 130.55"/><polygon class="cls-1" points="144.92 144.44 145.06 143.51 145.93 143.67 145.79 144.6 144.92 144.44"/><polygon class="cls-1" points="143.62 159.8 143.59 159.65 143.74 159.62 143.76 159.78 143.62 159.8"/><polygon class="cls-1" points="141.78 173.69 141.44 173.68 141.45 173.32 141.79 173.33 141.78 173.69"/><polygon class="cls-1" points="133.76 95.45 133.26 95.25 133.44 94.7 133.95 94.9 133.76 95.45"/><polygon class="cls-1" points="136.28 105.03 136.38 104.49 136.89 104.6 136.79 105.14 136.28 105.03"/><polygon class="cls-1" points="135.75 118.66 135.75 118.66 135.75 118.66 135.75 118.66 135.75 118.66"/><polygon class="cls-1" points="136.52 135.82 135.91 135.36 136.34 134.71 136.95 135.17 136.52 135.82"/><polygon class="cls-1" points="137.62 148.62 137.63 148.42 137.81 148.43 137.8 148.63 137.62 148.62"/><polygon class="cls-1" points="134.92 159.54 134.97 159.36 135.14 159.4 135.1 159.59 134.92 159.54"/><polygon class="cls-1" points="133.82 174.16 134.47 174.18 134.45 174.88 133.8 174.86 133.82 174.16"/><polygon class="cls-1" points="127.79 94.95 127.74 94.7 127.97 94.64 128.03 94.89 127.79 94.95"/><polygon class="cls-1" points="126.84 105.23 127.33 105.2 127.35 105.72 126.86 105.75 126.84 105.23"/><polygon class="cls-1" points="129.14 121.39 129.34 121.48 129.26 121.7 129.06 121.61 129.14 121.39"/><polygon class="cls-1" points="129.91 135.33 129.33 135.51 129.17 134.89 129.75 134.71 129.91 135.33"/><polygon class="cls-1" points="127.71 148.13 127.71 148.1 127.74 148.09 127.74 148.12 127.71 148.13"/><polygon class="cls-1" points="127.09 161.85 127.51 161.45 127.88 161.9 127.46 162.29 127.09 161.85"/><polygon class="cls-1" points="129.74 173.2 130.85 173.76 130.32 174.94 129.22 174.38 129.74 173.2"/><polygon class="cls-1" points="123.37 95.82 122.12 95.79 122.15 94.46 123.39 94.49 123.37 95.82"/><polygon class="cls-1" points="121.9 108.16 123.06 108.14 123.08 109.37 121.93 109.4 121.9 108.16"/><polygon class="cls-1" points="121.6 118.33 121.4 117.6 122.08 117.39 122.28 118.12 121.6 118.33"/><polygon class="cls-1" points="122.7 133.5 122.56 132.78 123.22 132.63 123.37 133.34 122.7 133.5"/><polygon class="cls-1" points="121.11 148.38 120.13 148.17 120.33 147.13 121.3 147.34 121.11 148.38"/><polygon class="cls-1" points="123.88 161.55 125.02 161.3 125.25 162.51 124.12 162.77 123.88 161.55"/><polygon class="cls-1" points="124.23 171.98 123.89 171.7 124.15 171.33 124.5 171.61 124.23 171.98"/><polygon class="cls-1" points="113.4 91.16 114.42 90.83 114.73 91.92 113.71 92.25 113.4 91.16"/><polygon class="cls-1" points="113.94 106.79 113.17 107.13 112.86 106.31 113.63 105.97 113.94 106.79"/><polygon class="cls-1" points="114.21 117.58 115.03 117.98 114.66 118.87 113.83 118.46 114.21 117.58"/><polygon class="cls-1" points="116.71 132.04 116.62 132.01 116.64 131.91 116.74 131.94 116.71 132.04"/><polygon class="cls-1" points="116.55 146.46 116.72 146.46 116.71 146.64 116.54 146.63 116.55 146.46"/><polygon class="cls-1" points="115.63 160.56 114.71 160.23 115.02 159.24 115.94 159.57 115.63 160.56"/><polygon class="cls-1" points="114.14 176.79 113.3 175.78 114.24 174.88 115.08 175.89 114.14 176.79"/><polygon class="cls-1" points="110.25 92.59 110.38 92.42 110.54 92.55 110.42 92.73 110.25 92.59"/><polygon class="cls-1" points="108.52 105.85 108.96 105.74 109.06 106.21 108.62 106.32 108.52 105.85"/><polygon class="cls-1" points="107.67 119.16 107.74 119.09 107.81 119.17 107.74 119.24 107.67 119.16"/><polygon class="cls-1" points="110.7 134.65 109.68 134.67 109.67 133.58 110.68 133.57 110.7 134.65"/><polygon class="cls-1" points="107.46 144.28 107.83 143.81 108.27 144.2 107.9 144.67 107.46 144.28"/><polygon class="cls-1" points="108.47 157.71 109.09 157.89 108.92 158.55 108.3 158.37 108.47 157.71"/><polygon class="cls-1" points="106.83 171.13 107.7 171.21 107.62 172.14 106.76 172.06 106.83 171.13"/><polygon class="cls-1" points="98.94 93.37 99.86 92.61 100.57 93.58 99.66 94.35 98.94 93.37"/><polygon class="cls-1" points="98.84 107.2 98.88 106.34 99.69 106.39 99.64 107.25 98.84 107.2"/><polygon class="cls-1" points="102.32 119.57 102.32 119.55 102.34 119.56 102.33 119.58 102.32 119.57"/><polygon class="cls-1" points="103.05 134.06 103.03 133.78 103.3 133.76 103.32 134.04 103.05 134.06"/><polygon class="cls-1" points="101.33 146.51 101.26 146.18 101.58 146.1 101.65 146.44 101.33 146.51"/><polygon class="cls-1" points="103.04 157.77 103.63 157.23 104.14 157.86 103.55 158.4 103.04 157.77"/><polygon class="cls-1" points="102.46 173.38 102.33 173.41 102.3 173.27 102.43 173.24 102.46 173.38"/><polygon class="cls-1" points="94.29 91.11 94.1 90.97 94.23 90.77 94.42 90.9 94.29 91.11"/><polygon class="cls-1" points="93.49 104.76 93.51 104.46 93.78 104.49 93.76 104.78 93.49 104.76"/><polygon class="cls-1" points="96.31 121.54 97.4 121.29 97.64 122.46 96.54 122.71 96.31 121.54"/><polygon class="cls-1" points="95.27 132.34 95.23 132.06 95.5 132.02 95.53 132.3 95.27 132.34"/><polygon class="cls-1" points="94.82 148.6 94.32 148.72 94.21 148.18 94.72 148.06 94.82 148.6"/><polygon class="cls-1" points="94.31 158.98 94.41 158.98 94.42 159.09 94.31 159.09 94.31 158.98"/><polygon class="cls-1" points="94.73 173.5 94.31 172.37 95.37 171.91 95.79 173.04 94.73 173.5"/><polygon class="cls-1" points="87.77 93.11 87.82 92.73 88.18 92.79 88.13 93.17 87.77 93.11"/><polygon class="cls-1" points="85.53 108.96 85.74 108.58 86.09 108.81 85.88 109.19 85.53 108.96"/><polygon class="cls-1" points="89.48 122.15 89.05 122.33 88.89 121.87 89.31 121.69 89.48 122.15"/><polygon class="cls-1" points="85.86 131.24 86.42 131.14 86.52 131.74 85.95 131.84 85.86 131.24"/><polygon class="cls-1" points="88.35 148.33 88.46 148.01 88.75 148.12 88.65 148.44 88.35 148.33"/><polygon class="cls-1" points="88.29 162.19 88.09 161.65 88.6 161.44 88.79 161.98 88.29 162.19"/><polygon class="cls-1" points="90.2 175.9 89.96 175.96 89.91 175.7 90.15 175.65 90.2 175.9"/><polygon class="cls-1" points="82.18 91.65 82.12 91.64 82.13 91.58 82.19 91.59 82.18 91.65"/><polygon class="cls-1" points="79.36 108.73 79.12 108.41 79.42 108.14 79.66 108.46 79.36 108.73"/><polygon class="cls-1" points="78.83 121.88 79.03 121.12 79.74 121.33 79.55 122.09 78.83 121.88"/><polygon class="cls-1" points="82.38 136.65 81.92 135.82 82.7 135.33 83.16 136.16 82.38 136.65"/><polygon class="cls-1" points="80.99 145.47 80.64 145.55 80.57 145.18 80.92 145.11 80.99 145.47"/><polygon class="cls-1" points="81.91 160.81 82.35 160.74 82.42 161.2 81.99 161.28 81.91 160.81"/><polygon class="cls-1" points="79.11 175.24 79.56 174.88 79.89 175.37 79.44 175.73 79.11 175.24"/><polygon class="cls-1" points="157.66 179.8 157.95 179.74 158 180.05 157.71 180.11 157.66 179.8"/><polygon class="cls-1" points="157.46 198.56 157.22 197.55 158.17 197.29 158.41 198.31 157.46 198.56"/><polygon class="cls-1" points="157.33 208 157.7 207.12 158.53 207.51 158.16 208.39 157.33 208"/><polygon class="cls-1" points="158.54 223.81 157.44 223.15 158.06 221.97 159.16 222.63 158.54 223.81"/><polygon class="cls-1" points="156.56 235.47 156.51 235.16 156.79 235.1 156.85 235.41 156.56 235.47"/><polygon class="cls-1" points="155.39 248.35 154.58 248.86 154.1 248 154.91 247.49 155.39 248.35"/><polygon class="cls-1" points="158.17 263.73 157.35 263.47 157.59 262.6 158.41 262.86 158.17 263.73"/><polygon class="cls-1" points="151.9 180.01 151.63 180.13 151.52 179.85 151.78 179.72 151.9 180.01"/><polygon class="cls-1" points="148.31 194.76 148.21 193.87 149.05 193.75 149.15 194.65 148.31 194.76"/><polygon class="cls-1" points="152.06 207.81 151.93 207.84 151.9 207.69 152.04 207.66 152.06 207.81"/><polygon class="cls-1" points="149.65 224.87 150.44 224.11 151.15 224.95 150.36 225.71 149.65 224.87"/><polygon class="cls-1" points="149.44 233.83 149.39 233.78 149.44 233.73 149.49 233.78 149.44 233.83"/><polygon class="cls-1" points="151.33 250.65 150.35 250.59 150.4 249.55 151.38 249.6 151.33 250.65"/><polygon class="cls-1" points="151.97 262.76 151.91 261.43 153.16 261.37 153.21 262.7 151.97 262.76"/><polygon class="cls-1" points="141.97 180.52 141.33 180.7 141.16 180.03 141.8 179.84 141.97 180.52"/><polygon class="cls-1" points="141.26 197.28 140.18 197.8 139.7 196.65 140.78 196.13 141.26 197.28"/><polygon class="cls-1" points="144.63 209.39 143.66 209.6 143.46 208.57 144.42 208.35 144.63 209.39"/><polygon class="cls-1" points="142.29 220.5 142.54 219.82 143.17 220.08 142.92 220.76 142.29 220.5"/><polygon class="cls-1" points="144.92 234.39 145.06 233.46 145.93 233.62 145.79 234.54 144.92 234.39"/><polygon class="cls-1" points="143.62 249.75 143.59 249.59 143.74 249.57 143.76 249.73 143.62 249.75"/><polygon class="cls-1" points="141.78 263.64 141.44 263.63 141.45 263.27 141.79 263.28 141.78 263.64"/><polygon class="cls-1" points="133.76 185.39 133.26 185.2 133.44 184.65 133.95 184.85 133.76 185.39"/><polygon class="cls-1" points="136.28 194.98 136.38 194.44 136.89 194.54 136.79 195.09 136.28 194.98"/><polygon class="cls-1" points="135.75 208.61 135.75 208.6 135.75 208.6 135.75 208.61 135.75 208.61"/><polygon class="cls-1" points="136.52 225.77 135.91 225.31 136.34 224.66 136.95 225.12 136.52 225.77"/><polygon class="cls-1" points="137.62 238.56 137.63 238.37 137.81 238.38 137.8 238.57 137.62 238.56"/><polygon class="cls-1" points="134.92 249.49 134.97 249.3 135.14 249.35 135.1 249.54 134.92 249.49"/><polygon class="cls-1" points="133.82 264.11 134.47 264.13 134.45 264.83 133.8 264.81 133.82 264.11"/><polygon class="cls-1" points="127.79 184.9 127.74 184.64 127.97 184.58 128.03 184.84 127.79 184.9"/><polygon class="cls-1" points="126.84 195.18 127.33 195.15 127.35 195.67 126.86 195.7 126.84 195.18"/><polygon class="cls-1" points="129.14 211.34 129.34 211.43 129.26 211.65 129.06 211.56 129.14 211.34"/><polygon class="cls-1" points="129.91 225.28 129.33 225.46 129.17 224.84 129.75 224.66 129.91 225.28"/><polygon class="cls-1" points="127.71 238.08 127.71 238.04 127.74 238.04 127.74 238.07 127.71 238.08"/><polygon class="cls-1" points="127.09 251.79 127.51 251.4 127.88 251.85 127.46 252.24 127.09 251.79"/><polygon class="cls-1" points="129.74 263.15 130.85 263.71 130.32 264.89 129.22 264.33 129.74 263.15"/><polygon class="cls-1" points="123.37 185.77 122.12 185.74 122.15 184.41 123.39 184.44 123.37 185.77"/><polygon class="cls-1" points="121.9 198.11 123.06 198.08 123.08 199.32 121.93 199.35 121.9 198.11"/><polygon class="cls-1" points="121.6 208.28 121.4 207.55 122.08 207.33 122.28 208.06 121.6 208.28"/><polygon class="cls-1" points="122.7 223.44 122.56 222.73 123.22 222.58 123.37 223.29 122.7 223.44"/><polygon class="cls-1" points="121.11 238.33 120.13 238.12 120.33 237.08 121.3 237.29 121.11 238.33"/><polygon class="cls-1" points="123.88 251.5 125.02 251.25 125.25 252.46 124.12 252.72 123.88 251.5"/><polygon class="cls-1" points="124.23 261.93 123.89 261.65 124.15 261.28 124.5 261.56 124.23 261.93"/><polygon class="cls-1" points="113.4 181.11 114.42 180.78 114.73 181.87 113.71 182.2 113.4 181.11"/><polygon class="cls-1" points="113.94 196.74 113.17 197.08 112.86 196.26 113.63 195.92 113.94 196.74"/><polygon class="cls-1" points="114.21 207.52 115.03 207.93 114.66 208.81 113.83 208.41 114.21 207.52"/><polygon class="cls-1" points="116.71 221.99 116.62 221.96 116.64 221.86 116.74 221.88 116.71 221.99"/><polygon class="cls-1" points="116.55 236.4 116.72 236.41 116.71 236.59 116.54 236.58 116.55 236.4"/><polygon class="cls-1" points="115.63 250.51 114.71 250.18 115.02 249.19 115.94 249.52 115.63 250.51"/><polygon class="cls-1" points="114.14 266.73 113.3 265.72 114.24 264.82 115.08 265.84 114.14 266.73"/><polygon class="cls-1" points="110.25 182.54 110.38 182.37 110.54 182.5 110.42 182.68 110.25 182.54"/><polygon class="cls-1" points="108.52 195.79 108.96 195.69 109.06 196.16 108.62 196.27 108.52 195.79"/><polygon class="cls-1" points="107.67 209.11 107.74 209.03 107.81 209.11 107.74 209.19 107.67 209.11"/><polygon class="cls-1" points="110.7 224.6 109.68 224.62 109.67 223.53 110.68 223.51 110.7 224.6"/><polygon class="cls-1" points="107.46 234.22 107.83 233.75 108.27 234.15 107.9 234.62 107.46 234.22"/><polygon class="cls-1" points="108.47 247.65 109.09 247.84 108.92 248.5 108.3 248.32 108.47 247.65"/><polygon class="cls-1" points="106.83 261.08 107.7 261.16 107.62 262.08 106.76 262 106.83 261.08"/><polygon class="cls-1" points="98.94 183.32 99.86 182.55 100.57 183.53 99.66 184.3 98.94 183.32"/><polygon class="cls-1" points="98.84 197.15 98.88 196.29 99.69 196.34 99.64 197.2 98.84 197.15"/><polygon class="cls-1" points="102.32 209.52 102.32 209.5 102.34 209.51 102.33 209.52 102.32 209.52"/><polygon class="cls-1" points="103.05 224.01 103.03 223.73 103.3 223.71 103.32 223.99 103.05 224.01"/><polygon class="cls-1" points="101.33 236.46 101.26 236.13 101.58 236.05 101.65 236.38 101.33 236.46"/><polygon class="cls-1" points="103.04 247.72 103.63 247.18 104.14 247.81 103.55 248.35 103.04 247.72"/><polygon class="cls-1" points="102.46 263.33 102.33 263.36 102.3 263.22 102.43 263.19 102.46 263.33"/><polygon class="cls-1" points="94.29 181.06 94.1 180.92 94.23 180.71 94.42 180.85 94.29 181.06"/><polygon class="cls-1" points="93.49 194.71 93.51 194.41 93.78 194.43 93.76 194.73 93.49 194.71"/><polygon class="cls-1" points="96.31 211.49 97.4 211.24 97.64 212.41 96.54 212.66 96.31 211.49"/><polygon class="cls-1" points="95.27 222.28 95.23 222 95.5 221.97 95.53 222.25 95.27 222.28"/><polygon class="cls-1" points="94.82 238.55 94.32 238.66 94.21 238.13 94.72 238.01 94.82 238.55"/><polygon class="cls-1" points="94.31 248.93 94.41 248.92 94.42 249.03 94.31 249.04 94.31 248.93"/><polygon class="cls-1" points="94.73 263.44 94.31 262.31 95.37 261.86 95.79 262.99 94.73 263.44"/><polygon class="cls-1" points="87.77 183.06 87.82 182.68 88.18 182.74 88.13 183.12 87.77 183.06"/><polygon class="cls-1" points="85.53 198.91 85.74 198.53 86.09 198.76 85.88 199.13 85.53 198.91"/><polygon class="cls-1" points="89.48 212.1 89.05 212.27 88.89 211.81 89.31 211.64 89.48 212.1"/><polygon class="cls-1" points="85.86 221.19 86.42 221.09 86.52 221.69 85.95 221.79 85.86 221.19"/><polygon class="cls-1" points="88.35 238.28 88.46 237.96 88.75 238.07 88.65 238.39 88.35 238.28"/><polygon class="cls-1" points="88.29 252.13 88.09 251.59 88.6 251.39 88.79 251.93 88.29 252.13"/><polygon class="cls-1" points="90.2 265.85 89.96 265.91 89.91 265.65 90.15 265.59 90.2 265.85"/><polygon class="cls-1" points="82.18 181.6 82.12 181.59 82.13 181.53 82.19 181.54 82.18 181.6"/><polygon class="cls-1" points="79.36 198.67 79.12 198.35 79.42 198.09 79.66 198.41 79.36 198.67"/><polygon class="cls-1" points="78.83 211.83 79.03 211.07 79.74 211.28 79.55 212.04 78.83 211.83"/><polygon class="cls-1" points="82.38 226.59 81.92 225.77 82.7 225.28 83.16 226.1 82.38 226.59"/><polygon class="cls-1" points="80.99 235.42 80.64 235.5 80.57 235.13 80.92 235.05 80.99 235.42"/><polygon class="cls-1" points="81.91 250.76 82.35 250.68 82.42 251.15 81.99 251.23 81.91 250.76"/><polygon class="cls-1" points="79.11 265.19 79.56 264.83 79.89 265.32 79.44 265.68 79.11 265.19"/><polygon class="cls-1" points="157.66 269.74 157.95 269.69 158 270 157.71 270.06 157.66 269.74"/><polygon class="cls-1" points="157.46 288.51 157.22 287.5 158.17 287.24 158.41 288.25 157.46 288.51"/><polygon class="cls-1" points="157.33 297.95 157.7 297.06 158.53 297.45 158.16 298.34 157.33 297.95"/><polygon class="cls-1" points="158.54 313.76 157.44 313.09 158.06 311.92 159.16 312.58 158.54 313.76"/><polygon class="cls-1" points="156.56 325.41 156.51 325.11 156.79 325.05 156.85 325.35 156.56 325.41"/><polygon class="cls-1" points="155.39 338.3 154.58 338.81 154.1 337.94 154.91 337.44 155.39 338.3"/><polygon class="cls-1" points="158.17 353.68 157.35 353.42 157.59 352.54 158.41 352.8 158.17 353.68"/><polygon class="cls-1" points="151.9 269.96 151.63 270.08 151.52 269.8 151.78 269.67 151.9 269.96"/><polygon class="cls-1" points="148.31 284.71 148.21 283.82 149.05 283.7 149.15 284.6 148.31 284.71"/><polygon class="cls-1" points="152.06 297.76 151.93 297.78 151.9 297.63 152.04 297.61 152.06 297.76"/><polygon class="cls-1" points="149.65 314.81 150.44 314.05 151.15 314.9 150.36 315.66 149.65 314.81"/><polygon class="cls-1" points="149.44 323.78 149.39 323.72 149.44 323.68 149.49 323.73 149.44 323.78"/><polygon class="cls-1" points="151.33 340.6 150.35 340.54 150.4 339.49 151.38 339.55 151.33 340.6"/><polygon class="cls-1" points="151.97 352.7 151.91 351.38 153.16 351.32 153.21 352.65 151.97 352.7"/><polygon class="cls-1" points="141.97 270.47 141.33 270.65 141.16 269.97 141.8 269.79 141.97 270.47"/><polygon class="cls-1" points="141.26 287.23 140.18 287.75 139.7 286.59 140.78 286.08 141.26 287.23"/><polygon class="cls-1" points="144.63 299.33 143.66 299.55 143.46 298.52 144.42 298.3 144.63 299.33"/><polygon class="cls-1" points="142.29 310.44 142.54 309.77 143.17 310.03 142.92 310.7 142.29 310.44"/><polygon class="cls-1" points="144.92 324.34 145.06 323.41 145.93 323.56 145.79 324.49 144.92 324.34"/><polygon class="cls-1" points="143.62 339.7 143.59 339.54 143.74 339.52 143.76 339.67 143.62 339.7"/><polygon class="cls-1" points="141.78 353.59 141.44 353.58 141.45 353.21 141.79 353.22 141.78 353.59"/><polygon class="cls-1" points="133.76 275.34 133.26 275.14 133.44 274.6 133.95 274.8 133.76 275.34"/><polygon class="cls-1" points="136.28 284.93 136.38 284.38 136.89 284.49 136.79 285.04 136.28 284.93"/><polygon class="cls-1" points="135.75 298.56 135.75 298.55 135.75 298.55 135.75 298.55 135.75 298.56"/><polygon class="cls-1" points="136.52 315.72 135.91 315.26 136.34 314.61 136.95 315.07 136.52 315.72"/><polygon class="cls-1" points="137.62 328.51 137.63 328.32 137.81 328.33 137.8 328.52 137.62 328.51"/><polygon class="cls-1" points="134.92 339.44 134.97 339.25 135.14 339.3 135.1 339.49 134.92 339.44"/><polygon class="cls-1" points="133.82 354.06 134.47 354.08 134.45 354.77 133.8 354.75 133.82 354.06"/><polygon class="cls-1" points="127.79 274.84 127.74 274.59 127.97 274.53 128.03 274.78 127.79 274.84"/><polygon class="cls-1" points="126.84 285.12 127.33 285.1 127.35 285.62 126.86 285.64 126.84 285.12"/><polygon class="cls-1" points="129.14 301.29 129.34 301.38 129.26 301.6 129.06 301.5 129.14 301.29"/><polygon class="cls-1" points="129.91 315.23 129.33 315.4 129.17 314.78 129.75 314.61 129.91 315.23"/><polygon class="cls-1" points="127.71 328.02 127.71 327.99 127.74 327.99 127.74 328.02 127.71 328.02"/><polygon class="cls-1" points="127.09 341.74 127.51 341.35 127.88 341.8 127.46 342.19 127.09 341.74"/><polygon class="cls-1" points="129.74 353.1 130.85 353.65 130.32 354.84 129.22 354.28 129.74 353.1"/><polygon class="cls-1" points="123.37 275.71 122.12 275.69 122.15 274.36 123.39 274.38 123.37 275.71"/><polygon class="cls-1" points="121.9 288.06 123.06 288.03 123.08 289.27 121.93 289.3 121.9 288.06"/><polygon class="cls-1" points="121.6 298.23 121.4 297.5 122.08 297.28 122.28 298.01 121.6 298.23"/><polygon class="cls-1" points="122.7 313.39 122.56 312.68 123.22 312.53 123.37 313.24 122.7 313.39"/><polygon class="cls-1" points="121.11 328.27 120.13 328.07 120.33 327.03 121.3 327.23 121.11 328.27"/><polygon class="cls-1" points="123.88 341.45 125.02 341.19 125.25 342.41 124.12 342.66 123.88 341.45"/><polygon class="cls-1" points="124.23 351.88 123.89 351.6 124.15 351.23 124.5 351.51 124.23 351.88"/><polygon class="cls-1" points="113.4 271.06 114.42 270.73 114.73 271.82 113.71 272.15 113.4 271.06"/><polygon class="cls-1" points="113.94 286.69 113.17 287.02 112.86 286.2 113.63 285.87 113.94 286.69"/><polygon class="cls-1" points="114.21 297.47 115.03 297.88 114.66 298.76 113.83 298.36 114.21 297.47"/><polygon class="cls-1" points="116.71 311.93 116.62 311.91 116.64 311.8 116.74 311.83 116.71 311.93"/><polygon class="cls-1" points="116.55 326.35 116.72 326.36 116.71 326.54 116.54 326.53 116.55 326.35"/><polygon class="cls-1" points="115.63 340.46 114.71 340.12 115.02 339.13 115.94 339.47 115.63 340.46"/><polygon class="cls-1" points="114.14 356.68 113.3 355.67 114.24 354.77 115.08 355.78 114.14 356.68"/><polygon class="cls-1" points="110.25 272.49 110.38 272.31 110.54 272.45 110.42 272.63 110.25 272.49"/><polygon class="cls-1" points="108.52 285.74 108.96 285.63 109.06 286.11 108.62 286.21 108.52 285.74"/><polygon class="cls-1" points="107.67 299.06 107.74 298.98 107.81 299.06 107.74 299.14 107.67 299.06"/><polygon class="cls-1" points="110.7 314.55 109.68 314.56 109.67 313.48 110.68 313.46 110.7 314.55"/><polygon class="cls-1" points="107.46 324.17 107.83 323.7 108.27 324.1 107.9 324.57 107.46 324.17"/><polygon class="cls-1" points="108.47 337.6 109.09 337.78 108.92 338.45 108.3 338.26 108.47 337.6"/><polygon class="cls-1" points="106.83 351.02 107.7 351.11 107.62 352.03 106.76 351.95 106.83 351.02"/><polygon class="cls-1" points="98.94 273.26 99.86 272.5 100.57 273.48 99.66 274.24 98.94 273.26"/><polygon class="cls-1" points="98.84 287.09 98.88 286.24 99.69 286.29 99.64 287.14 98.84 287.09"/><polygon class="cls-1" points="102.32 299.46 102.32 299.45 102.34 299.46 102.33 299.47 102.32 299.46"/><polygon class="cls-1" points="103.05 313.96 103.03 313.67 103.3 313.65 103.32 313.94 103.05 313.96"/><polygon class="cls-1" points="101.33 326.41 101.26 326.07 101.58 326 101.65 326.33 101.33 326.41"/><polygon class="cls-1" points="103.04 337.67 103.63 337.12 104.14 337.75 103.55 338.3 103.04 337.67"/><polygon class="cls-1" points="102.46 353.28 102.33 353.31 102.3 353.17 102.43 353.13 102.46 353.28"/><polygon class="cls-1" points="94.29 271.01 94.1 270.87 94.23 270.66 94.42 270.8 94.29 271.01"/><polygon class="cls-1" points="93.49 284.65 93.51 284.36 93.78 284.38 93.76 284.68 93.49 284.65"/><polygon class="cls-1" points="96.31 301.44 97.4 301.18 97.64 302.36 96.54 302.61 96.31 301.44"/><polygon class="cls-1" points="95.27 312.23 95.23 311.95 95.5 311.92 95.53 312.2 95.27 312.23"/><polygon class="cls-1" points="94.82 328.5 94.32 328.61 94.21 328.07 94.72 327.96 94.82 328.5"/><polygon class="cls-1" points="94.31 338.88 94.41 338.87 94.42 338.98 94.31 338.99 94.31 338.88"/><polygon class="cls-1" points="94.73 353.39 94.31 352.26 95.37 351.81 95.79 352.94 94.73 353.39"/><polygon class="cls-1" points="87.77 273.01 87.82 272.62 88.18 272.68 88.13 273.07 87.77 273.01"/><polygon class="cls-1" points="85.53 288.85 85.74 288.48 86.09 288.7 85.88 289.08 85.53 288.85"/><polygon class="cls-1" points="89.48 302.04 89.05 302.22 88.89 301.76 89.31 301.59 89.48 302.04"/><polygon class="cls-1" points="85.86 311.14 86.42 311.04 86.52 311.64 85.95 311.74 85.86 311.14"/><polygon class="cls-1" points="88.35 328.22 88.46 327.9 88.75 328.02 88.65 328.33 88.35 328.22"/><polygon class="cls-1" points="88.29 342.08 88.09 341.54 88.6 341.33 88.79 341.88 88.29 342.08"/><polygon class="cls-1" points="90.2 355.8 89.96 355.85 89.91 355.6 90.15 355.54 90.2 355.8"/><polygon class="cls-1" points="82.18 271.55 82.12 271.54 82.13 271.48 82.19 271.49 82.18 271.55"/><polygon class="cls-1" points="79.36 288.62 79.12 288.3 79.42 288.04 79.66 288.36 79.36 288.62"/><polygon class="cls-1" points="78.83 301.78 79.03 301.02 79.74 301.22 79.55 301.99 78.83 301.78"/><polygon class="cls-1" points="82.38 316.54 81.92 315.72 82.7 315.23 83.16 316.05 82.38 316.54"/><polygon class="cls-1" points="80.99 325.37 80.64 325.45 80.57 325.08 80.92 325 80.99 325.37"/><polygon class="cls-1" points="81.91 340.71 82.35 340.63 82.42 341.1 81.99 341.18 81.91 340.71"/><polygon class="cls-1" points="79.11 355.13 79.56 354.78 79.89 355.27 79.44 355.62 79.11 355.13"/><polygon class="cls-1" points="75.47 -0.1 75.76 -0.15 75.82 0.16 75.52 0.21 75.47 -0.1"/><polygon class="cls-1" points="75.28 18.67 75.04 17.66 75.98 17.4 76.22 18.41 75.28 18.67"/><polygon class="cls-1" points="75.15 28.11 75.51 27.22 76.34 27.61 75.97 28.5 75.15 28.11"/><polygon class="cls-1" points="76.35 43.91 75.25 43.25 75.87 42.08 76.97 42.74 76.35 43.91"/><polygon class="cls-1" points="74.38 55.57 74.32 55.27 74.61 55.2 74.66 55.51 74.38 55.57"/><polygon class="cls-1" points="73.2 68.46 72.39 68.97 71.91 68.1 72.72 67.59 73.2 68.46"/><polygon class="cls-1" points="75.98 83.84 75.16 83.58 75.4 82.7 76.22 82.96 75.98 83.84"/><polygon class="cls-1" points="69.72 0.11 69.45 0.24 69.33 -0.05 69.6 -0.17 69.72 0.11"/><polygon class="cls-1" points="66.13 14.87 66.02 13.97 66.86 13.86 66.97 14.76 66.13 14.87"/><polygon class="cls-1" points="69.88 27.91 69.74 27.94 69.71 27.79 69.85 27.77 69.88 27.91"/><polygon class="cls-1" points="67.46 44.97 68.25 44.21 68.97 45.06 68.17 45.82 67.46 44.97"/><polygon class="cls-1" points="67.25 53.94 67.21 53.88 67.26 53.84 67.3 53.89 67.25 53.94"/><polygon class="cls-1" points="69.14 70.76 68.16 70.7 68.22 69.65 69.2 69.71 69.14 70.76"/><polygon class="cls-1" points="69.78 82.86 69.73 81.53 70.97 81.48 71.02 82.8 69.78 82.86"/><polygon class="cls-1" points="59.78 0.63 59.15 0.81 58.98 0.13 59.61 -0.05 59.78 0.63"/><polygon class="cls-1" points="59.08 17.39 58 17.9 57.52 16.75 58.59 16.23 59.08 17.39"/><polygon class="cls-1" points="62.44 29.49 61.48 29.71 61.27 28.68 62.24 28.46 62.44 29.49"/><polygon class="cls-1" points="60.1 40.6 60.35 39.92 60.98 40.19 60.74 40.86 60.1 40.6"/><polygon class="cls-1" points="62.73 54.5 62.88 53.57 63.75 53.72 63.6 54.65 62.73 54.5"/><polygon class="cls-1" points="61.43 69.86 61.41 69.7 61.55 69.68 61.58 69.83 61.43 69.86"/><polygon class="cls-1" points="59.6 83.75 59.25 83.74 59.26 83.37 59.61 83.38 59.6 83.75"/><polygon class="cls-1" points="51.58 5.5 51.07 5.3 51.25 4.76 51.76 4.96 51.58 5.5"/><polygon class="cls-1" points="54.09 15.09 54.19 14.54 54.7 14.65 54.6 15.19 54.09 15.09"/><polygon class="cls-1" points="53.56 28.71 53.56 28.71 53.56 28.71 53.57 28.71 53.56 28.71"/><polygon class="cls-1" points="54.33 45.88 53.72 45.42 54.15 44.77 54.76 45.23 54.33 45.88"/><polygon class="cls-1" points="55.43 58.67 55.44 58.47 55.62 58.48 55.61 58.68 55.43 58.67"/><polygon class="cls-1" points="52.73 69.6 52.78 69.41 52.95 69.45 52.91 69.64 52.73 69.6"/><polygon class="cls-1" points="51.63 84.21 52.29 84.23 52.27 84.93 51.61 84.91 51.63 84.21"/><polygon class="cls-1" points="45.6 5 45.55 4.75 45.78 4.69 45.84 4.94 45.6 5"/><polygon class="cls-1" points="44.66 15.28 45.14 15.26 45.17 15.78 44.68 15.8 44.66 15.28"/><polygon class="cls-1" points="46.95 31.45 47.16 31.54 47.07 31.75 46.87 31.66 46.95 31.45"/><polygon class="cls-1" points="47.73 45.38 47.15 45.56 46.98 44.94 47.56 44.77 47.73 45.38"/><polygon class="cls-1" points="45.52 58.18 45.52 58.15 45.55 58.14 45.55 58.18 45.52 58.18"/><polygon class="cls-1" points="44.91 71.9 45.33 71.5 45.7 71.95 45.27 72.35 44.91 71.9"/><polygon class="cls-1" points="47.55 83.25 48.66 83.81 48.14 84.99 47.03 84.44 47.55 83.25"/><polygon class="cls-1" points="41.18 5.87 39.94 5.84 39.96 4.52 41.21 4.54 41.18 5.87"/><polygon class="cls-1" points="39.71 18.22 40.87 18.19 40.9 19.42 39.74 19.45 39.71 18.22"/><polygon class="cls-1" points="39.41 28.39 39.21 27.65 39.9 27.44 40.1 28.17 39.41 28.39"/><polygon class="cls-1" points="40.51 43.55 40.37 42.84 41.04 42.69 41.18 43.4 40.51 43.55"/><polygon class="cls-1" points="38.92 58.43 37.95 58.23 38.14 57.19 39.11 57.39 38.92 58.43"/><polygon class="cls-1" points="41.69 71.61 42.83 71.35 43.07 72.57 41.93 72.82 41.69 71.61"/><polygon class="cls-1" points="42.05 82.03 41.7 81.75 41.96 81.39 42.31 81.67 42.05 82.03"/><polygon class="cls-1" points="31.21 1.22 32.23 0.89 32.54 1.98 31.52 2.3 31.21 1.22"/><polygon class="cls-1" points="31.75 16.84 30.99 17.18 30.67 16.36 31.44 16.02 31.75 16.84"/><polygon class="cls-1" points="32.02 27.63 32.85 28.03 32.47 28.92 31.64 28.51 32.02 27.63"/><polygon class="cls-1" points="34.53 42.09 34.43 42.06 34.45 41.96 34.55 41.99 34.53 42.09"/><polygon class="cls-1" points="34.36 56.51 34.53 56.51 34.52 56.69 34.36 56.69 34.36 56.51"/><polygon class="cls-1" points="33.44 70.61 32.52 70.28 32.83 69.29 33.76 69.63 33.44 70.61"/><polygon class="cls-1" points="31.95 86.84 31.11 85.83 32.05 84.93 32.9 85.94 31.95 86.84"/><polygon class="cls-1" points="28.06 2.65 28.19 2.47 28.36 2.61 28.23 2.78 28.06 2.65"/><polygon class="cls-1" points="26.33 15.9 26.77 15.79 26.87 16.26 26.43 16.37 26.33 15.9"/><polygon class="cls-1" points="25.48 29.22 25.55 29.14 25.63 29.22 25.55 29.29 25.48 29.22"/><polygon class="cls-1" points="28.51 44.7 27.5 44.72 27.48 43.64 28.5 43.62 28.51 44.7"/><polygon class="cls-1" points="25.28 54.33 25.64 53.86 26.09 54.25 25.72 54.73 25.28 54.33"/><polygon class="cls-1" points="26.28 67.76 26.9 67.94 26.73 68.6 26.11 68.42 26.28 67.76"/><polygon class="cls-1" points="24.65 81.18 25.51 81.26 25.44 82.19 24.57 82.11 24.65 81.18"/><polygon class="cls-1" points="16.75 3.42 17.67 2.66 18.39 3.64 17.47 4.4 16.75 3.42"/><polygon class="cls-1" points="16.65 17.25 16.7 16.39 17.5 16.44 17.45 17.3 16.65 17.25"/><polygon class="cls-1" points="20.13 29.62 20.14 29.61 20.15 29.61 20.14 29.63 20.13 29.62"/><polygon class="cls-1" points="20.86 44.12 20.84 43.83 21.11 43.81 21.13 44.1 20.86 44.12"/><polygon class="cls-1" points="19.15 56.57 19.08 56.23 19.39 56.15 19.46 56.49 19.15 56.57"/><polygon class="cls-1" points="20.86 67.82 21.45 67.28 21.95 67.91 21.36 68.45 20.86 67.82"/><polygon class="cls-1" points="20.27 83.43 20.14 83.47 20.11 83.32 20.25 83.29 20.27 83.43"/><polygon class="cls-1" points="12.1 1.16 11.91 1.02 12.04 0.82 12.23 0.96 12.1 1.16"/><polygon class="cls-1" points="11.3 14.81 11.32 14.52 11.6 14.54 11.58 14.83 11.3 14.81"/><polygon class="cls-1" points="14.12 31.59 15.21 31.34 15.45 32.51 14.35 32.76 14.12 31.59"/><polygon class="cls-1" points="13.08 42.39 13.05 42.11 13.31 42.08 13.34 42.35 13.08 42.39"/><polygon class="cls-1" points="12.64 58.65 12.13 58.77 12.03 58.23 12.53 58.12 12.64 58.65"/><polygon class="cls-1" points="12.12 69.03 12.23 69.03 12.23 69.14 12.13 69.14 12.12 69.03"/><polygon class="cls-1" points="12.55 83.55 12.12 82.42 13.18 81.97 13.61 83.09 12.55 83.55"/><polygon class="cls-1" points="5.58 3.17 5.64 2.78 6 2.84 5.94 3.22 5.58 3.17"/><polygon class="cls-1" points="3.34 19.01 3.55 18.63 3.91 18.86 3.69 19.24 3.34 19.01"/><polygon class="cls-1" points="7.29 32.2 6.86 32.38 6.7 31.92 7.13 31.74 7.29 32.2"/><polygon class="cls-1" points="3.67 41.3 4.23 41.19 4.33 41.8 3.77 41.9 3.67 41.3"/><polygon class="cls-1" points="6.16 58.38 6.27 58.06 6.57 58.17 6.46 58.49 6.16 58.38"/><polygon class="cls-1" points="6.1 72.24 5.91 71.7 6.41 71.49 6.61 72.03 6.1 72.24"/><polygon class="cls-1" points="8.02 85.96 7.77 86.01 7.72 85.75 7.96 85.7 8.02 85.96"/><polygon class="cls-1" points="-0.01 1.71 -0.07 1.7 -0.05 1.64 0 1.65 -0.01 1.71"/><polygon class="cls-1" points="0.2 46.7 -0.26 45.87 0.51 45.38 0.97 46.21 0.2 46.7"/><polygon class="cls-1" points="-0.27 70.87 0.16 70.79 0.24 71.25 -0.2 71.33 -0.27 70.87"/><polygon class="cls-1" points="75.47 89.85 75.76 89.79 75.82 90.11 75.52 90.16 75.47 89.85"/><polygon class="cls-1" points="75.28 108.61 75.04 107.6 75.98 107.35 76.22 108.36 75.28 108.61"/><polygon class="cls-1" points="75.15 118.05 75.51 117.17 76.34 117.56 75.97 118.44 75.15 118.05"/><polygon class="cls-1" points="76.35 133.86 75.25 133.2 75.87 132.02 76.97 132.69 76.35 133.86"/><polygon class="cls-1" points="74.38 145.52 74.32 145.22 74.61 145.15 74.66 145.46 74.38 145.52"/><polygon class="cls-1" points="73.2 158.41 72.39 158.92 71.91 158.05 72.72 157.54 73.2 158.41"/><polygon class="cls-1" points="75.98 173.78 75.16 173.53 75.4 172.65 76.22 172.91 75.98 173.78"/><polygon class="cls-1" points="69.72 90.06 69.45 90.19 69.33 89.9 69.6 89.77 69.72 90.06"/><polygon class="cls-1" points="66.13 104.82 66.02 103.92 66.86 103.81 66.97 104.7 66.13 104.82"/><polygon class="cls-1" points="69.88 117.86 69.74 117.89 69.71 117.74 69.85 117.71 69.88 117.86"/><polygon class="cls-1" points="67.46 134.92 68.25 134.16 68.97 135.01 68.17 135.77 67.46 134.92"/><polygon class="cls-1" points="67.25 143.88 67.21 143.83 67.26 143.78 67.3 143.84 67.25 143.88"/><polygon class="cls-1" points="69.14 160.7 68.16 160.65 68.22 159.6 69.2 159.66 69.14 160.7"/><polygon class="cls-1" points="69.78 172.81 69.73 171.48 70.97 171.42 71.02 172.75 69.78 172.81"/><polygon class="cls-1" points="59.78 90.58 59.15 90.76 58.98 90.08 59.61 89.9 59.78 90.58"/><polygon class="cls-1" points="59.08 107.33 58 107.85 57.52 106.7 58.59 106.18 59.08 107.33"/><polygon class="cls-1" points="62.44 119.44 61.48 119.66 61.27 118.63 62.24 118.41 62.44 119.44"/><polygon class="cls-1" points="60.1 130.55 60.35 129.87 60.98 130.13 60.74 130.81 60.1 130.55"/><polygon class="cls-1" points="62.73 144.44 62.88 143.51 63.75 143.67 63.6 144.6 62.73 144.44"/><polygon class="cls-1" points="61.43 159.8 61.41 159.65 61.55 159.62 61.58 159.78 61.43 159.8"/><polygon class="cls-1" points="59.6 173.69 59.25 173.68 59.26 173.32 59.61 173.33 59.6 173.69"/><polygon class="cls-1" points="51.58 95.45 51.07 95.25 51.25 94.7 51.76 94.9 51.58 95.45"/><polygon class="cls-1" points="54.09 105.03 54.19 104.49 54.7 104.6 54.6 105.14 54.09 105.03"/><polygon class="cls-1" points="53.56 118.66 53.56 118.66 53.56 118.66 53.57 118.66 53.56 118.66"/><polygon class="cls-1" points="54.33 135.82 53.72 135.36 54.15 134.71 54.76 135.17 54.33 135.82"/><polygon class="cls-1" points="55.43 148.62 55.44 148.42 55.62 148.43 55.61 148.63 55.43 148.62"/><polygon class="cls-1" points="52.73 159.54 52.78 159.36 52.95 159.4 52.91 159.59 52.73 159.54"/><polygon class="cls-1" points="51.63 174.16 52.29 174.18 52.27 174.88 51.61 174.86 51.63 174.16"/><polygon class="cls-1" points="45.6 94.95 45.55 94.7 45.78 94.64 45.84 94.89 45.6 94.95"/><polygon class="cls-1" points="44.66 105.23 45.14 105.2 45.17 105.72 44.68 105.75 44.66 105.23"/><polygon class="cls-1" points="46.95 121.39 47.16 121.48 47.07 121.7 46.87 121.61 46.95 121.39"/><polygon class="cls-1" points="47.73 135.33 47.15 135.51 46.98 134.89 47.56 134.71 47.73 135.33"/><polygon class="cls-1" points="45.52 148.13 45.52 148.1 45.55 148.09 45.55 148.12 45.52 148.13"/><polygon class="cls-1" points="44.91 161.85 45.33 161.45 45.7 161.9 45.27 162.29 44.91 161.85"/><polygon class="cls-1" points="47.55 173.2 48.66 173.76 48.14 174.94 47.03 174.38 47.55 173.2"/><polygon class="cls-1" points="41.18 95.82 39.94 95.79 39.96 94.46 41.21 94.49 41.18 95.82"/><polygon class="cls-1" points="39.71 108.16 40.87 108.14 40.9 109.37 39.74 109.4 39.71 108.16"/><polygon class="cls-1" points="39.41 118.33 39.21 117.6 39.9 117.39 40.1 118.12 39.41 118.33"/><polygon class="cls-1" points="40.51 133.5 40.37 132.78 41.04 132.63 41.18 133.34 40.51 133.5"/><polygon class="cls-1" points="38.92 148.38 37.95 148.17 38.14 147.13 39.11 147.34 38.92 148.38"/><polygon class="cls-1" points="41.69 161.55 42.83 161.3 43.07 162.51 41.93 162.77 41.69 161.55"/><polygon class="cls-1" points="42.05 171.98 41.7 171.7 41.96 171.33 42.31 171.61 42.05 171.98"/><polygon class="cls-1" points="31.21 91.16 32.23 90.83 32.54 91.92 31.52 92.25 31.21 91.16"/><polygon class="cls-1" points="31.75 106.79 30.99 107.13 30.67 106.31 31.44 105.97 31.75 106.79"/><polygon class="cls-1" points="32.02 117.58 32.85 117.98 32.47 118.87 31.64 118.46 32.02 117.58"/><polygon class="cls-1" points="34.53 132.04 34.43 132.01 34.45 131.91 34.55 131.94 34.53 132.04"/><polygon class="cls-1" points="34.36 146.46 34.53 146.46 34.52 146.64 34.36 146.63 34.36 146.46"/><polygon class="cls-1" points="33.44 160.56 32.52 160.23 32.83 159.24 33.76 159.57 33.44 160.56"/><polygon class="cls-1" points="31.95 176.79 31.11 175.78 32.05 174.88 32.9 175.89 31.95 176.79"/><polygon class="cls-1" points="28.06 92.59 28.19 92.42 28.36 92.55 28.23 92.73 28.06 92.59"/><polygon class="cls-1" points="26.33 105.85 26.77 105.74 26.87 106.21 26.43 106.32 26.33 105.85"/><polygon class="cls-1" points="25.48 119.16 25.55 119.09 25.63 119.17 25.55 119.24 25.48 119.16"/><polygon class="cls-1" points="28.51 134.65 27.5 134.67 27.48 133.58 28.5 133.57 28.51 134.65"/><polygon class="cls-1" points="25.28 144.28 25.64 143.81 26.09 144.2 25.72 144.67 25.28 144.28"/><polygon class="cls-1" points="26.28 157.71 26.9 157.89 26.73 158.55 26.11 158.37 26.28 157.71"/><polygon class="cls-1" points="24.65 171.13 25.51 171.21 25.44 172.14 24.57 172.06 24.65 171.13"/><polygon class="cls-1" points="16.75 93.37 17.67 92.61 18.39 93.58 17.47 94.35 16.75 93.37"/><polygon class="cls-1" points="16.65 107.2 16.7 106.34 17.5 106.39 17.45 107.25 16.65 107.2"/><polygon class="cls-1" points="20.13 119.57 20.14 119.55 20.15 119.56 20.14 119.58 20.13 119.57"/><polygon class="cls-1" points="20.86 134.06 20.84 133.78 21.11 133.76 21.13 134.04 20.86 134.06"/><polygon class="cls-1" points="19.15 146.51 19.08 146.18 19.39 146.1 19.46 146.44 19.15 146.51"/><polygon class="cls-1" points="20.86 157.77 21.45 157.23 21.95 157.86 21.36 158.4 20.86 157.77"/><polygon class="cls-1" points="20.27 173.38 20.14 173.41 20.11 173.27 20.25 173.24 20.27 173.38"/><polygon class="cls-1" points="12.1 91.11 11.91 90.97 12.04 90.77 12.23 90.9 12.1 91.11"/><polygon class="cls-1" points="11.3 104.76 11.32 104.46 11.6 104.49 11.58 104.78 11.3 104.76"/><polygon class="cls-1" points="14.12 121.54 15.21 121.29 15.45 122.46 14.35 122.71 14.12 121.54"/><polygon class="cls-1" points="13.08 132.34 13.05 132.06 13.31 132.02 13.34 132.3 13.08 132.34"/><polygon class="cls-1" points="12.64 148.6 12.13 148.72 12.03 148.18 12.53 148.06 12.64 148.6"/><polygon class="cls-1" points="12.12 158.98 12.23 158.98 12.23 159.09 12.13 159.09 12.12 158.98"/><polygon class="cls-1" points="12.55 173.5 12.12 172.37 13.18 171.91 13.61 173.04 12.55 173.5"/><polygon class="cls-1" points="5.58 93.11 5.64 92.73 6 92.79 5.94 93.17 5.58 93.11"/><polygon class="cls-1" points="3.34 108.96 3.55 108.58 3.91 108.81 3.69 109.19 3.34 108.96"/><polygon class="cls-1" points="7.29 122.15 6.86 122.33 6.7 121.87 7.13 121.69 7.29 122.15"/><polygon class="cls-1" points="3.67 131.24 4.23 131.14 4.33 131.74 3.77 131.84 3.67 131.24"/><polygon class="cls-1" points="6.16 148.33 6.27 148.01 6.57 148.12 6.46 148.44 6.16 148.33"/><polygon class="cls-1" points="6.1 162.19 5.91 161.65 6.41 161.44 6.61 161.98 6.1 162.19"/><polygon class="cls-1" points="8.02 175.9 7.77 175.96 7.72 175.7 7.96 175.65 8.02 175.9"/><polygon class="cls-1" points="-0.01 91.65 -0.07 91.64 -0.05 91.58 0 91.59 -0.01 91.65"/><polygon class="cls-1" points="0.2 136.65 -0.26 135.82 0.51 135.33 0.97 136.16 0.2 136.65"/><polygon class="cls-1" points="-0.27 160.81 0.16 160.74 0.24 161.2 -0.2 161.28 -0.27 160.81"/><polygon class="cls-1" points="75.47 179.8 75.76 179.74 75.82 180.05 75.52 180.11 75.47 179.8"/><polygon class="cls-1" points="75.28 198.56 75.04 197.55 75.98 197.29 76.22 198.31 75.28 198.56"/><polygon class="cls-1" points="75.15 208 75.51 207.12 76.34 207.51 75.97 208.39 75.15 208"/><polygon class="cls-1" points="76.35 223.81 75.25 223.15 75.87 221.97 76.97 222.63 76.35 223.81"/><polygon class="cls-1" points="74.38 235.47 74.32 235.16 74.61 235.1 74.66 235.41 74.38 235.47"/><polygon class="cls-1" points="73.2 248.35 72.39 248.86 71.91 248 72.72 247.49 73.2 248.35"/><polygon class="cls-1" points="75.98 263.73 75.16 263.47 75.4 262.6 76.22 262.86 75.98 263.73"/><polygon class="cls-1" points="69.72 180.01 69.45 180.13 69.33 179.85 69.6 179.72 69.72 180.01"/><polygon class="cls-1" points="66.13 194.76 66.02 193.87 66.86 193.75 66.97 194.65 66.13 194.76"/><polygon class="cls-1" points="69.88 207.81 69.74 207.84 69.71 207.69 69.85 207.66 69.88 207.81"/><polygon class="cls-1" points="67.46 224.87 68.25 224.11 68.97 224.95 68.17 225.71 67.46 224.87"/><polygon class="cls-1" points="67.25 233.83 67.21 233.78 67.26 233.73 67.3 233.78 67.25 233.83"/><polygon class="cls-1" points="69.14 250.65 68.16 250.59 68.22 249.55 69.2 249.6 69.14 250.65"/><polygon class="cls-1" points="69.78 262.76 69.73 261.43 70.97 261.37 71.02 262.7 69.78 262.76"/><polygon class="cls-1" points="59.78 180.52 59.15 180.7 58.98 180.03 59.61 179.84 59.78 180.52"/><polygon class="cls-1" points="59.08 197.28 58 197.8 57.52 196.65 58.59 196.13 59.08 197.28"/><polygon class="cls-1" points="62.44 209.39 61.48 209.6 61.27 208.57 62.24 208.35 62.44 209.39"/><polygon class="cls-1" points="60.1 220.5 60.35 219.82 60.98 220.08 60.74 220.76 60.1 220.5"/><polygon class="cls-1" points="62.73 234.39 62.88 233.46 63.75 233.62 63.6 234.54 62.73 234.39"/><polygon class="cls-1" points="61.43 249.75 61.41 249.59 61.55 249.57 61.58 249.73 61.43 249.75"/><polygon class="cls-1" points="59.6 263.64 59.25 263.63 59.26 263.27 59.61 263.28 59.6 263.64"/><polygon class="cls-1" points="51.58 185.39 51.07 185.2 51.25 184.65 51.76 184.85 51.58 185.39"/><polygon class="cls-1" points="54.09 194.98 54.19 194.44 54.7 194.54 54.6 195.09 54.09 194.98"/><polygon class="cls-1" points="53.56 208.61 53.56 208.6 53.56 208.6 53.57 208.61 53.56 208.61"/><polygon class="cls-1" points="54.33 225.77 53.72 225.31 54.15 224.66 54.76 225.12 54.33 225.77"/><polygon class="cls-1" points="55.43 238.56 55.44 238.37 55.62 238.38 55.61 238.57 55.43 238.56"/><polygon class="cls-1" points="52.73 249.49 52.78 249.3 52.95 249.35 52.91 249.54 52.73 249.49"/><polygon class="cls-1" points="51.63 264.11 52.29 264.13 52.27 264.83 51.61 264.81 51.63 264.11"/><polygon class="cls-1" points="45.6 184.9 45.55 184.64 45.78 184.58 45.84 184.84 45.6 184.9"/><polygon class="cls-1" points="44.66 195.18 45.14 195.15 45.17 195.67 44.68 195.7 44.66 195.18"/><polygon class="cls-1" points="46.95 211.34 47.16 211.43 47.07 211.65 46.87 211.56 46.95 211.34"/><polygon class="cls-1" points="47.73 225.28 47.15 225.46 46.98 224.84 47.56 224.66 47.73 225.28"/><polygon class="cls-1" points="45.52 238.08 45.52 238.04 45.55 238.04 45.55 238.07 45.52 238.08"/><polygon class="cls-1" points="44.91 251.79 45.33 251.4 45.7 251.85 45.27 252.24 44.91 251.79"/><polygon class="cls-1" points="47.55 263.15 48.66 263.71 48.14 264.89 47.03 264.33 47.55 263.15"/><polygon class="cls-1" points="41.18 185.77 39.94 185.74 39.96 184.41 41.21 184.44 41.18 185.77"/><polygon class="cls-1" points="39.71 198.11 40.87 198.08 40.9 199.32 39.74 199.35 39.71 198.11"/><polygon class="cls-1" points="39.41 208.28 39.21 207.55 39.9 207.33 40.1 208.06 39.41 208.28"/><polygon class="cls-1" points="40.51 223.44 40.37 222.73 41.04 222.58 41.18 223.29 40.51 223.44"/><polygon class="cls-1" points="38.92 238.33 37.95 238.12 38.14 237.08 39.11 237.29 38.92 238.33"/><polygon class="cls-1" points="41.69 251.5 42.83 251.25 43.07 252.46 41.93 252.72 41.69 251.5"/><polygon class="cls-1" points="42.05 261.93 41.7 261.65 41.96 261.28 42.31 261.56 42.05 261.93"/><polygon class="cls-1" points="31.21 181.11 32.23 180.78 32.54 181.87 31.52 182.2 31.21 181.11"/><polygon class="cls-1" points="31.75 196.74 30.99 197.08 30.67 196.26 31.44 195.92 31.75 196.74"/><polygon class="cls-1" points="32.02 207.52 32.85 207.93 32.47 208.81 31.64 208.41 32.02 207.52"/><polygon class="cls-1" points="34.53 221.99 34.43 221.96 34.45 221.86 34.55 221.88 34.53 221.99"/><polygon class="cls-1" points="34.36 236.4 34.53 236.41 34.52 236.59 34.36 236.58 34.36 236.4"/><polygon class="cls-1" points="33.44 250.51 32.52 250.18 32.83 249.19 33.76 249.52 33.44 250.51"/><polygon class="cls-1" points="31.95 266.73 31.11 265.72 32.05 264.82 32.9 265.84 31.95 266.73"/><polygon class="cls-1" points="28.06 182.54 28.19 182.37 28.36 182.5 28.23 182.68 28.06 182.54"/><polygon class="cls-1" points="26.33 195.79 26.77 195.69 26.87 196.16 26.43 196.27 26.33 195.79"/><polygon class="cls-1" points="25.48 209.11 25.55 209.03 25.63 209.11 25.55 209.19 25.48 209.11"/><polygon class="cls-1" points="28.51 224.6 27.5 224.62 27.48 223.53 28.5 223.51 28.51 224.6"/><polygon class="cls-1" points="25.28 234.22 25.64 233.75 26.09 234.15 25.72 234.62 25.28 234.22"/><polygon class="cls-1" points="26.28 247.65 26.9 247.84 26.73 248.5 26.11 248.32 26.28 247.65"/><polygon class="cls-1" points="24.65 261.08 25.51 261.16 25.44 262.08 24.57 262 24.65 261.08"/><polygon class="cls-1" points="16.75 183.32 17.67 182.55 18.39 183.53 17.47 184.3 16.75 183.32"/><polygon class="cls-1" points="16.65 197.15 16.7 196.29 17.5 196.34 17.45 197.2 16.65 197.15"/><polygon class="cls-1" points="20.13 209.52 20.14 209.5 20.15 209.51 20.14 209.52 20.13 209.52"/><polygon class="cls-1" points="20.86 224.01 20.84 223.73 21.11 223.71 21.13 223.99 20.86 224.01"/><polygon class="cls-1" points="19.15 236.46 19.08 236.13 19.39 236.05 19.46 236.38 19.15 236.46"/><polygon class="cls-1" points="20.86 247.72 21.45 247.18 21.95 247.81 21.36 248.35 20.86 247.72"/><polygon class="cls-1" points="20.27 263.33 20.14 263.36 20.11 263.22 20.25 263.19 20.27 263.33"/><polygon class="cls-1" points="12.1 181.06 11.91 180.92 12.04 180.71 12.23 180.85 12.1 181.06"/><polygon class="cls-1" points="11.3 194.71 11.32 194.41 11.6 194.43 11.58 194.73 11.3 194.71"/><polygon class="cls-1" points="14.12 211.49 15.21 211.24 15.45 212.41 14.35 212.66 14.12 211.49"/><polygon class="cls-1" points="13.08 222.28 13.05 222 13.31 221.97 13.34 222.25 13.08 222.28"/><polygon class="cls-1" points="12.64 238.55 12.13 238.66 12.03 238.13 12.53 238.01 12.64 238.55"/><polygon class="cls-1" points="12.12 248.93 12.23 248.92 12.23 249.03 12.13 249.04 12.12 248.93"/><polygon class="cls-1" points="12.55 263.44 12.12 262.31 13.18 261.86 13.61 262.99 12.55 263.44"/><polygon class="cls-1" points="5.58 183.06 5.64 182.68 6 182.74 5.94 183.12 5.58 183.06"/><polygon class="cls-1" points="3.34 198.91 3.55 198.53 3.91 198.76 3.69 199.13 3.34 198.91"/><polygon class="cls-1" points="7.29 212.1 6.86 212.27 6.7 211.81 7.13 211.64 7.29 212.1"/><polygon class="cls-1" points="3.67 221.19 4.23 221.09 4.33 221.69 3.77 221.79 3.67 221.19"/><polygon class="cls-1" points="6.16 238.28 6.27 237.96 6.57 238.07 6.46 238.39 6.16 238.28"/><polygon class="cls-1" points="6.1 252.13 5.91 251.59 6.41 251.39 6.61 251.93 6.1 252.13"/><polygon class="cls-1" points="8.02 265.85 7.77 265.91 7.72 265.65 7.96 265.59 8.02 265.85"/><polygon class="cls-1" points="-0.01 181.6 -0.07 181.59 -0.05 181.53 0 181.54 -0.01 181.6"/><polygon class="cls-1" points="0.2 226.59 -0.26 225.77 0.51 225.28 0.97 226.1 0.2 226.59"/><polygon class="cls-1" points="-0.27 250.76 0.16 250.68 0.24 251.15 -0.2 251.23 -0.27 250.76"/><polygon class="cls-1" points="75.47 269.74 75.76 269.69 75.82 270 75.52 270.06 75.47 269.74"/><polygon class="cls-1" points="75.28 288.51 75.04 287.5 75.98 287.24 76.22 288.25 75.28 288.51"/><polygon class="cls-1" points="75.15 297.95 75.51 297.06 76.34 297.45 75.97 298.34 75.15 297.95"/><polygon class="cls-1" points="76.35 313.76 75.25 313.09 75.87 311.92 76.97 312.58 76.35 313.76"/><polygon class="cls-1" points="74.38 325.41 74.32 325.11 74.61 325.05 74.66 325.35 74.38 325.41"/><polygon class="cls-1" points="73.2 338.3 72.39 338.81 71.91 337.94 72.72 337.44 73.2 338.3"/><polygon class="cls-1" points="75.98 353.68 75.16 353.42 75.4 352.54 76.22 352.8 75.98 353.68"/><polygon class="cls-1" points="69.72 269.96 69.45 270.08 69.33 269.8 69.6 269.67 69.72 269.96"/><polygon class="cls-1" points="66.13 284.71 66.02 283.82 66.86 283.7 66.97 284.6 66.13 284.71"/><polygon class="cls-1" points="69.88 297.76 69.74 297.78 69.71 297.63 69.85 297.61 69.88 297.76"/><polygon class="cls-1" points="67.46 314.81 68.25 314.05 68.97 314.9 68.17 315.66 67.46 314.81"/><polygon class="cls-1" points="67.25 323.78 67.21 323.72 67.26 323.68 67.3 323.73 67.25 323.78"/><polygon class="cls-1" points="69.14 340.6 68.16 340.54 68.22 339.49 69.2 339.55 69.14 340.6"/><polygon class="cls-1" points="69.78 352.7 69.73 351.38 70.97 351.32 71.02 352.65 69.78 352.7"/><polygon class="cls-1" points="59.78 270.47 59.15 270.65 58.98 269.97 59.61 269.79 59.78 270.47"/><polygon class="cls-1" points="59.08 287.23 58 287.75 57.52 286.59 58.59 286.08 59.08 287.23"/><polygon class="cls-1" points="62.44 299.33 61.48 299.55 61.27 298.52 62.24 298.3 62.44 299.33"/><polygon class="cls-1" points="60.1 310.44 60.35 309.77 60.98 310.03 60.74 310.7 60.1 310.44"/><polygon class="cls-1" points="62.73 324.34 62.88 323.41 63.75 323.56 63.6 324.49 62.73 324.34"/><polygon class="cls-1" points="61.43 339.7 61.41 339.54 61.55 339.52 61.58 339.67 61.43 339.7"/><polygon class="cls-1" points="59.6 353.59 59.25 353.58 59.26 353.21 59.61 353.22 59.6 353.59"/><polygon class="cls-1" points="51.58 275.34 51.07 275.14 51.25 274.6 51.76 274.8 51.58 275.34"/><polygon class="cls-1" points="54.09 284.93 54.19 284.38 54.7 284.49 54.6 285.04 54.09 284.93"/><polygon class="cls-1" points="53.56 298.56 53.56 298.55 53.56 298.55 53.57 298.55 53.56 298.56"/><polygon class="cls-1" points="54.33 315.72 53.72 315.26 54.15 314.61 54.76 315.07 54.33 315.72"/><polygon class="cls-1" points="55.43 328.51 55.44 328.32 55.62 328.33 55.61 328.52 55.43 328.51"/><polygon class="cls-1" points="52.73 339.44 52.78 339.25 52.95 339.3 52.91 339.49 52.73 339.44"/><polygon class="cls-1" points="51.63 354.06 52.29 354.08 52.27 354.77 51.61 354.75 51.63 354.06"/><polygon class="cls-1" points="45.6 274.84 45.55 274.59 45.78 274.53 45.84 274.78 45.6 274.84"/><polygon class="cls-1" points="44.66 285.12 45.14 285.1 45.17 285.62 44.68 285.64 44.66 285.12"/><polygon class="cls-1" points="46.95 301.29 47.16 301.38 47.07 301.6 46.87 301.5 46.95 301.29"/><polygon class="cls-1" points="47.73 315.23 47.15 315.4 46.98 314.78 47.56 314.61 47.73 315.23"/><polygon class="cls-1" points="45.52 328.02 45.52 327.99 45.55 327.99 45.55 328.02 45.52 328.02"/><polygon class="cls-1" points="44.91 341.74 45.33 341.35 45.7 341.8 45.27 342.19 44.91 341.74"/><polygon class="cls-1" points="47.55 353.1 48.66 353.65 48.14 354.84 47.03 354.28 47.55 353.1"/><polygon class="cls-1" points="41.18 275.71 39.94 275.69 39.96 274.36 41.21 274.38 41.18 275.71"/><polygon class="cls-1" points="39.71 288.06 40.87 288.03 40.9 289.27 39.74 289.3 39.71 288.06"/><polygon class="cls-1" points="39.41 298.23 39.21 297.5 39.9 297.28 40.1 298.01 39.41 298.23"/><polygon class="cls-1" points="40.51 313.39 40.37 312.68 41.04 312.53 41.18 313.24 40.51 313.39"/><polygon class="cls-1" points="38.92 328.27 37.95 328.07 38.14 327.03 39.11 327.23 38.92 328.27"/><polygon class="cls-1" points="41.69 341.45 42.83 341.19 43.07 342.41 41.93 342.66 41.69 341.45"/><polygon class="cls-1" points="42.05 351.88 41.7 351.6 41.96 351.23 42.31 351.51 42.05 351.88"/><polygon class="cls-1" points="31.21 271.06 32.23 270.73 32.54 271.82 31.52 272.15 31.21 271.06"/><polygon class="cls-1" points="31.75 286.69 30.99 287.02 30.67 286.2 31.44 285.87 31.75 286.69"/><polygon class="cls-1" points="32.02 297.47 32.85 297.88 32.47 298.76 31.64 298.36 32.02 297.47"/><polygon class="cls-1" points="34.53 311.93 34.43 311.91 34.45 311.8 34.55 311.83 34.53 311.93"/><polygon class="cls-1" points="34.36 326.35 34.53 326.36 34.52 326.54 34.36 326.53 34.36 326.35"/><polygon class="cls-1" points="33.44 340.46 32.52 340.12 32.83 339.13 33.76 339.47 33.44 340.46"/><polygon class="cls-1" points="31.95 356.68 31.11 355.67 32.05 354.77 32.9 355.78 31.95 356.68"/><polygon class="cls-1" points="28.06 272.49 28.19 272.31 28.36 272.45 28.23 272.63 28.06 272.49"/><polygon class="cls-1" points="26.33 285.74 26.77 285.63 26.87 286.11 26.43 286.21 26.33 285.74"/><polygon class="cls-1" points="25.48 299.06 25.55 298.98 25.63 299.06 25.55 299.14 25.48 299.06"/><polygon class="cls-1" points="28.51 314.55 27.5 314.56 27.48 313.48 28.5 313.46 28.51 314.55"/><polygon class="cls-1" points="25.28 324.17 25.64 323.7 26.09 324.1 25.72 324.57 25.28 324.17"/><polygon class="cls-1" points="26.28 337.6 26.9 337.78 26.73 338.45 26.11 338.26 26.28 337.6"/><polygon class="cls-1" points="24.65 351.02 25.51 351.11 25.44 352.03 24.57 351.95 24.65 351.02"/><polygon class="cls-1" points="16.75 273.26 17.67 272.5 18.39 273.48 17.47 274.24 16.75 273.26"/><polygon class="cls-1" points="16.65 287.09 16.7 286.24 17.5 286.29 17.45 287.14 16.65 287.09"/><polygon class="cls-1" points="20.13 299.46 20.14 299.45 20.15 299.46 20.14 299.47 20.13 299.46"/><polygon class="cls-1" points="20.86 313.96 20.84 313.67 21.11 313.65 21.13 313.94 20.86 313.96"/><polygon class="cls-1" points="19.15 326.41 19.08 326.07 19.39 326 19.46 326.33 19.15 326.41"/><polygon class="cls-1" points="20.86 337.67 21.45 337.12 21.95 337.75 21.36 338.3 20.86 337.67"/><polygon class="cls-1" points="20.27 353.28 20.14 353.31 20.11 353.17 20.25 353.13 20.27 353.28"/><polygon class="cls-1" points="12.1 271.01 11.91 270.87 12.04 270.66 12.23 270.8 12.1 271.01"/><polygon class="cls-1" points="11.3 284.65 11.32 284.36 11.6 284.38 11.58 284.68 11.3 284.65"/><polygon class="cls-1" points="14.12 301.44 15.21 301.18 15.45 302.36 14.35 302.61 14.12 301.44"/><polygon class="cls-1" points="13.08 312.23 13.05 311.95 13.31 311.92 13.34 312.2 13.08 312.23"/><polygon class="cls-1" points="12.64 328.5 12.13 328.61 12.03 328.07 12.53 327.96 12.64 328.5"/><polygon class="cls-1" points="12.12 338.88 12.23 338.87 12.23 338.98 12.13 338.99 12.12 338.88"/><polygon class="cls-1" points="12.55 353.39 12.12 352.26 13.18 351.81 13.61 352.94 12.55 353.39"/><polygon class="cls-1" points="5.58 273.01 5.64 272.62 6 272.68 5.94 273.07 5.58 273.01"/><polygon class="cls-1" points="3.34 288.85 3.55 288.48 3.91 288.7 3.69 289.08 3.34 288.85"/><polygon class="cls-1" points="7.29 302.04 6.86 302.22 6.7 301.76 7.13 301.59 7.29 302.04"/><polygon class="cls-1" points="3.67 311.14 4.23 311.04 4.33 311.64 3.77 311.74 3.67 311.14"/><polygon class="cls-1" points="6.16 328.22 6.27 327.9 6.57 328.02 6.46 328.33 6.16 328.22"/><polygon class="cls-1" points="6.1 342.08 5.91 341.54 6.41 341.33 6.61 341.88 6.1 342.08"/><polygon class="cls-1" points="8.02 355.8 7.77 355.85 7.72 355.6 7.96 355.54 8.02 355.8"/><polygon class="cls-1" points="-0.01 271.55 -0.07 271.54 -0.05 271.48 0 271.49 -0.01 271.55"/><polygon class="cls-1" points="0.2 316.54 -0.26 315.72 0.51 315.23 0.97 316.05 0.2 316.54"/><polygon class="cls-1" points="-0.27 340.71 0.16 340.63 0.24 341.1 -0.2 341.18 -0.27 340.71"/></svg>