<?xml version="1.0" encoding="utf-8"?>
<!-- Generator: Adobe Illustrator 18.0.0, SVG Export Plug-In . SVG Version: 6.00 Build 0)  -->
<!DOCTYPE svg PUBLIC "-//W3C//DTD SVG 1.1//EN" "http://www.w3.org/Graphics/SVG/1.1/DTD/svg11.dtd">
<svg version="1.1" id="Layer_1" xmlns="http://www.w3.org/2000/svg" xmlns:xlink="http://www.w3.org/1999/xlink" x="0px" y="0px"
	 viewBox="0 0 41.6 31.2" enable-background="new 0 0 41.6 31.2" xml:space="preserve">
<g>
	<g>
		<path fill="#FFFFFF" d="M35.2,29.4H2.1c-0.4,0-0.7-0.3-0.7-0.7V6.4c0-0.4,0.3-0.7,0.7-0.7h33.1c0.4,0,0.7,0.3,0.7,0.7v22.4
			C35.8,29.2,35.5,29.4,35.2,29.4z"/>
		<g>
			<g>
				<path fill-rule="evenodd" clip-rule="evenodd" fill="#3A494F" d="M30.4,31.2c-0.2,0-0.6-0.1-0.9-0.1c-0.1-0.1-0.1-0.2-0.2-0.3
					c-0.5,0-0.9-0.2-1.3-0.2s-0.1,0.2-0.5,0.2c-0.5,0-0.3-0.2-0.7-0.2c-0.5,0-1,0.3-1.5,0.3c-0.5,0-0.1-0.2-0.5-0.2S24.3,31,23.9,31
					s-0.9-0.3-1.2-0.5c-0.7,0.1-2.2,0.3-2.6,0.3c-0.9,0-0.6-0.2-1.4-0.3c0,0,0.2,0-0.3,0c-0.5,0-0.3,0.2-0.7,0.2
					c-0.5,0-0.3-0.2-0.7-0.2c-0.2,0-0.6,0.2-0.8,0.5c-0.6-0.2-1.3-0.5-1.8-0.5c-0.5,0-1.6,0.3-2,0.3c-0.5,0-0.1-0.2-0.5-0.2
					c-0.5,0-0.5,0.2-0.9,0.2c-0.9,0-0.1-0.3-0.7-0.3c-0.5,0-0.1,0.2-0.5,0.2c-0.5,0-0.6-0.2-1.1-0.2c-0.5,0-2.3,0.3-2.7,0.3
					c-0.5,0-1.2-0.2-1.6-0.2c-0.2,0-0.5,0-0.8,0c-0.4,0-0.9,0.1-1.3,0.1c-0.4,0-0.4-0.3-0.3-0.4c0,0-0.3,0-0.6-0.2
					C0.8,30,0.5,29.5,0.4,29c-0.1-0.3,0-0.6,0-0.8c0-0.2,0-0.5,0-0.7c0-0.3,0-0.5,0-0.5c-0.2,0.2-0.2,0.4-0.3,0.4
					c0-0.2,0.1-0.2,0.1-0.7s-0.2-0.5-0.2-0.9s0.3-1.2,0.3-1.6s-0.2-0.5-0.2-0.9c0-0.5,0.2-0.3,0.2-0.7s-0.1-0.7-0.3-1
					c0.1-0.3,0.3,0,0.3-0.5s-0.2,0.1-0.2-0.4s0.2,0.1,0.2-0.4s-0.2,0.1-0.2-0.4s0.2-0.1,0.2-0.5s-0.2-0.6-0.2-1.1s0-0.7,0.2-0.9
					c0-0.1-0.1-0.2-0.3-0.3c0-0.2,0.1-0.2,0.1-0.7c0-0.5-0.2-0.5-0.2-0.9s0.2-1,0.2-1.5c0-0.5-0.2-1-0.2-1.5s0.1-0.5,0.1-0.7
					c0-0.9,0-1.8,0.1-2.7c0.1-0.1,0.1,0.2,0.1-0.3c0-0.2-0.1-0.7-0.2-1.1c0-0.1,0-0.2-0.1-0.4c0-0.2,0-0.4-0.1-0.6C0,6.4,0,6,0,5.7
					c0,0,0.1-0.2,0.2-0.5C0.4,5,0.6,4.8,0.6,4.8c0.1,0-0.4,0.5-0.3,1.1c0,0,0.1-0.5,0.5-0.9c0.4-0.4,0.9-0.5,0.9-0.5
					c0.7-0.1,0.2-0.2,1-0.3c0.2,0,0.4,0,0.5,0c0.1,0,0.2,0,0.3,0.1c0.2,0,0.3,0.1,0.5,0.1c0.5,0,0.3-0.2,0.7-0.2
					c0.5,0,0.1,0.2,0.5,0.2c0.5,0,0.6-0.2,1.1-0.2c0.5,0,1.6,0.2,2,0.2c0.3,0,1.1,0.1,1.4-0.2c0.3,0.1,0.6,0.2,0.8,0.3
					c0.5,0,0.6,0.1,0.6-0.1s-0.4-0.1-0.3-0.2c0.5,0.2,1,0.3,1.4,0.3c0.1,0,1-0.2,1.1-0.4H14c0,0.2,0.4,0.3,0.5,0.4
					c0.1,0,0.2-0.1,0.3-0.3c0.5,0.2,0.8,0.3,1.2,0.3c0.5,0,1.2-0.3,1.6-0.3c0.5,0,0.3,0.2,0.7,0.2c0.5,0,0.4,0,0.4-0.1
					c0.3,0.1,0,0.3,0.5,0.3c0.5,0-0.1-0.2,0.4-0.2s0.5,0.2,0.9,0.2c0.8,0,1,0,1.1-0.4h0.7c0,0.1,0.3,0.4,0.6,0.4
					c0.5,0-0.1-0.2,0.4-0.2c0.5,0-0.1,0.2,0.4,0.2c0.5,0,0.7-0.2,1-0.3c0.3-0.1,0.6,0,1,0s2.3,0.3,2.7,0.3c1.6,0,1.1-0.3,1.8-0.3
					c0.8,0,0.3,0.3,1.8,0.3c0.5,0,1-0.2,1.5-0.2c0.1,0,0.2,0,0.4,0c0.2,0,0.5,0,0.8,0.1C35.4,4.6,35.7,4.8,36,5
					c0.2,0.1,0.4,0.1,0.5,0c0,0,0.2,0.2,0.3,0.4c0.1,0.2,0.2,0.4,0.2,0.4c0.2,0.7-0.1,0.7-0.1,1.2c-0.1,0.2-0.2,0.2-0.3,0.4V8
					c0,0.5,0.1,0.3,0.3,0.5c0,0.4,0,0.9,0.1,1.3c0,0.2,0.1-0.1,0.1,0.3s-0.2,1.2-0.3,1.8c0,0.2,0.1,0.2,0.3,0.3
					c-0.1,0.3-0.1,0.8-0.1,1.2s0.1,1,0.2,1.4c0,0.2-0.2,0.3-0.3,0.3v1c0.1,0.2,0.2,0.1,0.3,0.2v1c0,0.5-0.1,0.2-0.1,0.7
					s0,0.5,0.1,0.6c-0.2,1.3-0.3,0.5-0.3,1.8c0,0.8,0.3,1.8,0.3,2c0,0.5-0.3,0.8-0.3,1.3s0.2,0.1,0.2,0.5s-0.2-0.1-0.2,0.4
					s0.1,1.5,0.3,2.1c0,0.1,0,0,0,0.4c0,0.2,0,0.5-0.1,0.7c-0.1,0.2-0.1,0.5-0.2,0.6v0.2c0.1,0.1,0.2,0,0.3,0.1
					c-0.2,0.1-0.3,0.2-0.4,0.4c-0.1,0.4-0.3,0.6-0.6,1c-0.1-0.1,0.1-0.3,0-0.4c-0.2-0.1-0.4,0-0.6-0.1c-0.2,0-0.3-0.1-0.3-0.3
					c0-0.2,0-0.1,0-0.2c0,0,0-0.1,0-0.1c0,0,0,0,0,0c0,0,0,0,0,0l0,0c0,0,0,0.1,0,0l0,0l0,0l0,0l0,0l0,0v0c0.7,0-1,0-0.8,0l0,0l0,0
					l0,0c-0.1-0.1-0.2-0.2-0.2-0.3c0-0.1,0-0.2,0.1-0.3c0,0,0-0.1,0.1-0.2c0-0.1,0-0.2,0-0.3c0-0.5-0.2-0.6-0.2-1.1s0.1-0.1,0.1-0.3
					c0-0.7,0.2-1.8,0.2-2.3s0.1-0.8,0-1.1c-0.1-0.3-0.3-0.6-0.3-1.1c0-0.5,0.1-0.1,0.1-0.3c0-0.3,0-0.9,0-1.3s0-1.3-0.1-2.2
					c0.1,0,0.1,0.2,0.2,0.3c0.1,0,0.1-0.4,0.3-0.5c0-0.1-0.2-0.1-0.2-0.6s0.1-0.3,0.2-0.5c-0.1-0.3,0-0.6-0.2-0.6
					c-0.2,0-0.1,0.4-0.2,0.3v-1c0.2-0.2,0.3-0.5,0.3-1s-0.2,0.1-0.2-0.4s0.2,0.1,0.2-0.4s-0.2-0.3-0.2-0.7c0-0.5,0.2-0.5,0.2-0.9
					s-0.1-1.2-0.2-1.7c-0.1-0.3-0.2-0.5-0.3-0.8c0.1-0.1,0.2,0.3,0.3,0.3c0-0.4,0-1,0.1-1.4c0-0.4,0.1-0.8,0.1-1
					c0-0.1,0-0.3-0.1-0.2l0,0c-0.1-0.1,0.1-0.1,0.1-0.2c0,0-0.1,0.1-0.3,0.3c0,0,0.1-0.1,0-0.1c-0.1,0,0,0-0.1,0.1c0,0,0-0.2,0-0.3
					c-0.4,0-0.8,0-1.3,0c-0.5,0-1,0-1.5,0c-0.1-0.1,0.2-0.1-0.3-0.1s-1.7,0.3-2.2,0.3c-0.5,0-0.6-0.3-1.1-0.3
					c-0.5,0,0.1,0.2-0.4,0.2c-0.5,0-0.9-0.2-1.1-0.3c-0.1,0-0.2,0.1-0.3,0.3h-0.7c0-0.1-0.4-0.2-0.5-0.3c-0.1,0-0.5,0.1-0.6,0.4
					h-0.7C23.6,7.1,24,7,24,7c-0.2-0.1,0.1-0.1-0.4-0.1s-0.8,0.3-1.3,0.3c-0.5,0-0.3-0.2-0.7-0.2c-0.5,0-0.3,0.2-0.7,0.2
					c-0.5,0-0.1-0.2-0.5-0.2c-0.5,0-0.4,0-0.4,0.1c-0.3-0.1-0.5-0.2-0.8-0.3c-0.3-0.1-0.9,0-1.3,0c-0.5,0-1,0-1.3,0
					c-0.2,0-0.3,0.1-0.6,0.3c0,0,0.2,0-0.3,0c-0.5,0-0.6-0.2-0.9-0.3c-0.1,0-0.3,0-0.8,0c-1.6,0-1.1,0.3-1.8,0.3
					c-0.6,0-0.7-0.3-1.4-0.5h-0.5C10,6.8,10,6.7,10,6.9c0,0.2,0.4,0.2,0.3,0.3H9.1c-0.5,0-0.5-0.1-0.9-0.1c-0.5,0-0.7,0.1-1,0.1
					C7.1,7.1,7.5,7,7.5,7C7.3,6.9,7.6,6.9,7.1,6.9c-0.5,0-0.3,0.2-0.7,0.2c-0.5,0-0.3-0.2-0.7-0.2c-0.5,0-0.8,0.2-1.3,0.2
					c-0.5,0-0.6-0.2-1.1-0.2c-0.2,0,0,0.2-0.1,0.2C3,7.1,3.1,6.9,2.9,6.9C2.8,6.9,3,7,2.9,7.1c-0.1,0-0.3,0.1-0.4,0.1
					c0.1,0.2,0,0.3,0.2,0.3c0.2,0,0.1-0.1,0.2,0c0,0.1,0,0-0.1,0.1c0,0.1-0.1,0.2-0.1,0.5c0,0.5,0,0.4,0.1,0.4
					C2.8,8.9,2.6,9.2,2.6,9.7s0.2,0.6,0.2,1c0,0.2-0.2,0.2-0.3,0.7h0.4v1.4c-0.1,0-0.2,0.4-0.3,0.5c0.1,0.5,0.3,1.4,0.3,1.9
					s-0.2,0.9-0.3,1.1c0,0.1,0.1,0.2,0.3,0.3c-0.1,0.8-0.3,2.2-0.3,2.7c0,0.6,0,0.6,0.3,0.6v1c0,0.5-0.3,1.1-0.3,1.6
					s0.2,0.3,0.2,0.7s-0.2,0.8-0.2,1.3s0.2,0.6,0.2,1.1s-0.2-0.1-0.2,0.4s0.2,0.3,0.2,0.7s-0.2,0.6-0.2,1.1c0,0.2,0.2,0.1,0.2,0.2
					c0,0.1-0.2,0-0.2,0.2c0,0.2,0.2,0,0.2,0.1C2.9,28.1,3,28.3,3,28.4c0.1,0,0.1-0.1,0.1-0.3c0.1,0-0.1,0.1,0.4,0.1
					c0.5,0-0.1-0.2,0.4-0.2c0.5,0-0.1,0.2,0.4,0.2c0.5,0,0.2-0.1,0.3-0.1c0.4,0,1.4,0.1,1.8-0.2c0.2,0,0.3,0.2,0.4,0.2
					c0.3,0.1,0.6,0.2,1.1,0.2c0.3,0,0.6-0.2,0.8-0.4h1c0.2,0.2,0.3,0.3,0.8,0.3c0.5,0,0.1-0.2,0.5-0.2c0.5,0,0.6,0.2,1.1,0.2
					c0.5,0,0.6,0,0.8,0c0.2-0.1,0.1-0.2,0.2-0.3c0.2,0,0.6,0,1.3-0.2c0,0.1-0.2,0.1-0.3,0.2c0,0.1,0.4,0.1,0.5,0.3
					c0.3-0.1,0.7-0.2,1.2-0.2c0.5,0,0.6,0.2,1.1,0.2c0.5,0-0.1-0.2,0.4-0.2c0.5,0,0.1,0.1,0.3,0.1c0.3,0,0.5,0,1,0
					c0.5,0,0.9,0,1.2-0.1v0c0.5,0,0.2,0.2,0.6,0.2c0.5,0,0.3-0.2,0.7-0.2c0.5,0,0.3,0.2,0.7,0.2s0.1-0.2,0.5-0.2
					c0.5,0,0.3,0.2,0.7,0.2c0.5,0,0.7-0.1,1-0.3c0.4,0.2,1.1,0.3,1.6,0.3c0.5,0,0.3-0.2,0.7-0.2c0.5,0,0.1,0.2,0.5,0.2
					s0.4,0,0.4-0.1c0.2,0,0.3,0.2,0.3,0.3h3.1c0.5,0-0.1-0.2,0.4-0.2c0.5,0,0.1,0.2,0.5,0.2c0.5,0,0.3-0.2,0.7-0.2
					c0.5,0,0.3,0.2,0.7,0.2c0.2,0,0.2,0,0.2-0.1c0.1,0.1,0.3,0.2,0.3,0.4c0.2,0,0.5,0.2,0.6,0.3c0.1,0,0.1-0.1,0.1-0.3h0.3
					c0.2,0,0.2,0.1,0.3,0.2c0,0.1,0.2,0.1,0.2,0.3c0,0.2-0.2,0.1-0.2,0.3s0.1,0.3,0.3,0.4c-0.2,0.3-0.3,0.5-0.5,0.7
					c-0.1,0-0.2-0.1-0.3-0.2V31h-0.2c-0.2,0-0.1-0.1-0.1-0.1c-0.1,0-0.1,0.1-0.1,0.3c-0.1,0-0.1-0.1-0.2-0.1c-0.1,0-0.3,0-0.4,0
					l-0.2,0c-0.2,0-0.3,0-0.5,0c-0.7,0-1.3-0.1-1.6-0.1c-0.5,0-1,0-1.3,0C29.9,31,30.2,31.1,30.4,31.2z"/>
			</g>
		</g>
	</g>
	<g>
		<g>
			<g>
				<path fill-rule="evenodd" clip-rule="evenodd" fill="#3A494F" d="M5.6,6.2c0,0.1,0.1,0.2,0.2,0.3c0,0.1-0.1,0.2-0.1,0.2
					c0.1,0.1,0.1,0.3,0.3,0.4C6,7.2,6,7,6.2,7.1c0.1,0.1,0,0.2,0.1,0.3c0.1,0.1,0.5,0,0.6,0.1C7,7.6,6.8,7.6,6.9,7.7
					c0.1,0.1,0.2-0.1,0.3,0c0.1,0.1,0,0.4,0,0.6c0.3,0,0.8,0.2,0.9,0.3c0.2,0.2,0,0.3,0.2,0.5c0,0-0.1,0,0.1,0.1
					c0.1,0.1,0.2-0.1,0.3,0c0.1,0.1,0,0.2,0.1,0.3c0.1,0,0.3,0,0.5-0.2c0.1,0.3,0.1,0.6,0.2,0.7c0.1,0.1,0.6,0.1,0.7,0.2
					c0.1,0.1-0.1,0.1,0.1,0.2c0.1,0.1,0.2,0,0.3,0.1c0.3,0.2-0.2,0.3,0,0.4c0.1,0.1,0.1-0.1,0.2,0c0.1,0.1,0.1,0.3,0.2,0.4
					c0.1,0.1,0.8,0.3,0.9,0.4c0.1,0.1,0.2,0.4,0.4,0.5c0.1,0.1,0.4,0.2,0.5,0.2c0.1,0,0,0.2-0.1,0.3l0.8,0.6c0.1-0.2,0-0.2,0.1-0.3
					c0.1,0,0,0.2,0.1,0.3c0.1,0.1,0.2,0,0.3,0.1c0.1,0.1,0.1,0.5,0.3,0.6c0.1,0.1,0.2,0,0.3,0.1c0.1,0.1,0,0.2,0.1,0.3
					c0.1,0.1,0.3,0.1,0.5,0c0,0.1-0.2,0.2-0.1,0.3c0.1,0.1,0.1-0.1,0.2,0c0.1,0.1-0.1,0.1,0,0.2c0.1,0.1,0.1-0.1,0.2,0
					c0.1,0.1-0.1,0.1,0.1,0.2c0.1,0.1,0.3,0,0.4,0.1c0.1,0.1,0.2,0.2,0.1,0.3c0,0,0.1,0,0.3-0.2c0.1,0,0,0.2,0.1,0.3
					c0.1,0.1,0.2,0,0.3,0.1c0.1,0.1,0.2,0.3,0.3,0.4c0.1,0.1,0.4,0.1,0.5,0.2c0.1,0.1,0.1,0.2,0.1,0.2c0.1,0.1,0.2,0.2,0.4,0.3
					l0.2,0.2l0.1,0.1l0,0c0,0.1-0.1,0.1,0,0.1c0.1,0.1,0.3-0.1,0.3-0.3l0,0c0,0.1,0,0.1-0.1,0.3l0,0c0,0,0.1,0,0.1,0
					c0,0,0-0.2,0-0.2c0,0,0.1,0.1,0.1,0.1c0,0,0-0.2,0-0.2c0,0,0.1,0.1,0.1,0.1c0,0,0-0.2,0.1-0.3c0.1-0.1,0.5-0.2,0.7-0.3
					c0.1-0.1,0.3-0.2,0.3-0.4c0.1,0,0.3,0,0.4,0.1c0.1-0.1,0.2,0,0.1-0.2c-0.1-0.2-0.2,0-0.2-0.1c0.2,0,0.4,0,0.6,0
					c0,0,0.2-0.3,0.1-0.6l0.2-0.1c0.1,0.1,0.3,0.2,0.4,0.3c0,0,0-0.1-0.1-0.3c0.2,0,0.4,0.1,0.5,0c0.1-0.1,0.2-0.5,0.3-0.6
					c0.1-0.1,0.2,0.1,0.3,0c0.1-0.1,0.1-0.1,0-0.2c0.1,0,0.2,0.2,0.3,0.1c0.1-0.1-0.1-0.1,0-0.2c0.1-0.1,0.2,0,0.3-0.1
					c0.2-0.2,0.3-0.2,0.1-0.6l0.2-0.1c0.1,0.1,0.3,0.3,0.4,0.2c0.1-0.1-0.1-0.1,0-0.2c0.1-0.1,0.1,0.1,0.2,0
					c0.1-0.1,0.1-0.3,0.1-0.4c0-0.1,0.1-0.1,0.3-0.2c0.1-0.1,0.8-0.2,0.9-0.3c0.4-0.3,0.1-0.5,0.3-0.6c0.2-0.2,0.2,0.2,0.7-0.1
					c0.1-0.1,0.2-0.3,0.3-0.4c0.1-0.1,0.4-0.1,0.7-0.1c0,0,0-0.1-0.1-0.3l0.2-0.1c0.1-0.1,0.2,0,0.3,0c0.1,0,0.1,0.2,0.2,0.2
					l0.1-0.1c0.1-0.1,0-0.2,0-0.3c0.1-0.1,0.2-0.2,0.3-0.3c0-0.1-0.1-0.1,0-0.2c0.1-0.1,0.4-0.1,0.7-0.1c0,0,0-0.1-0.1-0.3
					c0.1,0,0.3,0,0.4-0.1s0.2-0.3,0.3-0.4c0.1,0,0.2,0.1,0.3,0.2l0.3-0.2c0-0.1-0.1-0.2-0.1-0.3l0.3-0.2c0.1-0.1,0.1,0.1,0.3,0
					C31,8.5,31,8.5,31,8.4c0.5-0.1,0.3,0.1,0.7-0.1c0.2-0.2,0.3-0.6,0.4-0.7c0.1-0.1,0.4,0.1,0.5,0c0.1-0.1-0.1-0.1,0.1-0.2
					c0.1-0.1,0.1,0.1,0.2,0C33,7.3,33.2,7,33.3,6.7c0,0,0,0,0.1-0.1c0.1-0.1,0.3-0.1,0.5-0.1l0.1,0l0.2-0.1c0-0.1-0.1-0.2-0.1-0.3
					c0.4,0.1,0.6,0.1,1-0.1c0.1,0.1-0.1,0.2,0.1,0.3c0.3,0.4,0.8,0,1,0.3c0.1,0.2,0.1,0.1,0.1,0.2C36,7,35.6,7.4,35.8,7.7
					c0.1,0.2,0.2,0.1,0.3,0.2c-0.4,0.3-0.3,0.6-0.4,0.7c-0.2,0.1-0.4,0.1-0.5,0.2C35.1,8.8,35.1,8.9,35,9c-0.1,0.1-0.1,0-0.2,0
					c-0.2,0.1-0.6,0.2-0.7,0.3c-0.1,0.1-0.3,0.1-0.3,0.2c0,0.1,0,0.4-0.1,0.5c-0.1,0.1-0.1,0-0.2,0c-0.1,0.1-0.3,0.2-0.4,0.3
					c-0.1,0.1-0.4,0.3-0.5,0.6c-0.1-0.1,0-0.1,0-0.2c0,0-0.2,0-0.3-0.1c0,0,0.1,0.2-0.1,0.2c-0.1,0.1-0.1,0-0.2,0
					c0,0.1-0.2,0.2,0,0.3c0.1,0.2,0.2,0,0.2,0.1l-0.3,0.2c-0.2-0.1-0.3-0.1-0.4,0c-0.1,0.1,0.1,0.1,0,0.2c-0.1,0.1-0.1-0.1-0.2,0
					c-0.1,0.1,0,0.2-0.1,0.3s-0.2,0-0.3,0.1c-0.1,0.1-0.3,0.3-0.4,0.5c-0.1,0.1,0,0.3-0.1,0.4c-0.1-0.1,0-0.2-0.1-0.3
					c-0.2,0.2-0.7,0.3-0.8,0.4c-0.1,0.1-0.3,0.2-0.3,0.3l0,0c-0.1,0.1-0.1,0-0.2,0c0,0,0,0.1,0.1,0.3c-0.1,0.1-0.1-0.1-0.2,0
					c-0.1,0.1,0,0.1,0,0.2c-0.1,0.1-0.2-0.1-0.3-0.2c-0.2,0.2-0.5,0.4-0.8,0.6c-0.1,0,0-0.1-0.1,0c-0.1,0.1-0.3,0.6-0.4,0.7
					c-0.1,0.1-0.4-0.1-0.5,0c-0.1,0.1,0.1,0.1,0,0.2c-0.1,0.1-0.4,0-0.5,0c0,0,0,0.1,0.1,0.3l-0.2,0.1c-0.1-0.1-0.2-0.1-0.3-0.1
					c0,0.1,0,0.2,0.1,0.5l-0.2,0.1c-0.1-0.1,0-0.2,0-0.3c-0.1,0,0-0.1-0.1,0c-0.1,0.1-0.1,0.4-0.2,0.5c-0.1,0.1-0.2-0.1-0.3,0
					c-0.1,0.1,0,0.2-0.1,0.3c-0.1,0.1-0.1-0.1-0.2,0c-0.1,0.1-0.1,0.1,0,0.2c-0.1,0-0.3-0.1-0.4-0.1c-0.1,0-0.2,0.2-0.4,0.3
					c-0.1,0.1-0.3,0.2-0.4,0.3c0,0.1,0,0.2,0,0.3c0,0,0.1,0-0.1,0.1c-0.1,0.1-0.3,0-0.4-0.1c-0.1,0-0.1,0.1-0.2,0.1
					c-0.4,0.3-0.1,0.5-0.3,0.6c-0.2,0.1-0.4-0.1-0.7-0.1L21.7,18c0,0.1-0.1,0,0.1,0.1c0.1,0.2,0.2,0.1,0.3,0.2l-0.4,0.3
					c-0.1,0.1-0.2,0-0.3,0.1c-0.1,0.1-0.1,0.2-0.2,0.3c-0.1-0.1,0-0.2-0.1-0.3c-0.1,0,0-0.1-0.1,0c-0.1,0.1,0,0.2-0.1,0.3
					c-0.1,0.1-0.1-0.1-0.3,0c-0.2,0.2-0.3,0.4-0.5,0.6c-0.2,0.2-0.4,0.1-0.6,0.2c-0.2,0.2,0.1,0.1-0.1,0.3c-0.2,0.2-0.1-0.1-0.3,0
					c-0.2,0.2,0,0.2-0.3,0.4c-0.2-0.2-0.4-0.5-0.4-0.7c-0.1,0-0.3-0.2-0.3,0c-0.1,0.2,0.1,0.3,0.1,0.4c-0.3-0.2-0.3-0.4-0.5-0.6
					c-0.2-0.2-0.2-0.1-0.3,0c-0.2-0.3-0.2-0.6-0.4-0.7c-0.1-0.1-0.3,0-0.4-0.1c0,0,0-0.2,0-0.4l-0.3,0.4l-0.4-0.3
					c0.1-0.1,0-0.2,0-0.3c-0.2,0-0.6-0.1-0.7-0.2c-0.1-0.1-0.1-0.3-0.1-0.5c0,0-0.1,0-0.3,0.2c-0.1-0.3-0.4-0.7-0.6-0.8
					c-0.2-0.1-0.2-0.1-0.3,0.1l-0.3-0.2c-0.1-0.1-0.1-0.5-0.2-0.6c-0.1-0.1-0.2,0.1-0.3,0c-0.1-0.1-0.1-0.3-0.3-0.4
					c-0.1-0.1-0.3,0-0.4-0.1c-0.1-0.1,0.1-0.1,0-0.2s-0.2,0.1-0.3,0c-0.1-0.1-0.1-0.3-0.2-0.4c-0.1-0.1-0.2,0.1-0.3,0
					c-0.1-0.1,0.1-0.1,0-0.2c-0.1-0.1-0.2,0.1-0.3,0c-0.1-0.1-0.1-0.3-0.1-0.5c0,0-0.1,0-0.3,0.2c-0.1,0,0.1-0.1-0.1-0.2
					c-0.1-0.1-0.1,0.1-0.2,0c-0.1-0.1,0.1-0.1,0-0.2c-0.1-0.1-0.1,0-0.1,0c-0.1,0-0.3-0.4-0.6-0.2c-0.1,0,0-0.2,0-0.3
					c0-0.1,0-0.3-0.2-0.4c-0.1-0.1-0.3,0-0.5,0.2l-0.3-0.2c0-0.2,0.1-0.3,0-0.4c-0.1-0.1-0.1,0.1-0.2,0c-0.1-0.1-0.1-0.3-0.2-0.4
					c-0.1-0.1-0.2-0.1-0.2-0.2c-0.1,0-0.2,0.1-0.2,0.1c-0.1,0-0.2-0.1-0.5-0.1c0.1-0.1,0.1-0.1,0.2-0.1c0,0,0-0.2,0-0.3
					c-0.1,0-0.3,0-0.4-0.1c-0.1-0.1-0.1-0.3-0.2-0.4c-0.1-0.1-0.1,0.1-0.2,0c-0.1-0.1,0-0.1,0-0.2c-0.1-0.1-0.1-0.1-0.3-0.2
					c-0.1-0.1-0.2-0.2-0.4-0.2l0,0c-0.1-0.1,0.1-0.2-0.1-0.2c-0.1-0.1-0.2,0.1-0.3,0c-0.1-0.1,0-0.2-0.1-0.3c-0.1-0.1-0.1,0.1-0.2,0
					c-0.1-0.1,0-0.2-0.1-0.3c-0.1-0.1-0.3-0.1-0.5,0c0-0.2-0.1-0.5-0.2-0.6c-0.1-0.1-0.2,0.1-0.3,0C4.7,9.4,4.8,9.4,4.7,9.3
					c-0.1-0.1-0.1,0-0.2,0c-0.1,0,0-0.2,0.1-0.3L3.8,8.3c-0.1-0.1-0.1,0.1-0.2,0C3.4,8.3,3.6,8.2,3.5,8.1c-0.1-0.1-0.2,0.1-0.3,0
					C3.1,8,3.2,7.9,3.1,7.8C3,7.7,3,7.8,2.9,7.8c0-0.1-0.1-0.4,0-0.6C2.8,7.1,2.6,6.8,2.6,6.7c0,0-0.1,0-0.3,0.2L2.2,6.7
					C2,6.6,2.1,6.5,2,6.3C2.1,6.2,2,6.1,2.1,6c0.1-0.1,0.2,0,0.3-0.1c0.1-0.1,0.1-0.3,0-0.5C2.7,5.2,3,5.1,3.2,5
					c0.1,0.1,0,0.2,0.1,0.3L3.6,5l0.2,0.1c0.2,0.1,0,0.1,0,0.2c0,0,0.1,0,0.3-0.2c0.1,0.1,0.1,0.1,0.1,0.2c0.2,0.1,0.3,0.3,0.5,0.5
					c0.2,0.2,0.4,0.5,0.5,0.5c0.1,0.1,0.3,0.2,0.4,0.2C5.6,6.5,5.6,6.3,5.6,6.2z"/>
			</g>
		</g>
	</g>
</g>
<g>
	<circle fill="#FFB048" cx="35.3" cy="6.2" r="5.7"/>
	<g>
		<g>
			<path fill-rule="evenodd" clip-rule="evenodd" fill="#3A494F" d="M41.4,8c-0.1,0.1-0.1,0.2-0.1,0.3c0,0-0.1,0-0.1,0
				c-0.1,0.2-0.2,0.3-0.2,0.4c-0.1,0.1,0,0.1,0,0.2C40.8,9,40.8,9,40.8,9.1c-0.1,0.1-0.1,0.3-0.2,0.5c-0.1,0.1-0.1,0-0.1,0.1
				c-0.1,0.1,0,0.1-0.1,0.2c-0.1,0.1-0.3,0.2-0.4,0.2c-0.1,0.2-0.4,0.6-0.5,0.7c-0.2,0.2-0.2,0.1-0.4,0.2c0,0,0,0-0.1,0
				c-0.1,0.1,0,0.1-0.2,0.2c-0.1,0.1-0.1,0-0.2,0.1c-0.1,0-0.1,0.2-0.1,0.3c-0.2,0.1-0.5,0-0.6,0.1c-0.1,0.1-0.4,0.3-0.6,0.3
				c-0.1,0,0,0-0.2,0c-0.1,0-0.1,0.1-0.3,0.1c-0.3,0.1-0.1-0.1-0.3-0.1c-0.1,0,0,0.1-0.2,0.1c-0.2,0-0.2,0-0.4,0
				c-0.1,0-0.8,0.2-0.9,0.1c-0.2,0-0.4-0.1-0.5-0.1c-0.1,0-0.4,0-0.5,0c-0.1,0-0.1-0.1-0.1-0.1c0,0-0.2-0.1-0.5-0.1
				c-0.2-0.1-0.5-0.2-0.5-0.2c0,0.1,0.1,0.1,0.1,0.1c-0.1,0-0.1-0.1-0.2-0.1c-0.1-0.1-0.2,0-0.3-0.1c-0.1-0.1-0.3-0.3-0.4-0.4
				c-0.1-0.1-0.2,0-0.3-0.1c-0.1-0.1,0-0.1-0.2-0.2C31.5,11,31.4,11,31.3,11c0-0.1,0.1-0.1,0-0.2c-0.1-0.1,0,0.1-0.1,0
				c-0.1-0.1,0.1,0-0.1-0.1c-0.1-0.1,0,0.1-0.1,0c-0.1-0.1,0-0.1-0.1-0.2c-0.1-0.1-0.2-0.1-0.3-0.2c-0.1-0.1-0.1-0.2-0.1-0.3
				c0,0-0.1,0-0.1,0c-0.1-0.1,0-0.1-0.1-0.2c-0.1-0.1-0.1-0.1-0.2-0.2c-0.1-0.1-0.1-0.3-0.2-0.5c-0.1-0.1-0.2-0.3-0.3-0.4
				c-0.1-0.1,0-0.2,0-0.2c-0.1-0.3-0.2-0.6-0.2-0.9c0,0,0.1,0,0-0.1c0-0.1-0.2-0.5-0.3-0.8l0-0.2c0,0,0.1,0.1,0.1,0.2
				c0,0,0-0.5,0-0.5c0-0.2-0.1-0.1-0.1-0.2c0-0.2,0.1-0.2,0.1-0.4c0-0.2,0-0.1,0-0.2c0-0.2,0.1,0,0.1-0.2c0-0.2,0-0.2,0-0.4
				c0-0.2,0.2-0.5,0.2-0.6c0-0.1,0.1-0.3,0.1-0.4c0.1-0.1,0.2-0.2,0.2-0.2c0.1-0.2,0.1-0.2,0.1-0.2c-0.1,0-0.1,0.1-0.1,0.1
				c0.1-0.1,0.3-0.2,0.3-0.4c0,0,0.1-0.3,0.1-0.4l0.1-0.2c0.1,0,0.2,0,0.2,0c0,0,0-0.1,0-0.1c0.2-0.1,0.3-0.1,0.4-0.2
				c0.1-0.1,0.2-0.4,0.3-0.5c0.1-0.1,0.1,0,0.2-0.1c0.1-0.1,0.1-0.1,0.1-0.1c0.1,0,0.1,0.1,0.2,0c0.1-0.1-0.1,0,0.1-0.1
				c0.1-0.1,0.2,0,0.3-0.1c0.2-0.1,0.3-0.2,0.2-0.3c0,0,0.2-0.1,0.2-0.1c0,0,0.2,0.1,0.2,0.1c0.1-0.1-0.1,0,0.1-0.1
				c0.1-0.1,0,0.1,0.1,0c0.1-0.1,0.2-0.1,0.3-0.2c0.1-0.1,0.2-0.1,0.3-0.1c0.2-0.1,0.8-0.1,0.9-0.1C35,0.1,34.8,0,35.1,0
				c0.3,0,0.1,0.1,0.6,0.1c0.2,0,0.3,0,0.5,0c0.2,0,0.4,0.1,0.6,0.2c0,0,0.1,0,0.1-0.1l0.2,0.1c0.1,0,0.1,0.1,0.2,0.1
				c0,0,0,0.1,0,0.1l0.2,0.1c0.1,0.1,0.1,0,0.2,0c0.1,0,0.3,0.1,0.4,0.2c0.1,0,0-0.1,0.1,0c0.1,0.1,0.3,0.3,0.4,0.4c0,0,0.1,0,0.1,0
				c0.1,0.1,0.2,0.2,0.3,0.3c0.1,0.1,0.3,0.2,0.4,0.2c0.1,0,0,0.1,0,0.1c0,0,0.2,0.2,0.2,0.2c0.1,0,0.1,0,0.1,0L40,2.2
				c0.1,0.1,0,0.1,0.1,0.2c0.1,0.1,0.1,0.1,0.2,0.1c0.2,0.4,0,0.2,0.2,0.6c0.1,0.2,0.4,0.5,0.4,0.5C41,3.7,40.9,3.9,41,4
				C41,4.2,41,4,41.1,4.2c0.1,0.1-0.1,0,0,0.1c0.1,0.1,0.2,0.5,0.3,0.6c0,0,0,0,0,0.1c0,0.1,0,0.4,0,0.4l0,0.1c0,0,0.1,0,0.1,0
				c-0.1,0.1-0.2,0.2-0.2,0.4c0,0,0-0.1-0.1-0.1C41,6,41,6.2,40.9,6.2c-0.1,0-0.1,0-0.1,0c0-0.1-0.1-0.3-0.2-0.3
				c-0.1,0-0.1,0.1-0.1,0.1c0-0.2-0.1-0.2-0.1-0.2c0-0.1,0-0.1,0-0.3c0-0.1-0.1-0.2-0.1-0.3c0-0.1,0,0,0-0.1c0-0.2-0.1-0.5-0.1-0.6
				c0-0.1-0.1-0.2-0.1-0.3C40,4.1,39.9,4.1,39.9,4c-0.1-0.1,0-0.1,0-0.1c0-0.1-0.1-0.2-0.2-0.3c-0.1-0.1-0.2-0.3-0.4-0.5
				c0,0,0.1,0,0.1,0c0,0,0-0.1,0-0.2c0,0-0.1,0-0.2-0.1c-0.1-0.1,0-0.1,0-0.1c-0.1,0-0.1-0.1-0.2-0.1c-0.1,0.1,0,0.1,0,0.1
				c0,0-0.2-0.2-0.2-0.2c0-0.1,0-0.2-0.1-0.3c-0.1-0.1,0,0.1-0.1,0c-0.1-0.1,0.1,0,0-0.1c-0.1-0.1-0.1,0-0.2-0.1
				C38.3,2,38.3,2,38.2,1.9c-0.1-0.1-0.3-0.2-0.4-0.2c-0.1,0-0.2,0-0.2,0c0,0,0.1,0,0.1-0.1c-0.2-0.1-0.5-0.3-0.6-0.3
				c-0.1,0-0.2-0.1-0.3-0.1l0,0c-0.1,0,0,0-0.1-0.1c0,0-0.1,0-0.1,0.1c-0.1,0,0-0.1-0.1-0.1c-0.1,0-0.1,0-0.1,0
				c-0.1,0-0.1-0.1-0.1-0.1C36,1.1,35.7,1,35.4,1c0,0,0.1,0-0.1,0c-0.1,0-0.5,0.1-0.6,0.2c-0.1,0-0.2-0.1-0.3-0.1
				c-0.1,0,0,0.1-0.1,0.1c-0.1,0-0.3,0-0.3,0c0,0-0.1,0.1,0,0.1l-0.2,0c0,0-0.1,0-0.2-0.1c0,0-0.1,0.1-0.1,0.2l-0.2,0.1
				c0,0,0.1-0.1,0.1-0.1c-0.1,0,0,0-0.1,0c-0.1,0.1-0.2,0.2-0.3,0.3c-0.1,0.1-0.1,0-0.2,0c-0.1,0.1,0,0.1-0.1,0.2
				c-0.1,0.1-0.1,0-0.2,0C32.4,2,32.4,2,32.4,2c-0.1,0-0.2,0-0.2,0c-0.1,0-0.2,0.1-0.3,0.2c-0.1,0.1-0.2,0.2-0.3,0.3
				c0,0.1,0,0.1,0,0.2c0,0,0,0,0,0.1c-0.1,0.1-0.2,0.1-0.3,0.1c0,0-0.1,0.1-0.1,0.2c-0.3,0.4-0.1,0.3-0.2,0.5
				c-0.1,0.1-0.2,0.1-0.3,0.3L30.5,4c0,0,0,0,0,0.1c0.1,0,0.1-0.1,0.1,0c0,0-0.2,0.3-0.1,0.3c0,0.1-0.1,0.1-0.1,0.2
				c0,0.1,0,0.2,0,0.3c0,0,0-0.1-0.1-0.1c0,0,0,0,0,0.1c0,0.1,0,0.1,0,0.2c0,0.1-0.1,0.1-0.1,0.2c0,0.1,0,0.2,0,0.4
				c0,0.1-0.1,0.2-0.1,0.3c0,0.1,0.1,0,0.1,0.1c0,0.1-0.1,0-0.1,0.2c0,0.1,0.1,0,0.1,0.2c0,0.1-0.1,0.3-0.1,0.3c0,0.1,0,0.2,0.1,0.2
				c0.1,0,0-0.1,0.1-0.1c0,0.2,0,0.2,0,0.3c0,0.1,0,0.1,0.1,0.1c0,0.1-0.1,0.2,0,0.4c0,0.1,0.1,0.2,0.1,0.3c0,0,0,0.1-0.1,0.2
				l0.2-0.1l0.1,0.4c0,0,0,0.1,0,0.2c0.1,0.1,0.3,0.3,0.3,0.4C31,8.9,31,9,31,9.1c0,0,0.1,0,0.1,0c0.1,0.2,0.3,0.6,0.4,0.7
				c0.1,0.1,0.1,0.1,0.2,0c0,0,0.2,0.2,0.2,0.2c0.1,0.1,0.2,0.3,0.3,0.4c0.1,0.1,0.1,0,0.2,0.1c0.1,0.1,0.2,0.2,0.3,0.2
				c0.1,0.1,0.2,0,0.3,0.1c0.1,0.1-0.1,0,0.1,0.1c0.1,0.1,0.1,0,0.2,0c0.1,0.1,0.1,0.1,0.3,0.2c0.1,0,0.1,0,0.2,0c0.1,0,0,0,0.1,0.1
				c0.1,0,0.1,0,0.2,0c0.1,0,0.2,0.1,0.3,0.2c0,0,0.1,0,0.1-0.1c0.1,0,0,0.1,0.1,0.1c0.1,0,0-0.1,0.1,0c0.1,0,0,0.1,0.1,0.1
				c0.1,0,0.1,0,0.1,0c0.1,0,0.4,0.1,0.5,0c0.1,0,0.1,0.1,0.1,0.1c0.1,0,0.2,0.1,0.3,0.1c0.1,0,0.2-0.1,0.2-0.2l0.3,0
				c0.1,0.1,0.1,0.1,0.2,0.1c0.1,0,0-0.1,0.1-0.1c0.1,0,0.2,0,0.3,0c0.1,0,0.2-0.1,0.2-0.1c0,0,0-0.1,0-0.1c0,0,0.2-0.1,0.3-0.2
				c0,0,0,0.1-0.1,0.1c0,0,0.1,0,0.2,0c0.1-0.1,0.2-0.1,0.3-0.2c0.1-0.1,0.2,0,0.3-0.1c0.1-0.1-0.1,0,0.1-0.1c0.1-0.1,0.1,0,0.1,0
				c0.1,0,0.1-0.1,0.2-0.2c0.1-0.1,0.2-0.1,0.2-0.2l0,0c0.1-0.1,0.1,0,0.2-0.1c0.1-0.1,0-0.1,0.1-0.2c0.1-0.1,0.1,0,0.2-0.1
				c0.1-0.1,0-0.1,0.1-0.2c0.1-0.1,0.1,0,0.2-0.1c0.1-0.1,0.1-0.2,0.1-0.3c0.1-0.1,0.3-0.2,0.3-0.3c0.1-0.1,0-0.1,0.1-0.2
				c0.1-0.1,0.1,0,0.1-0.1c0.1-0.1,0-0.1,0-0.1c0-0.1,0.1-0.1,0.1,0c0,0,0.3-0.8,0.3-0.8c0-0.1-0.1,0,0-0.1c0-0.1,0.1,0,0.1-0.1
				c0-0.1,0-0.1,0-0.2s0.1-0.1,0.1-0.2c0-0.1,0-0.1,0-0.1c0,0,0.1-0.1,0.2-0.1c0-0.1,0.1-0.2,0.1-0.2c0,0,0,0-0.1,0l0-0.1
				c0-0.1,0.1-0.1,0.1-0.1c0.1,0,0.1-0.1,0.1-0.1c0.1,0,0,0.1,0.1,0.1c0.1,0,0.1,0,0.2-0.1c0.1,0.1,0.2,0.1,0.3,0.2
				c0,0-0.1,0.1-0.1,0.1l0.2,0l0,0.1c0,0.1,0,0-0.1,0c0,0,0,0,0.1,0.1c0,0,0,0,0,0.1c0,0.1,0,0.1,0,0.2l0,0.1l0,0.2
				c0,0.2-0.1,0.4-0.1,0.5c0,0.1,0,0.1-0.1,0.4C41.3,8.1,41.4,8,41.4,8z"/>
		</g>
	</g>
</g>
<line fill="none" stroke="#FFFFFF" stroke-width="0.9892" stroke-linecap="round" stroke-linejoin="round" stroke-miterlimit="10" x1="35.3" y1="4" x2="35.3" y2="9.2"/>
<g>
</g>
<g>
</g>
<g>
</g>
<g>
</g>
<g>
</g>
<g>
</g>
<g>
</g>
<g>
</g>
<g>
</g>
<g>
</g>
<g>
</g>
<g>
</g>
<g>
</g>
<g>
</g>
<g>
</g>
</svg>
