<?xml version="1.0" encoding="utf-8"?>
<!-- Generator: Adobe Illustrator 18.0.0, SVG Export Plug-In . SVG Version: 6.00 Build 0)  -->
<!DOCTYPE svg PUBLIC "-//W3C//DTD SVG 1.1//EN" "http://www.w3.org/Graphics/SVG/1.1/DTD/svg11.dtd">
<svg version="1.1" id="Layer_1" xmlns="http://www.w3.org/2000/svg" xmlns:xlink="http://www.w3.org/1999/xlink" x="0px" y="0px"
	 viewBox="0 0 97.8 62.7" enable-background="new 0 0 97.8 62.7" xml:space="preserve">
<g>
	<g>
		<line fill="#FFFFFF" x1="43.4" y1="30.8" x2="49" y2="3.6"/>
		<g>
			<g>
				<path fill-rule="evenodd" clip-rule="evenodd" fill="#3A494F" d="M42.4,28.2c0.1,0,0.1-0.1,0.2-0.2c0.1,0,0.2,0,0.2,0
					c0-0.1,0.2-0.2,0.2-0.3c0-0.1-0.1,0-0.1-0.1s0.1,0,0.2-0.1c0-0.1-0.2-0.3-0.2-0.4c0-0.1,0.1,0,0.1-0.1c0-0.1-0.1-0.1-0.1-0.2
					c0-0.1,0.3-0.1,0.4-0.2c-0.1-0.2-0.1-0.5-0.1-0.6c0-0.2,0.2-0.1,0.3-0.3c0,0,0,0,0-0.1s-0.1-0.1-0.1-0.2c0-0.1,0.1,0,0.2-0.1
					c0,0-0.1-0.2-0.3-0.2c0.2-0.1,0.4-0.2,0.4-0.3c0-0.1-0.2-0.4-0.2-0.5c0-0.1,0.1,0,0.1-0.1s-0.1-0.1-0.1-0.2c0-0.2,0.2,0,0.3-0.1
					c0-0.1-0.1,0-0.1-0.1s0.1-0.1,0.2-0.2c0-0.1-0.1-0.5-0.1-0.6c0-0.1,0.2-0.2,0.2-0.3c0-0.1,0-0.3-0.1-0.4c0,0,0.2,0,0.3,0
					l0.1-0.6c-0.2,0-0.2,0.1-0.3,0c0-0.1,0.1,0,0.1-0.1c0-0.1-0.1-0.1-0.1-0.2s0.3-0.2,0.3-0.3c0-0.1-0.1-0.1-0.1-0.2
					c0-0.1,0.1,0,0.2-0.1s-0.1-0.2-0.2-0.3c0.1,0,0.2,0,0.3-0.1s-0.1,0-0.1-0.1c0-0.1,0.1,0,0.1-0.1s-0.1,0-0.1-0.1
					c0-0.1,0.1,0,0.1-0.1c0-0.1-0.1-0.2-0.1-0.3c0-0.1,0-0.2,0.2-0.2c0,0-0.1-0.1-0.2-0.1c0-0.1,0.1,0,0.1-0.1
					c0-0.1-0.1-0.1-0.1-0.2c0-0.1,0.2-0.2,0.2-0.3c0-0.1-0.1-0.2-0.1-0.3c0-0.1,0.1-0.1,0.1-0.1c0.1-0.2,0.1-0.4,0.2-0.6
					c0.1,0,0.1,0.1,0.1,0c0-0.1-0.2-0.4-0.2-0.6l0-0.1c0.1,0,0.1,0.1,0.2,0.2l0.1-0.3c0-0.1-0.1-0.1-0.1-0.2c0-0.1,0.1-0.1,0.2-0.2
					c0-0.1-0.1-0.1-0.1-0.2c0-0.1,0.1,0,0.1-0.1s-0.1-0.2-0.1-0.3c0-0.1,0.2-0.3,0.2-0.4c0-0.1,0.1-0.2-0.1-0.3
					c0.1,0,0.2-0.1,0.3-0.1c0-0.1,0.1-0.1,0-0.1c-0.2,0-0.1,0.1-0.2,0c0.1-0.1,0.3-0.2,0.3-0.3c0,0-0.1-0.2-0.3-0.3l0-0.1
					c0.1,0,0.3,0,0.4,0c0,0-0.1-0.1-0.2-0.1c0.1-0.1,0.3-0.1,0.3-0.2c0-0.1-0.2-0.3-0.2-0.4c0-0.1,0.1,0,0.2-0.1
					c0-0.1,0-0.1-0.1-0.1c0.1,0,0.2,0,0.3-0.1S46,13.1,46,13c0-0.1,0.1-0.1,0.2-0.2c0-0.2,0-0.2-0.3-0.3l0-0.1c0.1,0,0.4,0,0.4-0.1
					c0-0.1-0.1,0-0.1-0.1c0-0.1,0.1,0,0.1-0.1c0-0.1-0.1-0.2-0.2-0.3c0-0.1,0-0.1,0-0.2c0-0.1,0.3-0.4,0.4-0.5
					c0.1-0.3-0.2-0.3-0.2-0.4c0-0.2,0.3,0,0.3-0.3c0-0.1-0.1-0.2-0.1-0.3c0-0.1,0.2-0.2,0.3-0.3c0,0-0.1-0.1-0.2-0.1l0-0.1
					c0-0.1,0.1-0.1,0.2-0.1c0.1,0,0.2,0,0.2,0l0-0.1c0-0.1-0.1-0.1-0.2-0.2c0-0.1,0-0.2,0-0.3c0,0-0.1,0-0.1-0.1
					c0-0.1,0.2-0.2,0.3-0.3c0,0-0.1-0.1-0.2-0.1c0.1,0,0.2-0.1,0.2-0.2c0-0.1,0-0.2-0.1-0.3c0,0,0.2,0,0.3,0l0-0.2
					c-0.1,0-0.2-0.1-0.2-0.1l0-0.2c0-0.1,0.1,0,0.1-0.1c0-0.1,0-0.1-0.1-0.2c0.2-0.2,0.3-0.1,0.3-0.3c0-0.2-0.2-0.4-0.2-0.5
					c0-0.1,0.3-0.1,0.3-0.2c0-0.1-0.1,0-0.1-0.1c0-0.1,0.1,0,0.1-0.1s0-0.4-0.1-0.5c0,0,0,0,0-0.1c0-0.1,0.2-0.2,0.3-0.3l0-0.2
					c0-0.1-0.1-0.1-0.2-0.1c0.3-0.1,0.5-0.3,0.5-0.6c0.1,0,0.1,0.1,0.2,0.2c0.4,0.1,0.5-0.4,0.8-0.3c0.2,0,0.1,0,0.1,0.1
					c0,0.1,0,0.6,0.3,0.6c0.2,0,0.2-0.1,0.3-0.1c-0.1,0.4,0.2,0.5,0.1,0.6c0,0.2-0.2,0.3-0.2,0.3c0,0.1,0.1,0.2,0.1,0.3
					c0,0.1-0.1,0-0.1,0c0,0.2-0.2,0.4-0.2,0.5c0,0.1-0.1,0.2,0,0.2c0.1,0.1,0.2,0.2,0.2,0.3s-0.1,0-0.1,0c0,0.1-0.1,0.2-0.1,0.3
					c0,0.1-0.1,0.3,0,0.5c-0.1,0-0.1-0.1-0.1-0.1c0,0-0.1,0.1-0.2,0.1c0,0,0.1,0.1,0.1,0.2c0,0.1-0.1,0.1-0.1,0.1
					c0,0.1,0,0.1,0.2,0.2s0.1-0.1,0.2,0l0,0.2c-0.1,0-0.3,0.1-0.3,0.2c0,0.1,0.1,0,0.1,0.1s-0.1,0-0.1,0.1c0,0.1,0.1,0.1,0.1,0.2
					c0,0.1-0.1,0.1-0.2,0.2c0,0.1,0,0.3,0.1,0.4c0,0.1,0.1,0.1,0.2,0.2c-0.1,0-0.1-0.1-0.2-0.1c0,0.2-0.2,0.4-0.2,0.5
					c0,0.1-0.1,0.2,0,0.3l0,0c0,0.1-0.1,0-0.1,0.1c0,0,0.1,0.1,0.2,0.1c0,0.1-0.1,0-0.1,0.1c0,0.1,0,0,0.1,0.1c0,0.1-0.2,0-0.3,0
					c0,0.2-0.1,0.4-0.1,0.6c-0.1,0-0.1-0.1-0.1,0c0,0.1,0.2,0.4,0.1,0.5c0,0.1-0.3,0.1-0.3,0.2c0,0.1,0.1,0,0.1,0.1
					c0,0.1-0.2,0.2-0.3,0.2c0,0,0.1,0.1,0.2,0.1l0,0.1c-0.1,0-0.1,0.1-0.3,0.1c0,0,0.1,0.1,0.3,0.2l0,0.1c-0.1,0-0.1-0.1-0.2-0.1
					c-0.1,0,0,0-0.1,0.1c0,0.1,0.2,0.2,0.2,0.3c0,0.1-0.1,0-0.2,0.1c0,0.1,0.1,0.1,0.1,0.2c0,0.1-0.1,0-0.1,0.1c0,0.1,0,0.1,0.1,0.1
					c-0.1,0-0.2,0.1-0.3,0.1c-0.1,0.1,0,0.2-0.1,0.3c0,0.1-0.1,0.2,0,0.3c0,0,0.1,0.1,0.2,0.2c0,0,0,0,0,0.1c0,0.1-0.2,0.1-0.3,0.1
					c0,0,0,0.1,0,0.2c-0.1,0.3,0.2,0.3,0.2,0.4c0,0.1-0.2,0.1-0.4,0.2l0,0.1c0,0,0,0,0.1,0.1c0.2,0,0.2,0,0.3,0l-0.1,0.3
					c0,0.1-0.1,0.1-0.2,0.2c0,0.1,0,0.2,0.1,0.2c-0.1,0-0.1-0.1-0.2-0.1c-0.1,0,0,0-0.1,0.1c0,0.1,0.1,0.1,0.1,0.2
					c0,0.1-0.1,0-0.2,0.1c0,0.1,0.1,0.2,0.1,0.3c0,0.1-0.1,0.1-0.2,0.2c0,0.1,0.1,0,0.1,0.1c0,0.1-0.1,0-0.1,0.1
					c0,0.1,0.1,0,0.1,0.1c0,0.1-0.2,0.2-0.3,0.2c0,0.1,0,0.1,0.2,0.2c0.2,0,0.1-0.1,0.2,0c0,0.1-0.1,0.1-0.2,0.2
					c0,0.1,0,0.1,0.1,0.1c-0.1,0.1-0.3,0.1-0.3,0.2c0,0.1,0.1,0.2,0.1,0.2c0,0-0.1,0-0.3,0.1l0.4,0.1l-0.1,0.3
					c-0.1,0-0.1,0.1-0.3,0.1c0.1,0.1,0.2,0.4,0.2,0.5c0,0.1-0.2,0.2-0.3,0.2c0,0,0.1,0.1,0.2,0.1c-0.2,0.2-0.3,0.4-0.4,0.5
					c0,0.1,0,0.1,0.2,0.2l0,0.2c0,0.1-0.3,0.2-0.3,0.3c0,0.1,0.1,0.1,0.1,0.2c0,0.1-0.2,0.2-0.2,0.3c0,0.1,0.1,0.2,0.1,0.3
					c0,0.1-0.1,0-0.1,0.1c0,0.1,0.1,0.1,0.1,0.2c0,0.1-0.1,0.1-0.2,0.2s0.1,0.1,0.1,0.2c0,0.1-0.1,0-0.1,0.1c0,0.1,0.1,0.1,0.1,0.2
					c0,0.1-0.2,0.2-0.3,0.2c0,0,0.1,0.1,0.2,0.1c0,0.1-0.1,0-0.1,0.1s0.1,0,0.1,0.1c0,0.1-0.1,0-0.1,0.1s0,0.1,0.1,0.1
					c0,0.1-0.2,0.3,0.1,0.4c0,0.1-0.1,0-0.2,0c-0.1,0-0.2,0.1-0.2,0.2c0,0.1,0.1,0.2,0.3,0.2l0,0.2c-0.1,0-0.2,0-0.3,0.1
					c0,0.1,0.1,0,0.1,0.1c0,0.1-0.1,0.1-0.2,0.2c0,0.1,0,0.1,0,0.2c0,0,0.1,0.1,0.2,0.1c0,0,0,0.1,0.1,0.3c-0.1,0-0.1-0.1-0.1-0.1
					c0,0-0.1,0.1-0.2,0.1c0,0.1,0.1,0.2,0.1,0.3c0,0.1-0.1,0.1-0.2,0.2c0,0.1,0.1,0,0.1,0.1c0,0.1-0.1,0-0.1,0c0,0.1,0,0.1-0.1,0.2
					c0,0.1-0.1,0.2,0,0.3l0,0c0,0.1-0.1,0-0.1,0.1c0,0.1,0.1,0.1,0.1,0.2s-0.1,0-0.2,0.1c0,0.1,0.1,0,0.1,0.1c0,0.1-0.1,0-0.2,0.1
					c0,0.1,0.1,0.2,0.2,0.3c-0.1,0.1-0.3,0.2-0.3,0.3c0,0.1,0.1,0.1,0.1,0.2c0,0.1-0.1,0-0.1,0.1c0,0.1,0,0.1,0.1,0.1
					c0,0.1-0.2,0-0.3,0l-0.1,0.7c0,0.1,0.1,0,0.1,0.1c0,0.1-0.1,0-0.1,0.1c0,0.1,0.1,0.1,0.1,0.2c0,0.1-0.1,0-0.2,0.1
					c0,0.1,0,0.1,0.1,0.2c-0.1,0.1-0.2,0.2-0.4,0.2C44.2,29.8,44,30,43.9,30c0,0,0.1,0.1,0.2,0.1l0,0.2c0,0.2-0.1,0.1-0.2,0.2
					c-0.1,0-0.1,0.1-0.3,0.1c-0.2,0-0.1-0.1-0.2-0.2c-0.2,0-0.3,0.1-0.4,0.2c-0.2-0.2-0.3-0.3-0.5-0.5c0-0.1,0.1-0.1,0.2-0.2
					l-0.4-0.1l0-0.2c0-0.2,0.1,0,0.1-0.1c0,0-0.1-0.1-0.2-0.1c0-0.1,0.1-0.1,0.1-0.1c0-0.2,0.2-0.5,0.2-0.6c0.1-0.1,0.1-0.3,0.1-0.3
					c0-0.1,0-0.2,0-0.3C42.7,28.1,42.5,28.2,42.4,28.2z"/>
			</g>
		</g>
	</g>
	<g>
		<circle fill="#3A494F" cx="49.3" cy="3.3" r="2.7"/>
		<g>
			<g>
				<path fill-rule="evenodd" clip-rule="evenodd" fill="#3A494F" d="M52.4,5.2c0,0-0.1,0.1-0.1,0.1c0,0-0.1,0-0.1,0
					c-0.1,0.1-0.2,0.1-0.2,0.1c0,0.1,0.1,0.1,0,0.1c0,0.1-0.1,0-0.1,0c0,0.1,0,0.2-0.1,0.3c-0.1,0.1-0.1,0-0.1,0
					c-0.1,0.1,0,0.1,0,0.1c-0.1,0.1-0.2,0-0.3-0.1c0,0.1-0.2,0.3-0.3,0.4c-0.1,0.1-0.1,0-0.3,0c0,0,0,0,0,0c-0.1,0,0,0.1-0.1,0.1
					c-0.1,0-0.1-0.1-0.1,0c0,0-0.1,0.1,0,0.3c-0.1,0-0.3-0.2-0.3-0.1c-0.1,0-0.2,0.2-0.3,0.2c-0.1,0,0-0.1-0.1-0.1
					c-0.1,0-0.1,0.1-0.1,0.1c-0.2,0,0-0.2-0.1-0.1c-0.1,0,0,0.1-0.1,0.1c-0.1,0-0.1-0.1-0.2-0.1c-0.1,0-0.4,0.1-0.5,0.1
					c-0.1,0-0.2-0.1-0.2-0.1c-0.1,0-0.2,0-0.3,0c0,0,0-0.1,0-0.2c0,0-0.4-0.2-0.4-0.2c0,0.1,0,0.1,0,0.2c0,0,0-0.1-0.1-0.1
					c-0.1,0-0.1,0-0.2,0c-0.1,0-0.1-0.2-0.1-0.3c-0.1,0-0.1,0-0.2,0c-0.1-0.1,0-0.1,0-0.1c-0.1,0-0.1,0-0.2,0c0-0.1,0.1-0.1,0.1-0.2
					c0-0.1,0,0.1-0.1,0c-0.1-0.1,0.1,0,0-0.1c0-0.1,0,0.1-0.1,0c0-0.1,0-0.1,0-0.1c0-0.1-0.1,0-0.2-0.1c0-0.1-0.1-0.1,0-0.2
					c0,0-0.1,0-0.1,0c0,0,0-0.1,0-0.1c0-0.1-0.1,0-0.1-0.1c0-0.1,0-0.2,0-0.3c0-0.1-0.1-0.1-0.2-0.2c0-0.1,0-0.1,0-0.1
					C46.1,4.2,46,4,46,3.9c0,0,0.1,0,0.1-0.1c0-0.1-0.2-0.3-0.3-0.4l0-0.1c0.1,0,0.1,0.1,0.2,0.1l0-0.2c0-0.1-0.1,0-0.1-0.1
					C45.9,3,46,3,46,2.9c0-0.1-0.1-0.1-0.1-0.1c0-0.1,0.1,0,0.1-0.1c0-0.1-0.1-0.1,0-0.2c0-0.1,0.1-0.2,0.2-0.3c0-0.1,0.1-0.2,0-0.2
					c0.1,0,0.1-0.1,0.2-0.1c0-0.1,0.1-0.1,0-0.1c-0.1,0-0.1,0-0.1,0c0.1,0,0.2-0.1,0.2-0.1c0,0,0-0.2-0.1-0.3l0.1-0.1
					c0.1,0,0.2,0,0.2,0.1c0,0,0-0.1-0.1-0.1c0.1,0,0.2,0,0.2-0.1c0-0.1,0-0.3,0.1-0.3c0.1-0.1,0.1,0,0.1,0c0.1-0.1,0-0.1,0-0.1
					c0.1,0,0.1,0.1,0.2,0.1c0.1,0-0.1-0.1,0-0.1c0.1,0,0.1,0,0.2,0c0.1-0.1,0.1-0.1,0-0.3l0.1-0.1c0,0.1,0.2,0.2,0.2,0.1
					c0.1,0,0-0.1,0-0.1c0.1,0,0,0.1,0.1,0c0.1,0,0.1-0.1,0.1-0.2c0-0.1,0.1,0,0.2-0.1c0.1,0,0.4,0,0.5,0c0.2,0,0.1-0.2,0.3-0.2
					c0.1,0,0.1,0.1,0.3,0.1c0.1,0,0.2-0.1,0.2-0.1c0.1,0,0.2,0.1,0.3,0.2c0,0,0-0.1,0.1-0.1l0.1,0c0.1,0,0,0.1,0.1,0.1
					c0,0,0,0.1,0,0.1l0.1,0c0.1,0,0.1-0.1,0.1-0.1c0.1,0,0.1,0,0.2,0c0,0,0-0.1,0.1,0c0.1,0,0.2,0.1,0.2,0.3c0,0,0.1,0,0.1-0.1
					c0,0.1,0.1,0.1,0.1,0.2c0.1,0,0.2,0,0.2,0c0,0,0,0.1,0,0.2l0.1,0.1c0,0,0.1-0.1,0.1-0.1l0.1,0.1c0.1,0,0,0.1,0,0.1
					c0.1,0,0.1,0,0.1,0c0.1,0.2,0,0.2,0.1,0.3c0.1,0.1,0.3,0.1,0.3,0.2c0,0.1-0.1,0.2,0,0.3c0,0.1,0.1,0,0.1,0c0,0.1-0.1,0,0,0.1
					c0,0.1,0.2,0.2,0.3,0.2c0,0,0,0,0,0.1c0,0.1,0,0.2-0.1,0.3l0,0.1c0,0,0.1,0,0.2,0c-0.1,0.2-0.2,0.3-0.1,0.6
					c-0.1,0-0.1-0.1-0.2-0.1c-0.2,0-0.2,0.3-0.4,0.3c-0.1,0-0.1,0-0.1,0c0-0.1-0.1-0.3-0.3-0.3c-0.1,0-0.1,0.1-0.1,0.1
					c0-0.2-0.2-0.2-0.2-0.2c0-0.1,0-0.1,0-0.2c0,0-0.1,0-0.1-0.1c0,0,0,0,0-0.1c0-0.1,0-0.2,0-0.2c0,0,0-0.1-0.1-0.1
					c-0.1,0-0.2,0-0.2,0c0,0,0,0,0-0.1c0,0,0-0.1-0.1-0.1c0,0-0.1-0.1-0.2-0.1c0,0,0.1,0,0.1-0.1c0,0,0-0.1,0-0.1c0,0-0.1,0-0.1,0
					c0,0,0-0.1,0-0.1c0,0-0.1,0-0.1,0.1c-0.1,0.1,0,0.1,0,0.1l-0.1-0.1c0-0.1,0-0.2,0-0.2c0,0,0,0.1-0.1,0c0,0,0-0.1,0-0.1
					c0,0-0.1,0.1-0.1,0c0,0,0-0.1,0-0.1c0,0-0.1,0-0.2,0c0,0-0.1,0.1-0.1,0.1c0-0.1,0.1-0.1,0.1-0.1c-0.1,0-0.2-0.1-0.2-0.1
					c0,0-0.1,0-0.1,0l0,0c0,0,0,0,0-0.1c0,0,0,0.1,0,0.1c0,0,0-0.1,0-0.1c0,0,0,0,0,0.1c0,0,0-0.1,0-0.2c-0.1,0-0.2,0-0.3,0
					c0,0,0-0.1,0-0.1c-0.1,0-0.2,0.2-0.2,0.2c0,0-0.1-0.1-0.1-0.1c0,0,0,0.1,0,0.1c0,0-0.1-0.1-0.1-0.1c0,0,0,0.1,0,0.2l-0.1,0
					c0,0-0.1-0.1-0.1-0.1c0,0,0,0.1,0,0.2l-0.1,0c0,0,0-0.1,0-0.1c0,0,0,0,0,0c0,0,0,0.2,0,0.2c0,0-0.1-0.1-0.1,0c0,0,0,0.1,0,0.1
					c0,0-0.1-0.1-0.1,0c0,0,0,0,0,0.1c0,0-0.1-0.1-0.2-0.1c-0.1,0-0.1,0.1-0.1,0.1c0,0-0.1,0.1-0.1,0.1c0,0,0,0.1,0.1,0.1
					c0,0,0,0,0,0c0,0-0.1,0-0.2,0c0,0,0,0-0.1,0.1c-0.1,0.1,0.1,0.2,0,0.2c0,0-0.2,0-0.3,0l0,0c0,0,0,0,0.1,0c0.1,0,0.1,0,0.2,0
					l-0.1,0.1c0,0-0.1,0-0.1,0.1c0,0,0,0.1,0,0.1c-0.1,0-0.1-0.1-0.1-0.1c0,0,0,0,0,0c0,0,0.1,0,0.1,0.1c0,0-0.1,0-0.1,0.1
					c0,0,0.1,0.1,0.1,0.1c0,0-0.1,0.1-0.1,0.1c0,0,0.1,0,0.1,0c0,0-0.1,0-0.1,0.1c0,0,0.1,0,0.1,0.1c0,0-0.1,0.1-0.2,0.1
					c0,0,0,0.1,0.1,0.1c0.1,0,0.1,0,0.1,0c0,0.1-0.1,0.1-0.1,0.1c0,0,0,0,0.1,0c-0.1,0.1-0.1,0.1-0.1,0.1c0,0,0.1,0,0.1,0.1
					c0,0-0.1,0-0.1,0.1l0.2-0.1l0,0.1c0,0-0.1,0.1-0.1,0.1c0.1,0,0.2,0.1,0.2,0.1c0,0,0,0.1-0.1,0.2c0,0,0.1,0,0.1-0.1
					c0,0.1,0,0.3,0,0.3c0,0.1,0,0,0.2,0l0.1,0.1c0,0,0,0.2,0,0.2c0,0,0.1,0,0.1,0C48,4.9,48,5,48,5c0,0,0.1,0,0.1,0
					c0,0-0.1,0.1,0,0.1c0,0,0.1-0.1,0.1,0c0,0,0,0.1,0.1,0.1c0,0,0.1-0.1,0.1,0c0,0,0,0.1,0,0.1c0,0,0.1-0.1,0.1,0
					c0,0,0.1,0.1,0,0.2c0,0,0,0,0.1-0.1c0,0,0,0.1,0,0.1c0,0,0-0.1,0.1-0.1s0,0.1,0,0.1c0,0,0,0,0,0c0,0,0.1,0.1,0.2-0.1
					c0,0,0,0.1,0,0.1c0,0,0,0.1,0.1,0.1c0,0,0.1-0.1,0.1-0.2l0.1,0c0,0.1,0,0.1,0.1,0.1c0,0,0-0.1,0.1-0.1c0,0,0.1,0.1,0.1,0.1
					c0,0,0.1,0,0.1,0c0,0,0-0.1,0-0.1c0,0,0.1,0,0.1-0.1c0,0.1,0,0.1,0,0.1c0,0,0,0.1,0.1,0.1c0,0,0-0.1,0.1-0.1c0,0,0.1,0.1,0.1,0
					c0,0,0-0.1,0-0.1c0,0,0,0,0.1,0.1c0,0,0.1,0,0.1,0c0,0,0.1,0,0.1-0.1l0,0c0,0,0.1,0.1,0.1,0c0,0,0-0.1,0-0.1c0,0,0.1,0.1,0.1,0
					c0,0,0-0.1,0-0.1c0,0,0.1,0,0.1,0c0,0,0-0.1,0-0.2c0.1,0,0.2,0,0.2,0c0,0,0-0.1,0-0.1c0,0,0.1,0,0.1,0c0,0,0,0,0-0.1
					c0,0,0.1,0,0.1,0.1c0.1-0.1,0.1-0.2,0.2-0.3c0,0-0.1,0,0-0.1c0,0,0.1,0,0.1,0c0,0-0.1-0.1,0-0.1c0,0,0.1,0,0.1,0
					c0-0.1,0-0.1,0-0.1c0.1,0,0.2-0.1,0.3-0.1c0-0.1,0.1-0.2,0.2-0.2c0,0-0.1-0.1-0.1-0.1l0-0.1c0-0.1,0.1-0.1,0.1-0.1
					c0.1,0,0.1-0.1,0.2-0.1c0.1,0,0.1,0.1,0.1,0.1c0.1,0,0.2-0.1,0.2-0.2c0.1,0.1,0.2,0.2,0.4,0.3c0,0.1-0.1,0.1-0.1,0.2l0.2,0
					l0,0.1c0,0.1,0,0-0.1,0.1c0,0,0,0.1,0.1,0.1c0,0.1-0.1,0.1-0.1,0.1c0,0.1-0.2,0.4-0.2,0.5c-0.1,0.1-0.1,0.2-0.2,0.2
					c0,0.1-0.1,0.1-0.1,0.2C52.2,5.2,52.3,5.1,52.4,5.2z"/>
			</g>
		</g>
	</g>
	<g>
		<path fill="#FFFFFF" d="M93.1,61.5H4.8c-2.1,0-3.9-1.7-3.9-3.9V30.2c0-2.1,1.7-3.9,3.9-3.9h88.3c2.1,0,3.9,1.7,3.9,3.9v27.4
			C97,59.7,95.2,61.5,93.1,61.5z"/>
		<g>
			<g>
				<path fill-rule="evenodd" clip-rule="evenodd" fill="#3A494F" d="M85.5,62.7c-0.6,0-1.3-0.1-2-0.1c-0.2,0-0.1-0.1-0.5-0.2
					c-1.2,0-2-0.1-3.1-0.1s-0.2,0.1-1.2,0.1s-0.6-0.1-1.7-0.1s-2.3,0.2-3.3,0.2s-0.2-0.1-1.2-0.1s-0.6,0.1-1.7,0.1s-2-0.2-2.7-0.3
					c-1.5,0.1-5,0.2-6,0.2c-2,0-1.3-0.1-3.2-0.2c0,0,0.5,0-0.6,0s-0.6,0.1-1.7,0.1c-1,0-0.6-0.1-1.7-0.1c-0.5,0-1.4,0.1-1.8,0.3
					c-1.4-0.1-3-0.3-4-0.3s-3.5,0.2-4.6,0.2s-0.2-0.1-1.2-0.1s-1,0.1-2.1,0.1c-2.1,0-0.2-0.2-1.7-0.2c-1,0-0.2,0.1-1.2,0.1
					s-1.5-0.1-2.5-0.1c-1,0-5.3,0.2-6.2,0.2c-1,0-2.8-0.1-3.7-0.1c-1,0-2.6,0-3.5,0.1c-0.5,0-0.7-0.1-0.6-0.2h-6.8
					c0.4,0.1,0.9,0.1,0.8,0.2c-0.6,0-0.6-0.1-1.6-0.1s-1,0.1-2.1,0.1s-2.7-0.2-3.7-0.2s-1,0.1-2.1,0.1c-1.1,0-0.6-0.1-1.7-0.1
					c-1.2-0.1-2-0.4-2.6-0.8c-0.3-0.2-0.2-0.3-0.3-0.4c0-0.1-0.1-0.2-0.5-0.7c-0.7-1,0,0.3-0.6-0.8c-0.4-1.2,0.1,0.2-0.2-1
					c-0.2-1.2-0.1,0.3-0.2-1c0-1,0.1-0.2,0.1-1.3c0-1-0.1-1.5-0.1-2.5s0-1.6,0.1-2c0-0.3-0.1-0.5-0.2-0.6c0-0.6,0.1-0.6,0.1-1.6
					c0-1-0.1-1-0.1-2.1s0.1-2.3,0.1-3.3S0,42,0,41c0-1,0.1-1.2,0.1-1.5c0-2,0-4.1,0-6.1c0-0.2,0.1,0.4,0.1-0.7
					c0-0.5-0.1-1.5-0.1-2.6c-0.1-1.3,0.6-2.7,1.3-3.4c0,0,0.3-0.3,0.7-0.6C2.5,25.8,3,25.7,3,25.7c0.1,0-1,0.5-1.6,1.3
					c0,0,0.2-0.2,0.4-0.4c0.3-0.2,0.7-0.5,1.1-0.7c0.9-0.4,1.8-0.4,1.8-0.4c1.1,0,0.5-0.1,1.5-0.1c1,0,1.5,0.1,2.5,0.1
					c1,0,0.6-0.1,1.7-0.1s0.2,0.1,1.2,0.1s1.5-0.1,2.5-0.1c1,0,3.6,0.1,4.6,0.1c0.8,0,2.5,0,3.1-0.1c0.6,0.1,1.5,0.1,1.8,0.2
					c1.1,0,1.3,0.1,1.3-0.1c0-0.1-0.8-0.1-0.7-0.2c1.1,0.1,2.2,0.2,3.2,0.2c0.3,0,2.2-0.1,2.6-0.3h1.5c0.1,0.1,0.9,0.2,1.2,0.3
					c0.3,0,0.5-0.1,0.6-0.2c1.1,0.1,1.7,0.2,2.8,0.2s2.7-0.2,3.7-0.2s0.6,0.1,1.7,0.1s0.8,0,1-0.1c0.6,0.1,0.1,0.2,1.1,0.2
					s-0.2-0.1,0.8-0.1s1,0.1,2.1,0.1c1.8,0,2.2,0,2.6-0.3h1.5c0.1,0.1,0.7,0.3,1.3,0.3c1,0-0.2-0.1,0.8-0.1c1,0-0.2,0.1,0.8,0.1
					s1.6-0.1,2.3-0.2c0.6-0.1,1.3,0,2.3,0c1,0,5.3,0.2,6.2,0.2c3.6,0,2.5-0.2,4.2-0.2c1.8,0,0.6,0.2,4.2,0.2c1,0,2.3-0.1,3.3-0.1
					s2.8,0.1,4,0.2c0.4,0,0.6-0.1,0.6-0.2h1.4c1,0,0.9,0.1,1.6,0.1c0.2,0,0.2,0.1,0.5,0.2h1.2c1,0,0.7-0.1,1.2-0.2c0.8,0,2,0,2.8,0
					c0.4,0-0.3-0.1,0.7-0.1c0.5,0,1.2,0,2,0.1c0.7,0,1.6,0.1,2.2,0.4c0.4,0.1,0.6,0.2,0.8,0.2c0.7,0.4,1.6,1.4,2,2.6
					c0.1,0.3,0.2,0.6,0.2,0.9c0,0.3,0.1,0.7,0.1,0.9c0,0.5,0,1,0.1,1.5c0,0.5-0.1,0.7-0.2,0.6v2.3c0,0.3,0.1,0.3,0.2,0.3v2.2
					c0,1-0.1,0.5-0.1,1.5c0,1,0,1.2,0.1,1.3c-0.1,3-0.2,1.2-0.2,4.1c0,1.8,0.2,4,0.2,4.6c0,1-0.2,1.9-0.2,2.9s0.1,0.2,0.1,1.2
					s-0.1-0.2-0.1,0.8c0,0.5,0,1.4,0.1,2.3c0,0.4,0,0.9,0.1,1.3c0,0.5,0,1-0.1,1.4c0,0.2-0.1,0.2-0.1,0.3c0,0.1-0.1,0.3-0.4,0.8
					c-0.3,0.5-0.9,1.1-1.5,1.4c-0.3,0.2-0.6,0.3-0.9,0.4l-0.2,0.1c-0.1,0-0.1,0-0.1,0l-0.1,0l-0.2,0c0,0.1,0,0.1,0,0.2
					c-0.2-0.1-0.4-0.2-0.7-0.2c0-0.1,0.1-0.1,0.1-0.2c0-0.3-0.4-0.3-0.4-0.5c0-0.1,0-0.1,0-0.1c0.1,0,0.4-0.1,0.4-0.4
					c0-0.1-0.1-0.1-0.1-0.2c0.2,0,0.2-0.2,0.3-0.3c0,0,0.1,0,0.1,0c0,0,0,0,0.1,0l0.3-0.1c0.2-0.1,0.3-0.1,0.5-0.2
					c0.3-0.2,0.5-0.4,0.6-0.7c0.1-0.2,0.3-0.5,0.4-0.8c0.2-0.7,0.1-0.2,0.2-0.5c0-0.2,0-0.3,0-0.5c0-0.2,0-0.5,0-0.7
					c0-0.5,0-1,0-1.4c0-1,0-1.8,0.1-2.4c0-1,0-1.9,0-2.6s-0.2-1.4-0.2-2.4c0-1,0.1-0.3,0.1-0.7c0-0.8,0-2,0-3c0-1,0-3-0.1-4.9
					c0.1-0.1,0.1,0.4,0.1,0.7c0,0,0.1-0.8,0.2-1.2c0-0.3-0.1-0.3-0.1-1.3c0-1,0.1-0.8,0.1-1.1c0-0.7,0-1.4-0.2-1.4s-0.1,0.8-0.1,0.8
					v-2.3c0.1-0.5,0.2-1.1,0.2-2.2s-0.1,0.2-0.1-0.8c0-0.5,0-0.4,0-0.4c0,0,0.1,0.1,0-0.3c-0.1-0.4-0.1-0.5-0.2-0.6
					c-0.1-0.2-0.2-0.3-0.3-0.5c-0.2-0.3-0.3-0.5-0.4-0.6c-0.1-0.2-0.3-0.3-0.6-0.5c-0.4-0.2-0.9-0.3-1.4-0.3c-0.7,0-1.4,0.1-2,0.1
					c-0.7,0-1.2,0.1-1.8,0.2c-0.1-0.1,0.7-0.1,0.8-0.2c-1.9,0-4.8-0.1-5.9-0.1s-2.1,0-2.8,0.1v0c-1.2,0-0.5-0.1-0.8-0.1
					c-0.3,0-0.5,0.1-0.6,0.2c-0.6,0-0.1-0.1-1.2-0.1s-0.4,0-0.5,0.1c-0.6,0-0.8-0.1-0.7-0.2c-1.9,0-4.4,0-6.5,0
					c-0.2,0,0.4-0.1-0.6-0.1s-4,0.2-5,0.2s-1.5-0.2-2.5-0.2s0.2,0.1-0.8,0.1c-1,0-2.1-0.1-2.4-0.2c-0.3,0-0.5,0.1-0.6,0.2h-1.6
					c-0.1-0.1-0.9-0.1-1.2-0.2c-0.3,0-1.1,0.1-1.5,0.3h-1.5c-0.1-0.1,0.8-0.1,0.8-0.2c-0.4,0,0.2,0-0.8,0s-1.9,0.2-2.9,0.2
					s-0.6-0.1-1.7-0.1s-0.6,0.1-1.7,0.1s-0.2-0.1-1.2-0.1c-1,0-0.8,0-1,0.1c-0.6-0.1-1.3-0.1-1.9-0.2c-0.7-0.1-2,0-3,0s-2.3,0-3.1,0
					c-0.5,0-0.7,0.1-1.4,0.2c0,0,0.5,0-0.6,0s-1.4-0.1-2-0.2c-0.3,0-0.7,0-1.7,0c-3.5,0-2.4,0.2-4.2,0.2c-1.4,0-1.6-0.2-3.2-0.3
					h-1.1c-0.3,0-0.3,0-0.3,0.1s0.8,0.1,0.8,0.2h-3c-1,0-1.1-0.1-2.1-0.1s-1.5,0-2.2,0.1c-0.1-0.1,0.7-0.1,0.7-0.2
					c-0.4,0,0.2,0-0.8,0c-1,0-0.6,0.1-1.7,0.1s-0.6-0.1-1.7-0.1s-1.9,0.1-2.9,0.1s-1.5-0.1-2.5-0.1s0.2,0.1-0.8,0.1S6.1,27.1,5,27.1
					c-0.5,0-0.5,0-0.5,0.1c0,0-0.1,0-0.5,0.1c-0.8,0.2-1.4,0.7-1.7,0.8c-0.3,0.5-0.5,1-0.4,1c0.1,0,0.3-0.5,0.4-0.5
					c-0.3,0.4-0.3,0.7-0.4,0.9c0,0.1-0.1,0.2-0.1,0.3c0,0.1,0,0.1,0,0.2c0,0.1,0,0.2,0,0.3c0,1,0,0.8,0.1,1
					c-0.1,1.1-0.2,1.7-0.2,2.8s0.1,1.5,0.1,2.3c0,0.4-0.1,0.5-0.2,1.5h0.3v3.2c-0.1,0.1-0.1,0.9-0.2,1.2c0.1,1.1,0.2,3.3,0.2,4.3
					c0,1-0.1,2.1-0.2,2.4c0,0.3,0.1,0.5,0.2,0.6c-0.1,1.9-0.2,5.1-0.2,6.1c0,1.4,0,1.4,0.2,1.3c0,0,0,0.1,0,0.3c0,0.2,0,0.4,0.1,0.6
					c0.1,0.4,0.3,0.8,0.3,0.8c0.2,0.3,0.4,0.8,0.8,1.1c0.4,0.3,0.8,0.6,1.2,0.6c0.4,0.1,0.5,0,0.7,0c0.2,0,0.3-0.1,0.8-0.1
					c1,0,1.9,0.1,2.9,0.1s1.5-0.1,2.5-0.1s-0.2,0.1,0.8,0.1s0.6-0.1,1.7-0.1s1.5,0.1,2.5,0.1s0.6-0.1,1.7-0.1s-0.2,0.1,0.8,0.1
					s0.6-0.1,1.7-0.1s2.1,0.1,2.4,0.2c0.3,0,0.5-0.1,0.6-0.2c0.6,0,0.1,0.1,1.2,0.1s-0.2-0.1,0.8-0.1s-0.2,0.1,0.8,0.1
					s0.4,0,0.7-0.1c0.8,0,3.3,0.1,4-0.1c0.5,0,0.7,0.1,0.8,0.2c0.6,0,1.3,0.1,2.4,0.1c0.6,0,1.4-0.1,1.7-0.3h2.3
					c0.5,0.1,0.7,0.2,1.8,0.2s0.2-0.1,1.2-0.1s1.5,0.1,2.5,0.1c1,0,1.4,0,1.8,0c0.4,0,0.3-0.1,0.5-0.2c0.4,0,1.5,0,3-0.1
					c0.1,0.1-0.4,0.1-0.7,0.1c0,0,0.8,0.1,1.1,0.2c0.7,0,1.6-0.1,2.6-0.1s1.5,0.1,2.5,0.1s-0.2-0.1,0.8-0.1s0.3,0.1,0.7,0.1
					c0.8,0,1.2,0,2.2,0c1,0,2.1,0,2.8-0.1v0c1.2,0,0.3,0.1,1.4,0.1s0.6-0.1,1.7-0.1s0.6,0.1,1.7,0.1c1,0,0.2-0.1,1.2-0.1
					s0.6,0.1,1.7,0.1s1.7-0.1,2.3-0.2c1,0.1,2.5,0.2,3.6,0.2s0.6-0.1,1.7-0.1s0.2,0.1,1.2,0.1c1,0,0.8,0,0.9-0.1
					c0.6,0,0.8,0.1,0.7,0.2h7.1c1,0-0.2-0.1,0.8-0.1s0.2,0.1,1.2,0.1s0.6-0.1,1.7-0.1s0.6,0.1,1.7,0.1c0,0,0.1,0,0.1,0c0,0,0,0,0,0
					c0,0,0,0,0,0c0,0,0,0,0-0.1c0.1,0.1,0.2,0.2,0.2,0.3c0.1,0,0.4,0.1,0.4,0.2c0,0,0.1-0.1,0.1-0.2h0.2c0.1,0,0.1,0.1,0.2,0.1
					c0,0.1,0.1,0.1,0.1,0.2c0,0.1-0.1,0.1-0.1,0.2c0,0.1,0.1,0.2,0.2,0.3c-0.1,0.2-0.2,0.3-0.3,0.5c-0.1,0-0.1-0.1-0.2-0.1v0.3h-0.1
					c-0.1,0,0-0.1-0.1-0.1c0,0-0.1,0.1-0.1,0.2c-0.1,0-0.1,0-0.1-0.1c-0.1,0-0.2,0-0.3,0l-0.2,0c-0.4,0-0.8,0-1.1,0
					c-1.6,0-3,0-3.6-0.1c-1,0-2.2,0-2.9,0C84.5,62.5,85.3,62.6,85.5,62.7z"/>
			</g>
		</g>
	</g>
</g>
<g>
</g>
<g>
</g>
<g>
</g>
<g>
</g>
<g>
</g>
<g>
</g>
<g>
</g>
<g>
</g>
<g>
</g>
<g>
</g>
<g>
</g>
<g>
</g>
<g>
</g>
<g>
</g>
<g>
</g>
</svg>
