<?xml version="1.0" encoding="utf-8"?>
<!-- Generator: Adobe Illustrator 18.0.0, SVG Export Plug-In . SVG Version: 6.00 Build 0)  -->
<!DOCTYPE svg PUBLIC "-//W3C//DTD SVG 1.1//EN" "http://www.w3.org/Graphics/SVG/1.1/DTD/svg11.dtd">
<svg version="1.1" id="Layer_1" xmlns="http://www.w3.org/2000/svg" xmlns:xlink="http://www.w3.org/1999/xlink" x="0px" y="0px"
	 viewBox="0 0 171.8 127.4" enable-background="new 0 0 171.8 127.4" xml:space="preserve">
<g>
	<path fill="#FFFFFF" d="M170.8,50.3c0-27.3-38.1-49.4-85-49.4S0.8,23,0.8,50.3s38.1,49.4,85,49.4c7.4,0,14.6-0.5,21.4-1.6
		l-3.8,27.4c0,1.2,1.6,1.6,2.2,0.5L119,95.8C149.5,88.2,170.8,70.7,170.8,50.3z"/>
	<g>
		<g>
			<path fill-rule="evenodd" clip-rule="evenodd" fill="#3A494F" d="M167.2,38.3c-0.4-0.9-0.9-2.2-1.7-3.4c-0.2-0.4,0-0.3-0.4-0.9
				c-0.6-1-1.1-1.7-1.6-2.5c-0.5-0.7-1-1.4-1.6-2.2c-1.3-1.5-0.3-0.2-1.6-1.7c-1.3-1.4-0.7-0.9-2.1-2.3c-0.7-0.7-1.5-1.3-2.4-2
				c-0.9-0.7-1.7-1.3-2.5-1.9c-1.6-1.2-0.3-0.3-1.8-1.5c-1.6-1.1-1-0.6-2.6-1.7c-0.7-0.5-1.5-1-2.3-1.6c-0.7-0.5-1.4-1-1.9-1.3
				c-0.6-0.3-1.5-0.8-2.4-1.2c-0.9-0.5-2-0.9-3-1.4c-1-0.4-2-0.9-2.8-1.3c-0.9-0.4-1.6-0.6-2-0.8c-1.8-0.7-2.3-0.9-2.9-1.2
				c-0.5-0.2-1-0.5-2.7-1.1c0,0,0.8,0.3-1-0.4c-1.9-0.6-1.1-0.3-3-0.9c-1.9-0.6-1.1-0.4-3-1c-0.9-0.2-2.6-0.6-3.3-0.6
				c-1.3-0.3-2.7-0.7-3.9-1.1c-1.3-0.3-2.5-0.6-3.4-0.8c-1-0.2-2.6-0.4-4.3-0.6c-1.7-0.2-3.3-0.4-4.3-0.5c-1.9-0.2-0.4-0.1-2.3-0.3
				c-2-0.2-2-0.1-3.9-0.3c-4-0.3-0.4-0.2-3.1-0.4c-2-0.1-0.4,0.1-2.4,0c-2-0.1-2.7-0.1-4.7-0.2c-1,0-3.4,0.1-5.9,0.2
				c-1.2,0.1-2.5,0.2-3.5,0.2c-1,0.1-1.9,0.2-2.4,0.2c-1,0.1-2.2,0.2-3.5,0.3c-1.3,0.1-2.5,0.2-3.5,0.4C65.5,3,62.6,3.5,61,3.8
				c-0.9,0.2-1.3,0.1-1.2,0c0,0-3.1,0.6-6.2,1.3C52,5.5,50.5,6,49.3,6.3c-1.1,0.3-1.9,0.6-1.9,0.6c0.8-0.1,1.6-0.4,1.5-0.3
				c-1,0.3-1,0.2-2.9,0.8c-1.9,0.6-1.8,0.7-3.7,1.3c-0.9,0.3-2.1,0.7-3.3,1.1c-1.2,0.4-2.4,0.9-3.3,1.3c-1.8,0.8-1.7,0.9-3.5,1.7
				c-1.8,0.9-1.1,0.4-2.8,1.3c-1.7,0.9-2.8,1.6-3.6,2.2c-1,0.5-0.1-0.1-1.8,0.9c-1.7,1,0.4-0.2-1.3,0.9c-1.6,1.1,0.3-0.3-1.3,0.8
				c-1.6,1.1,0.4-0.2-1.2,1c-1.6,1.2-0.4,0.2-1.9,1.3c-1.5,1.2-2.1,1.8-3.5,3.1c-0.7,0.6-1.3,1.2-1.7,1.6c-0.4,0.4-0.8,0.7-1,0.9
				c-0.4,0.4-0.6,0.8-0.6,0.9c-0.7,0.8-0.8,0.7-2,2.2c-0.6,0.8-0.9,1.2-1.2,1.6c-0.3,0.4-0.5,0.8-1.1,1.6c-0.6,0.8-1.1,1.7-1.6,2.6
				c-0.5,0.9-1,1.9-1.4,2.8c-0.3,0.9-0.8,1.9-1,2.9c-0.1,0.5-0.3,1-0.4,1.5c-0.1,0.5-0.2,1-0.3,1.5C2,45.3,2,45.8,1.9,46.2
				c-0.1,0.4-0.1,0.6-0.2,0.9c-0.1,0.5-0.1,0.9-0.1,1.4l-0.1,1.4c0,0.9,0.1,1.9,0.1,2.8c0.1,0.9,0.2,1.9,0.4,2.8
				c0.2,0.9,0.3,1.9,0.7,2.8c0.1,0.4-0.3-0.6,0.3,1.2c0.1,0.5,0.4,1.1,0.7,1.8C4,62.1,4.4,63,4.9,63.8c0.9,1.7,2.1,3.5,3,4.7
				c0,0,1.6,2.2,1.6,2.2c0,0.1-1-1.1-2-2.3c0,0,0.2,0.3,0.5,0.7c0.3,0.4,0.8,1,1.2,1.6c0.4,0.6,0.9,1.1,1.3,1.5
				c0.4,0.4,0.6,0.7,0.6,0.7c1.3,1.4,0.7,0.6,2,2c0.7,0.7,1.2,1.1,1.7,1.6c0.5,0.5,1,1,1.7,1.6c1.5,1.2,0.9,0.7,2.5,1.9
				c1.6,1.2,0.3,0.3,1.8,1.4c1.6,1.1,2.3,1.5,4,2.5c0.8,0.5,2.3,1.3,3.7,2.2c1.5,0.8,2.9,1.6,3.8,2c0.7,0.3,1.7,0.8,2.8,1.3
				c1,0.4,2.1,0.8,2.6,1c1,0.5,2.6,1.1,3.1,1.4c2,0.7,2.4,0.9,2.4,0.8c0-0.1-1.5-0.6-1.2-0.5c1.9,0.7,3.8,1.5,5.7,2
				c0.5,0.2,4.1,1,4.7,1c0,0,0.7,0.2,1.4,0.3c0.7,0.2,1.4,0.3,1.4,0.3c0.1,0.1,1.5,0.5,2.2,0.7c0.6,0.1,1,0.1,1.2,0.1
				c1.9,0.5,3.2,0.8,5.1,1.1c1.9,0.3,5.1,0.5,7,0.7c2,0.2,1.2,0.2,3.1,0.4c2,0.1,1.6,0.1,1.8,0c1.2,0.1,0.1,0.2,2.1,0.3
				c2,0.1-0.4-0.1,1.6,0c2,0.1,2,0.2,3.9,0.2c3.4,0.1,4.2,0,4.8-0.2l2.9-0.1c0.1,0.1,1.3,0.2,2.5,0.1c2-0.1-0.4-0.1,1.6-0.2
				c2-0.1-0.4,0.1,1.6,0c2-0.1,2.9-0.4,4.3-0.5c1.3-0.2,2.4-0.3,4.3-0.5c0.3,0,0.8-0.1,1.4-0.2c0.4,0,0.7-0.1,1.1-0.2l0.2,0
				c0.1,0,0.1,0,0.1,0.1l0,0.3c0,0.2-0.1,0.4-0.1,0.7c-0.2,1.2-0.4,2.6-0.6,4c-0.4,2.5-0.7,4.9-0.9,5.8c-0.9,6.7-0.5,4.7-0.9,7.8
				c-0.5,3.3-0.3,1.1-1.3,7.8c-0.1,0.5-0.1,1-0.2,1.5c0,0.3,0,0.3,0,0.5c0,0.1,0.1,0.2,0.2,0.2c0.2,0.1,0.5,0,0.6-0.2l0-0.1l0.1-0.2
				l0.2-0.4c0.1-0.2,0.2-0.5,0.3-0.7c0.8-1.8,2.3-4.8,3.2-6.9c0.3-0.6,0.4-1,0.3-1.2l1.1-2.4c0.8-1.8,0.7-1.5,1.3-2.8
				c0.2-0.4,0.3-0.3,0.6-0.9l0.9-2c0.8-1.8,0.4-1.2,0.8-2.2c0.6-1.4,1.6-3.5,2.2-4.9c0.3-0.7-0.3,0.6,0.5-1.2c0.4-0.9,1-2.1,1.6-3.4
				c0.2-0.4,0.3-0.7,0.5-1.1l0.1-0.2c0-0.1,0.1-0.1,0.1-0.1l0.4-0.1l0.6-0.1c0.6-0.1,1.3-0.3,1.8-0.4c0.6-0.2,1-0.4,1.2-0.5
				c1.2-0.3,3.2-0.8,5-1.5c1.9-0.6,3.9-1.4,5.4-2.1c0.8-0.3,1.2-0.4,1.1-0.3c0,0,0.2-0.1,0.6-0.2c0.4-0.2,0.9-0.4,1.4-0.6
				c1-0.4,2-0.9,2-0.9c0.6-0.3,0.4-0.3,0.5-0.4c0,0,0.9-0.4,1.8-0.9c0.5-0.2,0.9-0.5,1.3-0.6c0.3-0.2,0.6-0.3,0.6-0.3
				c1.7-0.9,0.8-0.3,2.5-1.3c1.7-1,2-1.2,2.1-1.3c2.4-1.4,2.8-1.7,3.3-2c0.4-0.3,0.9-0.5,3.1-2.2c2.7-2.1,5.6-5,6.3-5.8
				c1.4-1.4,2.5-2.5,3.7-4c1.1-1.6,0.2-0.4,1.3-2c1-1.6-0.1,0.4,0.9-1.3c0.2-0.4,0.6-1,0.9-1.6c0.3-0.7,0.7-1.4,1-2.2
				c0.7-1.5,1.2-3.2,1.5-4.4c0.1-0.6,0,0,0.4-1.8c0.1-0.5,0.2-1,0.3-1.5c0.1-0.5,0.2-1.1,0.3-1.6c0.1-0.5,0.2-1,0.2-1.5
				c0-0.1,0-0.2,0-0.3c0-0.1,0-0.2,0-0.2l0,0l0-0.1c0,0-0.1,0-0.2,0c0.2-0.1,0.3-0.2,0.3-0.5c0.1,0,0.1,0.1,0.2,0.1
				c0.3,0,0.3-0.3,0.5-0.3c0.1,0,0.1,0,0.1,0c0,0.1,0.1,0.4,0.3,0.4c0.1,0,0.1-0.1,0.2-0.1c0,0.3,0.2,0.3,0.2,0.4c0,0.1,0,0.1,0,0.2
				l0,0c0,0,0-0.1,0,0.1l0,0.7c0,0.5-0.1,0.9-0.1,1.5c-0.2,2-0.3,2.8-0.8,4.8c-0.6,1.9-0.2,0.6-0.5,1.3c-0.5,1.5-1.2,3.3-2.1,5
				c-0.8,1.6-1.8,3.1-2.3,3.9c-1.1,1.7-2.2,3-3,4c-0.8,1-1.6,2.1-3,3.5c-1.4,1.4-0.5,0.4-1,0.9c-1.1,1-2.9,2.6-4.5,3.8
				c-1.6,1.2-4.7,3.4-7.7,5.3c-0.2,0,0.6-0.4,1.2-0.8c0,0-0.4,0.2-0.8,0.4c-0.4,0.2-0.9,0.5-1.2,0.6c-0.5,0.3-0.5,0.4-2.2,1.3
				c-1.8,0.9-1.3,0.6-1.9,0.9c-1.2,0.7-2.4,1.2-2.4,1.3c0,0.1,1.5-0.6,1.4-0.5c0,0-1,0.5-2,1c-0.5,0.2-1,0.5-1.4,0.6
				c-0.4,0.2-0.6,0.3-0.6,0.3c-0.9,0.3-2.1,0.7-3.9,1.4c-1.9,0.7,0.4-0.1-1.5,0.6c-1.9,0.7,0.3-0.2-1.5,0.5c-1.9,0.6-1.1,0.5-3,1.1
				c-1.9,0.6-1.9,0.5-3.8,1.1c-0.5,0.1-1,0.3-1.6,0.5c-0.5,0.1-1,0.3-1.6,0.4c0,0,0,0.1-0.1,0.1l-0.2,0.4c-0.1,0.3-0.3,0.6-0.4,0.9
				c-0.2,0.6-0.5,1.1-0.7,1.6c-0.5,1.3-0.8,2.1-1.3,3.2c-0.2,0.2,0.4-1.3,0.4-1.4c-1.5,3.3-3.8,8.4-4.6,10.2
				c-0.8,1.8-1.6,3.7-2.1,4.8l0,0c-0.9,2-0.4,0.8-0.7,1.4c-0.3,0.6-0.4,1-0.3,1.1c-0.4,1-0.2,0.2-1,2c-0.8,1.8-0.3,0.7-0.3,0.9
				c-0.4,1-0.7,1.3-0.7,1.2c-0.4,0.8-0.8,1.7-1.2,2.7c-0.1,0.2-0.2,0.5-0.3,0.7c-0.1,0.3-0.4,0.7-0.8,0.9c-0.8,0.5-1.8,0.3-2.4-0.4
				c-0.3-0.3-0.5-0.8-0.5-1.3c0-0.3,0-0.3,0.1-0.5l0.1-0.4c0.1-0.5,0.1-1.1,0.2-1.6c0.1-1,0.3-2.1,0.4-3.1c0.1-0.3,0,0.8,0.2-1.1
				c0.2-1.9,0.9-7.5,1.1-9.4c0.3-2,0.6-2.7,0.8-4.7s-0.1,0.4,0.1-1.6c0.1-1,0.3-1.9,0.4-2.7c0.1-0.4,0.1-0.7,0.2-1.1
				c0-0.2,0.1-0.2,0.1-0.3c0-0.1,0-0.2,0-0.2c-0.1,0-0.2,0.1-0.2,0.1l-2.2,0.3c-0.1,0-1.6,0.1-2.2,0.1c-0.5,0.1-2,0.3-2.8,0.5
				l-2.9,0.2c-0.1,0,1.5-0.2,1.5-0.3c-0.7,0,0.4-0.1-1.6,0.1c-2,0.1-3.5,0.4-5.5,0.5c-2,0.1-1.2,0-3.2,0c-2,0-1.2,0.1-3.2,0.1
				c-2,0-0.4-0.1-2.4-0.1c-2-0.1-1.6,0-1.8,0c-1.2-0.1-2.3-0.2-3.5-0.3c-1.3-0.2-3.7-0.3-5.7-0.5c-2-0.2-4.3-0.5-5.8-0.7
				c-0.7-0.1-1.4-0.1-2.6-0.3c0,0,0.9,0.2-1.1-0.2c-2-0.3-2.7-0.6-3.8-0.9c-0.5-0.1-1.3-0.2-3.2-0.7c-3.3-0.7-4.4-1.1-5.1-1.2
				c-0.7-0.1-1-0.2-2.6-0.7c-1.2-0.4-1.9-0.6-2.7-0.9c-0.8-0.3-1.7-0.7-3-1.2l-2-0.8c-0.6-0.2-0.5-0.2-0.5-0.1
				c0,0.1,1.4,0.7,1.3,0.7c0,0-0.3-0.1-0.8-0.3c-0.5-0.2-1.2-0.4-1.8-0.7c-0.7-0.3-1.3-0.5-1.8-0.8c-0.5-0.2-0.8-0.4-0.8-0.4
				c-1.8-0.8-1.9-0.9-3.7-1.8c-1.7-0.8-2.5-1.2-3.7-1.8c-0.2-0.2,1.2,0.6,1.3,0.5c-0.6-0.4,0.3,0.2-1.4-0.8c-1.7-1-1.1-0.5-2.8-1.5
				c-1.7-1-1-0.7-2.6-1.8c-1.7-1.1-3-2-4.6-3.2c-1.6-1.3-2.1-1.8-3.6-3.2c-1.5-1.4,0.2,0.4-1.2-1c-1.4-1.4-0.2-0.3-1.6-1.8
				c-1.3-1.5-0.3-0.2-1.7-1.7c-0.6-0.8-1.2-1.6-1.7-2.2c-0.5-0.7-0.8-1.2-0.9-1.5c-0.8-1-1.4-2.3-1.5-2.2c-0.1,0.1,0.7,1.4,0.7,1.3
				C4,65.6,4,65.5,3.2,63.7c-0.5-0.9-0.6-1.3-0.7-1.4c-0.1-0.2-0.1-0.1-0.2-0.2c-0.3-1-0.6-1.8-0.8-2.6c-0.2-0.8-0.5-1.6-0.6-2.6
				c-0.1-0.5-0.2-0.9-0.3-1.3c-0.1-0.4-0.1-0.7-0.2-1c-0.1-0.6-0.2-1.2-0.3-2.1c0-0.4,0-0.7,0-1.1c0-0.4,0-1,0.1-1.9l-0.3,0
				c0,0,0-0.4,0-1c0-0.6,0.1-1.4,0.2-2.1c0.1-0.8,0.2-1.5,0.3-2.1c0.1-0.6,0.2-0.9,0.2-0.9c0,0,0.1-0.5,0.3-0.9
				c0.2-0.4,0.3-0.9,0.5-1.2c0.2-1,0.8-2.5,1.4-4c0.3-0.7,0.7-1.4,1-2.1c0.4-0.6,0.7-1.2,0.9-1.6c1-1.7,2.3-3.3,2.8-3.7
				c0.4-0.5,0.6-0.8,0.6-1c0.6-0.7,1.3-1.5,2.1-2.3c0.8-0.8,1.6-1.6,2.4-2.4c0.8-0.7,1.7-1.5,2.3-2.1c0.7-0.6,1.3-1.1,1.7-1.4
				c2.1-1.7,2.1-1.6,1.9-1.7c0,0,0.2-0.2,0.5-0.4c0.3-0.2,0.7-0.5,1.2-0.8c0.9-0.6,1.7-1.2,1.7-1.2c0.8-0.6,1.9-1.1,3-1.7
				c1.1-0.6,2.2-1.1,3-1.6c1.8-0.9,1-0.6,2.8-1.5c0.9-0.5,1.7-0.8,2.5-1.1c0.8-0.4,1.6-0.7,2.6-1.1c1.8-0.8,2.5-1.1,4.4-1.8
				C42.2,7,40,7.9,41.8,7.2c1.9-0.6,1.1-0.5,3-1.1c1.9-0.6,2.7-0.7,4.6-1.3c1.9-0.5,1.1-0.4,3-0.9c1.9-0.4-0.4,0.2,1.6-0.3
				C56,3.3,55.2,3.4,57.1,3c1.9-0.4,3.9-0.7,4.5-0.7c0.6-0.1,1-0.2,1.1-0.3c1.1-0.2,0.3,0,2.2-0.3c2-0.3-0.4,0,1.6-0.3
				c2-0.3-0.4,0.1,1.6-0.1C70,1,68.9,1.1,69.3,1c0.8-0.1,2.3-0.2,3.8-0.4c1.5-0.1,3.1-0.2,3.8-0.4c1-0.1,1.4,0,1.6,0.1
				c1.2,0,2.7,0,4.5,0c1.2,0,2.7-0.2,3.3-0.3c0,0,1.1,0,2.2,0c0.6,0,1.1,0,1.5,0c0.4,0,0.7,0,0.7,0c0.9,0.1,1.4,0.2,3.3,0.3
				c2,0.1,0.4-0.1,2.4,0.1c2,0.1,2.8,0.3,4.7,0.5c2,0.2,2.7,0.3,3.4,0.4c0.7,0.1,0.6,0,1,0c0.8,0.1,2.8,0.4,5.6,0.8
				c0.2,0.1-0.7,0-1.4-0.1c0,0,1.5,0.3,2.1,0.5c1.3,0.2,3,0.5,4.9,0.9c1.9,0.4,2.7,0.7,4.6,1.2c1.9,0.5-0.4-0.2,1.6,0.3
				c1.9,0.6,0.6,0.2,1.3,0.5c1.4,0.4,2.1,0.6,4,1.3c1.9,0.6,3.8,1.4,5,1.7l0,0c2.1,0.8,0.6,0.3,2.4,1.1c1.8,0.8,1.1,0.4,2.9,1.2
				c1.8,0.8,1.1,0.6,2.8,1.5c1.8,0.9,0.4,0.1,2.2,1c1.7,1,1,0.6,2.7,1.6c1.7,1,2.8,1.6,3.8,2.1c0.8,0.6,1.8,1.3,2.7,2
				c0.5,0.4,1,0.8,1.4,1.1c0.5,0.4,0.9,0.7,1.3,1c1.5,1.3,1,0.7,2.5,2c1.5,1.4,0.3,0.3,1.7,1.7c1.4,1.4,1.1,1.1,1.3,1.2
				c0.7,0.8,0.9,1.2,0.8,1.1c0,0,0.1,0.2,0.4,0.4c0.2,0.3,0.6,0.7,1,1.2c0.4,0.5,0.9,1.1,1.3,1.7c0.5,0.7,0.9,1.4,1.4,2.1
				c0.9,1.5,1.8,2.9,2.3,4.1c0.3,0.6,0.5,1.1,0.6,1.4c0.1,0.3,0.2,0.5,0.2,0.5c0.7,1.9-0.1-0.4,0.7,1.5c0.6,1.9,0,0.4,0.6,2.3
				c0.4,2,0.4,1.1,0.7,3.1c0.2,2,0.1,1.2,0.2,3.2c0,0.1,0,0.1,0,0.2l0,0c0,0,0,0,0,0c0,0,0,0,0.1,0c0,0.1-0.1,0.2-0.2,0.2
				c0,0.1-0.1,0.3-0.2,0.4c0,0,0.1,0.1,0.2,0.1l0,0.1c0,0.1-0.1,0.1-0.1,0.2c-0.1,0-0.1,0.1-0.2,0.1c-0.1,0-0.1-0.1-0.2-0.1
				c-0.1,0-0.2,0.1-0.2,0.2c-0.1-0.1-0.3-0.2-0.4-0.3c0-0.1,0.1-0.1,0.1-0.2l-0.3,0l0-0.1c0-0.1,0,0,0.1-0.1c0,0-0.1-0.1-0.2-0.1
				c0-0.1,0-0.1,0.1-0.1c0-0.1,0-0.2,0-0.2l0-0.1c0-0.3,0-0.6,0-0.9c0-0.4-0.1-0.8-0.1-1.1c-0.1-0.7-0.1-1.5-0.3-2.1
				c-0.1-0.7-0.3-1.3-0.4-1.8c-0.3-1.1-0.6-1.9-0.7-2.4c-0.3-0.9-0.7-1.8-1.1-2.7c-0.4-0.8-0.8-1.6-1.1-2.2
				C166.5,36.4,167,37.8,167.2,38.3z"/>
		</g>
	</g>
</g>
<g>
</g>
<g>
</g>
<g>
</g>
<g>
</g>
<g>
</g>
<g>
</g>
<g>
</g>
<g>
</g>
<g>
</g>
<g>
</g>
<g>
</g>
<g>
</g>
<g>
</g>
<g>
</g>
<g>
</g>
</svg>
