<?xml version="1.0" encoding="utf-8"?>
<!-- Generator: Adobe Illustrator 18.0.0, SVG Export Plug-In . SVG Version: 6.00 Build 0)  -->
<!DOCTYPE svg PUBLIC "-//W3C//DTD SVG 1.1//EN" "http://www.w3.org/Graphics/SVG/1.1/DTD/svg11.dtd">
<svg version="1.1" id="Layer_1" xmlns="http://www.w3.org/2000/svg" xmlns:xlink="http://www.w3.org/1999/xlink" x="0px" y="0px"
	 viewBox="0 0 29.2 21.9" enable-background="new 0 0 29.2 21.9" xml:space="preserve">
<g>
	<g>
		<g>
			<path fill="#FFFFFF" d="M24.7,20.6H1.5c-0.3,0-0.5-0.2-0.5-0.5V4.5C1,4.2,1.2,4,1.5,4h23.2c0.3,0,0.5,0.2,0.5,0.5v15.7
				C25.1,20.4,24.9,20.6,24.7,20.6z"/>
			<g>
				<g>
					<path fill-rule="evenodd" clip-rule="evenodd" fill="#3A494F" d="M21.3,21.9c-0.2,0-0.4-0.1-0.6-0.1c-0.1,0,0-0.1-0.2-0.2
						c-0.4,0-0.6-0.1-0.9-0.1c-0.3,0-0.1,0.1-0.4,0.1c-0.3,0-0.2-0.1-0.5-0.1s-0.7,0.2-1,0.2s-0.1-0.1-0.4-0.1s-0.2,0.1-0.5,0.1
						c-0.3,0-0.6-0.2-0.8-0.3c-0.5,0.1-1.5,0.2-1.9,0.2c-0.6,0-0.4-0.1-1-0.2c0,0,0.1,0-0.2,0c-0.3,0-0.2,0.1-0.5,0.1
						c-0.3,0-0.2-0.1-0.5-0.1c-0.1,0-0.4,0.1-0.6,0.3c-0.4-0.1-0.9-0.3-1.2-0.3c-0.3,0-1.1,0.2-1.4,0.2c-0.3,0-0.1-0.1-0.4-0.1
						c-0.3,0-0.3,0.1-0.6,0.1c-0.7,0-0.1-0.2-0.5-0.2c-0.3,0-0.1,0.1-0.4,0.1c-0.3,0-0.4-0.1-0.8-0.1c-0.3,0-1.6,0.2-1.9,0.2
						c-0.3,0-0.8-0.1-1.2-0.1c-0.2,0-0.4,0-0.6,0c-0.3,0-0.6,0-0.9,0.1c-0.2,0-0.3-0.2-0.2-0.3c0,0-0.2,0-0.4-0.2
						c-0.3-0.1-0.5-0.5-0.5-0.8c-0.1-0.4,0-0.9,0-1.1c0-0.2,0-0.3,0-0.3c-0.1,0.1-0.1,0.3-0.2,0.3C0,19,0.2,19,0.2,18.7
						c0-0.3-0.1-0.3-0.1-0.6s0.2-0.8,0.2-1.2c0-0.3-0.1-0.3-0.1-0.6c0-0.3,0.1-0.2,0.1-0.5S0.2,15.2,0,15.1c0.1-0.2,0.2,0,0.2-0.3
						c0-0.3-0.1,0.1-0.1-0.3c0-0.3,0.1,0.1,0.1-0.3c0-0.3-0.1,0.1-0.1-0.3s0.1-0.1,0.1-0.4s-0.1-0.4-0.1-0.8c0-0.3,0-0.5,0.1-0.6
						c0-0.1-0.1-0.2-0.2-0.2c0-0.2,0.1-0.2,0.1-0.5c0-0.3-0.1-0.3-0.1-0.6c0-0.3,0.1-0.7,0.1-1c0-0.3-0.1-0.7-0.1-1
						c0-0.3,0.1-0.4,0.1-0.5c0-0.6,0-1.3,0-1.9c0.1-0.1,0.1,0.1,0.1-0.2c0-0.2-0.1-0.5-0.1-0.8c0-0.1,0-0.1-0.1-0.3
						c0-0.1,0-0.3-0.1-0.4C0,4.5,0,4.2,0,4c0,0,0-0.2,0.1-0.3c0.1-0.2,0.2-0.3,0.2-0.3c0.1,0-0.3,0.4-0.2,0.8c0,0,0-0.3,0.3-0.6
						c0.3-0.3,0.6-0.3,0.6-0.3C1.6,3.1,1.3,3,1.9,3c0.1,0,0.3,0,0.4,0c0.1,0,0.1,0,0.2,0c0.1,0,0.2,0.1,0.4,0.1C3.1,3.1,3,3,3.3,3
						c0.3,0,0.1,0.1,0.4,0.1C4,3.1,4.2,3,4.5,3c0.3,0,1.1,0.1,1.4,0.1c0.2,0,0.8,0,1-0.1C7,3.1,7.3,3.2,7.4,3.3
						c0.4,0,0.4,0.1,0.4-0.1S7.6,3.1,7.6,3c0.3,0.1,0.7,0.2,1,0.2c0.1,0,0.7-0.1,0.8-0.3h0.5c0,0.1,0.3,0.2,0.4,0.3
						c0.1,0,0.2-0.1,0.2-0.2c0.3,0.1,0.5,0.2,0.9,0.2c0.3,0,0.8-0.2,1.2-0.2c0.3,0,0.2,0.1,0.5,0.1c0.3,0,0.3,0,0.3-0.1
						c0.2,0.1,0,0.2,0.3,0.2c0.3,0-0.1-0.1,0.3-0.1s0.3,0.1,0.6,0.1c0.6,0,0.7,0,0.8-0.3h0.5c0,0.1,0.2,0.3,0.4,0.3
						c0.3,0-0.1-0.1,0.3-0.1c0.3,0-0.1,0.1,0.3,0.1s0.5-0.1,0.7-0.2c0.2-0.1,0.4,0,0.7,0s1.6,0.2,1.9,0.2c1.1,0,0.8-0.2,1.3-0.2
						c0.5,0,0.2,0.2,1.3,0.2c0.3,0,0.7-0.1,1-0.1c0.1,0,0.2,0,0.3,0c0.1,0,0.3,0,0.5,0c0.4,0,0.6,0.2,0.8,0.3c0.1,0.1,0.2,0.1,0.4,0
						c0,0,0.1,0.1,0.2,0.3c0.1,0.1,0.1,0.3,0.1,0.3c0.1,0.5,0,0.5-0.1,0.8c0,0.1-0.1,0.1-0.2,0.3v0.4c0,0.3,0.1,0.2,0.2,0.4
						c0,0.3,0,0.6,0,0.9C25.9,7,26,6.7,26,7.1s-0.1,0.9-0.2,1.2c0,0.1,0.1,0.2,0.2,0.2c-0.1,0.2-0.1,0.5-0.1,0.9
						c0,0.3,0.1,0.7,0.1,0.9c0,0.1-0.1,0.2-0.2,0.2v0.7c0,0.1,0.1,0.1,0.2,0.1V12c0,0.3-0.1,0.1-0.1,0.5s0,0.4,0.1,0.4
						c-0.1,0.9-0.2,0.4-0.2,1.3c0,0.6,0.2,1.2,0.2,1.4c0,0.3-0.2,0.6-0.2,0.9c0,0.3,0.1,0.1,0.1,0.4c0,0.3-0.1-0.1-0.1,0.3
						c0,0.3,0.1,1.1,0.2,1.5c0,0.1,0,0,0,0.3c0,0.2,0,0.3-0.1,0.5c0,0.2-0.1,0.4-0.1,0.4v0.1c0,0,0.1,0,0.2,0.1
						c-0.1,0.1-0.2,0.1-0.2,0.3c-0.1,0.3-0.2,0.5-0.4,0.7c-0.1,0,0.1-0.2,0-0.3c-0.1-0.1-0.3,0-0.4-0.1c-0.1,0-0.2-0.1-0.2-0.2
						c0-0.1,0-0.1,0-0.1c0,0,0-0.1,0-0.1l0,0l0,0l0,0c0,0,0,0,0,0l0,0l0,0l0,0l0,0l0,0v0l-0.6,0l0,0l0,0l0,0C24,20.1,24,20,24,20
						s0-0.1,0.1-0.2c0,0,0.1-0.3,0.1-0.4c0-0.3-0.1-0.4-0.1-0.8c0-0.3,0.1-0.1,0.1-0.2c0-0.5,0.1-1.3,0.1-1.6c0-0.3,0.1-0.6,0-0.8
						c-0.1-0.2-0.2-0.4-0.2-0.7s0.1-0.1,0.1-0.2c0-0.2,0-0.6,0-0.9c0-0.3,0-0.9-0.1-1.5c0.1,0,0.1,0.1,0.1,0.2c0,0,0.1-0.3,0.2-0.4
						c0-0.1-0.1-0.1-0.1-0.4s0.1-0.2,0.1-0.3c-0.1-0.2,0-0.4-0.2-0.4S24,11.5,24,11.5v-0.7c0.1-0.2,0.2-0.3,0.2-0.7
						c0-0.3-0.1,0.1-0.1-0.3c0-0.3,0.1,0.1,0.1-0.3c0-0.3-0.1-0.2-0.1-0.5c0-0.3,0.1-0.3,0.1-0.6s-0.1-0.9-0.1-1.2
						c0-0.2-0.1-0.4-0.2-0.6c0.1,0,0.1,0.2,0.2,0.2c0-0.3,0-0.7,0-1c0-0.3,0-0.6,0.1-0.7c0-0.1,0-0.2-0.1-0.2l0,0c0,0,0-0.1,0.1-0.1
						c0,0-0.1,0.1-0.2,0.2c0,0,0.1-0.1,0-0.1c-0.1,0,0,0-0.1,0.1c0,0,0-0.1,0-0.2c-0.3,0-0.6,0-0.9,0c-0.3,0-0.7,0-1,0
						c-0.1,0,0.1-0.1-0.2-0.1c-0.3,0-1.2,0.2-1.5,0.2s-0.4-0.2-0.8-0.2c-0.3,0,0.1,0.1-0.3,0.1c-0.3,0-0.6-0.1-0.7-0.2
						c-0.1,0-0.2,0.1-0.2,0.2h-0.5c0-0.1-0.3-0.1-0.4-0.2c-0.1,0-0.3,0.1-0.5,0.3h-0.5c0-0.1,0.2-0.1,0.2-0.2c-0.1,0,0.1,0-0.3,0
						c-0.3,0-0.6,0.2-0.9,0.2c-0.3,0-0.2-0.1-0.5-0.1c-0.3,0-0.2,0.1-0.5,0.1c-0.3,0-0.1-0.1-0.4-0.1c-0.3,0-0.3,0-0.3,0.1
						c-0.2-0.1-0.4-0.1-0.6-0.2s-0.6,0-0.9,0c-0.3,0-0.7,0-0.9,0c-0.1,0-0.2,0.1-0.4,0.2c0,0,0.1,0-0.2,0c-0.3,0-0.4-0.1-0.6-0.2
						c-0.1,0-0.2,0-0.5,0C8.6,4.8,9,5.1,8.5,5.1C8,5.1,8,4.9,7.5,4.7H7.1C7,4.8,7,4.7,7,4.8S7.3,5,7.3,5H6.4C6,5.1,6,4.9,5.7,4.9
						C5.4,4.9,5.2,5,5,5C5,5,5.2,4.9,5.2,4.9c-0.1,0,0.1,0-0.3,0c-0.3,0-0.2,0.1-0.5,0.1C4.2,4.9,4.3,4.8,4,4.8
						c-0.3,0-0.6,0.1-0.9,0.1c-0.3,0-0.4-0.1-0.8-0.1c-0.1,0,0,0.1-0.1,0.1c-0.1,0,0-0.1-0.1-0.1C2,4.8,2.1,4.9,2,5
						C1.9,5,1.8,5,1.7,5c0.1,0.1,0,0.2,0.2,0.2c0.1,0,0.1,0,0.2,0c0,0,0,0,0,0.1C2,5.4,2,5.5,2,5.6c0,0.3,0,0.3,0.1,0.3
						C1.9,6.2,1.8,6.5,1.8,6.8C1.8,7.1,2,7.2,2,7.5C2,7.6,1.8,7.6,1.7,8h0.3v1C2,9,1.9,9.2,1.8,9.3c0.1,0.3,0.2,1,0.2,1.3
						c0,0.3-0.1,0.6-0.2,0.7c0,0.1,0.1,0.2,0.2,0.2c-0.1,0.6-0.2,1.6-0.2,1.9c0,0.4,0,0.4,0.2,0.4v0.7c0,0.3-0.2,0.8-0.2,1.1
						C1.8,16,2,15.8,2,16.1S1.8,16.7,1.8,17S2,17.5,2,17.8c0,0.3-0.1-0.1-0.1,0.3S2,18.3,2,18.6S1.8,19,1.8,19.4
						c0,0.2,0.1,0.1,0.1,0.2c0,0.1-0.1,0-0.1,0.1c0,0.1,0.1,0,0.2,0c0.1,0,0.1,0.1,0.1,0.2c0,0,0.1-0.1,0.1-0.2
						c0.1,0-0.1,0.1,0.3,0.1c0.3,0-0.1-0.1,0.3-0.1c0.3,0-0.1,0.1,0.3,0.1s0.1,0,0.2-0.1c0.2,0,1,0.1,1.2-0.1c0.2,0,0.2,0.1,0.3,0.2
						c0.2,0,0.4,0.1,0.7,0.1c0.2,0,0.4-0.1,0.5-0.3h0.7c0.2,0.1,0.2,0.2,0.5,0.2c0.3,0,0.1-0.1,0.4-0.1s0.4,0.1,0.8,0.1
						c0.3,0,0.4,0,0.6,0c0.1,0,0.1-0.1,0.2-0.2c0.1,0,0.5,0,0.9-0.1c0,0.1-0.1,0.1-0.2,0.1c0,0,0.3,0.1,0.3,0.2
						c0.2-0.1,0.5-0.1,0.8-0.1c0.3,0,0.4,0.1,0.8,0.1c0.3,0-0.1-0.1,0.3-0.1c0.3,0,0.1,0.1,0.2,0.1c0.2,0,0.4,0,0.7,0
						c0.3,0,0.7,0,0.9-0.1v0c0.4,0,0.1,0.1,0.4,0.1c0.3,0,0.2-0.1,0.5-0.1c0.3,0,0.2,0.1,0.5,0.1c0.3,0,0.1-0.1,0.4-0.1
						c0.3,0,0.2,0.1,0.5,0.1c0.3,0,0.5-0.1,0.7-0.2c0.3,0.1,0.8,0.2,1.1,0.2c0.3,0,0.2-0.1,0.5-0.1c0.3,0,0.1,0.1,0.4,0.1
						c0.3,0,0.3,0,0.3-0.1c0.2,0,0.2,0.1,0.2,0.2h2.2c0.3,0-0.1-0.1,0.3-0.1c0.3,0,0.1,0.1,0.4,0.1c0.3,0,0.2-0.1,0.5-0.1
						s0.2,0.1,0.5,0.1c0.2,0,0.1,0,0.1-0.1c0.1,0.1,0.2,0.2,0.2,0.3c0.1,0,0.4,0.1,0.4,0.2c0,0,0.1-0.1,0.1-0.2h0.2
						c0.1,0,0.1,0.1,0.2,0.1c0,0.1,0.1,0.1,0.1,0.2s-0.1,0.1-0.1,0.2s0.1,0.2,0.2,0.3c-0.1,0.2-0.2,0.3-0.3,0.5
						c-0.1,0-0.1-0.1-0.2-0.1v0.3H24c-0.1,0,0-0.1-0.1-0.1c0,0-0.1,0.1-0.1,0.2c-0.1,0-0.1,0-0.1-0.1c-0.1,0-0.2,0-0.3,0l-0.2,0
						c-0.1,0-0.2,0-0.4,0c-0.5,0-0.9-0.1-1.1-0.1c-0.3,0-0.7,0-0.9,0C21,21.7,21.2,21.8,21.3,21.9z"/>
				</g>
			</g>
		</g>
		<g>
			<g>
				<g>
					<path fill-rule="evenodd" clip-rule="evenodd" fill="#3A494F" d="M3.9,4.3C4,4.4,4,4.5,4,4.5C4,4.6,4,4.7,4,4.7
						C4.1,4.8,4.1,4.9,4.2,5c0.1,0.1,0.1-0.1,0.2,0c0.1,0.1,0,0.1,0.1,0.2s0.3,0,0.4,0.1c0.1,0.1,0,0.1,0,0.2s0.1,0,0.2,0
						c0.1,0.1,0,0.3,0,0.4c0.2,0,0.5,0.2,0.6,0.2c0.2,0.1,0,0.2,0.1,0.4c0,0-0.1,0,0,0.1c0.1,0.1,0.1,0,0.2,0c0.1,0.1,0,0.1,0.1,0.2
						c0,0,0.2,0,0.3-0.1c0.1,0.2,0.1,0.4,0.1,0.5s0.4,0.1,0.5,0.1s0,0.1,0,0.2s0.2,0,0.2,0.1c0.2,0.1-0.1,0.2,0,0.3
						c0.1,0.1,0.1-0.1,0.2,0C7.7,7.8,7.7,7.9,7.8,8c0.1,0.1,0.6,0.2,0.7,0.2s0.2,0.3,0.2,0.3C8.8,8.7,8.9,8.7,9,8.7
						c0,0,0,0.1-0.1,0.2l0.6,0.4c0-0.1,0-0.2,0.1-0.2c0.1,0,0,0.1,0.1,0.2c0.1,0.1,0.2,0,0.2,0.1C10,9.5,10,9.8,10.1,9.8
						c0.1,0.1,0.2,0,0.2,0.1c0.1,0.1,0,0.1,0.1,0.2s0.2,0,0.3,0c0,0.1-0.1,0.2,0,0.2c0.1,0.1,0-0.1,0.1,0s-0.1,0.1,0,0.1
						c0.1,0.1,0-0.1,0.1,0c0.1,0.1,0,0.1,0,0.2c0.1,0.1,0.2,0,0.3,0.1s0.1,0.1,0.1,0.2c0,0,0.1,0,0.2-0.1c0.1,0,0,0.1,0.1,0.2
						s0.2,0,0.2,0.1c0.1,0.1,0.1,0.2,0.2,0.3c0.1,0.1,0.3,0.1,0.3,0.1s0.1,0.1,0.1,0.2c0.1,0.1,0.4,0.3,0.4,0.4c0,0-0.1,0.1,0,0.1
						c0,0,0.2-0.1,0.2-0.2l0,0c0,0.1,0,0.1-0.1,0.2l0,0c0,0,0,0,0.1,0c0,0,0-0.1,0-0.2c0,0,0.1,0.1,0.1,0.1c0,0,0-0.1,0-0.1
						c0,0,0.1,0.1,0.1,0.1c0,0,0-0.1,0.1-0.2c0.1-0.1,0.4-0.1,0.5-0.2c0.1,0,0.2-0.1,0.2-0.3c0.1,0,0.2,0,0.3,0.1
						c0.1-0.1,0.2,0,0.1-0.1s-0.1,0-0.2-0.1c0.2,0,0.3,0,0.4,0c0,0,0.1-0.2,0-0.4l0.1-0.1c0.1,0.1,0.2,0.1,0.3,0.2
						c0,0,0-0.1-0.1-0.2c0.2,0,0.3,0.1,0.4,0c0.1-0.1,0.1-0.3,0.2-0.4c0.1-0.1,0.1,0,0.2,0C16,10,16,10,15.9,10
						c0.1,0,0.1,0.2,0.2,0.1c0.1-0.1-0.1-0.1,0-0.1c0.1-0.1,0.2,0,0.2,0c0.2-0.1,0.2-0.1,0-0.4l0.1-0.1c0.1,0.1,0.2,0.2,0.3,0.2
						c0.1-0.1-0.1-0.1,0-0.1c0.1-0.1,0,0.1,0.1,0c0.1-0.1,0.1-0.2,0.1-0.3c0-0.1,0.1-0.1,0.2-0.2c0.1-0.1,0.6-0.2,0.7-0.2
						c0.3-0.2,0.1-0.3,0.2-0.4c0.2-0.1,0.2,0.1,0.5-0.1c0.1-0.1,0.1-0.2,0.2-0.3c0.1-0.1,0.3-0.1,0.5-0.1c0,0,0-0.1-0.1-0.2l0.1-0.1
						c0.1-0.1,0.1,0,0.2,0c0,0,0.1,0.1,0.2,0.1l0.1-0.1c0.1-0.1,0-0.1,0-0.2c0.1-0.1,0.2-0.1,0.2-0.2c0,0-0.1,0,0-0.1
						C20.2,7,20.4,7,20.6,7c0,0,0-0.1-0.1-0.2c0.1,0,0.2,0,0.3-0.1C20.9,6.6,21,6.5,21,6.4c0,0,0.1,0.1,0.2,0.1l0.2-0.1
						c0-0.1-0.1-0.1-0.1-0.2L21.5,6c0.1-0.1,0.1,0.1,0.2,0c0.1-0.1,0.1-0.1,0.1-0.2C22.1,5.8,22,6,22.2,5.8c0.2-0.1,0.2-0.4,0.3-0.5
						c0.1-0.1,0.3,0.1,0.4,0c0.1-0.1,0-0.1,0-0.2c0.1-0.1,0,0.1,0.1,0c0.1-0.1,0.2-0.3,0.3-0.5c0,0,0,0,0.1-0.1
						c0.1-0.1,0.2-0.1,0.3,0l0.1,0l0.1-0.1c0-0.1-0.1-0.1-0.1-0.2c0.3,0.1,0.4,0.1,0.7-0.1c0,0.1,0,0.1,0,0.2c0.2,0.3,0.5,0,0.7,0.2
						c0.1,0.1,0.1,0.1,0.1,0.1c-0.1,0.1-0.3,0.4-0.2,0.6c0.1,0.1,0.2,0,0.2,0.1C25.1,5.7,25.1,5.9,25,6C24.9,6,24.8,6,24.7,6.1
						c-0.1,0.1-0.1,0.2-0.2,0.2c-0.1,0.1-0.1,0-0.1,0c-0.1,0.1-0.4,0.2-0.5,0.2c-0.1,0.1-0.2,0.1-0.2,0.2c0,0.1,0,0.3-0.1,0.3
						c-0.1,0.1-0.1,0-0.1,0c-0.1,0-0.2,0.1-0.3,0.2c-0.1,0.1-0.3,0.2-0.4,0.4c-0.1-0.1,0-0.1,0-0.2c0,0-0.1,0-0.2-0.1
						c0,0,0,0.1-0.1,0.2c-0.1,0.1-0.1,0-0.2,0c0,0.1-0.1,0.1,0,0.2c0.1,0.1,0.1,0,0.2,0.1l-0.2,0.1c-0.1-0.1-0.2-0.1-0.3,0
						C21.9,7.9,22.1,8,22,8c-0.1,0.1,0-0.1-0.1,0c-0.1,0.1,0,0.1-0.1,0.2c-0.1,0.1-0.2,0-0.2,0s-0.2,0.2-0.3,0.3c0,0.1,0,0.2,0,0.3
						c-0.1-0.1,0-0.1-0.1-0.2c-0.2,0.1-0.5,0.2-0.6,0.3C20.5,9,20.4,9,20.4,9.1l0,0c-0.1,0.1-0.1,0-0.1,0c0,0,0,0.1,0.1,0.2
						c0,0-0.1-0.1-0.2,0c-0.1,0.1,0,0,0,0.1c0,0-0.1-0.1-0.2-0.1c-0.2,0.1-0.4,0.3-0.6,0.4c0,0,0-0.1-0.1,0s-0.2,0.4-0.3,0.5
						c-0.1,0.1-0.3-0.1-0.3,0c-0.1,0.1,0.1,0.1,0,0.1c-0.1,0.1-0.2,0-0.3,0c0,0,0,0.1,0.1,0.2l-0.1,0.1c0-0.1-0.1,0-0.2-0.1
						c0,0,0,0.1,0.1,0.3L18,10.9c0-0.1,0-0.2,0-0.2c-0.1,0,0,0-0.1,0c-0.1,0.1,0,0.3-0.1,0.4c-0.1,0.1-0.1,0-0.2,0
						c-0.1,0.1,0,0.1-0.1,0.2c-0.1,0.1-0.1-0.1-0.2,0c-0.1,0.1-0.1,0.1,0,0.1c-0.1,0-0.2,0-0.3,0c-0.1,0-0.2,0.1-0.3,0.2
						c-0.1,0.1-0.2,0.1-0.3,0.2c0,0,0,0.1,0,0.2c0,0,0.1,0,0,0.1c-0.1,0.1-0.2,0-0.3,0c0,0-0.1,0-0.2,0.1c-0.3,0.2-0.1,0.3-0.2,0.4
						c-0.1,0.1-0.2-0.1-0.5-0.1l-0.1,0.1c0,0.1,0,0,0,0.1c0.1,0.1,0.1,0.1,0.2,0.1L15.2,13c-0.1,0.1-0.2,0-0.2,0.1
						c-0.1,0.1-0.1,0.1-0.1,0.2c-0.1-0.1,0-0.1,0-0.2c-0.1,0,0,0-0.1,0c-0.1,0.1,0,0.1-0.1,0.2c-0.1,0.1-0.1-0.1-0.2,0
						c-0.1,0.1-0.2,0.3-0.4,0.4c-0.2,0.1-0.3,0.1-0.4,0.2c-0.2,0.1,0.1,0.1-0.1,0.2c-0.2,0.1,0-0.1-0.2,0c-0.1,0.1,0,0.2-0.2,0.3
						c-0.2-0.1-0.3-0.4-0.3-0.5c-0.1,0-0.2-0.1-0.2,0c0,0.1,0.1,0.2,0.1,0.3c-0.2-0.2-0.2-0.3-0.3-0.4c-0.2-0.1-0.1-0.1-0.2,0
						c-0.1-0.2-0.2-0.4-0.3-0.5c-0.1-0.1-0.2,0-0.3-0.1c0,0,0-0.1,0-0.3l-0.2,0.2l-0.3-0.2c0-0.1,0-0.1,0-0.2c-0.2,0-0.4,0-0.5-0.1
						c-0.1-0.1-0.1-0.2-0.1-0.3c0,0-0.1,0-0.2,0.1c-0.1-0.2-0.3-0.5-0.4-0.6c-0.1-0.1-0.1-0.1-0.2,0.1l-0.2-0.1
						c-0.1-0.1-0.1-0.3-0.2-0.4c-0.1-0.1-0.1,0-0.2,0c-0.1-0.1-0.1-0.2-0.2-0.3S8.9,11,8.8,11c-0.1-0.1,0.1-0.1,0-0.1
						c-0.1-0.1-0.1,0-0.2,0c-0.1-0.1-0.1-0.2-0.1-0.2c-0.1-0.1-0.1,0-0.2,0c-0.1-0.1,0.1-0.1,0-0.1s-0.1,0-0.2,0
						C7.9,10.3,7.9,10.1,8,10c0,0-0.1,0-0.2,0.1c-0.1,0,0-0.1,0-0.2c-0.1-0.1,0,0.1-0.1,0s0.1-0.1,0-0.1c-0.1-0.1-0.1,0-0.1,0
						c-0.1,0-0.2-0.3-0.4-0.2c0,0,0-0.1,0-0.2c0-0.1,0-0.2-0.1-0.3c-0.1,0-0.2,0-0.3,0.1L6.5,9.3c0-0.1,0.1-0.2,0-0.3
						C6.4,8.9,6.4,9.1,6.3,9C6.2,8.9,6.2,8.8,6.1,8.7C6.1,8.7,6,8.6,6,8.6c-0.1,0-0.1,0.1-0.2,0.1c0,0-0.1-0.1-0.3-0.1
						c0-0.1,0.1-0.1,0.1-0.1c0,0,0-0.1,0-0.2c-0.1,0-0.2,0-0.3-0.1S5.3,8.1,5.2,8c-0.1-0.1,0,0.1-0.1,0C5,8,5.1,8,5.1,7.9
						C5,7.9,5,7.8,4.9,7.8C4.8,7.7,4.7,7.6,4.6,7.7l0,0c-0.1-0.1,0-0.1-0.1-0.2c-0.1-0.1-0.1,0-0.2,0c-0.1-0.1,0-0.1-0.1-0.2
						c-0.1-0.1-0.1,0.1-0.2,0s0-0.1-0.1-0.2s-0.2,0-0.3,0c0-0.2-0.1-0.3-0.2-0.4s-0.1,0-0.2,0c-0.1-0.1,0-0.1,0-0.2
						c-0.1-0.1-0.1,0-0.1,0c-0.1,0,0-0.1,0.1-0.2L2.6,5.8c-0.1-0.1-0.1,0.1-0.1,0c-0.1-0.1,0-0.1,0-0.2c-0.1-0.1-0.1,0-0.2,0
						c-0.1-0.1,0-0.1-0.1-0.2c-0.1-0.1-0.1,0-0.2,0c0-0.1,0-0.3,0-0.4C1.9,5,1.8,4.8,1.8,4.7c0,0-0.1,0-0.2,0.1L1.5,4.7
						c-0.1-0.1,0-0.1-0.1-0.2c0-0.1,0-0.2,0-0.3c0.1-0.1,0.1,0,0.2-0.1c0.1-0.1,0.1-0.2,0-0.4c0.2-0.1,0.4-0.1,0.6-0.2
						c0.1,0,0,0.2,0.1,0.2l0.2-0.3l0.1,0.1c0.1,0.1,0,0.1,0,0.1c0,0,0.1,0,0.2-0.1c0.1,0,0,0.1,0.1,0.1C3,3.9,3.2,4,3.3,4.1
						c0.2,0.2,0.3,0.3,0.3,0.4c0.1,0.1,0.2,0.1,0.3,0.2C3.9,4.5,3.9,4.4,3.9,4.3z"/>
				</g>
			</g>
		</g>
	</g>
	<g>
		<circle fill="#934947" cx="24.8" cy="4.3" r="4"/>
		<g>
			<g>
				<path fill-rule="evenodd" clip-rule="evenodd" fill="#3A494F" d="M29.1,5.6c0,0.1-0.1,0.2-0.1,0.2c0,0-0.1,0-0.1,0
					C28.8,6,28.8,6,28.7,6.1c0,0.1,0,0,0,0.1c0,0.1-0.1,0-0.1,0.1c-0.1,0.1-0.1,0.2-0.1,0.3c-0.1,0.1,0,0-0.1,0.1
					c-0.1,0.1,0,0.1-0.1,0.2c-0.1,0.1-0.2,0.1-0.3,0.1c-0.1,0.1-0.3,0.4-0.4,0.5c-0.2,0.1-0.1,0.1-0.3,0.1c0,0,0,0-0.1,0
					c-0.1,0.1,0,0.1-0.1,0.1C27.1,8,27.1,7.9,27,8c0,0-0.1,0.1-0.1,0.2c-0.2,0-0.3,0-0.4,0.1c-0.1,0-0.3,0.2-0.4,0.2
					c-0.1,0,0,0-0.1,0c-0.1,0-0.1,0.1-0.2,0.1c-0.2,0.1,0-0.1-0.2,0c-0.1,0,0,0-0.1,0.1c-0.1,0-0.2,0-0.3,0c-0.1,0-0.5,0.1-0.6,0.1
					c-0.1,0-0.3-0.1-0.4-0.1c-0.1,0-0.3,0-0.4,0c0,0-0.1-0.1,0-0.1c0,0-0.2,0-0.3-0.1c-0.2-0.1-0.3-0.1-0.3-0.1c0,0.1,0.1,0.1,0,0.1
					c-0.1,0,0-0.1-0.1-0.1c-0.1,0-0.1,0-0.2-0.1c-0.1,0-0.2-0.2-0.3-0.3c-0.1-0.1-0.1,0-0.2-0.1c-0.1-0.1,0-0.1-0.1-0.1
					C22.1,7.7,22,7.7,22,7.7c0-0.1,0-0.1,0-0.1c-0.1-0.1,0,0-0.1,0c-0.1-0.1,0,0,0-0.1c-0.1-0.1,0,0-0.1,0c-0.1-0.1,0,0-0.1-0.1
					c-0.1-0.1-0.1-0.1-0.2-0.2C21.4,7,21.4,7,21.4,6.9c0,0-0.1,0-0.1,0c0,0,0-0.1-0.1-0.2c-0.1-0.1-0.1-0.1-0.1-0.2
					C21,6.5,21,6.4,20.9,6.3c0-0.1-0.1-0.2-0.2-0.3c0-0.1,0-0.1,0-0.2c-0.1-0.2-0.1-0.4-0.2-0.6c0,0,0,0,0-0.1
					c0-0.1-0.1-0.4-0.2-0.6l0-0.2c0,0,0,0.1,0.1,0.2c0,0,0-0.3,0-0.3c0-0.1,0,0,0-0.2c0-0.1,0-0.1,0.1-0.3c0-0.1,0-0.1,0-0.2
					c0-0.1,0,0,0.1-0.1c0-0.1,0-0.2,0-0.3c0-0.1,0.1-0.3,0.2-0.4c0-0.1,0.1-0.2,0.1-0.3c0,0,0.1-0.1,0.2-0.1c0-0.1,0.1-0.1,0-0.1
					c0,0-0.1,0.1-0.1,0c0.1-0.1,0.2-0.2,0.2-0.2c0,0,0.1-0.2,0-0.3l0.1-0.1c0,0,0.1,0,0.2,0c0,0,0-0.1,0-0.1
					c0.1-0.1,0.2-0.1,0.3-0.2c0.1-0.1,0.1-0.2,0.2-0.3C22,1,22,1.1,22,1c0.1-0.1,0.1-0.1,0.1-0.1c0.1,0,0.1,0.1,0.1,0
					c0.1-0.1,0,0,0-0.1c0.1-0.1,0.1,0,0.2-0.1c0.2-0.1,0.2-0.1,0.2-0.2l0.1-0.1c0,0,0.1,0.1,0.2,0c0.1,0,0,0,0.1-0.1
					c0.1,0,0,0,0.1,0c0.1,0,0.1-0.1,0.2-0.2c0.1,0,0.1-0.1,0.2-0.1c0.1,0,0.5,0,0.6-0.1c0.4,0,0.2-0.1,0.4-0.1
					c0.2,0,0.1,0.1,0.4,0.1c0.1,0,0.2,0,0.3,0c0.1,0,0.3,0.1,0.4,0.2c0,0,0.1,0,0.1-0.1l0.1,0c0.1,0,0.1,0.1,0.1,0.1
					c0,0,0,0.1,0,0.1l0.1,0c0.1,0,0.1,0,0.1,0c0.1,0,0.2,0.1,0.3,0.1c0,0,0,0,0.1,0c0.1,0,0.2,0.2,0.3,0.3c0,0,0.1,0,0.1,0
					c0,0.1,0.1,0.1,0.2,0.2c0.1,0.1,0.2,0.1,0.3,0.2c0,0,0,0.1,0,0.1c0,0,0.2,0.2,0.2,0.2c0,0,0.1,0,0.1,0L28,1.5
					c0.1,0.1,0,0.1,0.1,0.1c0.1,0.1,0.1,0.1,0.1,0.1c0.1,0.3,0,0.1,0.2,0.4c0.1,0.2,0.3,0.3,0.3,0.4c0,0.1,0,0.2,0,0.3
					c0,0.1,0,0,0.1,0.1c0,0.1,0,0,0,0.1c0,0.1,0.1,0.3,0.2,0.5c0,0,0,0,0,0.1c0,0.1,0,0.3,0,0.3l0,0.1c0,0,0.1,0,0.1,0
					C29,4,28.9,4.1,29,4.2c0,0,0,0-0.1,0c-0.1,0-0.1,0.2-0.2,0.2c-0.1,0,0,0-0.1,0c0,0,0-0.2-0.1-0.2c-0.1,0,0,0-0.1,0
					c0-0.1-0.1-0.1-0.1-0.2c0,0,0-0.1,0-0.2c0-0.1-0.1-0.1-0.1-0.2c0-0.1,0,0,0-0.1c0-0.1,0-0.4-0.1-0.4c0-0.1,0-0.2-0.1-0.2
					c0,0-0.1-0.1-0.2-0.2c0-0.1,0,0,0-0.1c0-0.1-0.1-0.2-0.1-0.2c0-0.1-0.1-0.2-0.3-0.3c0,0,0,0,0.1,0c0,0,0-0.1,0-0.1
					c0,0,0,0-0.1-0.1c-0.1-0.1,0-0.1,0-0.1c-0.1,0-0.1-0.1-0.1-0.1c0,0,0,0.1,0,0.1c0,0-0.1-0.1-0.1-0.1c0-0.1,0-0.1-0.1-0.2
					c-0.1-0.1,0,0-0.1,0c-0.1-0.1,0,0,0-0.1c-0.1-0.1-0.1,0-0.1-0.1c-0.1-0.1,0-0.1-0.1-0.1c-0.1,0-0.2-0.1-0.3-0.1
					c-0.1,0-0.1,0-0.2,0c0,0,0.1,0,0.1,0c-0.1-0.1-0.4-0.2-0.5-0.2c-0.1,0-0.2-0.1-0.2,0l0,0c-0.1,0,0,0-0.1-0.1c0,0-0.1,0-0.1,0.1
					c0,0,0,0-0.1-0.1c-0.1,0,0,0,0,0c0,0-0.1-0.1,0-0.1c-0.2,0-0.4,0-0.6-0.1c0,0,0,0-0.1,0c-0.1,0-0.3,0.1-0.4,0.1
					c-0.1,0-0.1-0.1-0.2,0c-0.1,0,0,0-0.1,0.1c-0.1,0-0.2,0-0.2,0c0,0,0,0,0,0.1l-0.1,0c0,0-0.1,0-0.1,0c0,0-0.1,0.1-0.1,0.2l-0.1,0
					c0,0,0-0.1,0-0.1c0,0,0,0-0.1,0c-0.1,0-0.1,0.1-0.2,0.2c-0.1,0-0.1,0-0.1,0c-0.1,0,0,0.1-0.1,0.1c-0.1,0,0,0-0.1,0
					c-0.1,0-0.1,0,0,0.1c-0.1,0-0.1,0-0.2,0c-0.1,0-0.1,0.1-0.2,0.2c-0.1,0.1-0.2,0.1-0.2,0.2c0,0,0,0.1,0,0.1c0,0,0,0,0,0
					C22,2,22,2,21.9,2c0,0,0,0-0.1,0.1c-0.2,0.2-0.1,0.2-0.1,0.3c-0.1,0.1-0.1,0.1-0.2,0.2l0,0.1c0,0,0,0,0,0c0,0,0.1,0,0.1,0
					c0,0-0.1,0.2-0.1,0.2c0,0.1-0.1,0.1-0.1,0.2c0,0.1,0,0.1,0,0.2c0,0,0-0.1,0-0.1c0,0,0,0,0,0.1c0,0.1,0,0.1,0,0.2
					c0,0.1-0.1,0-0.1,0.1c0,0.1,0,0.2,0,0.3c0,0.1-0.1,0.1-0.1,0.2c0,0.1,0,0,0,0.1c0,0.1,0,0,0,0.1c0,0.1,0,0,0,0.1
					c0,0.1,0,0.2-0.1,0.2c0,0.1,0,0.1,0.1,0.1c0,0,0-0.1,0.1-0.1c0,0.1,0,0.1,0,0.2c0,0.1,0,0.1,0.1,0.1c0,0.1-0.1,0.2,0,0.3
					c0,0.1,0.1,0.1,0.1,0.2c0,0,0,0.1,0,0.2l0.1,0l0.1,0.3c0,0,0,0.1,0,0.1c0.1,0.1,0.2,0.2,0.2,0.3c0,0.1,0.1,0.2,0,0.2
					c0,0,0.1,0,0.1,0c0.1,0.2,0.2,0.4,0.3,0.5c0.1,0.1,0.1,0.1,0.1,0c0,0,0.1,0.1,0.1,0.1c0.1,0.1,0.1,0.2,0.2,0.3
					c0.1,0.1,0.1,0,0.1,0.1c0.1,0.1,0.1,0.1,0.2,0.2c0.1,0,0.1,0,0.2,0.1c0.1,0,0,0,0,0.1c0.1,0,0.1,0,0.1,0c0.1,0,0.1,0.1,0.2,0.1
					c0.1,0,0.1,0,0.1,0c0.1,0,0,0,0.1,0.1c0.1,0,0.1,0,0.2,0C23.9,7.9,24,7.9,24,8c0,0,0.1,0,0.1-0.1c0,0,0,0,0.1,0.1
					c0.1,0,0,0,0.1,0c0.1,0,0,0,0.1,0.1c0.1,0,0,0,0.1,0c0.1,0,0.3,0.1,0.3,0c0,0,0.1,0,0.1,0.1c0.1,0,0.1,0.1,0.2,0
					C25,8,25.1,8,25.1,7.9l0.2,0c0,0,0.1,0.1,0.2,0.1c0.1,0,0,0,0.1-0.1c0.1,0,0.1,0,0.2,0c0.1,0,0.1,0,0.1-0.1c0,0,0-0.1,0-0.1
					c0,0,0.1,0,0.2-0.1c0,0,0,0,0,0.1c0,0,0.1,0,0.1,0c0,0,0.1-0.1,0.2-0.1c0.1,0,0.1,0,0.2-0.1c0.1,0,0,0,0-0.1c0.1,0,0,0,0.1,0
					c0.1,0,0.1-0.1,0.2-0.1c0.1-0.1,0.2-0.1,0.2-0.2l0,0c0.1-0.1,0,0,0.1-0.1c0.1-0.1,0-0.1,0.1-0.1c0.1-0.1,0.1,0,0.1-0.1
					c0.1-0.1,0,0,0-0.1c0.1-0.1,0.1,0,0.1-0.1c0.1-0.1,0.1-0.1,0.1-0.2c0.1,0,0.2-0.1,0.2-0.2c0-0.1,0-0.1,0-0.1C28,6,28,6.1,28,6
					C28.1,6,28,6,28,6c0,0,0.1,0,0.1,0c0,0,0.2-0.6,0.2-0.6c0-0.1,0,0,0-0.1c0-0.1,0,0,0.1-0.1c0-0.1,0-0.1,0-0.2c0-0.1,0,0,0.1-0.1
					c0-0.1,0,0,0-0.1c0,0,0.1-0.1,0.1-0.1c0,0,0.1-0.1,0.1-0.1c0,0,0,0-0.1,0l0-0.1c0,0,0,0,0.1-0.1c0,0,0,0,0.1,0c0.1,0,0,0,0.1,0
					c0.1,0,0.1,0,0.1-0.1c0.1,0,0.1,0.1,0.2,0.1c0,0,0,0,0,0.1l0.1,0l0,0.1c0,0.1,0,0,0,0c0,0,0,0,0.1,0c0,0,0,0,0,0.1
					c0,0.1,0,0.1-0.1,0.3c0,0.2-0.1,0.3-0.1,0.4c0,0.1,0,0.1-0.1,0.3C29,5.7,29,5.6,29.1,5.6z"/>
			</g>
		</g>
	</g>
	
		<line fill="none" stroke="#FFFFFF" stroke-width="0.6937" stroke-linecap="round" stroke-linejoin="round" stroke-miterlimit="10" x1="24.8" y1="2.8" x2="24.8" y2="6.4"/>
</g>
<g>
</g>
<g>
</g>
<g>
</g>
<g>
</g>
<g>
</g>
<g>
</g>
<g>
</g>
<g>
</g>
<g>
</g>
<g>
</g>
<g>
</g>
<g>
</g>
<g>
</g>
<g>
</g>
<g>
</g>
</svg>
