<?xml version="1.0" encoding="utf-8"?>
<!-- Generator: Adobe Illustrator 18.0.0, SVG Export Plug-In . SVG Version: 6.00 Build 0)  -->
<!DOCTYPE svg PUBLIC "-//W3C//DTD SVG 1.1//EN" "http://www.w3.org/Graphics/SVG/1.1/DTD/svg11.dtd">
<svg version="1.1" id="Layer_1" xmlns="http://www.w3.org/2000/svg" xmlns:xlink="http://www.w3.org/1999/xlink" x="0px" y="0px"
	 viewBox="0 0 77.2 13.8" enable-background="new 0 0 77.2 13.8" xml:space="preserve">
<g>
	<g>
		<line fill="#FFFFFF" x1="0" y1="12.9" x2="76.7" y2="12.9"/>
		<g>
			<g>
				<path fill-rule="evenodd" clip-rule="evenodd" fill="#3A494F" d="M2.9,12C3,12,3.3,12,3.5,12c0.1,0,0,0.1,0.2,0.1
					c0.4,0,0.6,0.1,0.9,0.1s0.1-0.1,0.4-0.1s0.2,0.1,0.5,0.1s0.7-0.2,1-0.2s0.1,0.1,0.4,0.1s0.2-0.1,0.5-0.1s0.6,0.2,0.8,0.2
					c0.5-0.1,1.5-0.2,1.8-0.2c0.6,0,0.4,0.1,0.9,0.1c0,0-0.1,0,0.2,0s0.2-0.1,0.5-0.1s0.2,0.1,0.5,0.1c0.1,0,0.4-0.1,0.5-0.2
					c0.4,0.1,0.9,0.2,1.2,0.2s1-0.2,1.4-0.2s0.1,0.1,0.4,0.1s0.3-0.1,0.6-0.1c0.6,0,0.1,0.2,0.5,0.2c0.3,0,0.1-0.1,0.4-0.1
					s0.4,0.1,0.7,0.1c0.3,0,1.5-0.2,1.8-0.2c0.3,0,0.8,0.1,1.1,0.1s0.8,0,1-0.1c0.1,0,0.2,0.1,0.2,0.2h2c-0.1-0.1-0.3-0.1-0.2-0.2
					c0.2,0,0.2,0.1,0.5,0.1c0.3,0,0.3-0.1,0.6-0.1s0.8,0.2,1.1,0.2c0.3,0,0.3-0.1,0.6-0.1s0.2,0.1,0.5,0.1s0.5-0.1,0.7-0.2
					c0.2,0,0,0.2,0.3,0.2s-0.1-0.1,0.2-0.1s-0.1,0.1,0.2,0.1s-0.1-0.1,0.2-0.1c0.3,0,0.1,0.1,0.4,0.1s0.4-0.1,0.7-0.1s0.5,0,0.6,0.1
					c0.1,0,0.2-0.1,0.2-0.2c0.2,0,0.2,0.1,0.5,0.1s0.3-0.1,0.6-0.1s0.7,0.1,1,0.1s0.7-0.1,1-0.1s0.3,0,0.4,0.1c0.6,0,1.2,0,1.8,0
					c0.1,0-0.1,0.1,0.2,0.1c0.3,0,1.1-0.2,1.6-0.2H38c0,0.1-0.2,0.1-0.5,0.2h0.9c0.3,0,0.1-0.1,0.4-0.1s0.4,0.1,0.7,0.1
					s0.2-0.1,0.5-0.1s0.1,0.1,0.4,0.1c0.3,0,0.4-0.1,0.7-0.1c0.3,0,1,0.1,1.4,0.1c0.2,0,0.7,0,0.9-0.1c0.2,0,0.4,0.1,0.5,0.2
					c0.3,0,0.4,0.1,0.4,0c0-0.1-0.2-0.1-0.2-0.1c0.3,0.1,0.6,0.2,0.9,0.2c0.1,0,0.7-0.1,0.8-0.2h0.5c0,0.1,0.3,0.2,0.4,0.2
					c0.1,0,0.2-0.1,0.2-0.2c0.3,0.1,0.5,0.2,0.8,0.2c0.3,0,0.8-0.2,1.1-0.2s0.2,0.1,0.5,0.1s0.2,0,0.3-0.1c0.2,0,0,0.2,0.3,0.2
					s-0.1-0.1,0.2-0.1s0.3,0.1,0.6,0.1c0.5,0,0.7,0,0.8-0.2H52c0,0.1,0.2,0.2,0.4,0.2c0.3,0-0.1-0.1,0.2-0.1s-0.1,0.1,0.2,0.1
					s0.5-0.1,0.7-0.1c0.2,0,0.4,0,0.7,0s1.5,0.2,1.8,0.2c1.1,0,0.7-0.2,1.2-0.2c0.5,0,0.2,0.2,1.2,0.2c0.3,0,0.7-0.1,1-0.1
					c0.3,0,0.8,0.1,1.2,0.2c0.1,0,0.2-0.1,0.2-0.2h0.4c0.3,0,0.3,0.1,0.5,0.1c0.1,0,0.1,0.1,0.2,0.1h0.3c0.3,0,0.2-0.1,0.4-0.1
					c0.3,0,0.6,0,0.8,0c0.1,0-0.1-0.1,0.2-0.1s0.8,0.1,1.2,0.2c0.1,0,0.2-0.1,0.2-0.2c0.2,0,0.5,0.1,0.8,0.1c0.3,0,0.6,0,0.9-0.1
					c0.1,0,0.2,0.1,0.2,0.2h0.7c0.1,0,0.1-0.1,0.1-0.2h0.6c0.3,0,0.1,0.1,0.4,0.1s0.4,0,0.4-0.1c0.9,0.1,0.3,0.2,1.2,0.2
					c0.5,0,1.2-0.2,1.4-0.2c0.3,0,0.6,0.2,0.9,0.2s0.1-0.1,0.4-0.1s-0.1,0.1,0.2,0.1c0.3,0,1-0.1,1.4-0.1c0.1,0,0,0,0.3,0
					c0.2,0,0.3,0,0.5,0.1c0.2,0,0.4,0.1,0.4,0.1h0.1c0,0,0-0.1,0-0.2c0.1,0.2,0.2,0.2,0.4,0.2c0,0.1-0.1,0.1-0.1,0.1
					c0,0.2,0.3,0.3,0.3,0.4c0,0.1,0,0.1,0,0.1c-0.1,0-0.4,0.1-0.4,0.3c0,0.1,0.1,0.1,0.1,0.1c-0.2,0-0.3,0.2-0.4,0.2
					c0,0-0.1,0-0.1,0c0,0-0.1,0-0.1,0c-0.1,0-0.1,0-0.2,0c-0.3,0-0.4,0.1-0.7,0.1s-0.1,0-0.2-0.1c-0.4,0-1.3-0.1-1.5-0.1
					c-0.3,0-0.6,0-0.8,0c-0.2,0-0.4,0.1-0.7,0.1s-0.1,0-0.2-0.1c-0.3,0-0.6,0-0.9,0c-0.3,0-0.9,0-1.4,0.1c0-0.1,0.1-0.1,0.2-0.1
					c0,0-0.2-0.1-0.3-0.1c-0.1,0-0.1,0.1-0.4,0.1s-0.2,0-0.3-0.1c-0.2,0-0.4,0-0.4,0.1s0.2,0.1,0.2,0.1h-0.7
					c-0.1-0.1-0.3-0.1-0.6-0.1s0.1,0.1-0.2,0.1s0.1-0.1-0.2-0.1s-0.2,0.1-0.5,0.1s-0.3-0.1-0.6-0.1c-0.3,0-0.8,0-1.1,0.1
					c-0.2,0-0.4,0.1-0.5,0.1c0-0.1,0.2-0.1,0.2-0.2c-0.6,0-1.4-0.1-1.7-0.1s-0.6,0-0.8,0.1v0c-0.3,0-0.1,0-0.2-0.1
					c-0.1,0-0.2,0.1-0.2,0.2c-0.2,0,0-0.1-0.4-0.1s-0.1,0-0.1,0.1c-0.2,0-0.2-0.1-0.2-0.2c-0.6,0-1.3,0-1.9,0
					c-0.1,0,0.1-0.1-0.2-0.1c-0.3,0-1.2,0.2-1.5,0.2s-0.4-0.2-0.7-0.2s0.1,0.1-0.2,0.1s-0.6-0.1-0.7-0.2c-0.1,0-0.2,0.1-0.2,0.2H54
					c0-0.1-0.3-0.1-0.3-0.1c-0.1,0-0.3,0.1-0.4,0.2h-0.5c0-0.1,0.2-0.1,0.2-0.1c-0.1,0,0.1,0-0.3,0s-0.6,0.2-0.9,0.2
					s-0.2-0.1-0.5-0.1c-0.3,0-0.2,0.1-0.5,0.1s-0.1-0.1-0.4-0.1c-0.3,0-0.2,0-0.3,0.1c-0.2,0-0.4-0.1-0.6-0.1c-0.2,0-0.6,0-0.9,0
					s-0.7,0-0.9,0c-0.1,0-0.2,0.1-0.4,0.1c0,0,0.1,0-0.2,0s-0.4-0.1-0.6-0.2c-0.1,0-0.2,0-0.5,0c-1,0-0.7,0.2-1.2,0.2
					c-0.4,0-0.5-0.1-0.9-0.2h-0.3c-0.1,0-0.1,0-0.1,0.1c0,0.1,0.2,0.1,0.2,0.2H43c-0.3,0-0.3-0.1-0.6-0.1s-0.4,0-0.6,0.1
					c0-0.1,0.2-0.1,0.2-0.1c-0.1,0,0.1,0-0.3,0s-0.2,0.1-0.5,0.1c-0.3,0-0.2-0.1-0.5-0.1s-0.6,0.1-0.9,0.1s-0.4-0.1-0.7-0.1
					s0.1,0.1-0.2,0.1s-0.1-0.1-0.4-0.1c-0.3,0-0.1,0.1-0.4,0.1s-0.6-0.1-0.7-0.2c-0.2,0-0.4,0-0.4,0.1c0,0.1,0.2,0.1,0.2,0.1
					c-0.4,0-0.4-0.1-0.7-0.1s-0.2,0-0.3,0.1c-0.3-0.1-0.5-0.2-0.8-0.2s-0.4,0.1-0.7,0.1c-0.1,0-0.2-0.1-0.5-0.2v0.2h-0.9
					c0-0.1-0.3-0.1-0.3-0.1c-0.3,0.1-1,0.2-1.3,0.2c-0.3,0-0.6-0.1-0.7-0.2c-0.1,0-0.2,0.1-0.2,0.2c-0.6-0.1-1.5-0.2-1.8-0.2
					c-0.4,0-0.4,0-0.4,0.2H28c-0.3,0-0.8-0.2-1.1-0.2s-0.2,0.1-0.5,0.1s-0.6-0.1-0.9-0.1s-0.4,0.1-0.7,0.1c-0.3,0,0.1-0.1-0.2-0.1
					s-0.2,0.1-0.5,0.1s-0.4-0.1-0.7-0.1s-0.2,0.1-0.5,0.1c-0.3,0,0.1-0.1-0.2-0.1s-0.2,0.1-0.5,0.1c-0.3,0-0.6-0.1-0.7-0.2
					c-0.1,0-0.2,0.1-0.2,0.2c-0.2,0,0-0.1-0.4-0.1s0.1,0.1-0.2,0.1s0.1-0.1-0.2-0.1s-0.1,0-0.2,0.1c-0.2,0-1-0.1-1.2,0.1
					c-0.2,0-0.2-0.1-0.3-0.1c-0.2,0-0.4-0.1-0.7-0.1c-0.2,0-0.4,0.1-0.5,0.2h-0.7c-0.1-0.1-0.2-0.2-0.5-0.2s-0.1,0.1-0.4,0.1
					c-0.3,0-0.4-0.1-0.7-0.1s-0.4,0-0.5,0c-0.1,0-0.1,0.1-0.2,0.1c-0.1,0-0.4,0-0.9,0.1c0-0.1,0.1-0.1,0.2-0.1c0,0-0.2-0.1-0.3-0.1
					c-0.2,0-0.5,0.1-0.8,0.1s-0.4-0.1-0.7-0.1c-0.3,0,0.1,0.1-0.2,0.1s-0.1,0-0.2-0.1c-0.3,0-0.4,0-0.7,0c-0.3,0-0.6,0-0.8,0.1v0
					c-0.3,0-0.1-0.1-0.4-0.1s-0.2,0.1-0.5,0.1c-0.3,0-0.2-0.1-0.5-0.1s-0.1,0.1-0.4,0.1c-0.3,0-0.2-0.1-0.5-0.1s-0.5,0.1-0.7,0.2
					c-0.3-0.1-0.7-0.2-1.1-0.2S6,13.6,5.6,13.6c-0.3,0-0.1-0.1-0.4-0.1S5,13.5,5,13.6c-0.2,0-0.2-0.1-0.2-0.2H2.7
					c-0.3,0,0.1,0.1-0.2,0.1s-0.1-0.1-0.4-0.1c-0.3,0-0.2,0.1-0.5,0.1s-0.2-0.1-0.5-0.1c-0.1,0-0.1,0-0.1,0.1
					c-0.1,0-0.1-0.1-0.2-0.2c-0.1,0-0.3-0.1-0.3-0.2c0,0,0,0.1-0.1,0.2H0.3c-0.1,0-0.1-0.1-0.2-0.1c0-0.1-0.1-0.1-0.1-0.2
					c0-0.1,0.1-0.1,0.1-0.2S0.1,12.7,0,12.6c0.1-0.1,0.2-0.2,0.2-0.4c0,0,0.1,0.1,0.1,0.1v-0.2h0.1c0.1,0,0,0,0.1,0.1
					c0,0,0.1-0.1,0.1-0.2c0.1,0,0.1,0,0.1,0.1c0.1,0,0.1,0,0.2,0l0.1,0c0.1,0,0.2,0,0.3,0c0.5,0,0.9,0,1,0c0.3,0,0.6,0,0.9,0
					C3.2,12.1,3,12,2.9,12z"/>
			</g>
		</g>
	</g>
	<g>
		<g>
			<circle fill="#3A494F" cx="72.6" cy="4.5" r="4.1"/>
			<g>
				<g>
					<path fill-rule="evenodd" clip-rule="evenodd" fill="#3A494F" d="M77,5.9C77,6,76.9,6,76.9,6.1c0,0-0.1,0-0.1,0
						c0,0.1-0.1,0.2-0.2,0.3c0,0.1,0,0,0,0.1c-0.1,0.1-0.1,0-0.1,0.1c-0.1,0.1,0,0.3-0.1,0.4c-0.1,0.1-0.1,0-0.1,0.1
						c-0.1,0.1,0,0.1-0.1,0.2c-0.1,0.1-0.2,0.1-0.3,0.1c-0.1,0.2-0.3,0.4-0.4,0.5c-0.2,0.1-0.1,0-0.3,0.1c0,0,0,0-0.1,0
						c-0.1,0.1,0,0.1-0.1,0.1c-0.1,0.1-0.1,0-0.2,0.1c0,0-0.1,0.1-0.1,0.2c-0.2,0-0.4,0-0.4,0.1c-0.1,0-0.3,0.2-0.4,0.3
						c-0.1,0,0,0-0.1,0c-0.1,0-0.1,0.1-0.2,0.1c-0.2,0,0-0.1-0.2-0.1c-0.1,0,0,0.1-0.1,0.1c-0.1,0-0.2,0-0.3,0
						c-0.1,0-0.5,0.1-0.7,0.1C72.2,9,72,9,71.9,8.9c-0.1,0-0.3,0-0.4,0c0,0-0.1-0.1,0-0.1c0,0-0.2,0-0.3-0.1
						c-0.2-0.1-0.3-0.1-0.3-0.1c0,0.1,0.1,0.1,0,0.1c-0.1,0,0-0.1-0.1-0.1c-0.1,0-0.1,0-0.2-0.1c-0.1,0-0.2-0.2-0.3-0.3
						c-0.1-0.1-0.1,0-0.2-0.1c-0.1-0.1,0-0.1-0.1-0.1C69.8,8,69.7,8,69.6,8c0-0.1,0.1-0.1,0-0.1c-0.1-0.1,0,0.1-0.1,0
						c-0.1-0.1,0,0,0-0.1c-0.1-0.1,0,0.1-0.1,0c-0.1-0.1,0,0-0.1-0.1c-0.1-0.1-0.1-0.1-0.2-0.2C69,7.3,69,7.2,69,7.2
						c0,0-0.1,0-0.1,0c0,0,0-0.1-0.1-0.2c-0.1-0.1-0.1-0.1-0.2-0.2c-0.1-0.1-0.1-0.2-0.1-0.3c0-0.1-0.2-0.2-0.2-0.3
						c0-0.1,0-0.1,0-0.2c-0.1-0.2-0.1-0.4-0.2-0.6c0,0,0,0,0-0.1C68.2,5.2,68,5,68,4.8l0-0.2c0,0,0,0.1,0.1,0.2c0,0,0-0.3,0-0.3
						c0-0.1,0-0.1,0-0.2c0-0.1,0.1-0.2,0.1-0.3c0-0.1,0-0.1,0-0.2c0-0.1,0.1,0,0.1-0.1c0-0.1,0-0.2,0-0.3c0-0.1,0.1-0.4,0.2-0.5
						c0-0.1,0.1-0.2,0.1-0.3c0.1,0,0.1-0.1,0.2-0.1c0.1-0.1,0.1-0.1,0-0.1c-0.1,0-0.1,0.1-0.1,0c0.1-0.1,0.2-0.2,0.3-0.2
						c0,0,0.1-0.2,0-0.3l0.1-0.1c0,0,0.1,0,0.2,0c0,0,0-0.1,0-0.1c0.1-0.1,0.2-0.1,0.3-0.2c0.1-0.1,0.1-0.3,0.2-0.3
						c0.1-0.1,0.1,0,0.2-0.1C69.8,1,69.8,1,69.8,1c0.1,0,0.1,0.1,0.2,0c0.1-0.1,0,0,0-0.1c0.1-0.1,0.1,0,0.2-0.1
						c0.2-0.1,0.2-0.1,0.2-0.3l0.1-0.1c0,0,0.1,0.1,0.2,0.1c0.1,0,0,0,0.1-0.1c0.1,0,0,0.1,0.1,0c0.1,0,0.1-0.1,0.2-0.2
						c0.1,0,0.1-0.1,0.2-0.1c0.1,0,0.6,0,0.7,0C72.3,0.1,72.2,0,72.4,0c0.2,0,0.1,0.1,0.4,0.1c0.1,0,0.2,0,0.4,0
						c0.1,0,0.3,0.1,0.4,0.2c0,0,0.1,0,0.1-0.1l0.1,0c0.1,0,0.1,0.1,0.1,0.1c0,0,0,0.1,0,0.1l0.1,0c0.1,0,0.1,0,0.2,0
						c0.1,0,0.2,0.1,0.3,0.1c0,0,0-0.1,0.1,0c0.1,0,0.2,0.2,0.3,0.3c0,0,0.1,0,0.1,0c0,0.1,0.1,0.1,0.2,0.2c0.1,0.1,0.2,0.1,0.3,0.2
						c0,0,0,0.1,0,0.1l0.2,0.2c0,0,0.1,0,0.1,0l0.2,0.2c0.1,0.1,0,0.1,0.1,0.1c0.1,0.1,0.1,0.1,0.1,0.1c0.1,0.3,0,0.1,0.2,0.4
						c0.1,0.2,0.3,0.3,0.3,0.4c0,0.1,0,0.2,0,0.3c0,0.1,0.1,0,0.1,0.1c0,0.1-0.1,0,0,0.1c0,0.1,0.1,0.3,0.2,0.5c0,0,0,0,0,0.1
						c0,0.1,0,0.3,0,0.3l0,0.1c0,0,0.1,0,0.1,0c-0.1,0.1-0.1,0.2-0.1,0.3c0,0,0,0-0.1,0c-0.1,0-0.1,0.2-0.3,0.2c-0.1,0,0,0-0.1,0
						c0,0-0.1-0.2-0.2-0.2c-0.1,0-0.1,0-0.1,0c0-0.1-0.1-0.1-0.1-0.2c0-0.1,0-0.1,0-0.2c0-0.1-0.1-0.1-0.1-0.2c0-0.1,0,0,0-0.1
						c0-0.1,0-0.4-0.1-0.4c0-0.1,0-0.2-0.1-0.2c-0.1,0-0.1-0.1-0.2-0.1c0-0.1,0,0,0-0.1c0-0.1-0.1-0.1-0.1-0.2
						c0-0.1-0.1-0.2-0.3-0.3c0,0,0.1,0,0.1,0c0,0,0-0.1,0-0.1c0,0-0.1,0-0.1-0.1c-0.1-0.1,0-0.1,0-0.1c-0.1,0-0.1-0.1-0.1,0
						c0,0,0,0.1,0,0.1c0,0-0.1-0.1-0.1-0.1c0-0.1,0-0.1-0.1-0.2c-0.1-0.1,0,0-0.1,0c-0.1-0.1,0,0,0-0.1c-0.1-0.1-0.1,0-0.1,0
						c-0.1-0.1,0-0.1-0.1-0.1c-0.1,0-0.2-0.1-0.3-0.1c-0.1,0-0.1,0-0.2,0c0,0,0.1,0,0.1-0.1C74,1.2,73.8,1.1,73.7,1
						c-0.1,0-0.2-0.1-0.2,0l0,0c-0.1,0,0,0-0.1-0.1c0,0-0.1,0-0.1,0.1c0,0,0-0.1-0.1-0.1c-0.1,0,0,0,0,0c0,0-0.1-0.1,0-0.1
						c-0.2,0-0.4,0-0.6-0.1c0,0,0,0-0.1,0c-0.1,0-0.3,0.1-0.4,0.1c-0.1,0-0.1-0.1-0.2-0.1c-0.1,0,0,0-0.1,0.1c-0.1,0-0.2,0-0.2,0
						c0,0,0,0,0,0.1l-0.1,0c0,0-0.1,0-0.1-0.1c0,0-0.1,0.1-0.1,0.2l-0.1,0c0,0,0-0.1,0-0.1c0,0,0,0-0.1,0c-0.1,0-0.1,0.2-0.2,0.2
						c-0.1,0-0.1,0-0.1,0c-0.1,0,0,0.1-0.1,0.1c-0.1,0,0,0-0.1,0c-0.1,0.1-0.1,0.1,0,0.1c-0.1,0-0.1,0-0.2,0c-0.1,0-0.1,0.1-0.2,0.2
						c-0.1,0.1-0.2,0.1-0.2,0.2c0,0,0,0.1,0,0.1c0,0,0,0,0,0c-0.1,0.1-0.1,0.1-0.2,0.1c0,0,0,0-0.1,0.1c-0.2,0.2,0,0.2-0.1,0.4
						c-0.1,0.1-0.1,0.1-0.3,0.2l0,0.1c0,0,0,0,0,0c0.1,0,0.1,0,0.1,0c0,0-0.1,0.2-0.1,0.2c0,0.1-0.1,0.1-0.1,0.2c0,0.1,0,0.1,0,0.2
						c0,0,0-0.1-0.1-0.1c0,0,0,0,0,0.1c0,0.1,0,0.1,0,0.2c0,0.1-0.1,0-0.1,0.1c0,0.1,0,0.2,0,0.3c0,0.1-0.1,0.1-0.1,0.2
						c0,0.1,0,0,0,0.1c0,0.1,0,0-0.1,0.1c0,0.1,0,0,0,0.1c0,0.1,0,0.2-0.1,0.2c0,0.1,0,0.1,0.1,0.1s0-0.1,0.1-0.1c0,0.1,0,0.1,0,0.2
						c0,0.1,0,0.1,0.1,0.1c0,0.1-0.1,0.2,0,0.3C69,5.4,69,5.5,69,5.5c0,0,0,0.1-0.1,0.2l0.1,0l0.1,0.3c0,0,0,0.1,0,0.1
						c0.1,0.1,0.2,0.2,0.3,0.3c0,0.1,0,0.2,0,0.2c0,0,0.1,0,0.1,0C69.6,6.7,69.7,7,69.8,7c0.1,0.1,0.1,0.1,0.1,0
						c0,0,0.1,0.1,0.1,0.1c0.1,0.1,0.1,0.2,0.2,0.3c0.1,0.1,0.1,0,0.1,0c0.1,0.1,0.1,0.1,0.2,0.2c0.1,0,0.1,0,0.2,0.1
						c0.1,0,0,0,0,0.1c0.1,0,0.1,0,0.2,0c0.1,0,0.1,0.1,0.2,0.1c0.1,0,0.1,0,0.2,0c0.1,0,0,0,0.1,0.1c0.1,0,0.1,0,0.2,0
						c0.1,0,0.2,0.1,0.2,0.1c0,0,0.1,0,0.1-0.1c0,0,0,0,0.1,0.1c0.1,0,0,0,0.1,0c0.1,0,0,0,0.1,0.1c0.1,0,0,0,0.1,0
						c0.1,0,0.3,0.1,0.4,0c0,0,0.1,0.1,0.1,0.1c0.1,0,0.1,0.1,0.2,0.1c0.1,0,0.1-0.1,0.1-0.1c0,0,0.2,0,0.2,0c0,0,0.1,0.1,0.2,0.1
						c0.1,0,0,0,0.1-0.1c0.1,0,0.1,0,0.2,0c0.1,0,0.1,0,0.1,0c0,0,0-0.1,0-0.1c0,0,0.1-0.1,0.2-0.1c0,0,0,0.1,0,0.1c0,0,0.1,0,0.1,0
						c0,0,0.1-0.1,0.2-0.1c0.1,0,0.1,0,0.2-0.1c0.1,0,0,0,0-0.1c0.1,0,0,0,0.1,0c0.1,0,0.1,0,0.2-0.1c0.1-0.1,0.2-0.1,0.2-0.2l0,0
						c0.1-0.1,0.1,0,0.1,0c0.1-0.1,0-0.1,0.1-0.1c0.1-0.1,0.1,0,0.1-0.1c0.1-0.1,0,0,0-0.1c0.1-0.1,0.1,0,0.1-0.1
						c0.1-0.1,0.1-0.1,0-0.2c0.1,0,0.2-0.1,0.3-0.2c0-0.1,0-0.1,0-0.1c0-0.1,0.1,0,0.1-0.1c0-0.1,0-0.1,0-0.1c0,0,0.1,0,0.1,0
						c0,0,0.2-0.6,0.2-0.6c0-0.1-0.1,0,0-0.1c0-0.1,0.1,0,0.1-0.1c0-0.1,0-0.1,0-0.2c0-0.1,0.1,0,0.1-0.1c0-0.1,0,0,0-0.1
						c0,0,0.1-0.1,0.2-0.1c0-0.1,0.1-0.2,0.1-0.2c0,0,0,0-0.1,0l0-0.1c0-0.1,0,0,0.1-0.1c0,0,0-0.1,0.1-0.1c0.1,0,0,0,0.1,0
						c0.1,0,0.1,0,0.1-0.1C76.9,4.6,77,4.6,77,4.7c0,0,0,0.1-0.1,0.1l0.1,0l0,0.1c0,0.1,0,0,0,0c0,0,0,0,0.1,0c0,0,0,0,0,0.1
						c0,0.1-0.1,0.2-0.1,0.4c0,0.2-0.1,0.3-0.1,0.4c0,0.1-0.1,0.2-0.1,0.3C76.9,6,77,5.9,77,5.9z"/>
				</g>
			</g>
		</g>
		<g>
			<path fill="#FFFFFF" d="M72.6,7.1c-0.2,0-0.3-0.1-0.4-0.2C72.1,6.8,72,6.7,72,6.6V4.4c0,0,0-0.1-0.1-0.1h-0.5
				c-0.1,0-0.2,0-0.3-0.1c-0.1-0.1-0.1-0.2-0.1-0.3c0-0.1,0-0.2,0.1-0.3c0.1-0.1,0.2-0.1,0.3-0.1h1.1c0.2,0,0.3,0.1,0.4,0.2
				c0.1,0.1,0.2,0.2,0.2,0.4v2.6c0,0.2-0.1,0.3-0.2,0.4C72.9,7.1,72.8,7.1,72.6,7.1L72.6,7.1z M73,2.8c-0.1,0.1-0.3,0.2-0.5,0.2
				s-0.4-0.1-0.5-0.2c-0.1-0.1-0.2-0.3-0.2-0.4S72,2,72.1,1.9c0.1-0.1,0.3-0.2,0.5-0.2s0.3,0.1,0.5,0.2c0.1,0.1,0.2,0.3,0.2,0.4
				S73.2,2.7,73,2.8z"/>
		</g>
	</g>
</g>
<g>
</g>
<g>
</g>
<g>
</g>
<g>
</g>
<g>
</g>
<g>
</g>
<g>
</g>
<g>
</g>
<g>
</g>
<g>
</g>
<g>
</g>
<g>
</g>
<g>
</g>
<g>
</g>
<g>
</g>
</svg>
