<?xml version="1.0" encoding="utf-8"?>
<!-- Generator: Adobe Illustrator 18.0.0, SVG Export Plug-In . SVG Version: 6.00 Build 0)  -->
<!DOCTYPE svg PUBLIC "-//W3C//DTD SVG 1.1//EN" "http://www.w3.org/Graphics/SVG/1.1/DTD/svg11.dtd">
<svg version="1.1" id="Layer_1" xmlns="http://www.w3.org/2000/svg" xmlns:xlink="http://www.w3.org/1999/xlink" x="0px" y="0px"
	 viewBox="0 0 74.6 56" enable-background="new 0 0 74.6 56" xml:space="preserve">
<g>
	<g>
		<path fill="#FFFFFF" d="M70.4,54.5H4.3c-1.7,0-3.2-1.4-3.2-3.2V26.2c0-1.7,1.4-3.2,3.2-3.2h66.1c1.7,0,3.2,1.4,3.2,3.2v25.1
			C73.6,53.1,72.2,54.5,70.4,54.5z"/>
		<g>
			<g>
				<path fill-rule="evenodd" clip-rule="evenodd" fill="#3A494F" d="M63.9,56c-0.4,0-1-0.1-1.6-0.1c-0.2-0.1-0.1-0.2-0.4-0.2
					c-0.9,0-1.6-0.1-2.4-0.1c-0.8,0-0.2,0.1-1,0.1c-0.8,0-0.5-0.1-1.3-0.1c-0.8,0-1.8,0.2-2.6,0.2c-0.8,0-0.2-0.1-1-0.1
					c-0.8,0-0.5,0.1-1.3,0.1c-0.8,0-1.6-0.3-2.2-0.4c-1.2,0.1-3.9,0.2-4.7,0.2c-1.6,0-1-0.2-2.5-0.2c0,0,0.4,0-0.5,0
					c-0.8,0-0.5,0.1-1.3,0.1c-0.8,0-0.5-0.1-1.3-0.1c-0.4,0-1.1,0.2-1.4,0.4c-1.1-0.1-2.4-0.4-3.2-0.4c-0.8,0-2.8,0.2-3.6,0.2
					c-0.8,0-0.2-0.1-1-0.1s-0.8,0.1-1.6,0.1c-1.7,0-0.2-0.2-1.3-0.2c-0.8,0-0.2,0.1-1,0.1c-0.8,0-1.1-0.1-2-0.1s-4.1,0.2-4.9,0.2
					s-2.1-0.1-3-0.1c-0.8,0-2.1,0.1-2.7,0.1c-0.4,0-0.5-0.2-0.5-0.3H8.3c0.4,0.2,0.7,0.2,0.6,0.2c-0.4,0-0.4-0.1-1.3-0.1
					c-0.8,0-0.8,0.1-1.6,0.1c-0.4,0-0.9-0.1-1.5-0.1c-0.2,0-0.6-0.1-0.9-0.1c-0.3-0.1-0.6-0.2-0.8-0.3c-0.5-0.2-0.7-0.3-0.9-0.5
					c-0.2-0.1-0.5-0.3-0.8-0.7c-0.3-0.4-0.4-0.6-0.4-0.8c-0.1-0.3-0.1-0.4-0.2-0.8c-0.1-0.3-0.1-0.5-0.1-0.7c0-0.2,0-0.3-0.1-0.5
					c0-0.3-0.1-0.5-0.2-0.7c0.1-0.5,0.2,0,0.2-0.8c0-0.8-0.1,0.2-0.1-0.7c0-0.8,0.1,0.2,0.1-0.7c0-0.8-0.1,0.2-0.1-0.7
					c0-0.8,0.1-0.2,0.1-1s-0.1-1.1-0.1-2c0-0.8,0-1.3,0.1-1.6c0-0.2-0.1-0.4-0.2-0.5c0-0.4,0.1-0.4,0.1-1.3S0,40.5,0,39.7
					c0-0.8,0.1-1.8,0.1-2.6S0,35.3,0,34.4c0-0.8,0.1-0.9,0.1-1.2c0-1.6,0-3.2,0-4.8c0.1-0.2,0.1,0.3,0.1-0.5c0-0.2,0-0.5,0-0.8
					c0-0.2,0-0.4,0-0.6c0-0.1,0-0.2,0-0.3c0-0.1,0-0.3,0-0.4c0-1.1,0.6-2.3,1.3-2.9c0,0,0.3-0.3,0.6-0.5c0.3-0.2,0.7-0.3,0.7-0.3
					c0.1,0.1-0.8,0.4-1.3,1.1c0,0,0.6-0.6,1.3-0.9c0.4-0.2,0.8-0.2,1.1-0.3c0.3,0,0.5,0,0.5,0c0.8,0,0.4-0.1,1.2-0.1
					c0.8,0,1.1,0.1,2,0.1s0.5-0.1,1.3-0.1s0.2,0.1,1,0.1s1.1-0.1,2-0.1c0.8,0,2.8,0.1,3.6,0.1c0.6,0,2,0,2.4-0.1
					c0.5,0.1,1.2,0.1,1.4,0.3c0.9,0,1.1,0.1,1.1-0.1s-0.7-0.1-0.6-0.2c0.8,0.1,1.7,0.2,2.5,0.2c0.2,0,1.8-0.1,2-0.4h1.2
					c0,0.1,0.7,0.3,0.9,0.4c0.2,0,0.4-0.1,0.5-0.2c0.8,0.1,1.4,0.2,2.2,0.2c0.8,0,2.1-0.2,3-0.2s0.5,0.1,1.3,0.1s0.7,0,0.8-0.1
					c0.5,0.1,0.1,0.2,0.9,0.2c0.8,0-0.2-0.1,0.7-0.1s0.8,0.1,1.6,0.1c1.4,0,1.8,0,2-0.4h1.2c0,0.1,0.5,0.4,1,0.4
					c0.8,0-0.2-0.1,0.7-0.1c0.8,0-0.2,0.1,0.7,0.1s1.2-0.2,1.8-0.2c0.5-0.1,1,0,1.8,0c0.8,0,4.1,0.2,4.9,0.2c2.8,0,2-0.2,3.3-0.2
					c1.4,0,0.5,0.2,3.3,0.2c0.8,0,1.8-0.1,2.6-0.1c0.8,0,2.2,0.1,3.2,0.2c0.3,0,0.4-0.1,0.5-0.2h1.1c0.8,0,0.7,0.1,1.3,0.1
					c0.2,0.1,0.1,0.2,0.4,0.2H68c0.8,0,0.5-0.1,1-0.2c0.3,0,0.7,0,1.1,0c0.3,0,1,0,1.3,0.1c0.4,0.1-0.3-0.2,0.7,0.1
					c0.5,0.2,1.1,0.7,1.5,1.3c0.4,0.6,0.6,1.3,0.7,1.9c0.1,0.3,0.1,0.6,0.3,0.7c-0.1,0.5-0.1,1.4-0.1,2.2c0,0.8,0.1,1.7,0.1,2.4
					c0,0.4-0.2,0.5-0.3,0.5v1.8c0.1,0.3,0.2,0.2,0.2,0.3v1.7c0,0.8-0.1,0.4-0.1,1.2c0,0.8,0,1,0.1,1.1c-0.2,2.3-0.2,0.9-0.2,3.2
					c0,1.4,0.2,3.2,0.2,3.6c0,0.8-0.2,1.5-0.2,2.3c0,0.8,0.1,0.2,0.1,1c0,0.8-0.1-0.2-0.1,0.7c0,0.4,0,1.1,0.1,1.8
					c0,0.7,0.2,1.4,0.1,2.2c0,0.2,0,0.2,0,0.2c0,0.1,0,0.3-0.3,0.8c-0.2,0.5-0.6,1-1.1,1.3c-0.2,0.2-0.5,0.3-0.7,0.4
					c-0.1,0-0.3,0.1-0.3,0.1l-0.1,0L71.8,55c0,0.1,0,0.2,0,0.3c-0.3-0.1-0.5-0.2-0.9-0.2c0-0.1,0.1-0.1,0.1-0.3
					c-0.1-0.3-0.6-0.4-0.5-0.6c0-0.2,0-0.1,0-0.2c0.1,0,0.5-0.2,0.4-0.4c0-0.2-0.1-0.1-0.1-0.2c0.2-0.1,0.2-0.3,0.3-0.3
					c0,0,0.1,0,0.1,0c0,0,0,0,0.1,0c0.1,0,0.1,0,0.2-0.1c0.1,0,0.2-0.1,0.3-0.2c0.4-0.4,0.4-0.6,0.5-1.1c0.1-0.5,0.1-0.1,0.2-0.3
					c0-0.6,0.1-1.4,0.1-2.1c0-0.7,0.1-1.4,0.1-1.9c0-0.8,0.1-1.5,0-2c-0.1-0.5-0.2-1.1-0.2-1.9s0.1-0.3,0.1-0.6c0-0.6,0-1.6,0-2.4
					c0-0.8,0-2.4-0.1-3.9c0.1-0.1,0.1,0.3,0.2,0.6c0,0,0.1-0.7,0.2-0.9c0-0.2-0.1-0.2-0.1-1.1c0-0.8,0.1-0.6,0.1-0.8
					c-0.1-0.6,0-1.1-0.2-1.1c-0.2,0-0.1,0.7-0.2,0.6v-1.8c0.1-0.4,0.2-0.9,0.2-1.7c0-0.8-0.1,0.2-0.1-0.7s0.1,0.2,0.1-0.7
					s-0.1-0.5-0.1-1.3c0-0.8,0.1-0.8,0.1-1.6c0-0.3-0.1-0.6-0.3-0.9c-0.2-0.3-0.5-0.5-0.7-0.7c-0.3-0.1-0.6-0.1-0.8-0.1
					c0-0.1,0.3-0.1,0.4-0.2c-0.1,0-0.2-0.1-0.4-0.1c-0.1,0-0.2,0-0.5,0c-0.4,0-0.9,0-1.3,0c-0.9,0-1.6-0.1-2.1-0.1
					c-0.8,0-1.7,0-2.2,0.1v0c-0.9,0-0.4-0.1-0.7-0.1c-0.3,0-0.4,0.1-0.5,0.2c-0.4,0-0.1-0.1-0.9-0.1s-0.3,0-0.4,0.1
					c-0.4,0-0.6-0.1-0.6-0.2c-1.5,0-3.5,0-5.1,0C56.4,24.1,56.8,24,56,24c-0.8,0-3.1,0.2-3.9,0.2c-0.8,0-1.1-0.2-2-0.2
					c-0.8,0,0.2,0.1-0.7,0.1c-0.8,0-1.6-0.1-1.9-0.3c-0.2,0-0.4,0.1-0.5,0.2h-1.2c0-0.1-0.7-0.1-0.9-0.2c-0.2,0-0.9,0.1-1.2,0.4
					h-1.2c0-0.1,0.6-0.1,0.6-0.2c-0.3-0.1,0.2,0-0.7,0c-0.8,0-1.5,0.2-2.3,0.2c-0.8,0-0.5-0.1-1.3-0.1c-0.8,0-0.5,0.1-1.3,0.1
					c-0.8,0-0.2-0.1-1-0.1c-0.8,0-0.7,0-0.8,0.1c-0.5-0.1-1-0.2-1.5-0.2c-0.5-0.1-1.5,0-2.4,0s-1.8,0-2.4,0c-0.4,0-0.6,0.1-1.1,0.2
					c0,0,0.4,0-0.5,0S27,24.1,26.6,24c-0.2,0-0.5,0-1.4,0c-2.8,0-1.9,0.2-3.3,0.2c-1.1,0-1.2-0.2-2.5-0.4h-0.9
					c-0.3,0.1-0.2,0-0.2,0.1c0,0.2,0.7,0.2,0.6,0.2h-2.4c-0.8,0-0.9-0.1-1.7-0.1s-1.2,0.1-1.7,0.1c-0.1-0.1,0.6-0.2,0.6-0.2
					c-0.3-0.1,0.2,0-0.7,0c-0.8,0-0.5,0.1-1.3,0.1c-0.8,0-0.5-0.1-1.3-0.1c-0.8,0-1.5,0.1-2.3,0.1c-0.8,0-1.1-0.1-2-0.1
					s0.2,0.1-0.7,0.1c-0.8,0-0.2-0.1-1-0.1c-0.2,0-0.3,0-0.3,0c0,0-0.1,0-0.1,0c0,0-0.1,0.1-0.3,0.1c-0.5,0.1-1,0.4-1.2,0.4
					c-0.2,0.3-0.4,0.7-0.3,0.7c0.1,0.1,0.3-0.3,0.3-0.3c-0.2,0.3-0.3,0.4-0.3,0.6c-0.1,0.1-0.1,0.3-0.1,0.5c0,0.8,0,0.7,0.1,0.8
					c-0.1,0.8-0.2,1.4-0.2,2.2c0,0.8,0.1,1.1,0.1,1.8c0,0.3-0.1,0.4-0.2,1.2h0.4v2.5c-0.1,0-0.1,0.7-0.2,0.9
					c0.1,0.9,0.2,2.6,0.2,3.4c0,0.8-0.1,1.6-0.3,1.9c0,0.2,0.1,0.4,0.2,0.5c-0.1,1.5-0.2,4-0.2,4.8c0,1.1,0,1.1,0.2,1V49
					c0,0.4-0.1,0.9-0.1,1.4c-0.1,0.5-0.1,1-0.1,1.3c0.1,0.6,0.2,0.3,0.4,0.8c0.3,0.4,0.6,0.8,1.1,1c0.3,0.1,0.5,0.1,0.7,0
					c0.3,0,0.6-0.1,1-0.1c0.8,0-0.2,0.1,0.7,0.1s0.5-0.1,1.3-0.1s1.1,0.1,2,0.1c0.8,0,0.5-0.1,1.3-0.1c0.8,0-0.2,0.1,0.7,0.1
					s0.5-0.1,1.3-0.1c0.8,0,1.6,0.1,1.9,0.3c0.2,0,0.4-0.1,0.5-0.2c0.4,0,0.1,0.1,0.9,0.1s-0.2-0.1,0.7-0.1c0.8,0-0.2,0.1,0.7,0.1
					s0.4,0,0.5-0.1c0.6,0,2.6,0.1,3.2-0.1c0.4,0,0.6,0.1,0.7,0.2c0.5,0.1,1.1,0.2,1.9,0.2c0.5,0,1.1-0.2,1.4-0.4h1.8
					c0.4,0.1,0.6,0.2,1.4,0.2c0.8,0,0.2-0.1,1-0.1c0.8,0,1.1,0.1,2,0.1c0.8,0,1.1,0,1.4,0c0.3,0,0.3-0.2,0.4-0.2
					c0.3,0,1.2,0,2.4-0.1c0.1,0.1-0.3,0.1-0.6,0.2c0,0,0.7,0.1,0.9,0.2c0.5-0.1,1.3-0.1,2.1-0.1c0.8,0,1.1,0.1,2,0.1
					s-0.2-0.1,0.7-0.1c0.8,0,0.3,0.1,0.6,0.1c0.6,0,0.9,0,1.7,0c0.8,0,1.7,0,2.2-0.1v0c0.9,0,0.3,0.1,1.1,0.1c0.8,0,0.5-0.1,1.3-0.1
					c0.8,0,0.5,0.1,1.3,0.1c0.8,0,0.2-0.1,1-0.1s0.5,0.1,1.3,0.1c0.8,0,1.3-0.1,1.8-0.2c0.8,0.1,2,0.2,2.8,0.2s0.5-0.1,1.3-0.1
					s0.2,0.1,1,0.1c0.8,0,0.7,0,0.7-0.1c0.4,0,0.6,0.1,0.6,0.2h5.6c0.8,0-0.2-0.1,0.7-0.1s0.2,0.1,1,0.1c0.8,0,0.5-0.1,1.3-0.1
					s0.5,0.1,1.3,0.1c0.3,0,0.2,0,0.2-0.1c0.1,0.1,0.2,0.2,0.3,0.4c0.2,0,0.4,0.1,0.5,0.3c0,0,0.1-0.1,0.1-0.2h0.2
					c0.2,0,0.1,0.1,0.3,0.2c0,0.1,0.1,0.1,0.1,0.3s-0.1,0.1-0.1,0.2c0,0.2,0.1,0.2,0.2,0.3c-0.1,0.2-0.3,0.4-0.4,0.6
					c-0.1,0-0.1-0.1-0.2-0.1v0.4h-0.2c-0.2,0-0.1-0.1-0.1-0.1c0,0-0.1,0.1-0.1,0.2c-0.1,0-0.1-0.1-0.2-0.1c-0.1,0-0.2,0-0.4,0
					l-0.2,0c-0.3,0-0.6,0-0.9,0c-1.3,0-2.4-0.1-2.8-0.1c-0.8,0-1.7,0-2.3,0C63.1,55.8,63.7,55.9,63.9,56z"/>
			</g>
		</g>
	</g>
	<g>
		<line fill="#FFFFFF" x1="37.9" y1="23.2" x2="37.3" y2="3.6"/>
		<g>
			<g>
				<path fill-rule="evenodd" clip-rule="evenodd" fill="#3A494F" d="M36.4,21.1c0,0,0.1-0.1,0.1-0.1c0.1,0,0.2,0,0.2,0
					c0-0.1,0.1-0.1,0.1-0.2c0-0.1-0.1,0-0.1-0.1c0-0.1,0.1,0,0.1-0.1c0-0.1-0.3-0.1-0.3-0.2c0-0.1,0.1,0,0.1-0.1s-0.1,0-0.1-0.1
					c0-0.1,0.3-0.1,0.4-0.2c-0.1-0.1-0.3-0.3-0.3-0.4c0-0.1,0.2-0.1,0.2-0.2c0,0,0,0,0,0c0-0.1-0.1,0-0.1-0.1s0.1,0,0.1-0.1
					c0,0-0.2-0.1-0.4-0.1c0.1-0.1,0.4-0.2,0.4-0.3c0-0.1-0.3-0.2-0.3-0.3c0-0.1,0.1,0,0.1-0.1c0-0.1-0.1-0.1-0.1-0.1
					c0-0.1,0.2,0,0.2-0.1c0-0.1-0.1,0-0.1-0.1c0-0.1,0.1-0.1,0.1-0.2s-0.3-0.3-0.3-0.4s0.1-0.2,0.1-0.2s-0.1-0.2-0.1-0.2
					c0,0,0.2,0,0.3,0l0-0.4c-0.2,0-0.2,0.1-0.2,0.1c0,0,0.1,0,0.1-0.1s-0.1-0.1-0.1-0.1c0-0.1,0.2-0.2,0.2-0.3
					c0-0.1-0.1-0.1-0.1-0.1s0.1,0,0.1-0.1c0-0.1-0.1-0.1-0.2-0.1c0.1,0,0.2,0,0.2-0.1s-0.1,0-0.1-0.1s0.1,0,0.1-0.1s-0.1,0-0.1-0.1
					s0.1,0,0.1-0.1c0-0.1-0.1-0.1-0.1-0.2c0-0.1,0-0.1,0.1-0.1c0,0-0.1,0-0.2,0c0,0,0.1,0,0.1-0.1s-0.1-0.1-0.1-0.1s0.1-0.2,0.1-0.2
					c0-0.1-0.1-0.1-0.1-0.2c0-0.1,0.1-0.1,0.1-0.1c0-0.2,0-0.2,0-0.4c0.1,0,0.1,0,0.1,0s-0.2-0.2-0.4-0.4l0-0.1
					c0.1,0,0.1,0.1,0.3,0.1l0-0.2c0-0.1-0.1,0-0.1-0.1c0-0.1,0.1-0.1,0.1-0.2c0-0.1-0.1,0-0.1-0.1c0-0.1,0.1,0,0.1-0.1
					c0-0.1-0.1-0.1-0.1-0.2c0-0.1,0.1-0.2,0.1-0.3c0-0.1,0-0.2-0.1-0.2c0.1,0,0.1-0.1,0.2-0.1c0-0.1,0.1-0.1-0.1-0.1
					c-0.2,0-0.1,0.1-0.2,0.1c0.1-0.1,0.2-0.1,0.2-0.2c0,0-0.1-0.1-0.4-0.2l0-0.1c0.1,0,0.3-0.1,0.4-0.1c0,0-0.1,0-0.2,0
					c0.1-0.1,0.2-0.1,0.2-0.2S36.4,11,36.4,11c0-0.1,0.1,0,0.1-0.1s0-0.1-0.1-0.1c0.1,0,0.2,0,0.2-0.1c0-0.1-0.1,0-0.1-0.1
					c0-0.1,0.1-0.1,0.1-0.1c0-0.1,0-0.1-0.4-0.2l0-0.1c0.1,0,0.4-0.1,0.4-0.1c0-0.1-0.1,0-0.1-0.1c0-0.1,0.1,0,0.1-0.1
					c0-0.1-0.2-0.1-0.2-0.1c-0.1,0,0-0.1,0-0.1c0-0.1,0.2-0.3,0.2-0.4c0-0.2-0.3-0.2-0.3-0.3c0-0.1,0.2,0,0.2-0.3
					c0-0.1-0.1-0.1-0.1-0.2c0-0.1,0.1-0.2,0.2-0.3c0,0-0.1,0-0.2,0l0-0.1c0-0.1,0.1-0.1,0.1-0.1c0.1,0,0.2,0,0.2,0l0-0.1
					c0-0.1-0.1,0-0.2-0.1c0-0.1,0-0.1,0-0.2c0,0-0.1,0-0.1,0s0.1-0.2,0.2-0.3c0,0-0.1,0-0.2,0c0.1,0,0.1-0.1,0.1-0.2
					c0-0.1-0.1-0.1-0.1-0.2c0,0,0.2,0,0.2,0l0-0.1c-0.1,0-0.2,0-0.2,0l0-0.1c0-0.1,0.1,0,0.1-0.1s0-0.1-0.1-0.1
					c0.2-0.2,0.2-0.1,0.2-0.3c0-0.1-0.3-0.3-0.3-0.3c0-0.1,0.2-0.1,0.2-0.2c0-0.1-0.1,0-0.1-0.1c0-0.1,0.1,0,0.1-0.1
					c0-0.1-0.1-0.2-0.2-0.3c0,0,0,0,0-0.1c0-0.1,0.1-0.1,0.2-0.2l0-0.2c-0.1,0-0.2,0-0.2-0.1c0.2-0.2,0.4-0.4,0.4-0.7
					c0.1,0,0.1,0.1,0.2,0.1c0.4,0,0.4-0.5,0.7-0.5c0.2,0,0.1,0,0.2,0c0,0.1,0.1,0.6,0.4,0.6c0.2,0,0.2-0.1,0.2-0.1
					c0,0.4,0.3,0.4,0.3,0.6c0,0.2-0.1,0.3-0.1,0.3c0,0.1,0.1,0.1,0.1,0.2c0,0.1-0.1,0-0.1,0c0,0.1-0.1,0.3-0.1,0.3
					c0,0.1-0.1,0.1,0,0.2c0.1,0,0.2,0.1,0.2,0.2s-0.1,0-0.1,0c0,0.1,0,0.1,0,0.2c0,0.1,0,0.2,0.1,0.3c-0.1,0-0.1,0-0.2,0
					c0,0-0.1,0.1-0.2,0.1c0,0,0.1,0,0.1,0.1c0,0.1-0.1,0.1-0.1,0.1c0.1,0,0,0.1,0.2,0.1c0.2,0,0.1-0.1,0.2-0.1l0,0.2
					c-0.1,0-0.2,0.1-0.2,0.1s0.1,0,0.1,0.1s-0.1,0-0.1,0.1c0,0.1,0.1,0,0.1,0.1c0,0.1-0.1,0.1-0.1,0.1c0,0.1,0.1,0.2,0.1,0.2
					c0.1,0,0.2,0.1,0.2,0.1c-0.1,0-0.2,0-0.3,0c0,0.1-0.1,0.3-0.1,0.4c0,0.1,0,0.1,0.1,0.2l0,0c0,0.1-0.1,0-0.1,0.1c0,0,0.1,0,0.2,0
					c0,0-0.1,0-0.1,0.1c0,0.1,0,0,0.1,0c0,0-0.1,0.1-0.2,0.1c0,0.1,0,0.3,0,0.4c-0.1,0-0.1,0-0.1,0s0.3,0.3,0.3,0.3
					s-0.2,0.1-0.2,0.2c0,0.1,0.1,0,0.1,0.1c0,0.1-0.1,0.1-0.2,0.2c0,0,0.1,0,0.2,0l0,0.1c-0.1,0-0.1,0.1-0.2,0.1
					c0,0,0.1,0.1,0.4,0.1l0,0.1c-0.1,0-0.1,0-0.2,0c-0.1,0,0,0,0,0.1c0,0.1,0.2,0.1,0.3,0.2s-0.1,0-0.1,0.1c0,0.1,0.1,0,0.1,0.1
					c0,0.1-0.1,0-0.1,0.1c0,0.1,0,0.1,0.1,0.1c-0.1,0-0.2,0.1-0.2,0.1c-0.1,0,0,0.1,0,0.2s0,0.1,0,0.2c0,0,0.1,0,0.2,0.1
					c0,0,0,0,0,0s-0.2,0.1-0.2,0.1c0,0,0,0,0,0.1c0,0.2,0.3,0.2,0.3,0.3c0,0.1-0.2,0.1-0.4,0.2l0,0.1c0.1,0,0,0,0.1,0
					c0.2,0,0.2-0.1,0.2-0.1l0,0.2c0,0.1-0.1,0.1-0.1,0.1s0.1,0.1,0.1,0.1c-0.1,0-0.2,0-0.2,0c-0.1,0,0,0,0,0.1c0,0.1,0.1,0,0.1,0.1
					c0,0.1-0.1,0-0.1,0.1c0,0.1,0.1,0.1,0.1,0.2c0,0.1-0.1,0.1-0.1,0.2c0,0.1,0.1,0,0.1,0.1c0,0.1-0.1,0-0.1,0.1s0.1,0,0.1,0.1
					s-0.1,0.1-0.2,0.2c0.1,0,0,0.1,0.2,0.1s0.1-0.1,0.2-0.1c0,0.1-0.1,0.1-0.1,0.2s0,0.1,0.1,0.1c-0.1,0.1-0.2,0.1-0.2,0.2
					s0.1,0.1,0.1,0.1c0,0-0.1,0-0.2,0.1l0.4,0l0,0.2c-0.1,0-0.1,0.1-0.2,0.1c0.1,0.1,0.3,0.2,0.3,0.3s-0.1,0.1-0.2,0.2
					c0,0,0.1,0,0.2,0c-0.1,0.1-0.2,0.3-0.2,0.4c0,0.1,0,0.1,0.2,0.1l0,0.1c0,0.1-0.2,0.2-0.2,0.2c0,0.1,0.1,0,0.1,0.1
					c0,0.1-0.1,0.1-0.1,0.2c0,0.1,0.1,0.1,0.1,0.2c0,0.1-0.1,0-0.1,0.1s0.1,0,0.1,0.1c0,0.1-0.1,0.1-0.1,0.2c0,0.1,0.1,0,0.1,0.1
					s-0.1,0-0.1,0.1s0.1,0,0.1,0.1c0,0.1-0.1,0.1-0.2,0.2c0,0,0.1,0,0.2,0c0,0-0.1,0-0.1,0.1c0,0.1,0.1,0,0.1,0.1
					c0,0.1-0.1,0-0.1,0.1c0,0.1,0,0,0.1,0c0,0.1-0.1,0.2,0.2,0.3c0,0-0.1,0.1-0.2,0.1c-0.1,0-0.2,0.1-0.2,0.2c0,0,0.2,0.1,0.4,0.1
					l0,0.2c-0.1,0-0.2,0.1-0.2,0.1c0,0.1,0.1,0,0.1,0.1c0,0.1-0.1,0.1-0.1,0.2c0,0.1,0,0.1,0,0.1c0,0,0.2,0,0.2,0c0,0,0,0.1,0.2,0.2
					c-0.1,0-0.1,0-0.2,0c0,0-0.1,0.1-0.2,0.1c0.1,0,0.1,0.1,0.1,0.2c0,0.1-0.1,0.1-0.1,0.2c0,0.1,0.1,0,0.1,0.1c0,0.1-0.1,0-0.1,0
					c0,0.1,0,0.1,0,0.1s0,0.1,0.1,0.2l0,0c0,0.1-0.1,0-0.1,0.1c0,0.1,0.1,0,0.1,0.1c0,0.1-0.1,0-0.1,0.1c0,0.1,0.1,0,0.1,0.1
					c0,0.1-0.1,0-0.1,0.1s0.1,0.1,0.2,0.1c-0.1,0.1-0.2,0.2-0.2,0.2s0.1,0,0.1,0.1s-0.1,0-0.1,0.1c0,0.1,0,0.1,0.1,0.1
					c0,0-0.1,0.1-0.2,0.1l0,0.5c0,0.1,0.1,0,0.1,0.1c0,0.1-0.1,0-0.1,0.1s0.1,0,0.1,0.1s-0.1,0-0.1,0.1c0,0.1,0,0.1,0.1,0.1
					c-0.1,0.1-0.2,0.2-0.4,0.3c0,0.2-0.1,0.4-0.2,0.5c0,0,0.1,0.1,0.2,0.1l0,0.2c0,0.2-0.1,0.1-0.1,0.3c-0.1,0-0.1,0.2-0.3,0.2
					c-0.2,0-0.1-0.1-0.2-0.1s-0.2,0.1-0.3,0.3c-0.2-0.1-0.4-0.2-0.6-0.4c0-0.1,0.1-0.1,0.1-0.2l-0.4,0l0-0.2c0-0.2,0.1-0.1,0.1-0.1
					c0,0-0.1-0.1-0.2-0.1c0-0.1,0.1-0.1,0.1-0.2c0-0.1,0-0.2,0-0.4c0-0.1,0-0.1,0-0.2c0-0.1,0-0.1,0-0.1c0-0.1,0.1-0.2,0.1-0.2
					c0-0.1,0-0.1,0-0.2C36.6,21.1,36.4,21.1,36.4,21.1z"/>
			</g>
		</g>
	</g>
	<g>
		<circle fill="#3A494F" cx="37.6" cy="3.3" r="2.7"/>
		<g>
			<g>
				<path fill-rule="evenodd" clip-rule="evenodd" fill="#3A494F" d="M40.7,5.2c0,0-0.1,0.1-0.1,0.1c0,0-0.1,0-0.1,0
					c-0.1,0.1-0.2,0.1-0.2,0.1c0,0.1,0.1,0.1,0,0.1c0,0.1-0.1,0-0.1,0c0,0.1,0,0.2-0.1,0.3c-0.1,0.1-0.1,0-0.1,0
					c-0.1,0.1,0,0.1,0,0.1c-0.1,0.1-0.2,0-0.3-0.1c0,0.1-0.2,0.3-0.3,0.4c-0.1,0.1-0.1,0-0.3,0c0,0,0,0,0,0c-0.1,0,0,0.1-0.1,0.1
					c-0.1,0-0.1-0.1-0.1,0c0,0-0.1,0.1,0,0.3c-0.1,0-0.3-0.2-0.3-0.1c-0.1,0-0.2,0.2-0.3,0.2c-0.1,0,0-0.1-0.1-0.1
					c-0.1,0-0.1,0.1-0.1,0.1c-0.2,0,0-0.2-0.1-0.1c-0.1,0,0,0.1-0.1,0.1c-0.1,0-0.1-0.1-0.2-0.1c-0.1,0-0.4,0.1-0.5,0.1
					c-0.1,0-0.2-0.1-0.2-0.1c-0.1,0-0.2,0-0.3,0c0,0,0-0.1,0-0.2c0,0-0.4-0.2-0.4-0.2c0,0.1,0,0.1,0,0.2c0,0,0-0.1-0.1-0.1
					c-0.1,0-0.1,0-0.2,0c-0.1,0-0.1-0.2-0.1-0.3c-0.1,0-0.1,0-0.2,0c-0.1-0.1,0-0.1,0-0.1c-0.1,0-0.1,0-0.2,0c0-0.1,0.1-0.1,0.1-0.2
					c0-0.1,0,0.1-0.1,0c-0.1-0.1,0.1,0,0-0.1c0-0.1,0,0.1-0.1,0c0-0.1,0-0.1,0-0.1c0-0.1-0.1,0-0.2-0.1c0-0.1-0.1-0.1,0-0.2
					c0,0-0.1,0-0.1,0c0,0,0-0.1,0-0.1c0-0.1-0.1,0-0.1-0.1c0-0.1,0-0.2,0-0.3c0-0.1-0.1-0.1-0.2-0.2c0-0.1,0-0.1,0-0.1
					c0-0.1-0.1-0.3-0.1-0.4c0,0,0.1,0,0.1-0.1c0-0.1-0.2-0.3-0.3-0.4l0-0.1c0.1,0,0.1,0.1,0.2,0.1l0-0.2c0-0.1-0.1,0-0.1-0.1
					c0-0.1,0.1-0.1,0.1-0.2c0-0.1-0.1-0.1-0.1-0.1c0-0.1,0.1,0,0.1-0.1c0-0.1-0.1-0.1,0-0.2c0-0.1,0.1-0.2,0.2-0.3
					c0-0.1,0.1-0.2,0-0.2c0.1,0,0.1-0.1,0.2-0.1c0-0.1,0.1-0.1,0-0.1c-0.1,0-0.1,0-0.1,0c0.1,0,0.2-0.1,0.2-0.1c0,0,0-0.2-0.1-0.3
					l0.1-0.1c0.1,0,0.2,0,0.2,0.1c0,0,0-0.1-0.1-0.1c0.1,0,0.2,0,0.2-0.1c0-0.1,0-0.3,0.1-0.3c0.1-0.1,0.1,0,0.1,0
					c0.1-0.1,0-0.1,0-0.1c0.1,0,0.1,0.1,0.2,0.1c0.1,0-0.1-0.1,0-0.1c0.1,0,0.1,0,0.2,0c0.1-0.1,0.1-0.1,0-0.3l0.1-0.1
					c0,0.1,0.2,0.2,0.2,0.1c0.1,0,0-0.1,0-0.1c0.1,0,0,0.1,0.1,0c0.1,0,0.1-0.1,0.1-0.2c0-0.1,0.1,0,0.2-0.1c0.1,0,0.4,0,0.5,0
					C37.1,0.2,37,0,37.2,0c0.1,0,0.1,0.1,0.3,0.1c0.1,0,0.2-0.1,0.2-0.1c0.1,0,0.2,0.1,0.3,0.2c0,0,0-0.1,0.1-0.1l0.1,0
					c0.1,0,0,0.1,0.1,0.1c0,0,0,0.1,0,0.1l0.1,0c0.1,0,0.1-0.1,0.1-0.1c0.1,0,0.1,0,0.2,0c0,0,0-0.1,0.1,0c0.1,0,0.2,0.1,0.2,0.3
					c0,0,0.1,0,0.1-0.1c0,0.1,0.1,0.1,0.1,0.2c0.1,0,0.2,0,0.2,0c0,0,0,0.1,0,0.2l0.1,0.1c0,0,0.1-0.1,0.1-0.1l0.1,0.1
					c0.1,0,0,0.1,0,0.1c0.1,0,0.1,0,0.1,0c0.1,0.2,0,0.2,0.1,0.3c0.1,0.1,0.3,0.1,0.3,0.2c0,0.1-0.1,0.2,0,0.3c0,0.1,0.1,0,0.1,0
					c0,0.1-0.1,0,0,0.1c0,0.1,0.2,0.2,0.3,0.2c0,0,0,0,0,0.1c0,0.1,0,0.2-0.1,0.3l0,0.1c0,0,0.1,0,0.2,0c-0.1,0.2-0.2,0.3-0.1,0.6
					c-0.1,0-0.1-0.1-0.2-0.1c-0.2,0-0.2,0.3-0.4,0.3c-0.1,0-0.1,0-0.1,0C40,3.3,39.9,3,39.7,3c-0.1,0-0.1,0.1-0.1,0.1
					c0-0.2-0.2-0.2-0.2-0.2c0-0.1,0-0.1,0-0.2c0,0-0.1,0-0.1-0.1c0,0,0,0,0-0.1c0-0.1,0-0.2,0-0.2c0,0,0-0.1-0.1-0.1
					c-0.1,0-0.2,0-0.2,0c0,0,0,0,0-0.1c0,0,0-0.1-0.1-0.1C39,2,39,2,38.8,2c0,0,0.1,0,0.1-0.1c0,0,0-0.1,0-0.1c0,0-0.1,0-0.1,0
					c0,0,0-0.1,0-0.1c0,0-0.1,0-0.1,0.1c-0.1,0.1,0,0.1,0,0.1l-0.1-0.1c0-0.1,0-0.2,0-0.2c0,0,0,0.1-0.1,0c0,0,0-0.1,0-0.1
					c0,0-0.1,0.1-0.1,0c0,0,0-0.1,0-0.1c0,0-0.1,0-0.2,0c0,0-0.1,0.1-0.1,0.1c0-0.1,0.1-0.1,0.1-0.1c-0.1,0-0.2-0.1-0.2-0.1
					c0,0-0.1,0-0.1,0l0,0c0,0,0,0,0-0.1c0,0,0,0.1,0,0.1c0,0,0-0.1,0-0.1c0,0,0,0,0,0.1c0,0,0-0.1,0-0.2c-0.1,0-0.2,0-0.3,0
					c0,0,0-0.1,0-0.1c-0.1,0-0.2,0.2-0.2,0.2c0,0-0.1-0.1-0.1-0.1c0,0,0,0.1,0,0.1c0,0-0.1-0.1-0.1-0.1c0,0,0,0.1,0,0.2l-0.1,0
					c0,0-0.1-0.1-0.1-0.1c0,0,0,0.1,0,0.2l-0.1,0c0,0,0-0.1,0-0.1c0,0,0,0,0,0c0,0,0,0.2,0,0.2c0,0-0.1-0.1-0.1,0c0,0,0,0.1,0,0.1
					c0,0-0.1-0.1-0.1,0c0,0,0,0,0,0.1c0,0-0.1-0.1-0.2-0.1c-0.1,0-0.1,0.1-0.1,0.1c0,0-0.1,0.1-0.1,0.1c0,0,0,0.1,0.1,0.1
					c0,0,0,0,0,0c0,0-0.1,0-0.2,0c0,0,0,0-0.1,0.1c-0.1,0.1,0.1,0.2,0,0.2c0,0-0.2,0-0.3,0l0,0c0,0,0,0,0.1,0c0.1,0,0.1,0,0.2,0
					l-0.1,0.1c0,0-0.1,0-0.1,0.1c0,0,0,0.1,0,0.1c-0.1,0-0.1-0.1-0.1-0.1c0,0,0,0,0,0c0,0,0.1,0,0.1,0.1c0,0-0.1,0-0.1,0.1
					c0,0,0.1,0.1,0.1,0.1c0,0-0.1,0.1-0.1,0.1c0,0,0.1,0,0.1,0c0,0-0.1,0-0.1,0.1c0,0,0.1,0,0.1,0.1c0,0-0.1,0.1-0.2,0.1
					c0,0,0,0.1,0.1,0.1c0.1,0,0.1,0,0.1,0c0,0.1-0.1,0.1-0.1,0.1c0,0,0,0,0.1,0c-0.1,0.1-0.1,0.1-0.1,0.1c0,0,0.1,0,0.1,0.1
					c0,0-0.1,0-0.1,0.1l0.2-0.1l0,0.1c0,0-0.1,0.1-0.1,0.1c0.1,0,0.2,0.1,0.2,0.1c0,0,0,0.1-0.1,0.2c0,0,0.1,0,0.1-0.1
					c0,0.1,0,0.3,0,0.3c0,0.1,0,0,0.2,0l0.1,0.1c0,0,0,0.2,0,0.2c0,0,0.1,0,0.1,0c0,0,0,0.1,0.1,0.1c0,0,0.1,0,0.1,0
					c0,0-0.1,0.1,0,0.1c0,0,0.1-0.1,0.1,0c0,0,0,0.1,0.1,0.1c0,0,0.1-0.1,0.1,0c0,0,0,0.1,0,0.1c0,0,0.1-0.1,0.1,0
					c0,0,0.1,0.1,0,0.2c0,0,0,0,0.1-0.1c0,0,0,0.1,0,0.1c0,0,0-0.1,0.1-0.1c0,0,0,0.1,0,0.1c0,0,0,0,0,0c0,0,0.1,0.1,0.2-0.1
					c0,0,0,0.1,0,0.1c0,0,0,0.1,0.1,0.1c0,0,0.1-0.1,0.1-0.2l0.1,0c0,0.1,0,0.1,0.1,0.1c0,0,0-0.1,0.1-0.1c0,0,0.1,0.1,0.1,0.1
					c0,0,0.1,0,0.1,0c0,0,0-0.1,0-0.1c0,0,0.1,0,0.1-0.1c0,0.1,0,0.1,0,0.1c0,0,0,0.1,0.1,0.1c0,0,0-0.1,0.1-0.1c0,0,0.1,0.1,0.1,0
					c0,0,0-0.1,0-0.1c0,0,0,0,0.1,0.1c0,0,0.1,0,0.1,0c0,0,0.1,0,0.1-0.1l0,0c0,0,0.1,0.1,0.1,0c0,0,0-0.1,0-0.1c0,0,0.1,0.1,0.1,0
					c0,0,0-0.1,0-0.1c0,0,0.1,0,0.1,0c0,0,0-0.1,0-0.2c0.1,0,0.2,0,0.2,0c0,0,0-0.1,0-0.1c0,0,0.1,0,0.1,0c0,0,0,0,0-0.1
					c0,0,0.1,0,0.1,0.1c0.1-0.1,0.1-0.2,0.2-0.3c0,0-0.1,0,0-0.1c0,0,0.1,0,0.1,0c0,0-0.1-0.1,0-0.1c0,0,0.1,0,0.1,0
					c0-0.1,0-0.1,0-0.1c0.1,0,0.2-0.1,0.3-0.1c0-0.1,0.1-0.2,0.2-0.2c0,0-0.1-0.1-0.1-0.1l0-0.1c0-0.1,0.1-0.1,0.1-0.1
					c0.1,0,0.1-0.1,0.2-0.1c0.1,0,0.1,0.1,0.1,0.1c0.1,0,0.2-0.1,0.2-0.2c0.1,0.1,0.2,0.2,0.4,0.3c0,0.1-0.1,0.1-0.1,0.2l0.2,0L41,4
					c0,0.1,0,0-0.1,0.1c0,0,0,0.1,0.1,0.1c0,0.1-0.1,0.1-0.1,0.1c0,0.1-0.2,0.4-0.2,0.5c-0.1,0.1-0.1,0.2-0.2,0.2
					c0,0.1-0.1,0.1-0.1,0.2C40.5,5.2,40.6,5.1,40.7,5.2z"/>
			</g>
		</g>
	</g>
</g>
<g>
</g>
<g>
</g>
<g>
</g>
<g>
</g>
<g>
</g>
<g>
</g>
<g>
</g>
<g>
</g>
<g>
</g>
<g>
</g>
<g>
</g>
<g>
</g>
<g>
</g>
<g>
</g>
<g>
</g>
</svg>
