<?xml version="1.0" encoding="utf-8"?>
<!-- Generator: Adobe Illustrator 18.0.0, SVG Export Plug-In . SVG Version: 6.00 Build 0)  -->
<!DOCTYPE svg PUBLIC "-//W3C//DTD SVG 1.1//EN" "http://www.w3.org/Graphics/SVG/1.1/DTD/svg11.dtd">
<svg version="1.1" id="Layer_1" xmlns="http://www.w3.org/2000/svg" xmlns:xlink="http://www.w3.org/1999/xlink" x="0px" y="0px"
	 viewBox="0 0 20.7 18.6" enable-background="new 0 0 20.7 18.6" xml:space="preserve">
<g>
	<g>
		<path fill="#FFFFFF" d="M19.2,18.3H1.4c-0.7,0-1.2-0.5-1.2-1.2v-14C0.2,2.5,0.8,2,1.4,2h17.8c0.7,0,1.2,0.5,1.2,1.2v14
			C20.4,17.8,19.9,18.3,19.2,18.3z"/>
		<g>
			<g>
				<path fill-rule="evenodd" clip-rule="evenodd" fill="#3A494F" d="M17.2,18.6c-0.2,0-0.4,0-0.6,0c-0.1,0,0,0-0.1,0
					c-0.2,0-0.7,0-0.8,0c-0.3,0-0.1,0-0.3,0s-0.2,0-0.5,0s-0.6,0.1-0.9,0.1s-0.1,0-0.3,0c-0.3,0-0.2,0-0.5,0s-0.6-0.1-0.8-0.1
					c-0.4,0-1.4,0.1-1.7,0.1c-0.6,0-0.4,0-0.9,0c0,0,0.1,0-0.2,0s-0.2,0-0.5,0s-0.2,0-0.5,0c-0.1,0-0.4,0-0.5,0.1
					c-0.4,0-0.8-0.1-1.1-0.1c-0.1,0-1.1,0-1.3,0.1c-0.3,0-0.1,0-0.3,0c-0.3,0-0.3,0-0.6,0c-0.6,0-0.1-0.1-0.5-0.1
					c-0.3,0-0.1,0-0.3,0c-0.2,0-0.5,0-0.7,0c-0.2,0-1.6,0-1.7,0.1c-0.1,0-0.4,0-0.6-0.1c-0.2-0.1-0.4-0.2-0.5-0.3
					C0.2,18,0,17.5,0,17.2C0,17,0,17,0.1,17v-1.9c0,0.1,0,0.2-0.1,0.2c0-0.2,0-0.2,0-0.4s0-0.3,0-0.6c0-0.1,0-0.9,0.1-1
					c0-0.3,0-0.3,0-0.6s0-0.2,0-0.5s0-0.5-0.1-0.6c0-0.2,0.1,0,0.1-0.3s0,0.1,0-0.2s0,0.1,0-0.2s0,0.1,0-0.2s0-0.1,0-0.3
					c0-0.2,0-0.5,0-0.7c0-0.3,0-0.5,0-0.6c0-0.1,0-0.1,0-0.2c0-0.2,0-0.2,0-0.4s0-0.3,0-0.6c0-0.2,0-0.7,0-0.9C0,6.7,0,6.2,0,6
					c0-0.3,0-0.3,0-0.4C0,5,0,4.4,0,3.8c0-0.1,0,0.1,0-0.2c0-0.2,0-0.4,0-0.7c0-0.3,0.2-0.7,0.5-0.9c0,0,0.4-0.3,0.4-0.2
					c0,0-0.3,0.1-0.4,0.3c0,0,0.2-0.2,0.4-0.3c0.2-0.1,0.5-0.1,0.5-0.1c0.3,0,0.1,0,0.4,0c0.2,0,0.5,0,0.7,0c0.3,0,0.2,0,0.5,0
					s0.1,0,0.3,0c0.2,0,0.5,0,0.7,0c0.2,0,1.1,0,1.3,0c0.2,0,0.7,0,0.9,0c0.2,0,0.4,0,0.5,0.1c0.3,0,0.4,0,0.4,0s-0.2,0-0.2,0
					c0.3,0,0.6,0.1,0.9,0.1c0.1,0,0.6,0,0.7-0.1h0.4c0,0,0.2,0.1,0.3,0.1c0.1,0,0.1,0,0.2-0.1c0.3,0,0.5,0.1,0.8,0.1
					c0.1,0,0.9,0,1-0.1c0.3,0,0.2,0,0.5,0s0.2,0,0.3,0c0.2,0,0,0.1,0.3,0.1s-0.1,0,0.2,0s0.3,0,0.6,0c0.5,0,0.6,0,0.7-0.1h0.4
					c0,0,0.2,0.1,0.4,0.1c0.3,0-0.1,0,0.2,0c0.3,0-0.1,0,0.2,0s0.4,0,0.6,0c0.2,0,0.4,0,0.6,0c0.2,0,1.6,0,1.7,0.1
					c1,0,0.7-0.1,1.2-0.1c0.3,0,0.3,0.1,0.4,0.1c0.1,0.1,0.3,0.1,0.7,0.5c0.2,0.3,0.3,0.7,0.3,1c0,0.3,0,0.8-0.1,1.1
					c0,0.1,0,0.2,0.1,0.2V5c0,0.3,0,0.2,0,0.5c0,0.1,0,0.1,0,0.1V6c0,0.3,0,0.2,0,0.3c0,0.3,0,0.5,0,0.8c0,0.1,0-0.1,0,0.2
					s0,0.8-0.1,1.1c0,0.1,0,0.2,0.1,0.2c0,0.2,0,0.5,0,0.8s0,0.6,0,0.9c0,0.1,0,0.2-0.1,0.2V11c0,0.1,0,0.1,0.1,0.1v0.6
					c0,0.3,0,0.1,0,0.4s0,0.3,0,0.4c0,0.8,0,0.3,0,1.1c0,0.5,0.1,1.1,0.1,1.3c0,0.3-0.1,0.5-0.1,0.8s0,0.1,0,0.3s0-0.1,0,0.2
					c0,0.1,0,0.3,0,0.6c0,0.2,0,0.6-0.1,0.8c0,0.1,0,0-0.2,0.3c-0.1,0.1-0.3,0.3-0.4,0.3c-0.1,0.1-0.4,0.1-0.4,0.1l0,0
					c0,0,0,0,0,0.1c-0.1,0-0.1-0.1-0.2-0.1c0,0,0,0,0-0.1c0-0.1-0.1-0.1-0.1-0.1c0,0,0,0,0,0c0,0,0.1,0,0.1-0.1c0,0,0,0,0,0
					c0.1,0,0.1-0.1,0.1-0.1c0,0,0,0,0,0c0,0,0.2,0,0.2-0.1c0.2-0.1,0.2-0.2,0.4-0.4c0.1-0.2,0-0.1,0.1-0.1c0-0.1,0.1-0.2,0.1-0.3
					c0-0.1,0-0.3,0-0.4c0-0.3,0-0.5,0-0.7c0-0.3,0-0.5,0-0.7s0-0.4,0-0.7s0-0.1,0-0.2c0-0.2,0-0.6,0-0.8c0-0.3,0-0.8,0-1.4
					c0,0,0,0.1,0,0.2c0,0,0-0.2,0-0.3c0-0.1,0-0.1,0-0.4c0-0.3,0-0.2,0-0.3c0-0.2,0-0.4,0-0.4s0,0.2,0,0.2v-0.7c0-0.1,0-0.3,0-0.6
					s0,0.1,0-0.2s0,0.1,0-0.2s0-0.2,0-0.5s0-0.3,0-0.6s0-0.8,0-1.1c0-0.1,0-0.4,0-0.5c0,0,0,0.2,0.1,0.2c0-0.5,0-1.4,0-1.6
					c0-0.3,0-0.6,0-0.8h0c0-0.3,0-0.1,0-0.2c0-0.1,0-0.2,0-0.2c0-0.2,0,0,0-0.3s0-0.1,0-0.1c0-0.2,0-0.2,0.1-0.2c0-0.3,0-0.6,0-0.8
					c-0.1-0.2-0.3-0.5-0.5-0.6c0,0,0.1,0-0.1-0.1c-0.2-0.1-1,0-1.3,0c-0.3,0-0.4-0.1-0.7-0.1c-0.3,0,0.1,0-0.2,0s-0.6,0-0.7-0.1
					c-0.1,0-0.1,0-0.2,0h-0.4c0,0-0.2,0-0.3,0c-0.1,0-0.3,0-0.4,0.1H15c0,0,0.2,0,0.2,0c-0.1,0,0.1,0-0.2,0s-0.5,0.1-0.8,0.1
					s-0.2,0-0.5,0s-0.2,0-0.5,0s-0.1,0-0.3,0c-0.3,0-0.2,0-0.3,0c-0.2,0-0.4,0-0.5,0c-0.2,0-0.5,0-0.8,0c-0.3,0-0.5,0-0.9,0
					c-0.1,0-0.2,0-0.4,0c0,0,0.1,0-0.2,0s-0.4,0-0.6,0c-0.1,0-0.2,0-0.5,0c-1,0-0.7,0.1-1.2,0.1c-0.4,0-0.4,0-0.9-0.1H6.4
					c-0.1,0-0.1,0-0.1,0c0,0,0.2,0,0.2,0H5.7c-0.3,0-0.3,0-0.6,0s-0.4,0-0.6,0c0,0,0.2,0,0.2,0c-0.1,0,0.1,0-0.2,0s-0.2,0-0.5,0
					c-0.3,0-0.2,0-0.5,0c-0.2,0-0.6,0-0.8,0c-0.2,0-0.5,0-0.7,0c-0.3,0,0.1,0-0.2,0s-0.1,0-0.3,0c-0.3,0-0.1,0-0.3,0.1
					C1,2.3,0.8,2.4,0.7,2.4C0.6,2.6,0.5,2.7,0.5,2.7c0,0,0.1-0.2,0.1-0.1C0.5,2.9,0.5,2.9,0.5,3.1c0,0.3,0,0.2,0,0.3
					c0,0.3-0.1,0.5-0.1,0.8c0,0.1,0,0.5,0,0.6c0,0.1,0,0.1-0.1,0.4h0.1v0.9c0,0,0,0.2,0,0.3c0,0.3,0.1,0.9,0.1,1.2s0,0.6-0.1,0.7
					c0,0.1,0,0.1,0.1,0.2c0,0.5,0,1.4,0,1.7c0,0.4,0,0.4,0,0.4v0.6c0,0.3,0,0.7,0,1c0,0.3,0,0.2,0,0.5c0,0.2,0,0.6,0,0.8
					c0,0.2,0,0.5,0,0.7c0,0.3,0-0.1,0,0.2s0,0.2,0,0.5c0,0.2,0,0.5,0,0.7c0,0.3,0,0.2,0,0.5s0-0.1,0,0.2c0,0.3,0,0.2,0,0.5
					c0,0.3,0,0.6,0,0.6c0,0.1,0,0.1,0.1,0.1c0,0.1,0,0,0.1,0.3c0.1,0.2,0,0,0.1,0.1c0.2,0.2-0.1,0,0.1,0.1C1,18.1,0.9,18,1,18
					c0.1,0,0.3,0.1,0.4,0.1c0.2,0,0.4,0,0.6,0c0.1,0,0.2,0,0.2,0c0.2,0,0.4,0,0.7,0c0.2,0,0.4,0,0.5-0.1H4c0.1,0,0.2,0,0.5,0
					s0.1,0,0.3,0c0.2,0,0.5,0,0.7,0c0.3,0,0.3,0,0.5,0c0.1,0,0.1,0,0.1,0c0.1,0,0.2,0,0.8,0c0,0-0.1,0-0.2,0c0,0,0.2,0,0.3,0
					c0.2,0,0.4,0,0.7,0c0.2,0,0.5,0,0.7,0c0.3,0-0.1,0,0.2,0c0.3,0,0.1,0,0.2,0c0.2,0,0.3,0,0.6,0c0.3,0,0.6,0,0.8,0v0
					c0.3,0,0.1,0,0.4,0s0.2,0,0.5,0s0.2,0,0.5,0s0.1,0,0.3,0s0.2,0,0.5,0s0.5,0,0.6-0.1c0.3,0,0.7,0.1,1,0.1s0.2,0,0.5,0
					s0.1,0,0.3,0c0.3,0,0.2,0,0.2,0c0.2,0,0.2,0,0.2,0h2c0.3,0-0.1,0,0.2,0c0.3,0,0.1,0,0.3,0s0.2,0,0.5,0s0.2,0,0.5,0
					c0.1,0,0,0,0,0c0,0,0,0,0.1,0.1c0,0,0.1,0,0.1,0.1c0,0,0,0,0-0.1h0c0,0,0,0,0.1,0c0,0,0,0,0,0.1c0,0,0,0,0,0.1
					c0,0,0,0.1,0.1,0.1c0,0-0.1,0.1-0.1,0.1c0,0,0,0,0,0v0.1h0c0,0,0,0,0,0c0,0,0,0,0,0c0,0,0,0,0,0c0,0,0,0-0.1,0l0,0
					c-0.1,0-0.2,0-0.3,0c-0.5,0-0.9,0-1,0c-0.2,0-0.4,0-0.8,0C16.9,18.6,17.1,18.6,17.2,18.6z"/>
			</g>
		</g>
	</g>
	<g>
		<path fill="#3A494F" d="M18.1,17.2H2.7c-0.6,0-1-0.5-1-1v-12c0-0.6,0.5-1,1-1h15.4c0.6,0,1,0.5,1,1v12
			C19.1,16.7,18.6,17.2,18.1,17.2z"/>
		<g>
			<g>
				<path fill-rule="evenodd" clip-rule="evenodd" fill="#3A494F" d="M16.2,17.5c-0.2,0-0.4,0-0.5,0c-0.1,0,0,0-0.1,0
					c-0.2,0-0.6,0-0.7,0c-0.2,0,0,0-0.3,0c-0.2,0-0.1,0-0.4,0c-0.2,0-0.5,0.1-0.8,0.1c-0.2,0,0,0-0.3,0s-0.1,0-0.4,0
					c-0.2,0-0.5-0.1-0.7-0.1c-0.4,0-1.2,0.1-1.4,0.1c-0.5,0-0.3,0-0.8-0.1c0,0,0.1,0-0.1,0c-0.2,0-0.1,0-0.4,0s-0.1,0-0.4,0
					c-0.1,0-0.3,0-0.4,0.1c-0.3,0-0.7-0.1-1-0.1c-0.1,0-1,0.1-1.1,0.1c-0.2,0,0,0-0.3,0c-0.2,0-0.2,0-0.5,0c-0.5,0,0-0.1-0.4-0.1
					c-0.2,0,0,0-0.3,0c-0.1,0-0.5,0-0.6,0c-0.1,0-1.4,0.1-1.5,0.1c-0.3,0-0.8-0.2-1-0.4c-0.2-0.2-0.4-0.7-0.4-0.9
					c0-0.1,0-0.2,0.1-0.1v-1.6c0,0.1,0,0.2-0.1,0.2c0-0.1,0-0.1,0-0.4s0-0.2,0-0.5c0-0.2,0.1-0.6,0.1-0.9c0-0.2,0-0.2,0-0.5
					s0-0.1,0-0.4c0-0.2,0-0.4-0.1-0.5c0-0.1,0.1,0,0.1-0.3s0,0,0-0.2c0-0.2,0,0,0-0.2c0-0.2,0,0,0-0.2c0-0.2,0,0,0-0.3
					c0-0.1,0-0.5,0-0.6c0-0.2,0-0.4,0-0.5C1.5,9,1.5,9,1.4,9c0-0.1,0-0.1,0-0.4c0-0.2,0-0.2,0-0.5c0-0.1,0-0.7,0-0.8
					c0-0.1,0-0.7,0-0.8c0-0.2,0-0.3,0-0.4c0-0.5,0-1,0-1.5c0-0.1,0,0.1,0-0.2c0-0.1,0-0.3,0-0.6c0-0.3,0.2-0.6,0.4-0.8
					c0,0,0.4-0.2,0.4-0.2c0,0-0.2,0.1-0.4,0.3c0,0,0.2-0.2,0.4-0.2c0.2-0.1,0.4-0.1,0.4-0.1c0.3,0,0.1,0,0.4,0c0.1,0,0.5,0,0.6,0
					c0.2,0,0.1,0,0.4,0c0.2,0,0,0,0.3,0c0.1,0,0.5,0,0.6,0c0.2,0,0.9,0,1.1,0c0.2,0,0.6,0,0.7,0c0.1,0,0.4,0,0.4,0.1
					c0.3,0,0.3,0,0.3,0c0,0-0.2,0-0.2,0c0.3,0,0.5,0.1,0.8,0.1c0.1,0,0.5,0,0.6-0.1h0.4c0,0,0.2,0.1,0.3,0.1c0.1,0,0.1,0,0.2-0.1
					c0.3,0,0.4,0.1,0.7,0.1c0.2,0,0.6-0.1,0.9-0.1c0.2,0,0.1,0,0.4,0c0.2,0,0.2,0,0.2,0c0.2,0,0,0.1,0.3,0.1c0.2,0,0,0,0.2,0
					c0.2,0,0.2,0,0.5,0c0.4,0,0.5,0,0.6-0.1h0.4c0,0,0.2,0.1,0.3,0.1c0.2,0,0,0,0.2,0c0.2,0,0,0,0.2,0c0.2,0,0.4,0,0.5-0.1
					c0.1,0,0.3,0,0.6,0c0.1,0,1.4,0.1,1.5,0.1c0.9,0,0.6-0.1,1-0.1c0.2,0,0.3,0,0.4,0.1c0.1,0.1,0.3,0.1,0.6,0.5
					c0.2,0.2,0.3,0.6,0.3,0.9c0,0.2,0,0.7-0.1,1c0,0.1,0,0.1,0.1,0.1v0.3c0,0.2,0,0.2,0,0.4c0,0.1,0,0-0.1,0.1v0.3
					c0,0.2,0,0.2,0.1,0.3c0,0.2,0,0.4,0,0.7c0,0.1,0-0.1,0,0.2s0,0.7-0.1,1c0,0.1,0,0.1,0.1,0.2c0,0.2,0,0.4,0,0.7
					c0,0.2,0,0.5,0,0.7c0,0.1,0,0.2-0.1,0.1v0.5c0,0.1,0,0.1,0.1,0.1v0.5c0,0.2,0,0.1,0,0.4c0,0.2,0,0.3,0,0.3c0,0.7-0.1,0.3-0.1,1
					c0,0.4,0.1,1,0.1,1.1c0,0.2-0.1,0.4-0.1,0.7c0,0.2,0,0,0,0.3c0,0.2,0,0,0,0.2c0,0.1,0,0.3,0,0.5c0,0.2,0,0.5-0.1,0.7
					c0,0.1,0,0-0.1,0.3c-0.1,0.1-0.2,0.2-0.4,0.3c-0.1,0.1-0.4,0.1-0.3,0.1l0,0c0,0,0,0,0,0.1c-0.1,0-0.1-0.1-0.2-0.1c0,0,0,0,0-0.1
					c0-0.1-0.1-0.1-0.1-0.1c0,0,0,0,0,0c0,0,0.1,0,0.1-0.1c0,0,0,0,0-0.1c0.1,0,0.1-0.1,0.1-0.1c0,0,0,0,0,0c0,0,0.1,0,0.2-0.1
					c0.1-0.1,0.2-0.2,0.3-0.3c0.1-0.2,0,0,0.1-0.1c0-0.1,0-0.4,0-0.6c0-0.3,0-0.5,0-0.6c0-0.2,0-0.5,0-0.6c0-0.2-0.1-0.3-0.1-0.6
					c0-0.2,0-0.1,0-0.2c0-0.2,0-0.5,0-0.7c0-0.2,0-0.7,0-1.2c0,0,0,0.1,0,0.2c0,0,0-0.2,0-0.3c0-0.1,0-0.1,0-0.3c0-0.2,0-0.2,0-0.3
					c0-0.2,0-0.3,0-0.3s0,0.2,0,0.2v-0.6c0-0.1,0.1-0.3,0.1-0.5c0-0.2,0,0,0-0.2c0-0.2,0,0,0-0.2c0-0.2,0-0.1,0-0.4
					c0-0.2,0-0.2,0-0.5c0-0.2,0-0.7,0-0.9c0-0.2,0-0.3-0.1-0.4c0,0,0,0.2,0.1,0.2c0-0.4,0-1.2,0-1.4c0-0.2,0-0.5,0-0.7h0
					c0-0.3,0-0.1,0-0.2c0-0.1,0-0.1-0.1-0.1c0-0.1,0,0,0-0.3c0-0.2,0-0.1,0-0.1c0-0.1,0-0.2,0.1-0.2c0-0.2,0-0.5,0-0.7
					c-0.1-0.2-0.2-0.4-0.4-0.5c0,0,0.1,0-0.1-0.1c-0.1-0.1-0.9,0-1.1,0c-0.2,0-0.3-0.1-0.6-0.1c-0.2,0,0,0-0.2,0
					c-0.2,0-0.5,0-0.6-0.1c-0.1,0-0.1,0-0.1,0.1h-0.4c0,0-0.2,0-0.3-0.1c-0.1,0-0.3,0-0.4,0.1h-0.4c0,0,0.2,0,0.2,0
					c-0.1,0,0,0-0.2,0s-0.4,0.1-0.7,0.1c-0.2,0-0.1,0-0.4,0c-0.2,0-0.1,0-0.4,0c-0.2,0,0,0-0.3,0c-0.2,0-0.2,0-0.2,0
					c-0.1,0-0.3,0-0.4-0.1c-0.2,0-0.5,0-0.7,0c-0.2,0-0.4,0-0.7,0c-0.1,0-0.2,0-0.3,0c0,0,0.1,0-0.1,0c-0.2,0-0.3,0-0.5-0.1
					c-0.1,0-0.2,0-0.4,0c-0.8,0-0.6,0.1-1,0.1c-0.3,0-0.4,0-0.8-0.1H7C7,3.2,7,3.2,7,3.3s0.2,0,0.2,0.1H6.4c-0.2,0-0.3,0-0.5,0
					s-0.4,0-0.5,0c0,0,0.2,0,0.2,0c-0.1,0,0,0-0.2,0c-0.2,0-0.1,0-0.4,0c-0.2,0-0.1,0-0.4,0c-0.1,0-0.6,0-0.7,0c-0.1,0-0.5,0-0.6,0
					c-0.2,0,0,0-0.2,0c-0.2,0,0,0-0.3,0c-0.2,0,0,0-0.2,0c-0.2,0-0.4,0.1-0.4,0.2C2,3.6,2,3.7,2,3.7c0,0,0.1-0.1,0.1-0.1
					C2,3.8,2,3.8,1.9,4c0,0.2,0,0.2,0,0.2c0,0.3-0.1,0.4-0.1,0.7c0,0.2,0,0.3,0,0.5c0,0.1,0,0.1-0.1,0.4H2v0.8c0,0,0,0.2-0.1,0.3
					c0,0.3,0.1,0.8,0.1,1c0,0.2,0,0.5-0.1,0.6c0,0.1,0,0.1,0.1,0.1c0,0.4-0.1,1.2-0.1,1.5c0,0.3,0,0.3,0.1,0.3v0.5
					c0,0.2-0.1,0.6-0.1,0.9c0,0.2,0,0.1,0,0.4c0,0.1,0,0.6,0,0.7c0,0.1,0,0.5,0,0.6c0,0.2,0,0,0,0.2c0,0.2,0,0.1,0,0.4
					c0,0.1,0,0.5,0,0.6c0,0.2,0,0.1,0,0.4c0,0.2,0,0,0,0.2c0,0.2,0,0.1,0,0.4c0,0.2,0,0.5-0.1,0.6c0,0.1,0,0.1,0.1,0.1
					c0,0.1,0,0,0.1,0.2c0.1,0.2,0,0,0.1,0.1c0.1,0.1-0.1,0,0.1,0.1c0.2,0.1,0.1,0,0.1,0.1c0.1,0,0.2,0.1,0.4,0.1c0.2,0,0.4,0,0.5,0
					c0.1,0,0.2,0,0.2,0c0.1,0,0.3,0,0.6,0c0.1,0,0.3,0,0.4-0.1h0.6c0.1,0,0.2,0.1,0.4,0.1c0.2,0,0,0,0.3,0c0.1,0,0.5,0,0.6,0
					c0.2,0,0.3,0,0.4,0c0.1,0,0.1,0,0.1,0c0.1,0,0.2,0,0.7,0c0,0-0.1,0-0.2,0c0,0,0.2,0,0.3,0c0.2,0,0.4,0,0.6,0c0.1,0,0.5,0,0.6,0
					c0.2,0,0,0,0.2,0c0.2,0,0.1,0,0.2,0c0.2,0,0.3,0,0.5,0c0.2,0,0.5,0,0.7,0v0c0.3,0,0.1,0,0.3,0c0.2,0,0.1,0,0.4,0
					c0.2,0,0.1,0,0.4,0c0.2,0,0,0,0.3,0c0.2,0,0.1,0,0.4,0c0.2,0,0.4,0,0.5-0.1c0.2,0,0.6,0.1,0.9,0.1c0.2,0,0.1,0,0.4,0
					c0.2,0,0,0,0.3,0s0.2,0,0.2,0c0.1,0,0.2,0,0.2,0.1h1.7c0.2,0,0,0,0.2,0c0.2,0,0,0,0.3,0s0.1,0,0.4,0c0.2,0,0.1,0,0.4,0
					c0.1,0,0,0,0,0c0,0,0.1,0,0.1,0.1c0,0,0.1,0,0.1,0.1c0,0,0,0,0-0.1h0c0,0,0,0,0.1,0c0,0,0,0,0,0.1s0,0,0,0.1s0,0.1,0.1,0.1
					c0,0-0.1,0.1-0.1,0.1c0,0,0,0-0.1,0v0.1h0c0,0,0,0,0,0c0,0,0,0,0,0.1c0,0,0,0,0,0c0,0,0,0-0.1,0l0,0l-0.3,0c-0.4,0-0.7,0-0.9,0
					c-0.2,0-0.5,0-0.7,0C16,17.4,16.1,17.5,16.2,17.5z"/>
			</g>
		</g>
	</g>
	<g>
		<path fill="#FFB048" d="M18.1,14.4H2.7c-0.6,0-1-0.5-1-1v-12c0-0.6,0.5-1,1-1h15.4c0.6,0,1,0.5,1,1v12
			C19.1,13.9,18.6,14.4,18.1,14.4z"/>
		<g>
			<g>
				<path fill-rule="evenodd" clip-rule="evenodd" fill="#3A494F" d="M16.2,14.7c-0.2,0-0.4,0-0.5,0c-0.1,0,0,0-0.1,0
					c-0.2,0-0.6,0-0.7,0c-0.2,0,0,0-0.3,0c-0.2,0-0.1,0-0.4,0c-0.2,0-0.5,0.1-0.8,0.1c-0.2,0,0,0-0.3,0s-0.1,0-0.4,0
					c-0.2,0-0.5-0.1-0.7-0.1c-0.4,0-1.2,0.1-1.4,0.1c-0.5,0-0.3,0-0.8-0.1c0,0,0.1,0-0.1,0c-0.2,0-0.1,0-0.4,0s-0.1,0-0.4,0
					c-0.1,0-0.3,0-0.4,0.1c-0.3,0-0.7-0.1-1-0.1c-0.1,0-1,0.1-1.1,0.1c-0.2,0,0,0-0.3,0c-0.2,0-0.2,0-0.5,0c-0.5,0,0-0.1-0.4-0.1
					c-0.2,0,0,0-0.3,0c-0.1,0-0.5,0-0.6,0c-0.1,0-1.4,0.1-1.5,0.1c-0.3,0-0.8-0.2-1-0.4c-0.2-0.2-0.4-0.7-0.4-0.9
					c0-0.1,0-0.2,0.1-0.1v-1.6c0,0.1,0,0.2-0.1,0.2c0-0.1,0-0.1,0-0.4c0-0.2,0-0.2,0-0.5c0-0.2,0.1-0.6,0.1-0.9c0-0.2,0-0.2,0-0.5
					c0-0.2,0-0.1,0-0.4c0-0.2,0-0.4-0.1-0.5c0-0.1,0.1,0,0.1-0.3c0-0.2,0,0,0-0.2c0-0.2,0,0,0-0.2c0-0.2,0,0,0-0.2c0-0.2,0,0,0-0.3
					c0-0.1,0-0.5,0-0.6c0-0.2,0-0.4,0-0.5c0-0.1,0-0.1-0.1-0.1c0-0.1,0-0.1,0-0.4c0-0.2,0-0.2,0-0.5c0-0.1,0-0.7,0-0.8
					c0-0.1,0-0.7,0-0.8c0-0.2,0-0.3,0-0.4c0-0.5,0-1,0-1.5c0-0.1,0,0.1,0-0.2c0-0.1,0-0.3,0-0.6c0-0.3,0.2-0.6,0.4-0.8
					c0,0,0.4-0.2,0.4-0.2c0,0-0.2,0.1-0.4,0.3c0,0,0.2-0.2,0.4-0.2c0.2-0.1,0.4-0.1,0.4-0.1c0.3,0,0.1,0,0.4,0c0.1,0,0.5,0,0.6,0
					c0.2,0,0.1,0,0.4,0c0.2,0,0,0,0.3,0C4.5,0,4.9,0,5,0c0.2,0,0.9,0,1.1,0c0.2,0,0.6,0,0.7,0c0.1,0,0.4,0,0.4,0.1
					c0.3,0,0.3,0,0.3,0S7.4,0,7.4,0c0.3,0,0.5,0.1,0.8,0.1c0.1,0,0.5,0,0.6-0.1h0.4c0,0,0.2,0.1,0.3,0.1c0.1,0,0.1,0,0.2-0.1
					c0.3,0,0.4,0.1,0.7,0.1c0.2,0,0.6-0.1,0.9-0.1c0.2,0,0.1,0,0.4,0c0.2,0,0.2,0,0.2,0c0.2,0,0,0.1,0.3,0.1c0.2,0,0,0,0.2,0
					c0.2,0,0.2,0,0.5,0c0.4,0,0.5,0,0.6-0.1h0.4c0,0,0.2,0.1,0.3,0.1c0.2,0,0,0,0.2,0c0.2,0,0,0,0.2,0c0.2,0,0.4,0,0.5-0.1
					c0.1,0,0.3,0,0.6,0c0.1,0,1.4,0.1,1.5,0.1c0.9,0,0.6-0.1,1-0.1c0.2,0,0.3,0,0.4,0.1c0.1,0.1,0.3,0.1,0.6,0.5
					c0.2,0.2,0.3,0.6,0.3,0.9c0,0.2,0,0.7-0.1,1c0,0.1,0,0.1,0.1,0.1v0.3c0,0.2,0,0.2,0,0.4c0,0.1,0,0-0.1,0.1v0.3
					c0,0.2,0,0.2,0.1,0.3c0,0.2,0,0.4,0,0.7c0,0.1,0-0.1,0,0.2c0,0.2,0,0.7-0.1,1c0,0.1,0,0.1,0.1,0.2c0,0.2,0,0.4,0,0.7
					c0,0.2,0,0.5,0,0.7c0,0.1,0,0.2-0.1,0.1v0.5c0,0.1,0,0.1,0.1,0.1v0.5c0,0.2,0,0.1,0,0.4c0,0.2,0,0.3,0,0.3c0,0.7-0.1,0.3-0.1,1
					c0,0.4,0.1,1,0.1,1.1c0,0.2-0.1,0.4-0.1,0.7c0,0.2,0,0,0,0.3c0,0.2,0,0,0,0.2c0,0.1,0,0.3,0,0.5c0,0.2,0,0.5-0.1,0.7
					c0,0.1,0,0-0.1,0.3c-0.1,0.1-0.2,0.2-0.4,0.3c-0.1,0.1-0.4,0.1-0.3,0.1l0,0c0,0,0,0,0,0.1c-0.1,0-0.1-0.1-0.2-0.1c0,0,0,0,0-0.1
					c0-0.1-0.1-0.1-0.1-0.1c0,0,0,0,0,0c0,0,0.1,0,0.1-0.1c0,0,0,0,0-0.1c0.1,0,0.1-0.1,0.1-0.1c0,0,0,0,0,0c0,0,0.1,0,0.2-0.1
					c0.1-0.1,0.2-0.2,0.3-0.3c0.1-0.2,0,0,0.1-0.1c0-0.1,0-0.4,0-0.6c0-0.3,0-0.5,0-0.6c0-0.2,0-0.5,0-0.6c0-0.2-0.1-0.3-0.1-0.6
					s0-0.1,0-0.2c0-0.2,0-0.5,0-0.7c0-0.2,0-0.7,0-1.2c0,0,0,0.1,0,0.2c0,0,0-0.2,0-0.3c0-0.1,0-0.1,0-0.3c0-0.2,0-0.2,0-0.3
					c0-0.2,0-0.3,0-0.3s0,0.2,0,0.2V7.7c0-0.1,0.1-0.3,0.1-0.5c0-0.2,0,0,0-0.2c0-0.2,0,0,0-0.2c0-0.2,0-0.1,0-0.4
					c0-0.2,0-0.2,0-0.5c0-0.2,0-0.7,0-0.9c0-0.2,0-0.3-0.1-0.4c0,0,0,0.2,0.1,0.2c0-0.4,0-1.2,0-1.4c0-0.2,0-0.5,0-0.7h0
					c0-0.3,0-0.1,0-0.2c0-0.1,0-0.1-0.1-0.1c0-0.1,0,0,0-0.3c0-0.2,0-0.1,0-0.1c0-0.1,0-0.2,0.1-0.2c0-0.2,0-0.5,0-0.7
					c-0.1-0.2-0.2-0.4-0.4-0.5c0,0,0.1,0-0.1-0.1c-0.1-0.1-0.9,0-1.1,0c-0.2,0-0.3-0.1-0.6-0.1c-0.2,0,0,0-0.2,0
					c-0.2,0-0.5,0-0.6-0.1c-0.1,0-0.1,0-0.1,0.1h-0.4c0,0-0.2,0-0.3-0.1c-0.1,0-0.3,0-0.4,0.1h-0.4c0,0,0.2,0,0.2,0
					c-0.1,0,0,0-0.2,0s-0.4,0.1-0.7,0.1c-0.2,0-0.1,0-0.4,0c-0.2,0-0.1,0-0.4,0c-0.2,0,0,0-0.3,0c-0.2,0-0.2,0-0.2,0
					c-0.1,0-0.3,0-0.4-0.1c-0.2,0-0.5,0-0.7,0c-0.2,0-0.4,0-0.7,0c-0.1,0-0.2,0-0.3,0c0,0,0.1,0-0.1,0c-0.2,0-0.3,0-0.5-0.1
					c-0.1,0-0.2,0-0.4,0c-0.8,0-0.6,0.1-1,0.1c-0.3,0-0.4,0-0.8-0.1H7C7,0.5,7,0.5,7,0.5s0.2,0,0.2,0.1H6.4c-0.2,0-0.3,0-0.5,0
					s-0.4,0-0.5,0c0,0,0.2,0,0.2,0c-0.1,0,0,0-0.2,0c-0.2,0-0.1,0-0.4,0c-0.2,0-0.1,0-0.4,0c-0.1,0-0.6,0-0.7,0c-0.1,0-0.5,0-0.6,0
					c-0.2,0,0,0-0.2,0c-0.2,0,0,0-0.3,0c-0.2,0,0,0-0.2,0c-0.2,0-0.4,0.1-0.4,0.2C2,0.8,2,0.9,2,1c0,0,0.1-0.1,0.1-0.1
					C2,1.1,2,1.1,1.9,1.2c0,0.2,0,0.2,0,0.2c0,0.3-0.1,0.4-0.1,0.7c0,0.2,0,0.3,0,0.5c0,0.1,0,0.1-0.1,0.4H2v0.8c0,0,0,0.2-0.1,0.3
					c0,0.3,0.1,0.8,0.1,1c0,0.2,0,0.5-0.1,0.6c0,0.1,0,0.1,0.1,0.1c0,0.4-0.1,1.2-0.1,1.5c0,0.3,0,0.3,0.1,0.3v0.5
					C2,8.4,1.9,8.8,1.9,9c0,0.2,0,0.1,0,0.4c0,0.1,0,0.6,0,0.7c0,0.1,0,0.5,0,0.6c0,0.2,0,0,0,0.2c0,0.2,0,0.1,0,0.4
					c0,0.1,0,0.5,0,0.6c0,0.2,0,0.1,0,0.4s0,0,0,0.2c0,0.2,0,0.1,0,0.4c0,0.2,0,0.5-0.1,0.6c0,0.1,0,0.1,0.1,0.1c0,0.1,0,0,0.1,0.2
					c0.1,0.2,0,0,0.1,0.1c0.1,0.1-0.1,0,0.1,0.1c0.2,0.1,0.1,0,0.1,0.1c0.1,0,0.2,0.1,0.4,0.1c0.2,0,0.4,0,0.5,0c0.1,0,0.2,0,0.2,0
					c0.1,0,0.3,0,0.6,0c0.1,0,0.3,0,0.4-0.1h0.6c0.1,0,0.2,0.1,0.4,0.1c0.2,0,0,0,0.3,0c0.1,0,0.5,0,0.6,0c0.2,0,0.3,0,0.4,0
					c0.1,0,0.1,0,0.1,0c0.1,0,0.2,0,0.7,0c0,0-0.1,0-0.2,0c0,0,0.2,0,0.3,0c0.2,0,0.4,0,0.6,0c0.1,0,0.5,0,0.6,0c0.2,0,0,0,0.2,0
					c0.2,0,0.1,0,0.2,0c0.2,0,0.3,0,0.5,0c0.2,0,0.5,0,0.7,0v0c0.3,0,0.1,0,0.3,0c0.2,0,0.1,0,0.4,0c0.2,0,0.1,0,0.4,0
					c0.2,0,0,0,0.3,0c0.2,0,0.1,0,0.4,0c0.2,0,0.4,0,0.5-0.1c0.2,0,0.6,0.1,0.9,0.1c0.2,0,0.1,0,0.4,0c0.2,0,0,0,0.3,0s0.2,0,0.2,0
					c0.1,0,0.2,0,0.2,0.1h1.7c0.2,0,0,0,0.2,0c0.2,0,0,0,0.3,0s0.1,0,0.4,0c0.2,0,0.1,0,0.4,0c0.1,0,0,0,0,0c0,0,0.1,0,0.1,0.1
					c0,0,0.1,0,0.1,0.1c0,0,0,0,0-0.1h0c0,0,0,0,0.1,0c0,0,0,0,0,0.1s0,0,0,0.1s0,0.1,0.1,0.1c0,0-0.1,0.1-0.1,0.1c0,0,0,0-0.1,0
					v0.1h0c0,0,0,0,0,0c0,0,0,0,0,0.1c0,0,0,0,0,0c0,0,0,0-0.1,0l0,0l-0.3,0c-0.4,0-0.7,0-0.9,0c-0.2,0-0.5,0-0.7,0
					C16,14.7,16.1,14.7,16.2,14.7z"/>
			</g>
		</g>
	</g>
	<g>
		<g>
			<g>
				<path fill-rule="evenodd" clip-rule="evenodd" fill="#3A494F" d="M15.3,13.4c-0.1,0-0.3,0-0.4,0c0,0,0,0-0.1,0
					c-0.1,0-0.5,0-0.6,0c-0.2,0,0,0-0.3,0c-0.1,0-0.3,0-0.3,0c-0.1,0-0.6,0-0.7,0c-0.2,0,0,0-0.3,0c-0.1,0-0.3,0-0.3,0
					c-0.2,0-0.4,0-0.6,0c-0.5,0-1.1,0-1.2,0c-0.4,0-0.3,0-0.6,0c0,0,0.1,0-0.1,0c-0.1,0-0.3,0-0.3,0c-0.1,0-0.3,0-0.3,0
					c-0.1,0-0.3,0-0.4,0c-0.3,0-0.6,0-0.8,0c-0.1,0-0.8,0-0.9,0c-0.2,0,0,0-0.3,0c-0.1,0-0.3,0-0.4,0c-0.4,0,0,0-0.3,0
					c-0.2,0,0,0-0.3,0c-0.1,0-0.4,0-0.5,0c-0.1,0-1.1,0-1.3,0c-0.2,0-0.6-0.1-0.8-0.3C3.1,12.9,3,12.6,3,12.4c0-0.1,0-0.1,0-0.1
					v-1.4c0,0.1,0,0.2,0,0.2c0,0,0-0.3,0-0.3c0-0.1,0-0.3,0-0.4c0-0.1,0-0.7,0-0.8c0-0.1,0-0.3,0-0.4c0-0.1,0-0.3,0-0.3
					c0-0.2,0-0.3,0-0.5c0-0.1,0,0,0-0.2C3,8,3,8.2,3,8c0-0.2,0,0,0-0.2c0-0.2,0,0,0-0.2s0,0,0-0.3C3,7.3,3,7,3,6.9
					c0-0.2,0-0.3,0-0.4c0-0.1,0-0.1,0-0.1c0,0,0-0.3,0-0.3C3,6,3,5.7,3,5.7C3,5.5,3,5.1,3,5c0-0.1,0-0.6,0-0.7C3,4.1,3,4.1,3,4
					c0-0.4,0-0.8,0-1.2c0,0,0,0.1,0-0.1c0-0.1,0-0.3,0-0.5c0-0.2,0.2-0.5,0.3-0.6c0,0,0.3-0.2,0.3-0.2c0,0-0.2,0.1-0.3,0.2
					c0,0,0.1-0.1,0.3-0.2c0.2-0.1,0.3-0.1,0.3-0.1c0.2,0,0.1,0,0.3,0c0.1,0,0.4,0,0.5,0c0.1,0,0.3,0,0.3,0c0.2,0,0,0,0.3,0
					c0.1,0,0.4,0,0.5,0c0.1,0,0.8,0,0.9,0c0.2,0,0.5,0,0.6,0c0.1,0,0.3,0,0.4,0c0.2,0,0.3,0,0.3,0s-0.2,0-0.1,0c0.2,0,0.4,0,0.6,0
					c0.1,0,0.5,0,0.5,0h0.3c0,0,0.2,0,0.2,0c0.1,0,0.1,0,0.1,0c0.2,0,0.4,0,0.6,0c0.1,0,0.7,0,0.8,0c0.1,0,0.3,0,0.3,0
					c0.2,0,0.2,0,0.2,0c0.1,0,0,0,0.2,0c0.2,0,0,0,0.2,0c0.1,0,0.3,0,0.4,0c0.4,0,0.4,0,0.5,0h0.3c0,0,0.1,0,0.3,0c0.2,0,0,0,0.2,0
					c0.2,0,0,0,0.2,0s0.3,0,0.5,0c0.4,0,0.3,0,0.5,0c0.1,0,1.1,0,1.3,0c0.7,0,0.5,0,0.8,0c0.2,0,0.2,0.1,0.3,0.1
					c0.1,0,0.2,0.1,0.4,0.4c0.1,0.2,0.2,0.5,0.1,0.7c0,0.1,0,0.4,0,0.8c0,0.1,0,0.1,0,0.1v0.3c0,0.2,0,0.2,0,0.3c0,0,0,0,0,0.1v0.2
					c0,0.2,0,0.1,0,0.3c0,0.2,0,0.4,0,0.6c0,0.1,0-0.1,0,0.1c0,0.1,0,0.4,0,0.8c0,0.1,0,0.1,0,0.1c0,0.3,0,0.5,0,0.6
					c0,0.1,0,0.3,0,0.6c0,0.1,0,0.1,0,0.1V8c0,0.1,0,0.1,0,0.1v0.4c0,0.2,0,0.1,0,0.3c0,0.2,0,0.3,0,0.3c0,0.6,0,0.2,0,0.8
					c0,0.1,0,0.9,0,0.9c0,0.1,0,0.5,0,0.6c0,0.2,0,0,0,0.3c0,0.2,0,0,0,0.2c0,0.2,0.1,0.7-0.1,1c0,0.1,0,0-0.1,0.2
					c-0.1,0.1-0.2,0.2-0.3,0.2c-0.1,0-0.3,0.1-0.2,0.1l0,0c0,0,0,0,0,0c0,0,0,0-0.1,0c0,0,0,0,0,0c0,0-0.1,0-0.1-0.1c0,0,0,0,0,0
					c0,0,0.1,0,0.1,0c0,0,0,0,0,0c0,0,0,0,0.1,0c0,0,0,0,0,0c0,0,0.1,0,0.2-0.1c0.2-0.1,0.2-0.1,0.3-0.3c0.1-0.2,0,0,0.1-0.1
					c0.1-0.2,0-0.8,0.1-1c0-0.2,0-0.4,0-0.5c0-0.1,0-0.3,0-0.5c0-0.2,0-0.1,0-0.1c0-0.2,0-0.4,0-0.6c0-0.1,0-0.3,0-1
					c0,0,0,0.1,0,0.2c0-0.1,0-0.1,0-0.2c0-0.1,0-0.1,0-0.3c0-0.2,0-0.2,0-0.2c0-0.1,0-0.3,0-0.3c0,0,0,0.2,0,0.2V7.8
					c0-0.1,0-0.2,0-0.4c0-0.2,0,0,0-0.2c0-0.2,0,0,0-0.2c0-0.1,0-0.3,0-0.3c0-0.1,0-0.3,0-0.4c0-0.1,0-0.4,0-0.8c0-0.1,0-0.3,0-0.4
					c0,0,0,0.1,0,0.2c0-0.3,0-1,0-1.2c0-0.2,0-0.4,0-0.6h0c0-0.2,0-0.1,0-0.2c0-0.1,0-0.1,0-0.1c0-0.1,0,0,0-0.2c0-0.2,0-0.1,0-0.1
					c0-0.1,0-0.2,0-0.1c0-0.2,0-0.4,0-0.6c0-0.2-0.2-0.4-0.3-0.5c0,0,0.1,0-0.1-0.1c-0.1-0.1-0.7,0-0.9-0.1c0,0-0.5,0-0.5,0
					c-0.2,0,0,0-0.2,0c-0.2,0-0.4,0-0.5,0c-0.1,0-0.1,0-0.1,0h-0.3c0,0-0.2,0-0.2,0c-0.1,0-0.2,0-0.3,0h-0.3c0,0,0.2,0,0.2,0
					c-0.1,0,0,0-0.2,0c-0.1,0-0.5,0-0.6,0c-0.1,0-0.3,0-0.3,0c-0.1,0-0.3,0-0.3,0c-0.2,0,0,0-0.3,0c-0.2,0-0.2,0-0.2,0
					c-0.1,0-0.3,0-0.4,0c-0.4,0-0.5,0-0.6,0c-0.2,0-0.3,0-0.6,0c-0.1,0-0.1,0-0.3,0c0,0,0.1,0-0.1,0c-0.2,0-0.3,0-0.4,0
					c-0.2,0-0.2,0-0.3,0c-0.7,0-0.5,0-0.8,0c-0.3,0-0.3,0-0.6,0H7.5c-0.1,0-0.1,0-0.1,0c0,0,0.2,0,0.2,0H7c-0.1,0-0.4,0-0.4,0
					c-0.2,0-0.3,0-0.4,0c0,0,0.1,0,0.1,0c-0.1,0,0,0-0.2,0c-0.1,0-0.3,0-0.3,0c-0.1,0-0.3,0-0.3,0c-0.1,0-0.5,0-0.6,0
					c-0.1,0-0.4,0-0.5,0c-0.2,0,0,0-0.2,0c-0.2,0,0,0-0.3,0c-0.2,0,0,0-0.2,0c-0.2,0-0.3,0.2-0.4,0.2C3.3,1.8,3.3,1.9,3.3,2
					c0,0,0.1-0.1,0.1-0.1C3.2,2.1,3.2,2.1,3.2,2.2c0,0.2,0,0.2,0,0.2c0,0.2,0,0.4,0,0.6c0,0.1,0,0.4,0,0.5c0,0.1,0,0.1,0,0.3h0v0.6
					c0,0,0,0.2,0,0.2c0,0.4,0,0.8,0,0.9c0,0.2,0,0.4,0,0.5c0,0.1,0,0.1,0,0.1c0,0.6,0,1.1,0,1.2c0,0.3,0,0.3,0,0.3V8
					c0,0.1,0,0.7,0,0.7c0,0.1,0,0.3,0,0.3c0,0.1,0,0.5,0,0.6c0,0.1,0,0.4,0,0.5c0,0.2,0,0,0,0.2c0,0.1,0,0.3,0,0.3
					c0,0.1,0,0.4,0,0.5c0,0.1,0,0.3,0,0.3c0,0.2,0,0,0,0.2c0,0.1,0,0.3,0,0.3c0,0.2,0,0.4,0,0.5c0,0.1,0,0.1,0,0.1
					c0,0.1,0,0,0.1,0.2c0.1,0.2,0,0,0.1,0.1c0.1,0.1,0,0,0.1,0.1c0.2,0.1,0.1,0,0.1,0.1c0.1,0,0.2,0.1,0.3,0.1c0.2,0,0.3,0,0.4,0
					c0.1,0,0.1,0,0.2,0c0.1,0,0.3,0,0.5,0c0.1,0,0.3,0,0.3,0h0.5c0.1,0,0.1,0,0.4,0s0,0,0.3,0c0.1,0,0.4,0,0.5,0c0.2,0,0.2,0,0.4,0
					c0.1,0,0.1,0,0.1,0c0.1,0,0.2,0,0.6,0c0,0-0.1,0-0.1,0c0.1,0,0.1,0,0.2,0c0.2,0,0.4,0,0.5,0c0.1,0,0.4,0,0.5,0c0.2,0,0,0,0.2,0
					s0.1,0,0.1,0c0.2,0,0.2,0,0.4,0c0.2,0,0.4,0,0.6,0v0c0.2,0,0.1,0,0.3,0c0.1,0,0.3,0,0.3,0c0.1,0,0.3,0,0.3,0c0.2,0,0,0,0.3,0
					c0.1,0,0.3,0,0.3,0c0.2,0,0.3,0,0.5,0c0.2,0,0.5,0,0.7,0c0.1,0,0.3,0,0.3,0c0.2,0,0,0,0.3,0s0.2,0,0.2,0c0.1,0,0.2,0,0.1,0h1.4
					c0.2,0,0,0,0.2,0c0.2,0,0,0,0.3,0c0.1,0,0.3,0,0.3,0c0.1,0,0.3,0,0.3,0c0,0,0,0,0,0c0,0,0,0,0,0c0,0,0,0,0.1,0c0,0,0,0,0,0h0
					c0,0,0,0,0,0c0,0,0,0,0,0s0,0,0,0s0,0,0,0l0,0.1c0,0,0,0,0,0v0h0c0,0,0,0,0,0c0,0,0,0,0,0c0,0,0,0,0,0c0,0,0,0,0,0l0,0l-0.2,0
					c-0.3,0-0.6,0-0.7,0c-0.2,0-0.3,0-0.6,0C15.1,13.4,15.2,13.4,15.3,13.4z"/>
			</g>
		</g>
	</g>
</g>
<g>
</g>
<g>
</g>
<g>
</g>
<g>
</g>
<g>
</g>
<g>
</g>
<g>
</g>
<g>
</g>
<g>
</g>
<g>
</g>
<g>
</g>
<g>
</g>
<g>
</g>
<g>
</g>
<g>
</g>
</svg>
