<?xml version="1.0" encoding="utf-8"?>
<!-- Generator: Adobe Illustrator 18.0.0, SVG Export Plug-In . SVG Version: 6.00 Build 0)  -->
<!DOCTYPE svg PUBLIC "-//W3C//DTD SVG 1.1//EN" "http://www.w3.org/Graphics/SVG/1.1/DTD/svg11.dtd">
<svg version="1.1" id="Layer_1" xmlns="http://www.w3.org/2000/svg" xmlns:xlink="http://www.w3.org/1999/xlink" x="0px" y="0px"
	 viewBox="0 0 150 80.4" enable-background="new 0 0 150 80.4" xml:space="preserve">
<g>
	<g>
		<rect x="1.1" y="1.1" fill="#FFFFFF" width="117.6" height="68.3"/>
		<g>
			<g>
				<path fill-rule="evenodd" clip-rule="evenodd" fill="#3A494F" d="M108.2,70.6c-0.8,0-1.9-0.1-3-0.1c-0.3,0-0.2-0.1-0.8-0.2
					c-1.8,0-2.9-0.1-4.5-0.1c-1.5,0-0.3,0.1-1.8,0.1c-1.5,0-0.9-0.1-2.4-0.1s-3.3,0.2-4.9,0.2c-1.5,0-0.3-0.1-1.8-0.1
					c-1.5,0-0.9,0.1-2.4,0.1c-1.5,0-2.9-0.2-4-0.3c-2.2,0.1-7.2,0.2-8.8,0.2c-3,0-1.9-0.1-4.6-0.2c0,0,0.7,0-0.8,0s-0.9,0.1-2.4,0.1
					c-1.5,0-0.9-0.1-2.4-0.1c-0.7,0-2.1,0.1-2.6,0.3c-2.1-0.1-4.4-0.3-5.9-0.3s-5.2,0.2-6.7,0.2s-0.3-0.1-1.8-0.1s-1.5,0.1-3,0.1
					c-3.1,0-0.3-0.2-2.4-0.2c-1.5,0-0.3,0.1-1.8,0.1c-1.5,0-2.1-0.1-3.6-0.1c-1.5,0-7.6,0.2-9.1,0.2c-1.5,0-4-0.1-5.5-0.1
					c-1.5,0-3.8,0.1-5.1,0.1c-0.7,0-1-0.1-0.9-0.2H5.3c0.7,0.1,1.3,0.1,1.2,0.2c-0.8,0-0.8-0.1-2.3-0.1c-1.6,0-1.1,0.1-4,0.1
					c-0.1,0-0.1-0.1-0.1-0.2c0-0.1,0-0.2,0-0.3c0-0.2,0-0.4,0-0.6c0-0.4,0-0.8,0-1.2c0-0.5,0-1,0.1-1.5c0.1-1,0.1-2,0.1-2.7
					c0-1.5-0.1-1.5-0.1-3c0-1.5,0.1-0.9,0.1-2.4c0-1.5-0.1-2.5-0.2-3.3c0.1-0.9,0.2,0,0.2-1.6c0-1.5-0.1,0.3-0.1-1.2
					c0-1.5,0.1,0.3,0.1-1.2c0-1.5-0.1,0.3-0.1-1.2c0-1.5,0.1-0.3,0.1-1.8S0.2,46,0.2,44.5s0-2.4,0.1-2.9c0-0.4-0.1-0.8-0.2-0.8
					c0-0.8,0.1-0.8,0.1-2.3c0-1.5-0.1-1.5-0.1-3c0-1.5,0.1-3.4,0.1-4.9c0-1.5-0.1-3.4-0.1-4.9c0-1.5,0.1-1.7,0.1-2.2c0-3,0-6,0-8.9
					c0.1-0.3,0.1,0.5,0.1-1C0.3,12,0.1,7.9,0,5.4V3.3c0.1-0.1,0.1,1.2,0.2,2.4V2.7V0.4l0-0.1l0-0.1l0.1,0c0.1,0,0.1,0,0.2,0
					c0.1,0,0.2,0,0.3,0c0.2,0,0.4,0,0.5,0c0.3,0,0.4,0,0.6,0c0.2,0,0.3,0,0.5,0c0.2,0,0.4,0,0.8,0c1.5,0,2.1,0.1,3.6,0.1
					s0.9-0.1,2.4-0.1s0.3,0.1,1.8,0.1s2.1-0.1,3.6-0.1c1.5,0,5.2,0.1,6.7,0.1c1.1,0,3.7,0,4.5-0.1c0.9,0.1,2.2,0.1,2.6,0.2
					c1.7,0,2,0.1,2-0.1s-1.2-0.1-1-0.2c1.5,0.1,3.2,0.2,4.7,0.2c0.4,0,3.3-0.1,3.8-0.3h2.2c0.1,0.1,1.3,0.2,1.8,0.3
					c0.4,0,0.8-0.1,0.9-0.2c1.5,0.1,2.5,0.2,4.1,0.2s3.9-0.2,5.5-0.2s0.9,0.1,2.4,0.1s1.2,0,1.4-0.1c0.9,0.1,0.1,0.2,1.6,0.2
					S57.5,0.2,59,0.2c1.5,0,1.5,0.1,3,0.1c2.7,0,3.3,0,3.7-0.3H68c0.1,0.1,1,0.3,1.9,0.3c1.5,0-0.3-0.1,1.2-0.1s-0.3,0.1,1.2,0.1
					c1.5,0,2.3-0.1,3.3-0.2c0.9-0.1,1.8,0,3.4,0c1.5,0,7.6,0.2,9.1,0.2c5.2,0,3.6-0.2,6.1-0.2c2.6,0,0.8,0.2,6.1,0.2
					c1.5,0,3.4-0.1,4.9-0.1c1.5,0,4.1,0.1,5.9,0.2c0.5,0,0.8-0.1,0.9-0.2h2c1.5,0,1.3,0.1,2.4,0.1c0.3,0,0.3,0.1,0.8,0.2
					c0,0,0.5,0,1.1,0c0.3,0,0.6,0,0.8,0c0.1,0,0.1,0,0.2,0c0,0,0,0.1,0,0.1c0,0.1,0,0.1,0,0.1c0,1.1,0,1.4,0.1,1.6
					c0,0.2,0.1,0.2,0.1,0.7c0,1.2,0,3,0,4.1c0,0.6,0.1-0.5,0.1,1c0,1.5-0.1,4.1-0.2,5.9c0,0.5,0.1,0.8,0.2,1
					c-0.1,0.9-0.1,2.5-0.1,4.1c0,1.5,0.1,3.2,0.1,4.5c0,0.7-0.1,1-0.2,0.9v3.3c0,0.5,0.1,0.4,0.2,0.5v3.2c0,1.5-0.1,0.7-0.1,2.2
					c0,1.5,0,1.8,0.1,2c-0.1,4.3-0.2,1.7-0.2,5.9c0,2.7,0.2,5.8,0.2,6.7c0,1.5-0.2,2.7-0.2,4.2c0,1.5,0.1,0.3,0.1,1.8
					c0,1.5-0.1-0.3-0.1,1.2c0,1.5,0.1,5,0.2,7c0,0.5,0,0,0,1.5c0,0.8,0,1.6-0.1,2.5c0,0.4,0,0.8-0.1,1.2l0,0.3c0,0.1,0,0.2,0,0.2
					l0,0v0.1c0,0,0.1,0,0.2,0.1c-0.2,0.2-0.3,0.3-0.3,0.6c-0.1,0-0.1-0.1-0.2-0.1c-0.3,0-0.4,0.4-0.6,0.4c-0.1,0-0.1,0-0.1,0
					c0-0.1-0.1-0.5-0.3-0.5c-0.1,0-0.1,0.1-0.2,0.1c0-0.3-0.2-0.4-0.2-0.5c0-0.1,0-0.1,0.1-0.2l0,0c0,0,0,0,0-0.1l0-0.5
					c0-0.4,0-0.7,0-1.1c0-1.5-0.1-2.1-0.1-3.6c0-1.5,0.1-0.5,0.1-1c0-2.3,0.1-6,0.1-7.5c0-1.5,0.1-2.8,0-3.8s-0.2-2-0.2-3.5
					c0-1.5,0.1-0.5,0.1-1c0-1.1,0-2.9,0-4.4c0-1.5,0-4.4-0.1-7.1c0.1-0.1,0.1,0.6,0.1,1.1c0,0,0.1-1.2,0.2-1.7c0-0.4-0.1-0.4-0.1-2
					c0-1.5,0.1-1.1,0.1-1.6c-0.1-1,0-2.1-0.2-2.1c-0.1,0-0.1,1.2-0.2,1.1v-3.4c0.1-0.7,0.2-1.7,0.2-3.2s-0.1,0.3-0.1-1.2
					c0-1.5,0.1,0.3,0.1-1.2c0-1.5-0.1-0.9-0.1-2.4s0.1-1.5,0.1-3c0-1.5-0.1-4-0.1-5.6c0-1.1-0.1-1.7-0.2-2.7c0.1-0.2,0.1,1,0.2,1.1
					c0-1.4,0-3.2,0-4.8c0-0.2,0-0.4,0-0.6l0-0.1c0-0.1,0-0.2-0.1-0.2c-0.1,0-0.2,0-0.2,0c-0.3,0-0.5,0-0.7,0c-1.5,0-3.1,0-4,0.1v0
					c-1.7,0-0.7-0.1-1.2-0.1c-0.5,0-0.8,0.1-0.9,0.2c-0.8,0-0.2-0.1-1.7-0.1c-1.5,0-0.6,0-0.7,0.1c-0.8,0-1.1-0.1-1-0.2
					c-2.8,0-6.5,0-9.5,0c-0.3,0,0.6-0.1-0.9-0.1s-5.8,0.2-7.3,0.2c-1.5,0-2.1-0.2-3.6-0.2C84.2,1.9,86,2,84.5,2s-3-0.1-3.5-0.2
					c-0.4,0-0.8,0.1-0.8,0.2h-2.3c-0.1-0.1-1.3-0.1-1.7-0.2c-0.4,0-1.6,0.1-2.1,0.3h-2.2C71.7,2,73,2,73,1.9c-0.5,0,0.3,0-1.2,0
					S69,2.1,67.5,2.1S66.6,2,65.1,2c-1.5,0-0.9,0.1-2.4,0.1c-1.5,0-0.3-0.1-1.8-0.1c-1.5,0-1.2,0-1.4,0.1C58.5,2,57.6,2,56.7,1.9
					c-1-0.1-2.9,0-4.4,0s-3.3,0-4.5,0c-0.7,0-1.1,0.1-2,0.2c0,0,0.7,0-0.9,0S42.9,2,42.1,1.9c-0.4,0-1,0-2.5,0
					c-5.2,0-3.6,0.2-6.1,0.2c-2,0-2.3-0.2-4.6-0.3h-1.6c-0.5,0-0.4,0-0.4,0.1S28,2,28,2.1h-4.4C22.1,2.1,22,2,20.5,2s-2.2,0-3.2,0.1
					c-0.2-0.1,1-0.1,1-0.2c-0.5,0,0.3,0-1.2,0c-1.5,0-0.9,0.1-2.4,0.1s-0.9-0.1-2.4-0.1S9.5,2,8,2C6.5,2,5.9,1.9,4.4,1.9
					C2.9,1.9,4.7,2,3.2,2C2.4,2,2.3,2,2.3,2c0,0-0.1-0.1-0.3-0.1c0,0-0.1,0-0.1,0c0,0,0,0,0,0.1c0,0,0,0.1,0,0.1c0,0,0,0.1,0,0.1
					c0,0,0,0,0,0.1c0,0,0,0,0,0.1c0,0,0,0,0,0.1c0,0.1,0,0.2,0,0.3c0,1.5-0.1,3-0.2,3.4c0.1,1,0,2,0.2,2c0.1,0,0.1-1.2,0.2-1.1
					C2.1,9,2,9,2,10.5c0,1.5,0,1.2,0.1,1.4C2,13.4,1.9,14.4,1.9,16S2,18.1,2,19.3c0,0.6-0.1,0.8-0.2,2.3h0.3v4.6
					C2,26.3,2,27.5,1.9,27.9c0.1,1.6,0.2,4.8,0.2,6.3c0,1.5-0.1,3-0.2,3.5c0,0.4,0.1,0.8,0.2,0.9c-0.1,2.7-0.2,7.4-0.2,9
					c0,2,0,2,0.2,1.9v3.2c0,1.5-0.2,3.7-0.2,5.2c0,1.5,0.1,0.9,0.1,2.4c0,1.5-0.1,2.7-0.1,4.2c0,0.8,0,1.3,0.1,1.8
					c0,0.3,0,0.5,0,0.8c0,0.3,0,0.6,0,0.9c0,0.4-0.1-0.1-0.1,0.4c0.3,0,0.3,0,0.4-0.1c0.2,0,0.5-0.1,1.2-0.1c1.5,0,2.1,0.1,3.6,0.1
					c1.5,0,0.9-0.1,2.4-0.1s-0.3,0.1,1.2,0.1c1.5,0,0.9-0.1,2.4-0.1c1.5,0,3,0.1,3.5,0.2c0.4,0,0.8-0.1,0.8-0.2
					c0.8,0,0.2,0.1,1.7,0.1s-0.3-0.1,1.2-0.1c1.5,0-0.3,0.1,1.2,0.1s0.7,0,1-0.1c1.2,0,4.8,0.1,5.9-0.1c0.8,0,1.1,0.1,1.2,0.2
					c0.9,0,2,0.1,3.5,0.1c0.9,0,2.1-0.1,2.5-0.3h3.4c0.7,0.1,1,0.2,2.6,0.2s0.3-0.1,1.8-0.1c1.5,0,2.1,0.1,3.6,0.1c1.5,0,2,0,2.6,0
					c0.6,0,0.5-0.1,0.8-0.2c0.6,0,2.2,0,4.4-0.1c0.2,0.1-0.5,0.1-1.1,0.1c0,0,1.2,0.1,1.6,0.2c1-0.1,2.3-0.1,3.8-0.1
					s2.1,0.1,3.6,0.1s-0.3-0.1,1.2-0.1c1.5,0,0.5,0.1,1,0.1c1.1,0,1.7,0,3.2,0c1.5,0,3.1,0,4-0.1v0c1.7,0,0.5,0.1,2,0.1
					s0.9-0.1,2.4-0.1s0.9,0.1,2.4,0.1c1.5,0,0.3-0.1,1.8-0.1c1.5,0,0.9,0.1,2.4,0.1s2.5-0.1,3.3-0.2c1.5,0.1,3.7,0.2,5.2,0.2
					s0.9-0.1,2.4-0.1c1.5,0,0.3,0.1,1.8,0.1c1.5,0,1.2,0,1.3-0.1c0.8,0,1.1,0.1,1,0.2h10.4c1.5,0-0.3-0.1,1.2-0.1s0.3,0.1,1.8,0.1
					s0.9-0.1,2.4-0.1s0.9,0.1,2.4,0.1c0.1,0,0.1,0,0.2,0c0,0,0,0,0,0c0,0,0,0,0,0c0,0,0,0,0-0.1c0.1,0.1,0.2,0.2,0.2,0.3
					c0.1,0,0.4,0.1,0.4,0.2c0,0,0.1-0.1,0.1-0.2h0.2c0.1,0,0.1,0.1,0.2,0.1c0,0.1,0.1,0.1,0.1,0.2s-0.1,0.1-0.1,0.2s0.1,0.2,0.2,0.3
					c-0.1,0.2-0.2,0.3-0.3,0.5c-0.1,0-0.1-0.1-0.2-0.1v0.3H118c-0.1,0,0-0.1-0.1-0.1c0,0-0.1,0.1-0.1,0.2c-0.1,0-0.1,0-0.1-0.1
					c-0.1,0-0.2,0-0.3,0l-0.2,0c-0.6,0-1.1,0-1.6,0c-2.4,0-4.4,0-5.2-0.1c-1.5,0-3.2,0-4.3,0C106.7,70.4,107.9,70.5,108.2,70.6z"/>
			</g>
		</g>
	</g>
	<g>
		<circle fill="#3A494F" cx="146" cy="76.3" r="2.7"/>
		<g>
			<g>
				<path fill-rule="evenodd" clip-rule="evenodd" fill="#3A494F" d="M145.1,77.1c0,0,0,0.1,0,0.1c0,0-0.1,0.1-0.1,0.2
					c0,0-0.1,0.2,0,0.2c0,0,0.1-0.1,0.1-0.1c0,0-0.1,0.1,0,0.1c0,0,0.2-0.2,0.2-0.2c0,0-0.1,0.1,0,0.1c0,0,0.1-0.1,0.1-0.1
					c0,0-0.1,0.3-0.1,0.4c0.1-0.1,0.3-0.2,0.3-0.2c0.1,0,0,0.2,0,0.3c0,0,0,0,0,0c0,0,0.1-0.1,0.1-0.1c0,0,0,0.1,0,0.1
					c0,0,0.1-0.2,0.1-0.4c0,0.1,0.1,0.4,0.1,0.4c0,0,0.1-0.3,0.2-0.3c0,0,0,0.1,0,0.1c0,0,0-0.1,0.1-0.1c0.1,0,0,0.3,0.1,0.2
					c0,0,0-0.1,0-0.1c0,0,0.1,0.1,0.1,0.1c0,0,0.1-0.3,0.1-0.3c0,0,0.1,0.1,0.2,0.1c0,0,0.1-0.1,0-0.2c0,0,0.1,0.1,0.1,0.2
					c0,0,0.2-0.1,0.2-0.1c-0.1-0.1-0.1-0.1-0.2-0.2c0,0,0.1,0.1,0.1,0.1c0,0-0.1-0.1,0-0.1c0,0,0.2,0.1,0.3,0.1c0,0-0.1-0.1,0-0.1
					c0,0,0.1,0.1,0.1,0c0,0,0-0.1-0.1-0.2c0.1,0,0.2,0.2,0.2,0.1c0,0-0.1-0.1-0.1-0.1c0,0,0.1,0.1,0.1,0.1c0,0-0.1-0.1-0.1-0.1
					c0,0,0.1,0.1,0.1,0c0,0-0.1-0.1-0.1-0.1c0,0,0,0,0.2,0c0,0-0.1-0.1-0.2-0.1c0,0,0.1,0,0.1,0c0,0-0.1-0.1-0.1-0.1
					c0,0,0.1,0,0.2-0.1c0,0-0.1-0.1-0.1-0.1c0,0,0.1,0,0.1,0c0-0.1,0-0.1,0.1-0.2c0.1,0,0.1,0,0.1,0c0,0-0.3-0.2-0.4-0.2l0,0
					c0.1,0,0.1,0,0.3,0l0-0.1c0,0-0.1,0-0.1,0c0,0,0.1-0.1,0.1-0.1c0,0-0.1,0-0.1,0c0,0,0.1,0,0.1-0.1c0,0-0.1,0-0.1,0
					c0,0,0.1-0.1,0.1-0.2c0,0,0-0.1-0.2,0c0.1,0,0.1-0.1,0.2-0.2c0,0,0.1-0.1-0.1,0c-0.1,0.1-0.1,0.1-0.2,0.1
					c0.1-0.1,0.2-0.2,0.2-0.2c0,0-0.2,0-0.4,0.1l0,0c0.1-0.1,0.2-0.2,0.3-0.3c0,0-0.1,0-0.2,0.1c0.1-0.1,0.2-0.2,0.1-0.2
					c0,0-0.3,0.1-0.3,0.1c0,0,0.1-0.1,0.1-0.1c0,0,0,0-0.1,0.1c0-0.1,0.2-0.2,0.1-0.2c0,0-0.1,0.1-0.1,0.1c0,0,0.1-0.1,0-0.1
					c-0.1,0-0.1,0-0.3,0.3l0,0c0.1-0.1,0.2-0.3,0.2-0.3c0,0-0.1,0.1-0.1,0.1c0,0,0.1-0.1,0-0.1c0,0-0.1,0.1-0.2,0.2c0,0.1,0,0-0.1,0
					c0,0-0.1-0.3-0.1-0.3c-0.1,0-0.2,0.2-0.2,0.2c-0.1,0,0-0.3-0.1-0.3c0,0-0.1,0.1-0.1,0.1c0,0-0.1-0.1-0.1-0.3c0,0,0,0.1,0,0.3
					l0,0c0,0,0-0.1-0.1-0.1c0-0.1,0-0.2,0-0.2l0,0c0,0,0,0.1,0,0.2c0,0-0.1,0-0.1,0.1c0,0,0,0.1,0,0.1c0,0-0.1-0.1-0.2-0.2
					c0,0,0,0.1,0.1,0.3c0-0.1-0.1-0.1-0.1-0.1c0,0-0.1,0.1,0,0.2c0,0-0.1-0.1-0.1-0.2l-0.1,0c0,0.1,0.1,0.2,0.1,0.2l-0.1,0
					c0,0-0.1-0.1-0.1-0.1c0,0,0,0.1,0,0.1c-0.2-0.1-0.2-0.2-0.3-0.1c-0.1,0,0.1,0.3,0,0.3c0,0-0.2-0.1-0.3-0.1c0,0,0.1,0.1,0.1,0.1
					c0,0-0.1-0.1-0.1-0.1c0,0,0,0.2,0.1,0.3c0,0,0,0,0,0c0,0-0.1,0-0.3,0l-0.1,0.1c0,0.1,0.1,0.1,0.2,0.1c-0.3,0-0.5,0.1-0.5,0.4
					c-0.1,0-0.1-0.1-0.2-0.1c-0.4-0.1-0.5,0.4-0.8,0.4c-0.2,0-0.1,0-0.2,0c0-0.1-0.1-0.7-0.3-0.8c-0.2,0-0.2,0.1-0.3,0.1
					c0.1-0.5-0.1-0.8,0-1c0.1-0.1,0.1-0.2,0.2-0.3c0.1-0.1,0.1-0.1,0.1-0.1c0-0.1,0-0.2,0-0.2c0.1-0.1,0.1,0,0.1,0
					c0.1-0.1,0.3-0.2,0.4-0.2c0.1-0.1,0.1-0.1,0.1-0.2c0-0.1-0.1-0.3,0-0.3c0.1-0.1,0.1,0,0.1,0c0.1,0,0.1-0.1,0.2-0.2
					c0.1-0.1,0.2-0.1,0.3-0.3c0.1,0.1,0,0.1,0,0.2c0,0,0.1,0.1,0.2,0.1c0,0-0.1-0.1,0-0.2c0.1,0,0.1,0,0.1,0.1c0-0.1,0.1-0.1,0-0.2
					c-0.1-0.1-0.1-0.1-0.1-0.1l0.2-0.1c0.1,0.1,0.2,0.2,0.3,0.2c0.1,0-0.1-0.1,0-0.1c0.1,0,0,0.1,0.1,0.1c0.1,0,0-0.1,0.1-0.2
					c0.1,0,0.1,0.1,0.2,0.1c0.1,0,0.2-0.1,0.3-0.2c0-0.1,0.1-0.2,0.1-0.3c0,0.1,0,0.2,0,0.3c0.2,0,0.4,0.1,0.5,0.1
					c0.1,0,0.2,0,0.2-0.1l0,0c0.1,0,0,0.1,0.1,0.1c0,0,0-0.1,0-0.3c0,0,0,0.1,0.1,0.1c0.1,0,0,0,0-0.1c0,0,0.1,0.2,0,0.3
					c0.2,0,0.3,0,0.5,0.1c0,0.1,0,0.1,0,0.1c0.1,0,0.4-0.2,0.4-0.2c0.1,0,0,0.3,0.1,0.3c0.1,0,0-0.1,0.1-0.1c0.1,0,0.1,0.2,0.1,0.3
					c0,0,0.1-0.1,0.1-0.2l0.1,0.1c0,0.1,0,0.2,0,0.3c0,0,0.1-0.1,0.3-0.3l0.1,0.1c0,0.1-0.1,0.1-0.2,0.1c0,0.1,0,0,0,0.1
					c0.1,0,0.3-0.1,0.3-0.1c0.1,0,0,0.1,0,0.2c0.1,0,0.1-0.1,0.2,0c0.1,0.1-0.1,0.1,0,0.2c0.1,0.1,0.1,0,0.1,0c0,0.1,0,0.2-0.1,0.3
					c0,0.1,0.1,0.1,0.2,0.2c0.1,0.1,0.1,0.1,0.2,0.2c0,0,0.1,0,0.2-0.1c0,0,0,0,0.1,0c0.1,0.1-0.1,0.2-0.1,0.3c0,0,0,0,0.1,0.1
					c0.1,0.2,0.3,0,0.4,0.1c0.1,0.1-0.1,0.2-0.2,0.4l0,0.1c0.1,0,0,0,0.1,0c0.1-0.1,0.1-0.1,0.2-0.2l0.1,0.2c0,0.1-0.1,0.1-0.1,0.2
					c0,0.1,0.1,0.1,0.2,0.1c-0.1,0-0.2,0-0.2,0c0,0,0,0,0,0.1c0,0.1,0.1,0,0.2,0.1c0,0.1-0.1,0.1-0.1,0.2c0,0.1,0.2,0.1,0.2,0.2
					c0,0.1-0.1,0.1-0.1,0.2c0,0.1,0.1,0,0.1,0.1c0,0.1-0.1,0-0.1,0.1c0,0.1,0.1,0,0.1,0.1c0,0.1-0.1,0.2-0.3,0.2
					c0.1,0,0,0.1,0.2,0.1c0.2,0,0.1-0.1,0.2-0.1c0,0.1-0.1,0.1-0.1,0.2c0,0.1,0,0.1,0.1,0.1c-0.1,0.1-0.3,0.1-0.3,0.2
					c0,0.1,0.1,0.1,0.1,0.2c0,0-0.1,0-0.3,0.1l0.4,0.1l-0.1,0.3c-0.1,0-0.2,0-0.3,0c0.1,0.1,0.2,0.3,0.1,0.4c0,0.1-0.2,0.1-0.3,0.1
					c0,0,0.1,0.1,0.2,0.2c-0.2,0.1-0.4,0.2-0.5,0.3c-0.1,0.1-0.1,0.1,0.2,0.2l-0.1,0.1c0,0.1-0.3,0-0.4,0.1c-0.1,0.1,0.1,0.1,0,0.2
					c-0.1,0.1-0.2,0-0.3,0.1c-0.1,0.1,0,0.2-0.1,0.2c-0.1,0.1-0.1-0.1-0.1-0.1c-0.1,0,0,0.1,0,0.2c-0.1,0-0.2,0-0.2,0
					c-0.1,0,0,0.1,0,0.2c-0.1,0-0.1-0.1-0.1-0.1c-0.1,0,0,0.1,0,0.2c-0.1,0-0.2-0.1-0.3-0.1c0,0,0,0.1,0.1,0.2c0,0-0.1-0.1-0.1-0.1
					c-0.1,0,0.1,0.1,0,0.1c-0.1,0,0-0.1-0.1-0.1c-0.1,0,0,0.1,0,0.1c0,0.1-0.3,0-0.2,0.3c0,0-0.1-0.1-0.1-0.2
					c-0.1,0-0.2-0.2-0.2-0.1c0,0-0.1,0.2,0,0.4l-0.2,0c-0.1-0.1-0.1-0.2-0.2-0.2c-0.1,0,0,0.1-0.1,0.1c-0.1,0-0.1-0.1-0.2-0.1
					c-0.1,0-0.1,0-0.1,0c0,0,0,0.2,0,0.2c0,0-0.1,0-0.2,0.2c0-0.1,0-0.1,0.1-0.2c0-0.1-0.1-0.1-0.1-0.2c-0.1,0.1-0.1,0.1-0.2,0.1
					c-0.1,0-0.1-0.1-0.2-0.2c-0.1,0,0,0.1-0.1,0.1c-0.1,0,0-0.1,0-0.1c-0.1,0-0.1,0-0.2-0.1c-0.1,0-0.2-0.1-0.2,0l0,0
					c-0.1,0,0-0.1-0.1-0.2c-0.1,0-0.1,0.1-0.2,0.1c-0.1,0,0-0.1-0.1-0.2c-0.1,0-0.1,0.1-0.1,0.1c-0.1,0,0-0.1-0.1-0.2
					c-0.1,0-0.2,0-0.3,0.2c0-0.2,0-0.3-0.1-0.4c-0.1,0-0.1,0.1-0.2,0c-0.1,0,0.1-0.1,0-0.2c-0.1,0-0.1,0-0.1,0.1c0,0,0-0.2,0.1-0.2
					c0,0-0.4-0.3-0.4-0.3c-0.1-0.1-0.1,0.1-0.1,0c-0.1-0.1,0.1-0.1,0-0.2c-0.1-0.1-0.1,0.1-0.2,0c-0.1-0.1,0.1-0.1,0-0.2
					c-0.1-0.2-0.1-0.1-0.2-0.1c0-0.2,0-0.4,0.1-0.5c-0.1-0.2-0.1-0.6,0-0.7c0,0-0.1-0.1-0.3,0l-0.1-0.3c0-0.2,0.1-0.2,0.1-0.3
					c0.1,0,0.1-0.2,0.3-0.2c0.2,0,0.1,0.1,0.3,0.1c0.2,0,0.3-0.1,0.3-0.3c0.2,0.1,0.4,0.2,0.6,0.3c0,0-0.1,0.1-0.1,0.2l0.4-0.1
					l0,0.1c0,0.1-0.1,0-0.1,0.1c0,0,0.1,0,0.3,0c0,0,0,0.1-0.1,0.1c0,0,0,0.1,0.1,0.2c0,0.1,0.1,0.1,0,0.2c0,0.1,0,0.1,0,0.1
					c0,0,0,0.1,0.1,0C145,77.3,145.1,77.2,145.1,77.1z"/>
			</g>
		</g>
	</g>
	<g>
		<line fill="#FFFFFF" x1="119" y1="53.8" x2="146" y2="75.8"/>
		<g>
			<g>
				<path fill-rule="evenodd" clip-rule="evenodd" fill="#3A494F" d="M122,54.2c0,0.1,0.1,0.2,0.1,0.3c0,0.1-0.1,0.1-0.1,0.2
					c0.1,0.1,0.1,0.3,0.2,0.4s0.1-0.1,0.2,0c0.1,0.1,0,0.2,0.1,0.2c0.1,0.1,0.4,0,0.5,0.1c0.1,0.1-0.1,0.1,0,0.2
					c0.1,0.1,0.1-0.1,0.2,0c0.1,0.1,0,0.4,0,0.5c0.2,0,0.6,0.2,0.7,0.3c0.2,0.2,0,0.2,0.2,0.4c0,0-0.1,0,0,0.1
					c0.1,0.1,0.1-0.1,0.2,0c0.1,0.1,0,0.2,0.1,0.2c0,0,0.2,0,0.4-0.2c0.1,0.2,0,0.5,0.1,0.6s0.5,0.1,0.6,0.2s-0.1,0.1,0,0.2
					c0.1,0.1,0.2,0,0.3,0.1c0.2,0.2-0.1,0.2,0,0.3c0.1,0.1,0.1-0.1,0.2,0c0.1,0.1,0.1,0.2,0.2,0.3s0.7,0.2,0.8,0.3
					c0.1,0.1,0.2,0.3,0.3,0.4c0.1,0.1,0.3,0.2,0.4,0.2c0,0,0,0.2-0.1,0.3l0.7,0.5c0.1-0.2,0-0.2,0.1-0.3c0.1,0,0,0.1,0.1,0.2
					s0.2,0,0.3,0.1c0.1,0.1,0.1,0.4,0.2,0.5c0.1,0.1,0.2,0,0.3,0.1c0.1,0.1,0,0.2,0.1,0.2c0.1,0.1,0.2,0,0.4,0
					c0,0.1-0.2,0.2-0.1,0.3c0.1,0.1,0.1-0.1,0.2,0s-0.1,0.1,0,0.2s0.1-0.1,0.2,0c0.1,0.1-0.1,0.1,0,0.2c0.1,0.1,0.2,0,0.3,0.1
					c0.1,0.1,0.1,0.1,0.1,0.3c0,0,0.1,0,0.2-0.2c0.1,0,0,0.1,0.1,0.2c0.1,0.1,0.2,0,0.3,0.1s0.1,0.3,0.2,0.4
					c0.1,0.1,0.3,0.1,0.4,0.2s0.1,0.1,0.1,0.2c0.2,0.2,0.4,0.3,0.6,0.5c0,0.1-0.1,0.1,0,0.1c0.1,0.1,0.5,0.1,0.8,0.1l0.1,0.1
					c-0.1,0.1-0.1,0-0.3,0.1l0.3,0.2c0.1,0.1,0.1-0.1,0.2,0c0.1,0.1,0.1,0.2,0.2,0.3c0.1,0.1,0.1-0.1,0.2,0s-0.1,0.1,0,0.2
					c0.1,0.1,0.2,0,0.3,0.1c0.1,0.1,0.3,0.4,0.4,0.5c0.1,0.1,0.2,0.2,0.4,0.1c0,0.1,0,0.2,0,0.3c0.1,0.1,0.1,0.2,0.2,0.1
					c0.1-0.1,0-0.1,0.1-0.2c0,0.2,0,0.4,0.1,0.5c0,0,0.3,0.1,0.5-0.1L136,66c-0.1,0.1-0.1,0.3-0.1,0.4c0,0,0.1,0,0.2-0.2
					c0,0.2,0,0.3,0.1,0.4c0.1,0.1,0.4,0,0.5,0.1c0.1,0.1,0,0.2,0.1,0.2c0.1,0.1,0.1,0,0.2,0c0,0.1-0.2,0.2-0.1,0.3
					c0.1,0.1,0.1-0.1,0.2,0c0.1,0.1,0,0.2,0.1,0.3c0.2,0.1,0.2,0.2,0.5-0.1l0.1,0.1c-0.1,0.1-0.2,0.3-0.1,0.4c0.1,0.1,0.1-0.1,0.2,0
					c0.1,0.1-0.1,0.1,0,0.2c0.1,0.1,0.3,0,0.4,0c0.1,0,0.1,0.1,0.2,0.2c0.1,0.1,0.3,0.6,0.4,0.7c0.3,0.3,0.4,0,0.6,0.1
					c0.2,0.1-0.1,0.2,0.2,0.5c0.1,0.1,0.3,0.1,0.4,0.2c0.1,0.1,0.2,0.3,0.2,0.5c0,0,0.1,0,0.2-0.2l0.1,0.1c0.1,0.1,0,0.2,0.1,0.2
					c0,0.1-0.1,0.2-0.1,0.2l0.1,0.1c0.1,0.1,0.1,0,0.3-0.1c0.1,0,0.2,0.1,0.3,0.2c0.1,0,0-0.1,0.1,0s0.2,0.3,0.2,0.5
					c0,0,0.1,0,0.2-0.1c0,0.1,0.1,0.2,0.2,0.3s0.3,0.1,0.4,0.1c0,0,0,0.2-0.1,0.3l0.2,0.2c0.1,0,0.1-0.1,0.2-0.2l0.2,0.2
					c0.1,0.1,0,0.1,0.1,0.2c0.1,0.1,0.1,0.1,0.2,0c0.2,0.4,0,0.3,0.2,0.5c0.2,0.1,0.6,0.1,0.6,0.2c0.1,0.1,0,0.4,0.1,0.4
					s0.1-0.1,0.2,0c0.1,0.1-0.1,0.1,0,0.2c0.1,0.1,0.4,0.2,0.6,0.2c0,0,0,0,0.1,0.1c0.1,0.1,0.1,0.2,0.1,0.4l0,0.1l0.1,0.1
					c0.1,0,0.1-0.1,0.2-0.2c0,0.3,0,0.6,0.3,0.8c0,0.1-0.1,0-0.3,0.1c-0.2,0.3,0.1,0.7,0,0.9c-0.1,0.1-0.1,0.1-0.1,0.1
					c-0.1,0-0.6-0.3-0.7-0.1c-0.1,0.1,0,0.2-0.1,0.3c-0.3-0.2-0.5-0.1-0.7-0.2c-0.1-0.1-0.2-0.3-0.2-0.4c-0.1-0.1-0.2,0-0.3-0.1
					s0-0.1,0-0.1c-0.1-0.1-0.3-0.4-0.4-0.5c-0.1-0.1-0.1-0.2-0.3-0.2c-0.1,0-0.3,0.1-0.4,0c-0.1-0.1,0-0.1,0-0.1
					c-0.1-0.1-0.2-0.2-0.3-0.3c-0.1-0.1-0.3-0.2-0.6-0.3c0-0.1,0.1-0.1,0.2-0.1c0,0,0-0.1,0-0.3c0,0-0.1,0.1-0.2,0
					c-0.1-0.1,0-0.1,0-0.2c-0.1,0-0.2-0.1-0.3,0c-0.1,0.1,0,0.1,0,0.2l-0.2-0.2c0-0.1,0.1-0.3,0-0.4c-0.1-0.1-0.1,0.1-0.2,0
					c-0.1-0.1,0.1-0.1,0-0.2c-0.1-0.1-0.1,0.1-0.2,0s0-0.2-0.1-0.3s-0.3-0.2-0.5-0.2c-0.1,0-0.2,0-0.3,0c0-0.1,0.2-0.1,0.2-0.1
					c-0.2-0.1-0.4-0.5-0.5-0.6c-0.1-0.1-0.2-0.2-0.3-0.1l0,0c-0.1-0.1,0-0.1,0-0.2c0,0-0.1,0-0.2,0.1c-0.1,0,0.1-0.1,0-0.2
					c-0.1-0.1-0.1,0-0.1,0.1c-0.1,0,0-0.2,0.1-0.3c-0.2-0.1-0.4-0.3-0.6-0.5c0-0.1,0.1,0,0-0.1c-0.1-0.1-0.5-0.1-0.6-0.2
					c-0.1-0.1,0-0.3-0.1-0.4c-0.1-0.1-0.1,0.1-0.2,0c-0.1-0.1-0.1-0.3-0.1-0.4c0,0-0.1,0-0.2,0.2l-0.1-0.1c0.1-0.1,0-0.2,0-0.3
					c0,0-0.2,0-0.4,0.2l-0.1-0.1c0.1-0.1,0.2-0.1,0.2-0.1c0-0.1,0,0-0.1-0.1c-0.1-0.1-0.3,0.1-0.4,0c-0.1-0.1,0-0.2-0.1-0.2
					c-0.1-0.1-0.1,0.1-0.2,0c-0.1-0.1,0.1-0.1,0-0.2s-0.1,0-0.2,0c0-0.1,0-0.2,0-0.3c0-0.1-0.2-0.2-0.3-0.2
					c-0.1-0.1-0.2-0.2-0.3-0.2c-0.1,0-0.1,0-0.3,0.1c0,0,0,0.1-0.1,0c-0.1-0.1,0-0.2,0-0.4c0-0.1-0.1-0.1-0.2-0.1
					c-0.3-0.3-0.4,0-0.6-0.1c-0.1-0.1,0-0.3-0.1-0.6l-0.1-0.1c-0.1,0,0,0-0.1,0.1c-0.1,0.1,0,0.2-0.1,0.3l-0.3-0.2
					c-0.1-0.1,0-0.2-0.1-0.3c-0.1-0.1-0.2-0.1-0.3-0.1c0-0.1,0.2-0.1,0.2-0.1c0-0.1,0,0-0.1-0.1c-0.1-0.1-0.1,0.1-0.2,0
					c-0.1-0.1,0-0.2-0.1-0.2c-0.1-0.1-0.3,0-0.4-0.1s-0.1-0.2-0.2-0.3c-0.1-0.1-0.1,0.1-0.2,0c-0.1-0.1,0.1-0.1,0-0.2
					c-0.1-0.1-0.1,0.1-0.2,0s-0.1-0.3-0.1-0.4c-0.1,0-0.2-0.1-0.3,0c-0.1,0.1,0,0.1,0,0.2c-0.1-0.1-0.1-0.2-0.2-0.3
					c-0.1-0.1-0.1,0-0.2,0c0-0.2,0-0.3-0.1-0.4s-0.2,0-0.3-0.1c0,0,0-0.1,0-0.3l-0.2,0.3l-0.3-0.3c0.1-0.1,0-0.2,0-0.3
					c-0.2,0-0.5-0.1-0.6-0.1c-0.1-0.1-0.1-0.3-0.1-0.4c0,0-0.1,0-0.2,0.2c-0.1-0.2-0.3-0.6-0.4-0.7c-0.1-0.1-0.1-0.1-0.3,0.1
					l-0.2-0.2c-0.1-0.1-0.1-0.4-0.2-0.5s-0.1,0.1-0.2,0c-0.1-0.1-0.1-0.2-0.2-0.3c-0.1-0.1-0.2,0-0.3-0.1c-0.1-0.1,0.1-0.1,0-0.2
					c-0.1-0.1-0.1,0.1-0.2,0c-0.1-0.1-0.1-0.2-0.2-0.3c-0.1-0.1-0.1,0.1-0.2,0c-0.1-0.1,0.1-0.1,0-0.2c-0.1-0.1-0.1,0.1-0.2,0
					c-0.1-0.1-0.1-0.3-0.1-0.4c0,0-0.1,0-0.2,0.2c-0.1,0,0.1-0.1,0-0.2s-0.1,0.1-0.2,0c-0.1-0.1,0.1-0.1,0-0.2s-0.1,0-0.1,0
					c-0.1,0-0.2-0.3-0.5-0.2c-0.1,0,0-0.2,0-0.2c0-0.1,0-0.2-0.1-0.3c-0.1,0-0.2,0-0.4,0.2l-0.2-0.2c0-0.1,0.1-0.3,0-0.3
					s-0.1,0.1-0.2,0c-0.1-0.1-0.1-0.2-0.2-0.3c-0.1-0.1-0.1-0.1-0.2-0.1c-0.1,0-0.1,0.1-0.2,0.1c-0.1,0-0.2-0.1-0.4-0.1
					c0-0.1,0.1-0.1,0.2-0.1c0,0,0-0.1,0-0.3c-0.1,0-0.2,0-0.3-0.1s-0.1-0.2-0.2-0.3c-0.1-0.1-0.1,0.1-0.2,0c-0.1-0.1,0-0.1,0-0.1
					c-0.1-0.1-0.1-0.1-0.2-0.2c-0.1-0.1-0.2-0.2-0.3-0.1l0,0c-0.1-0.1,0-0.1-0.1-0.2c-0.1-0.1-0.1,0.1-0.2,0c-0.1-0.1,0-0.2-0.1-0.2
					c-0.1-0.1-0.1,0.1-0.2,0s0-0.2-0.1-0.2s-0.2,0-0.4,0c0-0.2-0.1-0.4-0.2-0.5s-0.1,0.1-0.2,0c-0.1-0.1,0.1-0.1,0-0.2
					c-0.1-0.1-0.1,0-0.2,0c-0.1,0,0-0.2,0.1-0.3l-0.7-0.6c-0.1-0.1-0.1,0.1-0.2,0c-0.1-0.1,0.1-0.1,0-0.2c-0.1-0.1-0.1,0.1-0.2,0
					s0-0.2-0.1-0.2c-0.1-0.1-0.1-0.1-0.2,0c0-0.1,0-0.3,0-0.5c-0.1-0.1-0.3-0.4-0.2-0.5c0,0-0.1,0-0.2,0.1l-0.2-0.1
					c-0.1-0.1,0-0.2-0.1-0.3c0.1-0.1,0-0.2,0.1-0.3s0.2,0,0.3-0.1c0.1-0.1,0.1-0.3,0-0.4c0.2-0.1,0.5-0.2,0.7-0.2
					c0.1,0,0,0.2,0.1,0.3l0.3-0.3l0.1,0.1c0.1,0.1,0,0.1,0,0.2c0,0,0.1,0,0.2-0.1c0.1,0,0,0.1,0.1,0.2c0.1,0.1,0.3,0.3,0.4,0.4
					c0.2,0.2,0.3,0.4,0.4,0.4c0.1,0.1,0.2,0.2,0.3,0.2C121.9,54.5,121.9,54.3,122,54.2z"/>
			</g>
		</g>
	</g>
</g>
<g>
</g>
<g>
</g>
<g>
</g>
<g>
</g>
<g>
</g>
<g>
</g>
<g>
</g>
<g>
</g>
<g>
</g>
<g>
</g>
<g>
</g>
<g>
</g>
<g>
</g>
<g>
</g>
<g>
</g>
</svg>
