<?xml version="1.0" encoding="utf-8"?>
<!-- Generator: Adobe Illustrator 18.0.0, SVG Export Plug-In . SVG Version: 6.00 Build 0)  -->
<!DOCTYPE svg PUBLIC "-//W3C//DTD SVG 1.1//EN" "http://www.w3.org/Graphics/SVG/1.1/DTD/svg11.dtd">
<svg version="1.1" id="Layer_1" xmlns="http://www.w3.org/2000/svg" xmlns:xlink="http://www.w3.org/1999/xlink" x="0px" y="0px"
	 viewBox="0 0 429.7 293.1" enable-background="new 0 0 429.7 293.1" xml:space="preserve">
<g>
	<path fill="#FFFFFF" d="M214.8,3C97.4,3,2.3,58.3,2.3,126.5c0,52.6,56.6,97.5,136.3,115.3l23.3,47.3c1.3,2.7,5.4,1.8,5.4-1.3v-40.9
		c15.3,2,31.2,3.1,47.5,3.1c117.4,0,212.5-55.3,212.5-123.5S332.1,3,214.8,3z"/>
	<g>
		<g>
			<path fill-rule="evenodd" clip-rule="evenodd" fill="#3A494F" d="M183.7,7.6c-2.5,0.1-5.7,0.4-9.1,0.7c-1,0-0.7-0.3-2.4-0.2
				c-2.7,0.3-4.9,0.6-7.1,0.8C164.1,9,163,9.1,162,9.2c-1.1,0.1-2.2,0.3-3.3,0.5c-4.6,0.8-0.9,0.4-5.5,1.2c-4.6,0.8-2.8,0.2-7.4,1.1
				c-1.1,0.2-2.3,0.5-3.5,0.8c-1.2,0.3-2.4,0.7-3.7,1c-2.5,0.7-4.9,1.4-7.2,2c-4.5,1.2-1,0-5.5,1.1c-4.5,1.2-2.6,1-7.1,2.3
				c-4.5,1.3-8.8,2.2-11.9,2.9c-1.6,0.6-3.7,1.5-6,2.4c-1.1,0.5-2.3,0.9-3.6,1.4c-1.2,0.5-2.4,1.1-3.6,1.6c-1.2,0.5-2.4,1-3.5,1.5
				c-0.6,0.2-1.1,0.5-1.7,0.7c-0.5,0.3-1,0.5-1.5,0.7c-2,0.9-3.6,1.7-4.7,2.2c-2.1,0.9-3.4,1.6-4.4,2.1c-1,0.5-1.6,0.7-2.3,1
				c-1.3,0.5-2.5,0.9-6.2,2.9c0,0,1.8-1.1-2.3,1.2c-2,1.1-2.6,1.6-3.1,2c-0.6,0.4-1.1,0.8-3.1,2c-2,1.2-2.6,1.5-3.2,1.8
				c-0.6,0.3-1.2,0.7-3.2,1.9c-0.9,0.6-2.1,1.5-3.3,2.5c-1.1,1-2.2,2.1-2.7,2.8c-2.7,1.7-5.3,3.7-7.9,5.5c-2.5,1.9-4.6,3.8-6.4,5.3
				c-0.8,0.8-1.9,2-3.1,3.2c-0.6,0.6-1.2,1.3-1.9,2c-0.6,0.7-1.2,1.5-1.8,2.2c-2.6,3-4.8,6.2-6.2,8c-2.6,3.7-0.8,0.6-3.4,4.4
				c-1.3,1.9-1.8,2.9-2.3,4c-0.5,1-1.1,2-2.1,4c-2,4.2-2.3,4.3-2.3,4.2c0-0.1,0-0.3-0.2-0.1c-0.1,0.1-0.2,0.3-0.4,0.7
				c-0.2,0.4-0.4,0.9-0.7,1.6c-0.8,2.1-0.9,2.4-0.9,2.6c0,0.1,0,0.2-0.1,0.6c-0.1,0.4-0.4,0.9-0.7,2c-0.7,2.2-1.2,3.7-1.7,5.2
				c-0.4,1.5-0.8,3.1-1.3,5.3c-0.2,1.1-0.4,3.1-0.7,5.5c-0.2,1.2-0.1,2.5-0.2,3.9c0,0.7,0,1.4,0,2.1c0,0.7,0,1.4,0,2.1
				c0.1,1.4,0.1,2.8,0.3,4.2c0.2,1.4,0.3,2.7,0.5,3.8c0.4,2.4,0.8,4.3,1,5.4c0.2,1.1,0.5,2.4,0.8,3.7c0.3,1.4,0.8,2.8,1.1,4.2
				l0.3,1.1c0.1,0.3,0.2,0.7,0.4,1c0.2,0.7,0.5,1.4,0.7,2c0.4,1.3,1,2.5,1.4,3.6c0.9,2.1,2.2,4.6,3.6,7.1c0.7,1.2,1.4,2.3,2.1,3.4
				c0.7,1.1,1.4,2,1.9,2.8c0.6,0.8,0.9,1.5,1.1,2c0.2,0.4,0.2,0.6,0,0.6c0,0,1.1,1.5,2.8,3.8c0.9,1.1,1.9,2.4,3,3.7
				c1.1,1.3,2.4,2.7,3.6,4.1c5.1,5.5,10.8,10.4,10.8,10.4c-1.3-1.6-2.7-2.8-2.3-2.8c1.9,1.6,1.7,1.9,5.2,4.8
				c1.8,1.4,2.7,2.1,3.7,2.8c1,0.6,1.9,1.3,3.8,2.6c1.8,1.4,4.3,3.2,6.7,5c2.5,1.7,4.9,3.5,6.9,4.6c4,2.4,4.2,2.1,8.2,4.3
				c4.1,2.1,2.3,1.5,6.5,3.6c2.1,1,3.8,1.7,5.3,2.3c1.5,0.6,2.8,1,4,1.4c2.4,1.2-0.1,0.6,4.2,2.4c4.3,1.7-0.8-0.6,3.5,1.1
				c4.3,1.7-1,0,3.4,1.6c4.4,1.6-0.8-0.6,3.6,1c4.4,1.6,0.8,0.6,5.2,2.1c2.2,0.8,3.8,1.2,5.3,1.6c1.6,0.4,3.1,0.9,5.4,1.5
				c2.2,0.6,4,1.2,5.4,1.6c1.4,0.4,2.4,0.7,3.1,1.1c1.3,0.3,2.3,0.4,2.6,0.1c2.4,0.6,2.4,0.9,6.9,1.9c0.7,0.2,1.3,0.3,1.9,0.4
				c0.4,0.1,0.7,0.2,1.1,0.2c0.2,0,0.3,0.1,0.5,0.1c0.1,0,0.1,0.1,0.2,0.2l0.1,0.2c0.5,1,1.1,2.2,1.3,2.5c0.6,1,1.2,2,2.2,4.1
				c2.1,4.2,4.3,9.4,6.4,13.6c2.1,4.2,4.8,9.1,6.9,13.3c2.1,4.2,2.2,4.7,2.8,6.2c1,2.1,2,4.1,3,6.2l0.3,0.6c0.1,0.2,0.2,0.3,0.3,0.4
				c0.3,0.2,0.7,0.2,1,0.1c0.3-0.2,0.5-0.6,0.4-0.9l0-2.5c0-2.3,0-4.6,0-6.9c0.1-1,0.2,1.7,0.2-3c0-2.3-0.1-6.7-0.3-11.4
				c-0.1-2.4-0.2-4.8-0.3-7.2c0-1.2-0.1-2.3-0.1-3.4c0-0.3,0-0.5,0-0.8c0-0.4,0-0.7,0-1.1c0-1,0-1.9-0.1-2.8c0,0,0-0.8,0-1.9
				c0-0.3,0-0.6,0-0.9c0-0.3-0.2-0.9,0.3-0.6c0.7,0.1,1.5,0.2,2.2,0.3c2.6,0.3,5.2,0.7,5.2,0.7c0,0.1-0.2,0.1-0.5,0.1
				c-0.1,0-0.2,0-0.3,0c-0.2,0-0.4,0-0.7-0.1c-0.5,0-1.1-0.1-1.7-0.2c-1.2-0.1-2.6-0.2-4.1-0.4c-0.1,0,0,0.1,0,0.1l0,0.2l0,0.3
				l0,0.6c0,0.4,0,0.8,0,1.2c0,0.8,0.1,1.6,0.1,2.4c0,0,0-1.5,0-3.7c0-0.3,0-0.6,0-0.9v-0.1l0.1,0l0.1,0l0.2,0c0.2,0,0.3,0,0.5,0.1
				c0.6,0.1,1.3,0.2,2,0.2c1.2,0.2,2.6,0.3,3.9,0.5c3.4,0.4,6.9,0.8,6.9,0.8c4.6,0.4,2.1-0.1,6.7,0.3c4.6,0.4,6.5,0.8,11.1,1
				c4.7,0.2,2.8-0.1,7.5,0c4.7,0.1,0.9,0.3,5.6,0.4c4.7,0.1,6.5-0.3,11.2-0.3c1.2,0,2.7,0,4.5,0c1.8,0,3.8-0.1,5.7-0.1
				c2-0.1,4-0.1,5.7-0.2c1.8-0.1,3.3-0.2,4.5-0.3c1.7-0.1,4.6-0.3,7.2-0.6c2.7-0.3,5.2-0.6,6.5-1c2.7-0.1,6.6-0.5,8.1-0.4
				c5.1-0.7,6-0.6,5.9-1c0-0.3-3.7,0.3-3.2,0.1c2.4-0.1,4.8-0.5,7.2-0.7c2.4-0.3,4.8-0.6,7.1-1.1c0.6-0.1,3-0.7,5.5-1.3
				c2.5-0.6,4.9-1.4,5.6-1.8c0,0,1.7-0.4,3.3-0.8c0.8-0.2,1.7-0.4,2.3-0.5c0.6-0.2,1-0.3,1-0.3c0.3,0.3,3.9-0.4,5.4-0.6
				c1.3-0.4,2.2-0.8,2.6-1.3c2.3-0.5,4.2-0.9,6.1-1.4c1.9-0.5,3.8-0.9,6-1.7c2.2-0.8,5-1.8,7.8-3c2.8-1.2,5.6-2.3,7.7-3.2
				c4.3-1.8,2.7-0.8,7-2.6c4.2-1.9,3.4-1.6,3.8-2c2.7-1,0.6,0.4,4.8-1.6c4.2-2.1-0.9,0.2,3.2-1.9c2.1-1,3.1-1.5,4.2-2
				c1.1-0.5,2.1-1,4.1-2.1c3.6-1.9,5.7-3.3,7-4.2c1.4-1,2-1.6,2.4-2.3c0,0,0.4-0.2,0.9-0.6c0.5-0.4,1.2-0.8,2-1.3
				c1.4-1,2.8-1.9,2.8-1.9c0.2,0,0.9-0.2,1.9-0.7c1-0.5,2.2-1.2,3.3-2c3.7-2.8-0.9,0.3,2.8-2.4c3.6-2.9-0.5,0.8,3-2.1
				c3.6-2.9,5-4.8,7.3-7c1-1,1.9-2,3.1-3.1c0.6-0.6,1.2-1.2,1.9-1.9c0.3-0.3,0.7-0.7,1.1-1.1c0.3-0.4,0.7-0.8,1.1-1.2
				c0.8-0.9,2.1-2.3,3.7-4.2c0.8-0.9,1.6-2,2.5-3c0.4-0.5,0.9-1.1,1.3-1.6c0.4-0.6,0.8-1.2,1.3-1.7c0.8-1.2,1.7-2.3,2.5-3.5
				c0.8-1.1,1.4-2.3,2.1-3.3c0.6-1,1.2-2,1.7-2.8c0.4-0.8,0.8-1.6,1-2.1c0.4-0.9,0.8-1.7,1.2-2.5c0.2-0.4,0.4-0.7,0.5-1.1
				c0.1-0.4,0.3-0.7,0.4-1c0.5-1.3,0.9-2.4,1.2-3.2c0.7-1.8,0.9-2.9,1.1-3.7c0.2-0.8,0.3-1.4,0.5-2.2c0.2-0.8,0.5-1.8,0.9-3.6
				c0.4-1.9,0.7-3,0.9-3.8c0.2-0.8,0.3-1.4,0.5-2.2c0.2-0.8,0.4-1.8,0.7-3.7c0.2-0.9,0.2-2,0.3-3.4c0-0.7,0.1-1.4,0.1-2.3
				c0-0.4,0.1-0.8,0-1.3c0-0.5,0-0.9-0.1-1.4c-0.1-2.3-0.2-4.8-0.7-7.2c-0.2-1.2-0.4-2.5-0.6-3.7c-0.3-1.2-0.6-2.4-0.8-3.5
				c-0.4-2.2-1.4-5.2-2.2-8.3c-1.1-3-2.1-6.1-3.2-8.5c-0.7-1.4-1.3-2.1-1.7-2.2c0,0-0.2-0.4-0.4-0.9c-0.3-0.5-0.7-1.2-1.1-1.8
				c-0.8-1.3-1.5-2.7-1.5-2.7c-0.6-1-1-1.7-1.3-2.2c-0.3-0.5-0.5-0.9-0.7-1.3c-0.4-0.7-0.7-1.3-1.6-2.7c-0.4-0.9-0.2-0.9-1-2.2
				l-3.2-4.1c-3.1-3.5-2.1-2-4-3.8c-2.4-2.6-6.3-6.5-9-8.8c-1.3-1.1,1,1.2-2.5-1.9c-1.8-1.5-4.1-3.5-6.6-5.6c-2.5-2-5.1-4.1-7.2-5.7
				c-1.3-0.9-2.2-1.2-2.9-1.3c-0.6-0.4-1.3-0.9-2-1.5c-0.8-0.5-1.6-1.1-2.6-1.7c-0.9-0.6-1.9-1.2-2.9-1.8c-0.5-0.3-1-0.6-1.5-0.9
				c-0.5-0.3-1-0.6-1.5-0.9c-2-1.1-4.2-2.3-6.3-3.4c-2.1-1-4.2-2-6-2.8c-1.8-0.9-2.6-1.6-2.2-1.7c0,0-2.3-1.1-4.6-2.1
				c-1.2-0.5-2.3-1.1-3.2-1.4c-0.9-0.4-1.5-0.6-1.5-0.6c-1.5-0.5-1.3-0.1-1.6-0.1c0,0-2.2-0.9-4.5-1.8c-2.3-0.8-4.6-1.7-4.6-1.7
				c-4.4-1.6-1.8-1-6.3-2.5c-4.4-1.5-5.3-1.7-5.8-1.6c-6.3-2.1-7.5-2.6-8.7-3c-1.2-0.5-2.4-0.8-8.7-2.5c-2-0.5-4.1-0.9-6.1-1.4
				c-2.1-0.4-4.1-0.8-6-1.1c-3.7-0.6-6.8-1.1-8-1.3c-2.3-0.4-4.3-0.9-6.4-1.4c-2-0.5-4.1-1-6.4-1.3c-4.6-0.6-1,0.2-5.6-0.5
				c-4.6-0.6,1-0.2-3.7-0.7c-2.3-0.2-6.2-0.6-10.2-0.9c-4-0.2-8.2-0.4-11.3-0.4c-1.5,0,0.1,0-4.6-0.2c-2.3-0.1-5-0.3-7.6-0.4
				c-1.3-0.1-2.5-0.2-3.7-0.2c-0.3,0-0.6,0-0.8-0.1c-0.1,0-0.3,0-0.4,0c-0.1,0-0.1,0-0.1,0l0,0c0,0-0.1-0.1-0.1-0.1l-0.4,0
				c-0.1,0.1-0.1,0.4-0.1,0.6c-0.4-0.6-0.8-0.9-1.6-0.9c0-0.2,0.3-0.2,0.3-0.5c0-0.8-1.1-0.9-1.1-1.6c0-0.3,0-0.2,0.1-0.4
				c0.2-0.1,1.3-0.3,1.3-0.9c0-0.3-0.3-0.4-0.3-0.5c0.8,0,1-0.6,1.4-0.6c0.2,0,0.3,0.1,0.5,0.1l0.1,0l0,0c0,0,0,0,0,0l0.2,0
				c0.5,0,1.1,0,1.6,0.1c1.1,0,2.2,0.1,3.4,0.1c2.3,0,4,0,5.7,0c1.7,0,3.3,0,5.7,0.1c1.2,0.1,1.9,0.1,2.3,0.1c0.4,0,0.5,0.1,0.5,0.1
				c0,0-0.4,0.1,0.4,0.2c1.8,0.2,3.9,0.3,6,0.5c2.1,0.2,4.4,0.4,6.5,0.7c4.3,0.5,8.3,1,10.6,1.3c2.3,0.3,4.5,0.6,6.4,0.9
				c1.9,0.3,3.7,0.6,5.2,0.8c3.1,0.3,6.2,0.4,10.9,1.4c4.6,0.9,1.5,0.4,3.1,0.9c1.7,0.3,4,0.9,6.3,1.4c2.4,0.6,4.9,1.1,7.2,1.7
				c2.3,0.6,5.6,1.4,9.4,2.5c3.8,1.1,8,2.2,12,3.5c0.4,0.3-1.7-0.3-3.3-0.7c0,0.1,3.5,1.4,4.9,2.1c0.7,0.2,1,0.3,1.8,0.4
				c0.8,0.2,1.9,0.5,4.1,1.3c4.4,1.7,3.2,1.4,4.5,2c3,1,6,2.4,6.2,2c0.1-0.3-3.4-1.6-3.1-1.7c0,0,2.5,1,4.9,2c1.2,0.5,2.5,1,3.4,1.5
				c0.9,0.4,1.5,0.7,1.5,0.7c1.9,1.2,4.5,2.6,8.7,4.7c4.2,2.1-0.7-0.7,3.5,1.5c4.2,2.2-1-0.2,3.2,2.1c2.1,1.1,2.7,1.4,3.4,1.7
				c0.7,0.3,1.3,0.5,3.4,1.8c2,1.2,3,1.9,4,2.6c1,0.7,1.9,1.4,3.9,2.7c1,0.7,2.1,1.4,3.4,2.2c1.3,0.8,2.5,1.8,3.8,2.7
				c1.3,0.9,2.6,1.8,3.8,2.7c1.2,0.9,2.3,1.8,3.3,2.6c2.7,2,4.4,3.3,6.7,5.2c0.3,0.5-2.6-1.9-3-1.9c0.8,0.7,1.7,1.5,2.6,2.4
				c0.9,0.8,1.8,1.7,2.7,2.6c0.9,0.9,1.8,1.9,2.7,2.8c0.5,0.5,0.9,0.9,1.4,1.4c0.4,0.5,0.8,1,1.3,1.5c0.8,1,1.6,1.9,2.4,2.8
				c0.4,0.4,0.8,0.9,1.1,1.3c0.3,0.4,0.7,0.9,1,1.3c1.3,1.6,2.3,3,3,4c1.4,1.9,2.7,4,4,5.8c1.2,1.9,2.2,3.6,3.1,4.9l0.1,0
				c0.7,1.2,1.1,1.9,1.2,2.4c0.2,0.5,0.3,0.6,0.2,0.7c0,0.1-0.2-0.2,0.1,0.5c0.7,1.4,1.3,2.2,1.7,2.3c1.2,2.4,0.1,0.7,1.9,5.2
				c0.9,2.2,1.1,2.7,1.1,2.6c0-0.1-0.2-0.7,0-0.6c0.9,2.5,0.8,3.5,0.5,3.3c0.3,1.1,0.7,2.2,1,3.3c0.3,1.2,0.5,2.4,0.8,3.6
				c0.1,0.6,0.3,1.2,0.4,1.9c0.1,0.6,0.3,1.3,0.3,1.9c0.2,1.3,0.3,2.6,0.5,3.9c0.1,0.7,0.2,1.3,0.2,2l0.1,2c0.1,1.3,0.1,2.6,0.2,3.9
				c0,1.3-0.1,2.6-0.1,3.8c-0.1,1.3-0.1,2.5-0.2,3.7c-0.2,0.8,0-2-0.6,2.8c-0.2,1.2-0.3,3-0.7,4.9c-0.2,1-0.4,2.1-0.6,3.1
				c-0.1,0.5-0.2,1.1-0.3,1.7c-0.2,0.5-0.3,1.1-0.5,1.7c-1.1,4.5-2.8,8.8-3.7,11c-1.1,2.2-1.9,3.6-2.8,5.1c-0.9,1.4-1.9,2.8-3.1,4.9
				c-1.2,2.1-1.1,1.9-0.9,1.7c0.2-0.2,0.4-0.3-1,1.7c-2.6,4.1-5.9,7.5-7,8.5c-0.8,1.1-1.4,1.9-1.3,2.4c0,0-1.2,1.3-2.4,2.7
				c-1.1,1.4-2.4,2.6-2.4,2.6c-0.3,0-3,2.6-4.1,3.4c-0.8,0.9-3.5,3.5-4.4,5.1c0,0-0.3,0.3-0.8,0.7c-0.5,0.4-1.2,1-1.9,1.5
				c-1.4,1.1-2.7,2.2-2.7,2.2c-0.3,0,2.6-2.5,2.5-2.6c-1.4,1,0.6-0.6-3.1,2.4c-0.5,0.4-0.9,0.8-1.3,1.1c-0.4,0.4-0.9,0.7-1.3,1
				c-0.8,0.7-1.7,1.4-2.5,2.1c-0.8,0.7-1.6,1.4-2.5,2.1c-0.9,0.7-1.8,1.3-2.8,2c-4,2.6-2.5,1.4-6.5,3.9c-2,1.2-2.6,1.7-3.2,2.1
				c-0.6,0.4-1.1,0.9-3.2,2c-4.2,2.3-1,0.2-5.1,2.5c-4.2,2.2-3.3,1.8-3.8,2.2c-1.3,0.6-2.6,1.1-3.9,1.6c-1.3,0.5-2.6,1-4,1.6
				c-1.4,0.6-3.4,1.5-5.7,2.5c-2.2,0.9-4.7,2-6.9,2.9c-4.4,1.7-9.7,3.6-13,4.8c-2,0.7-3.1,1.3-5.7,2.4c0,0,2-0.5-2.5,0.8
				c-4.5,1.3-6.4,1.6-9,2c-1.2,0.2-3,0.8-7.6,2c-3.9,0.9-6.5,1.5-8.4,2c-1.9,0.5-3,0.7-3.8,1c-1.7,0.5-2.3,0.7-6.2,1.5
				c-3,0.5-4.8,0.7-6.7,0.8c-2,0.2-4.1,0.3-7.6,0.6l-5.1,0.7c-1.5,0.3-1.2,0.1-1.2,0.4c0,0.3,3.8-0.2,3.5,0.1c0,0-0.8,0.1-2.1,0.3
				c-1.3,0.2-3,0.4-4.7,0.5c-3.4,0.4-6.8,0.7-6.8,0.7c-4.7,0.4-5,0.1-9.7,0.5c-4.7,0.3-6.9,0.5-9.8,0.8c-0.6-0.2,3.2-0.5,3.2-0.6
				c-1.7,0,0.9-0.1-3.8,0.1c-2.4,0.1-3.1,0.2-3.8,0.3c-0.7,0.1-1.4,0.2-3.8,0.2c-4.7,0.1-2.8-0.2-7.5-0.2c-4.7,0-8.5,0.2-13.2,0
				c-4.7-0.2-6.6-0.6-11.3-0.9c-4.7-0.3,0.9,0.4-3.8,0c-4.7-0.4-0.9-0.3-5.6-0.8c-4.7-0.5-1,0.2-5.7-0.3c-0.6-0.1-1.2-0.1-1.7-0.2
				c-0.3,0-0.6-0.1-0.9-0.1l-0.4-0.1l-0.1,0c-0.3-0.1-0.6-0.2-1-0.3c-0.1-0.1-0.1,0.1-0.1,0.1c0,0.1,0,0.1,0,0.2
				c0,0.1-0.1,0.2-0.1,0.3c-0.1,0.2-0.1,0.4-0.2,0.6c0.1,3,0.1,6.3,0.4,6.3s0.2-3.7,0.4-3.5c0,6.3-0.3,6.3-0.3,11
				c0,4.7,0.1,3.7,0.3,4.3c-0.3,4.8-0.6,7.9-0.6,12.5c0,1.2,0,2.2,0,3.1c0,0.4,0,0.9,0,1.3c0,0.7,0,1.3,0,1.9c0,0.3,0,0.6-0.1,0.9
				c-0.1,0.3-0.1,0.6-0.2,0.8c-0.1,0.3-0.2,0.5-0.3,0.8c-0.1,0.3-0.2,0.5-0.4,0.7c-0.6,1-1.7,1.7-3.1,2.1c-0.7,0.1-1.3,0.1-1.9,0
				c-0.6-0.1-1.1-0.3-1.7-0.7c-0.6-0.4-1.2-0.9-1.7-1.9c-0.1-0.3-0.3-0.5-0.4-0.8c-0.1-0.3-0.3-0.6-0.4-1c-0.1-0.2-0.1-0.3-0.2-0.5
				c0-0.1-0.1-0.2-0.1-0.3c-0.1-0.2-0.2-0.5-0.3-0.7l-0.7,0.4l-1.1-2.2l-5.3-10.6c0.1-0.3-1.5-3.6-1.8-4.9c-2.4-4.2-7-13-9.1-17.2
				c-1-2.1-2-4.2-2.7-6c-0.2-0.4-0.4-0.9-0.5-1.3c-0.1-0.2-0.2-0.4-0.2-0.6c0-0.1-0.1-0.2-0.1-0.3c0-0.1-0.1-0.2-0.1-0.2
				c0-0.1,0-0.2,0-0.3c0-0.1,0-0.2-0.1-0.2c-0.1,0-0.2,0-0.3,0c-0.1,0-0.1,0-0.2,0l-0.4,0c-0.5,0-0.8,0-1.1,0.2
				c-2-0.6-4.5-1.2-7-1.9c-2.5-0.7-5.2-1.5-7.8-2.3c-2.5-0.8-5-1.5-7-2.2c-2.1-0.7-3.8-1.2-4.9-1.6c-6-2.1-5.8-2-5.8-1.4
				c0,0-0.6-0.2-1.5-0.5c-0.9-0.3-2-0.8-3.2-1.2c-2.3-0.8-4.6-1.8-4.6-1.8c-2.2-0.9-4.8-2.1-7.4-3.4c-2.6-1.3-5.2-2.6-7.3-3.7
				c-2.1-1-2.8-1.3-3.5-1.5c-0.7-0.3-1.3-0.5-3.4-1.6c-4.2-2.2-7.4-4.3-11.4-6.7c-2-1.2-3.4-2.1-4.9-2.9c-1.5-0.8-2.8-1.7-4.8-3.1
				c-3.9-2.7,0.9,0.4-2.9-2.4c-3.8-2.8-2.5-1.4-6.2-4.4c-0.9-0.7-1.7-1.4-2.4-2c-0.7-0.6-1.3-1.2-1.9-1.8c-1.2-1.1-2.4-2.3-4.2-3.9
				c-3.5-3.3-2.3-1.7-5.6-5.1c-1.7-1.7-1.4-1.6-1.2-1.5c0.2,0.1,0.4,0.3-1.2-1.5c-3.2-3.5-2.1-2-5.2-5.6c-0.8-0.9-1.4-1.9-2.1-2.8
				c-0.6-0.9-1.3-1.8-1.8-2.7c-1-1.7-1.7-3.1-2.1-3.8c-0.8-1.2-1.4-1.9-1.8-2c-0.7-1.1-0.7-1.3-0.9-1.7c-0.2-0.4-0.5-1-1.6-3.2
				c-2.2-4.3,0.2,1-2-3.3c-2-4.4,0.6,0.8-1.3-3.6c-1.7-4.5-0.8-1.9-1.3-2.7c-0.7-1.7-1.9-5.3-2.8-9c-0.2-0.9-0.4-1.8-0.7-2.7
				c-0.2-0.9-0.3-1.7-0.5-2.5c-0.3-1.6-0.7-2.9-0.9-3.8c-0.3-2.5,0-3.4,0-4c0-1.5,0.1-3,0.1-4.8c0.1-1.8,0.3-3.8,0.4-6.2
				c0.1-1.4,0.3-3.1,0.3-4.5c0.1-1.5,0-2.8,0-3.6c0,0,0.6-2.7,1.2-5.3c0.8-2.6,1.6-5.2,1.6-5.2c0.2-0.5,0.4-1,0.7-1.4
				c0.2-0.4,0.5-0.9,0.7-1.4c0.5-1,1.1-2.4,2-4.6c2.1-4.3,0.2-1,2.3-5.3c1.1-2.1,2.1-3.5,3-4.9c0.9-1.4,1.9-2.8,3.2-4.8
				c0.7-1,1.2-1.8,1.7-2.5c0.5-0.7,1-1.2,1.3-1.7c0.7-1,1.3-1.7,1.8-2.3c1-1.4,0.6-1.4,1.2-2.2c0.6-0.8,1.7-2.1,3.3-3.8
				c0.4-0.4,0.8-0.9,1.2-1.4c0.4-0.5,0.9-1,1.4-1.5c1-1.1,2.1-2.2,3.3-3.5c0.5-0.2-1,1.4-2.1,2.7c0.1,0,0.8-0.6,1.6-1.4
				c0.4-0.4,0.9-0.8,1.3-1.1c0.4-0.3,0.8-0.6,1.1-0.8c1.1-1.1,2.4-2.4,3.9-3.8c1.5-1.4,3.2-2.8,5.1-4.3c1.8-1.5,3.3-2.4,4.6-3.4
				c0.7-0.5,1.4-0.9,2.1-1.5c0.7-0.5,1.6-1.1,2.6-1.8c3.9-2.6-0.9,0.3,3-2.3c3.9-2.6,1.3-0.7,2.8-1.6c1.5-0.9,2.7-1.6,3.9-2.4
				c1.3-0.8,2.6-1.7,4.7-2.8c2.1-1.1,4.2-2.3,6.1-3.4c1.9-1,3.7-1.9,5-2.7l0-0.1c2.4-1.2,2.8-1.3,3.1-1.4c0.3-0.1,0.6-0.1,2.7-1.1
				c2.2-1,2.8-1.3,3.4-1.7c0.6-0.4,1.2-0.7,3.4-1.6c4.4-1.8,2.7-0.9,7.1-2.6c4.4-1.6,0.8-0.6,5.2-2.2c2.2-0.8,2.9-1,3.6-1.2
				c0.7-0.2,1.4-0.3,3.6-1.1c4.5-1.5,7.2-2.6,9.6-3.6c1.1-0.3,2.4-0.6,3.7-0.9c1.3-0.3,2.7-0.6,4.2-0.9c2.8-0.6,5.6-1.3,7.9-1.8
				c4.6-1.1,2.7-0.9,7.3-2c4.6-0.9,1,0.1,5.6-0.8c4.6-0.9,3.7-0.8,3.9-1c2.5-0.5,3.5-0.3,3.3,0c0,0,2-0.3,5-0.8
				c0.7-0.1,1.6-0.3,2.4-0.4c0.9-0.1,1.8-0.2,2.7-0.4c1.9-0.3,3.9-0.5,5.9-0.8c4-0.5,8-0.9,11-1.2c1.5-0.2,2.8-0.2,3.6-0.3
				c0.9-0.1,1.4-0.1,1.4-0.1c4.7-0.4-1-0.2,3.7-0.6c4.7-0.3,1,0.2,5.7-0.1c4.7-0.2,2.8-0.4,7.5-0.6c4.7-0.1,2.8,0.2,7.5,0.1
				c0.1,0,0.3,0,0.4,0l0.1,0c0,0,0.1,0,0.1,0c0,0,0.1,0,0.1,0c0,0,0-0.1,0-0.2c0.2,0.2,0.5,0.5,0.6,0.8c0.4,0.1,1,0.3,1.1,0.6
				c0.1,0,0.2-0.2,0.2-0.6l0.5,0c0.3,0,0.3,0.3,0.6,0.3c0.1,0.3,0.3,0.3,0.3,0.6c0,0.3-0.3,0.2-0.3,0.6c0,0.3,0.2,0.6,0.6,0.7
				c-0.3,0.5-0.6,0.9-0.9,1.3c-0.2,0-0.3-0.3-0.5-0.3l0,0.8l-0.4,0c-0.3,0-0.1-0.1-0.2-0.3c-0.1,0-0.2,0.2-0.2,0.5
				c-0.2,0-0.2-0.1-0.3-0.2c-0.2,0-0.5,0-0.8-0.1l-0.4,0c-1.7,0-3.4,0-5,0c-1.8,0-3.6,0.1-5.2,0.1c-1.6,0.1-3.2,0.1-4.6,0.2
				c-2.8,0.1-4.9,0.2-6.1,0.3c-2.3,0.2-4.8,0.4-7,0.5c-2.3,0.2-4.4,0.5-6,0.7C178.9,7.7,182.5,7.5,183.7,7.6z"/>
		</g>
	</g>
</g>
<g>
</g>
<g>
</g>
<g>
</g>
<g>
</g>
<g>
</g>
<g>
</g>
<g>
</g>
<g>
</g>
<g>
</g>
<g>
</g>
<g>
</g>
<g>
</g>
<g>
</g>
<g>
</g>
<g>
</g>
</svg>
