<?xml version="1.0" encoding="utf-8"?>
<!-- Generator: Adobe Illustrator 18.0.0, SVG Export Plug-In . SVG Version: 6.00 Build 0)  -->
<!DOCTYPE svg PUBLIC "-//W3C//DTD SVG 1.1//EN" "http://www.w3.org/Graphics/SVG/1.1/DTD/svg11.dtd">
<svg version="1.1" id="Layer_1" xmlns="http://www.w3.org/2000/svg" xmlns:xlink="http://www.w3.org/1999/xlink" x="0px" y="0px"
	 viewBox="0 0 68.7 12.3" enable-background="new 0 0 68.7 12.3" xml:space="preserve">
<g>
	<path fill="#FFFFFF" d="M4.3,3.8c0.3,0,0.5,0,0.7,0C5,3.9,5.1,3.9,5.1,4s0.1,0.2,0.1,0.3C5.1,5.6,4.9,6.7,4.5,7.6
		c0,0.1,0,0.1,0,0.2c0.3,0.3,0.7,0.5,1.1,0.6s1,0.2,1.6,0.2c1,0,1.8,0,2.3,0h0c0.1,0,0.2,0.1,0.3,0.2C10,8.9,10,8.9,10,9
		c0,0,0,0.1,0,0.1C9.9,9.3,9.8,9.5,9.7,9.6C9.5,9.7,9.4,9.7,9.2,9.7h-2c-0.7,0-1.3-0.1-1.8-0.2C4.9,9.4,4.4,9.1,4,8.8
		c0,0-0.1,0-0.1,0C3.8,9,3.7,9.1,3.6,9.2C3.5,9.4,3.3,9.4,3.1,9.4c0,0-0.1,0-0.1,0c-0.2,0-0.4-0.1-0.6-0.3c0,0,0,0,0,0c0,0,0,0,0,0
		s0,0,0,0v0.2c0,0.1-0.1,0.3-0.2,0.4C2.1,9.8,2,9.8,1.8,9.8S1.6,9.8,1.5,9.7C1.4,9.6,1.3,9.5,1.3,9.3V4.5c0,0,0,0,0,0c0,0,0,0,0,0
		c0,0.1-0.1,0.1-0.1,0.2C1.1,4.8,1,4.9,0.8,4.9c0,0,0,0-0.1,0c-0.2,0-0.3-0.1-0.3-0.3C0.4,4.4,0.4,4.3,0.4,4.1c0,0,0-0.1,0-0.1
		c0-0.2,0.1-0.4,0.2-0.6c0.5-0.8,0.9-1.6,1.3-2.6c0-0.1,0.1-0.3,0.3-0.3c0.1,0,0.2-0.1,0.3-0.1c0.1,0,0.1,0,0.2,0l0.1,0
		c0.1,0,0.2,0.1,0.3,0.2C3,0.7,3,0.7,3,0.8c0,0,0,0.1,0,0.1C3,1,3,1,3,1h1.1c0,0,0,0,0,0c0.1,0,0.2,0,0.3,0L4.7,1
		c0.1,0,0.2,0.1,0.2,0.2C5,1.3,5,1.4,4.9,1.5C4.7,2.2,4.4,2.9,4,3.8c0,0,0,0.1,0,0.1H4.3z M2.4,2.3c0,0.1-0.1,0.1-0.1,0.2v6.2
		c0,0,0,0,0,0s0,0,0.1,0C2.7,8.6,3,8.3,3.2,7.9c0-0.1,0-0.1,0-0.2C3,7.2,2.8,6.7,2.6,6.1c0,0,0-0.1,0-0.1c0-0.1,0-0.2,0.1-0.2
		C2.7,5.6,2.8,5.5,3,5.5c0,0,0.1,0,0.1,0c0.1,0,0.1,0,0.2,0.1c0.1,0.1,0.2,0.2,0.2,0.3c0.1,0.2,0.1,0.4,0.2,0.6c0,0,0,0,0,0
		c0,0,0,0,0,0C3.9,6,4,5.4,4.1,4.8c0,0,0-0.1,0-0.1s0,0-0.1,0H3.7c0,0-0.1,0-0.1,0.1c0,0.1-0.1,0.2-0.2,0.2C3.3,5,3.2,5.1,3.2,5.1
		c0,0-0.1,0-0.1,0L2.9,5C2.8,5,2.7,4.9,2.7,4.8c0-0.1-0.1-0.1-0.1-0.2c0-0.1,0-0.1,0-0.2c0.3-0.8,0.7-1.5,1-2.4c0,0,0,0,0-0.1
		c0,0,0,0,0,0H3.4C3.2,2,3.1,1.9,3,1.8C2.9,1.7,2.8,1.6,2.8,1.4c0,0,0,0,0,0C2.7,1.7,2.6,2,2.4,2.3z M6.6,2.3c0.1,0,0.1,0,0.1-0.1V2
		c0-0.1,0-0.1-0.1-0.1H5.9c-0.1,0-0.2,0-0.3-0.1C5.5,1.7,5.4,1.6,5.4,1.4c0-0.1,0-0.2,0.1-0.3C5.6,1,5.7,1,5.9,1h0.8
		c0,0,0.1,0,0.1-0.1V0.8c0-0.2,0.1-0.3,0.2-0.4C7,0.3,7.1,0.2,7.3,0.2c0.2,0,0.3,0.1,0.4,0.2s0.2,0.2,0.2,0.4v0.1C7.8,1,7.9,1,7.9,1
		h0.8C9,1,9.2,1.1,9.3,1.2c0.2,0.2,0.3,0.4,0.3,0.6v0.4c0,0,0,0.1,0.1,0.1h0c0.1,0,0.2,0,0.3,0.1c0.1,0.1,0.1,0.2,0.1,0.3
		c0,0.1,0,0.2-0.1,0.3C9.9,3.2,9.8,3.2,9.7,3.2h0c0,0-0.1,0-0.1,0.1v0.4c0,0.2-0.1,0.5-0.3,0.6S9,4.6,8.7,4.6H7.9
		c-0.1,0-0.1,0-0.1,0.1V5c0,0.1,0,0.1,0.1,0.1h1.3c0.1,0,0.2,0,0.3,0.1c0.1,0.1,0.1,0.2,0.1,0.3s0,0.2-0.1,0.3C9.4,6,9.3,6,9.2,6
		H7.9C7.9,6,7.8,6,7.8,6.1v0.3c0,0.1,0,0.1,0.1,0.1h1.5c0.1,0,0.2,0,0.3,0.1C9.9,6.7,9.9,6.8,9.9,7s0,0.2-0.1,0.3
		C9.7,7.4,9.6,7.4,9.5,7.4H7.9c-0.1,0-0.1,0-0.1,0.1v0.3c0,0.2-0.1,0.3-0.2,0.4S7.4,8.4,7.3,8.4C7.1,8.4,7,8.3,6.9,8.2
		C6.8,8.1,6.7,8,6.7,7.8V7.5c0-0.1,0-0.1-0.1-0.1H5.5c-0.1,0-0.2,0-0.3-0.1C5.1,7.2,5,7.1,5,7s0-0.2,0.1-0.3
		c0.1-0.1,0.2-0.1,0.3-0.1h1.1c0.1,0,0.1,0,0.1-0.1V6.1C6.7,6,6.7,6,6.6,6H5.7C5.6,6,5.5,6,5.4,5.9C5.3,5.8,5.3,5.7,5.3,5.6
		s0-0.2,0.1-0.3c0.1-0.1,0.2-0.1,0.3-0.1h0.9c0.1,0,0.1,0,0.1-0.1V4.7c0-0.1,0-0.1-0.1-0.1H5.9c-0.1,0-0.2,0-0.3-0.1
		C5.5,4.4,5.4,4.3,5.4,4.2c0-0.1,0-0.2,0.1-0.3s0.2-0.1,0.3-0.1h0.7c0.1,0,0.1,0,0.1-0.1V3.3c0-0.1,0-0.1-0.1-0.1H5.2
		c-0.1,0-0.2,0-0.3-0.1C4.8,3,4.7,2.9,4.7,2.8c0-0.1,0-0.2,0.1-0.3C5,2.4,5.1,2.3,5.2,2.3H6.6z M8.6,2c0-0.1,0-0.1-0.1-0.1H7.9
		c-0.1,0-0.1,0-0.1,0.1v0.3c0,0.1,0,0.1,0.1,0.1h0.5c0.1,0,0.1,0,0.1-0.1V2z M8.5,3.7c0.1,0,0.1,0,0.1-0.1V3.3c0-0.1,0-0.1-0.1-0.1
		H7.9c-0.1,0-0.1,0-0.1,0.1v0.3c0,0.1,0,0.1,0.1,0.1H8.5z"/>
	<path fill="#FFFFFF" d="M20.6,5.2c0,0.2-0.1,0.5-0.3,0.6s-0.4,0.3-0.6,0.3h-1.3c0,0,0,0-0.1,0c0,0,0,0,0,0.1
		c0.1,0.3,0.3,0.6,0.5,0.8c0,0.1,0.1,0.1,0.2,0c0.3-0.2,0.5-0.3,0.8-0.5c0.1-0.1,0.3-0.2,0.5-0.2c0.2,0,0.3,0.1,0.4,0.2
		c0.1,0.1,0.2,0.2,0.2,0.3c0,0.2-0.1,0.3-0.2,0.4c-0.3,0.2-0.7,0.4-1,0.6c0,0,0,0,0,0s0,0,0,0.1c0.3,0.3,0.7,0.5,1.1,0.7
		C20.9,8.6,21,8.7,21,8.8c0,0,0,0.1,0,0.1c0,0.1,0,0.2-0.1,0.3c-0.1,0.1-0.3,0.3-0.4,0.3c-0.1,0-0.1,0-0.2,0c-0.1,0-0.2,0-0.3-0.1
		c-0.8-0.4-1.5-1-2-1.8c0,0,0,0,0,0s0,0,0,0v0.9c0,0.3,0,0.5-0.1,0.7c-0.1,0.2-0.2,0.3-0.4,0.4c-0.2,0.1-0.5,0.1-1,0.2c0,0,0,0,0,0
		c-0.2,0-0.4-0.1-0.6-0.2c-0.2-0.1-0.4-0.3-0.5-0.6C15.3,9,15.2,9,15.2,9c-0.2,0.1-0.4,0.2-0.5,0.2c-0.1,0-0.2,0.1-0.3,0.1
		c-0.1,0-0.1,0-0.2,0C14,9.2,13.9,9.1,13.8,9c0-0.1-0.1-0.2-0.1-0.2c0-0.1,0-0.1,0-0.2c0.1-0.1,0.1-0.2,0.3-0.3
		c0.4-0.1,1-0.4,1.7-0.6c0,0,0.1,0,0.2,0c0.1,0,0.1,0,0.2,0.1c0.1,0.1,0.2,0.1,0.2,0.3c0,0,0,0.1,0,0.1c0,0.1,0,0.2-0.1,0.2
		c-0.1,0.1-0.1,0.2-0.3,0.3c0,0-0.2,0.1-0.4,0.2c0,0,0,0,0,0c0,0,0,0,0,0c0.2,0,0.4,0,0.6,0c0.1,0,0.2,0,0.3,0c0.1,0,0.2,0,0.2-0.1
		c0,0,0.1-0.1,0.1-0.2V6.2c0-0.1,0-0.1-0.1-0.1h-1.9c0,0,0,0,0,0c0,0,0,0,0,0c0.4,0.2,0.7,0.4,1,0.5c0.1,0.1,0.2,0.2,0.2,0.4
		c0,0.1,0,0.2-0.1,0.3c-0.1,0.1-0.2,0.2-0.4,0.2c0,0,0,0,0,0c-0.1,0-0.2,0-0.4-0.1c-0.1-0.1-0.3-0.2-0.4-0.3
		c-0.2-0.1-0.3-0.3-0.3-0.5c0,0,0-0.1,0-0.1c0-0.2,0.1-0.3,0.2-0.4l0.1-0.1v0c0,0-0.1,0-0.1,0c0,0,0-0.1,0-0.1V5.7
		c0-0.1,0-0.2,0.1-0.3c0.1-0.1,0.2-0.1,0.3-0.1h1.8c0.1,0,0.1,0,0.1-0.1V4.9c0-0.1,0-0.1-0.1-0.1h-2.2c-0.1,0-0.2,0-0.3-0.1
		C14,4.6,14,4.5,14,4.3s0-0.2,0.1-0.3c0.1-0.1,0.2-0.1,0.3-0.1h2.2c0.1,0,0.1,0,0.1-0.1V3.5c0-0.1,0-0.1-0.1-0.1H15
		c-0.1,0-0.2,0-0.3-0.1c-0.1-0.1-0.1-0.2-0.1-0.3s0-0.2,0.1-0.3c0.1-0.1,0.2-0.1,0.3-0.1h1.7c0.1,0,0.1,0,0.1-0.1V2.2
		c0-0.1,0-0.1-0.1-0.1h-2.8c-0.1,0-0.1,0-0.1,0.1V4c0,2.3-0.3,4.1-0.8,5.3c-0.1,0.1-0.2,0.2-0.3,0.3c0,0-0.1,0-0.1,0
		c-0.1,0-0.2,0-0.3-0.1C12.1,9.4,12,9.3,12,9.2c0-0.1,0-0.1,0-0.2c0-0.1,0-0.2,0.1-0.3c0.3-0.6,0.4-1.3,0.5-2.1
		C12.6,5.8,12.6,5,12.6,4V1.9c0-0.2,0.1-0.5,0.3-0.6S13.3,1,13.5,1h2.7c0.1,0,0.1,0,0.1-0.1V0.8c0-0.2,0.1-0.3,0.2-0.5
		c0.1-0.1,0.3-0.2,0.5-0.2s0.3,0.1,0.5,0.2c0.1,0.1,0.2,0.3,0.2,0.5v0.1c0,0.1,0,0.1,0.1,0.1h3.1c0.1,0,0.3,0.1,0.4,0.2
		c0.1,0.1,0.2,0.2,0.2,0.4c0,0.1-0.1,0.3-0.2,0.4c-0.1,0.1-0.2,0.2-0.4,0.2h-2.8c-0.1,0-0.1,0-0.1,0.1v0.3c0,0.1,0,0.1,0.1,0.1h1.6
		c0.2,0,0.5,0.1,0.6,0.3s0.3,0.4,0.3,0.6v0.3c0,0.1,0,0.1,0.1,0.1h0.4c0.1,0,0.2,0,0.3,0.1c0.1,0.1,0.1,0.2,0.1,0.3s0,0.2-0.1,0.3
		c-0.1,0.1-0.2,0.1-0.3,0.1h-0.4c-0.1,0-0.1,0-0.1,0.1V5.2z M18.1,3.4c-0.1,0-0.1,0-0.1,0.1v0.3c0,0.1,0,0.1,0.1,0.1h1.2
		c0.1,0,0.1,0,0.1-0.1V3.5c0-0.1,0-0.1-0.1-0.1H18.1z M18.1,4.8c-0.1,0-0.1,0-0.1,0.1v0.3c0,0.1,0,0.1,0.1,0.1h1.2
		c0.1,0,0.1,0,0.1-0.1V4.9c0-0.1,0-0.1-0.1-0.1H18.1z"/>
	<path fill="#FFFFFF" d="M32.5,3.3c0.2,0,0.3,0.1,0.4,0.2S33,3.7,33,3.9C33,4,33,4.2,32.8,4.3s-0.2,0.2-0.4,0.2h-0.1
		c0,0-0.1,0-0.1,0.1v4c0,0.3,0,0.5-0.1,0.7S32,9.6,31.9,9.7c-0.1,0.1-0.3,0.1-0.5,0.2c0,0-0.1,0-0.1,0c-0.2,0-0.4-0.1-0.5-0.2
		c-0.2-0.2-0.3-0.4-0.4-0.6c0-0.1,0-0.1-0.1-0.2h0c0,0.1,0,0.1-0.1,0.2S30,9.1,30,9.1c-0.8,0.1-2,0.1-3.5,0.2c0,0,0,0,0,0
		c-0.1,0-0.2,0-0.3-0.1C26,9.1,26,9,25.9,8.9c0,0,0,0,0-0.1c0-0.1,0-0.2,0.1-0.3c0.1-0.1,0.2-0.2,0.3-0.2c0.2,0,0.6,0,1.1-0.1
		c0.1,0,0.1,0,0.1-0.1V7.9c0-0.1,0-0.1-0.1-0.1h-0.9c-0.1,0-0.2,0-0.3-0.1c-0.1-0.1-0.1-0.2-0.1-0.3s0-0.2,0.1-0.3
		c0.1-0.1,0.2-0.1,0.3-0.1h0.9c0.1,0,0.1,0,0.1-0.1V6.5c0-0.1,0-0.1-0.1-0.1H27c-0.2,0-0.5-0.1-0.6-0.3s-0.3-0.4-0.3-0.6V4.3
		c0-0.2,0.1-0.5,0.3-0.6s0.4-0.3,0.6-0.3h0.5c0.1,0,0.1,0,0.1-0.1V3c0-0.1,0-0.1-0.1-0.1h-1.4C26,2.9,26,3,25.9,3
		c-0.1,0.3-0.3,0.5-0.4,0.8c0,0.1-0.1,0.1-0.1,0.2v5.3c0,0.2-0.1,0.3-0.2,0.4c-0.1,0.1-0.2,0.2-0.4,0.2s-0.3-0.1-0.4-0.2
		s-0.2-0.2-0.2-0.4V5.6c0,0,0,0,0,0s0,0,0,0c0,0-0.1,0.1-0.1,0.1c-0.1,0.1-0.2,0.2-0.3,0.2c0,0-0.1,0-0.1,0c-0.2,0-0.3-0.1-0.4-0.2
		c-0.1-0.1-0.1-0.3-0.1-0.4c0,0,0-0.1,0-0.1c0-0.2,0.1-0.4,0.2-0.5c0.4-0.5,0.8-1,1.1-1.5c0.1-0.2,0.3-0.4,0.5-0.5
		c0.1-0.1,0.2-0.1,0.4-0.1c0.1,0,0.2,0,0.3,0.1l0.1,0c0,0,0,0,0.1,0s0,0,0,0c0-0.2,0.1-0.3,0.2-0.4S26.4,2,26.6,2h0.9
		c0.1,0,0.1,0,0.1-0.1V1.6c0,0,0-0.1,0-0.1c0,0,0,0-0.1,0c-0.3,0-0.5,0-0.8,0c0,0,0,0,0,0c-0.1,0-0.2,0-0.3-0.1
		c-0.1-0.1-0.2-0.2-0.2-0.3c0-0.1,0-0.2,0-0.3c0.1-0.1,0.1-0.1,0.2-0.2c1.1-0.1,1.9-0.2,2.7-0.3c0,0,0.1,0,0.1,0
		c0.1,0,0.2,0,0.3,0.1c0.1,0.1,0.3,0.2,0.4,0.3c0,0.1,0.1,0.1,0.1,0.2c0,0,0,0.1,0,0.1c0,0.1-0.1,0.2-0.3,0.2
		c-0.3,0.1-0.6,0.1-1,0.1c-0.1,0-0.1,0.1-0.1,0.1v0.4c0,0.1,0,0.1,0.1,0.1h1.1c0.1,0,0.3,0,0.3,0.1c0.1,0.1,0.1,0.2,0.1,0.3
		s0,0.2-0.1,0.3s-0.2,0.1-0.3,0.1h-1.1c-0.1,0-0.1,0-0.1,0.1v0.3c0,0.1,0,0.1,0.1,0.1h0.5c0.2,0,0.5,0.1,0.6,0.3s0.3,0.4,0.3,0.6
		v1.3c0,0.2-0.1,0.5-0.3,0.6s-0.4,0.3-0.6,0.3h-0.5c-0.1,0-0.1,0-0.1,0.1v0.2c0,0.1,0,0.1,0.1,0.1h0.9c0.1,0,0.2,0,0.3,0.1
		c0.1,0.1,0.1,0.2,0.1,0.3s0,0.2-0.1,0.3c-0.1,0.1-0.2,0.1-0.3,0.1h-0.9c-0.1,0-0.1,0-0.1,0.1v0.3c0,0,0,0.1,0,0.1c0,0,0,0,0.1,0
		l1.1-0.1c0,0,0,0,0,0c0.1,0,0.2,0,0.3,0.1c0.1,0.1,0.1,0.2,0.1,0.3c0,0,0,0.1,0.1,0.1c0.2,0,0.4,0,0.7,0c0.1,0,0.1,0,0.1,0
		c0,0,0-0.1,0-0.1v-4c0-0.1,0-0.1-0.1-0.1h-0.2c-0.2,0-0.3-0.1-0.4-0.2S30.3,4,30.3,3.9c0-0.2,0.1-0.3,0.2-0.4s0.2-0.2,0.4-0.2H32.5
		z M24.5,0.6c0.1-0.1,0.2-0.2,0.4-0.3c0.1,0,0.2-0.1,0.2-0.1s0.2,0,0.2,0.1c0.1,0,0.2,0.1,0.3,0.3c0,0,0,0.1,0,0.1
		c0,0.1,0,0.2-0.1,0.3c-0.4,0.6-0.9,1.2-1.5,1.7c-0.1,0.1-0.2,0.1-0.3,0.1c0,0-0.1,0-0.1,0c-0.1,0-0.3-0.1-0.3-0.2
		c-0.1-0.1-0.1-0.2-0.1-0.3c0,0,0-0.1,0-0.1c0-0.2,0.1-0.3,0.2-0.4C23.9,1.4,24.3,1,24.5,0.6z M27.1,4.1c-0.1,0-0.1,0-0.1,0.1v0.2
		c0,0.1,0,0.1,0.1,0.1h0.5c0.1,0,0.1,0,0.1-0.1V4.2c0-0.1,0-0.1-0.1-0.1H27.1z M26.9,5.6c0,0.1,0,0.1,0.1,0.1h0.5
		c0.1,0,0.1,0,0.1-0.1V5.3c0-0.1,0-0.1-0.1-0.1h-0.5c-0.1,0-0.1,0-0.1,0.1V5.6z M29.2,4.2c0-0.1,0-0.1-0.1-0.1h-0.4
		c-0.1,0-0.1,0-0.1,0.1v0.2c0,0.1,0,0.1,0.1,0.1h0.4c0.1,0,0.1,0,0.1-0.1V4.2z M29.1,5.7c0.1,0,0.1,0,0.1-0.1V5.3
		c0-0.1,0-0.1-0.1-0.1h-0.4c-0.1,0-0.1,0-0.1,0.1v0.3c0,0.1,0,0.1,0.1,0.1H29.1z M32.3,0.7c0.1,0,0.3,0.1,0.4,0.2
		c0.1,0.1,0.2,0.2,0.2,0.4c0,0.2-0.1,0.3-0.2,0.4c-0.1,0.1-0.2,0.2-0.4,0.2H31c-0.2,0-0.3-0.1-0.4-0.2s-0.2-0.2-0.2-0.4
		c0-0.2,0.1-0.3,0.2-0.4s0.2-0.2,0.4-0.2H32.3z"/>
	<path fill="#FFFFFF" d="M36.7,4.7c0.1,0,0.1,0,0.1-0.1V4.2c0-0.1,0-0.1-0.1-0.1h-1.5c-0.1,0-0.2,0-0.2-0.1s-0.1-0.1-0.1-0.2
		s0-0.2,0.1-0.2s0.1-0.1,0.2-0.1h1.5c0.1,0,0.1,0,0.1-0.1v0c0-0.1,0-0.1-0.1-0.1h-0.5c-0.2,0-0.5-0.1-0.6-0.3s-0.3-0.4-0.3-0.6
		s0.1-0.5,0.3-0.6s0.4-0.3,0.6-0.3h0.5c0.1,0,0.1,0,0.1-0.1V1.3c0-0.1,0-0.1-0.1-0.1h-1.4c-0.1,0-0.2,0-0.2-0.1S35,1,35,0.9
		c0-0.1,0-0.2,0.1-0.2s0.1-0.1,0.2-0.1h1.4c0,0,0.1,0,0.1-0.1c0-0.1,0-0.2,0.1-0.3c0.1-0.1,0.2-0.1,0.3-0.1h0.1c0.1,0,0.2,0,0.3,0.1
		s0.1,0.2,0.1,0.3c0,0,0,0.1,0,0.1h1.5c0.1,0,0.2,0,0.2,0.1c0.1,0.1,0.1,0.1,0.1,0.2c0,0.1,0,0.2-0.1,0.2c-0.1,0.1-0.1,0.1-0.2,0.1
		h-1.4c-0.1,0-0.1,0-0.1,0.1v0.1c0,0.1,0,0.1,0.1,0.1h0.6c0.2,0,0.5,0.1,0.6,0.3s0.3,0.4,0.3,0.6S39.2,2.8,39,3s-0.4,0.3-0.6,0.3
		h-0.6c-0.1,0-0.1,0-0.1,0.1v0c0,0.1,0,0.1,0.1,0.1h1.5c0.1,0,0.2,0,0.2,0.1s0.1,0.1,0.1,0.2s0,0.2-0.1,0.2s-0.1,0.1-0.2,0.1h-1.5
		c-0.1,0-0.1,0-0.1,0.1v0.4c0,0.1,0,0.1,0.1,0.1h0.4c0,0,0.1,0,0.1-0.1v0c0-0.1,0-0.2,0.1-0.3c0.1-0.1,0.2-0.1,0.3-0.1
		s0.2,0,0.3,0.1c0.1,0.1,0.1,0.2,0.1,0.3v0.1c0,0.2-0.1,0.3-0.2,0.4c-0.1,0.1-0.2,0.2-0.4,0.2h-2.7c-0.2,0-0.3-0.1-0.4-0.2
		c-0.1-0.1-0.2-0.2-0.2-0.4V4.6c0-0.1,0-0.2,0.1-0.3c0.1-0.1,0.2-0.1,0.3-0.1s0.2,0,0.3,0.1c0.1,0.1,0.1,0.2,0.1,0.3v0
		c0,0,0,0.1,0.1,0.1H36.7z M40.3,7.3c-0.1,0-0.1,0-0.1,0.1v0.1c0,0.1,0,0.1,0.1,0.1h3.5c0.1,0,0.2,0,0.3,0.1
		c0.1,0.1,0.1,0.2,0.1,0.3s0,0.2-0.1,0.3s-0.2,0.1-0.3,0.1h-3.5c-0.1,0-0.1,0-0.1,0.1v0.3c0,0.3,0,0.5-0.1,0.6
		c-0.1,0.1-0.2,0.2-0.4,0.3c-0.3,0.1-0.7,0.1-1.3,0.1c-0.1,0-0.3,0-0.4-0.1c-0.1-0.1-0.2-0.2-0.3-0.3c0-0.1,0-0.2,0-0.3
		C37.8,9,37.9,9,38,9c0.1,0,0.2,0,0.2,0c0.3,0,0.4,0,0.5,0c0.1,0,0.1,0,0.2,0c0,0,0.1-0.1,0.1-0.1V8.5c0-0.1,0-0.1-0.1-0.1h-3.5
		c-0.1,0-0.2,0-0.3-0.1S34.9,8.1,34.9,8s0-0.2,0.1-0.3c0.1-0.1,0.2-0.1,0.3-0.1h3.5c0.1,0,0.1,0,0.1-0.1V7.4c0-0.1,0-0.1-0.1-0.1H36
		c-0.1,0-0.2,0-0.3-0.1c-0.1-0.1-0.1-0.2-0.1-0.3c0-0.1,0-0.2,0.1-0.3c0.1-0.1,0.2-0.1,0.3-0.1h2.9c0.1,0,0.1,0,0.1-0.1V6.3
		c0,0,0-0.1,0-0.1c0,0,0,0-0.1,0c-0.5,0-1.2,0-1.9,0c-0.2,0-0.4,0-0.6,0c-0.1,0-0.2,0-0.3-0.1C36.1,6.1,36,6,36,5.9
		c0-0.1,0-0.2,0-0.2s0.1-0.1,0.2-0.1c2.2,0,4-0.1,5.3-0.2c0,0,0.1,0,0.1,0c0.3,0,0.5,0.1,0.7,0.3c0.1,0.1,0.1,0.1,0.1,0.2
		c0,0.1-0.1,0.1-0.2,0.2c-0.5,0.1-1.2,0.1-2,0.2c-0.1,0-0.1,0-0.1,0.1v0.2c0,0.1,0,0.1,0.1,0.1h2.9c0.1,0,0.2,0,0.3,0.1
		c0.1,0.1,0.1,0.2,0.1,0.3c0,0.1,0,0.2-0.1,0.3c-0.1,0.1-0.2,0.1-0.3,0.1H40.3z M36.2,1.9c-0.1,0-0.1,0-0.1,0.1v0
		c0,0.1,0,0.1,0.1,0.1h0.5c0.1,0,0.1,0,0.1-0.1v0c0-0.1,0-0.1-0.1-0.1H36.2z M36.1,2.7c0,0.1,0,0.1,0.1,0.1h0.5c0.1,0,0.1,0,0.1-0.1
		V2.7c0-0.1,0-0.1-0.1-0.1h-0.5C36.1,2.6,36.1,2.6,36.1,2.7L36.1,2.7z M38.4,2c0-0.1,0-0.1-0.1-0.1h-0.5c-0.1,0-0.1,0-0.1,0.1v0
		c0,0.1,0,0.1,0.1,0.1h0.5C38.4,2.1,38.4,2.1,38.4,2L38.4,2z M38.3,2.8c0.1,0,0.1,0,0.1-0.1V2.7c0-0.1,0-0.1-0.1-0.1h-0.5
		c-0.1,0-0.1,0-0.1,0.1v0.1c0,0.1,0,0.1,0.1,0.1H38.3z M43,2.7c0.2,0,0.4,0,0.6,0.1c0.1,0,0.1,0.1,0.2,0.1c0,0.1,0,0.1,0,0.2
		c-0.2,0.5-0.6,0.9-1,1.3c0,0,0,0,0,0.1c0,0,0,0,0,0c0.4,0.1,0.8,0.2,1.2,0.3c0.1,0,0.2,0.1,0.2,0.2s0,0.2,0,0.3
		c-0.1,0.1-0.2,0.2-0.4,0.3c-0.1,0-0.2,0.1-0.3,0.1c-0.1,0-0.1,0-0.2,0c-0.6-0.1-1.1-0.3-1.6-0.6c-0.1,0-0.1,0-0.2,0
		c-0.3,0.1-0.7,0.2-1.2,0.3c0,0-0.1,0-0.1,0c-0.1,0-0.2,0-0.3-0.1c-0.1-0.1-0.2-0.2-0.3-0.3c0,0,0-0.1,0-0.1c0,0,0-0.1,0-0.1
		c0-0.1,0.1-0.1,0.2-0.2c0.3,0,0.5-0.1,0.8-0.1c0,0,0,0,0,0c0,0,0,0,0-0.1c-0.1-0.1-0.2-0.2-0.3-0.3c-0.1-0.1-0.1-0.1-0.1-0.2
		c0,0,0-0.1,0-0.1c0-0.1,0.1-0.2,0.2-0.2v0h-0.5c-0.1,0-0.2,0-0.3-0.1s-0.1-0.2-0.1-0.3V3c0-0.1,0-0.2,0.1-0.2
		C39.9,2.7,40,2.7,40,2.7c0,0,0,0,0,0c0,0,0,0,0,0c-0.1-0.1-0.2-0.3-0.2-0.4c0-0.2,0.1-0.4,0.2-0.5c0.1-0.1,0.1-0.2,0.1-0.4
		c0-0.2,0.2-0.5,0.3-0.6s0.4-0.3,0.6-0.3h1.2c0.2,0,0.5,0.1,0.6,0.3s0.3,0.4,0.3,0.6v0c0,0.1,0,0.2,0,0.2c0,0.1,0,0.1,0.1,0.1
		c0,0,0,0,0,0h0.2c0,0,0.1,0,0.1,0c0,0,0.1-0.1,0.1-0.1c0,0,0,0,0,0c0-0.1,0.1-0.2,0.1-0.2c0.1,0,0.2,0,0.2,0
		c0.1,0.1,0.2,0.1,0.3,0.2c0,0.1,0.1,0.2,0.1,0.2c0,0,0,0.1,0,0.1c0,0.1-0.1,0.3-0.1,0.3c-0.1,0.1-0.2,0.2-0.3,0.3
		c-0.1,0.1-0.3,0.1-0.5,0.1H43c-0.3,0-0.5-0.1-0.7-0.2c-0.1-0.1-0.1-0.2-0.2-0.3c0-0.1,0-0.3,0-0.6c0-0.1,0-0.1-0.1-0.1h-0.7
		c-0.1,0-0.1,0-0.1,0.1c-0.1,0.5-0.3,1-0.6,1.3c0,0,0,0,0,0s0,0,0,0H43z M42.4,3.5C42.4,3.5,42.4,3.5,42.4,3.5
		C42.4,3.5,42.4,3.4,42.4,3.5l-1.2-0.1c0,0,0,0,0,0c0,0,0,0,0,0.1c0.1,0.2,0.3,0.3,0.5,0.4c0.1,0,0.1,0,0.2,0
		C42.1,3.8,42.2,3.7,42.4,3.5z"/>
	<path fill="#FFFFFF" d="M53.8,4.1c0.1-0.2,0.2-0.3,0.3-0.4c0.1-0.1,0.2-0.1,0.3-0.1c0.1,0,0.1,0,0.2,0c0.2,0,0.3,0.1,0.4,0.3
		c0,0.1,0.1,0.2,0.1,0.3c0,0.1,0,0.1,0,0.2c-0.4,1.1-0.9,2-1.5,2.9c0,0.1-0.1,0.1,0,0.2c0.3,0.7,0.6,1.1,0.9,1.1
		c0.2,0,0.3-0.4,0.4-1.2c0-0.1,0.1-0.2,0.2-0.3c0,0,0.1,0,0.1,0c0.1,0,0.1,0,0.2,0.1c0.2,0.1,0.3,0.2,0.4,0.4
		c0.1,0.1,0.1,0.3,0.1,0.4c0,0,0,0.1,0,0.1c-0.1,0.7-0.3,1.1-0.5,1.4c-0.2,0.2-0.6,0.4-1,0.4c-0.7,0-1.2-0.4-1.7-1.3
		c0-0.1-0.1-0.1-0.1,0c-0.4,0.4-0.7,0.7-1.1,1c-0.1,0.1-0.3,0.1-0.4,0.1c0,0-0.1,0-0.1,0c-0.2,0-0.3-0.1-0.5-0.3
		c-0.1-0.1-0.1-0.2-0.1-0.4c0,0,0-0.1,0-0.1c0-0.2,0.1-0.3,0.3-0.4c0.5-0.4,1-0.8,1.5-1.3c0,0,0.1-0.1,0-0.2c-0.3-1.1-0.5-2.4-0.7-4
		c0-0.1,0-0.1-0.1-0.1h-2.8c-0.1,0-0.1,0-0.1,0.1v0.9c0,0.1,0,0.1,0.1,0.1H50c0.2,0,0.4,0.1,0.6,0.3c0.2,0.2,0.3,0.4,0.3,0.6
		c0,0.8,0,1.5-0.1,2.1c0,0.4-0.1,0.7-0.2,0.9c-0.2,0.2-0.4,0.4-0.7,0.4c-0.1,0-0.3,0-0.6,0h0c-0.2,0-0.3-0.1-0.4-0.2
		c-0.1-0.1-0.2-0.3-0.3-0.4c0,0,0-0.1,0-0.1c0-0.1,0-0.2,0.1-0.2c0.1-0.1,0.2-0.2,0.3-0.2h0c0.1,0,0.2,0,0.3,0c0.1,0,0.2,0,0.3-0.1
		c0.1-0.1,0.1-0.7,0.2-1.9c0,0,0-0.1,0-0.1c0,0,0,0-0.1,0h-1.1c-0.1,0-0.1,0-0.1,0.1C48.2,7,48,8.4,47.5,9.4
		c-0.1,0.2-0.2,0.2-0.4,0.3c0,0-0.1,0-0.1,0c-0.1,0-0.3,0-0.4-0.1c-0.1-0.1-0.2-0.3-0.3-0.5c0-0.1,0-0.1,0-0.2c0-0.1,0-0.2,0.1-0.3
		C46.8,7.7,47,6.4,47,4.7V2.6c0-0.2,0.1-0.5,0.3-0.6s0.4-0.3,0.6-0.3h3.3c0,0,0.1,0,0.1,0s0,0,0-0.1c0-0.5,0-0.7,0-0.8
		c0-0.2,0.1-0.3,0.2-0.4c0.1-0.1,0.3-0.2,0.5-0.2c0.2,0,0.3,0.1,0.5,0.2c0.1,0.1,0.2,0.3,0.2,0.5c0,0.2,0,0.5,0,0.8
		c0,0.1,0,0.1,0.1,0.1H54c0,0,0,0,0,0c0,0,0,0,0,0c-0.2-0.2-0.5-0.4-0.8-0.6C53.1,1,53,0.9,53,0.8c0,0,0,0,0-0.1
		c0-0.1,0-0.2,0.1-0.3c0.1-0.1,0.2-0.2,0.4-0.2c0,0,0.1,0,0.1,0c0.1,0,0.2,0,0.3,0.1c0.3,0.2,0.5,0.3,0.7,0.5
		c0.2,0.1,0.2,0.3,0.2,0.5c0,0.2-0.1,0.3-0.2,0.4c0,0,0,0,0,0s0,0,0,0h0.4c0.2,0,0.3,0.1,0.4,0.2c0.1,0.1,0.2,0.3,0.2,0.4
		s-0.1,0.3-0.2,0.4c-0.1,0.1-0.3,0.2-0.4,0.2h-2.5c0,0-0.1,0-0.1,0c0,0,0,0,0,0.1c0.1,1,0.2,1.8,0.4,2.7c0,0,0,0,0,0c0,0,0,0,0,0
		C53.3,5.2,53.6,4.6,53.8,4.1z"/>
	<path fill="#FFFFFF" d="M66.9,2.3c0.1,0.1,0.2,0.3,0.2,0.4c0,0.2-0.1,0.3-0.2,0.4s-0.3,0.2-0.4,0.2H64c0,0,0,0-0.1,0s0,0,0,0.1
		c0.4,0.7,0.8,1.3,1.3,1.9c0.5,0.6,1.1,1.1,1.7,1.5c0.1,0.1,0.2,0.2,0.3,0.4c0,0,0,0.1,0,0.1c0,0.1,0,0.3-0.1,0.4
		C66.9,7.9,66.7,8,66.5,8c0,0-0.1,0-0.1,0c-0.1,0-0.3,0-0.4-0.1c-0.4-0.3-0.7-0.6-1-0.9c0,0,0,0,0,0c0,0,0,0,0,0v0.2
		c0,0.2-0.1,0.5-0.3,0.6C64.4,8,64.2,8.1,64,8.1h-0.7c-0.1,0-0.1,0-0.1,0.1v1c0,0.2-0.1,0.3-0.2,0.5c-0.1,0.1-0.3,0.2-0.5,0.2
		S62.1,9.8,62,9.7s-0.2-0.3-0.2-0.5v-1c0-0.1,0-0.1-0.1-0.1h-0.8c-0.2,0-0.5-0.1-0.6-0.3S60,7.5,60,7.2V7.1c0,0,0,0,0,0s0,0,0,0
		c-0.3,0.3-0.6,0.6-1,0.9c-0.1,0.1-0.3,0.1-0.4,0.1c0,0-0.1,0-0.1,0c-0.2,0-0.3-0.1-0.5-0.3c-0.1-0.1-0.1-0.2-0.1-0.4
		c0,0,0-0.1,0-0.1c0-0.2,0.1-0.3,0.2-0.4c0.6-0.4,1.1-0.9,1.7-1.5c0.5-0.6,0.9-1.3,1.3-1.9c0,0,0,0,0-0.1s0,0-0.1,0h-2.5
		c-0.2,0-0.3-0.1-0.4-0.2S57.9,3,57.9,2.8c0-0.2,0.1-0.3,0.2-0.4c0.1-0.1,0.3-0.2,0.4-0.2h3.2c0.1,0,0.1,0,0.1-0.1V0.8
		c0-0.2,0.1-0.3,0.2-0.5s0.3-0.2,0.5-0.2s0.3,0.1,0.5,0.2c0.1,0.1,0.2,0.3,0.2,0.5v1.3c0,0.1,0,0.1,0.1,0.1h3.2
		C66.6,2.2,66.8,2.2,66.9,2.3z M60.3,6.8C60.3,6.8,60.3,6.8,60.3,6.8C60.3,6.8,60.3,6.8,60.3,6.8l1.5,0.1c0.1,0,0.1,0,0.1-0.1V4.7
		c0,0,0,0,0,0c0,0,0,0,0,0C61.3,5.4,60.8,6.1,60.3,6.8z M63.1,6.7c0,0.1,0,0.1,0.1,0.1h1.5c0,0,0,0,0,0c0,0,0,0,0,0
		c-0.6-0.6-1.1-1.3-1.5-2.1c0,0,0,0,0,0c0,0,0,0,0,0V6.7z"/>
</g>
<g>
</g>
<g>
</g>
<g>
</g>
<g>
</g>
<g>
</g>
<g>
</g>
<g>
</g>
<g>
</g>
<g>
</g>
<g>
</g>
<g>
</g>
<g>
</g>
<g>
</g>
<g>
</g>
<g>
</g>
</svg>
