<?xml version="1.0" encoding="utf-8"?>
<!-- Generator: Adobe Illustrator 18.0.0, SVG Export Plug-In . SVG Version: 6.00 Build 0)  -->
<!DOCTYPE svg PUBLIC "-//W3C//DTD SVG 1.1//EN" "http://www.w3.org/Graphics/SVG/1.1/DTD/svg11.dtd">
<svg version="1.1" id="Layer_1" xmlns="http://www.w3.org/2000/svg" xmlns:xlink="http://www.w3.org/1999/xlink" x="0px" y="0px"
	 viewBox="0 0 129.2 82.8" enable-background="new 0 0 129.2 82.8" xml:space="preserve">
<g>
	<line fill="#FFFFFF" x1="57.4" y1="40.7" x2="64.8" y2="4.7"/>
	<g>
		<g>
			<path fill-rule="evenodd" clip-rule="evenodd" fill="#3A494F" d="M56.1,37.3c0.1-0.1,0.2-0.1,0.2-0.2c0.1,0,0.2,0,0.3,0
				c0.1-0.1,0.2-0.2,0.3-0.3c0-0.1-0.2-0.1-0.1-0.2c0-0.1,0.2,0,0.2-0.2c0-0.1-0.3-0.4-0.2-0.5c0-0.1,0.2,0,0.2-0.1
				c0-0.1-0.1-0.1-0.1-0.2c0-0.1,0.4-0.2,0.5-0.2c-0.1-0.2-0.2-0.7-0.2-0.8c0.1-0.3,0.2-0.1,0.4-0.3c0,0,0,0.1,0-0.1
				c0-0.1-0.1-0.1-0.1-0.2c0-0.1,0.2,0,0.2-0.2c0-0.1-0.2-0.2-0.4-0.3c0.2-0.1,0.6-0.3,0.6-0.4c0-0.1-0.2-0.5-0.2-0.6
				c0-0.1,0.2,0,0.2-0.1c0-0.1-0.1-0.2-0.1-0.3c0.1-0.3,0.3,0,0.4-0.1c0-0.1-0.2-0.1-0.1-0.2c0-0.1,0.2-0.2,0.2-0.3
				c0-0.1-0.2-0.7-0.2-0.9c0-0.1,0.2-0.3,0.3-0.4c0-0.1,0-0.3-0.1-0.5c0-0.1,0.2,0,0.3,0l0.2-0.9c-0.2,0-0.2,0.1-0.3,0
				c0-0.1,0.2,0,0.2-0.2c0-0.1-0.1-0.2-0.1-0.3c0-0.1,0.4-0.3,0.4-0.4c0-0.1-0.1-0.2-0.1-0.3c0-0.1,0.2,0,0.2-0.2
				c0-0.1-0.1-0.2-0.3-0.4c0.1-0.1,0.3,0.1,0.3-0.1c0-0.1-0.2,0-0.1-0.1c0-0.1,0.2,0.1,0.2-0.1c0-0.1-0.2,0-0.1-0.1
				c0-0.1,0.2,0,0.2-0.1c0-0.1-0.1-0.2-0.1-0.3c0-0.1,0.1-0.2,0.2-0.2c0,0-0.1-0.1-0.3-0.1c0-0.1,0.2,0,0.2-0.2
				c0-0.1-0.1-0.2-0.1-0.3c0-0.1,0.2-0.3,0.2-0.4c0-0.1-0.1-0.3-0.1-0.5c0-0.1,0.1-0.1,0.2-0.2c0.1-0.3,0.1-0.5,0.2-0.8
				c0.1,0,0.1,0.1,0.2-0.1c0-0.1-0.2-0.6-0.3-0.8l0-0.2c0.1,0,0.1,0.1,0.3,0.3l0.1-0.4c0-0.1-0.2-0.1-0.1-0.2c0-0.1,0.2-0.2,0.2-0.3
				c0-0.1-0.1-0.1-0.1-0.2c0-0.1,0.2,0,0.2-0.1c0-0.1-0.1-0.2-0.1-0.3c0-0.1,0.3-0.4,0.3-0.5c0-0.1,0.1-0.3-0.1-0.4
				c0.1-0.1,0.2-0.1,0.4-0.2c0-0.1,0.1-0.1-0.1-0.2s-0.1,0.1-0.3,0c0.2-0.1,0.4-0.2,0.4-0.3c0,0-0.1-0.3-0.4-0.4l0-0.2
				c0.2,0,0.4,0,0.5-0.1c0,0-0.1-0.1-0.3-0.1c0.2-0.1,0.4-0.2,0.4-0.3c0-0.1-0.2-0.4-0.2-0.5c0-0.1,0.2,0,0.2-0.2
				c0-0.1,0-0.1-0.1-0.2c0.1-0.1,0.3,0.1,0.3-0.1c0-0.1-0.2,0-0.1-0.1c0-0.1,0.2-0.1,0.2-0.2c0-0.2,0-0.3-0.4-0.4l0-0.2
				c0.1,0,0.5,0,0.5-0.1c0-0.1-0.2,0-0.1-0.1c0-0.1,0.2,0.1,0.2-0.1c0-0.1-0.2-0.2-0.2-0.3c-0.1-0.1,0-0.2,0-0.3
				c0-0.1,0.5-0.6,0.5-0.7c0.1-0.5-0.3-0.4-0.2-0.6c0-0.2,0.3,0,0.4-0.5c0-0.1-0.1-0.3-0.1-0.5c0-0.1,0.2-0.3,0.4-0.4
				c0,0-0.1-0.1-0.3-0.1l0-0.2c0-0.1,0.2-0.1,0.2-0.2c0.1,0,0.2,0,0.3,0l0-0.1c0-0.1-0.1-0.1-0.3-0.2c0-0.1,0-0.3,0-0.4
				c0-0.1-0.1,0-0.1-0.1c0-0.1,0.2-0.3,0.4-0.4c0,0-0.1-0.1-0.3-0.2c0.1-0.1,0.2-0.2,0.2-0.3c0-0.1,0-0.3-0.1-0.4c0-0.1,0.2,0,0.3,0
				l0.1-0.3c-0.1-0.1-0.2-0.1-0.3-0.1l0.1-0.3c0-0.1,0.2,0,0.2-0.2c0-0.1,0-0.2-0.1-0.2C62.8,8.7,62.9,9,63,8.6
				C63,8.4,62.7,8,62.8,8c0-0.1,0.4-0.2,0.4-0.3c0-0.1-0.2-0.1-0.1-0.2c0-0.1,0.2,0.1,0.2-0.1c0-0.1-0.1-0.5-0.2-0.7c0,0,0,0,0-0.1
				c0-0.1,0.2-0.2,0.4-0.4l0-0.2c-0.1-0.1-0.2-0.1-0.3-0.1c0.4-0.2,0.6-0.4,0.7-0.8c0.1,0,0.1,0.2,0.3,0.2c0.5,0.1,0.7-0.5,1-0.5
				c0.2,0,0.1,0,0.2,0.1c0,0.2,0,0.8,0.4,0.9c0.2,0,0.2-0.1,0.3-0.1c-0.1,0.5,0.2,0.7,0.2,0.9C66.2,6.7,66,6.9,66,7
				c0,0.1,0.1,0.2,0.1,0.3c0,0.1-0.1,0-0.2,0.1c-0.1,0.2-0.3,0.5-0.3,0.6c0,0.1-0.1,0.2-0.1,0.3s0.3,0.2,0.2,0.4
				c0,0.1-0.1,0-0.2,0.1c0,0.1-0.1,0.2-0.1,0.4c0,0.1-0.1,0.4,0,0.6c-0.1,0-0.1-0.1-0.2-0.1c-0.1,0-0.1,0.1-0.3,0.1
				c0,0,0.2,0.1,0.1,0.2c0,0.1-0.1,0.1-0.2,0.1c0.1,0.1,0,0.2,0.2,0.2c0.2,0,0.1-0.1,0.2,0l-0.1,0.3c-0.2,0-0.3,0.1-0.4,0.2
				c0,0.1,0.2,0,0.1,0.1c0,0.1-0.2-0.1-0.2,0.1c0,0.1,0.1,0.1,0.1,0.2c0,0.1-0.2,0.1-0.2,0.2c0,0.1,0,0.4,0.1,0.5
				c0.1,0.1,0.2,0.2,0.3,0.3c-0.1,0-0.2-0.1-0.3-0.2c0,0.2-0.3,0.6-0.3,0.7c0,0.1-0.1,0.3,0,0.4l0,0c0,0.1-0.1,0-0.2,0.1
				c0,0,0.1,0.1,0.3,0.1c0,0.1-0.2,0-0.2,0.1c0,0.1,0,0.1,0.1,0.1c0,0.1-0.2,0.1-0.3,0c0,0.2-0.1,0.6-0.2,0.8
				c-0.1,0-0.1-0.1-0.1,0.1c0,0.1,0.2,0.6,0.2,0.7c0,0.1-0.4,0.1-0.4,0.2c0,0.1,0.2,0,0.1,0.1c0,0.1-0.2,0.2-0.4,0.2
				c0,0,0.1,0.1,0.3,0.1l0,0.2c-0.1,0-0.2,0.1-0.3,0.1c0,0,0.1,0.2,0.4,0.3l0,0.2c-0.1,0-0.2-0.1-0.2-0.2c-0.1,0-0.1,0-0.1,0.1
				c0,0.1,0.3,0.3,0.2,0.4c0,0.1-0.2,0-0.2,0.2c0,0.1,0.1,0.1,0.1,0.2c0,0.1-0.2,0-0.2,0.1c0,0.1,0,0.1,0.1,0.2
				c-0.1,0.1-0.2,0.1-0.4,0.2c-0.1,0.1-0.1,0.2-0.1,0.4c0,0.1-0.1,0.3-0.1,0.4c0,0.1,0.1,0.1,0.2,0.2c0,0,0,0,0,0.1
				c0,0.1-0.2,0.1-0.4,0.2c-0.1,0,0,0.1-0.1,0.2c-0.1,0.4,0.3,0.4,0.2,0.6c0,0.2-0.3,0.1-0.6,0.3l0,0.1c0.1,0.1,0,0,0.2,0.1
				s0.2-0.1,0.3,0l-0.1,0.4c0,0.1-0.2,0.1-0.2,0.2c0,0.1,0,0.2,0.1,0.3c-0.1,0-0.2-0.1-0.2-0.1c-0.1,0-0.1,0-0.1,0.1
				c0,0.1,0.1,0.1,0.1,0.2c0,0.1-0.2,0-0.2,0.2c0,0.1,0.1,0.3,0.1,0.4c0,0.1-0.2,0.2-0.2,0.3c0,0.1,0.2,0,0.1,0.1
				c0,0.1-0.2,0-0.2,0.1c0,0.1,0.2,0.1,0.1,0.2c0,0.1-0.2,0.2-0.4,0.2c0.1,0.1,0,0.2,0.2,0.2c0.2,0,0.1-0.1,0.2-0.1
				c0,0.2-0.2,0.1-0.2,0.3c0,0.1,0,0.1,0.1,0.2c-0.2,0.1-0.4,0.2-0.4,0.3c0,0.1,0.1,0.2,0.1,0.3c0,0.1-0.2,0-0.4,0.1l0.5,0.1
				L62.2,25c-0.1,0-0.2,0.1-0.3,0.1c0.1,0.2,0.2,0.5,0.2,0.6c0,0.1-0.2,0.2-0.4,0.2c0,0,0.1,0.1,0.3,0.1c-0.2,0.2-0.4,0.6-0.5,0.7
				c0,0.2,0,0.2,0.3,0.2l-0.1,0.3c0,0.1-0.4,0.3-0.4,0.4c0,0.1,0.1,0.1,0.1,0.2c0,0.1-0.2,0.2-0.2,0.3c0,0.1,0.1,0.2,0.1,0.3
				c0,0.1-0.2-0.1-0.2,0.1c0,0.1,0.1,0.1,0.1,0.2c0,0.1-0.2,0.2-0.2,0.3c0,0.1,0.1,0.1,0.1,0.2c0,0.1-0.2-0.1-0.2,0.1
				c0,0.1,0.1,0.1,0.1,0.2c0,0.1-0.2,0.2-0.4,0.2c0,0,0.1,0.1,0.3,0.1c0,0.1-0.2,0-0.2,0.1c0,0.1,0.2,0,0.1,0.1
				c0,0.1-0.2-0.1-0.2,0.1c0,0.1,0,0.1,0.1,0.1c0,0.1-0.2,0.4,0.1,0.5c0,0.1-0.2,0.1-0.3,0.1c-0.1,0.1-0.3,0.1-0.3,0.3
				c0,0.1,0.2,0.2,0.4,0.3L60.8,32c-0.2,0-0.3,0-0.4,0.2c0,0.1,0.2,0.1,0.1,0.2c0,0.1-0.2,0.2-0.2,0.3c0,0.1,0,0.2,0,0.2
				c0,0.1,0.2,0.1,0.3,0.1c0,0.1,0,0.2,0.1,0.4c-0.1,0-0.1-0.1-0.2-0.1c-0.1,0-0.1,0.1-0.3,0.1c0.1,0.1,0.1,0.2,0.1,0.4
				c0,0.1-0.2,0.2-0.2,0.3c0,0.1,0.2,0,0.1,0.1c0,0.1-0.1,0-0.2,0.1c0,0.1,0,0.1-0.1,0.3c0,0.1-0.1,0.3,0,0.4l0,0
				c0,0.1-0.2,0-0.2,0.1c0,0.1,0.1,0.1,0.1,0.2c0,0.1-0.2,0-0.2,0.2c0,0.1,0.2,0.1,0.1,0.2c0,0.1-0.2,0-0.2,0.2
				c0,0.1,0.1,0.2,0.3,0.4c-0.2,0.1-0.4,0.3-0.4,0.4c0,0.1,0.1,0.1,0.1,0.2s-0.2,0-0.2,0.1c0,0.1,0,0.1,0.1,0.1c0,0.1-0.2,0.1-0.3,0
				L59.1,38c0,0.1,0.2,0,0.1,0.1c0,0.1-0.2,0-0.2,0.1c0,0.1,0.1,0.1,0.1,0.2c0,0.1-0.2,0-0.2,0.2c0,0.2,0,0.2,0.1,0.2
				c-0.1,0.1-0.3,0.2-0.5,0.3c-0.1,0.2-0.3,0.5-0.5,0.6c0,0.1,0.1,0.1,0.3,0.2l-0.1,0.3c0,0.2-0.2,0.1-0.3,0.3
				c-0.2,0-0.2,0.2-0.4,0.1s-0.1-0.2-0.3-0.2s-0.4,0.1-0.5,0.2c-0.2-0.2-0.4-0.4-0.7-0.7c0-0.1,0.2-0.1,0.2-0.3l-0.5-0.1l0-0.2
				c0-0.2,0.1-0.1,0.2-0.1c0-0.1-0.1-0.1-0.3-0.2c0-0.1,0.1-0.1,0.2-0.2c0-0.1,0.1-0.3,0.1-0.4c0.1-0.2,0.1-0.3,0.1-0.4
				c0.1-0.2,0.2-0.4,0.2-0.4c0-0.1,0.1-0.3,0-0.4C56.4,37.2,56.2,37.3,56.1,37.3z"/>
		</g>
	</g>
</g>
<g>
	<circle fill="#3A494F" cx="65.1" cy="4.4" r="3.5"/>
	<g>
		<g>
			<path fill-rule="evenodd" clip-rule="evenodd" fill="#3A494F" d="M69.2,6.8c-0.1,0-0.1,0.1-0.2,0.1c-0.1,0-0.1-0.1-0.2,0
				C68.7,7,68.6,7,68.6,7.1c-0.1,0.1,0.1,0.1,0,0.2c-0.1,0.1-0.1,0-0.2,0.1c-0.1,0.1,0,0.3-0.1,0.4c-0.1,0.1-0.1-0.1-0.2,0
				c-0.1,0.1,0,0.1-0.1,0.2c-0.1,0.1-0.3,0-0.4-0.1c0,0.2-0.3,0.4-0.4,0.5c-0.2,0.1-0.2-0.1-0.4,0c0,0,0,0-0.1,0
				c-0.1,0,0,0.1-0.1,0.2c-0.1,0-0.1-0.1-0.2,0c0,0-0.1,0.2-0.1,0.3c-0.2,0-0.4-0.2-0.5-0.2c-0.1,0-0.3,0.3-0.4,0.3
				c-0.1,0,0-0.1-0.1-0.1c-0.1,0-0.1,0.1-0.2,0.1c-0.2,0,0-0.2-0.2-0.2c-0.1,0,0,0.1-0.1,0.1c-0.1,0-0.1-0.1-0.2-0.1
				c-0.1,0-0.5,0.1-0.6,0.1c-0.1,0-0.2-0.2-0.3-0.2c-0.1,0-0.3,0-0.4,0c0,0,0-0.1,0-0.2c0,0-0.6-0.3-0.6-0.3c0,0.1,0,0.2,0,0.2
				c-0.1,0,0-0.1-0.1-0.2c-0.1-0.1-0.1,0-0.2,0c-0.1-0.1-0.1-0.3-0.2-0.4c-0.1-0.1-0.1,0-0.2,0c-0.1-0.1,0-0.1,0-0.2
				c-0.1-0.1-0.2,0-0.3,0c0-0.1,0.1-0.1,0.1-0.2c-0.1-0.1-0.1,0.1-0.1,0c-0.1-0.1,0.1-0.1,0-0.1c-0.1-0.1-0.1,0.1-0.1,0
				c-0.1-0.1,0.1-0.1,0-0.2c-0.1-0.1-0.2,0-0.2-0.1c-0.1-0.1-0.1-0.1,0-0.2c0,0-0.1,0-0.2,0.1c0,0,0.1-0.1,0-0.2
				c-0.1-0.1-0.1,0-0.2-0.1c0-0.1,0-0.2,0-0.3c0-0.1-0.2-0.2-0.2-0.3c0-0.1,0-0.1,0-0.2c0-0.2-0.1-0.4-0.1-0.6c0,0,0.1,0,0.1-0.1
				c0-0.1-0.2-0.3-0.3-0.5l0-0.1c0.1,0,0.1,0.1,0.2,0.2c0,0,0-0.3,0-0.3c0-0.1-0.1,0-0.1-0.2c0-0.1,0.1-0.1,0.1-0.2
				c0-0.1-0.1-0.1-0.1-0.2c0-0.1,0.1,0,0.1-0.1c0-0.1-0.1-0.2,0-0.3C60.8,3.2,61,3,61,2.9c0-0.1,0.1-0.2,0-0.3
				c0.1,0,0.2-0.1,0.3-0.1c0-0.1,0.1-0.1,0-0.1c-0.1-0.1-0.1,0-0.2,0c0.1,0,0.3-0.1,0.3-0.2c0,0,0-0.2-0.1-0.4l0.1-0.1
				c0.1,0.1,0.2,0.1,0.3,0.1c0,0,0-0.1-0.1-0.2c0.1,0,0.3,0,0.3-0.1c0.1-0.1,0-0.3,0.1-0.4c0.1-0.1,0.1,0,0.2,0c0.1-0.1,0-0.1,0-0.1
				c0.1,0,0.1,0.1,0.2,0.1C62.5,1,62.4,1,62.5,1c0.1-0.1,0.1,0,0.2,0c0.1-0.1,0.2-0.1,0-0.4l0.1-0.1c0.1,0.1,0.2,0.2,0.3,0.2
				c0.1,0-0.1-0.1,0-0.1c0.1,0,0,0.1,0.1,0.1c0.1,0,0.1-0.2,0.1-0.3c0-0.1,0.1-0.1,0.2-0.1c0.1,0,0.5,0,0.6,0
				C64.5,0.2,64.4,0,64.5,0c0.2,0,0.1,0.2,0.4,0.2c0.1,0,0.2-0.1,0.3-0.1c0.1,0,0.3,0.1,0.4,0.2c0,0,0.1-0.1,0.1-0.2l0.1,0
				c0.1,0,0.1,0.1,0.1,0.1c0,0.1,0,0.1,0,0.2l0.1,0c0.1,0,0.1-0.1,0.2-0.2c0.1,0,0.2,0,0.3,0c0,0,0-0.1,0.1-0.1
				c0.1,0,0.2,0.2,0.3,0.3c0,0,0.1,0,0.1-0.2c0,0.1,0.1,0.2,0.2,0.2c0.1,0,0.2,0.1,0.3,0.1c0,0,0,0.1-0.1,0.2l0.2,0.1
				c0.1,0,0.1-0.1,0.1-0.1c0,0,0.2,0.1,0.2,0.1c0.1,0.1,0,0.1,0,0.2c0.1,0.1,0.1,0.1,0.2,0c0.1,0.3-0.1,0.2,0.1,0.4
				c0.1,0.1,0.4,0.2,0.4,0.2c0.1,0.1-0.1,0.3,0,0.3c0,0.1,0.1,0,0.1,0c0,0.1-0.1,0,0,0.1c0,0.1,0.2,0.2,0.4,0.3c0,0,0,0,0,0.1
				c0,0.1,0,0.2-0.1,0.4l0,0.2c0.1,0,0.1,0,0.2,0c-0.1,0.2-0.2,0.4-0.2,0.7c-0.1,0-0.1-0.1-0.2-0.1c-0.3,0-0.3,0.4-0.5,0.4
				c-0.1,0-0.1,0-0.1,0c0-0.1-0.1-0.4-0.4-0.4c-0.1,0-0.1,0.1-0.2,0.1c0-0.2-0.3-0.2-0.3-0.3c0-0.1,0.1-0.2,0-0.2
				c0-0.1-0.1,0-0.1-0.1c0,0,0,0,0.1-0.1c0-0.1,0-0.3,0-0.3c0-0.1,0-0.1-0.1-0.1c-0.1,0-0.2,0-0.2,0c0,0,0,0,0-0.1
				c0,0-0.1-0.1-0.1-0.1c0,0-0.1-0.1-0.3-0.1c0-0.1,0.1-0.1,0.1-0.1c0,0,0-0.1,0.1-0.2c0,0-0.1,0.1-0.1,0c0,0,0-0.1,0-0.1
				c-0.1,0-0.1,0-0.2,0.1c-0.1,0.1,0,0.1-0.1,0.1l-0.1-0.1c0-0.1,0.1-0.2,0-0.2c-0.1,0,0,0.1-0.1,0.1c0,0,0.1-0.1,0-0.1
				c-0.1,0-0.1,0.1-0.1,0c-0.1,0,0-0.1-0.1-0.1c-0.1,0-0.2,0-0.2,0c-0.1,0-0.1,0.1-0.2,0.1c0-0.1,0.1-0.1,0.1-0.2
				c-0.1,0-0.2-0.2-0.3-0.2c-0.1,0-0.1,0-0.2,0l0,0c-0.1,0,0-0.1,0-0.1c0,0,0,0.1-0.1,0.2c0,0,0-0.1-0.1-0.1c-0.1,0,0,0,0,0.1
				c0,0,0-0.1,0-0.2c-0.1,0-0.3,0-0.4,0c0,0,0-0.1,0-0.1c-0.1,0-0.2,0.2-0.3,0.2c-0.1,0-0.1-0.2-0.2-0.2c-0.1,0,0,0.1,0,0.1
				c-0.1,0-0.1-0.1-0.2-0.2c0,0,0,0.1,0,0.2l-0.1,0c0-0.1-0.1-0.1-0.1-0.2c0,0,0,0.1,0,0.3l-0.1,0c0-0.1,0-0.1,0-0.2c0,0,0,0-0.1,0
				c-0.1,0,0,0.2-0.1,0.3c0,0-0.1-0.1-0.1,0c-0.1,0,0,0.1,0,0.1c0,0-0.1-0.1-0.1,0c0,0,0,0,0,0.1c-0.1,0-0.1-0.1-0.2-0.1
				c-0.1,0-0.1,0.1-0.1,0.1c0,0-0.1,0.1-0.1,0.1c0,0,0,0.1,0.1,0.2c0,0,0,0,0,0c0,0-0.1,0-0.2,0c0,0,0,0-0.1,0.1
				c-0.1,0.2,0.1,0.2,0,0.3c0,0.1-0.2,0-0.4,0l0,0.1c0,0,0,0,0.1,0.1c0.1,0.1,0.1,0,0.2,0c0,0-0.1,0.2-0.1,0.2c0,0.1-0.1,0-0.1,0.1
				c0,0.1,0,0.1,0.1,0.1c-0.1,0-0.1-0.1-0.1-0.1c0,0,0,0,0,0c0,0.1,0.1,0.1,0.1,0.1c0,0.1-0.1,0-0.1,0.1c0,0.1,0.1,0.1,0.1,0.2
				c0,0.1-0.1,0.1-0.1,0.1c0,0.1,0.1,0,0.1,0.1c0,0.1-0.1,0-0.1,0.1c0,0.1,0.1,0,0.1,0.1c0,0.1-0.1,0.1-0.2,0.1c0.1,0,0,0.1,0.2,0.1
				c0.1,0,0.1-0.1,0.1-0.1c0,0.1-0.1,0.1-0.1,0.1c0,0.1,0,0,0.1,0c-0.1,0.1-0.2,0.1-0.2,0.2C62.4,5,62.6,5,62.6,5
				c0,0-0.1,0.1-0.2,0.1l0.3-0.1c0,0,0.1,0.2,0.1,0.2c-0.1,0-0.1,0.1-0.2,0.1c0.1,0,0.3,0.1,0.3,0.1c0,0.1-0.1,0.2-0.1,0.2
				c0,0,0.1,0,0.2-0.1c0,0.1,0,0.4,0,0.4c0,0.1,0,0.1,0.2-0.1l0.1,0.1c0,0,0,0.2,0,0.3c0,0,0.1,0,0.1,0c0,0,0,0.1,0.1,0.2
				c0.1,0,0.1,0,0.2,0c0.1,0-0.1,0.1,0,0.1c0.1,0,0.1-0.1,0.1,0c0.1,0,0,0.1,0.1,0.2c0.1,0,0.1-0.1,0.1,0c0.1,0-0.1,0.1,0,0.1
				c0.1,0,0.1-0.1,0.1-0.1c0.1,0,0.1,0.1,0.1,0.2c0,0,0.1-0.1,0.1-0.2c0,0,0,0.1,0,0.1c0.1,0,0-0.1,0.1-0.1c0.1,0,0,0.1,0,0.1
				c0.1,0,0,0,0.1-0.1c0,0,0.2,0.1,0.2-0.1c0,0,0,0.1,0,0.2c0,0,0.1,0.2,0.1,0.2c0,0,0.1-0.1,0.1-0.3l0.1,0c0,0.1,0,0.2,0.1,0.2
				c0.1,0,0-0.1,0.1-0.1c0.1,0,0.1,0.1,0.2,0.1c0.1,0,0.1,0,0.1,0c0,0,0-0.1,0-0.2c0,0,0.1,0,0.1-0.2c0,0.1,0,0.1,0,0.1
				c0,0,0.1,0.1,0.1,0.1c0-0.1,0.1-0.1,0.1-0.1C66,6.9,66,7,66.1,7c0.1,0,0-0.1,0-0.1c0.1,0,0,0,0.1,0.1c0,0,0.1,0,0.1,0
				c0.1,0,0.1,0,0.1-0.1l0,0c0.1,0,0.1,0.1,0.1,0c0.1,0,0-0.1,0-0.1c0.1,0,0.1,0.1,0.1,0c0,0,0-0.1,0-0.1c0,0,0.1,0.1,0.1,0
				c0.1,0,0-0.1,0-0.2c0.1,0,0.2,0.1,0.3,0c0,0,0-0.1,0-0.1c0,0,0.1,0.1,0.1,0c0,0,0-0.1,0-0.1c0,0,0.1,0,0.2,0.1
				c0.1-0.1,0.2-0.2,0.2-0.4c0-0.1-0.1,0-0.1-0.1c0-0.1,0.1,0,0.1,0c0-0.1-0.1-0.1,0-0.1c0-0.1,0.1,0,0.1-0.1c0-0.1,0-0.1-0.1-0.1
				c0.1,0,0.2-0.1,0.3-0.1c0-0.1,0.2-0.3,0.3-0.3c0,0-0.1-0.1-0.2-0.1l0-0.1c0-0.1,0.1-0.1,0.1-0.2c0.1,0,0.1-0.1,0.2-0.1
				c0.1,0,0.1,0.1,0.2,0.1c0.1,0,0.2-0.1,0.3-0.2c0.2,0.1,0.3,0.2,0.5,0.4c0,0.1-0.1,0.1-0.1,0.2l0.3,0l0,0.2c0,0.2-0.1,0-0.1,0.1
				c0,0.1,0.1,0.1,0.2,0.1c0,0.1-0.1,0.1-0.1,0.1c0,0.1-0.1,0.2-0.1,0.3c-0.1,0.1-0.1,0.2-0.2,0.3C69.1,6.4,69,6.5,69,6.5
				c-0.1,0.1-0.1,0.2-0.1,0.3C69,6.8,69.1,6.8,69.2,6.8z"/>
		</g>
	</g>
</g>
<g>
	<path fill="#FFFFFF" d="M123,81.2H6.3c-2.8,0-5.1-2.3-5.1-5.1V39.9c0-2.8,2.3-5.1,5.1-5.1H123c2.8,0,5.1,2.3,5.1,5.1v36.2
		C128.1,78.9,125.8,81.2,123,81.2z"/>
	<g>
		<g>
			<path fill-rule="evenodd" clip-rule="evenodd" fill="#3A494F" d="M113,82.8c-0.7,0-1.7-0.1-2.7-0.1c-0.3-0.1-0.2-0.2-0.7-0.2
				c-1.6,0-2.7-0.2-4-0.2s-0.3,0.1-1.7,0.1s-0.8-0.1-2.2-0.1c-1.4,0-3,0.3-4.4,0.3s-0.3-0.1-1.7-0.1s-0.8,0.1-2.2,0.1
				c-1.4,0-2.7-0.3-3.6-0.4c-2,0.1-6.6,0.3-7.9,0.3c-2.7,0-1.7-0.2-4.2-0.2c0,0,0.6,0-0.8,0c-1.4,0-0.8,0.1-2.2,0.1
				s-0.8-0.1-2.2-0.1c-0.6,0-1.9,0.2-2.4,0.4c-1.9-0.1-4-0.4-5.3-0.4c-1.4,0-4.7,0.3-6.1,0.3s-0.3-0.1-1.7-0.1s-1.4,0.1-2.8,0.1
				c-2.8,0-0.3-0.3-2.2-0.3c-1.4,0-0.3,0.1-1.7,0.1s-1.9-0.1-3.3-0.1s-6.9,0.3-8.3,0.3c-1.4,0-3.6-0.1-5-0.1c-1.4,0-3.5,0.1-4.6,0.1
				c-0.6,0-0.9-0.2-0.8-0.3h-8.9c0.6,0.2,1.2,0.2,1.1,0.3c-0.7,0-0.7-0.1-2.1-0.1c-1.4,0-1.4,0.1-2.8,0.1s-3.6-0.3-5-0.3
				s-1.4,0.1-2.8,0.1c-1.4,0-0.8-0.1-2.3-0.2c-1.6-0.1-2.6-0.6-3.4-1c-0.4-0.3-0.3-0.4-0.4-0.5c0-0.1-0.2-0.3-0.7-0.9
				c-0.5-0.7-0.4-0.6-0.4-0.5c0,0.1,0,0.2-0.4-0.6C0.4,78,0.5,78,0.5,78.1c0.1,0.1,0.1,0.1-0.1-0.7c-0.1-0.8-0.1-0.7-0.2-0.6
				c0,0.1-0.1,0.2-0.1-0.7c0-1.4,0.1-0.3,0.1-1.7c0-1.4-0.1-1.9-0.1-3.3s0-2.2,0.1-2.6c0-0.4-0.1-0.7-0.3-0.8c0-0.7,0.1-0.7,0.1-2.1
				c0-1.4-0.1-1.4-0.1-2.8c0-1.4,0.1-3,0.1-4.4S0,55.5,0,54.1c0-1.4,0.1-1.5,0.1-2c0-2.7,0-5.4,0-8.1c0.1-0.3,0.1,0.5,0.1-0.9
				c0-0.7-0.1-1.9-0.1-3.4C0,38,0.9,36.2,1.9,35.2c0,0,0.4-0.4,1-0.8c0.5-0.3,1.1-0.6,1.1-0.6c0.1,0-1.3,0.6-2,1.7
				c0,0,0.2-0.2,0.6-0.5c0.4-0.3,0.9-0.6,1.5-0.9c0.6-0.2,1.2-0.4,1.6-0.5c0.5-0.1,0.8-0.1,0.8-0.1c1.4,0,0.6-0.1,2-0.1
				c1.4,0,1.9,0.1,3.3,0.1c1.4,0,0.8-0.1,2.2-0.1s0.3,0.1,1.7,0.1s1.9-0.1,3.3-0.1c1.4,0,4.7,0.1,6.1,0.1c1,0,3.3,0,4.1-0.1
				c0.8,0.1,1.9,0.2,2.4,0.3c1.5,0,1.8,0.1,1.8-0.1c0-0.2-1.1-0.1-0.9-0.2c1.4,0.1,2.9,0.3,4.2,0.3c0.3,0,3-0.1,3.4-0.4h2
				c0.1,0.2,1.1,0.3,1.6,0.4c0.4,0,0.7-0.1,0.9-0.3c1.4,0.1,2.3,0.3,3.7,0.3c1.4,0,3.6-0.3,5-0.3c1.4,0,0.8,0.1,2.2,0.1
				s1.1,0,1.3-0.1c0.9,0.1,0.1,0.3,1.5,0.3c1.4,0-0.3-0.1,1.1-0.1s1.4,0.1,2.8,0.1c2.4,0,3,0,3.4-0.4h2c0.1,0.1,0.9,0.4,1.7,0.4
				c1.4,0-0.3-0.1,1.1-0.1c1.4,0-0.3,0.1,1.1,0.1s2.1-0.2,3-0.2c0.8-0.1,1.7,0,3,0c1.4,0,6.9,0.3,8.3,0.3c4.7,0,3.3-0.3,5.5-0.3
				c2.3,0,0.8,0.3,5.5,0.3c1.4,0,3-0.1,4.4-0.1s3.7,0.1,5.3,0.3c0.5,0,0.7-0.1,0.8-0.3h1.8c1.4,0,1.1,0.1,2.2,0.2
				c0.3,0.1,0.2,0.2,0.7,0.2h1.5c1.4,0,0.9-0.1,1.6-0.2c1.1,0,2.7,0,3.8,0c0.5,0-0.5-0.1,0.9-0.1c0.7,0,1.6,0,2.6,0.1
				c0.5,0,0.9,0,1.5,0.1c0.5,0.1,1,0.2,1.5,0.4c0.5,0.2,0.8,0.3,1.1,0.2c0.9,0.5,2.2,1.8,2.7,3.4c0.1,0.4,0.2,0.8,0.3,1.2
				c0.1,0.4,0.1,0.9,0.1,1.2c0,0.7,0.1,1.3,0.1,2c0,0.6-0.2,0.9-0.3,0.8v3c0.1,0.5,0.2,0.4,0.3,0.5v2.9c0,1.4-0.1,0.6-0.1,2
				s0,1.7,0.1,1.8c-0.2,3.9-0.3,1.5-0.3,5.4c0,2.4,0.3,5.3,0.3,6.1c0,1.4-0.3,2.5-0.3,3.9c0,1.4,0.1,0.3,0.1,1.7
				c0,1.4-0.1-0.3-0.1,1.1c0,0.7,0,1.8,0.1,3c0,0.6,0.1,1.2,0.1,1.8c0,0.6,0,1.3-0.2,1.8c-0.1,0.3-0.1,0.2-0.1,0.4
				c0,0.1-0.1,0.4-0.5,1.1c-0.4,0.7-1.1,1.4-1.9,1.9c-0.4,0.2-0.8,0.4-1.2,0.5l-0.3,0.1c-0.1,0-0.2,0-0.2,0l-0.1,0l-0.2,0.1
				c0,0.1,0,0.2,0,0.3c-0.3-0.2-0.5-0.3-1-0.3c0-0.1,0.1-0.1,0.1-0.3c0-0.4-0.6-0.4-0.6-0.7c0-0.2,0-0.1,0-0.2
				c0.1,0,0.6-0.2,0.5-0.5c0-0.2-0.1-0.2-0.1-0.2c0.3-0.1,0.3-0.3,0.4-0.4c0.1,0,0.1,0,0.2,0c0,0,0,0,0.1,0l0.3-0.1
				c0.2-0.1,0.4-0.2,0.6-0.3c0.4-0.3,0.6-0.6,0.8-0.9c0.2-0.3,0.3-0.6,0.5-1.1c0.1-0.5,0.2-0.5,0.2-0.5c0,0,0,0.1,0.1-0.1
				c0-0.2,0-0.4,0.1-0.6c0-0.3,0-0.6,0-0.9c0-0.6,0-1.3,0.1-1.9c0-1.3,0.1-2.4,0.1-3.1c0-1.4,0.1-2.5,0-3.4
				c-0.1-0.9-0.3-1.8-0.3-3.2c0-1.4,0.1-0.4,0.1-0.9c0-1,0-2.6,0-4c0-1.4,0-4-0.1-6.5c0.1-0.1,0.1,0.5,0.2,1c0.1,0,0.1-1.1,0.2-1.5
				c0-0.4-0.1-0.4-0.1-1.8c0-1.4,0.1-1,0.1-1.4c-0.1-0.9,0-1.9-0.2-1.9s-0.1,1.1-0.2,1v-3.1c0.1-0.6,0.3-1.5,0.3-2.9
				c0-1.4-0.1,0.3-0.1-1.1c0-0.7,0-0.6,0.1-0.5c0,0.1,0.1,0.1,0-0.4c-0.1-0.5-0.2-0.7-0.3-0.8c-0.1-0.1-0.2-0.3-0.4-0.7
				c-0.3-0.4-0.4-0.6-0.6-0.8c-0.2-0.2-0.3-0.4-0.8-0.7c-0.5-0.2-1.1-0.4-1.9-0.4c-0.9,0-1.9,0.1-2.6,0.1c-1,0.1-1.6,0.2-2.4,0.3
				c-0.2-0.1,0.9-0.2,1-0.3c-2.6,0-6.4-0.1-7.8-0.1s-2.8,0-3.7,0.1v0c-1.6,0-0.7-0.1-1.1-0.1c-0.4,0-0.7,0.1-0.8,0.3
				c-0.7,0-0.2-0.1-1.6-0.1s-0.6,0-0.6,0.1c-0.7,0-1-0.2-0.9-0.3c-2.6,0-5.9,0-8.6,0c-0.2-0.1,0.6-0.1-0.8-0.1s-5.2,0.3-6.6,0.3
				s-1.9-0.3-3.3-0.3S83.4,36,82,36c-1.4,0-2.7-0.2-3.2-0.3c-0.4,0-0.7,0.1-0.8,0.3h-2c-0.1-0.1-1.1-0.1-1.5-0.3
				c-0.3,0-1.4,0.1-1.9,0.4h-2c-0.1-0.1,1-0.2,1.1-0.2c-0.5-0.1,0.3,0-1.1,0c-1.4,0-2.5,0.3-3.9,0.3c-1.4,0-0.8-0.1-2.2-0.1
				c-1.4,0-0.8,0.1-2.2,0.1S61.9,36,60.6,36s-1.1,0-1.3,0.1c-0.8-0.1-1.6-0.2-2.5-0.3c-0.9-0.1-2.6,0-4,0c-1.4,0-3,0-4,0
				c-0.6,0-1,0.1-1.8,0.2c0,0,0.6,0-0.8,0c-1.4,0-1.9-0.2-2.7-0.3c-0.3,0-0.9,0-2.3,0c-4.7,0-3.2,0.3-5.5,0.3
				c-1.8,0-2.1-0.2-4.2-0.4h-1.5c-0.4,0.1-0.4,0-0.4,0.1c0,0.2,1.1,0.2,1,0.3h-4c-1.4,0-1.4-0.1-2.8-0.1c-1.4,0-2,0.1-2.9,0.1
				c-0.2-0.1,0.9-0.2,1-0.2c-0.5-0.1,0.3,0-1.1,0S20.1,36,18.8,36s-0.8-0.1-2.2-0.1c-1.4,0-2.5,0.1-3.9,0.1c-1.4,0-1.9-0.1-3.3-0.1
				C8,35.8,9.7,36,8.3,36S8,35.8,6.6,35.8c-0.4,0-0.5,0-0.6,0c-0.1,0-0.1,0-0.1,0.1c0,0.1-0.1,0.1-0.6,0.2c-1,0.3-1.9,0.9-2.2,1.1
				c-0.4,0.6-0.7,1.3-0.5,1.4c0.1,0,0.4-0.7,0.5-0.6c-0.3,0.6-0.4,0.9-0.5,1.2c0,0.1-0.1,0.3-0.1,0.5c0,0.1,0,0.2,0,0.3
				c0,0.1,0,0.3,0,0.5c0,1.4,0,1.1,0.1,1.3c-0.1,1.4-0.3,2.3-0.3,3.7c0,1.4,0.1,1.9,0.1,3c0,0.6-0.1,0.7-0.3,2h0.4v4.2
				c-0.1,0.1-0.1,1.1-0.3,1.5c0.1,1.4,0.3,4.3,0.3,5.7S2.4,64.5,2.3,65c0,0.4,0.1,0.7,0.3,0.8c-0.1,2.5-0.3,6.7-0.3,8.1
				c0,1.9,0,1.8,0.3,1.7c0,0,0,0.2,0,0.5c0,0.2,0,0.5,0.1,0.7c0.1,0.5,0.3,1,0.3,1c0.2,0.5,0.6,1,1.1,1.4c0.5,0.4,1.1,0.7,1.6,0.8
				c0.5,0.1,0.7,0,0.9,0C6.8,80.1,7,80,7.7,80c1.4,0,2.5,0.1,3.9,0.1c1.4,0,1.9-0.1,3.3-0.1c1.4,0-0.3,0.1,1.1,0.1s0.8-0.1,2.2-0.1
				c1.4,0,1.9,0.1,3.3,0.1c1.4,0,0.8-0.1,2.2-0.1c1.4,0-0.3,0.1,1.1,0.1s0.8-0.1,2.2-0.1c1.4,0,2.7,0.2,3.2,0.3
				c0.4,0,0.7-0.1,0.8-0.3c0.7,0,0.2,0.1,1.6,0.1c1.4,0-0.3-0.1,1.1-0.1c1.4,0-0.3,0.1,1.1,0.1s0.6-0.1,0.9-0.1
				c1.1,0,4.3,0.1,5.3-0.2c0.7,0,1,0.2,1.1,0.2c0.8,0.1,1.8,0.2,3.2,0.2c0.8,0,1.9-0.2,2.3-0.4h3.1c0.6,0.1,0.9,0.3,2.3,0.3
				c1.4,0,0.3-0.1,1.7-0.1c1.4,0,1.9,0.1,3.3,0.1c1.4,0,1.9,0,2.4,0c0.5,0,0.4-0.2,0.7-0.2c0.6,0,2,0,3.9-0.2c0.1,0.1-0.5,0.1-1,0.2
				c0,0.1,1.1,0.1,1.5,0.2c0.9-0.1,2.1-0.1,3.5-0.1c1.4,0,1.9,0.1,3.3,0.1c1.4,0-0.3-0.1,1.1-0.1s0.4,0.1,0.9,0.1c1,0,1.5,0,2.9,0
				c1.4,0,2.8,0,3.7-0.1v0c1.6,0,0.5,0.1,1.8,0.1c1.4,0,0.8-0.1,2.2-0.1s0.8,0.1,2.2,0.1s0.3-0.1,1.7-0.1s0.8,0.1,2.2,0.1
				s2.2-0.1,3-0.3c1.3,0.1,3.3,0.3,4.7,0.3c1.4,0,0.8-0.1,2.2-0.1s0.3,0.1,1.7,0.1s1.1,0,1.2-0.1c0.7,0,1,0.2,0.9,0.3h9.4
				c1.4,0-0.3-0.1,1.1-0.1s0.3,0.1,1.7,0.1s0.8-0.1,2.2-0.1s0.8,0.1,2.2,0.1c0.1,0,0.1,0,0.1,0c0,0,0,0,0,0c0,0,0,0,0,0
				c0,0,0-0.1,0-0.1c0.1,0.1,0.2,0.2,0.3,0.4c0.2,0,0.5,0.2,0.5,0.3c0.1,0,0.1-0.1,0.1-0.3h0.2c0.2,0,0.1,0.1,0.3,0.2
				c0,0.1,0.2,0.1,0.2,0.3s-0.1,0.1-0.1,0.3c0,0.2,0.1,0.3,0.3,0.4c-0.1,0.2-0.3,0.4-0.4,0.6c-0.1,0-0.2-0.1-0.3-0.1v0.4h-0.2
				c-0.2,0-0.1-0.1-0.1-0.1c-0.1,0-0.1,0.1-0.1,0.3c-0.1,0-0.1-0.1-0.2-0.1c-0.1,0-0.2,0-0.4,0l-0.2,0c-0.5,0-1,0-1.5,0
				c-2.2,0-4-0.1-4.7-0.1c-1.4,0-2.9,0-3.9,0C111.6,82.6,112.7,82.7,113,82.8z"/>
		</g>
	</g>
</g>
<g>
</g>
<g>
</g>
<g>
</g>
<g>
</g>
<g>
</g>
<g>
</g>
<g>
</g>
<g>
</g>
<g>
</g>
<g>
</g>
<g>
</g>
<g>
</g>
<g>
</g>
<g>
</g>
<g>
</g>
</svg>
