<?xml version="1.0" encoding="utf-8"?>
<!-- Generator: Adobe Illustrator 18.0.0, SVG Export Plug-In . SVG Version: 6.00 Build 0)  -->
<!DOCTYPE svg PUBLIC "-//W3C//DTD SVG 1.1//EN" "http://www.w3.org/Graphics/SVG/1.1/DTD/svg11.dtd">
<svg version="1.1" id="Layer_1" xmlns="http://www.w3.org/2000/svg" xmlns:xlink="http://www.w3.org/1999/xlink" x="0px" y="0px"
	 viewBox="0 0 195.4 74.7" enable-background="new 0 0 195.4 74.7" xml:space="preserve">
<g>
	<g>
		<g>
			<g>
				<path fill-rule="evenodd" clip-rule="evenodd" fill="#FFFFFF" d="M147,40.4c0.1,0.1,0.2,0.3,0.3,0.4c0,0.1-0.1,0.2-0.1,0.3
					c0.2,0.1,0.2,0.4,0.4,0.5s0.1-0.1,0.3,0c0.2,0.1,0,0.2,0.2,0.3c0.2,0.1,0.6-0.1,0.8,0c0.2,0.1-0.1,0.2,0.1,0.3s0.2-0.1,0.4,0
					s0.2,0.5,0.2,0.8c0.4,0,1.1,0.2,1.2,0.3c0.4,0.2,0.1,0.3,0.4,0.6c0,0-0.1,0,0.1,0.1c0.2,0.1,0.2-0.1,0.4,0
					c0.2,0.1,0,0.2,0.2,0.3c0.1,0,0.4-0.1,0.6-0.3c0.2,0.3,0.2,0.8,0.4,0.9s0.8,0,1,0.1s-0.1,0.2,0.1,0.3c0.2,0.1,0.3-0.1,0.5,0
					c0.4,0.2-0.2,0.4,0.1,0.5c0.2,0.1,0.1-0.1,0.3,0c0.2,0.1,0.2,0.3,0.3,0.4s1.1,0.2,1.3,0.3s0.4,0.4,0.6,0.5s0.5,0.2,0.7,0.2
					c0.1,0,0,0.3-0.1,0.4l1.2,0.7c0-0.3,0-0.3,0-0.4c0.1,0,0,0.2,0.2,0.3s0.3-0.1,0.5,0c0.2,0.1,0.3,0.6,0.5,0.7
					c0.2,0.1,0.3-0.1,0.5,0s0,0.2,0.2,0.3c0.2,0.1,0.4,0,0.6-0.1c0.1,0.2-0.2,0.3,0,0.4c0.2,0.1,0.1-0.2,0.2-0.1
					c0.2,0.1-0.1,0.1,0.1,0.3c0.2,0.1,0.1-0.2,0.2-0.1s-0.1,0.2,0.1,0.3c0.2,0.1,0.4,0,0.5,0.1s0.3,0.2,0.3,0.4
					c0.1,0,0.2-0.1,0.3-0.3c0.1,0,0,0.2,0.2,0.3s0.3-0.1,0.5,0c0.2,0.1,0.3,0.4,0.5,0.5c0.2,0.1,0.5,0.1,0.7,0.2
					c0.2,0.1,0.2,0.2,0.2,0.3c0.4,0.2,0.7,0.4,1,0.7c0,0.1-0.1,0.1,0,0.2c0.2,0.1,0.9,0,1.3,0l0.3,0.1c-0.1,0.1-0.2,0.1-0.5,0.2
					l0.5,0.3c0.2,0.1,0.2-0.1,0.4,0s0.2,0.3,0.3,0.4s0.2-0.1,0.4,0s-0.1,0.2,0.1,0.3s0.4,0,0.5,0.1s0.5,0.5,0.7,0.6
					c0.1,0.1,0.4,0.3,0.6,0.1c0.1,0.2,0.2,0.3,0.1,0.5c0.2,0.1,0.2,0.3,0.3,0c0.1-0.2-0.1-0.2,0-0.3c0.1,0.3,0.2,0.5,0.4,0.6
					c0,0,0.5,0,0.7-0.2l0.3,0.2c-0.1,0.2,0,0.4-0.1,0.6c0.1,0,0.2-0.1,0.3-0.3c0.1,0.3,0.1,0.5,0.3,0.6c0.2,0.1,0.7-0.1,0.8,0
					c0.2,0.1,0,0.2,0.2,0.3s0.2,0,0.3-0.1c0.1,0.2-0.2,0.3,0,0.4s0.1-0.2,0.2-0.1c0.2,0.1,0.1,0.3,0.3,0.4c0.3,0.2,0.4,0.2,0.7-0.2
					l0.3,0.2c-0.1,0.2-0.2,0.6,0,0.6c0.2,0.1,0.1-0.2,0.2-0.1s-0.1,0.1,0.1,0.3c0.2,0.1,0.4-0.1,0.6-0.1c0.2,0,0.2,0.1,0.4,0.2
					s0.7,0.9,0.9,1c0.6,0.4,0.6-0.1,0.9,0.1c0.3,0.2-0.1,0.4,0.5,0.7c0.2,0.1,0.5,0.1,0.7,0.2c0.2,0.1,0.4,0.5,0.5,0.7
					c0.1,0,0.2-0.1,0.3-0.3l0.2,0.1c0.2,0.1,0.1,0.2,0.2,0.4c0,0.1-0.1,0.3-0.1,0.4l0.2,0.1c0.2,0.1,0.2-0.1,0.4-0.2
					c0.2,0.1,0.4,0.2,0.5,0.2c0.1,0,0-0.2,0.2-0.1s0.4,0.5,0.5,0.7c0.1,0,0.2-0.1,0.3-0.3c0.1,0.2,0.2,0.3,0.4,0.4
					c0.2,0.1,0.4,0.1,0.6,0.1c0.1,0,0,0.3-0.1,0.4L185,63c0.1,0,0.2-0.2,0.3-0.3l0.4,0.2c0.2,0.1,0,0.2,0.2,0.3
					c0.2,0.1,0.2,0.1,0.3,0c0.4,0.5,0,0.4,0.5,0.7c0.3,0.2,0.9,0.1,1,0.1c0.2,0.1,0.1,0.5,0.3,0.6c0.2,0.1,0.1-0.1,0.3,0
					c0.2,0.1-0.1,0.1,0.1,0.3s0.7,0.2,1,0.2c0.1,0,0,0,0.2,0.1c0.2,0.1,0.3,0.3,0.3,0.5l0,0.1l0.2,0.1c0.1,0,0.2-0.2,0.3-0.3
					c0.1,0.5,0.2,0.8,0.7,1.1c-0.1,0.1-0.2,0-0.3,0.2c-0.3,0.5,0.4,0.9,0.2,1.3c-0.1,0.2-0.1,0.1-0.2,0.2c-0.2,0-0.9-0.3-1.1,0.1
					c-0.1,0.2,0.1,0.3,0,0.4c-0.5-0.3-0.8,0-1-0.1c-0.2-0.1-0.3-0.4-0.5-0.5c-0.2-0.1-0.4,0-0.5-0.1c-0.2-0.1,0-0.1,0-0.2
					c-0.3-0.2-0.6-0.6-0.8-0.7c-0.2-0.1-0.3-0.3-0.5-0.2c-0.2,0-0.4,0.2-0.6,0.1s0-0.1,0-0.2c-0.1-0.1-0.3-0.2-0.5-0.3
					s-0.5-0.3-1-0.3c0.1-0.1,0.2-0.1,0.3-0.1c0-0.1-0.1-0.2,0-0.4c-0.1,0-0.2,0.1-0.3,0s-0.1-0.2-0.1-0.3c-0.2,0-0.3-0.1-0.4,0.1
					c-0.1,0.2,0.1,0.2,0,0.3l-0.4-0.2c0-0.2,0-0.4-0.2-0.5s-0.1,0.2-0.2,0.1c-0.2-0.1,0.1-0.1-0.1-0.3s-0.2,0.1-0.4,0
					s-0.1-0.3-0.3-0.4c-0.2-0.1-0.5-0.2-0.8-0.2c-0.2,0-0.3,0.1-0.5,0.1c0-0.1,0.2-0.1,0.3-0.3c-0.3-0.2-0.8-0.6-0.9-0.7
					s-0.4-0.2-0.6-0.2l0,0c-0.2-0.1,0-0.1-0.1-0.3c-0.1,0-0.2,0.1-0.3,0.3c-0.1,0,0.1-0.2-0.1-0.3c-0.2-0.1-0.1,0-0.2,0.1
					c-0.1,0,0-0.3,0.1-0.4c-0.3-0.2-0.8-0.4-1.1-0.7c0-0.1,0.1-0.1,0-0.2c-0.2-0.1-0.9-0.1-1.1-0.2s-0.1-0.5-0.2-0.6
					c-0.2-0.1-0.1,0.2-0.2,0.1S176,61,176,60.8c-0.1,0-0.2,0.1-0.3,0.3l-0.3-0.2c0.1-0.1-0.1-0.3,0-0.4c-0.1,0-0.3,0.1-0.5,0.4
					l-0.3-0.2c0.1-0.1,0.2-0.1,0.3-0.2c0-0.1,0.1,0-0.1-0.1s-0.5,0.2-0.7,0.1c-0.2-0.1,0-0.2-0.2-0.3c-0.2-0.1-0.2,0.1-0.4,0
					c-0.2-0.1,0.1-0.2-0.1-0.3c-0.2-0.1-0.2,0-0.3,0.1c-0.1-0.2-0.1-0.3-0.1-0.5s-0.3-0.2-0.5-0.3s-0.4-0.3-0.5-0.3
					c-0.1,0-0.2,0.1-0.4,0.1c0,0,0.1,0.1-0.1,0c-0.2-0.1-0.1-0.4-0.2-0.5c0-0.1-0.1-0.1-0.3-0.2c-0.6-0.3-0.6,0.1-0.9-0.1
					c-0.2-0.1-0.1-0.5-0.3-0.8l-0.2-0.1c-0.1,0,0-0.1-0.1,0.1c-0.1,0.2,0,0.3-0.1,0.4l-0.5-0.3c-0.2-0.1-0.1-0.3-0.3-0.4
					c-0.2-0.1-0.3-0.1-0.5,0c0-0.1,0.2-0.1,0.3-0.2c0-0.1,0.1,0-0.1-0.1c-0.2-0.1-0.2,0.1-0.4,0s0-0.2-0.2-0.3s-0.4,0-0.6-0.1
					s-0.2-0.3-0.3-0.4c-0.2-0.1-0.1,0.2-0.2,0.1c-0.2-0.1,0.1-0.2-0.1-0.3c-0.2-0.1-0.1,0.1-0.3,0c-0.2-0.1-0.3-0.4-0.2-0.6
					c-0.2,0-0.3-0.1-0.4,0.1c-0.1,0.2,0.1,0.2,0,0.3c-0.3-0.1-0.2-0.3-0.3-0.4s-0.2,0-0.3,0.1c-0.1-0.3-0.1-0.5-0.3-0.6
					c-0.2-0.1-0.4,0-0.5-0.1c-0.1,0,0-0.2-0.1-0.5l-0.3,0.5l-0.6-0.3c0.1-0.1-0.1-0.3,0-0.4c-0.3,0.1-0.8,0-0.9-0.1
					c-0.2-0.1-0.3-0.4-0.2-0.6c-0.1,0-0.2,0.1-0.3,0.3c-0.2-0.4-0.7-0.8-0.9-0.9c-0.2-0.1-0.2-0.1-0.4,0.2l-0.4-0.2
					c-0.2-0.1-0.3-0.6-0.4-0.7c-0.2-0.1-0.2,0.1-0.4,0c-0.2-0.1-0.2-0.4-0.4-0.5c-0.2-0.1-0.4,0-0.5-0.1c-0.2-0.1,0.1-0.1-0.1-0.3
					c-0.2-0.1-0.2,0.1-0.4,0c-0.2-0.1-0.2-0.3-0.3-0.4c-0.2-0.1-0.2,0.1-0.4,0c-0.2-0.1,0.1-0.1-0.1-0.3s-0.2,0.1-0.4,0
					s-0.3-0.4-0.2-0.6c-0.1,0-0.2,0.1-0.3,0.3c-0.1,0,0.1-0.2-0.1-0.3c-0.2-0.1-0.1,0.2-0.2,0.1s0.1-0.1-0.1-0.3s-0.1,0-0.2,0.1
					c-0.2,0-0.5-0.5-0.8-0.2c-0.1,0,0-0.3,0-0.3c-0.1-0.1-0.1-0.4-0.3-0.5c-0.1-0.1-0.4,0.1-0.6,0.3l-0.4-0.2c0-0.2,0.1-0.4-0.1-0.5
					s-0.1,0.1-0.3,0s-0.2-0.3-0.3-0.4s-0.2-0.1-0.3-0.2c-0.1,0-0.2,0.2-0.3,0.2c-0.1,0-0.3-0.1-0.6-0.1c0-0.1,0.1-0.1,0.3-0.1
					c0-0.1-0.1-0.2,0-0.4c-0.2,0-0.4,0-0.6-0.1c-0.2-0.1-0.2-0.3-0.3-0.4s-0.1,0.2-0.2,0.1c-0.2-0.1,0-0.1,0-0.2
					c-0.1-0.1-0.2-0.1-0.4-0.2c-0.2-0.1-0.4-0.2-0.6-0.2l0,0c-0.2-0.1,0-0.2-0.1-0.3c-0.2-0.1-0.2,0.1-0.4,0c-0.2-0.1,0-0.2-0.2-0.3
					c-0.2-0.1-0.1,0.1-0.3,0c-0.2-0.1,0-0.2-0.2-0.3c-0.2-0.1-0.4,0-0.6,0.1c-0.1-0.3-0.3-0.6-0.4-0.7c-0.2-0.1-0.2,0.1-0.4,0
					c-0.2-0.1,0.1-0.2-0.1-0.3c-0.2-0.1-0.2,0-0.2,0.1c-0.1,0,0-0.3,0.1-0.4l-1.3-0.7c-0.2-0.1-0.1,0.2-0.2,0.1
					c-0.2-0.1,0.1-0.2-0.1-0.3c-0.2-0.1-0.2,0.1-0.4,0c-0.2-0.1,0-0.2-0.2-0.3c-0.2-0.1-0.2-0.1-0.3,0.1c-0.1-0.2-0.2-0.5-0.1-0.7
					c-0.2-0.2-0.5-0.5-0.5-0.7c-0.1,0-0.2,0.1-0.3,0.3l-0.3-0.2c-0.2-0.1-0.1-0.3-0.2-0.4c0.1-0.2-0.1-0.3,0-0.5
					c0.1-0.2,0.2,0,0.4-0.2c0.1-0.2,0-0.4-0.1-0.6c0.3-0.2,0.6-0.3,1-0.5c0.1,0.1,0.1,0.3,0.2,0.4l0.3-0.5l0.2,0.1
					c0.2,0.1,0,0.1,0,0.2c0.1,0,0.2-0.1,0.3-0.3c0.1,0.1,0.1,0.2,0.1,0.2c0.2,0.1,0.5,0.3,0.7,0.5c0.3,0.3,0.6,0.5,0.8,0.6
					c0.2,0.1,0.4,0.2,0.5,0.2C147,40.8,147,40.5,147,40.4z"/>
			</g>
		</g>
	</g>
	<g>
		<circle fill="#FFFFFF" cx="190" cy="67.4" r="3"/>
		<g>
			<g>
				<path fill-rule="evenodd" clip-rule="evenodd" fill="#FFFFFF" d="M193.4,70.7c-0.1,0-0.2,0-0.2,0c-0.1,0-0.1-0.1-0.2-0.1
					c-0.1,0.1-0.2,0-0.3,0c-0.1,0.1,0.1,0.1,0,0.2c-0.1,0.1-0.1-0.1-0.2,0c-0.1,0.1,0,0.3-0.1,0.4c-0.1,0-0.1-0.1-0.2-0.1
					c-0.1,0,0,0.2-0.1,0.2c-0.1,0-0.3-0.2-0.4-0.3c0,0.2-0.3,0.4-0.4,0.5c-0.2,0.1-0.2-0.1-0.3-0.2c0,0,0,0-0.1,0
					c-0.1,0,0,0.2-0.1,0.2c-0.1,0-0.1-0.1-0.2-0.1c0,0-0.1,0.2-0.1,0.4c-0.1-0.1-0.3-0.4-0.4-0.4c-0.1,0-0.3,0.3-0.4,0.3
					c-0.1,0,0-0.1-0.1-0.1c-0.1,0-0.1,0.1-0.2,0.1c-0.2,0,0-0.3-0.1-0.3c-0.1,0,0,0.1-0.1,0.1c-0.1,0-0.1-0.2-0.2-0.2
					c-0.1,0-0.5,0.2-0.6,0.1c-0.1,0-0.2-0.2-0.2-0.3c-0.1,0-0.2,0-0.3,0c0,0,0-0.2,0.1-0.3c0,0-0.5-0.3-0.5-0.3
					c-0.1,0.2-0.1,0.2-0.1,0.3c0,0,0-0.1,0-0.2c-0.1-0.1-0.2,0.1-0.2,0c-0.1-0.1,0-0.4,0-0.4c-0.1-0.1-0.2,0-0.2,0
					c-0.1-0.1,0.1-0.1,0-0.2c-0.1-0.1-0.2,0-0.3,0c0-0.1,0.2-0.2,0.2-0.2c-0.1-0.1-0.1,0.1-0.2,0c-0.1-0.1,0.1-0.1,0.1-0.1
					c-0.1-0.1-0.1,0.1-0.2,0c-0.1-0.1,0.1-0.1,0.1-0.2c0-0.1-0.2,0-0.2-0.1c0-0.1-0.1-0.1,0-0.2c0,0-0.1,0-0.3,0.1
					c0,0,0.1-0.1,0.1-0.2c0-0.1-0.2,0-0.2-0.1c0-0.1,0.1-0.2,0-0.3c0-0.1-0.2-0.1-0.2-0.2c0-0.1,0-0.1,0.1-0.2c0-0.2,0-0.3,0-0.5
					c0.1,0,0.1,0,0.1-0.1c0-0.1-0.3-0.3-0.4-0.5l0-0.1c0.1,0,0.1,0.1,0.3,0.1l0-0.3c0-0.1-0.2,0-0.1-0.1c0-0.1,0.2-0.1,0.2-0.2
					c0-0.1-0.1-0.1-0.1-0.2c0-0.1,0.1,0,0.2-0.1c0-0.1-0.1-0.2-0.1-0.2c0-0.1,0.2-0.3,0.3-0.3c0-0.1,0.1-0.2,0-0.3
					c0.1,0,0.2,0,0.3,0c0-0.1,0.1-0.1,0-0.1c-0.2-0.1-0.1,0-0.2,0c0.2,0,0.3,0,0.4-0.1c0,0,0-0.2-0.2-0.4l0.1-0.1
					c0.1,0.1,0.3,0.1,0.4,0.2c0,0-0.1-0.1-0.2-0.2c0.2,0,0.3,0.1,0.4,0c0.1-0.1-0.1-0.4,0-0.4c0.1-0.1,0.1,0.1,0.2,0
					c0.1-0.1,0-0.1,0-0.2c0.1,0,0.2,0.2,0.3,0.1c0.1-0.1-0.1-0.1,0-0.2c0.1-0.1,0.2,0.1,0.2,0c0.1-0.1,0.1-0.1-0.1-0.5l0.1-0.1
					c0.1,0.1,0.3,0.3,0.3,0.3c0.1,0-0.1-0.1,0-0.2c0.1,0,0.1,0.1,0.1,0.1c0.1,0,0-0.2,0-0.3c0-0.1,0.1-0.1,0.2-0.1
					c0.1-0.1,0.5,0.1,0.6,0.1c0.3-0.1,0.1-0.3,0.3-0.4c0.1,0,0.1,0.3,0.4,0.2c0.1,0,0.2-0.2,0.3-0.2c0.1,0,0.2,0.1,0.3,0.3
					c0,0,0-0.1,0.1-0.3l0.1,0c0.1,0,0.1,0.1,0.1,0.2c0,0.1,0,0.2,0,0.3l0.1,0c0.1,0,0.1-0.1,0.1-0.2c0.1,0,0.2,0,0.2,0
					c0,0,0-0.1,0.1-0.1c0.1,0,0.2,0.2,0.2,0.4c0,0,0.1-0.1,0.1-0.3c0,0.1,0.1,0.2,0.2,0.2c0.1,0,0.2,0,0.3,0c0,0,0,0.2-0.1,0.3
					l0.2,0.1c0.1,0,0.1-0.2,0.2-0.2l0.2,0.1c0.1,0,0,0.1,0,0.2c0.1,0,0.1,0,0.2-0.1c0.1,0.3-0.1,0.3,0.1,0.4c0.1,0.1,0.4,0,0.5,0
					c0.1,0.1-0.1,0.3,0,0.4c0.1,0.1,0.1-0.1,0.2,0c0.1,0.1-0.1,0.1-0.1,0.1c0.1,0.1,0.3,0.1,0.4,0.1c0,0,0,0,0.1,0.1
					c0.1,0.1-0.1,0.2-0.1,0.4c0,0,0.1,0.2,0.1,0.2c0.1,0,0.2,0,0.3,0c-0.1,0.4-0.2,0.7-0.1,1.2c-0.1,0-0.1-0.1-0.3-0.1
					c-0.4,0.1-0.4,0.7-0.7,0.7c-0.2,0-0.1,0-0.2,0c0-0.1-0.2-0.5-0.5-0.4c-0.2,0-0.2,0.1-0.2,0.1c-0.1-0.2-0.4-0.2-0.4-0.3
					c0-0.1,0-0.2,0-0.2c0,0-0.1,0-0.2,0c0,0,0.1-0.1,0.1-0.1c0,0,0-0.2,0-0.2c0,0,0-0.1-0.1-0.1c-0.1,0-0.2,0.2-0.2,0.1
					c0,0,0-0.1,0.1-0.1c0,0,0-0.1-0.1-0.1c0,0-0.1-0.1-0.2,0c0.1-0.1,0.1-0.1,0.1-0.1c0,0,0-0.1,0.1-0.2c0,0-0.1,0.1-0.1,0.1
					c0,0,0-0.1,0-0.1c-0.1,0-0.1,0-0.1,0.2c-0.1,0.2,0,0.1-0.1,0.2l-0.1,0c0.1-0.1,0.1-0.3,0.1-0.3c0,0-0.1,0.1-0.1,0.1
					c0,0,0.1-0.1,0-0.1c0,0-0.1,0.1-0.1,0.1c0,0,0-0.1,0-0.2c0,0-0.1,0-0.2,0.1c0,0.1-0.1,0.2-0.1,0.3c0-0.1,0.1-0.2,0.1-0.3
					c-0.1,0-0.1-0.2-0.2-0.2c0,0-0.1,0-0.1,0.1l0,0c0,0,0-0.1,0-0.1c0,0,0,0.1,0,0.3c0,0,0-0.1,0-0.1c0,0,0,0,0,0.1c0,0,0-0.2,0-0.3
					c-0.1,0-0.2,0-0.2,0c0-0.1,0-0.1,0-0.1c0,0-0.1,0.3-0.1,0.3c0,0-0.1-0.3-0.2-0.2c0,0,0.1,0.1,0,0.1c0,0-0.1-0.1-0.2-0.2
					c0,0,0,0.1,0.1,0.3l0,0c0-0.1-0.1-0.1-0.2-0.2c0,0,0,0.1,0.1,0.4l0,0c-0.1-0.1-0.1-0.2-0.1-0.2c0,0,0,0-0.1,0
					c0,0,0.1,0.3,0.1,0.3c0,0-0.1-0.1-0.1-0.1c0,0,0.1,0.1,0,0.1c0,0-0.1-0.1-0.1-0.1c0,0,0,0,0.1,0.1c-0.1,0-0.2-0.1-0.2-0.2
					c-0.1,0-0.1,0-0.1,0.1c0,0-0.1,0-0.1,0.1c0,0,0.1,0.1,0.2,0.2c0,0,0,0,0,0c0,0-0.2-0.1-0.3-0.1c0,0,0,0,0,0
					c-0.1,0.1,0.2,0.2,0.2,0.3c0,0-0.2-0.1-0.4-0.1l0,0c0.1,0,0,0,0.1,0.1c0.2,0.1,0.2,0,0.3,0.1l0,0.1c0,0-0.1,0-0.2,0
					c0,0,0,0.1,0.1,0.1c-0.1,0-0.2-0.1-0.2-0.1c-0.1,0,0,0-0.1,0c0,0,0.1,0.1,0.1,0.1c0,0-0.1,0-0.2,0c0,0,0.1,0.1,0.1,0.1
					c0,0-0.1,0-0.2,0.1c0,0,0.1,0,0.1,0c0,0-0.1,0-0.1,0c0,0,0.1,0,0.1,0.1c0,0-0.2,0.1-0.3,0.1c0.1,0,0,0.1,0.2,0
					c0.2,0,0.1,0,0.2,0c0,0-0.1,0.1-0.1,0.1c0,0,0,0,0.1,0c-0.2,0-0.3,0.1-0.3,0.1c0,0,0.1,0,0.2,0.1c0,0-0.1,0-0.3,0.1l0.4-0.1
					l0,0.1c-0.1,0-0.1,0.1-0.3,0.1c0.1,0,0.3,0,0.3,0c0,0-0.1,0.1-0.2,0.2c0,0,0.1,0,0.3-0.1c-0.1,0.1-0.2,0.3-0.1,0.3
					c0,0,0,0,0.3-0.1l0,0.1c0,0-0.2,0.2-0.1,0.3c0,0,0.1-0.1,0.1-0.1c0,0-0.1,0.2,0,0.2c0,0,0.1-0.1,0.2,0c0,0-0.1,0.1-0.1,0.1
					c0,0,0.1-0.1,0.1-0.1c0,0,0,0.1,0,0.2c0,0,0.1-0.1,0.1-0.1c0,0-0.1,0.1-0.1,0.1c0,0,0.1-0.1,0.1-0.1c0,0,0,0.2-0.1,0.3
					c0,0,0.1-0.1,0.1-0.2c0,0-0.1,0.1,0,0.1c0,0,0.1-0.1,0.1-0.1c0,0-0.1,0.1,0,0.1c0,0,0,0,0.1-0.1c0,0,0.1,0.2,0.2-0.1
					c0,0,0,0.2,0,0.2c0,0.1,0,0.2,0,0.2c0,0,0.1-0.2,0.2-0.4l0.1,0c0,0.2,0,0.3,0,0.3c0,0,0-0.1,0.1-0.1c0,0,0,0.1,0.1,0.1
					c0,0,0.1,0,0.1,0c0,0,0-0.2,0-0.2c0,0,0.1,0,0.1-0.2c0,0.1,0,0.1,0,0.2c0,0.1,0,0.1,0.1,0.2c0-0.1,0-0.1,0.1-0.1
					c0,0,0.1,0.1,0.1,0.1c0,0,0-0.1,0-0.1c0,0,0,0.1,0,0.1c0,0,0,0,0.1,0c0,0,0.1,0,0.1-0.1l0,0c0,0,0.1,0.1,0.1,0.1
					c0,0,0-0.1,0-0.2c0,0,0.1,0.1,0.1,0.1c0,0,0-0.1,0-0.1c0,0,0.1,0.1,0.1,0.1c0,0,0-0.1-0.1-0.3c0.1,0.1,0.2,0.2,0.3,0.2
					c0,0-0.1-0.1,0-0.2c0,0,0.1,0.1,0.1,0.1c0,0,0,0-0.1-0.1c0,0,0.1,0.1,0.2,0.2c0,0,0.2-0.2,0.2-0.2c0,0-0.1-0.1-0.1-0.1
					c0,0,0.1,0.1,0.1,0.1c0,0-0.1-0.1-0.1-0.1c0,0,0.1,0.1,0.2,0c0.1-0.1,0-0.1-0.1-0.2c0.1,0,0.3,0,0.5,0c0.1-0.1,0.3-0.3,0.5-0.3
					c0,0-0.1-0.1-0.3-0.2l0-0.2c0-0.1,0.2-0.1,0.2-0.2c0.1,0,0.1-0.1,0.3-0.1c0.2,0,0.1,0.1,0.3,0.2c0.2,0,0.3-0.1,0.4-0.3
					c0.2,0.2,0.5,0.4,0.6,0.6c0,0.1-0.2,0.2-0.2,0.3l0.4,0.1l-0.1,0.3c-0.1,0.3-0.1,0.1-0.2,0.1c0,0.1,0.1,0.2,0.2,0.2
					c0,0.1-0.1,0.1-0.2,0.2c-0.1,0.2-0.2,0.3-0.3,0.5c-0.1,0.1-0.1,0.2-0.2,0.2c-0.1,0.1-0.1,0.1-0.1,0.1c-0.1,0.1-0.2,0.1-0.3,0.2
					c-0.1,0.1-0.1,0.1-0.1,0.2C193.1,70.6,193.3,70.6,193.4,70.7z"/>
			</g>
		</g>
	</g>
</g>
<g>
	<g>
		<g>
			<g>
				<path fill-rule="evenodd" clip-rule="evenodd" fill="#3A494F" d="M148,39.2c0.1,0.1,0.2,0.3,0.3,0.4c0,0.1-0.1,0.2-0.1,0.3
					c0.2,0.1,0.2,0.4,0.4,0.5c0.2,0.1,0.1-0.1,0.3,0s0,0.2,0.2,0.3s0.6-0.1,0.8,0s-0.1,0.2,0.1,0.3c0.2,0.1,0.2-0.1,0.4,0
					c0.2,0.1,0.2,0.5,0.2,0.8c0.4,0,1.1,0.2,1.2,0.3c0.4,0.2,0.1,0.3,0.4,0.6c0,0-0.1,0,0.1,0.1s0.2-0.1,0.4,0s0,0.2,0.2,0.3
					c0.1,0,0.4-0.1,0.6-0.3c0.2,0.3,0.2,0.8,0.4,0.9c0.2,0.1,0.8,0,1,0.1c0.2,0.1-0.1,0.2,0.1,0.3c0.2,0.1,0.3-0.1,0.5,0
					c0.4,0.2-0.2,0.4,0.1,0.5c0.2,0.1,0.1-0.1,0.3,0c0.2,0.1,0.2,0.3,0.3,0.4c0.2,0.1,1.1,0.2,1.3,0.3c0.2,0.1,0.4,0.4,0.6,0.5
					c0.2,0.1,0.5,0.2,0.7,0.2c0.1,0,0,0.3-0.1,0.4L160,47c0-0.3,0-0.3,0-0.4c0.1,0,0,0.2,0.2,0.3c0.2,0.1,0.3-0.1,0.5,0
					c0.2,0.1,0.3,0.6,0.5,0.7c0.2,0.1,0.3-0.1,0.5,0c0.2,0.1,0,0.2,0.2,0.3c0.2,0.1,0.4,0,0.6-0.1c0.1,0.2-0.2,0.3,0,0.4
					c0.2,0.1,0.1-0.2,0.2-0.1c0.2,0.1-0.1,0.1,0.1,0.3c0.2,0.1,0.1-0.2,0.2-0.1c0.2,0.1-0.1,0.2,0.1,0.3c0.2,0.1,0.4,0,0.5,0.1
					c0.2,0.1,0.3,0.2,0.3,0.4c0.1,0,0.2-0.1,0.3-0.3c0.1,0,0,0.2,0.2,0.3c0.2,0.1,0.3-0.1,0.5,0c0.2,0.1,0.3,0.4,0.5,0.5
					c0.2,0.1,0.5,0.1,0.7,0.2s0.2,0.2,0.2,0.3c0.4,0.2,0.7,0.4,1,0.7c0,0.1-0.1,0.1,0,0.2s0.9,0,1.3,0l0.3,0.1
					c-0.1,0.1-0.2,0.1-0.5,0.2l0.5,0.3c0.2,0.1,0.2-0.1,0.4,0c0.2,0.1,0.2,0.3,0.3,0.4c0.2,0.1,0.2-0.1,0.4,0
					c0.2,0.1-0.1,0.2,0.1,0.3c0.2,0.1,0.4,0,0.5,0.1c0.2,0.1,0.5,0.5,0.7,0.6c0.1,0.1,0.4,0.3,0.6,0.1c0.1,0.2,0.2,0.3,0.1,0.5
					c0.2,0.1,0.2,0.3,0.3,0c0.1-0.2-0.1-0.2,0-0.3c0.1,0.3,0.2,0.5,0.4,0.6c0,0,0.5,0,0.7-0.2l0.3,0.2c-0.1,0.2,0,0.4-0.1,0.6
					c0.1,0,0.2-0.1,0.3-0.3c0.1,0.3,0.1,0.5,0.3,0.6c0.2,0.1,0.7-0.1,0.8,0c0.2,0.1,0,0.2,0.2,0.3c0.2,0.1,0.2,0,0.3-0.1
					c0.1,0.2-0.2,0.3,0,0.4c0.2,0.1,0.1-0.2,0.2-0.1c0.2,0.1,0.1,0.3,0.3,0.4c0.3,0.2,0.4,0.2,0.7-0.2l0.3,0.2
					c-0.1,0.2-0.2,0.6,0,0.6c0.2,0.1,0.1-0.2,0.2-0.1c0.2,0.1-0.1,0.1,0.1,0.3c0.2,0.1,0.4-0.1,0.6-0.1c0.2,0,0.2,0.1,0.4,0.2
					c0.2,0.1,0.7,0.9,0.9,1c0.6,0.4,0.6-0.1,0.9,0.1c0.3,0.2-0.1,0.4,0.5,0.7c0.2,0.1,0.5,0.1,0.7,0.2c0.2,0.1,0.4,0.5,0.5,0.7
					c0.1,0,0.2-0.1,0.3-0.3l0.2,0.1c0.2,0.1,0.1,0.2,0.2,0.4c0,0.1-0.1,0.3-0.1,0.4l0.2,0.1c0.2,0.1,0.2-0.1,0.4-0.2
					c0.2,0.1,0.4,0.2,0.5,0.2c0.1,0,0-0.2,0.2-0.1c0.2,0.1,0.4,0.5,0.5,0.7c0.1,0,0.2-0.1,0.3-0.3c0.1,0.2,0.2,0.3,0.4,0.4
					c0.2,0.1,0.4,0.1,0.6,0.1c0.1,0,0,0.3-0.1,0.4l0.4,0.2c0.1,0,0.2-0.2,0.3-0.3l0.4,0.2c0.2,0.1,0,0.2,0.2,0.3
					c0.2,0.1,0.2,0.1,0.3,0c0.4,0.5,0,0.4,0.5,0.7c0.3,0.2,0.9,0.1,1,0.1c0.2,0.1,0.1,0.5,0.3,0.6s0.1-0.1,0.3,0s-0.1,0.1,0.1,0.3
					c0.2,0.1,0.7,0.2,1,0.2c0.1,0,0,0,0.2,0.1c0.2,0.1,0.3,0.3,0.3,0.5l0,0.1l0.2,0.1c0.1,0,0.2-0.2,0.3-0.3
					c0.1,0.5,0.2,0.8,0.7,1.1c-0.1,0.1-0.2,0-0.3,0.2c-0.3,0.5,0.4,0.9,0.2,1.3c-0.1,0.2-0.1,0.1-0.2,0.2c-0.2,0-0.9-0.3-1.1,0.1
					c-0.1,0.2,0.1,0.3,0,0.4c-0.5-0.3-0.8,0-1-0.1c-0.2-0.1-0.3-0.4-0.5-0.5c-0.2-0.1-0.4,0-0.5-0.1c-0.2-0.1,0-0.1,0-0.2
					c-0.3-0.2-0.6-0.6-0.8-0.7s-0.3-0.3-0.5-0.2c-0.2,0-0.4,0.2-0.6,0.1c-0.2-0.1,0-0.1,0-0.2c-0.1-0.1-0.3-0.2-0.5-0.3
					c-0.2-0.1-0.5-0.3-1-0.3c0.1-0.1,0.2-0.1,0.3-0.1c0-0.1-0.1-0.2,0-0.4c-0.1,0-0.2,0.1-0.3,0c-0.2-0.1-0.1-0.2-0.1-0.3
					c-0.2,0-0.3-0.1-0.4,0.1c-0.1,0.2,0.1,0.2,0,0.3l-0.4-0.2c0-0.2,0-0.4-0.2-0.5c-0.2-0.1-0.1,0.2-0.2,0.1
					c-0.2-0.1,0.1-0.1-0.1-0.3c-0.2-0.1-0.2,0.1-0.4,0c-0.2-0.1-0.1-0.3-0.3-0.4c-0.2-0.1-0.5-0.2-0.8-0.2c-0.2,0-0.3,0.1-0.5,0.1
					c0-0.1,0.2-0.1,0.3-0.3c-0.3-0.2-0.8-0.6-0.9-0.7c-0.2-0.1-0.4-0.2-0.6-0.2l0,0c-0.2-0.1,0-0.1-0.1-0.3c-0.1,0-0.2,0.1-0.3,0.3
					c-0.1,0,0.1-0.2-0.1-0.3s-0.1,0-0.2,0.1c-0.1,0,0-0.3,0.1-0.4c-0.3-0.2-0.8-0.4-1.1-0.7c0-0.1,0.1-0.1,0-0.2s-0.9-0.1-1.1-0.2
					c-0.2-0.1-0.1-0.5-0.2-0.6s-0.1,0.2-0.2,0.1c-0.2-0.1-0.3-0.4-0.2-0.6c-0.1,0-0.2,0.1-0.3,0.3l-0.3-0.2c0.1-0.1-0.1-0.3,0-0.4
					c-0.1,0-0.3,0.1-0.5,0.4l-0.3-0.2c0.1-0.1,0.2-0.1,0.3-0.2c0-0.1,0.1,0-0.1-0.1c-0.2-0.1-0.5,0.2-0.7,0.1s0-0.2-0.2-0.3
					s-0.2,0.1-0.4,0s0.1-0.2-0.1-0.3c-0.2-0.1-0.2,0-0.3,0.1c-0.1-0.2-0.1-0.3-0.1-0.5s-0.3-0.2-0.5-0.3c-0.2-0.1-0.4-0.3-0.5-0.3
					c-0.1,0-0.2,0.1-0.4,0.1c0,0,0.1,0.1-0.1,0c-0.2-0.1-0.1-0.4-0.2-0.5c0-0.1-0.1-0.1-0.3-0.2c-0.6-0.3-0.6,0.1-0.9-0.1
					c-0.2-0.1-0.1-0.5-0.3-0.8l-0.2-0.1c-0.1,0,0-0.1-0.1,0.1c-0.1,0.2,0,0.3-0.1,0.4l-0.5-0.3c-0.2-0.1-0.1-0.3-0.3-0.4
					s-0.3-0.1-0.5,0c0-0.1,0.2-0.1,0.3-0.2c0-0.1,0.1,0-0.1-0.1c-0.2-0.1-0.2,0.1-0.4,0c-0.2-0.1,0-0.2-0.2-0.3
					c-0.2-0.1-0.4,0-0.6-0.1c-0.2-0.1-0.2-0.3-0.3-0.4c-0.2-0.1-0.1,0.2-0.2,0.1c-0.2-0.1,0.1-0.2-0.1-0.3s-0.1,0.1-0.3,0
					c-0.2-0.1-0.3-0.4-0.2-0.6c-0.2,0-0.3-0.1-0.4,0.1c-0.1,0.2,0.1,0.2,0,0.3c-0.3-0.1-0.2-0.3-0.3-0.4c-0.2-0.1-0.2,0-0.3,0.1
					c-0.1-0.3-0.1-0.5-0.3-0.6c-0.2-0.1-0.4,0-0.5-0.1c-0.1,0,0-0.2-0.1-0.5l-0.3,0.5l-0.6-0.3c0.1-0.1-0.1-0.3,0-0.4
					c-0.3,0.1-0.8,0-0.9-0.1c-0.2-0.1-0.3-0.4-0.2-0.6c-0.1,0-0.2,0.1-0.3,0.3c-0.2-0.4-0.7-0.8-0.9-0.9c-0.2-0.1-0.2-0.1-0.4,0.2
					l-0.4-0.2c-0.2-0.1-0.3-0.6-0.4-0.7s-0.2,0.1-0.4,0s-0.2-0.4-0.4-0.5s-0.4,0-0.5-0.1s0.1-0.1-0.1-0.3c-0.2-0.1-0.2,0.1-0.4,0
					s-0.2-0.3-0.3-0.4s-0.2,0.1-0.4,0c-0.2-0.1,0.1-0.1-0.1-0.3c-0.2-0.1-0.2,0.1-0.4,0c-0.2-0.1-0.3-0.4-0.2-0.6
					c-0.1,0-0.2,0.1-0.3,0.3c-0.1,0,0.1-0.2-0.1-0.3c-0.2-0.1-0.1,0.2-0.2,0.1c-0.2-0.1,0.1-0.1-0.1-0.3c-0.2-0.1-0.1,0-0.2,0.1
					c-0.2,0-0.5-0.5-0.8-0.2c-0.1,0,0-0.3,0-0.3c-0.1-0.1-0.1-0.4-0.3-0.5c-0.1-0.1-0.4,0.1-0.6,0.3l-0.4-0.2c0-0.2,0.1-0.4-0.1-0.5
					c-0.2-0.1-0.1,0.1-0.3,0c-0.2-0.1-0.2-0.3-0.3-0.4c-0.2-0.1-0.2-0.1-0.3-0.2c-0.1,0-0.2,0.2-0.3,0.2c-0.1,0-0.3-0.1-0.6-0.1
					c0-0.1,0.1-0.1,0.3-0.1c0-0.1-0.1-0.2,0-0.4c-0.2,0-0.4,0-0.6-0.1c-0.2-0.1-0.2-0.3-0.3-0.4c-0.2-0.1-0.1,0.2-0.2,0.1
					s0-0.1,0-0.2c-0.1-0.1-0.2-0.1-0.4-0.2s-0.4-0.2-0.6-0.2l0,0c-0.2-0.1,0-0.2-0.1-0.3c-0.2-0.1-0.2,0.1-0.4,0s0-0.2-0.2-0.3
					s-0.1,0.1-0.3,0c-0.2-0.1,0-0.2-0.2-0.3c-0.2-0.1-0.4,0-0.6,0.1c-0.1-0.3-0.3-0.6-0.4-0.7s-0.2,0.1-0.4,0s0.1-0.2-0.1-0.3
					c-0.2-0.1-0.2,0-0.2,0.1c-0.1,0,0-0.3,0.1-0.4l-1.3-0.7c-0.2-0.1-0.1,0.2-0.2,0.1c-0.2-0.1,0.1-0.2-0.1-0.3s-0.2,0.1-0.4,0
					s0-0.2-0.2-0.3c-0.2-0.1-0.2-0.1-0.3,0.1c-0.1-0.2-0.2-0.5-0.1-0.7c-0.2-0.2-0.5-0.5-0.5-0.7c-0.1,0-0.2,0.1-0.3,0.3l-0.3-0.2
					c-0.2-0.1-0.1-0.3-0.2-0.4c0.1-0.2-0.1-0.3,0-0.5c0.1-0.2,0.2,0,0.4-0.2c0.1-0.2,0-0.4-0.1-0.6c0.3-0.2,0.6-0.3,1-0.5
					c0.1,0.1,0.1,0.3,0.2,0.4l0.3-0.5l0.2,0.1c0.2,0.1,0,0.1,0,0.2c0.1,0,0.2-0.1,0.3-0.3c0.1,0.1,0.1,0.2,0.1,0.2
					c0.2,0.1,0.5,0.3,0.7,0.5c0.3,0.3,0.6,0.5,0.8,0.6c0.2,0.1,0.4,0.2,0.5,0.2C148.1,39.6,148,39.3,148,39.2z"/>
			</g>
		</g>
	</g>
	<g>
		<circle fill="#FFFFFF" cx="191.1" cy="66.2" r="3"/>
		<g>
			<g>
				<path fill-rule="evenodd" clip-rule="evenodd" fill="#3A494F" d="M194.4,69.5c-0.1,0-0.2,0-0.2,0c-0.1,0-0.1-0.1-0.2-0.1
					c-0.1,0.1-0.2,0-0.3,0c-0.1,0.1,0.1,0.1,0,0.2c-0.1,0.1-0.1-0.1-0.2,0c-0.1,0.1,0,0.3-0.1,0.4c-0.1,0-0.1-0.1-0.2-0.1
					c-0.1,0,0,0.2-0.1,0.2c-0.1,0-0.3-0.2-0.4-0.3c0,0.2-0.3,0.4-0.4,0.5c-0.2,0.1-0.2-0.1-0.3-0.2c0,0,0,0-0.1,0
					c-0.1,0,0,0.2-0.1,0.2c-0.1,0-0.1-0.1-0.2-0.1c0,0-0.1,0.2-0.1,0.4c-0.1-0.1-0.3-0.4-0.4-0.4c-0.1,0-0.3,0.3-0.4,0.3
					c-0.1,0,0-0.1-0.1-0.1c-0.1,0-0.1,0.1-0.2,0.1c-0.2,0,0-0.3-0.1-0.3c-0.1,0,0,0.1-0.1,0.1c-0.1,0-0.1-0.2-0.2-0.2
					c-0.1,0-0.5,0.2-0.6,0.1c-0.1,0-0.2-0.2-0.2-0.3c-0.1,0-0.2,0-0.3,0c0,0,0-0.2,0.1-0.3c0,0-0.5-0.3-0.5-0.3
					c-0.1,0.2-0.1,0.2-0.1,0.3c0,0,0-0.1,0-0.2c-0.1-0.1-0.2,0.1-0.2,0c-0.1-0.1,0-0.4,0-0.4c-0.1-0.1-0.2,0-0.2,0
					c-0.1-0.1,0.1-0.1,0-0.2c-0.1-0.1-0.2,0-0.3,0c0-0.1,0.2-0.2,0.2-0.2c-0.1-0.1-0.1,0.1-0.2,0c-0.1-0.1,0.1-0.1,0.1-0.1
					c-0.1-0.1-0.1,0.1-0.2,0c-0.1-0.1,0.1-0.1,0.1-0.2c0-0.1-0.2,0-0.2-0.1c0-0.1-0.1-0.1,0-0.2c0,0-0.1,0-0.3,0.1
					c0,0,0.1-0.1,0.1-0.2c0-0.1-0.2,0-0.2-0.1c0-0.1,0.1-0.2,0-0.3c0-0.1-0.2-0.1-0.2-0.2c0-0.1,0-0.1,0.1-0.2c0-0.2,0-0.3,0-0.5
					c0.1,0,0.1,0,0.1-0.1c0-0.1-0.3-0.3-0.4-0.5l0-0.1c0.1,0,0.1,0.1,0.3,0.1l0-0.3c0-0.1-0.2,0-0.1-0.1c0-0.1,0.2-0.1,0.2-0.2
					c0-0.1-0.1-0.1-0.1-0.2c0-0.1,0.1,0,0.2-0.1c0-0.1-0.1-0.2-0.1-0.2c0-0.1,0.2-0.3,0.3-0.3c0-0.1,0.1-0.2,0-0.3
					c0.1,0,0.2,0,0.3,0c0-0.1,0.1-0.1,0-0.1c-0.2-0.1-0.1,0-0.2,0c0.2,0,0.3,0,0.4-0.1c0,0,0-0.2-0.2-0.4l0.1-0.1
					c0.1,0.1,0.3,0.1,0.4,0.2c0,0-0.1-0.1-0.2-0.2c0.2,0,0.3,0.1,0.4,0c0.1-0.1-0.1-0.4,0-0.4c0.1-0.1,0.1,0.1,0.2,0
					c0.1-0.1,0-0.1,0-0.2c0.1,0,0.2,0.2,0.3,0.1c0.1-0.1-0.1-0.1,0-0.2c0.1-0.1,0.2,0.1,0.2,0c0.1-0.1,0.1-0.1-0.1-0.5l0.1-0.1
					c0.1,0.1,0.3,0.3,0.3,0.3c0.1,0-0.1-0.1,0-0.2c0.1,0,0.1,0.1,0.1,0.1c0.1,0,0-0.2,0-0.3c0-0.1,0.1-0.1,0.2-0.1
					c0.1-0.1,0.5,0.1,0.6,0.1c0.3-0.1,0.1-0.3,0.3-0.4c0.1,0,0.1,0.3,0.4,0.2c0.1,0,0.2-0.2,0.3-0.2c0.1,0,0.2,0.1,0.3,0.3
					c0,0,0-0.1,0.1-0.3l0.1,0c0.1,0,0.1,0.1,0.1,0.2c0,0.1,0,0.2,0,0.3l0.1,0c0.1,0,0.1-0.1,0.1-0.2c0.1,0,0.2,0,0.2,0
					c0,0,0-0.1,0.1-0.1c0.1,0,0.2,0.2,0.2,0.4c0,0,0.1-0.1,0.1-0.3c0,0.1,0.1,0.2,0.2,0.2c0.1,0,0.2,0,0.3,0c0,0,0,0.2-0.1,0.3
					l0.2,0.1c0.1,0,0.1-0.2,0.2-0.2l0.2,0.1c0.1,0,0,0.1,0,0.2c0.1,0,0.1,0,0.2-0.1c0.1,0.3-0.1,0.3,0.1,0.4c0.1,0.1,0.4,0,0.5,0
					c0.1,0.1-0.1,0.3,0,0.4c0.1,0.1,0.1-0.1,0.2,0c0.1,0.1-0.1,0.1-0.1,0.1c0.1,0.1,0.3,0.1,0.4,0.1c0,0,0,0,0.1,0.1
					c0.1,0.1-0.1,0.2-0.1,0.4c0,0,0.1,0.2,0.1,0.2c0.1,0,0.2,0,0.3,0c-0.1,0.4-0.2,0.7-0.1,1.2c-0.1,0-0.1-0.1-0.3-0.1
					c-0.4,0.1-0.4,0.7-0.7,0.7c-0.2,0-0.1,0-0.2,0c0-0.1-0.2-0.5-0.5-0.4c-0.2,0-0.2,0.1-0.2,0.1c-0.1-0.2-0.4-0.2-0.4-0.3
					c0-0.1,0-0.2,0-0.2c0,0-0.1,0-0.2,0c0,0,0.1-0.1,0.1-0.1c0,0,0-0.2,0-0.2c0,0,0-0.1-0.1-0.1c-0.1,0-0.2,0.2-0.2,0.1
					c0,0,0-0.1,0.1-0.1c0,0,0-0.1-0.1-0.1c0,0-0.1-0.1-0.2,0c0.1-0.1,0.1-0.1,0.1-0.1c0,0,0-0.1,0.1-0.2c0,0-0.1,0.1-0.1,0.1
					c0,0,0-0.1,0-0.1c-0.1,0-0.1,0-0.1,0.2c-0.1,0.2,0,0.1-0.1,0.2l-0.1,0c0.1-0.1,0.1-0.3,0.1-0.3c0,0-0.1,0.1-0.1,0.1
					c0,0,0.1-0.1,0-0.1c0,0-0.1,0.1-0.1,0.1c0,0,0-0.1,0-0.2c0,0-0.1,0-0.2,0.1c0,0.1-0.1,0.2-0.1,0.3c0-0.1,0.1-0.2,0.1-0.3
					c-0.1,0-0.1-0.2-0.2-0.2c0,0-0.1,0-0.1,0.1l0,0c0,0,0-0.1,0-0.1c0,0,0,0.1,0,0.3c0,0,0-0.1,0-0.1c0,0,0,0,0,0.1c0,0,0-0.2,0-0.3
					c-0.1,0-0.2,0-0.2,0c0-0.1,0-0.1,0-0.1c0,0-0.1,0.3-0.1,0.3c0,0-0.1-0.3-0.2-0.2c0,0,0.1,0.1,0,0.1c0,0-0.1-0.1-0.2-0.2
					c0,0,0,0.1,0.1,0.3l0,0c0-0.1-0.1-0.1-0.2-0.2c0,0,0,0.1,0.1,0.4l0,0c-0.1-0.1-0.1-0.2-0.1-0.2c0,0,0,0-0.1,0
					c0,0,0.1,0.3,0.1,0.3c0,0-0.1-0.1-0.1-0.1c0,0,0.1,0.1,0,0.1c0,0-0.1-0.1-0.1-0.1c0,0,0,0,0.1,0.1c-0.1,0-0.2-0.1-0.2-0.2
					c-0.1,0-0.1,0-0.1,0.1c0,0-0.1,0-0.1,0.1c0,0,0.1,0.1,0.2,0.2c0,0,0,0,0,0c0,0-0.2-0.1-0.3-0.1c0,0,0,0,0,0
					c-0.1,0.1,0.2,0.2,0.2,0.3c0,0-0.2-0.1-0.4-0.1l0,0c0.1,0,0,0,0.1,0.1c0.2,0.1,0.2,0,0.3,0.1l0,0.1c0,0-0.1,0-0.2,0
					c0,0,0,0.1,0.1,0.1c-0.1,0-0.2-0.1-0.2-0.1c-0.1,0,0,0-0.1,0c0,0,0.1,0.1,0.1,0.1c0,0-0.1,0-0.2,0c0,0,0.1,0.1,0.1,0.1
					c0,0-0.1,0-0.2,0.1c0,0,0.1,0,0.1,0c0,0-0.1,0-0.1,0c0,0,0.1,0,0.1,0.1c0,0-0.2,0.1-0.3,0.1c0.1,0,0,0.1,0.2,0
					c0.2,0,0.1,0,0.2,0c0,0-0.1,0.1-0.1,0.1c0,0,0,0,0.1,0c-0.2,0-0.3,0.1-0.3,0.1c0,0,0.1,0,0.2,0.1c0,0-0.1,0-0.3,0.1l0.4-0.1
					l0,0.1c-0.1,0-0.1,0.1-0.3,0.1c0.1,0,0.3,0,0.3,0c0,0-0.1,0.1-0.2,0.2c0,0,0.1,0,0.3-0.1c-0.1,0.1-0.2,0.3-0.1,0.3
					c0,0,0,0,0.3-0.1l0,0.1c0,0-0.2,0.2-0.1,0.3c0,0,0.1-0.1,0.1-0.1c0,0-0.1,0.2,0,0.2c0,0,0.1-0.1,0.2,0c0,0-0.1,0.1-0.1,0.1
					c0,0,0.1-0.1,0.1-0.1c0,0,0,0.1,0,0.2c0,0,0.1-0.1,0.1-0.1c0,0-0.1,0.1-0.1,0.1c0,0,0.1-0.1,0.1-0.1c0,0,0,0.2-0.1,0.3
					c0,0,0.1-0.1,0.1-0.2c0,0-0.1,0.1,0,0.1c0,0,0.1-0.1,0.1-0.1c0,0-0.1,0.1,0,0.1c0,0,0,0,0.1-0.1c0,0,0.1,0.2,0.2-0.1
					c0,0,0,0.2,0,0.2c0,0.1,0,0.2,0,0.2c0,0,0.1-0.2,0.2-0.4l0.1,0c0,0.2,0,0.3,0,0.3c0,0,0-0.1,0.1-0.1c0,0,0,0.1,0.1,0.1
					c0,0,0.1,0,0.1,0c0,0,0-0.2,0-0.2c0,0,0.1,0,0.1-0.2c0,0.1,0,0.1,0,0.2c0,0.1,0,0.1,0.1,0.2c0-0.1,0-0.1,0.1-0.1
					c0,0,0.1,0.1,0.1,0.1c0,0,0-0.1,0-0.1c0,0,0,0.1,0,0.1c0,0,0,0,0.1,0c0,0,0.1,0,0.1-0.1l0,0c0,0,0.1,0.1,0.1,0.1
					c0,0,0-0.1,0-0.2c0,0,0.1,0.1,0.1,0.1c0,0,0-0.1,0-0.1c0,0,0.1,0.1,0.1,0.1c0,0,0-0.1-0.1-0.3c0.1,0.1,0.2,0.2,0.3,0.2
					c0,0-0.1-0.1,0-0.2c0,0,0.1,0.1,0.1,0.1c0,0,0,0-0.1-0.1c0,0,0.1,0.1,0.2,0.2c0,0,0.2-0.2,0.2-0.2c0,0-0.1-0.1-0.1-0.1
					c0,0,0.1,0.1,0.1,0.1c0,0-0.1-0.1-0.1-0.1c0,0,0.1,0.1,0.2,0c0.1-0.1,0-0.1-0.1-0.2c0.1,0,0.3,0,0.5,0c0.1-0.1,0.3-0.3,0.5-0.3
					c0,0-0.1-0.1-0.3-0.2l0-0.2c0-0.1,0.2-0.1,0.2-0.2c0.1,0,0.1-0.1,0.3-0.1c0.2,0,0.1,0.1,0.3,0.2c0.2,0,0.3-0.1,0.4-0.3
					c0.2,0.2,0.5,0.4,0.6,0.6c0,0.1-0.2,0.2-0.2,0.3l0.4,0.1l-0.1,0.3c-0.1,0.3-0.1,0.1-0.2,0.1c0,0.1,0.1,0.2,0.2,0.2
					c0,0.1-0.1,0.1-0.2,0.2c-0.1,0.2-0.2,0.3-0.3,0.5c-0.1,0.1-0.1,0.2-0.2,0.2c-0.1,0.1-0.1,0.1-0.1,0.1c-0.1,0.1-0.2,0.1-0.3,0.2
					c-0.1,0.1-0.1,0.1-0.1,0.2C194.2,69.4,194.3,69.4,194.4,69.5z"/>
			</g>
		</g>
	</g>
</g>
<path fill="#FFFFFF" d="M144.8,74.7H4c-2.2,0-4-1.8-4-4V4c0-2.2,1.8-4,4-4h140.8c2.2,0,4,1.8,4,4v66.8C148.8,73,147,74.7,144.8,74.7
	z"/>
<g>
</g>
<g>
</g>
<g>
</g>
<g>
</g>
<g>
</g>
<g>
</g>
<g>
</g>
<g>
</g>
<g>
</g>
<g>
</g>
<g>
</g>
<g>
</g>
<g>
</g>
<g>
</g>
<g>
</g>
</svg>
