<?xml version="1.0" encoding="utf-8"?>
<!-- Generator: Adobe Illustrator 18.0.0, SVG Export Plug-In . SVG Version: 6.00 Build 0)  -->
<!DOCTYPE svg PUBLIC "-//W3C//DTD SVG 1.1//EN" "http://www.w3.org/Graphics/SVG/1.1/DTD/svg11.dtd">
<svg version="1.1" id="Layer_1" xmlns="http://www.w3.org/2000/svg" xmlns:xlink="http://www.w3.org/1999/xlink" x="0px" y="0px"
	 viewBox="0 0 138.7 58.1" enable-background="new 0 0 138.7 58.1" xml:space="preserve">
<g>
	<g>
		<g>
			<g>
				<path fill-rule="evenodd" clip-rule="evenodd" fill="#3A494F" d="M97.7,28.6c0.1,0.1,0.1,0.2,0.2,0.3c0,0.1-0.1,0.2,0,0.2
					c0.2,0.1,0.2,0.3,0.4,0.4c0.2,0.1,0.1-0.1,0.3,0s0,0.2,0.2,0.3c0.2,0.1,0.5,0,0.6,0.1c0.2,0.1,0,0.1,0.1,0.2
					c0.2,0.1,0.2-0.1,0.3,0c0.2,0.1,0.2,0.4,0.2,0.6c0.3,0,0.9,0.2,1,0.3c0.3,0.2,0.1,0.3,0.3,0.5c0,0-0.1,0,0.1,0.1
					c0.2,0.1,0.2-0.1,0.3,0c0.2,0.1,0,0.2,0.2,0.3c0.1,0,0.3,0,0.5-0.2c0.1,0.2,0.2,0.6,0.4,0.7c0.2,0.1,0.7,0.1,0.8,0.2
					c0.2,0.1,0,0.1,0.1,0.2c0.2,0.1,0.2,0,0.4,0.1c0.3,0.2-0.1,0.2,0.1,0.4c0.2,0.1,0.1-0.1,0.3,0c0.2,0.1,0.1,0.2,0.3,0.3
					c0.2,0.1,0.9,0.3,1.1,0.4c0.2,0.1,0.3,0.4,0.5,0.5c0.2,0.1,0.4,0.2,0.6,0.2c0.1,0,0,0.2-0.1,0.3l1,0.6c0-0.2,0-0.2,0-0.3
					c0.1,0,0,0.2,0.2,0.3c0.2,0.1,0.2,0,0.4,0.1c0.2,0.1,0.3,0.5,0.4,0.6c0.2,0.1,0.2,0,0.4,0.1c0.2,0.1,0,0.2,0.2,0.3
					c0.2,0.1,0.3,0.1,0.5,0c0,0.1-0.1,0.2,0,0.3c0.2,0.1,0-0.1,0.2,0c0.2,0.1-0.1,0.1,0.1,0.2c0.2,0.1,0-0.1,0.2,0
					c0.2,0.1,0,0.1,0.1,0.2c0.2,0.1,0.3,0,0.4,0.1c0.2,0.1,0.2,0.2,0.2,0.3c0,0,0.1,0,0.2-0.2c0.1,0,0,0.2,0.2,0.3
					c0.2,0.1,0.2,0,0.4,0.1c0.2,0.1,0.3,0.3,0.4,0.4c0.2,0.1,0.4,0.1,0.6,0.2c0.2,0.1,0.1,0.2,0.2,0.2c0.3,0.2,0.6,0.4,0.9,0.6
					c0,0.1-0.1,0.1,0,0.2c0.2,0.1,0.7,0.1,1,0.2l0.2,0.1c0,0.1-0.2,0-0.4,0.1l0.5,0.3c0.2,0.1,0.1-0.1,0.3,0s0.1,0.2,0.3,0.3
					c0.2,0.1,0.2-0.1,0.3,0c0.2,0.1,0,0.1,0.1,0.2c0.2,0.1,0.3,0,0.4,0.1c0.2,0.1,0.5,0.4,0.6,0.5c0.1,0.1,0.3,0.3,0.5,0.2
					c0,0.1,0.1,0.3,0.1,0.4c0.2,0.1,0.1,0.2,0.2,0.1c0.1-0.1-0.1-0.2,0-0.2c0.1,0.2,0.2,0.4,0.3,0.5c0,0,0.4,0.1,0.6-0.1l0.2,0.1
					c-0.1,0.1,0,0.3,0,0.4c0,0,0.1,0,0.2-0.2c0.1,0.2,0.1,0.4,0.3,0.5c0.2,0.1,0.5,0,0.7,0.1c0.2,0.1,0,0.2,0.2,0.3
					c0.2,0.1,0.1,0.1,0.2,0c0.1,0.1-0.1,0.2,0,0.3c0.2,0.1,0-0.1,0.2,0c0.2,0.1,0.1,0.2,0.2,0.3c0.3,0.2,0.3,0.2,0.6-0.1l0.2,0.1
					c-0.1,0.1-0.1,0.4,0,0.4c0.2,0.1,0-0.1,0.2,0c0.2,0.1-0.1,0.1,0.1,0.2c0.2,0.1,0.3,0,0.5,0c0.1,0,0.2,0.1,0.4,0.2
					c0.2,0.1,0.6,0.7,0.8,0.8c0.5,0.3,0.5,0,0.8,0.2c0.3,0.2-0.1,0.3,0.5,0.6c0.2,0.1,0.4,0.1,0.6,0.2c0.2,0.1,0.3,0.4,0.4,0.6
					c0.1,0,0.1,0,0.2-0.2l0.2,0.1c0.2,0.1,0.1,0.2,0.2,0.3c0,0.1-0.1,0.2-0.1,0.3l0.2,0.1c0.2,0.1,0.2,0,0.3-0.1
					c0.1,0.1,0.3,0.2,0.4,0.2c0.1,0,0-0.1,0.2,0c0.2,0.1,0.3,0.4,0.4,0.6c0.1,0,0.1,0,0.2-0.2c0.1,0.1,0.2,0.3,0.3,0.4
					c0.2,0.1,0.4,0.2,0.5,0.2c0.1,0,0,0.2-0.1,0.3l0.3,0.2c0.1,0,0.1-0.1,0.2-0.2l0.3,0.2c0.2,0.1,0,0.2,0.2,0.2
					c0.2,0.1,0.2,0.1,0.3,0c0.3,0.4,0,0.3,0.5,0.6c0.3,0.2,0.7,0.2,0.8,0.2c0.2,0.1,0.1,0.4,0.3,0.5c0.2,0.1,0.1-0.1,0.3,0
					c0.2,0.1-0.1,0.1,0.1,0.2c0.2,0.1,0.6,0.2,0.8,0.2c0.1,0,0,0,0.2,0.1c0.2,0.1,0.3,0.4,0.3,0.5l0.1,0.1c0.1,0,0.1-0.1,0.2-0.2
					c0,0.3,0.1,0.6,0.4,0.7c0,0.1-0.1,0-0.2,0.1c-0.2,0.3,0.2,0.6,0.1,0.9c-0.1,0.1-0.1,0.1-0.1,0.1c-0.1,0-0.6-0.2-0.7,0
					c-0.1,0.1,0,0.2,0,0.3c-0.3-0.2-0.6,0-0.7-0.1c-0.1-0.1-0.1-0.1-0.2-0.2c0-0.1-0.1-0.1-0.1-0.1c-0.2-0.1-0.3,0-0.4-0.1
					c-0.2-0.1,0-0.1,0-0.2c-0.2-0.2-0.5-0.5-0.7-0.6c-0.2-0.1-0.2-0.2-0.4-0.2c-0.1,0-0.3,0.1-0.5,0c-0.2-0.1,0-0.1,0-0.2
					c-0.1-0.1-0.3-0.2-0.4-0.3c-0.2-0.1-0.4-0.3-0.8-0.4c0-0.1,0.1-0.1,0.2-0.1c0,0-0.1-0.2-0.1-0.3c0,0-0.1,0.1-0.3,0
					c-0.2-0.1-0.1-0.1-0.1-0.2c-0.1,0-0.2-0.1-0.3,0c-0.1,0.1,0.1,0.2,0,0.2l-0.3-0.2c0-0.2,0-0.3-0.2-0.4c-0.2-0.1,0,0.1-0.2,0
					c-0.2-0.1,0.1-0.1-0.1-0.2c-0.2-0.1-0.2,0.1-0.3,0c-0.2-0.1-0.1-0.2-0.2-0.3c-0.2-0.1-0.4-0.2-0.6-0.2c-0.1,0-0.3,0-0.4,0
					c0-0.1,0.2-0.1,0.3-0.2c-0.3-0.2-0.6-0.6-0.8-0.7c-0.2-0.1-0.3-0.2-0.5-0.2l0,0c-0.2-0.1,0-0.1-0.1-0.2c-0.1,0-0.1,0-0.2,0.2
					c-0.1,0,0-0.1-0.1-0.2c-0.2-0.1-0.1,0-0.1,0.1c-0.1,0,0-0.2,0-0.3c-0.3-0.2-0.7-0.4-1-0.6c0-0.1,0.1,0,0-0.1
					c-0.2-0.1-0.7-0.2-0.9-0.3c-0.2-0.1-0.1-0.4-0.2-0.5c-0.2-0.1,0,0.1-0.2,0c-0.2-0.1-0.2-0.3-0.2-0.5c0,0-0.1,0-0.2,0.2l-0.2-0.1
					c0-0.1-0.1-0.2,0-0.3c-0.1,0-0.2,0-0.4,0.2L121,47c0-0.1,0.2-0.1,0.2-0.1c0-0.1,0.1,0-0.1-0.1c-0.2-0.1-0.4,0-0.6-0.1
					c-0.2-0.1,0-0.2-0.2-0.3c-0.2-0.1-0.2,0.1-0.3,0c-0.2-0.1,0-0.1-0.1-0.2c-0.2-0.1-0.1-0.1-0.2,0c-0.1-0.1-0.1-0.3-0.1-0.4
					c-0.1-0.1-0.3-0.2-0.4-0.3c-0.2-0.1-0.3-0.2-0.5-0.3c-0.1,0-0.2,0-0.3,0.1c0,0,0.1,0.1-0.1,0c-0.2-0.1-0.1-0.3-0.2-0.4
					c0-0.1-0.1-0.1-0.3-0.2c-0.5-0.3-0.5,0-0.8-0.2c-0.2-0.1-0.1-0.3-0.3-0.6l-0.2-0.1c-0.1,0,0-0.1-0.1,0.1c-0.1,0.1,0,0.2,0,0.3
					l-0.4-0.3c-0.2-0.1-0.1-0.2-0.2-0.3c-0.2-0.1-0.3-0.1-0.4-0.1c0-0.1,0.2-0.1,0.2-0.1c0-0.1,0.1,0-0.1-0.1
					c-0.2-0.1-0.2,0.1-0.3,0c-0.2-0.1,0-0.2-0.2-0.3c-0.2-0.1-0.3-0.1-0.5-0.2c-0.2-0.1-0.1-0.2-0.3-0.3c-0.2-0.1,0,0.1-0.2,0
					c-0.2-0.1,0-0.1-0.1-0.2c-0.2-0.1-0.1,0.1-0.3,0c-0.2-0.1-0.2-0.3-0.2-0.4c-0.1,0-0.2-0.1-0.3,0c-0.1,0.1,0.1,0.2,0,0.2
					c-0.2-0.1-0.1-0.2-0.3-0.3s-0.1-0.1-0.2,0c-0.1-0.2-0.1-0.4-0.3-0.5c-0.2-0.1-0.3,0-0.4-0.1c-0.1,0,0-0.2-0.1-0.4l-0.2,0.3
					l-0.5-0.3c0-0.1-0.1-0.2,0-0.3c-0.2,0-0.6-0.1-0.8-0.2c-0.2-0.1-0.2-0.3-0.2-0.5c0,0-0.1,0-0.2,0.2c-0.2-0.3-0.6-0.7-0.8-0.8
					c-0.2-0.1-0.2-0.1-0.3,0.1l-0.3-0.2c-0.2-0.1-0.2-0.5-0.4-0.6c-0.2-0.1-0.2,0.1-0.3,0c-0.2-0.1-0.2-0.3-0.4-0.4s-0.3,0-0.4-0.1
					c-0.2-0.1,0.1-0.1-0.1-0.2c-0.2-0.1-0.2,0.1-0.3,0c-0.2-0.1-0.1-0.2-0.3-0.3c-0.2-0.1-0.2,0.1-0.3,0c-0.2-0.1,0.1-0.1-0.1-0.2
					c-0.2-0.1-0.2,0.1-0.3,0c-0.2-0.1-0.2-0.3-0.2-0.5c0,0-0.1,0-0.2,0.2c-0.1,0,0-0.1-0.1-0.2c-0.2-0.1,0,0.1-0.2,0
					c-0.2-0.1,0.1-0.1-0.1-0.2c-0.2-0.1-0.1,0-0.2,0c-0.1,0-0.4-0.4-0.7-0.2c-0.1,0,0-0.2,0-0.3c-0.1-0.1-0.1-0.3-0.3-0.4
					c-0.1-0.1-0.3,0-0.5,0.2l-0.3-0.2c0-0.2,0-0.3-0.1-0.4c-0.2-0.1-0.1,0.1-0.3,0c-0.2-0.1-0.1-0.2-0.3-0.3
					c-0.2-0.1-0.2-0.1-0.3-0.2c-0.1,0-0.1,0.1-0.2,0.1c-0.1,0-0.2-0.1-0.5-0.1c0-0.1,0.1-0.1,0.2-0.1c0,0-0.1-0.2,0-0.3
					c-0.1,0-0.3,0-0.5-0.1c-0.2-0.1-0.1-0.2-0.3-0.3c-0.2-0.1,0,0.1-0.2,0c-0.2-0.1,0-0.1,0-0.2c-0.1-0.1-0.2-0.1-0.3-0.2
					c-0.2-0.1-0.3-0.2-0.5-0.2l0,0c-0.2-0.1,0-0.1-0.1-0.2c-0.2-0.1-0.2,0.1-0.3,0c-0.2-0.1,0-0.2-0.2-0.3s-0.1,0.1-0.3,0
					c-0.2-0.1,0-0.2-0.2-0.3c-0.2-0.1-0.3-0.1-0.5,0c-0.1-0.2-0.2-0.5-0.4-0.6c-0.2-0.1-0.2,0.1-0.3,0c-0.2-0.1,0-0.1-0.1-0.2
					c-0.2-0.1-0.1-0.1-0.2,0c-0.1,0,0-0.2,0-0.3l-1.1-0.7c-0.2-0.1,0,0.1-0.2,0c-0.2-0.1,0-0.1-0.1-0.2c-0.2-0.1-0.2,0.1-0.3,0
					c-0.2-0.1,0-0.2-0.2-0.3c-0.1-0.1-0.1,0-0.2,0c0-0.1-0.1-0.3,0-0.5c-0.1-0.1-0.3-0.4-0.3-0.5c0,0-0.1,0-0.2,0.2l-0.2-0.1
					c-0.1-0.1,0-0.2-0.1-0.3c0-0.1-0.1-0.2,0-0.3c0.1-0.1,0.2,0,0.3-0.1c0.1-0.1,0-0.3,0-0.4c0.2-0.1,0.5-0.2,0.7-0.3
					c0.1,0,0.1,0.2,0.1,0.3l0.2-0.3l0.2,0.1c0.1,0.1,0,0.1,0,0.2c0,0,0.1,0,0.2-0.2c0.1,0,0.1,0.1,0.1,0.2c0.1,0.1,0.3,0.2,0.5,0.4
					c0.3,0.2,0.5,0.5,0.6,0.5c0.2,0.1,0.3,0.2,0.5,0.2C97.7,28.9,97.7,28.7,97.7,28.6z"/>
			</g>
		</g>
	</g>
	<g>
		<circle fill="#3A494F" cx="134.7" cy="54" r="2.7"/>
		<g>
			<g>
				<path fill-rule="evenodd" clip-rule="evenodd" fill="#3A494F" d="M137.8,57.1c-0.1,0-0.1,0-0.2,0c-0.1,0-0.1-0.1-0.2-0.1
					c-0.1,0-0.2,0-0.3,0c-0.1,0,0.1,0.1,0,0.2c-0.1,0-0.1-0.1-0.2,0c-0.1,0,0,0.3-0.1,0.4c-0.1,0-0.1-0.1-0.2-0.1
					c-0.1,0,0,0.1-0.1,0.2c-0.1,0-0.3-0.2-0.4-0.3c0,0.2-0.3,0.4-0.3,0.4c-0.2,0-0.1-0.1-0.3-0.2c0,0,0,0,0,0c-0.1,0,0,0.1-0.1,0.2
					c-0.1,0-0.1-0.1-0.1-0.1c0,0-0.1,0.2-0.1,0.4c-0.1-0.1-0.3-0.4-0.3-0.4c-0.1,0-0.3,0.3-0.3,0.3c-0.1,0,0-0.1-0.1-0.1
					c-0.1,0-0.1,0.1-0.2,0.1c-0.2,0,0-0.3-0.1-0.3c-0.1,0,0,0.1-0.1,0.1c-0.1,0-0.1-0.1-0.2-0.2c-0.1,0-0.4,0.2-0.5,0.1
					c-0.1,0-0.2-0.2-0.2-0.2c-0.1,0-0.2,0-0.3,0c0,0,0-0.2,0.1-0.3c0,0-0.4-0.3-0.4-0.3c-0.1,0.2,0,0.2-0.1,0.3c0,0,0-0.1,0-0.2
					c-0.1,0-0.1,0.1-0.2,0c-0.1-0.1,0-0.3,0-0.4c-0.1-0.1-0.1,0-0.2,0c-0.1-0.1,0.1-0.1,0-0.2c-0.1-0.1-0.2,0-0.3,0
					c0-0.1,0.2-0.2,0.2-0.2c0-0.1-0.1,0.1-0.1,0c0-0.1,0.1-0.1,0.1-0.1c0-0.1-0.1,0.1-0.1,0c0-0.1,0.1-0.1,0.1-0.2
					c0-0.1-0.2,0-0.2-0.1c0-0.1,0-0.1,0-0.2c0,0-0.1,0-0.2,0.1c0,0,0.1-0.1,0.1-0.2c0-0.1-0.2,0-0.2-0.1c0-0.1,0.1-0.2,0-0.3
					c0-0.1-0.2-0.1-0.2-0.2c0-0.1,0-0.1,0.1-0.1c0-0.2,0-0.3,0-0.5c0.1,0,0.1,0,0.1-0.1c0-0.1-0.3-0.3-0.4-0.4l0-0.1
					c0.1,0,0.1,0.1,0.3,0.1l0-0.2c0-0.1-0.1,0-0.1-0.1c0-0.1,0.1-0.1,0.2-0.2c0-0.1-0.1-0.1-0.1-0.1c0-0.1,0.1,0,0.1-0.1
					c0-0.1-0.1-0.1-0.1-0.2c0-0.1,0.2-0.2,0.2-0.3c0-0.1,0.1-0.2,0-0.3c0.1,0,0.2,0,0.3,0c0-0.1,0.1,0,0-0.1c-0.1-0.1-0.1,0-0.2,0
					c0.2,0,0.3,0,0.3-0.1c0,0,0-0.2-0.2-0.4l0.1-0.1c0.1,0.1,0.3,0.1,0.4,0.1c0,0-0.1-0.1-0.2-0.2c0.2,0,0.3,0.1,0.3,0
					c0-0.1-0.1-0.3,0-0.4c0.1-0.1,0.1,0.1,0.2,0c0.1-0.1,0-0.1,0-0.1c0.1,0,0.2,0.2,0.2,0.1c0.1-0.1-0.1-0.1,0-0.1
					c0.1-0.1,0.1,0,0.2,0c0.1-0.1,0.1-0.1-0.1-0.4l0.1-0.1c0.1,0.1,0.3,0.3,0.3,0.3c0.1,0-0.1-0.1,0-0.1c0.1,0,0.1,0.1,0.1,0.1
					c0.1,0,0-0.2,0-0.3c0-0.1,0.1-0.1,0.2-0.1c0.1,0,0.5,0.1,0.5,0.1c0.3-0.1,0.1-0.3,0.2-0.3c0.1,0,0.1,0.2,0.4,0.2
					c0.1,0,0.2-0.2,0.2-0.2c0.1,0,0.2,0.1,0.3,0.3c0,0,0-0.1,0-0.3l0.1,0c0.1,0,0.1,0.1,0.1,0.2c0,0.1,0,0.2,0,0.2l0.1,0
					c0.1,0,0.1-0.1,0.1-0.2c0.1,0,0.2,0,0.2,0c0,0,0-0.1,0.1-0.1c0.1,0,0.2,0.2,0.2,0.3c0,0,0.1-0.1,0.1-0.2c0,0.1,0.1,0.2,0.2,0.2
					c0.1,0,0.2,0,0.3,0c0,0,0,0.2-0.1,0.3l0.1,0.1c0.1,0,0.1-0.1,0.1-0.2l0.1,0.1c0.1,0,0,0.1,0,0.2c0.1,0,0.1,0,0.2-0.1
					c0.1,0.3-0.1,0.3,0.1,0.4c0.1,0.1,0.4,0,0.4,0c0.1,0.1-0.1,0.3,0,0.3c0.1,0.1,0.1-0.1,0.2,0c0.1,0.1-0.1,0.1-0.1,0.1
					c0.1,0.1,0.2,0.1,0.4,0.1c0,0,0,0,0.1,0.1c0.1,0.1,0,0.2-0.1,0.4c0,0,0.1,0.2,0.1,0.2c0.1,0,0.2,0,0.3,0
					c-0.1,0.4-0.2,0.6-0.1,1.1c-0.1,0-0.1-0.1-0.3-0.1c-0.4,0.1-0.4,0.6-0.7,0.6c-0.2,0-0.1,0-0.2,0c0-0.1-0.2-0.5-0.5-0.4
					c-0.2,0-0.1,0.1-0.2,0.1c-0.1-0.2-0.3-0.2-0.4-0.2c0-0.1,0-0.2,0-0.2c0,0-0.1,0-0.1,0c0,0,0.1,0,0.1-0.1c0,0,0-0.2,0-0.2
					c0,0,0-0.1-0.1-0.1c-0.1,0-0.2,0.2-0.2,0.1c0,0,0-0.1,0.1-0.1c0,0,0-0.1-0.1-0.1c0,0-0.1-0.1-0.2,0c0-0.1,0.1-0.1,0.1-0.1
					c0,0,0-0.1,0.1-0.2c0,0-0.1,0.1-0.1,0.1c0,0,0-0.1,0-0.1c-0.1,0-0.1,0-0.1,0.1c-0.1,0.1,0,0.1-0.1,0.2l-0.1,0
					c0.1-0.1,0.1-0.2,0.1-0.3c0,0,0,0.1-0.1,0.1c0,0,0.1-0.1,0-0.1c0,0-0.1,0.1-0.1,0.1c0,0,0-0.1,0-0.1c0,0-0.1,0-0.2,0.1
					c0,0.1-0.1,0.2-0.1,0.2c0-0.1,0-0.2,0.1-0.3c-0.1,0-0.1-0.1-0.2-0.1c0,0-0.1,0-0.1,0.1l0,0c0,0,0-0.1,0-0.1c0,0,0,0.1,0,0.3
					c0,0,0-0.1,0-0.1c0,0,0,0,0,0.1c0,0,0-0.2,0-0.3c-0.1,0-0.1,0-0.2,0c0-0.1,0-0.1,0-0.1c0,0-0.1,0.3-0.1,0.3c0,0-0.1-0.2-0.2-0.2
					c0,0,0.1,0.1,0,0.1c0,0-0.1-0.1-0.2-0.2c0,0,0,0.1,0.1,0.2l0,0c0-0.1-0.1-0.1-0.1-0.2c0,0,0,0.1,0.1,0.4l0,0
					c0-0.1-0.1-0.1-0.1-0.2c0,0,0,0,0,0c0,0,0.1,0.3,0.1,0.3c0,0-0.1-0.1-0.1-0.1s0.1,0.1,0,0.1c0,0-0.1-0.1-0.1-0.1
					c0,0,0,0,0.1,0.1c-0.1,0-0.1-0.1-0.2-0.1c-0.1,0-0.1,0-0.1,0.1c0,0-0.1,0-0.1,0.1c0,0,0.1,0.1,0.1,0.2c0,0,0,0,0,0
					c0,0-0.2-0.1-0.2-0.1c0,0,0,0,0,0c-0.1,0.1,0.2,0.2,0.2,0.3c0,0-0.2-0.1-0.4-0.1l0,0c0,0,0,0,0.1,0.1c0.1,0.1,0.2,0,0.2,0.1
					l0,0.1c0,0-0.1,0-0.1,0c0,0,0,0.1,0.1,0.1c-0.1,0-0.1-0.1-0.2-0.1c-0.1,0,0,0,0,0c0,0,0.1,0.1,0.1,0.1c0,0-0.1,0-0.1,0
					c0,0,0.1,0.1,0.1,0.1c0,0-0.1,0-0.1,0.1c0,0,0.1,0,0.1,0c0,0-0.1,0-0.1,0c0,0,0.1,0,0.1,0c0,0-0.2,0.1-0.3,0.1
					c0.1,0,0,0.1,0.2,0c0.2,0,0.1,0,0.2,0c0,0-0.1,0-0.1,0.1c0,0,0,0,0.1,0c-0.1,0-0.3,0.1-0.2,0.1c0,0,0.1,0,0.1,0.1
					c0,0-0.1,0-0.2,0.1l0.4-0.1l0,0.1c-0.1,0-0.1,0.1-0.2,0.1c0.1,0,0.3,0,0.3,0c0,0-0.1,0.1-0.2,0.2c0,0,0.1,0,0.2-0.1
					c-0.1,0.1-0.1,0.3-0.1,0.3c0,0,0,0,0.2-0.1l0,0.1c0,0-0.2,0.2-0.1,0.3c0,0,0.1-0.1,0.1,0c0,0-0.1,0.1,0,0.2c0,0,0.1-0.1,0.1,0
					c0,0-0.1,0.1-0.1,0.1c0,0,0.1-0.1,0.1-0.1c0,0,0,0.1,0,0.2c0,0,0.1-0.1,0.1-0.1c0,0-0.1,0.1,0,0.1c0,0,0.1-0.1,0.1-0.1
					c0,0,0,0.2-0.1,0.3c0,0,0.1-0.1,0.1-0.2c0,0-0.1,0.1,0,0.1c0,0,0-0.1,0.1-0.1c0,0-0.1,0.1,0,0.1c0,0,0,0,0.1-0.1
					c0,0,0.1,0.1,0.2-0.1c0,0,0,0.1,0,0.2c0,0.1,0,0.2,0,0.2c0,0,0.1-0.2,0.1-0.4l0.1,0c0,0.1,0,0.3,0,0.3c0,0,0-0.1,0.1-0.1
					c0,0,0,0.1,0.1,0.1c0,0,0,0,0.1,0c0,0,0-0.2,0-0.2c0,0,0,0,0.1-0.2c0,0.1,0,0.1,0,0.2c0,0.1,0,0.1,0,0.2c0-0.1,0-0.1,0.1-0.1
					c0,0,0.1,0.1,0.1,0.1c0,0,0-0.1,0-0.1c0,0,0,0.1,0,0.1c0,0,0,0,0.1,0c0,0,0.1,0,0.1-0.1l0,0c0,0,0,0.1,0.1,0.1c0,0,0-0.1,0-0.1
					c0,0,0.1,0.1,0.1,0.1c0,0,0-0.1,0-0.1c0,0,0.1,0.1,0.1,0.1c0,0,0-0.1-0.1-0.3c0.1,0.1,0.2,0.2,0.2,0.2c0,0-0.1-0.1,0-0.1
					c0,0,0.1,0.1,0.1,0.1c0,0,0,0,0-0.1c0,0,0.1,0.1,0.2,0.2c0,0,0.2-0.2,0.2-0.2c0,0-0.1-0.1-0.1-0.1c0,0,0.1,0.1,0.1,0.1
					c0,0-0.1-0.1-0.1-0.1c0,0,0.1,0.1,0.1,0c0.1-0.1,0-0.1,0-0.2c0.1,0,0.3,0,0.4,0c0.1-0.1,0.3-0.3,0.4-0.3c0,0-0.1-0.1-0.2-0.1
					l0-0.2c0-0.1,0.1-0.1,0.2-0.2c0.1,0,0.1-0.1,0.3-0.1c0.2,0,0.1,0.1,0.3,0.1c0.2,0,0.3-0.1,0.4-0.3c0.2,0.2,0.4,0.3,0.6,0.6
					c0,0.1-0.2,0.2-0.2,0.3l0.4,0.1l-0.1,0.3c-0.1,0.2-0.1,0.1-0.2,0.1c0,0.1,0.1,0.2,0.2,0.2c0,0.1-0.1,0.1-0.2,0.2
					c-0.1,0.2-0.2,0.3-0.3,0.5c-0.1,0.1-0.1,0.2-0.2,0.2c-0.1,0.1-0.1,0.1-0.1,0.1c-0.1,0.1-0.2,0.1-0.2,0.2
					c-0.1,0.1-0.1,0.1-0.1,0.2C137.6,57,137.7,57,137.8,57.1z"/>
			</g>
		</g>
	</g>
	<path fill="#FFFFFF" d="M98,50.6H2.7c-1.5,0-2.7-1.2-2.7-2.7V2.7C0,1.2,1.2,0,2.7,0H98c1.5,0,2.7,1.2,2.7,2.7v45.2
		C100.6,49.4,99.4,50.6,98,50.6z"/>
</g>
<g>
</g>
<g>
</g>
<g>
</g>
<g>
</g>
<g>
</g>
<g>
</g>
<g>
</g>
<g>
</g>
<g>
</g>
<g>
</g>
<g>
</g>
<g>
</g>
<g>
</g>
<g>
</g>
<g>
</g>
</svg>
