<?xml version="1.0" encoding="utf-8"?>
<!-- Generator: Adobe Illustrator 18.0.0, SVG Export Plug-In . SVG Version: 6.00 Build 0)  -->
<!DOCTYPE svg PUBLIC "-//W3C//DTD SVG 1.1//EN" "http://www.w3.org/Graphics/SVG/1.1/DTD/svg11.dtd">
<svg version="1.1" id="Layer_1" xmlns="http://www.w3.org/2000/svg" xmlns:xlink="http://www.w3.org/1999/xlink" x="0px" y="0px"
	 viewBox="0 0 98.6 51" enable-background="new 0 0 98.6 51" xml:space="preserve">
<g>
	<g>
		<path fill="#39484E" d="M0.9,37.4c0,0.1-0.1,0.2-0.2,0.2c0,0-0.1,0-0.1,0c-0.1,0-0.1,0-0.2,0c-0.1-0.1-0.2-0.1-0.2-0.2
			c0-0.1,0-0.1,0-0.2c0,0,0-0.1,0-0.1c0.1-0.4,0.1-0.8,0.2-1.3c0-0.1,0-0.2,0.1-0.2c0.1-0.1,0.1-0.1,0.2-0.1c0,0,0,0,0,0
			c0.1,0,0.2,0.1,0.3,0.1s0.1,0.2,0.1,0.3C1.1,36.4,1.1,37,0.9,37.4z M2.7,39.1c0.1,0.1,0.1,0.2,0.1,0.4c0,0,0,0.1,0,0.1
			c0,0.2-0.1,0.3-0.2,0.4C2.6,40,2.5,40,2.4,40c0,0-0.1,0-0.1,0c-0.1,0-0.2-0.1-0.3-0.2c0,0,0-0.1,0-0.1c0,0,0,0,0,0c0,0,0,0,0,0
			c-0.1,0.5-0.3,1-0.6,1.4c-0.1,0.1-0.2,0.2-0.3,0.2h0c-0.1,0-0.3-0.1-0.3-0.2c-0.1-0.1-0.2-0.2-0.2-0.4c0,0,0-0.1,0-0.1
			c0-0.1,0-0.2,0.1-0.3c0.3-0.5,0.4-1,0.5-1.6c0.1-0.6,0.1-1.2,0.1-2v-2.4c0-0.1,0-0.3,0.1-0.4c0.1-0.1,0.2-0.2,0.4-0.2
			c0.1,0,0.3,0.1,0.4,0.2c0.1,0.1,0.1,0.2,0.1,0.4v0.9c0,0,0,0,0,0c0-0.1,0.1-0.2,0.2-0.2c0.1,0,0.1,0,0.2,0c0,0,0.1,0,0.1,0l0,0
			c0.1,0,0.2,0.1,0.2,0.2c0,0,0,0.1,0,0.2c0,0.1,0,0.1,0,0.2c-0.3,0.6-0.4,0.9-0.4,0.9c0,0.1-0.1,0.1-0.1,0.1c-0.1,0-0.1,0-0.2,0
			c0,0,0,0,0,0v0.1c0,0.6,0,1,0,1.4c0,0.1,0,0.1,0,0.2C2.3,38.5,2.5,38.7,2.7,39.1z M7.8,35.7c0.1,0.1,0.1,0.2,0.1,0.3
			s0,0.2-0.1,0.3c-0.1,0.1-0.2,0.1-0.3,0.1H7.1c0,0,0,0-0.1,0c0,0,0,0,0,0.1c0.1,0.6,0.4,1.1,0.6,1.5c0.1,0.2,0.2,0.3,0.2,0.5
			c0,0.2-0.1,0.4-0.2,0.5c-0.1,0.1-0.1,0.2-0.2,0.3c0,0,0,0.1,0,0.1c0.2,0.4,0.4,0.8,0.5,1.2c0,0.1,0,0.1,0,0.2c0,0.1,0,0.2-0.1,0.2
			c-0.1,0.1-0.2,0.2-0.3,0.3c-0.1,0-0.1,0-0.2,0c-0.1,0-0.2,0-0.2-0.1C7.1,41.3,7,41.2,6.9,41c-0.1-0.2-0.1-0.4-0.2-0.7
			c0-0.1,0-0.2,0-0.2c0-0.1,0-0.2,0.1-0.3c0.1-0.2,0.2-0.3,0.4-0.3l0.2-0.1c0,0,0,0,0,0c0,0,0,0,0,0c-0.3-0.3-0.5-0.8-0.7-1.3
			c0,0,0,0,0,0c0,0,0,0,0,0c-0.2,0.5-0.5,0.9-0.9,1.2c-0.1,0.1-0.2,0.1-0.3,0.1c0,0,0,0-0.1,0c-0.1,0-0.3-0.1-0.4-0.2
			c-0.1-0.1-0.1-0.2-0.1-0.3c0-0.1,0-0.2,0.1-0.3c0.6-0.5,0.9-1.2,1.1-2c0,0,0-0.1,0-0.1H5.7c-0.1,0-0.2,0-0.2-0.1
			c-0.1-0.1-0.1-0.1-0.1-0.2c0,0,0,0,0,0s0,0,0,0c-0.4,1.5-1,2.6-2,3.3c0,0,0,0,0,0c0,0,0,0,0,0c0.2,0.1,0.3,0.2,0.4,0.3
			c0,0.1,0.1,0.2,0.1,0.3c0,0.1,0,0.1,0,0.2c-0.1,0.3-0.3,0.6-0.4,0.8c-0.1,0.1-0.2,0.2-0.3,0.2c0,0-0.1,0-0.1,0
			c-0.1,0-0.2,0-0.3-0.1c-0.1-0.1-0.2-0.2-0.2-0.3c0,0,0-0.1,0-0.1c0-0.1,0-0.2,0.1-0.3C2.8,40.4,3,40,3.1,39.6c0,0,0-0.1,0.1-0.1
			c0,0,0.1,0,0.1,0c0,0,0,0,0,0c0,0,0,0,0,0c0-0.1-0.1-0.1-0.1-0.2C3.1,39.2,3,39,3,38.9c0,0,0-0.1,0-0.1c0-0.2,0.1-0.3,0.2-0.5
			c0.2-0.2,0.3-0.3,0.4-0.5c0,0,0-0.1,0-0.1c-0.1-0.1-0.2-0.2-0.4-0.3c0,0,0,0,0,0c0,0.1-0.1,0.1-0.2,0.1c-0.1,0-0.1,0-0.2-0.1
			c0,0-0.1-0.1-0.1-0.1c-0.1-0.1-0.2-0.2-0.2-0.3c0,0,0,0,0-0.1c0-0.1,0-0.2,0.1-0.3C3,36,3.3,35.2,3.5,34.3c0-0.1,0.1-0.2,0.2-0.3
			c0.1-0.1,0.2-0.1,0.3-0.1c0,0,0.1,0,0.1,0c0.1,0,0.2,0.1,0.3,0.2c0.1,0.1,0.1,0.2,0.1,0.2c0,0,0,0.1,0,0.1c0,0,0,0,0,0.1
			c0,0,0,0.1,0,0.1h0.4c0,0,0,0,0,0c0,0,0.1,0,0.1,0c0.1,0,0.1,0,0.2,0l0.2,0c0.1,0,0.2,0.1,0.2,0.2c0,0.1,0.1,0.1,0.1,0.2
			c0,0,0,0,0,0.1c0,0.1,0,0.3-0.1,0.4c0,0,0,0,0,0c0,0,0,0,0.1,0h0.3c0.1,0,0.1,0,0.1-0.1v-1.1c0-0.1,0-0.2,0.1-0.3
			c0.1-0.1,0.2-0.1,0.3-0.1h0.2c0.1,0,0.1,0,0.2,0.1c0.1,0.1,0.1,0.1,0.1,0.2c0,0,0,0,0,0l0,0c0.1,0,0.2,0,0.2,0
			c0.1,0,0.2,0,0.2,0.1c0.2,0.1,0.3,0.2,0.3,0.3c0,0.1,0.1,0.1,0.1,0.2c0,0,0,0.1,0,0.1c0,0.1,0,0.1,0,0.2c-0.1,0.1-0.1,0.2-0.2,0.2
			c0,0-0.1,0-0.1,0c-0.1,0-0.1,0-0.2,0c-0.1,0-0.2-0.1-0.2-0.2c0-0.2-0.1-0.4-0.2-0.5c0,0,0,0,0,0c0,0,0,0,0,0v0.9
			c0,0.1,0,0.1,0.1,0.1h0.4C7.6,35.5,7.7,35.6,7.8,35.7z M3.7,36.6c0,0,0,0.1,0,0.1C3.8,36.8,4,36.9,4,37c0,0,0.1,0,0.1,0
			c0,0,0-0.1,0.1-0.2c0,0,0-0.1,0-0.1c-0.1-0.1-0.2-0.1-0.3-0.2c0,0-0.1,0-0.1,0S3.7,36.6,3.7,36.6z M4.6,35.5
			C4.6,35.5,4.6,35.5,4.6,35.5C4.6,35.4,4.5,35.4,4.6,35.5l-0.3-0.1c-0.1,0-0.1,0-0.1,0.1c0,0,0,0,0,0.1c0,0,0,0,0,0.1
			c0,0,0,0.1,0,0.1c0.1,0.1,0.2,0.1,0.3,0.2c0,0,0,0,0.1,0c0,0,0,0,0,0C4.5,35.7,4.6,35.6,4.6,35.5z M4.2,40.3
			C4.2,40.3,4.2,40.3,4.2,40.3c0-0.2,0-0.3,0.1-0.4c0.1-0.1,0.2-0.2,0.3-0.2c0,0,0.1,0,0.1,0c0.1,0,0.2,0,0.3,0.1
			c0.1,0.1,0.2,0.2,0.2,0.3c0,0.3,0.1,0.6,0.1,0.7c0,0.1,0,0.2-0.1,0.3c-0.1,0.1-0.2,0.2-0.4,0.2c0,0,0,0-0.1,0
			c-0.1,0-0.2,0-0.3-0.1c-0.1-0.1-0.1-0.2-0.2-0.3C4.2,40.8,4.2,40.5,4.2,40.3z M5.4,40.3c0,0,0-0.1,0-0.1c0-0.1,0-0.2,0.1-0.2
			c0.1-0.1,0.1-0.2,0.3-0.2c0,0,0.1,0,0.1,0c0.1,0,0.2,0,0.2,0.1c0.1,0.1,0.2,0.2,0.2,0.3c0.1,0.2,0.1,0.4,0.2,0.7c0,0,0,0.1,0,0.1
			c0,0.1,0,0.2-0.1,0.3c-0.1,0.1-0.2,0.2-0.3,0.2c0,0-0.1,0-0.1,0c-0.1,0-0.2,0-0.2-0.1c-0.1-0.1-0.2-0.2-0.2-0.3
			C5.5,40.8,5.5,40.5,5.4,40.3z"/>
		<path fill="#39484E" d="M10.3,36.6C10.3,36.6,10.3,36.6,10.3,36.6C10.3,36.6,10.3,36.6,10.3,36.6l4.2,0.1c0.2,0,0.3,0.1,0.5,0.2
			c0.1,0.1,0.2,0.3,0.2,0.5v0c0,2,0.1,3,0.4,3c0.1,0,0.1-0.2,0.1-0.6c0-0.1,0.1-0.2,0.1-0.2c0.1,0,0.2,0,0.2,0.1
			c0.2,0.2,0.4,0.5,0.4,0.7c0,0,0,0.1,0,0.1c-0.1,0.4-0.2,0.6-0.3,0.8c-0.1,0.2-0.3,0.2-0.6,0.2c-0.2,0-0.4,0-0.6-0.1
			c-0.2-0.1-0.3-0.2-0.4-0.4c-0.1-0.2-0.2-0.4-0.3-0.6c-0.1-0.2-0.1-0.5-0.2-0.8c0-0.3-0.1-0.6-0.1-0.9s0-0.7,0-1.1
			c0-0.1,0-0.1-0.1-0.1h-3.9c-0.1,0-0.2,0-0.3-0.1c-0.1-0.1-0.1-0.2-0.1-0.3c0,0,0,0,0-0.1c-0.1-0.1-0.3-0.2-0.5-0.3
			C9.1,36.7,9,36.5,9,36.4c0,0,0,0,0,0c0-0.1,0.1-0.3,0.2-0.4c0.4-0.4,0.7-0.9,1-1.5c0.1-0.2,0.2-0.3,0.4-0.4
			c0.1-0.1,0.2-0.1,0.3-0.1c0.1,0,0.1,0,0.2,0l0.3,0.1c0.1,0,0.2,0.1,0.2,0.2c0,0.1,0,0.2,0,0.2c0,0,0,0,0,0h4.2
			c0.1,0,0.2,0,0.3,0.1c0.1,0.1,0.1,0.2,0.1,0.3s0,0.2-0.1,0.3s-0.2,0.1-0.3,0.1h-4.6c-0.1,0-0.1,0-0.1,0.1c0,0,0,0,0,0s0,0,0,0
			c0,0,0,0,0,0c0,0,0,0,0,0h4c0.1,0,0.2,0,0.3,0.1c0.1,0.1,0.1,0.2,0.1,0.3s0,0.2-0.1,0.3s-0.2,0.1-0.3,0.1h-4c-0.1,0-0.2,0-0.3-0.1
			c-0.1-0.1-0.1-0.2-0.1-0.3c0,0,0,0,0,0s0,0,0,0C10.6,36.2,10.5,36.4,10.3,36.6z M13.9,38.9C14,39,14,39,14,39s0,0.1,0,0.2
			s0,0.2-0.1,0.3c-0.1,0.1-0.2,0.1-0.3,0.1h-0.8c0,0,0,0,0,0s0,0,0,0c0.4,0.2,0.7,0.4,0.9,0.6c0.1,0.1,0.2,0.2,0.2,0.3
			c0,0.1,0,0.2-0.1,0.3c-0.1,0.1-0.2,0.1-0.4,0.2h0c-0.1,0-0.3,0-0.4-0.1c-0.2-0.1-0.4-0.3-0.6-0.4c0,0,0,0,0,0c0,0,0,0,0,0V41
			c0,0.1-0.1,0.3-0.2,0.4c-0.1,0.1-0.2,0.2-0.4,0.2s-0.3-0.1-0.4-0.2s-0.2-0.2-0.2-0.4v-0.5c0,0,0,0,0,0c0,0,0,0,0,0
			c-0.3,0.3-0.6,0.6-1,0.8c-0.1,0.1-0.2,0.1-0.3,0.1c0,0-0.1,0-0.1,0c-0.2,0-0.3-0.1-0.4-0.3c-0.1-0.1-0.1-0.2-0.1-0.3
			c0,0,0-0.1,0-0.1c0-0.1,0.1-0.2,0.2-0.3c0.4-0.2,0.7-0.4,1-0.7c0,0,0,0,0,0s0,0,0,0H9.6c-0.1,0-0.2,0-0.3-0.1
			c-0.1-0.1-0.1-0.2-0.1-0.3s0-0.2,0.1-0.3s0.2-0.1,0.3-0.1h0.3c0,0,0,0,0,0s0,0,0,0c0-0.1-0.1-0.2-0.1-0.3c0-0.1-0.1-0.1-0.1-0.2
			c0,0,0-0.1,0-0.1c0-0.1,0.1-0.2,0.2-0.2c0.1,0,0.1,0,0.2,0c0.1,0,0.1,0,0.2,0c0.1,0,0.2,0.1,0.3,0.2c0,0,0,0,0,0.1
			c0,0.1,0,0.1,0,0.2c0,0.1,0,0.1,0,0.2c-0.1,0.1-0.1,0.2-0.3,0.3c0,0,0,0,0,0c0,0,0,0,0,0h0.5c0.1,0,0.1,0,0.1-0.1v-0.5
			c0-0.1,0.1-0.3,0.2-0.4s0.2-0.2,0.4-0.2s0.3,0.1,0.4,0.2c0.1,0.1,0.2,0.2,0.2,0.4v0.5c0,0.1,0,0.1,0.1,0.1h0.4c0,0,0,0,0,0
			s0,0,0,0c-0.1,0-0.2-0.1-0.2-0.2c0,0,0-0.1,0-0.1c0-0.1,0-0.1,0-0.2c0,0,0-0.1,0.1-0.1c0.1-0.1,0.2-0.2,0.3-0.3
			c0.1,0,0.2-0.1,0.3-0.1c0.1,0,0.1,0,0.2,0c0.1,0,0.2,0.1,0.2,0.2c0,0,0,0.1,0,0.1c0,0.1,0,0.2-0.1,0.2c-0.1,0.1-0.2,0.3-0.3,0.3
			c0,0,0,0,0,0s0,0,0,0h0.3C13.7,38.8,13.8,38.8,13.9,38.9z"/>
	</g>
	<g>
		<path fill="#39484E" d="M8.2,14.7c0.1,0.1,0.2,0.2,0.2,0.4c0,0.1-0.1,0.3-0.2,0.4c-0.1,0.1-0.2,0.2-0.4,0.2H6c0,0,0,0,0,0
			c0,0,0,0,0,0c0.6,0.2,1.2,0.4,1.8,0.7C7.9,16.5,8,16.6,8,16.7C8,16.9,7.9,17,7.8,17c-0.2,0.1-0.4,0.2-0.6,0.2c0,0,0,0,0,0
			c-0.2,0-0.4,0-0.6-0.1c-0.3-0.2-0.7-0.3-1-0.5c-0.1-0.1-0.2-0.2-0.3-0.3c0,0,0-0.1,0-0.1c0-0.1,0-0.2,0.1-0.3l0.3-0.2c0,0,0,0,0,0
			c0,0,0,0,0,0H3.6c0,0,0,0,0,0s0,0,0,0l0.2,0.2C3.9,16,4,16.1,4,16.2c0,0,0,0,0,0.1c0,0.2-0.1,0.3-0.2,0.4c-0.5,0.2-1,0.4-1.5,0.6
			c-0.1,0-0.2,0-0.3,0s-0.2,0-0.2,0c-0.2-0.1-0.3-0.1-0.4-0.3c-0.1-0.1-0.1-0.1-0.1-0.2c0,0,0-0.1,0-0.1c0-0.1,0.1-0.2,0.2-0.3
			C2,16.2,2.6,16,3.1,15.7c0,0,0,0,0,0c0,0,0,0,0,0H1.5c-0.1,0-0.3-0.1-0.4-0.2C1,15.4,1,15.3,1,15.1C1,15,1,14.8,1.1,14.7
			s0.2-0.2,0.4-0.2h0.7c0.1,0,0.1,0,0.1-0.1v-2.9c0-0.1,0-0.1-0.1-0.1H1.8c-0.1,0-0.3-0.1-0.4-0.2c-0.1-0.1-0.2-0.2-0.2-0.4
			s0.1-0.3,0.2-0.4c0.1-0.1,0.2-0.2,0.4-0.2h0.5c0,0,0.1,0,0.1-0.1v0c0-0.2,0.1-0.3,0.2-0.4s0.3-0.2,0.4-0.2s0.3,0.1,0.4,0.2
			s0.2,0.3,0.2,0.4v0c0,0.1,0,0.1,0.1,0.1h2.2c0,0,0.1,0,0.1-0.1v0c0-0.2,0.1-0.3,0.2-0.4c0.1-0.1,0.3-0.2,0.4-0.2
			c0.2,0,0.3,0.1,0.4,0.2S7,10.1,7,10.3v0c0,0.1,0,0.1,0.1,0.1h0.5c0.1,0,0.3,0.1,0.4,0.2c0.1,0.1,0.2,0.2,0.2,0.4S8.1,11.2,8,11.3
			s-0.2,0.2-0.4,0.2H7.1c-0.1,0-0.1,0-0.1,0.1v2.9c0,0.1,0,0.1,0.1,0.1h0.7C8,14.6,8.1,14.6,8.2,14.7z M5.8,11.6
			C5.8,11.5,5.8,11.5,5.8,11.6l-2.2-0.1c-0.1,0-0.1,0-0.1,0.1v0.2c0,0.1,0,0.1,0.1,0.1h2.2c0.1,0,0.1,0,0.1-0.1V11.6z M3.5,12.8
			C3.5,12.8,3.5,12.8,3.5,12.8l-0.1,0.3c0,0.1,0,0.1,0.1,0.1h2.2c0.1,0,0.1,0,0.1-0.1v-0.2c0-0.1,0-0.1-0.1-0.1H3.5z M3.5,14.2
			C3.5,14.2,3.5,14.2,3.5,14.2l-0.1,0.3c0,0.1,0,0.1,0.1,0.1h2.2c0.1,0,0.1,0,0.1-0.1v-0.3c0-0.1,0-0.1-0.1-0.1H3.5z"/>
		<path fill="#39484E" d="M14.1,16.3h1.4c0.2,0,0.3,0,0.4-0.1c0.1-0.1,0.1-0.2,0.2-0.4c0-0.1,0.1-0.2,0.2-0.3c0.1,0,0.1-0.1,0.2-0.1
			c0.1,0,0.1,0,0.2,0c0.2,0.1,0.3,0.2,0.4,0.3c0.1,0.1,0.1,0.2,0.1,0.3c0,0,0,0.1,0,0.1c-0.1,0.4-0.3,0.7-0.5,0.9s-0.6,0.3-1,0.3H14
			c-0.6,0-1.1-0.1-1.3-0.3c-0.2-0.2-0.3-0.7-0.3-1.3v-1.9c0,0,0,0,0,0c0,0,0,0,0,0c-0.1,0-0.1,0-0.2,0c-0.1,0-0.1,0-0.2,0
			c-0.1-0.1-0.2-0.1-0.3-0.3L11.4,13c0,0,0,0,0,0s0,0,0,0v3.8c0,0.2-0.1,0.3-0.2,0.4s-0.3,0.2-0.4,0.2s-0.3-0.1-0.4-0.2
			s-0.2-0.3-0.2-0.4v-3.3c0,0,0,0,0,0c0,0,0,0,0,0c-0.1,0.1-0.1,0.1-0.2,0.1c0,0,0,0,0,0c-0.1,0-0.2-0.1-0.2-0.2
			c0-0.1-0.1-0.1-0.1-0.2c-0.1-0.1-0.1-0.3-0.1-0.5c0,0,0-0.1,0-0.1c0-0.2,0.1-0.4,0.2-0.5c0.4-0.6,0.8-1.2,1.1-1.9
			c0.1-0.1,0.2-0.3,0.3-0.3c0.1,0,0.2-0.1,0.3-0.1c0.1,0,0.1,0,0.2,0c0.1,0,0.3,0.1,0.3,0.3c0,0.1,0,0.1,0,0.2c0,0.1,0,0.1,0,0.2
			c-0.1,0.3-0.3,0.7-0.5,1c0,0,0,0.1,0,0.2v1c0,0,0,0,0,0c0,0,0,0,0,0l0.8-0.3c0,0,0.1-0.1,0.1-0.1v-1.1c0-0.2,0.1-0.3,0.2-0.4
			c0.1-0.1,0.3-0.2,0.4-0.2s0.3,0.1,0.4,0.2c0.1,0.1,0.2,0.3,0.2,0.4v0.7c0,0,0,0,0,0c0,0,0,0,0,0l0.4-0.2c0,0,0.1-0.1,0.1-0.1v-1.4
			c0-0.2,0.1-0.3,0.2-0.4c0.1-0.1,0.2-0.2,0.4-0.2s0.3,0.1,0.4,0.2c0.1,0.1,0.2,0.2,0.2,0.4v1c0,0,0,0,0,0s0,0,0,0l0.4-0.2
			c0,0,0.1,0,0.1,0C15.9,11,16,11,16.2,11c0.1,0,0.2,0,0.3,0.1l0.3,0.1c0,0,0.1,0,0.1,0.1c0,0,0,0.1,0,0.1c0,0,0,0,0,0
			c0,1.5,0,2.4,0,2.6c0,0.4-0.2,0.7-0.4,0.8c-0.1,0-0.2,0.1-0.3,0.1c0,0-0.1,0-0.1,0c-0.1,0-0.3-0.1-0.4-0.2
			c-0.1-0.1-0.2-0.3-0.3-0.5c0-0.1-0.1-0.2-0.1-0.3c0,0,0,0,0,0c0,0,0,0,0,0v0.9c0,0.2-0.1,0.3-0.2,0.4c-0.1,0.1-0.2,0.2-0.4,0.2
			s-0.3-0.1-0.4-0.2C14.1,15.2,14,15,14,14.9v-1.8c0,0,0,0,0,0s0,0,0,0l-0.4,0.2c0,0-0.1,0.1-0.1,0.1v2.4c0,0.3,0,0.4,0.1,0.5
			S13.8,16.3,14.1,16.3z M15.8,12.4C15.8,12.4,15.7,12.4,15.8,12.4C15.7,12.4,15.7,12.3,15.8,12.4l-0.5,0.1c0,0-0.1,0.1-0.1,0.1v1.2
			c0,0.1,0,0.1,0.1,0.1c0.2,0,0.3,0,0.3,0c0,0,0.1,0,0.1,0c0,0,0-0.1,0-0.1C15.7,13.6,15.8,13.2,15.8,12.4z"/>
	</g>
	<g>
		<g>
			<polygon fill="#818181" points="48.5,25.7 48.5,25.7 48.5,25.7 			"/>
			<g>
				<g>
					<path fill-rule="evenodd" clip-rule="evenodd" fill="#38474D" d="M47.5,26.6C47.5,26.5,47.5,26.5,47.5,26.6
						c0.1-0.1,0.2-0.2,0.2-0.2c0,0,0.1-0.1,0.1-0.1l-0.1,0.1l0.1-0.1l-0.2,0.1l0.1-0.1l-0.1,0.1c0,0,0.2-0.2,0.3-0.2
						c-0.1,0.1-0.2,0.1-0.2,0.1s0.1-0.1,0.2-0.1l0,0l-0.1,0.1l0.1-0.1c0,0-0.1,0.1-0.3,0.2c0.1-0.1,0.3-0.2,0.3-0.2l-0.2,0.1
						l0.1-0.1l-0.1,0.1l0.2-0.1l-0.1,0.1l0.1-0.1l-0.2,0.1l0.1-0.1c0,0,0,0-0.1,0.1c0,0,0.1-0.1,0.2-0.2l0,0
						c-0.1,0.1-0.1,0.1-0.2,0.1c0,0,0.1-0.1,0.1-0.1l-0.1,0.1l0.2-0.1l-0.1,0.1l0.1-0.1c0,0-0.1,0.1-0.2,0.1c0.1,0,0.2-0.1,0.2-0.1
						l-0.1,0.1l0.1-0.1l-0.1,0.1l0.1-0.1l-0.1,0.1c0,0,0,0,0.1-0.1c0,0-0.1,0.1-0.2,0.1c0,0,0.1-0.1,0.1-0.1s0,0,0,0c0,0,0,0,0,0
						c0.5-1,0.8-1.7,0.8-1.7l0,0.1l0-0.1c0,0,0,0.1,0,0.1c0,0,0,0,0,0c0,0.1,0,0.1,0,0.1s0-0.2,0-0.3h0c0,0.1,0,0.1,0,0.2h0
						c0,0,0-0.1,0-0.1l0,0.1l0-0.1l0,0.1l0-0.1l0,0.1c0,0,0,0,0-0.1c0,0.1,0,0.1,0,0.2c0,0,0,0.1,0-0.1c0-0.1,0-0.1,0-0.2
						c0,0.1,0,0.2,0,0.2s0-0.1,0-0.3h0c0,0.1,0,0.2,0,0.3c0,0,0-0.1,0-0.2c0,0.1,0,0.2,0,0.2l0-0.2l0,0.1c0,0,0,0,0-0.1
						c0,0.1,0,0.2,0,0.2l0-0.1l0,0.1c0,0,0,0,0-0.3h0c0,0.1,0,0.1,0,0.2c0,0,0,0.1,0,0.1c0.5,0.5,0.8,0.9,0.8,0.9l0.1,0l-0.1,0
						c0,0,0.1,0,0.2,0c0.1,0,0,0,0,0l-0.2,0l0.2,0l-0.2,0l0.1,0c0,0-0.1,0-0.2,0c0,0,0.1,0,0.2,0v0c0,0-0.1,0-0.1,0
						c-0.1,0-0.2,0-0.2,0v0c0,0,0.1,0,0.2,0c0,0,0,0,0,0c0,0,0.1,0,0.1,0s-0.1,0-0.2,0c0,0,0.1,0,0.2,0c-0.1,0-0.1,0-0.1,0
						s0.1,0,0.1,0c0,0-0.1,0-0.2,0v0c0.1,0,0.2,0,0.2,0v0l-0.1,0c0,0,0,0,0.1,0c-0.2,0-0.2,0-0.2,0l0.2,0l-0.2,0l0.1,0l-0.1,0
						c0,0,0.1,0,0.2,0c0,0,0,0,0,0s-0.1,0-0.2,0v0c0.1,0,0.1,0,0.2,0c-0.2,0-0.3,0-0.4,0c-0.1,0-0.1,0-0.2,0c-0.3,0-0.4,0-0.6,0
						c-0.1,0-0.1,0-0.1,0c0,0-0.1,0-0.4,0c-0.1,0-0.1,0-0.2,0c0,0-0.2,0-0.2,0l0.1,0l-0.1,0c0,0,0.1,0,0.1,0c0,0,0.1,0,0.1,0
						s0.1,0,0,0c-0.1,0-0.2,0-0.2,0s0.1,0,0.1,0c0,0,0,0,0,0s0,0-0.1,0c0.1,0,0.1,0,0.2,0c0,0,0.1,0,0.2,0l-0.1,0c0,0,0.1,0,0.1,0
						c-0.1,0,0,0-0.2,0c-0.1,0-0.1,0-0.2,0v0c0.1,0,0.2,0,0.2,0l-0.1,0l0.1,0l-0.1,0l0.1,0c0,0-0.1,0-0.1,0c-0.1,0-0.2,0-0.2,0
						c0.1,0,0.1,0,0.2,0c0,0,0.1,0,0.1,0s0,0-0.1,0h0c0,0,0.1,0,0.1,0c0,0-0.1,0-0.2,0c0,0,0.1,0,0.1,0s0,0-0.1,0c0,0,0.1,0,0.2,0
						c0,0,0,0,0,0c0,0,0.1,0,0.1,0l-0.2,0l0.2,0l-0.1,0c0,0,0.1,0,0.2,0c0,0-0.1,0-0.2,0v0c0.1,0,0.1,0,0.2,0c0,0-0.1,0-0.3,0v0
						c0.1,0,0.1,0,0.2,0c0,0,0,0,0,0s-0.1,0-0.1,0c0.4,0.4,0.8,0.8,1,1.1c0,0,0,0,0,0l0-0.1l0,0.1l0-0.1c0,0,0,0,0,0.1
						c0-0.1,0-0.2,0-0.2c0-0.1,0,0,0,0s0,0,0,0c0,0,0,0.1,0,0.2l0,0c0,0,0-0.1,0-0.2c0,0,0,0,0,0l0,0.2c0,0,0-0.2,0-0.4h0
						c0,0.1,0,0,0,0.1c0,0.1,0,0.1,0,0.2h0l0-0.1c0,0,0,0,0,0.1c0-0.1,0-0.1,0-0.2c0,0,0,0,0,0l0,0.1l0-0.1l0,0.1l0-0.1l0,0.1l0-0.1
						l0,0.1c0,0,0-0.1,0-0.2c0,0.1,0,0,0,0.2c0,0.1,0,0.1,0,0.2c0,0,0-0.1,0-0.1s0,0,0,0.1c0-0.1,0-0.2,0-0.2l0,0.1c0,0,0-0.1,0-0.2
						v0.3h0c0-0.1,0-0.1,0-0.2c0,0.1,0,0.2,0,0.2s0,0,0,0c0.2-0.4,0.5-1.1,0.8-1.8c0,0-0.1,0.1-0.1,0.1c0,0,0.1-0.1,0.2-0.1
						c-0.1,0.1-0.2,0.1-0.2,0.1s0,0,0.2-0.1l0,0l-0.2,0.1l0.1-0.1l-0.1,0.1l0.1-0.1l-0.1,0.1l0.1-0.1l-0.1,0.1l0.1-0.1l-0.1,0.1
						l0.1-0.1c0,0-0.1,0.1-0.2,0.1c0,0,0.1-0.1,0.2-0.1c0,0-0.1,0.1-0.1,0.1l0.1-0.1l-0.1,0.1c0,0,0,0,0.1-0.1c0,0-0.1,0.1,0.1-0.1
						c0,0-0.1,0.1-0.1,0.1c0,0-0.1,0.1-0.1,0.1s0.1-0.1,0.3-0.2l0,0c-0.1,0.1-0.2,0.1-0.2,0.1l0.1-0.1l-0.1,0.1c0,0,0,0,0,0
						c0,0,0.1-0.1,0.2-0.1c0,0,0,0,0.1-0.1c-0.1,0.1-0.1,0.1-0.1,0.1c0,0-0.1,0.1-0.2,0.1c0,0,0.1-0.1,0.1-0.1l-0.1,0.1l0.1-0.1
						c0,0-0.1,0-0.1,0.1c0,0,0,0,0,0s0,0,0.1-0.1l0,0l-0.1,0.1l0.1-0.1l-0.1,0.1l0.1-0.1l-0.1,0.1c0,0,0.1-0.1,0.2-0.1
						c-0.1,0.1-0.2,0.1-0.2,0.1l0.1-0.1l-0.1,0.1c0,0,0,0,0.1-0.1c0,0-0.1,0.1-0.2,0.1l0,0l0.1-0.1l-0.1,0.1l0.1-0.1l-0.1,0.1
						c0,0,0,0,0.1-0.1c-0.1,0-0.1,0.1-0.3,0.2c0,0-0.1,0.1-0.2,0.2c0,0,0.1-0.1,0.2-0.1l0,0c0,0-0.1,0.1-0.1,0.1
						c-0.1,0.1-0.1,0.1-0.2,0.2c-0.1,0.1-0.1,0.1-0.2,0.1c-0.1,0.1-0.2,0.1-0.2,0.2c-0.2,0.1-0.3,0.2-0.4,0.3c0,0,0.1-0.1,0.1-0.1
						l-0.3,0.2l0,0c0,0,0,0,0.1-0.1C47.7,26.4,47.6,26.4,47.5,26.6c0.1-0.1,0.1-0.1,0.1-0.1c0,0,0.1-0.1,0.1-0.1s0,0,0,0
						C47.6,26.4,47.5,26.5,47.5,26.6z"/>
				</g>
			</g>
		</g>
		<g>
			<path fill="#818181" d="M48.5,25.7L48.5,25.7l0,24.3c-0.6,0-1.1,0-1.6-0.1c-4.1-0.3-7.9-1.5-11.2-3.6
				C28.8,42,24.2,34.4,24.2,25.7H48.5z"/>
			<g>
				<g>
					<path fill-rule="evenodd" clip-rule="evenodd" fill="#38474D" d="M49.9,29.3c0,0.2-0.1,0.4-0.1,0.7c-0.1,0.1-0.2,0-0.2,0.2
						c0,0.4-0.1,0.7-0.1,1s0.1,0.1,0.1,0.4s-0.1,0.2-0.1,0.6s0.2,0.8,0.2,1.1c0,0.3-0.1,0.1-0.1,0.4c0,0.3,0.1,0.2,0.1,0.6
						s-0.2,0.7-0.4,0.9c0.1,0.5,0.2,1.6,0.2,2c0,0.7-0.1,0.4-0.2,1.1c0,0,0-0.2,0,0.2c0,0.3,0.1,0.2,0.1,0.6s-0.1,0.2-0.1,0.6
						c0,0.2,0.1,0.5,0.3,0.6c-0.1,0.5-0.3,1-0.3,1.3s0.2,1.2,0.2,1.5c0,0.3-0.1,0.1-0.1,0.4c0,0.3,0.1,0.3,0.1,0.7
						c0,0.7-0.2,0.1-0.2,0.6c0,0.3,0.1,0.1,0.1,0.4s-0.1,0.5-0.1,0.8s0.2,1.7,0.2,2.1c0,0.2,0,0.4-0.1,0.6c0,0.3-0.1,0.7-0.1,1
						c0,0.3,0,0.7,0,1c0,0.1,0,0.2,0,0.3l0,0.1c0,0,0,0.1,0,0.1l-0.4,0c-0.3,0-0.5-0.2-0.5-0.3c0,0-0.9,0-1.7-0.1
						c-0.3,0-0.6,0-0.8-0.1c-0.2,0-0.4,0-0.4,0c0.1,0.2,0.3,0.2,0.3,0.3c-0.2,0-0.2-0.1-0.5-0.2c-0.4,0-0.4,0.1-0.7,0
						c-0.4-0.1-0.9-0.4-1.2-0.5c-0.3-0.1-0.4,0-0.7,0c-0.3-0.1-0.2-0.2-0.5-0.2c-0.3-0.1-0.6-0.1-0.8,0c-0.2-0.1,0.1-0.2-0.3-0.3
						c-0.3-0.1,0,0.1-0.3,0c-0.3-0.1,0.1-0.1-0.2-0.2c-0.3-0.1,0,0.1-0.3,0c-0.3-0.1,0-0.1-0.4-0.3c-0.3-0.1-0.5-0.1-0.8-0.2
						c-0.3-0.1-0.5-0.2-0.6-0.4c-0.1,0-0.2,0-0.3,0.1c-0.2-0.1-0.1-0.2-0.5-0.3c-0.3-0.2-0.4,0-0.7-0.2c-0.3-0.2-0.6-0.5-1-0.6
						c-0.3-0.2-0.7-0.3-1-0.5c-0.3-0.2-0.3-0.3-0.4-0.4c-0.6-0.4-1.2-0.8-1.7-1.3c0-0.1,0.2,0-0.1-0.2c-0.3-0.2-1.2-0.7-1.7-1
						L30.8,44c0-0.1,0.3,0.1,0.6,0.2l-0.8-0.7c-0.3-0.2-0.2,0-0.5-0.3c-0.2-0.3-0.3-0.5-0.5-0.7c-0.2-0.3-0.2-0.1-0.5-0.3
						c-0.2-0.3,0-0.1-0.2-0.4c-0.2-0.3-0.4-0.3-0.6-0.6c-0.2-0.3-0.6-1.1-0.8-1.3c-0.2-0.2-0.4-0.7-0.7-0.8
						c-0.1-0.2-0.2-0.5-0.1-0.7c-0.2-0.3-0.1-0.4-0.3-0.4c-0.1,0.1,0.1,0.3,0,0.3c-0.1-0.4-0.1-0.8-0.3-1.1c0-0.1-0.5-0.6-0.7-0.6
						l-0.2-0.5c0.1-0.1,0.1-0.4,0.1-0.5c0-0.1-0.2-0.1-0.3-0.1c0-0.4,0-0.6-0.1-1c-0.1-0.3-0.5-0.8-0.6-1.1c-0.1-0.3,0-0.2-0.1-0.6
						c-0.1-0.3-0.1-0.3-0.2-0.3c0-0.2,0.2-0.1,0.1-0.4c-0.1-0.3-0.1,0.1-0.2-0.3c-0.1-0.3,0-0.4,0-0.7c-0.1-0.6-0.1-0.8-0.5-0.8
						l-0.1-0.5c0.1,0,0.3-0.3,0.3-0.5c0-0.4-0.1,0.1-0.2-0.3c0-0.4,0.1,0.1,0.1-0.3c0-0.4-0.2-0.5-0.3-0.8c0-0.1-0.1-0.2-0.1-0.3
						c0-0.2,0-0.4,0-0.7c0-0.3,0-1,0.1-1.7l0-0.2c0,0,0-0.1,0-0.1l0.1,0c0.2,0,0.4,0,0.5,0c0.3,0,0.6,0,0.7,0c0.5,0,0.8,0,1,0
						c0.1,0,0.2-0.1,0.3-0.1c0.1-0.1,0.2-0.1,0.5-0.1c0.6,0,0.2,0.2,1.4,0.2c0.3,0,0.8-0.1,1.1-0.1c0.3,0,0.9,0.1,1.3,0.2
						c0.1,0,0.2-0.1,0.2-0.2h0.5c0.3,0,0.3,0.1,0.5,0.1c0.1,0.1,0.1,0.2,0.2,0.2H32c0.3,0,0.2-0.1,0.4-0.2c0.3,0,0.6,0,0.9,0
						c0.1,0-0.1-0.1,0.2-0.1c0.3,0,0.9,0.1,1.3,0.2c0.1,0,0.2-0.1,0.2-0.2c0.2,0.1,0.6,0.1,0.9,0.1c0.3,0,0.7-0.1,1-0.1
						c0.2,0,0.2,0.1,0.2,0.2h0.8c0.1-0.1,0.1-0.2,0.1-0.2h0.7c0.3,0,0.2,0.1,0.5,0.1c0.3,0,0.4,0,0.4-0.1c1,0.2,0.4,0.2,1.3,0.2
						c0.6,0,1.3-0.2,1.5-0.2c0.3,0,0.6,0.2,1,0.2c0.3,0,0.1-0.1,0.4-0.1c0.3,0-0.1,0.1,0.3,0.1s1.1-0.1,1.6-0.2c0.1,0,0,0,0.3,0
						c0.2,0,0.4,0,0.6,0.1c0.2,0,0.4,0.1,0.4,0.2h0.2c0-0.1,0-0.1,0.1-0.2c0.2,0.2,0.3,0.4,0.7,0.4c0,0.1-0.1,0.1-0.1,0.2
						c0,0.3,0.5,0.4,0.5,0.6c0,0.1,0,0.1,0,0.1c-0.1,0-0.6,0.1-0.6,0.4c0,0.1,0.1,0.1,0.1,0.2c-0.3,0-0.4,0.2-0.6,0.2
						c-0.1,0-0.1,0-0.2-0.1c0,0-0.3-0.1-0.4-0.1c-0.3,0-0.5,0.1-0.8,0.1c-0.3,0-0.1-0.1-0.2-0.1c-0.5,0-1.4-0.1-1.7-0.1
						c-0.3,0-0.6-0.1-0.9,0c-0.2,0.1-0.5,0.2-0.8,0.2c-0.3,0-0.1-0.1-0.2-0.1c-0.3,0-0.7,0-1,0c-0.3,0-1,0-1.6,0.1
						c0-0.1,0.1-0.1,0.2-0.2c0,0-0.3-0.1-0.4-0.2c-0.1,0-0.1,0.1-0.4,0.1c-0.3,0-0.3-0.1-0.4-0.1c-0.2,0.1-0.5,0-0.5,0.2
						s0.3,0.1,0.3,0.2h-0.8c-0.2-0.1-0.4-0.2-0.7-0.2c-0.3,0,0.1,0.1-0.3,0.1c-0.3,0,0.1-0.1-0.3-0.1c-0.3,0-0.2,0.1-0.6,0.1
						c-0.3,0-0.3-0.1-0.7-0.1s-0.9,0.1-1.3,0.1c-0.2,0.1-0.4,0.2-0.6,0.2c0-0.1,0.2-0.1,0.3-0.2c-0.6,0-1.6-0.1-2-0.1
						c-0.3,0-0.7,0-0.9,0.1v0c-0.4,0-0.2-0.1-0.3-0.1c-0.1,0-0.2,0.1-0.2,0.2c-0.2,0,0-0.1-0.4-0.1c-0.3,0-0.1,0-0.2,0.1
						c-0.2,0-0.3-0.1-0.2-0.2c-0.6,0-1.5,0-2.2,0c-0.1,0,0.1-0.1-0.2-0.1c-0.2,0-0.5,0.1-0.8,0.1c-0.2,0-0.3,0.1-0.5,0.1
						c0,0-0.1,0-0.1,0c0,0-0.2-0.2-0.3-0.2c-0.1,0,0.1,0.1,0,0.1c0,0.1-0.1,0.1-0.2,0.1c0,0.1,0.1,0.1,0.2,0.2l0,0.2
						c-0.1,0-0.1,0.2-0.2,0.3c0,0.1,0.1,0.3,0.4,0.4l0,0.5c-0.1,0-0.2-0.2-0.2-0.2c0,0.1,0-0.1,0,0.3c0,0.3,0.3,0.6,0.4,0.9
						c0.1,0.3-0.1,0.2,0,0.5c0.1,0.3,0.1,0.2,0.2,0.5c0.1,0.3-0.1,0.1,0,0.4c0.1,0.3,0.1,0.3,0.2,0.3c0,0.2-0.1,0.4-0.1,0.6
						c0,0.2,0.2,0.6,0.3,0.9c0.1,0.3,0.2,0.7,0.3,0.9c0.1,0.1,0.2,0.2,0.3,0.3c0,0,0-0.1,0.1,0.2c0.1,0.3,0,0.5,0,0.7
						c0,0.1,0.1,0.2,0.2,0.5c0.5,1,0.5,0.6,0.8,1.1c0.2,0.4,0,0.5,0.2,1.1l0.2,0.3c0.1,0.1,0,0.1,0.1,0c0.1-0.1,0-0.3,0.1-0.3
						l0.5,0.8c0.2,0.3,0.1,0.3,0.3,0.6c0.2,0.3,0.3,0.4,0.5,0.5c0,0.1-0.2-0.1-0.3-0.1c0,0.1-0.1,0,0.1,0.2c0.2,0.3,0.2,0.1,0.4,0.4
						c0.2,0.3,0,0.2,0.2,0.5c0.2,0.3,0.5,0.4,0.7,0.6c0.2,0.2,0.2,0.4,0.4,0.7c0.2,0.2,0-0.1,0.3,0.1c0.2,0.2,0,0.1,0.2,0.4
						c0.2,0.2,0.1,0,0.4,0.2c0.2,0.2,0.4,0.6,0.4,0.7c0.2,0.1,0.4,0.3,0.5,0.2c0.1-0.1-0.1-0.2-0.1-0.3c0.3,0.3,0.3,0.4,0.5,0.6
						c0.2,0.2,0.2,0.2,0.3,0.1c0.2,0.3,0.3,0.5,0.6,0.7c0.3,0.2,0.4,0.2,0.6,0.3c0.1,0.1,0.1,0.2,0.3,0.5l0.2-0.3l0.8,0.6
						c0,0.1,0.2,0.2,0.2,0.4c0.4,0.1,1,0.3,1.3,0.5c0.3,0.2,0.5,0.4,0.6,0.6c0.1,0,0.2,0,0.3-0.1c0.5,0.4,1.4,0.9,1.7,1
						c0.4,0.2,0.4,0.1,0.5-0.1l0.7,0.2c0.3,0.1,0.7,0.5,1,0.5c0.3,0.1,0.2-0.1,0.5,0c0.3,0.1,0.6,0.2,0.9,0.3c0.3,0.1,0.5,0,0.8,0
						c0.3,0-0.1,0.1,0.2,0.2c0.3,0,0.2-0.1,0.5,0c0.3,0,0.4,0.2,0.8,0.2c0.3,0,0.2-0.1,0.5-0.1c0.2,0,0,0.1,0.2,0.1
						c0.1,0,0.1-0.1,0.2-0.1c0.1,0,0.3,0.1,0.5,0.3c0.1,0,0-0.1-0.2-0.3c0-0.1,0.1,0.1,0.1,0c0-0.1-0.1-0.1-0.1-0.2s0.1,0.1,0.1,0
						c0-0.1,0-0.1-0.1-0.1c0,0,0,0,0-0.1c0-0.1,0-0.3,0-0.4c0-0.3,0-0.5-0.1-0.7c0-0.2,0.1-0.2,0.2-0.3c0.1-0.2,0.2-0.4,0.2-0.8
						c0-0.2-0.2-0.5-0.3-0.6V45c0.1-0.2,0.2-0.2,0.2-0.6s-0.1-0.1-0.1-0.4s0.1-0.5,0.1-0.8s0-0.5,0-0.6c0-0.1-0.1-0.1-0.2-0.2
						c0-0.1,0-0.5-0.1-1c0.1,0,0.1,0.1,0.2,0.2c0,0,0.1-0.3,0.2-0.4c-0.1-0.2-0.1-0.5-0.1-0.9c0-0.3,0.1-0.5,0.1-0.8
						c0-0.3-0.1,0.1-0.1-0.3s0.1-0.1,0.1-0.2c0-0.3,0-0.4,0-0.7c0-0.3,0-0.7-0.1-0.9h0c0-0.4,0.1-0.1,0.1-0.5c0-0.3-0.1-0.2-0.1-0.6
						s0.1-0.2,0.1-0.6s-0.1-0.1-0.1-0.4s0.1-0.2,0.1-0.6c0-0.3-0.1-0.6-0.2-0.7c0.1-0.3,0.2-0.8,0.2-1.2s-0.1-0.2-0.1-0.6
						s0.1-0.1,0.1-0.4s0-0.3-0.1-0.3c0-0.2,0.1-0.3,0.2-0.2v-2.4c0-0.3-0.1,0.1-0.1-0.3s0.1-0.1,0.1-0.4s-0.1-0.2-0.1-0.6
						s0.1-0.2,0.1-0.6c0-0.2,0-0.1-0.1-0.2c0.1-0.1,0.2-0.2,0.3-0.3c0-0.1,0.1-0.4,0.2-0.5c0,0-0.1-0.1-0.2-0.1v-0.2
						c0-0.1,0.1-0.1,0.1-0.2c0.1,0,0.1-0.1,0.3-0.1s0.1,0.1,0.2,0.1c0.1,0,0.2-0.1,0.3-0.2l-0.1-0.2l0,0l0.1,0l0,0l0.1,0.3
						c0.2,0.1,0.3,0.2,0.5,0.3c0,0.1-0.1,0.1-0.1,0.2h0.4v0.2c0,0.1-0.1,0-0.1,0.1c0,0,0.1,0.1,0.2,0.1c0,0.1-0.1,0.1-0.1,0.1
						c0,0.1,0,0.2,0,0.3l0,0.2c0,0.1,0,0.3,0,0.4c0,0.5-0.1,1-0.1,1.2c0,0.3,0,0.7,0,1C49.7,29.7,49.8,29.4,49.9,29.3z"/>
				</g>
			</g>
		</g>
		<g>
			<path fill="#FFFFFF" d="M33.4,6.7c-5.6,4.5-9.1,11.3-9.1,19v0h24.3h0V1.4C42.8,1.4,37.5,3.4,33.4,6.7z"/>
			<g>
				<g>
					<path fill-rule="evenodd" clip-rule="evenodd" fill="#38474D" d="M31.7,10.1c-0.2,0.1-0.3,0.2-0.5,0.4c-0.1,0-0.1-0.1-0.3,0
						c-0.3,0.3-0.5,0.4-0.7,0.7c-0.2,0.3,0.1,0.1-0.1,0.4c-0.2,0.3-0.2,0.1-0.4,0.4c-0.2,0.3-0.2,0.7-0.4,1c-0.2,0.3-0.1,0-0.3,0.3
						c-0.2,0.3,0,0.2-0.2,0.5c-0.2,0.3-0.5,0.4-0.7,0.6c-0.1,0.5-0.5,1.5-0.6,1.8c-0.3,0.6-0.3,0.3-0.6,0.8c0,0,0-0.1-0.1,0.2
						c-0.1,0.3,0,0.2-0.1,0.5c-0.1,0.3-0.2,0.1-0.3,0.5c0,0.1,0,0.5,0.2,0.6c-0.3,0.4-0.6,0.8-0.7,1.1c-0.1,0.3,0,1.2-0.1,1.5
						c-0.1,0.3-0.1,0-0.2,0.4c0,0.3,0.1,0.3,0,0.7c-0.1,0.7-0.2,0-0.3,0.5c0,0.3,0.1,0.1,0.1,0.4c0,0.3-0.2,0.5-0.2,0.8
						c0,0.3,0,0.3,0.1,0.5c0,0.1,0.1,0.1,0.1,0.1c0.1,0,0.1,0,0.1,0c0,0,0.1,0,0.1,0.1c0,0,0.1,0,0.1,0c0,0,0.2,0,0.2,0
						c0.3,0,0.9-0.1,1.2-0.1c0.2,0,0.2,0.1,0.2,0.2h2.2c-0.1-0.1-0.3-0.2-0.3-0.2c0.2,0,0.2,0.1,0.5,0.1s0.3-0.1,0.7-0.1
						s0.9,0.2,1.2,0.2s0.3-0.1,0.7-0.1s0.2,0.1,0.6,0.1s0.6-0.1,0.7-0.2c0.2,0.1,0,0.2,0.4,0.2c0.3,0-0.1-0.1,0.3-0.1
						s-0.1,0.1,0.3,0.1s-0.1-0.1,0.3-0.1s0.1,0.1,0.4,0.1s0.5-0.1,0.8-0.1s0.5,0,0.7,0.1c0.1,0,0.2-0.1,0.2-0.2
						c0.2,0,0.2,0.1,0.5,0.1s0.3-0.1,0.7-0.1s0.8,0.1,1.1,0.1s0.8-0.1,1.1-0.1s0.4,0.1,0.5,0.1c0.7,0,1.3,0,2,0
						c0.1,0.1-0.1,0.1,0.2,0.1s1.3-0.2,1.8-0.3h0.5c0,0.1-0.3,0.1-0.5,0.2h1c0.3,0,0.2-0.1,0.5-0.1c0.2,0,0.3,0,0.4,0.1
						c0.1,0,0.1,0,0.2,0c0.1,0,0.1,0,0.2,0c0.1,0,0-0.1,0.1-0.1c0.1,0,0.1,0.1,0.2,0.1c0.1,0,0-0.2,0-0.2c0,0,0-0.1,0.1-0.2l0,0
						l0-0.1c0-0.1,0-0.1,0-0.2c0-0.1,0-0.2,0-0.3c0-0.3,0-0.8-0.1-1c0.1-0.2,0.1-0.5,0.2-0.6c0-0.4,0.1-0.4-0.1-0.4
						s-0.1,0.3-0.2,0.2c0.1-0.4,0.2-0.7,0.2-1.1c0-0.1-0.1-0.7-0.3-0.9v-0.5c0.1,0,0.2-0.3,0.3-0.4c0-0.1-0.1-0.2-0.2-0.2
						c0.1-0.4,0.2-0.6,0.2-0.9c0-0.3-0.2-0.9-0.2-1.2s0.1-0.2,0.1-0.6s0-0.3-0.1-0.3c0.1-0.2,0.2,0,0.2-0.4c0-0.3-0.1,0.1-0.1-0.3
						s0.1-0.3,0.1-0.7c0-0.6,0-0.7-0.3-0.9V13c0.1,0,0.3-0.2,0.3-0.4c0-0.3-0.1,0.1-0.1-0.3s0.1,0.1,0.1-0.3s-0.1-0.5-0.2-0.8
						c-0.1-0.2,0-0.4,0-0.8s0.2-1.7,0.2-2.1c0-1.2-0.2-0.8-0.2-1.4c0-0.6,0.2-0.2,0.2-1.4c0-0.3-0.1-0.8-0.1-1.1s0.1-0.9,0.2-1.3
						c0-0.1-0.1-0.2-0.2-0.2V2.7c0-0.1,0.1-0.1,0.1-0.2c0.1-0.1,0.2-0.1,0.2-0.2V2.1c0-0.1-0.1,0-0.1,0c-0.1,0-0.1,0.1-0.2,0.2
						c-0.1,0-0.3,0-0.4,0.1c0,0,0,0.1-0.1,0.1c-0.3,0-0.9-0.1-1.3-0.1c-0.1,0-0.2,0.1-0.2,0.3c-0.2,0-0.6,0-0.9,0
						c-0.3,0-0.7,0.2-0.9,0.3c-0.1,0-0.2-0.1-0.2-0.2l-0.7,0.2c-0.1,0.1-0.1,0.2,0,0.3c0,0-0.2,0-0.3,0.1c-0.2,0-0.3,0.1-0.3,0.1
						c-0.3,0.1-0.2-0.1-0.5,0c-0.3,0.1-0.4,0.2-0.4,0.2c-0.9,0.2-0.4-0.1-1.3,0.2c-0.5,0.2-1.1,0.7-1.3,0.8c-0.3,0.1-0.6,0-0.9,0.2
						c-0.3,0.2,0,0.1-0.3,0.3c-0.3,0.2,0-0.1-0.3,0c-0.3,0.2-0.9,0.6-1.2,1c-0.1,0.1,0,0-0.3,0.2c-0.1,0.1-0.3,0.2-0.5,0.2
						c-0.2,0.1-0.4,0.1-0.4,0.1l-0.1,0.1c0,0.1,0.1,0.1,0.1,0.2c-0.3-0.1-0.5-0.1-0.7,0.1c-0.1-0.1,0-0.1-0.1-0.2
						c-0.2-0.3-0.6,0-0.8-0.2c-0.1-0.1-0.1-0.1-0.1-0.1c0.1-0.1,0.4-0.4,0.2-0.6c-0.1-0.1-0.2,0-0.2-0.1c0.3-0.2,0.2-0.5,0.3-0.6
						c0.1,0,0.1-0.1,0.2-0.1c0,0,0.1,0,0.2-0.1c0.1,0,0.1-0.1,0.2-0.1c0.3-0.2,0.4-0.4,0.7-0.6c0.3-0.2,0.1,0,0.3,0
						c0.5-0.3,1.3-0.6,1.6-0.8c0.3-0.2,0.6-0.3,0.8-0.4c0.2-0.2,0.3-0.4,0.7-0.6c0.3-0.1,0.1,0,0.3,0c0.3-0.1,0.6-0.3,1-0.4
						c0.3-0.1,1-0.4,1.6-0.7c0.1,0.1-0.1,0.1-0.2,0.2c0,0,0.3,0,0.4,0.1c0.1,0,0.1-0.1,0.4-0.2c0.3-0.1,0.3,0,0.4,0
						c0.2-0.1,0.5-0.1,0.4-0.3c0-0.1-0.3,0-0.3-0.1l0.8-0.2c0.2,0.1,0.4,0.1,0.8,0.1c0.4-0.1-0.1-0.1,0.3-0.2c0.4-0.1,0,0.1,0.3,0.1
						c0.4-0.1,0.2-0.1,0.6-0.2c0.4-0.1,0.4,0.1,0.7,0c0.4,0,0.9-0.2,1.3-0.3c0.2-0.1,0.6-0.2,1-0.3c0.1,0.1-0.5,0.2-0.5,0.3
						c0.6,0,1.3,0,1.9,0c0.1,0,0.3,0,0.4,0c0,0.2,0,0.3,0,0.4c0,0.3,0,0.5,0,0.6c0,0.3,0,0.6,0,0.9c0,0.3,0,0.6,0.1,0.6h0
						c0,0.4-0.1,0.2-0.1,0.3c0,0.1,0.1,0.2,0.2,0.2c0,0.2-0.1,0-0.1,0.4c0,0.3,0,0.1,0.1,0.2c0,0.2-0.1,0.3-0.2,0.2
						c0,0.6,0,1.5,0,2.2c0,0.1-0.1-0.1-0.1,0.2c0,0.3,0.2,1.3,0.2,1.7S49.5,8.7,49.5,9c0,0.3,0.1-0.1,0.1,0.3c0,0.3-0.1,0.7-0.2,0.8
						c0,0.1,0.1,0.2,0.2,0.2v0.5c-0.1,0-0.1,0.3-0.2,0.4c0,0.1,0.1,0.4,0.3,0.5v0.5c-0.1,0-0.1-0.3-0.2-0.3c0,0.1,0-0.1,0,0.3
						c0,0.3,0.2,0.6,0.2,1c0,0.3-0.1,0.2-0.1,0.6s0.1,0.2,0.1,0.6s-0.1,0.1-0.1,0.4s0,0.3,0.1,0.3c-0.1,0.2-0.2,0.4-0.2,0.6
						c-0.1,0.2,0,0.7,0,1s0,0.8,0,1c0,0.2,0.1,0.2,0.2,0.4c0,0,0-0.2,0,0.2c0,0.3-0.1,0.5-0.2,0.7c0,0.1,0,0.2,0,0.6
						c0,1.2,0.2,0.8,0.2,1.4c0,0.4-0.2,0.5-0.4,1.1v0.4c0.1,0.1,0,0.1,0.1,0.1s0.1-0.3,0.2-0.3v1c0,0.3-0.1,0.4-0.1,0.7
						c0,0.2,0,0.3,0,0.4c0,0.1,0,0.3,0.1,0.5c-0.1,0.1-0.1-0.4-0.2-0.4c0,0.2,0-0.1,0,0.5c0,0.6,0.1,0.4,0.1,1c0,0.3,0,0.4-0.1,0.4
						c0,0,0,0.1,0,0.1c0,0,0,0.1,0,0.1c0,0,0,0.1-0.1,0.1c-0.2,0-0.4,0-0.6,0c-0.3,0-0.6,0.1-1,0.1c-0.3,0-0.5,0-0.7-0.1
						c-0.1,0-0.2-0.1-0.4-0.1c-0.3,0,0.1,0.1-0.3,0.1s-0.1-0.1-0.4-0.1c-0.3,0-0.1,0.1-0.4,0.1s-0.7-0.1-0.8-0.2
						c-0.2,0.1-0.5,0-0.5,0.2s0.3,0.1,0.3,0.2c-0.5,0-0.5-0.1-0.8-0.1s-0.3,0-0.3,0.1c-0.4-0.1-0.6-0.2-0.9-0.2s-0.5,0.1-0.8,0.1
						c-0.1,0-0.2-0.1-0.5-0.2v0.3h-1.1c0-0.1-0.3-0.1-0.4-0.2c-0.4,0.1-1.1,0.2-1.4,0.2s-0.7-0.1-0.8-0.2c-0.1,0-0.2,0.1-0.2,0.2
						c-0.6-0.1-1.7-0.2-2-0.2c-0.5,0-0.4,0-0.4,0.2h-0.7c-0.3,0-0.8-0.2-1.2-0.2c-0.3,0-0.2,0.1-0.6,0.1s-0.6-0.1-1-0.1
						s-0.5,0.1-0.8,0.1s0.1-0.1-0.3-0.1s-0.2,0.1-0.6,0.1s-0.5-0.1-0.8-0.1s-0.2,0.1-0.6,0.1c-0.3,0,0.1-0.1-0.3-0.1
						s-0.2,0.1-0.6,0.1s-0.7-0.1-0.8-0.2c-0.1,0-0.2,0.1-0.2,0.2c-0.2,0,0-0.1-0.4-0.1s0.1,0.1-0.3,0.1s0.1-0.1-0.3-0.1
						c-0.5,0-0.2,0-0.3,0.1c-0.5,0-1.8,0-2.3,0c0-0.3,0.1-0.5,0.2-0.6c0.1-0.4,0.2-0.8,0.2-1.4c0-0.2,0-0.3-0.1-0.5
						c-0.1-0.1-0.1-0.2-0.2-0.3l0.1-0.8c0.1-0.2,0.2-0.2,0.3-0.6c0.1-0.4-0.1-0.1-0.1-0.4c0.1-0.4,0.2-0.5,0.2-0.8
						c0.1-0.4,0.1-0.5,0.1-0.6c0-0.1-0.1-0.1-0.2-0.2c0-0.2,0.1-0.5,0.1-1c0.1,0,0.1,0.2,0.1,0.3c0,0,0.2-0.3,0.3-0.3
						c0-0.2,0-0.6,0.1-0.9c0.1-0.3,0.3-0.4,0.4-0.8c0.1-0.3-0.1,0,0-0.3c0.1-0.3,0.1-0.1,0.2-0.2c0.1-0.2,0.2-0.4,0.3-0.7
						c0.1-0.3,0.3-0.7,0.3-0.9l0,0c0.2-0.4,0.2-0.1,0.3-0.4c0.1-0.3,0-0.2,0.1-0.6c0.2-0.3,0.2-0.1,0.4-0.5c0.2-0.3-0.1-0.1,0.1-0.4
						c0.2-0.3,0.2-0.1,0.4-0.4c0.2-0.3,0.2-0.5,0.2-0.8c0.3-0.2,0.7-0.6,0.9-0.9c0.2-0.3,0-0.2,0.2-0.5c0.2-0.3,0.1,0,0.4-0.3
						c0.2-0.3,0.2-0.2,0.1-0.3c0.1-0.2,0.3-0.1,0.3-0.1c0,0,0.4-0.5,0.8-0.9c0.4-0.5,0.8-0.9,0.8-0.9c0.2-0.3-0.1,0,0.1-0.3
						c0.2-0.3,0.1,0,0.4-0.2c0.3-0.3,0.1-0.2,0.3-0.5c0.3-0.2,0.2-0.1,0.5-0.3c0.1-0.1,0.1-0.1,0-0.2c0.1,0,0.3,0,0.4,0.1
						c0.1-0.1,0.4-0.2,0.5-0.1c0,0,0-0.1-0.1-0.2l0.2-0.1c0.1-0.1,0.2,0,0.3,0c0.1,0.1,0.2,0,0.3,0.1c0.1,0.1,0,0.1,0.1,0.3
						C33.4,7,33.5,7,33.6,7c0,0.2,0.1,0.4,0.1,0.7c-0.1,0-0.2,0-0.2,0L33.7,8l-0.1,0.1c-0.1,0.1-0.1,0-0.1,0c0,0,0,0.1,0.1,0.2
						c-0.1,0.1-0.1,0-0.2,0c-0.1,0.1-0.2,0.1-0.3,0.2L33,8.6c-0.1,0.1-0.2,0.2-0.3,0.2c-0.4,0.3-0.7,0.6-0.8,0.7
						c-0.2,0.2-0.5,0.5-0.6,0.7C31.4,10.2,31.6,10.1,31.7,10.1z"/>
				</g>
			</g>
		</g>
		<g>
			<path fill="#32B5A4" d="M48.5,1.4v24.3v0V50c5,0,9.6-1.5,13.5-4.1c6.5-4.4,10.8-11.8,10.8-20.2v0c0-13.3-10.6-24-23.8-24.3
				c0,0,0,0-0.1,0C48.8,1.4,48.7,1.4,48.5,1.4z M49,26l0-0.1L49,26L49,26z"/>
			<g>
				<g>
					<g>
						<path fill-rule="evenodd" clip-rule="evenodd" fill="#38474D" d="M47.6,25.9c0,0,0.1,0,0.1,0c0.1,0,0.2,0,0.2,0
							c0,0,0.1,0,0.1,0l-0.1,0l0.1,0l-0.2,0l0.1,0l-0.1,0c0,0,0.2,0,0.3,0c-0.1,0-0.2,0-0.2,0s0.1,0,0.2,0l0,0l-0.1,0l0.1,0
							c0,0-0.1,0-0.3,0c0.1,0,0.3,0,0.3,0l-0.2,0l0.1,0l-0.1,0l0.2,0l-0.1,0l0.1,0l-0.2,0l0.1,0c0,0-0.1,0-0.1,0c0,0,0.1,0,0.2,0
							l0,0c-0.1,0-0.2,0-0.2,0c0,0,0.1,0,0.1,0l-0.1,0l0.2,0l-0.1,0l0.1,0c0,0-0.1,0-0.2,0c0.1,0,0.2,0,0.2,0l-0.1,0l0.1,0l-0.1,0
							l0.1,0l-0.1,0c0,0,0,0,0.1,0c0,0-0.1,0-0.2,0c0,0,0.1,0,0.1,0l-0.1,0l0.1,0l-0.1,0c0,0,0.1,0,0.1,0c0,0,0,0,0,0l0,0
							c0.6-0.1,1.2-0.3,1.7-0.4l0,0l0,0c0,0,0,0,0,0c0,0-0.1,0.1-0.1,0.1s0.2-0.1,0.3-0.2l0,0c-0.1,0-0.1,0.1-0.2,0.1l0,0
							c0,0,0.1-0.1,0.1-0.1l-0.1,0.1l0.1-0.1l-0.1,0.1l0.1-0.1l-0.1,0.1c0,0,0,0,0.1-0.1c-0.1,0-0.1,0.1-0.2,0.1c0,0-0.1,0,0.1,0
							c0.1-0.1,0.1,0,0.1-0.1c-0.1,0.1-0.2,0.1-0.2,0.1s0.1-0.1,0.3-0.2l0,0c-0.1,0.1-0.2,0.1-0.3,0.2c0,0,0.1-0.1,0.2-0.1
							c-0.1,0.1-0.2,0.1-0.2,0.1l0.2-0.1l-0.1,0.1c0,0,0,0,0.1-0.1c-0.1,0-0.2,0.1-0.2,0.1l0.1-0.1l-0.1,0.1c0,0,0,0,0.3-0.2l0,0
							c-0.1,0.1-0.3,0.2-0.3,0.2l0.1-0.1l-0.1,0.1c0,0,0.1-0.1,0.2-0.1c0,0,0,0,0,0c0,0.5,0,0.9,0,1.2l0,0l0,0l-0.2-0.1l0.2,0.1
							l-0.2-0.1l0.1,0.1c0,0-0.1-0.1-0.2-0.1c0,0,0.1,0,0.2,0.1l0,0c0,0-0.1-0.1-0.1-0.1c0,0-0.1-0.1-0.2-0.1l0,0
							c0,0,0.1,0.1,0.2,0.1c0,0,0,0,0,0c0,0,0.1,0.1,0.1,0.1s-0.1-0.1-0.2-0.1c0,0,0.1,0,0.2,0.1c-0.1,0-0.1-0.1-0.1-0.1
							s0,0,0.1,0.1c0,0-0.1-0.1-0.2-0.1l0,0c0,0,0.1,0.1,0.2,0.1l0,0l-0.1-0.1c0,0,0,0,0.1,0.1c-0.1-0.1-0.2-0.1-0.2-0.1l0.2,0.1
							l-0.2-0.1l0.1,0.1l-0.1-0.1c0,0,0.1,0.1,0.2,0.1c0,0,0,0,0,0s-0.1-0.1-0.2-0.1l0,0c0,0,0.1,0.1,0.2,0.1
							c-0.2-0.1-0.3-0.2-0.3-0.2c-0.1,0-0.1,0-0.2-0.1C49,26,48.9,26,48.7,25.9c-0.1-0.1-0.1-0.1-0.1-0.1c0,0-0.1-0.1-0.3-0.2
							c-0.1-0.1-0.1-0.1-0.2-0.1c0,0-0.2-0.1-0.2-0.1l0.1,0.1l-0.1-0.1c0,0,0.1,0,0.1,0.1c0,0,0.1,0.1,0.1,0.1s0,0,0,0
							c-0.1,0-0.2-0.1-0.2-0.1s0.1,0,0.1,0.1c0,0,0,0,0,0s0,0-0.1-0.1c0.1,0,0.1,0.1,0.1,0.1c0,0,0.1,0.1,0.2,0.1l-0.1-0.1
							c0,0,0.1,0,0.1,0.1c0,0,0,0-0.1-0.1c-0.1-0.1-0.1,0-0.1-0.1l0,0c0.1,0.1,0.2,0.1,0.2,0.1L48,25.4l0.1,0.1L48,25.4l0.1,0.1
							c0,0,0,0-0.1-0.1c0,0-0.1-0.1-0.2-0.1c0.1,0,0.1,0.1,0.2,0.1c0,0,0.1,0.1,0.1,0.1s0,0-0.1,0l0,0c0,0,0.1,0,0.1,0.1
							c0,0-0.1,0-0.2-0.1c0,0,0.1,0.1,0.1,0.1s0,0-0.1-0.1c0,0,0.1,0.1,0.2,0.1c0,0,0,0,0,0c0,0,0.1,0,0.1,0L48,25.3l0.2,0.1
							l-0.1-0.1c0,0,0.1,0.1,0.2,0.1c0,0-0.1-0.1-0.2-0.1l0,0c0.1,0,0.1,0.1,0.2,0.1c0,0.2,0,0.5,0,0.9c0,0,0,0-0.1,0
							c0,0-0.1,0.1-0.2,0.1l0,0c0.1,0,0.1-0.1,0.2-0.1c0,0,0,0,0,0L48,26.6l0.1-0.1L48,26.6l0.1-0.1c0,0,0,0-0.1,0.1
							c0.1,0,0.1-0.1,0.2-0.1c0.1,0,0,0,0,0s0,0,0,0c0,0-0.1,0.1-0.2,0.1l0,0c0,0,0.1-0.1,0.2-0.1c0,0,0,0,0,0L48,26.6
							c0,0,0.2-0.1,0.3-0.2l0,0c0,0,0,0-0.1,0.1c-0.1,0.1-0.1,0.1-0.2,0.1l0,0l0.1-0.1c0,0,0,0-0.1,0.1c0.1,0,0.1-0.1,0.2-0.1
							c0,0,0,0,0,0l-0.1,0.1l0.1-0.1l-0.1,0.1l0.1-0.1l-0.1,0.1l0.1-0.1l-0.1,0.1c0,0,0.1-0.1,0.2-0.1c0,0,0,0-0.1,0.1
							c-0.1,0.1-0.1,0-0.1,0.1c0,0,0.1-0.1,0.1-0.1s0,0-0.1,0.1c0.1-0.1,0.2-0.1,0.2-0.1l-0.1,0.1c0,0,0,0,0,0
							c0.4-0.1,1.1-0.3,1.8-0.5c0,0-0.1,0-0.2,0l0.3,0l0,0c-0.1,0-0.1,0-0.2,0c0.1,0,0.2,0,0.2,0s-0.1,0-0.2,0c0,0,0.1,0,0.2,0
							c-0.1,0-0.2,0-0.2,0s0,0,0.2,0l0,0l-0.2,0l0.1,0l-0.1,0l0.1,0l-0.1,0l0.1,0l-0.1,0l0.1,0l-0.1,0l0.1,0c0,0-0.1,0-0.2,0
							c0,0,0.1,0,0.2,0c0,0-0.1,0-0.1,0l0.1,0l-0.1,0c0,0,0,0,0.1,0c0,0-0.1,0,0.1,0c0,0-0.1,0-0.2,0c-0.1,0-0.2,0-0.2,0
							s0.2,0,0.3,0l0,0c-0.1,0-0.2,0-0.2,0l0.1,0l-0.1,0c0,0,0,0,0,0c0,0,0.1,0,0.2,0c0,0,0,0,0.1,0c-0.1,0-0.1,0-0.2,0
							c0,0-0.1,0-0.2,0c0.1,0,0.1,0,0.1,0l-0.1,0l0.1,0c0,0-0.1,0-0.1,0c0,0,0,0,0,0s0,0,0.1,0l0,0l-0.1,0l0.1,0l-0.1,0l0.1,0
							l-0.1,0c0,0,0.1,0,0.2,0c-0.1,0-0.2,0-0.2,0l0.1,0l-0.1,0c0,0,0,0,0.1,0c0,0-0.1,0-0.2,0l0,0l0.1,0l-0.1,0l0.1,0l-0.1,0
							c0,0,0,0,0.1,0c-0.1,0-0.2,0-0.3,0c0,0-0.1,0-0.2,0c0,0,0.1,0,0.2,0l0,0c0,0-0.1,0-0.1,0c-0.1,0-0.1,0-0.3,0
							c-0.1,0-0.1,0-0.2,0c-0.1,0-0.2,0-0.3,0c-0.2,0-0.4,0-0.6-0.1c0,0,0.1,0,0.1,0l-0.4,0v0c0,0,0.1,0,0.1,0
							C47.9,25.9,47.8,25.9,47.6,25.9c0.1,0,0.1,0,0.2,0c0,0,0.1,0,0.1,0s0,0,0,0C47.8,25.9,47.7,25.9,47.6,25.9z"/>
					</g>
				</g>
				<g>
					<g>
						<path fill-rule="evenodd" clip-rule="evenodd" fill="#38474D" d="M49.9,5.9c0,0.3-0.1,0.6-0.1,1C49.8,7,49.7,7,49.6,7.2
							c0,0.6-0.1,1-0.1,1.5c0,0.5,0.1,0.1,0.1,0.6c0,0.5-0.1,0.3-0.1,0.8s0.2,1.1,0.2,1.6c0,0.5-0.1,0.1-0.1,0.6
							c0,0.5,0.1,0.3,0.1,0.8c0,0.5-0.2,1-0.4,1.3c0.1,0.7,0.2,2.4,0.2,2.9c0,1-0.1,0.6-0.2,1.5c0,0,0-0.2,0,0.3
							c0,0.5,0.1,0.3,0.1,0.8c0,0.5-0.1,0.3-0.1,0.8c0,0.2,0.1,0.7,0.3,0.9c-0.1,0.7-0.3,1.4-0.3,1.9s0.2,1.7,0.2,2.2
							c0,0.5-0.1,0.1-0.1,0.6c0,0.5,0.1,0.5,0.1,1c0,1-0.2,0.1-0.2,0.8c0,0.5,0.1,0.1,0.1,0.6c0,0.5-0.1,0.7-0.1,1.2
							c0,0.5,0.2,2.5,0.2,3c0,0.5-0.1,1.3-0.1,1.8c0,0.5,0.1,1.3,0.1,1.7c0,0.2-0.1,0.3-0.2,0.3V40c0.1-0.2,0.2-0.4,0.2-0.4
							c0,0.3-0.1,0.3-0.1,0.8s0.1,0.5,0.1,1c0,0.5-0.2,1.3-0.2,1.8c0,0.5,0.1,0.5,0.1,1s-0.1,0.3-0.1,0.8c0,0.5,0.1,0.8,0.2,1.1
							c-0.1,0.3-0.2,0-0.2,0.5c0,0.5,0.1-0.1,0.1,0.4s-0.1-0.1-0.1,0.4s0.1-0.1,0.1,0.4s-0.1,0.1-0.1,0.6c0,0.1,0,0.1,0,0.2l0,0.1
							c0,0,0,0.1,0,0.1c0,0.1,0.1,0.1,0.1,0.2c0,0,0,0.1,0,0.1c0,0,0,0,0.1,0c0,0,0.1,0,0.1,0.1c0.1,0,0.1-0.1,0.2-0.2
							c0,0,0,0,0.1,0c0,0,0,0,0,0c0,0,0,0,0,0c0.1,0,0.1,0,0.2,0c0.5,0,0.5-0.2,0.9-0.2c0.5-0.1,1.1,0,1.5-0.1
							c0.5-0.1,1-0.3,1.5-0.4c0.5-0.1,0.5-0.1,0.7-0.1c0.9-0.2,1.8-0.5,2.7-0.9c0.1,0-0.1,0.2,0.3,0c0.4-0.2,1.5-1,2.2-1.5l0.6-0.3
							c0.1,0.1-0.3,0.3-0.5,0.6c0,0,0.3-0.2,0.6-0.4c0.3-0.2,0.6-0.4,0.6-0.4c0.4-0.3,0.1-0.2,0.5-0.5c0.4-0.3,0.6-0.3,1-0.6
							c0.4-0.3,0.2-0.3,0.5-0.6c0.4-0.3,0.2,0,0.5-0.3c0.4-0.3,0.4-0.5,0.8-0.9c0.3-0.3,1.2-1.1,1.5-1.4c0.2-0.3,0.8-0.9,0.8-1.2
							c0.2-0.2,0.5-0.5,0.7-0.5c0.3-0.4,0.4-0.5,0.3-0.6c-0.1-0.1-0.3,0.3-0.3,0.2c0.4-0.3,0.8-0.7,1-1.1c0.1-0.1,0.4-1,0.3-1.2
							l0.3-0.6c0.1,0,0.4-0.2,0.6-0.3c0.1-0.1,0-0.3-0.1-0.4c0.3-0.4,0.5-0.6,0.7-1.1c0.2-0.5,0.2-1.3,0.3-1.7
							c0.1-0.5,0.2-0.2,0.3-0.7c0.1-0.5,0.1-0.4,0-0.5c0.1-0.3,0.2,0,0.3-0.5c0.1-0.5-0.1,0.1,0-0.4c0.1-0.5,0.2-0.5,0.3-0.9
							c0.1-0.8,0.1-1-0.2-1.2l0.1-0.7c0.1,0,0.4-0.3,0.4-0.6c0-0.5-0.1,0.1-0.1-0.4c0-0.5,0.1,0.1,0.1-0.4c0-0.5-0.1-0.7-0.2-1.1
							c-0.1-0.3,0-0.6-0.1-1.1c0-0.5,0-2.4-0.1-2.9c-0.4-1.6-0.5-1.1-0.7-1.8c-0.2-0.8,0.2-0.3-0.4-1.9c-0.2-0.5-0.5-1-0.7-1.4
							c-0.2-0.4-0.4-1.2-0.6-1.8c-0.1-0.1-0.2-0.2-0.4-0.1l-0.3-0.6c-0.3-0.4-0.1-0.4-0.3-0.7c0-0.1,0.1-0.2,0.1-0.3
							c0,0-0.3-0.4-0.3-0.4c-0.3-0.4-0.3-0.2-0.5-0.3c-0.2-0.3-0.6-0.8-0.8-1c-0.1-0.1,0,0.2-0.3-0.2c-0.3-0.4-0.8-1.1-1.1-1.5
							C65.2,9,65,9,64.9,9c-0.2-0.2-0.5-0.6-0.9-1c-0.3-0.3-0.8-0.6-1.2-0.8c-0.2-0.1-0.2-0.3-0.1-0.4c0,0-0.2-0.2-0.4-0.3
							c-0.2-0.2-0.4-0.3-0.4-0.3c-0.2,0-0.2,0.1-0.3,0.1l-0.9-0.5c-0.4-0.3-0.1-0.2-0.5-0.5c-0.4-0.3-0.5-0.2-0.6-0.2
							c-1.2-0.7-0.4-0.4-1.6-1.1c-0.8-0.3-1.8-0.5-2.1-0.5c-0.5-0.2-0.8-0.5-1.2-0.6c-0.5-0.1-0.1,0.1-0.6,0
							c-0.5-0.1,0.1-0.1-0.3-0.2c-0.5-0.1-1.6-0.2-2.2-0.2c-0.2,0,0,0-0.5,0c-0.2,0-0.5-0.1-0.8-0.1c-0.2-0.1-0.6-0.1-0.6-0.2
							l-0.1,0c0,0,0,0.1-0.1,0.2C49.4,2.1,49.2,2,48.9,2c0-0.1,0.1-0.1,0.1-0.2c0-0.3-0.5-0.4-0.5-0.7c0-0.1,0-0.1,0-0.1
							c0.1,0,0.6-0.1,0.6-0.4c0-0.1-0.1-0.2-0.1-0.2c0.4,0,0.5-0.2,0.6-0.2c0.1,0,0.1,0,0.2,0.1c0,0,0,0,0.1,0c0.1,0,0.1,0,0.2,0
							c0.1,0,0.2,0,0.4,0c0.5,0,0.7-0.1,1.3,0c0.5,0.1,0.2,0.1,0.3,0.2c0.8,0.2,2,0.4,2.5,0.6c0.5,0.1,0.9,0.3,1.3,0.3
							c0.3,0,0.7,0,1.2,0.2c0.5,0.2,0.1,0.1,0.3,0.2c0.4,0.2,0.9,0.4,1.4,0.6c0.5,0.2,1.4,0.7,2.3,1c0,0.1-0.2,0-0.4,0
							c0,0,0.3,0.3,0.4,0.5c0.1,0.1,0.2,0,0.6,0.3c0.4,0.3,0.3,0.3,0.4,0.4c0.3,0.1,0.6,0.4,0.7,0.2c0.1-0.1-0.3-0.3-0.2-0.3
							c0,0,0.3,0.2,0.5,0.3C63.3,4.8,63.5,5,63.5,5c0.1,0.3,0.3,0.5,0.7,0.8c0.4,0.3,0-0.2,0.4,0.2c0.4,0.3-0.2,0,0.3,0.4
							c0.4,0.4,0.3,0.1,0.7,0.5c0.4,0.4,0.3,0.4,0.7,0.8c0.4,0.3,1,1,1.4,1.3c0.3,0.2,0.5,0.3,0.8,0.6c0,0.1-0.3-0.2-0.4-0.1
							c0.6,0.7,1.4,2,1.7,2.4c0.3,0.4,0.5,0.9,0.8,1.2l0,0c0.3,0.5,0.1,0.2,0.1,0.4c0.1,0.1,0.2,0.2,0.4,0.2
							c0.1,0.2-0.1,0.1,0.2,0.6c0.2,0.5,0.1,0.2,0.2,0.2c0.1,0.3,0,0.4-0.1,0.4c0.2,0.4,0.5,0.9,0.7,1.5c0.2,0.5,0.4,1.1,0.5,1.6
							c0,0.1-0.2-0.2,0,0.3c0.2,0.5,0.7,1.9,0.9,2.4c0.1,0.5-0.1,0.8,0,1.3c0.1,0.5,0.1-0.1,0.2,0.4c0.1,0.5,0,1-0.1,1.2
							c0,0.2,0.1,0.2,0.2,0.3l0,0.8c-0.1,0-0.1,0.4-0.2,0.6c0,0.1,0.1,0.5,0.4,0.7l0,0.8c-0.1,0-0.1-0.4-0.2-0.4
							c-0.1,0.2,0-0.1-0.1,0.4c0,0.5,0.2,1,0.1,1.5c-0.1,0.5-0.1,0.3-0.2,0.8c-0.1,0.5,0.1,0.3,0,0.8c-0.1,0.5-0.1,0.1-0.2,0.6
							c-0.1,0.5-0.1,0.4,0,0.5c-0.1,0.3-0.3,0.6-0.4,0.9c-0.1,0.3-0.3,0.9-0.4,1.4c-0.1,0.5-0.4,1.1-0.5,1.5c-0.1,0.2,0,0.4-0.1,0.7
							c0,0,0.1-0.2-0.1,0.3c-0.2,0.5-0.4,0.6-0.6,0.8c-0.1,0.1-0.2,0.3-0.4,0.8c-0.8,1.6-0.4,1.2-0.8,1.9c-0.4,0.6-0.6,0.5-1.2,1.1
							l-0.3,0.4c-0.1,0.2-0.1,0.1,0,0.2c0.1,0.1,0.4-0.2,0.4-0.2c0,0-0.2,0.3-0.5,0.6c-0.2,0.3-0.5,0.6-0.5,0.6
							c-0.3,0.4-0.4,0.3-0.8,0.7c-0.3,0.4-0.5,0.6-0.7,0.9c-0.1,0,0.1-0.4,0.1-0.4c-0.2,0.1,0-0.1-0.3,0.3c-0.4,0.4-0.1,0.3-0.5,0.7
							c-0.4,0.4-0.3,0.1-0.7,0.5c-0.4,0.4-0.6,0.7-1,1c-0.4,0.3-0.6,0.4-1.1,0.7c-0.4,0.3,0.2,0-0.3,0.3c-0.4,0.3-0.1,0-0.6,0.3
							c-0.4,0.3,0,0.2-0.5,0.4c-0.4,0.3-1,0.4-1.1,0.4c-0.3,0.2-0.6,0.4-0.5,0.5c0.1,0.1,0.4-0.1,0.4,0c-0.6,0.3-0.7,0.2-1.1,0.5
							c-0.5,0.2-0.4,0.2-0.4,0.3c-0.5,0.1-0.9,0.1-1.4,0.3c-0.5,0.2-0.6,0.4-1,0.5c-0.2,0.1-0.3,0-0.8,0L56,50c0,0-0.4,0.1-0.8,0.2
							c-0.4,0.1-0.8,0.2-0.8,0.2c0-0.1-0.5,0-0.6-0.1c-0.5,0.2-1.6,0.5-2.1,0.6c-0.5,0.1-1,0-1.2-0.1c-0.2,0-0.3,0.1-0.3,0.3
							c-0.4,0-0.8,0-1.3,0c-0.2,0-0.5,0-0.7,0l-0.4,0l-0.2,0l-0.1,0l0-0.1c0-1,0-1.9,0.1-2.3c0-0.7,0-0.7-0.2-0.7v-1.1
							c0-0.5,0.2-1.2,0.2-1.7c0-0.5-0.1-0.3-0.1-0.8s0.1-0.9,0.1-1.4c0-0.5-0.1-0.7-0.1-1.2c0-0.5,0.1,0.1,0.1-0.4
							c0-0.5-0.1-0.3-0.1-0.8s0.1-0.7,0.1-1.2c0-0.5-0.1-0.3-0.1-0.8c0-0.5,0.1,0.1,0.1-0.4c0-0.5-0.1-0.3-0.1-0.8s0.1-1,0.2-1.2
							c0-0.1-0.1-0.2-0.2-0.3c0-0.3,0.1-0.1,0.1-0.6c0-0.5-0.1,0.1-0.1-0.4c0-0.5,0.1,0.1,0.1-0.4c0-0.5,0-0.2-0.1-0.3
							c0-0.4,0.1-1.6-0.1-1.9c0-0.3,0.1-0.4,0.2-0.4c0.1-0.3,0.2-0.6,0.2-1.2c0-0.3-0.2-0.7-0.3-0.8v-1.1c0.1-0.2,0.2-0.3,0.2-0.8
							c0-0.5-0.1-0.1-0.1-0.6s0.1-0.7,0.1-1.2c0-0.5,0-0.7,0-0.9c0-0.2-0.1-0.2-0.2-0.3c0-0.2,0-0.7-0.1-1.4
							c0.1-0.1,0.1,0.2,0.2,0.4c0,0,0.1-0.4,0.2-0.5c-0.1-0.3-0.1-0.8-0.1-1.3c0-0.5,0.1-0.7,0.1-1.2s-0.1,0.1-0.1-0.4
							s0.1-0.2,0.1-0.3c0-0.4,0-0.6,0-1.1c0-0.5,0-1-0.1-1.3h0c0-0.6,0.1-0.2,0.1-0.7s-0.1-0.3-0.1-0.8c0-0.5,0.1-0.3,0.1-0.8
							c0-0.5-0.1-0.1-0.1-0.6c0-0.5,0.1-0.3,0.1-0.8s-0.1-0.8-0.2-1.1c0.1-0.5,0.2-1.2,0.2-1.7c0-0.5-0.1-0.3-0.1-0.8
							s0.1-0.1,0.1-0.6c0-0.5,0-0.4-0.1-0.4c0-0.3,0.1-0.4,0.2-0.3V5.6c0-0.5-0.1,0.1-0.1-0.4c0-0.5,0.1-0.1,0.1-0.6
							c0-0.5-0.1-0.3-0.1-0.8s0.1-0.3,0.1-0.8c0-0.2,0-0.1-0.1-0.2c0.1-0.1,0.2-0.2,0.3-0.3c0-0.1,0.1-0.4,0.2-0.5
							c0,0-0.1-0.1-0.2-0.1V1.9c0-0.1,0.1-0.1,0.1-0.2c0.1,0,0.1-0.1,0.3-0.1s0.1,0.1,0.2,0.1c0.1,0,0.2-0.1,0.3-0.2
							c0.2,0.1,0.4,0.2,0.6,0.4c0,0.1-0.1,0.1-0.1,0.2h0.4v0.2c0,0.1-0.1,0-0.1,0.1c0,0,0.1,0.1,0.2,0.1c0,0.1-0.1,0.1-0.1,0.1
							c0,0.1,0,0.2,0,0.3l0,0.2c0,0.2,0,0.4,0,0.6c0,0.8-0.1,1.5-0.1,1.7c0,0.5,0,1.1,0,1.4C49.7,6.4,49.8,6.1,49.9,5.9z"/>
					</g>
				</g>
			</g>
		</g>
		<g>
			<polygon fill="#818181" points="49,26 49,26 49,25.9 			"/>
			<g>
				<g>
					<path fill-rule="evenodd" clip-rule="evenodd" fill="#38474D" d="M50.2,26.7C50.1,26.7,50.1,26.7,50.2,26.7
						c-0.1-0.1-0.2-0.1-0.3-0.2c0,0-0.1-0.1-0.1-0.1l0.1,0.1l-0.1-0.1l0.2,0.1l-0.1-0.1l0.1,0.1c0,0-0.2-0.1-0.3-0.2
						c0.1,0.1,0.2,0.1,0.2,0.1s-0.1-0.1-0.2-0.1l0,0l0.1,0.1l-0.1-0.1c0,0,0.1,0.1,0.3,0.2c-0.1-0.1-0.3-0.2-0.3-0.2l0.2,0.1
						l-0.1-0.1l0.1,0.1l-0.2-0.1l0.1,0.1l-0.1-0.1l0.2,0.1l-0.1-0.1c0,0,0,0,0.1,0.1c0,0-0.1-0.1-0.2-0.1l0,0l0,0l0,0
						c-0.5-0.2-1-0.3-1.5-0.5l0,0l0,0c-0.1,0-0.2,0-0.2,0c0,0,0.1,0,0.1,0l-0.1,0l0.2,0l-0.1,0l0.1,0c0,0-0.1,0-0.2,0
						c0.1,0,0.2,0,0.2,0l-0.1,0l0.1,0l-0.1,0l0.1,0l-0.1,0c0,0,0,0,0.1,0c0,0-0.1,0-0.2,0c0,0,0.1,0,0.1,0l-0.1,0l0.1,0l-0.1,0
						c0,0,0.1,0,0.1,0c0,0,0,0,0,0c0.1,0,0.1,0,0.1,0s-0.2,0-0.3,0l0,0c0.1,0,0.1,0,0.2,0l0,0c0,0-0.1,0-0.1,0l0.1,0l-0.1,0l0.1,0
						l-0.1,0l0.1,0c0,0,0,0-0.1,0c0.1,0,0.1,0,0.2,0c0,0,0.1,0-0.1,0c-0.1,0-0.1,0-0.2,0c0.1,0,0.2,0,0.2,0s-0.1,0-0.3,0l0,0
						c0.1,0,0.2,0,0.3,0c0,0-0.1,0-0.2,0c0.1,0,0.2,0,0.2,0l-0.2,0l0.1,0c0,0,0,0-0.1,0c0.1,0,0.2,0,0.2,0l-0.1,0l0.1,0
						c0,0,0,0-0.3,0l0,0c0.1,0,0.3,0,0.3,0l-0.1,0l0.1,0c0,0-0.1,0-0.2,0c-0.1,0,0,0,0,0l0.2,0l-0.2,0l0.2,0l-0.1,0
						c0,0,0.6-0.1,1.7-0.4l0,0c0,0,0,0,0,0c0,0,0,0,0,0c0,0-0.1,0.1-0.1,0.1c0,0,0.1,0,0.2-0.1l0,0c0,0-0.1,0.1-0.1,0.1
						c0,0-0.1,0.1-0.2,0.1l0,0c0,0,0.1-0.1,0.2-0.1c0,0,0,0,0,0c0,0,0.1-0.1,0.1-0.1s-0.1,0.1-0.2,0.1c0,0,0.1,0,0.2-0.1
						c-0.1,0-0.1,0.1-0.1,0.1s0,0,0.1-0.1c0,0-0.1,0.1-0.2,0.1l0,0c0,0,0.1-0.1,0.2-0.1l0,0l-0.1,0.1c0,0,0,0,0.1-0.1
						c-0.1,0.1-0.2,0.1-0.2,0.1l0.2-0.1l-0.2,0.1l0.1-0.1l-0.1,0.1c0,0,0.1-0.1,0.2-0.1c0,0,0,0,0,0s-0.1,0.1-0.2,0.1l0,0
						c0,0,0.1-0.1,0.2-0.1c-0.2,0.1-0.3,0.2-0.3,0.2c-0.1,0-0.1,0-0.2,0.1C49,25.9,49,26,48.8,26.1c-0.1,0.1-0.1,0.1-0.1,0.1
						c0,0-0.1,0.1-0.3,0.2c-0.1,0.1-0.1,0.1-0.2,0.1c0,0-0.2,0.1-0.2,0.1l0.1-0.1l-0.1,0.1c0,0,0.1,0,0.1-0.1c0,0,0.1-0.1,0.1-0.1
						s0,0,0,0c-0.1,0-0.2,0.1-0.2,0.1s0.1,0,0.1-0.1c0,0,0,0,0,0s0,0-0.1,0.1c0.1,0,0.1-0.1,0.1-0.1c0,0,0.1-0.1,0.2-0.1l-0.1,0.1
						c0,0,0.1,0,0.1-0.1c0,0,0,0-0.1,0.1c-0.1,0.1-0.1,0-0.1,0.1l0,0c0.1-0.1,0.2-0.1,0.2-0.1L48,26.6l0.1-0.1L48,26.6l0.1-0.1
						c0,0,0,0-0.1,0.1c0,0-0.1,0.1-0.2,0.1c0.1,0,0.1-0.1,0.2-0.1c0,0,0.1-0.1,0.1-0.1s0,0-0.1,0l0,0c0,0,0.1,0,0.1-0.1
						c0,0-0.1,0-0.2,0.1c0,0,0.1-0.1,0.1-0.1s0,0-0.1,0.1c0,0,0.1-0.1,0.2-0.1l0,0l0,0c0.7-0.2,1.3-0.3,1.9-0.5l0,0l0,0c0,0,0,0,0,0
						c0,0-0.1,0-0.1,0l0.2,0l-0.2,0l0.1,0c0,0-0.1,0-0.2,0c0,0,0.1,0,0.2,0l0,0c-0.1,0-0.1,0-0.2,0c0,0,0.1,0,0.3,0l0,0
						c-0.1,0-0.1,0-0.2,0c0,0,0,0,0,0l0.2,0L50,26l0.1,0L50,26c0,0,0,0,0.1,0c-0.1,0-0.2,0-0.2,0c-0.1,0,0,0,0,0s0,0,0,0
						c0,0,0.1,0,0.2,0l0,0c0,0-0.1,0-0.2,0c0,0,0,0,0,0l0.2,0c0,0-0.2,0-0.4,0l0,0c0.1,0,0,0,0.1,0c0.1,0,0.1,0,0.2,0l0,0l-0.1,0
						c0,0,0,0,0.1,0c-0.1,0-0.1,0-0.2,0c0,0,0,0,0,0l0.1,0l-0.1,0l0.1,0l-0.1,0l0.1,0l-0.1,0l0.1,0c0,0-0.1,0-0.2,0c0.1,0,0,0,0.2,0
						c0.1,0,0.1,0,0.2,0c0,0-0.1,0-0.1,0s0,0,0.1,0c-0.1,0-0.2,0-0.2,0l0.1,0c0,0-0.1,0-0.2,0l0.3,0l0,0c-0.1,0-0.1,0-0.2,0
						c0.1,0,0.2,0,0.2,0s-0.1,0-0.2,0c0,0,0.1,0,0.2,0c-0.1,0-0.2,0-0.2,0s0,0,0.2,0l0,0l-0.2,0l0.1,0l-0.1,0l0.1,0l-0.1,0l0.1,0
						l-0.1,0l0.1,0l-0.1,0c0,0-0.6-0.2-1.7-0.6c0,0,0,0,0,0c0,0,0,0,0,0c0,0,0,0,0,0s0.1,0.1,0.2,0.1c0,0-0.1-0.1-0.2-0.1
						c0,0,0.1,0.1,0.1,0.1l-0.1-0.1l0.1,0.1c0,0,0,0-0.1,0c0,0,0.1,0.1-0.1-0.1c0,0,0.1,0.1,0.2,0.1c0,0,0.1,0.1,0.1,0.1
						s-0.1-0.1-0.3-0.2l0,0c0.1,0.1,0.2,0.1,0.2,0.1l-0.1-0.1l0.1,0.1c0,0,0,0,0,0c0,0-0.1-0.1-0.2-0.1c0,0,0,0-0.1-0.1
						c0.1,0,0.1,0.1,0.1,0.1c0,0,0.1,0.1,0.2,0.1c0,0-0.1-0.1-0.1-0.1l0.1,0.1l-0.1-0.1c0,0,0.1,0,0.1,0.1c0,0,0,0,0,0s0,0-0.1,0
						l0,0l0.1,0.1l-0.1-0.1l0.1,0.1l-0.1-0.1l0.1,0.1c0,0-0.1-0.1-0.2-0.1c0.1,0.1,0.2,0.1,0.2,0.1l-0.1-0.1l0.1,0.1
						c0,0,0,0-0.1-0.1c0,0,0.1,0.1,0.2,0.1l0,0l-0.1-0.1l0.1,0.1l-0.1-0.1l0.1,0.1c0,0,0,0-0.1-0.1c0.1,0,0.2,0.1,0.3,0.2
						c0,0,0.1,0.1,0.2,0.1c0,0-0.1-0.1-0.2-0.1l0,0c0,0,0.1,0.1,0.1,0.1c0.1,0.1,0.1,0.1,0.2,0.1c0.1,0.1,0.1,0,0.2,0.1
						c0.1,0.1,0.2,0.1,0.3,0.2c0.2,0.1,0.3,0.2,0.5,0.3c0,0-0.1-0.1-0.1-0.1l0.3,0.2l0,0c0,0-0.1,0-0.1-0.1
						C49.9,26.5,50,26.6,50.2,26.7c-0.1-0.1-0.1-0.1-0.1-0.1c0,0-0.1-0.1-0.1-0.1s0,0,0,0C50,26.6,50.1,26.7,50.2,26.7z"/>
				</g>
			</g>
		</g>
	</g>
	<g>
		<path fill="#39484E" d="M88.9,23.5c0.2,0,0.3,0.1,0.4,0.2c0.1,0.1,0.2,0.2,0.2,0.4s-0.1,0.3-0.2,0.4c-0.1,0.1-0.2,0.2-0.4,0.2
			h-0.3c-0.1,0-0.1,0-0.1,0.1v0.5c0,0.3,0,0.5-0.1,0.7c-0.1,0.2-0.2,0.3-0.4,0.4c-0.2,0.1-0.5,0.2-1,0.2c0,0,0,0,0,0
			c-0.2,0-0.3,0-0.4-0.1c-0.1-0.1-0.2-0.2-0.3-0.4c0,0,0-0.1,0-0.1c0-0.1,0-0.1,0.1-0.2c0.1-0.1,0.2-0.2,0.3-0.2h0.2
			c0.1,0,0.1,0,0.2,0s0.1,0,0.1,0c0.1,0,0.1,0,0.2,0c0,0,0-0.1,0-0.1v-0.5c0-0.1,0-0.1-0.1-0.1h-3.4c-0.1,0-0.1,0-0.1,0.1v1.2
			c0,0.2-0.1,0.3-0.2,0.4s-0.3,0.2-0.4,0.2s-0.3-0.1-0.4-0.2s-0.2-0.3-0.2-0.4v-1.2c0-0.1,0-0.1-0.1-0.1h-0.3
			c-0.2,0-0.3-0.1-0.4-0.2c-0.1-0.1-0.2-0.2-0.2-0.4s0.1-0.3,0.2-0.4c0.1-0.1,0.2-0.2,0.4-0.2h0.3c0.1,0,0.1,0,0.1-0.1v-2.2
			c0-0.2,0.1-0.4,0.2-0.5c0.1-0.1,0.3-0.2,0.5-0.2h1.6c0.1,0,0.1,0,0.1-0.1v-0.2c0-0.1,0-0.1-0.1-0.1h-2.3c-0.1,0-0.3-0.1-0.4-0.2
			c-0.1-0.1-0.2-0.2-0.2-0.4c0-0.1,0.1-0.3,0.2-0.4s0.2-0.2,0.4-0.2h6c0.2,0,0.3,0.1,0.4,0.2s0.2,0.2,0.2,0.4c0,0.1-0.1,0.3-0.2,0.4
			c-0.1,0.1-0.2,0.2-0.4,0.2h-2.3c-0.1,0-0.1,0-0.1,0.1v0.2c0,0.1,0,0.1,0.1,0.1h1.6c0.2,0,0.4,0.1,0.5,0.2c0.1,0.1,0.2,0.3,0.2,0.5
			v2.2c0,0.1,0,0.1,0.1,0.1H88.9z M84.9,21.7C84.9,21.6,84.9,21.6,84.9,21.7l-1.1-0.1c-0.1,0-0.1,0-0.1,0.1V22c0,0.1,0,0.1,0.1,0.1
			h1c0.1,0,0.1,0,0.1-0.1V21.7z M83.8,23.1C83.8,23.1,83.7,23.1,83.8,23.1l-0.1,0.4c0,0.1,0,0.1,0.1,0.1h1c0.1,0,0.1,0,0.1-0.1v-0.3
			c0-0.1,0-0.1-0.1-0.1H83.8z M87.3,21.7C87.3,21.6,87.3,21.6,87.3,21.7l-1.1-0.1c-0.1,0-0.1,0-0.1,0.1V22c0,0.1,0,0.1,0.1,0.1h1.1
			c0.1,0,0.1,0,0.1-0.1V21.7z M86.1,23.4C86.1,23.5,86.1,23.5,86.1,23.4l1.1,0.1c0.1,0,0.1,0,0.1-0.1v-0.3c0-0.1,0-0.1-0.1-0.1h-1.1
			c-0.1,0-0.1,0-0.1,0.1V23.4z"/>
		<path fill="#39484E" d="M94.7,24.8C94.7,24.8,94.8,24.9,94.7,24.8l2.5,0.1c0.2,0,0.3,0.1,0.4,0.2s0.2,0.3,0.2,0.4
			c0,0.2-0.1,0.3-0.2,0.4S97.4,26,97.3,26H91c-0.2,0-0.3-0.1-0.4-0.2c-0.1-0.1-0.2-0.3-0.2-0.4c0-0.2,0.1-0.3,0.2-0.4
			c0.1-0.1,0.3-0.2,0.4-0.2h2.4c0.1,0,0.1,0,0.1-0.1v-1.2c0-0.1,0-0.1-0.1-0.1h-1.5c-0.2,0-0.3-0.1-0.4-0.2
			c-0.1-0.1-0.2-0.2-0.2-0.4s0.1-0.3,0.2-0.4c0.1-0.1,0.2-0.2,0.4-0.2h1.5c0.1,0,0.1,0,0.1-0.1v-1.1c0-0.1,0-0.1-0.1-0.1H92
			c-0.1,0-0.1,0-0.1,0.1c-0.1,0.2-0.2,0.4-0.3,0.5c-0.1,0.1-0.2,0.2-0.4,0.3c0,0-0.1,0-0.1,0c-0.1,0-0.3,0-0.4-0.1
			c-0.1-0.1-0.2-0.2-0.3-0.4c0,0,0-0.1,0-0.1c0-0.1,0-0.2,0.1-0.3c0.2-0.2,0.3-0.5,0.4-0.8c0.2-0.3,0.3-0.7,0.4-1
			c0.1-0.2,0.2-0.3,0.3-0.4c0.1-0.1,0.2-0.1,0.3-0.1c0,0,0.1,0,0.2,0c0.2,0,0.3,0.1,0.4,0.3c0.1,0.1,0.1,0.2,0.1,0.3
			c0,0.1,0,0.1,0,0.2c0,0.1-0.1,0.3-0.1,0.4c0,0,0,0,0,0c0,0,0,0,0,0h0.9c0.1,0,0.1,0,0.1-0.1v-0.7c0-0.2,0.1-0.3,0.2-0.4
			c0.1-0.1,0.3-0.2,0.4-0.2s0.3,0.1,0.4,0.2c0.1,0.1,0.2,0.3,0.2,0.4v0.7c0,0.1,0,0.1,0.1,0.1h2c0.2,0,0.3,0.1,0.4,0.2
			c0.1,0.1,0.2,0.2,0.2,0.4s-0.1,0.3-0.2,0.4c-0.1,0.1-0.3,0.2-0.4,0.2h-2c-0.1,0-0.1,0-0.1,0.1v1.1c0,0.1,0,0.1,0.1,0.1h1.7
			c0.2,0,0.3,0.1,0.4,0.2c0.1,0.1,0.2,0.2,0.2,0.4s-0.1,0.3-0.2,0.4c-0.1,0.1-0.2,0.2-0.4,0.2h-1.7c-0.1,0-0.1,0-0.1,0.1V24.8z"/>
		<path fill="#39484E" d="M85.9,30.6C85.9,30.5,85.9,30.5,85.9,30.6C85.9,30.5,85.8,30.5,85.9,30.6l-0.7,0.2c0,0-0.1,0-0.1,0
			c-0.1,0-0.1,0-0.2,0c-0.1,0-0.2-0.1-0.2-0.2c0,0,0,0-0.1,0c-0.7,0-1.5,0.1-2.4,0.2c0,0,0,0,0,0c-0.1,0-0.3,0-0.4-0.1
			c-0.1-0.1-0.2-0.2-0.2-0.4c0,0,0,0,0,0c0-0.1,0-0.2,0.1-0.4c0.1-0.1,0.2-0.2,0.4-0.2h0c0,0,0.1,0,0.1-0.1c0.1-0.3,0.2-0.6,0.3-0.9
			c0.1-0.2,0.2-0.3,0.3-0.4c0.1-0.1,0.2-0.1,0.4-0.1c0,0,0.1,0,0.1,0c0.2,0,0.3,0.1,0.4,0.3c0,0.1,0.1,0.2,0.1,0.2
			c0,0.1,0,0.1,0,0.2c-0.1,0.2-0.2,0.5-0.3,0.7c0,0,0,0,0,0c0,0,0,0,0,0l0.6,0c0,0,0,0,0,0c0,0,0,0,0,0c0,0,0,0,0,0
			c0-0.1,0-0.1,0-0.2c0-0.1,0-0.1,0-0.2c0-0.1,0.1-0.2,0.3-0.3c0.1,0,0.2,0,0.2,0c0.1,0,0.1,0,0.2,0c0.1,0.1,0.3,0.1,0.3,0.3
			c0.3,0.5,0.5,1,0.6,1.4c0,0,0,0,0,0c0,0,0,0,0,0v0v-1.7c0-0.2,0.1-0.3,0.2-0.4c0.1-0.1,0.3-0.2,0.4-0.2s0.3,0.1,0.4,0.2
			c0.1,0.1,0.2,0.3,0.2,0.4V29c0,0,0,0,0,0c0,0,0,0,0,0c0.2-0.1,0.5-0.2,0.7-0.3c0.1-0.1,0.2-0.1,0.3-0.1c0,0,0.1,0,0.1,0
			c0.2,0,0.3,0.1,0.4,0.2c0.1,0.1,0.1,0.2,0.1,0.3c0,0,0,0.1,0,0.1c0,0.1-0.1,0.2-0.2,0.3c-0.4,0.2-0.9,0.3-1.4,0.5
			c0,0-0.1,0.1-0.1,0.1v0.2c0,0.1,0,0.2,0.1,0.3c0,0,0.1,0.1,0.3,0.1h0.7c0.1,0,0.1,0,0.2,0s0.1-0.1,0.1-0.2c0-0.1,0.1-0.2,0.2-0.3
			c0.1,0,0.1-0.1,0.2-0.1c0.1,0,0.1,0,0.2,0c0.2,0.1,0.3,0.2,0.4,0.3c0.1,0.1,0.1,0.2,0.1,0.3c0,0,0,0.1,0,0.1
			c-0.1,0.3-0.2,0.5-0.4,0.7c-0.2,0.1-0.4,0.2-0.8,0.2h-1c-0.5,0-0.8-0.1-1-0.3C86,31.3,85.9,31,85.9,30.6z M84.6,31
			c0.2,0,0.4,0.1,0.5,0.2c0.1,0.1,0.2,0.3,0.2,0.5v2.9c0,0.2,0,0.4-0.1,0.6c-0.1,0.1-0.2,0.3-0.3,0.3c-0.2,0.1-0.4,0.1-0.6,0.2
			c0,0,0,0-0.1,0c-0.1,0-0.3,0-0.4-0.1c-0.1-0.1-0.2-0.2-0.3-0.4c0-0.1,0-0.2,0-0.2c0-0.1,0.1-0.1,0.1-0.2c0.1-0.1,0.1-0.1,0.2-0.1
			c0,0,0.1,0,0.1,0c0,0,0.1,0,0.1,0c0,0,0,0,0-0.1v-0.2c0-0.1,0-0.1-0.1-0.1h-0.8c-0.1,0-0.1,0-0.1,0.1v0.9c0,0.1-0.1,0.3-0.2,0.4
			c-0.1,0.1-0.2,0.2-0.4,0.2s-0.3-0.1-0.4-0.2c-0.1-0.1-0.2-0.2-0.2-0.4v-3.5c0-0.2,0.1-0.4,0.2-0.5c0.1-0.1,0.3-0.2,0.5-0.2H84.6z
			 M84.2,32C84.2,32,84.1,31.9,84.2,32l-0.9-0.1c-0.1,0-0.1,0-0.1,0.1v0.1c0,0.1,0,0.1,0.1,0.1h0.8c0.1,0,0.1,0,0.1-0.1V32z
			 M83.2,33.3C83.2,33.4,83.2,33.4,83.2,33.3l0.9,0.1c0.1,0,0.1,0,0.1-0.1v-0.2c0-0.1,0-0.1-0.1-0.1h-0.8c-0.1,0-0.1,0-0.1,0.1V33.3
			z M87.4,34.7h0.7c0.1,0,0.1,0,0.2-0.1c0-0.1,0.1-0.1,0.1-0.3c0-0.1,0.1-0.2,0.2-0.3c0.1,0,0.1-0.1,0.2-0.1c0,0,0.1,0,0.2,0
			c0.2,0.1,0.3,0.2,0.4,0.3c0.1,0.1,0.1,0.2,0.1,0.3c0,0,0,0.1,0,0.1c-0.1,0.4-0.2,0.6-0.4,0.8s-0.4,0.2-0.8,0.2h-1
			c-0.5,0-0.9-0.1-1-0.3s-0.3-0.6-0.3-1.1v-1.9c0-0.2,0.1-0.3,0.2-0.4c0.1-0.1,0.3-0.2,0.4-0.2s0.3,0.1,0.4,0.2
			c0.1,0.1,0.2,0.3,0.2,0.4v0.3c0,0,0,0,0,0s0,0,0,0c0.2-0.1,0.5-0.2,0.7-0.4c0.1-0.1,0.2-0.1,0.4-0.1c0,0,0.1,0,0.1,0
			c0.2,0,0.3,0.1,0.4,0.2c0.1,0.1,0.1,0.2,0.1,0.3c0,0,0,0.1,0,0.1c0,0.1-0.1,0.2-0.2,0.3c-0.4,0.2-0.9,0.4-1.5,0.6
			c0,0-0.1,0.1-0.1,0.1v0.4c0,0.2,0,0.3,0.1,0.3C87.2,34.7,87.3,34.7,87.4,34.7z"/>
		<path fill="#39484E" d="M91.7,30.6c0.1,0.1,0.2,0.2,0.2,0.4c0,0,0,0.1,0,0.1c0,0.1,0,0.2-0.1,0.3c-0.1,0.1-0.2,0.2-0.4,0.2
			c0,0-0.1,0-0.1,0c-0.1,0-0.2,0-0.4-0.1c-0.1-0.1-0.2-0.1-0.4-0.2c-0.1-0.1-0.2-0.2-0.2-0.3c0,0,0-0.1,0-0.1c0-0.1,0-0.2,0.1-0.3
			c0.1-0.1,0.2-0.2,0.4-0.3c0.1,0,0.1,0,0.2,0c0.1,0,0.2,0,0.3,0.1C91.5,30.5,91.6,30.6,91.7,30.6z M91.2,32.9
			c0.1-0.1,0.1-0.2,0.3-0.3c0.1,0,0.1,0,0.2,0c0.1,0,0.2,0,0.2,0.1c0.1,0.1,0.2,0.2,0.3,0.4c0,0.1,0,0.2,0,0.2c0,0.1,0,0.2,0,0.2
			c-0.2,0.5-0.4,1-0.6,1.5c-0.1,0.2-0.2,0.3-0.3,0.3c-0.1,0-0.1,0-0.2,0c-0.1,0-0.2,0-0.3-0.1c-0.2-0.1-0.3-0.2-0.3-0.4
			c0-0.1,0-0.1,0-0.2c0-0.1,0-0.2,0.1-0.3C90.8,34,91,33.5,91.2,32.9z M92.1,28.5c0.1,0.1,0.2,0.2,0.2,0.4c0,0,0,0.1,0,0.1
			c0,0.1,0,0.2-0.1,0.3c-0.1,0.1-0.2,0.2-0.4,0.2c0,0-0.1,0-0.1,0c-0.1,0-0.2,0-0.4-0.1c-0.1-0.1-0.2-0.2-0.4-0.2
			c-0.1-0.1-0.2-0.2-0.2-0.3c0,0,0-0.1,0-0.1c0-0.1,0-0.2,0.1-0.3c0.1-0.1,0.2-0.2,0.4-0.3c0.1,0,0.1,0,0.2,0c0.1,0,0.2,0,0.3,0.1
			C91.9,28.3,92,28.4,92.1,28.5z M97.7,32.4c0,0.2-0.1,0.4-0.2,0.5c-0.1,0.1-0.3,0.2-0.5,0.2h-0.6c-0.1,0-0.1,0-0.1,0.1v1.5
			c0,0.3,0,0.5-0.1,0.6s-0.2,0.2-0.3,0.3c-0.1,0.1-0.3,0.1-0.5,0.1c0,0-0.1,0-0.1,0c-0.2,0-0.3-0.1-0.4-0.2
			c-0.2-0.1-0.3-0.3-0.3-0.5c0,0,0-0.1,0-0.1c0,0,0,0,0,0c0,0,0,0,0,0c-0.1,0.1-0.2,0.2-0.3,0.2c0,0-0.1,0-0.1,0
			c-0.1,0-0.2,0-0.3-0.1h0c-0.1-0.1-0.2-0.2-0.2-0.3c0,0,0-0.1,0-0.1c0-0.1,0-0.2,0.1-0.3c0.1-0.2,0.2-0.3,0.3-0.5
			c0.1-0.1,0.2-0.3,0.3-0.3c0.1,0,0.2-0.1,0.3-0.1c0,0,0.1,0,0.1,0c0.1,0,0.3,0.1,0.3,0.2c0,0.1,0.1,0.1,0.1,0.2c0,0.1,0,0.1,0,0.2
			c-0.1,0.2-0.2,0.4-0.3,0.6c0,0,0,0,0,0c0,0,0,0,0,0h0.4c0,0,0.1,0,0.1,0c0,0,0,0,0-0.1v-1.5c0-0.1,0-0.1-0.1-0.1h-0.4
			c-0.2,0-0.4-0.1-0.5-0.2S94,32.6,94,32.4v-1.6c0-0.2,0.1-0.4,0.2-0.5c0.1-0.1,0.3-0.2,0.5-0.2h0.4c0.1,0,0.1,0,0.1-0.1
			c0-0.1,0-0.3,0-0.4c0,0,0,0,0-0.1c0,0,0,0-0.1,0h-1.2c-0.1,0-0.1,0-0.1,0.1v1.1c0,2-0.3,3.5-0.8,4.6c-0.1,0.1-0.2,0.2-0.4,0.2
			c0,0-0.1,0-0.1,0c-0.1,0-0.2,0-0.3-0.1c-0.1-0.1-0.2-0.2-0.3-0.4c0-0.1,0-0.1,0-0.2c0-0.1,0-0.2,0.1-0.3c0.1-0.3,0.3-0.6,0.4-0.9
			c0.1-0.3,0.2-0.7,0.2-1.1c0-0.4,0.1-0.7,0.1-1c0-0.3,0-0.6,0-0.9v-1.6c0-0.2,0.1-0.4,0.2-0.5s0.3-0.2,0.5-0.2h4
			c0.1,0,0.3,0.1,0.4,0.2s0.2,0.2,0.2,0.4c0,0.1-0.1,0.3-0.2,0.4s-0.2,0.2-0.4,0.2h-0.8c-0.1,0-0.1,0-0.1,0.1L96.4,30c0,0,0,0,0,0.1
			c0,0,0,0,0,0H97c0.2,0,0.4,0.1,0.5,0.2c0.1,0.1,0.2,0.3,0.2,0.5V32.4z M95.1,30.9C95.1,30.9,95.1,30.9,95.1,30.9l-0.1,0.2
			c0,0.1,0,0.1,0.1,0.1h1.4c0.1,0,0.1,0,0.1-0.1V31c0-0.1,0-0.1-0.1-0.1H95.1z M95.1,32C95.1,32,95.1,32,95.1,32l-0.1,0.2
			c0,0.1,0,0.1,0.1,0.1h1.4c0.1,0,0.1,0,0.1-0.1v-0.1c0-0.1,0-0.1-0.1-0.1H95.1z M96.6,34.1c0-0.1,0-0.1,0-0.2c0-0.1,0-0.1,0-0.2
			c0.1-0.1,0.1-0.2,0.3-0.3c0.1,0,0.2,0,0.2,0c0.1,0,0.1,0,0.2,0c0.1,0.1,0.3,0.1,0.3,0.3c0.1,0.2,0.2,0.4,0.3,0.6
			c0,0.1,0,0.1,0,0.2c0,0.1,0,0.2,0,0.2c-0.1,0.2-0.2,0.3-0.3,0.3c-0.1,0-0.1,0-0.2,0c-0.1,0-0.2,0-0.2-0.1
			c-0.1-0.1-0.2-0.2-0.3-0.3C96.8,34.5,96.7,34.3,96.6,34.1z"/>
	</g>
	<g>
		<line fill="#8E4846" x1="60.1" y1="27.7" x2="77.5" y2="27.7"/>
		<g>
			<g>
				<path fill-rule="evenodd" clip-rule="evenodd" fill="#38474D" d="M62,26.3c0,0,0.1,0.1,0.1,0.1c0,0.1,0,0.2,0,0.2
					c0.1,0,0.1,0.1,0.2,0.1c0.1,0,0-0.1,0.1-0.1c0.1,0,0,0.1,0.1,0.1s0.1-0.2,0.2-0.2c0.1,0,0,0.1,0.1,0.1c0.1,0,0-0.1,0.1-0.1
					c0.1,0,0.1,0.2,0.2,0.4c0.1-0.1,0.3-0.2,0.3-0.2c0.1,0,0.1,0.1,0.2,0.2c0,0,0,0,0,0s0-0.1,0.1-0.1c0.1,0,0,0.1,0.1,0.1
					c0,0,0.1-0.1,0.1-0.3c0.1,0.1,0.2,0.3,0.2,0.3c0.1,0,0.2-0.2,0.3-0.2c0.1,0,0,0.1,0.1,0.1c0.1,0,0.1-0.1,0.1-0.1
					c0.1,0,0,0.2,0.1,0.2c0.1,0,0-0.1,0.1-0.1c0.1,0,0.1,0.1,0.1,0.1c0.1,0,0.3-0.2,0.4-0.2c0.1,0,0.2,0.1,0.2,0.1
					c0.1,0,0.1-0.1,0.2-0.1c0,0,0,0.1,0,0.2l0.4,0c0-0.1,0-0.2,0-0.2c0,0,0,0.1,0.1,0.1c0.1,0,0.1-0.1,0.1-0.1
					c0.1,0,0.2,0.2,0.2,0.2c0.1,0,0.1-0.1,0.1-0.1c0.1,0,0,0.1,0.1,0.1c0.1,0,0.1-0.1,0.1-0.2c0,0.1,0,0.2,0.1,0.2
					c0.1,0,0-0.1,0-0.1c0.1,0,0,0.1,0,0.1c0.1,0,0-0.1,0-0.1c0.1,0,0,0.1,0.1,0.1c0.1,0,0.1-0.1,0.1-0.1c0.1,0,0.1,0,0.1,0.1
					c0,0,0-0.1,0-0.2c0,0,0,0.1,0.1,0.1c0.1,0,0.1-0.1,0.1-0.1c0.1,0,0.1,0.1,0.2,0.1c0.1,0,0.1-0.1,0.2-0.1c0.1,0,0.1,0.1,0.1,0.1
					c0.1,0,0.2,0,0.4,0c0,0.1,0,0.1,0,0.1c0.1,0,0.2-0.2,0.3-0.3l0.1,0c0,0.1,0,0.1-0.1,0.2l0.2,0c0.1,0,0-0.1,0.1-0.1
					c0.1,0,0.1,0.1,0.1,0.1c0.1,0,0-0.1,0.1-0.1c0.1,0,0,0.1,0.1,0.1c0.1,0,0.1-0.1,0.1-0.1c0.1,0,0.2,0.1,0.3,0.1
					c0,0,0.1,0,0.2-0.1c0,0.1,0.1,0.1,0.1,0.2c0.1,0,0.1,0.1,0.1-0.1c0-0.1,0-0.1,0-0.2c0.1,0.1,0.1,0.2,0.2,0.2
					c0,0,0.1-0.1,0.1-0.3l0.1,0c0,0.1,0,0.2,0.1,0.3c0,0,0-0.1,0-0.2c0.1,0.1,0.1,0.2,0.2,0.2c0.1,0,0.2-0.2,0.2-0.2
					c0.1,0,0,0.1,0.1,0.1c0.1,0,0,0,0.1-0.1c0,0.1,0,0.2,0.1,0.2c0.1,0,0-0.1,0-0.1c0.1,0,0.1,0.1,0.1,0.1c0.1,0,0.1,0,0.1-0.3
					l0.1,0c0,0.1,0,0.3,0.1,0.3c0.1,0,0-0.1,0-0.1c0.1,0,0,0.1,0,0.1c0.1,0,0.1-0.1,0.1-0.2c0-0.1,0.1,0,0.1,0
					c0.1,0,0.3,0.2,0.4,0.2c0.2,0,0.1-0.2,0.2-0.2c0.1,0,0,0.2,0.2,0.2c0.1,0,0.1-0.1,0.2-0.1c0.1,0,0.2,0.1,0.2,0.2
					c0,0,0-0.1,0-0.2l0.1,0c0.1,0,0,0.1,0.1,0.1c0,0.1,0,0.2,0,0.2l0.1,0c0.1,0,0-0.1,0.1-0.2c0,0,0.1,0,0.2,0c0,0,0-0.1,0-0.1
					S74,26.9,74,27c0,0,0-0.1,0-0.2c0,0.1,0.1,0.1,0.2,0.1c0.1,0,0.1-0.1,0.2-0.1c0,0,0,0.1,0,0.2l0.1,0c0-0.1,0-0.2,0-0.2l0.1,0
					c0.1,0,0,0.1,0.1,0.1c0.1,0,0.1,0,0.1-0.1c0.2,0.2,0.1,0.2,0.2,0.2c0.1,0,0.2-0.2,0.3-0.2c0.1,0,0.1,0.2,0.2,0.2
					c0.1,0,0-0.1,0.1-0.1c0.1,0,0,0.1,0,0.1s0.2-0.1,0.3-0.2c0,0,0,0,0.1,0c0.1,0,0.1,0.1,0.2,0.2l0.2,0c0-0.1,0-0.1,0.1-0.2
					c0.2,0.2,0.3,0.4,0.7,0.4c0,0.1-0.1,0.1-0.1,0.2c0,0.3,0.5,0.4,0.5,0.6c0,0.1,0,0.1,0,0.1c-0.1,0-0.6,0.1-0.6,0.4
					c0,0.1,0.1,0.1,0.1,0.2c-0.3,0-0.4,0.2-0.6,0.2c-0.1,0-0.3-0.1-0.3-0.1C76,28.9,76,29,75.9,29c-0.1,0,0-0.1,0-0.1
					c-0.1,0-0.2-0.1-0.3-0.1c-0.1,0-0.1-0.1-0.1,0c0,0.1-0.1,0.2-0.1,0.2c-0.1,0,0-0.1,0-0.1c0,0-0.1,0-0.2,0c-0.1,0-0.2,0-0.3,0.1
					c0-0.1,0-0.1,0-0.2c0,0,0-0.1-0.1-0.2c0,0,0,0.1-0.1,0.1c-0.1,0,0-0.1-0.1-0.1c0,0.1-0.1,0-0.1,0.2c0,0.1,0,0.1,0,0.2l-0.1,0
					c0-0.1-0.1-0.2-0.1-0.2c-0.1,0,0,0.1,0,0.1c-0.1,0,0-0.1,0-0.1c-0.1,0,0,0.1-0.1,0.1c-0.1,0-0.1-0.1-0.1-0.1s-0.2,0.1-0.2,0.1
					c0,0.1-0.1,0.2-0.1,0.2c0-0.1,0-0.1,0-0.2c-0.1,0-0.3-0.1-0.3-0.1c-0.1,0-0.1,0-0.2,0.1l0,0c-0.1,0,0-0.1,0-0.1c0,0,0,0.1,0,0.2
					c0,0,0-0.1-0.1-0.1c-0.1,0,0,0,0,0.1c0,0,0-0.1,0-0.2c-0.1,0-0.3,0-0.4,0c0,0,0-0.1,0-0.1c-0.1,0-0.2,0.2-0.3,0.2
					c-0.1,0-0.1-0.2-0.1-0.2c-0.1,0,0,0.1,0,0.1c-0.1,0-0.1-0.1-0.1-0.2c0,0,0,0.1,0,0.2l-0.1,0c0-0.1,0-0.1-0.1-0.2
					c0,0-0.1,0.1-0.1,0.3l-0.1,0c0-0.1,0-0.1,0-0.2c0,0,0,0,0,0c-0.1,0-0.1,0.2-0.2,0.2c-0.1,0,0-0.1-0.1-0.1c-0.1,0,0,0.1-0.1,0.1
					c-0.1,0,0-0.1-0.1-0.1c-0.1,0,0,0-0.1,0.1c0-0.1-0.1-0.2-0.1-0.2c0-0.1-0.1,0-0.2,0c-0.1,0-0.1,0-0.2,0c0,0,0,0.1-0.1,0.2
					c0,0,0,0,0,0c-0.1,0-0.1-0.1-0.1-0.2c0,0,0,0-0.1,0c-0.2,0-0.1,0.2-0.2,0.2c-0.1,0-0.1-0.2-0.2-0.4l-0.1,0c0,0.1,0,0,0,0.1
					c0,0.1,0,0.1,0,0.2l-0.2,0c-0.1,0-0.1-0.1-0.1-0.1c-0.1,0-0.1,0-0.1,0.1c0-0.1,0-0.1,0-0.2c0,0,0,0,0,0c-0.1,0,0,0.1-0.1,0.1
					c-0.1,0,0-0.1-0.1-0.1c-0.1,0-0.1,0.1-0.2,0.1c-0.1,0-0.1-0.1-0.1-0.1c-0.1,0,0,0.1,0,0.1c-0.1,0,0-0.1-0.1-0.1
					c-0.1,0,0,0.1-0.1,0.1c-0.1,0-0.1-0.1-0.1-0.2c0,0.1-0.1,0-0.1,0.2c0,0.1,0,0.1,0,0.2c-0.1,0-0.1-0.1-0.1-0.1
					c-0.1,0,0,0-0.1,0.1c-0.1-0.1-0.1-0.2-0.2-0.2c-0.1,0-0.1,0.1-0.1,0.1c0,0,0-0.1-0.1-0.2l0,0.3l-0.2,0c0-0.1,0-0.1-0.1-0.2
					c-0.1,0.1-0.2,0.2-0.2,0.2c-0.1,0-0.1-0.1-0.1-0.2c0,0,0,0.1,0,0.2c-0.1-0.1-0.3-0.2-0.4-0.2c-0.1,0-0.1,0-0.1,0.2l-0.1,0
					c-0.1,0-0.1-0.2-0.2-0.2s0,0.1-0.1,0.1c-0.1,0-0.1-0.1-0.2-0.1c-0.1,0-0.1,0.1-0.1,0.1c-0.1,0,0-0.1,0-0.1c-0.1,0,0,0.1-0.1,0.1
					c-0.1,0-0.1-0.1-0.1-0.1c-0.1,0,0,0.1-0.1,0.1c-0.1,0,0-0.1,0-0.1c-0.1,0,0,0.1-0.1,0.1s-0.1-0.1-0.1-0.2c0,0,0,0.1,0,0.2
					c0,0,0-0.1-0.1-0.1c-0.1,0,0,0.1,0,0.1s0-0.1,0-0.1c-0.1,0,0,0,0,0.1c0,0-0.2-0.1-0.2,0.1c0,0,0-0.1,0-0.2
					c0-0.1-0.1-0.2-0.1-0.2c0,0-0.1,0.2-0.1,0.3l-0.1,0c0-0.1,0-0.2-0.1-0.2c-0.1,0,0,0.1-0.1,0.1c-0.1,0-0.1-0.1-0.1-0.1
					c-0.1,0-0.1,0-0.1,0c0,0,0,0.1,0,0.2c0,0-0.1,0-0.2,0.1c0-0.1,0-0.1,0-0.2c0,0,0-0.1-0.1-0.2c0,0.1-0.1,0.1-0.2,0.1
					c-0.1,0-0.1-0.1-0.1-0.1c-0.1,0,0,0.1,0,0.1s0-0.1,0-0.1c0,0-0.1,0-0.1,0c-0.1,0-0.1,0-0.2,0.1v0c-0.1,0,0-0.1-0.1-0.1
					c-0.1,0,0,0.1-0.1,0.1c-0.1,0,0-0.1-0.1-0.1c-0.1,0,0,0.1-0.1,0.1c-0.1,0,0-0.1-0.1-0.1c-0.1,0-0.1,0.1-0.1,0.2
					c-0.1-0.1-0.1-0.2-0.2-0.2c-0.1,0,0,0.1-0.1,0.1c-0.1,0,0-0.1-0.1-0.1c-0.1,0,0,0-0.1,0.1c0,0,0-0.1,0-0.2l-0.4,0
					c-0.1,0,0,0.1,0,0.1c-0.1,0,0-0.1-0.1-0.1c-0.1,0,0,0.1-0.1,0.1c-0.1,0,0-0.1-0.1-0.1c-0.1,0-0.1,0-0.1,0.1
					c-0.1-0.1-0.2-0.2-0.3-0.3c-0.1,0-0.4-0.1-0.5-0.2c0,0-0.1,0.1-0.1,0.2l-0.2,0c-0.1,0-0.1-0.1-0.2-0.1c0-0.1-0.1-0.1-0.1-0.3
					c0-0.1,0.1-0.1,0.1-0.2c0-0.1-0.1-0.2-0.2-0.3c0.1-0.2,0.2-0.4,0.4-0.6c0.1,0,0.1,0.1,0.2,0.1l0-0.4l0.2,0c0.1,0,0,0.1,0.1,0.1
					c0,0,0.1-0.1,0.1-0.2c0.1,0,0.1,0.1,0.1,0.1c0.1,0,0.2,0,0.3,0c0.1,0,0.1,0,0.2,0c0,0,0.1,0,0.1,0c0.1,0,0.2,0.1,0.2,0.1
					c0.1,0,0.1,0,0.2,0C62.1,26.5,62,26.4,62,26.3z"/>
			</g>
		</g>
	</g>
	<g>
		<line fill="#818181" x1="20.6" y1="14.7" x2="38.4" y2="14.7"/>
		<g>
			<g>
				<path fill-rule="evenodd" clip-rule="evenodd" fill="#38474D" d="M22.6,13.3c0,0,0.1,0.1,0.1,0.1c0,0.1,0,0.2,0,0.2
					c0.1,0,0.1,0.1,0.2,0.1s0-0.1,0.1-0.1s0,0.1,0.1,0.1c0.1,0,0.1-0.2,0.2-0.2c0.1,0,0,0.1,0.1,0.1c0.1,0,0-0.1,0.1-0.1
					s0.1,0.2,0.2,0.4c0.1-0.1,0.3-0.2,0.4-0.2c0.1,0,0.1,0.1,0.2,0.2c0,0,0,0,0,0s0-0.1,0.1-0.1c0.1,0,0,0.1,0.1,0.1
					c0,0,0.1-0.1,0.1-0.3c0.1,0.1,0.2,0.3,0.2,0.3s0.2-0.2,0.3-0.2c0.1,0,0,0.1,0.1,0.1c0.1,0,0.1-0.1,0.1-0.1c0.1,0,0,0.2,0.1,0.2
					c0.1,0,0-0.1,0.1-0.1c0.1,0,0.1,0.1,0.1,0.1s0.3-0.2,0.4-0.2s0.2,0.1,0.2,0.1s0.2-0.1,0.2-0.1c0,0,0,0.1,0,0.2h0.4
					c0-0.1-0.1-0.2,0-0.2c0,0,0,0.1,0.1,0.1c0.1,0,0.1-0.1,0.1-0.1s0.2,0.2,0.2,0.2c0.1,0,0.1-0.1,0.1-0.1s0,0.1,0.1,0.1
					c0.1,0,0.1-0.1,0.1-0.2c0,0.1,0,0.2,0.1,0.2s0-0.1,0-0.1s0,0.1,0,0.1c0.1,0,0-0.1,0-0.1s0,0.1,0.1,0.1s0.1-0.1,0.1-0.1
					c0.1,0,0.1,0,0.1,0.1c0,0,0-0.1,0-0.2c0,0,0,0.1,0.1,0.1s0.1-0.1,0.1-0.1c0.1,0,0.1,0.1,0.2,0.1s0.1-0.1,0.2-0.1
					s0.1,0.1,0.1,0.1c0.2,0,0.2,0,0.4,0c0,0.1,0,0.1,0,0.1s0.2-0.2,0.3-0.3h0.1c0,0.1,0,0.1-0.1,0.2h0.2c0.1,0,0-0.1,0.1-0.1
					s0.1,0.1,0.1,0.1s0-0.1,0.1-0.1s0,0.1,0.1,0.1s0.1-0.1,0.1-0.1s0.2,0.1,0.3,0.1c0,0,0.1,0,0.2-0.1c0,0.1,0.1,0.1,0.1,0.2
					c0.1,0,0.1,0.1,0.1-0.1s0-0.1,0-0.2c0.1,0.1,0.1,0.2,0.2,0.2c0,0,0.1-0.1,0.2-0.3h0.1c0,0.1,0.1,0.2,0.1,0.3c0,0,0-0.1,0-0.2
					c0.1,0.1,0.1,0.2,0.2,0.2s0.2-0.2,0.2-0.2s0,0.1,0.1,0.1c0.1,0,0,0,0.1-0.1c0,0.1,0,0.2,0.1,0.2s0-0.1,0-0.1s0.1,0.1,0.1,0.1
					c0.1,0,0.1,0,0.2-0.3h0.1c0,0.1,0,0.3,0.1,0.3c0.1,0,0-0.1,0-0.1s0,0.1,0,0.1c0.1,0,0.1-0.1,0.1-0.2c0-0.1,0.1,0,0.1,0
					s0.3,0.2,0.4,0.2c0.2,0,0.1-0.2,0.2-0.2c0.1,0,0,0.2,0.2,0.2c0.1,0,0.1-0.1,0.2-0.1s0.2,0.1,0.2,0.2c0,0,0-0.1,0-0.2h0.1
					c0.1,0,0.1,0.1,0.1,0.1c0,0.1,0,0.2,0,0.2h0.1c0.1,0,0-0.1,0.1-0.2c0,0,0.1,0,0.2,0c0,0,0-0.1,0-0.1s0.2,0.1,0.2,0.2
					c0,0,0-0.1,0-0.2c0,0.1,0.1,0.1,0.2,0.1s0.1-0.1,0.2-0.1c0,0,0,0.1,0,0.2h0.1c0-0.1,0-0.2,0-0.2h0.1c0.1,0,0,0.1,0.1,0.1
					s0.1,0,0.1-0.1C36,13.9,35.8,14,36,14c0.1,0,0.2-0.2,0.3-0.2c0.1,0,0.1,0.2,0.2,0.2s0-0.1,0.1-0.1s0,0.1,0,0.1
					c0.1,0,0.2-0.1,0.3-0.2c0,0,0,0,0.1,0c0.1,0,0.1,0.1,0.2,0.2h0.2c0-0.1,0-0.1,0.1-0.2c0.2,0.2,0.3,0.4,0.7,0.4
					c0,0.1-0.1,0.1-0.1,0.2c0,0.3,0.5,0.4,0.5,0.6c0,0.1,0,0.1,0,0.1c-0.1,0-0.6,0.1-0.6,0.4c0,0.1,0.1,0.1,0.1,0.2
					c-0.3,0-0.4,0.2-0.6,0.2c-0.1,0-0.3-0.1-0.3-0.1c-0.1,0-0.1,0.1-0.1,0.1s0-0.1,0-0.1c-0.1,0-0.2-0.1-0.3-0.1s-0.1-0.1-0.2,0
					c0,0.1-0.1,0.2-0.1,0.2s0-0.1,0-0.1c0,0-0.1,0-0.2,0s-0.2,0-0.3,0.1c0-0.1,0-0.1,0-0.2c0,0,0-0.1-0.1-0.2c0,0,0,0.1-0.1,0.1
					s0-0.1-0.1-0.1c0,0.1-0.1,0-0.1,0.2c0,0.1,0,0.1,0,0.2h-0.1c0-0.1-0.1-0.2-0.1-0.2s0,0.1,0,0.1s0-0.1,0-0.1
					c-0.1,0,0,0.1-0.1,0.1s-0.1-0.1-0.1-0.1c-0.1,0-0.2,0.1-0.2,0.1c0,0.1-0.1,0.2-0.1,0.2c0-0.1,0-0.1,0-0.2
					c-0.1,0-0.3-0.1-0.3-0.1c-0.1,0-0.1,0-0.2,0.1v0c-0.1,0,0-0.1,0-0.1c0,0,0,0.1,0,0.2c0,0,0-0.1-0.1-0.1s0,0,0,0.1
					c0,0,0-0.1,0-0.2c-0.1,0-0.3,0-0.4,0c0,0,0-0.1,0-0.1s-0.2,0.2-0.3,0.2s-0.1-0.2-0.1-0.2s0,0.1,0,0.1s-0.1-0.1-0.1-0.2
					c0,0,0,0.1,0,0.2h-0.1c0-0.1-0.1-0.1-0.1-0.2c0,0-0.1,0.1-0.1,0.3h-0.1c0-0.1,0-0.1,0-0.2c0,0,0,0,0,0s-0.1,0.2-0.2,0.2
					s0-0.1-0.1-0.1s0,0.1-0.1,0.1s0-0.1-0.1-0.1s0,0-0.1,0.1c0-0.1-0.1-0.2-0.1-0.2c0-0.1-0.1,0-0.2,0s-0.1,0-0.2,0
					c0,0,0,0.1-0.1,0.2c0,0,0,0,0,0s-0.1-0.1-0.1-0.2c0,0,0,0-0.1,0c-0.2,0-0.1,0.2-0.2,0.2c-0.1,0-0.1-0.2-0.2-0.4h-0.1
					c0,0.1,0,0,0,0.1s0,0.1,0,0.2h-0.2c-0.1,0-0.1-0.1-0.1-0.1s-0.1,0-0.1,0.1c0-0.1,0-0.1,0-0.2c0,0,0,0,0,0s0,0.1-0.1,0.1
					s0-0.1-0.1-0.1c-0.1,0-0.1,0.1-0.2,0.1s-0.1-0.1-0.1-0.1s0,0.1,0,0.1s0-0.1-0.1-0.1s0,0.1-0.1,0.1s-0.1-0.1-0.1-0.2
					c0,0.1-0.1,0-0.1,0.2s0,0.1,0,0.2c-0.1,0-0.1-0.1-0.1-0.1s0,0-0.1,0.1c-0.1-0.1-0.1-0.2-0.2-0.2c-0.1,0-0.1,0.1-0.1,0.1
					c0,0,0-0.1-0.1-0.2v0.3h-0.2c0-0.1-0.1-0.1-0.1-0.2c-0.1,0.1-0.2,0.2-0.3,0.2s-0.1-0.1-0.1-0.2c0,0,0,0.1,0,0.2
					c-0.1-0.1-0.3-0.2-0.4-0.2c-0.1,0-0.1,0-0.1,0.2h-0.1c-0.1,0-0.1-0.2-0.2-0.2s0,0.1-0.1,0.1c-0.1,0-0.1-0.1-0.2-0.1
					s-0.1,0.1-0.1,0.1s0-0.1,0-0.1s0,0.1-0.1,0.1s-0.1-0.1-0.1-0.1s0,0.1-0.1,0.1c-0.1,0,0-0.1,0-0.1s0,0.1-0.1,0.1
					c-0.1,0-0.1-0.1-0.1-0.2c0,0,0,0.1,0,0.2c0,0,0-0.1-0.1-0.1s0,0.1,0,0.1s0-0.1,0-0.1c-0.1,0,0,0,0,0.1c0,0-0.2-0.1-0.2,0.1
					c0,0,0-0.1,0-0.2c0-0.1-0.1-0.2-0.1-0.2c0,0-0.1,0.2-0.1,0.3h-0.1c0-0.1,0-0.2-0.1-0.2s0,0.1-0.1,0.1s-0.1-0.1-0.1-0.1
					s-0.1,0-0.1,0c0,0,0,0.1,0,0.2c0,0-0.1,0-0.2,0.1c0-0.1,0-0.1,0-0.2c0,0,0-0.1-0.1-0.2c0,0.1-0.1,0.1-0.2,0.1s-0.1-0.1-0.1-0.1
					s0,0.1,0,0.1c-0.1,0,0-0.1,0-0.1c0,0-0.1,0-0.1,0s-0.1,0-0.2,0.1v0c-0.1,0,0-0.1-0.1-0.1s0,0.1-0.1,0.1s0-0.1-0.1-0.1
					s0,0.1-0.1,0.1s0-0.1-0.1-0.1c-0.1,0-0.1,0.1-0.1,0.2c-0.1-0.1-0.1-0.2-0.2-0.2s0,0.1-0.1,0.1s0-0.1-0.1-0.1s0,0-0.1,0.1
					c0,0,0-0.1,0-0.2h-0.4c-0.1,0,0,0.1,0,0.1s0-0.1-0.1-0.1s0,0.1-0.1,0.1s0-0.1-0.1-0.1c-0.1,0-0.1,0-0.1,0.1
					c-0.1-0.1-0.2-0.2-0.3-0.3c-0.1,0-0.4-0.1-0.5-0.2c0,0-0.1,0.1-0.1,0.2h-0.2c-0.1,0-0.1-0.1-0.2-0.1c0-0.1-0.1-0.1-0.1-0.3
					c0-0.1,0.1-0.1,0.1-0.2c0-0.1-0.1-0.2-0.2-0.3c0.1-0.2,0.2-0.4,0.4-0.6c0.1,0,0.1,0.1,0.2,0.1v-0.4h0.2c0.1,0,0,0.1,0.1,0.1
					c0,0,0.1-0.1,0.1-0.2c0.1,0,0.1,0.1,0.1,0.1c0.1,0,0.2,0,0.3,0c0.1,0,0.1,0,0.2,0c0,0,0.1,0,0.1,0c0.1,0,0.2,0.1,0.2,0.1
					c0.1,0,0.1,0,0.2,0C22.6,13.5,22.6,13.4,22.6,13.3z"/>
			</g>
		</g>
	</g>
	<g>
		<line fill="#8E4846" x1="38.7" y1="36.4" x2="19.7" y2="36.5"/>
		<g>
			<g>
				<path fill-rule="evenodd" clip-rule="evenodd" fill="#38474D" d="M36.7,37.8c0,0-0.1-0.1-0.1-0.1c0-0.1,0-0.2,0-0.2
					c-0.1,0-0.1-0.1-0.2-0.1c-0.1,0,0,0.1-0.1,0.1c-0.1,0,0-0.1-0.1-0.1c-0.1,0-0.1,0.2-0.2,0.2c-0.1,0,0-0.1-0.1-0.1s0,0.1-0.1,0.1
					s-0.1-0.2-0.2-0.3c-0.1,0.1-0.3,0.2-0.4,0.2c-0.1,0-0.1-0.1-0.2-0.2c0,0,0,0,0,0c-0.1,0,0,0.1-0.1,0.1c-0.1,0,0-0.1-0.1-0.1
					c0,0-0.1,0.1-0.1,0.3c-0.1-0.1-0.2-0.3-0.3-0.3c-0.1,0-0.2,0.2-0.3,0.2c-0.1,0,0-0.1-0.1-0.1s-0.1,0.1-0.1,0.1
					c-0.1,0,0-0.2-0.1-0.2c-0.1,0,0,0.1-0.1,0.1c-0.1,0-0.1-0.1-0.2-0.1c-0.1,0-0.3,0.2-0.4,0.2c-0.1,0-0.2-0.1-0.2-0.1
					c-0.1,0-0.2,0.1-0.2,0.1c0,0,0-0.1,0-0.2l-0.4,0c0,0.1,0.1,0.2,0.1,0.2c0,0,0-0.1-0.1-0.1c-0.1,0-0.1,0.1-0.1,0.1
					s-0.2-0.2-0.2-0.2s-0.1,0.1-0.1,0.1c-0.1,0,0-0.1-0.1-0.1c-0.1,0-0.1,0.1-0.1,0.2c0-0.1,0-0.2-0.1-0.2s0,0.1-0.1,0.1
					c-0.1,0,0-0.1-0.1-0.1c-0.1,0,0,0.1-0.1,0.1c-0.1,0,0-0.1-0.1-0.1c-0.1,0-0.1,0.1-0.2,0.1c-0.1,0-0.1,0-0.1-0.1c0,0,0,0.1,0,0.2
					c0,0,0-0.1-0.1-0.1c-0.1,0-0.1,0.1-0.1,0.1c-0.1,0-0.1-0.1-0.2-0.1s-0.1,0.1-0.2,0.1c-0.1,0-0.1-0.1-0.1-0.1c-0.2,0-0.2,0-0.4,0
					c0-0.1,0-0.1,0-0.1c-0.1,0-0.2,0.2-0.4,0.3l-0.1,0c0-0.1,0.1-0.1,0.1-0.2l-0.2,0c-0.1,0,0,0.1-0.1,0.1c-0.1,0-0.1-0.1-0.2-0.1
					c-0.1,0,0,0.1-0.1,0.1c-0.1,0,0-0.1-0.1-0.1c-0.1,0-0.1,0.1-0.2,0.1c-0.1,0-0.2-0.1-0.3-0.1c0,0-0.2,0-0.2,0.1
					c0-0.1-0.1-0.1-0.1-0.2c-0.1,0-0.1-0.1-0.1,0.1c0,0.1,0.1,0.1,0,0.2c-0.1-0.1-0.1-0.2-0.2-0.2c0,0-0.1,0.1-0.2,0.3l-0.1,0
					c0-0.1-0.1-0.2-0.1-0.3c0,0,0,0.1,0,0.2c-0.1-0.1-0.1-0.2-0.2-0.2s-0.2,0.2-0.2,0.2c-0.1,0,0-0.1-0.1-0.1c-0.1,0-0.1,0-0.1,0.1
					c0-0.1,0-0.2-0.1-0.2c-0.1,0,0,0.1-0.1,0.1c-0.1,0-0.1-0.1-0.1-0.1c-0.1,0-0.1,0-0.2,0.3l-0.1,0c0-0.1,0-0.3-0.1-0.3
					c-0.1,0,0,0.1-0.1,0.1c-0.1,0,0-0.1-0.1-0.1c-0.1,0-0.1,0.1-0.1,0.2c0,0.1-0.1,0-0.1,0c-0.1,0-0.3-0.2-0.4-0.2
					c-0.2,0-0.2,0.2-0.3,0.2c-0.1,0,0-0.2-0.3-0.2c-0.1,0-0.1,0.1-0.2,0.1c-0.1,0-0.2-0.1-0.3-0.2c0,0,0,0.1,0,0.2l-0.1,0
					c-0.1,0-0.1-0.1-0.1-0.1c0-0.1,0-0.2,0-0.2l-0.1,0c-0.1,0,0,0.1-0.1,0.2c-0.1,0-0.1,0-0.2,0c0,0,0,0.1,0,0.1
					c-0.1,0-0.2-0.1-0.3-0.2c0,0,0,0.1,0,0.2c0-0.1-0.1-0.1-0.2-0.1c-0.1,0-0.1,0.1-0.2,0.1c0,0,0-0.1,0-0.2l-0.1,0
					c0,0.1,0,0.2,0,0.2l-0.1,0c-0.1,0,0-0.1-0.1-0.1c-0.1,0-0.1,0-0.1,0.1c-0.2-0.1-0.1-0.2-0.3-0.2c-0.1,0-0.3,0.2-0.3,0.2
					c-0.1,0-0.1-0.2-0.2-0.2c-0.1,0,0,0.1-0.1,0.1c-0.1,0,0-0.1-0.1-0.1c-0.1,0-0.2,0.1-0.3,0.2c0,0,0,0-0.1,0
					c-0.1,0-0.1-0.1-0.2-0.2l-0.2,0c0,0.1,0,0.1-0.1,0.2c-0.2-0.2-0.3-0.4-0.7-0.4c0-0.1,0.1-0.1,0.1-0.2c0-0.3-0.5-0.4-0.5-0.6
					c0-0.1,0-0.1,0-0.1c0.1,0,0.5-0.1,0.5-0.4c0-0.1-0.1-0.1-0.1-0.2c0.3,0,0.4-0.2,0.6-0.2c0.1,0,0.3,0.1,0.3,0.1
					c0.1,0,0.1-0.1,0.2-0.1c0.1,0,0,0.1,0,0.1c0.1,0,0.3,0.1,0.3,0.1c0.1,0,0.1,0.1,0.2,0s0.1-0.2,0.2-0.2c0.1,0,0,0.1,0,0.1
					c0,0,0.1,0,0.2,0c0.1,0,0.2,0,0.3-0.1c0,0.1,0,0.1,0,0.2c0,0,0.1,0.1,0.1,0.2c0,0,0-0.1,0.1-0.1c0.1,0,0,0.1,0.1,0.1
					c0-0.1,0.1,0,0.1-0.2s-0.1-0.1-0.1-0.2l0.1,0c0,0.1,0.1,0.2,0.1,0.2c0.1,0,0-0.1,0.1-0.1s0,0.1,0.1,0.1s0-0.1,0.1-0.1
					s0.1,0.1,0.1,0.1c0.1,0,0.2-0.1,0.2-0.1c0-0.1,0.1-0.2,0.1-0.2c0,0.1,0,0.1,0,0.2c0.1,0,0.3,0.1,0.4,0.1c0.1,0,0.1,0,0.2-0.1
					l0,0c0.1,0,0,0.1,0.1,0.1c0,0,0-0.1,0-0.2c0,0,0,0.1,0.1,0.1c0.1,0,0,0,0-0.1c0,0,0,0.1,0,0.2c0.1,0,0.3,0,0.4,0
					c0,0,0,0.1,0,0.1c0.1,0,0.2-0.2,0.3-0.2c0.1,0,0.1,0.2,0.2,0.2c0.1,0,0-0.1,0.1-0.1s0.1,0.1,0.2,0.2c0,0,0-0.1,0-0.2l0.1,0
					c0,0.1,0.1,0.1,0.1,0.2c0,0,0.1-0.1,0.1-0.3l0.1,0c0,0.1,0,0.1,0,0.2c0,0,0,0,0.1,0c0.1,0,0.1-0.2,0.2-0.2c0.1,0,0,0.1,0.1,0.1
					c0.1,0,0-0.1,0.1-0.1c0.1,0,0,0.1,0.1,0.1c0.1,0,0.1,0,0.1-0.1c0,0.1,0.1,0.2,0.1,0.2s0.1,0,0.2,0c0.1,0,0.1,0,0.2,0
					c0,0,0-0.1,0.1-0.2c0,0,0,0,0,0c0.1,0,0.1,0.1,0.1,0.2c0,0,0,0,0.1,0c0.2,0,0.2-0.2,0.3-0.2c0.1,0,0.1,0.2,0.2,0.3l0.1,0
					c0-0.1,0,0,0-0.1s-0.1-0.1-0.1-0.2l0.2,0c0.1,0,0.1,0.1,0.1,0.1c0.1,0,0.1-0.1,0.1-0.1c0,0.1,0,0.1,0,0.2c0,0,0,0,0.1,0
					c0.1,0,0-0.1,0.1-0.1c0.1,0,0,0.1,0.1,0.1c0.1,0,0.1-0.1,0.2-0.1c0.1,0,0.1,0.1,0.2,0.1s0-0.1,0.1-0.1c0.1,0,0,0.1,0.1,0.1
					c0.1,0,0-0.1,0.1-0.1c0.1,0,0.1,0.1,0.2,0.2c0-0.1,0.1,0,0.1-0.2c0-0.1-0.1-0.1-0.1-0.2c0.1,0,0.1,0.1,0.2,0.1s0.1,0,0.1-0.1
					c0.1,0.1,0.1,0.2,0.2,0.2c0.1,0,0.1-0.1,0.1-0.1c0,0,0,0.1,0.1,0.2l0-0.3l0.2,0c0,0.1,0.1,0.1,0.1,0.2c0.1-0.1,0.2-0.2,0.3-0.2
					c0.1,0,0.1,0.1,0.2,0.2c0,0,0-0.1,0-0.2c0.1,0.1,0.3,0.2,0.4,0.2c0.1,0,0.1,0,0.1-0.2l0.1,0c0.1,0,0.2,0.2,0.2,0.2
					c0.1,0,0-0.1,0.1-0.1c0.1,0,0.1,0.1,0.2,0.1c0.1,0,0.1-0.1,0.2-0.1c0.1,0,0,0.1,0.1,0.1c0.1,0,0-0.1,0.1-0.1
					c0.1,0,0.1,0.1,0.2,0.1s0-0.1,0.1-0.1s0,0.1,0.1,0.1s0-0.1,0.1-0.1s0.1,0.1,0.2,0.2c0,0,0-0.1,0-0.2c0,0,0,0.1,0.1,0.1
					s0-0.1,0.1-0.1c0.1,0,0,0.1,0.1,0.1c0.1,0,0,0,0-0.1c0.1,0,0.2,0.1,0.3-0.1c0,0,0,0.1,0.1,0.2c0,0.1,0.1,0.2,0.2,0.2
					c0,0,0.1-0.2,0.1-0.3l0.1,0c0,0.1,0,0.2,0.1,0.2s0-0.1,0.1-0.1c0.1,0,0.1,0.1,0.2,0.1c0.1,0,0.1,0,0.1,0c0,0,0-0.1,0-0.2
					c0,0,0.1,0,0.2-0.1c0,0.1,0,0.1,0,0.2c0,0,0.1,0.1,0.1,0.2c0-0.1,0.1-0.1,0.2-0.1c0.1,0,0.1,0.1,0.2,0.1c0.1,0,0-0.1,0.1-0.1
					c0.1,0,0,0.1,0,0.1c0,0,0.1,0,0.1,0c0.1,0,0.1,0,0.2-0.1l0,0c0.1,0,0,0.1,0.1,0.1c0.1,0,0-0.1,0.1-0.1s0,0.1,0.1,0.1
					c0.1,0,0-0.1,0.1-0.1c0.1,0,0,0.1,0.1,0.1c0.1,0,0.1-0.1,0.1-0.2c0.1,0.1,0.2,0.2,0.2,0.2c0.1,0,0-0.1,0.1-0.1
					c0.1,0,0,0.1,0.1,0.1c0.1,0,0.1,0,0.1-0.1c0,0,0,0.1,0,0.2l0.5,0c0.1,0,0-0.1,0.1-0.1c0.1,0,0,0.1,0.1,0.1c0.1,0,0-0.1,0.1-0.1
					c0.1,0,0,0.1,0.1,0.1c0.1,0,0.1,0,0.1-0.1c0.1,0.1,0.2,0.2,0.3,0.3c0.1,0,0.4,0.1,0.5,0.2c0,0,0.1-0.1,0.1-0.2l0.2,0
					c0.1,0,0.1,0.1,0.2,0.1c0,0.1,0.1,0.1,0.1,0.3c0,0.1-0.1,0.1-0.1,0.2c0,0.1,0.1,0.2,0.2,0.3c-0.1,0.2-0.2,0.4-0.4,0.6
					c-0.1,0-0.1-0.1-0.2-0.1l0,0.4l-0.2,0c-0.1,0-0.1-0.1-0.1-0.1c0,0-0.1,0.1-0.1,0.2c-0.1,0-0.1-0.1-0.1-0.1c-0.1,0-0.2,0-0.3,0
					c-0.1,0-0.1,0-0.2,0c0,0-0.1,0-0.1,0c-0.1,0-0.2-0.1-0.2-0.1c-0.1,0-0.1,0-0.2,0C36.6,37.6,36.7,37.7,36.7,37.8z"/>
			</g>
		</g>
	</g>
</g>
<g>
</g>
<g>
</g>
<g>
</g>
<g>
</g>
<g>
</g>
<g>
</g>
<g>
</g>
<g>
</g>
<g>
</g>
<g>
</g>
<g>
</g>
<g>
</g>
<g>
</g>
<g>
</g>
<g>
</g>
</svg>
