<?xml version="1.0" encoding="utf-8"?>
<!-- Generator: Adobe Illustrator 18.0.0, SVG Export Plug-In . SVG Version: 6.00 Build 0)  -->
<!DOCTYPE svg PUBLIC "-//W3C//DTD SVG 1.1//EN" "http://www.w3.org/Graphics/SVG/1.1/DTD/svg11.dtd">
<svg version="1.1" id="Layer_1" xmlns="http://www.w3.org/2000/svg" xmlns:xlink="http://www.w3.org/1999/xlink" x="0px" y="0px"
	 viewBox="0 0 132.2 50.6" enable-background="new 0 0 132.2 50.6" xml:space="preserve">
<g>
	<g>
		<g>
			<g>
				<g>
					<path fill-rule="evenodd" clip-rule="evenodd" fill="#FFFFFF" d="M99.4,27.3c0,0.1,0.1,0.2,0.2,0.2c0,0.1-0.1,0.2,0,0.2
						c0.1,0.1,0.2,0.3,0.3,0.3c0.1,0.1,0.1-0.1,0.2,0s0,0.2,0.1,0.2s0.4-0.1,0.5,0c0.1,0.1,0,0.1,0.1,0.2s0.1-0.1,0.3,0
						s0.1,0.4,0.1,0.5c0.2,0,0.7,0.1,0.8,0.2c0.2,0.1,0.1,0.2,0.3,0.4c0,0-0.1,0,0.1,0.1s0.1-0.1,0.3,0c0.1,0.1,0,0.2,0.1,0.2
						c0.1,0,0.2,0,0.4-0.2c0.1,0.2,0.2,0.5,0.3,0.6c0.1,0.1,0.5,0,0.7,0.1s0,0.1,0.1,0.2c0.1,0.1,0.2,0,0.3,0
						c0.3,0.1-0.1,0.2,0.1,0.3c0.1,0.1,0.1-0.1,0.2,0s0.1,0.2,0.2,0.3c0.1,0.1,0.7,0.1,0.9,0.2c0.1,0.1,0.3,0.3,0.4,0.4
						s0.3,0.1,0.5,0.1c0.1,0,0,0.2-0.1,0.3l0.8,0.5c0-0.2,0-0.2,0-0.3c0.1,0,0,0.1,0.1,0.2c0.1,0.1,0.2,0,0.3,0s0.2,0.4,0.3,0.5
						c0.1,0.1,0.2,0,0.3,0c0.1,0.1,0,0.2,0.1,0.2c0.1,0.1,0.3,0,0.4-0.1c0,0.1-0.1,0.2,0,0.3c0.1,0.1,0-0.1,0.2-0.1
						c0.1,0.1-0.1,0.1,0,0.2c0.1,0.1,0-0.1,0.2-0.1c0.1,0.1,0,0.1,0.1,0.2c0.1,0.1,0.2,0,0.4,0.1s0.2,0.1,0.2,0.3
						c0,0,0.1-0.1,0.2-0.2c0.1,0,0,0.1,0.1,0.2s0.2,0,0.3,0c0.1,0.1,0.2,0.3,0.3,0.3s0.3,0,0.5,0.1s0.1,0.1,0.1,0.2
						c0.3,0.2,0.5,0.3,0.7,0.4c0,0.1-0.1,0.1,0,0.1s0.6,0,0.9,0l0.2,0.1c0,0.1-0.2,0-0.3,0.1l0.4,0.2c0.1,0.1,0.1-0.1,0.2,0
						c0.1,0.1,0.1,0.2,0.2,0.3c0.1,0.1,0.1-0.1,0.3,0c0.1,0.1,0,0.1,0.1,0.2s0.2,0,0.4,0.1s0.4,0.3,0.5,0.4c0.1,0.1,0.3,0.2,0.4,0.1
						c0,0.1,0.1,0.2,0.1,0.4c0.1,0.1,0.1,0.2,0.2,0c0.1-0.1-0.1-0.1,0-0.2c0.1,0.2,0.1,0.4,0.3,0.4c0,0,0.3,0,0.5-0.2l0.2,0.1
						c-0.1,0.1,0,0.3,0,0.4c0,0,0.1-0.1,0.2-0.2c0.1,0.2,0.1,0.3,0.2,0.4c0.1,0.1,0.4,0,0.6,0s0,0.2,0.1,0.2s0.1,0,0.2,0
						c0,0.1-0.1,0.2,0,0.3c0.1,0.1,0-0.1,0.2-0.1c0.1,0.1,0.1,0.2,0.2,0.3c0.2,0.1,0.3,0.1,0.5-0.2l0.2,0.1c-0.1,0.1-0.1,0.4,0,0.4
						c0.1,0.1,0-0.1,0.2-0.1c0.1,0.1-0.1,0.1,0,0.2c0.1,0.1,0.3,0,0.4-0.1c0.1,0,0.2,0.1,0.3,0.1c0.1,0.1,0.5,0.6,0.6,0.6
						c0.4,0.2,0.4-0.1,0.6,0c0.2,0.1-0.1,0.3,0.4,0.5c0.1,0.1,0.3,0,0.5,0.1c0.1,0.1,0.3,0.3,0.3,0.5c0,0,0.1,0,0.2-0.2l0.2,0.1
						c0.1,0.1,0,0.2,0.1,0.2c0,0.1-0.1,0.2-0.1,0.2l0.1,0.1c0.1,0.1,0.1-0.1,0.3-0.1c0.1,0,0.3,0.1,0.4,0.2c0.1,0,0-0.1,0.1,0
						c0.1,0.1,0.3,0.3,0.3,0.5c0,0,0.1,0,0.2-0.2c0,0.1,0.1,0.2,0.3,0.3s0.3,0.1,0.4,0.1c0.1,0,0,0.2-0.1,0.3l0.3,0.2
						c0.1,0,0.1-0.1,0.2-0.2l0.3,0.1c0.1,0.1,0,0.1,0.1,0.2c0.1,0.1,0.2,0.1,0.2,0c0.3,0.3,0,0.3,0.4,0.5c0.2,0.1,0.6,0,0.7,0.1
						c0.1,0.1,0.1,0.4,0.2,0.4s0.1-0.1,0.2,0c0.1,0.1-0.1,0.1,0,0.2c0.1,0.1,0.5,0.1,0.7,0.1c0,0,0,0,0.1,0.1
						c0.1,0.1,0.2,0.2,0.2,0.4l0,0.1l0.2,0.1c0.1,0,0.1-0.1,0.2-0.2c0,0.3,0.1,0.6,0.5,0.7c0,0.1-0.1,0-0.2,0.2
						c-0.2,0.3,0.2,0.6,0.1,0.9c-0.1,0.1-0.1,0.1-0.1,0.1c-0.1,0-0.6-0.2-0.7,0.1c-0.1,0.1,0,0.2,0,0.3c-0.3-0.2-0.6,0-0.7-0.1
						c-0.1-0.1-0.2-0.3-0.3-0.3c-0.1-0.1-0.2,0-0.4-0.1c-0.1-0.1,0-0.1,0-0.1c-0.2-0.1-0.4-0.4-0.5-0.5c-0.1-0.1-0.2-0.2-0.3-0.2
						c-0.1,0-0.3,0.1-0.4,0.1s0-0.1,0-0.1c-0.1-0.1-0.2-0.1-0.4-0.2c-0.1-0.1-0.4-0.2-0.6-0.2c0-0.1,0.1-0.1,0.2-0.1
						c0,0,0-0.1,0-0.3c0,0-0.1,0.1-0.2,0c-0.1-0.1-0.1-0.1-0.1-0.2c-0.1,0-0.2-0.1-0.3,0.1c-0.1,0.1,0.1,0.1,0,0.2l-0.3-0.2
						c0-0.2,0-0.3-0.1-0.4c-0.1-0.1,0,0.1-0.2,0.1c-0.1-0.1,0.1-0.1,0-0.2c-0.1-0.1-0.1,0.1-0.3,0c-0.1-0.1-0.1-0.2-0.2-0.3
						s-0.4-0.1-0.5-0.1c-0.1,0-0.2,0.1-0.3,0.1c0-0.1,0.2-0.1,0.2-0.2c-0.2-0.1-0.5-0.4-0.6-0.5c-0.1-0.1-0.2-0.2-0.4-0.1l0,0
						c-0.1-0.1,0-0.1,0-0.2c0,0-0.1,0.1-0.2,0.2c-0.1,0,0-0.1-0.1-0.2s-0.1,0-0.1,0.1c-0.1,0,0-0.2,0-0.3c-0.2-0.1-0.5-0.3-0.8-0.5
						c0-0.1,0.1-0.1,0-0.1s-0.6,0-0.7-0.1c-0.1-0.1,0-0.3-0.2-0.4c-0.1-0.1,0,0.1-0.2,0.1c-0.1-0.1-0.2-0.3-0.2-0.4
						c0,0-0.1,0.1-0.2,0.2l-0.2-0.1c0-0.1,0-0.2,0-0.3c0,0-0.2,0-0.4,0.2l-0.2-0.1c0-0.1,0.2-0.1,0.2-0.1c0-0.1,0,0-0.1-0.1
						s-0.4,0.1-0.5,0s0-0.2-0.1-0.2s-0.1,0.1-0.3,0c-0.1-0.1,0-0.1-0.1-0.2c-0.1-0.1-0.1,0-0.2,0c0-0.1-0.1-0.2-0.1-0.3
						c0-0.1-0.2-0.1-0.4-0.2c-0.1-0.1-0.3-0.2-0.4-0.2c-0.1,0-0.1,0-0.3,0.1c0,0,0,0.1-0.1,0c-0.1-0.1-0.1-0.2-0.1-0.4
						c0-0.1-0.1-0.1-0.2-0.1c-0.4-0.2-0.4,0.1-0.6,0c-0.2-0.1-0.1-0.3-0.2-0.6l-0.1-0.1c-0.1,0,0,0-0.1,0.1c-0.1,0.1,0,0.2,0,0.3
						l-0.4-0.2c-0.1-0.1-0.1-0.2-0.2-0.3c-0.1-0.1-0.2-0.1-0.3,0c0-0.1,0.2-0.1,0.2-0.1c0-0.1,0,0-0.1-0.1s-0.1,0.1-0.3,0
						c-0.1-0.1,0-0.2-0.1-0.2c-0.1-0.1-0.3,0-0.4-0.1s-0.1-0.2-0.2-0.3s0,0.1-0.2,0.1s0-0.1-0.1-0.2c-0.1-0.1-0.1,0.1-0.2,0
						s-0.2-0.3-0.2-0.4c-0.1,0-0.2-0.1-0.3,0.1c-0.1,0.1,0.1,0.1,0,0.2c-0.2-0.1-0.1-0.2-0.2-0.3c-0.1-0.1-0.1,0-0.2,0
						c-0.1-0.2-0.1-0.3-0.2-0.4c-0.1-0.1-0.2,0-0.3,0c0,0,0-0.2-0.1-0.3l-0.2,0.3l-0.4-0.2c0-0.1,0-0.2,0-0.3c-0.2,0-0.5,0-0.6-0.1
						c-0.1-0.1-0.2-0.3-0.2-0.4c0,0-0.1,0.1-0.2,0.2c-0.2-0.2-0.5-0.6-0.6-0.6c-0.2-0.1-0.2-0.1-0.3,0.1l-0.3-0.1
						c-0.1-0.1-0.2-0.4-0.3-0.5c-0.1-0.1-0.1,0.1-0.3,0c-0.1-0.1-0.2-0.2-0.3-0.3c-0.1-0.1-0.2,0-0.4-0.1c-0.1-0.1,0.1-0.1,0-0.2
						c-0.1-0.1-0.1,0.1-0.3,0c-0.1-0.1-0.1-0.2-0.2-0.3c-0.1-0.1-0.1,0.1-0.3,0c-0.1-0.1,0.1-0.1,0-0.2c-0.1-0.1-0.1,0.1-0.3,0
						c-0.1-0.1-0.2-0.3-0.2-0.4c0,0-0.1,0.1-0.2,0.2c-0.1,0,0-0.1-0.1-0.2c-0.1-0.1,0,0.1-0.2,0.1c-0.1-0.1,0.1-0.1,0-0.2
						c-0.1-0.1-0.1,0-0.1,0c-0.1,0-0.3-0.3-0.6-0.1c-0.1,0,0-0.2,0-0.2c0-0.1-0.1-0.3-0.2-0.3c-0.1,0-0.3,0.1-0.4,0.2l-0.3-0.2
						c0-0.2,0-0.3-0.1-0.3c-0.1-0.1-0.1,0.1-0.2,0s-0.1-0.2-0.2-0.3c-0.1-0.1-0.2-0.1-0.2-0.1c-0.1,0-0.1,0.1-0.2,0.2
						c-0.1,0-0.2-0.1-0.4-0.1c0-0.1,0.1-0.1,0.2-0.1c0,0,0-0.1,0-0.3c-0.1,0-0.3,0-0.4-0.1c-0.1-0.1-0.1-0.2-0.2-0.3
						c-0.1-0.1,0,0.1-0.2,0.1c-0.1-0.1,0-0.1,0-0.1c-0.1-0.1-0.1-0.1-0.3-0.2s-0.2-0.2-0.4-0.1l0,0c-0.1-0.1,0-0.1-0.1-0.2
						c-0.1-0.1-0.1,0.1-0.3,0c-0.1-0.1,0-0.2-0.1-0.2c-0.1-0.1-0.1,0.1-0.2,0s0-0.2-0.1-0.2s-0.3,0-0.4,0.1
						c-0.1-0.2-0.2-0.4-0.3-0.5s-0.1,0.1-0.3,0s0-0.1-0.1-0.2c-0.1-0.1-0.1,0-0.2,0c-0.1,0,0-0.2,0-0.3l-0.8-0.5
						c-0.1-0.1,0,0.1-0.2,0.1c-0.1-0.1,0-0.1-0.1-0.2s-0.1,0.1-0.3,0s0-0.2-0.1-0.2c-0.1-0.1-0.1,0-0.2,0c-0.1-0.1-0.1-0.3-0.1-0.5
						c-0.1-0.1-0.3-0.4-0.3-0.5c0,0-0.1,0.1-0.2,0.2l-0.2-0.1c-0.1-0.1-0.1-0.2-0.2-0.3c0-0.1-0.1-0.2,0-0.3c0.1-0.1,0.2,0,0.2-0.2
						c0.1-0.1,0-0.3-0.1-0.4c0.2-0.1,0.4-0.2,0.7-0.3c0.1,0,0.1,0.2,0.2,0.2l0.2-0.3l0.2,0.1c0.1,0.1,0,0.1,0,0.2c0,0,0.1,0,0.2-0.2
						c0.1,0,0.1,0.1,0.1,0.2c0.1,0.1,0.3,0.2,0.5,0.3c0.2,0.2,0.4,0.3,0.5,0.4c0.1,0.1,0.3,0.1,0.4,0.2
						C99.5,27.6,99.4,27.4,99.4,27.3z"/>
				</g>
			</g>
		</g>
		<g>
			<circle fill="#FFFFFF" cx="128.6" cy="45.6" r="2"/>
			<g>
				<g>
					<path fill-rule="evenodd" clip-rule="evenodd" fill="#FFFFFF" d="M130.8,47.8c0,0-0.1,0-0.2,0c0,0-0.1-0.1-0.1-0.1
						c-0.1,0-0.2,0-0.2,0c0,0,0.1,0.1,0,0.1c0,0-0.1-0.1-0.1,0c0,0,0,0.2-0.1,0.3c-0.1,0-0.1-0.1-0.1,0c-0.1,0,0,0.1,0,0.1
						c-0.1,0-0.2-0.1-0.3-0.2c0,0.1-0.2,0.3-0.2,0.3c-0.1,0-0.1-0.1-0.2-0.1c0,0,0,0,0,0c-0.1,0,0,0.1-0.1,0.1
						c-0.1,0-0.1-0.1-0.1-0.1c0,0-0.1,0.1-0.1,0.3c-0.1-0.1-0.2-0.3-0.3-0.3c-0.1,0-0.2,0.2-0.3,0.2c-0.1,0,0-0.1-0.1-0.1
						c-0.1,0-0.1,0.1-0.1,0.1c-0.1,0,0-0.2-0.1-0.2c-0.1,0,0,0.1-0.1,0.1c-0.1,0-0.1-0.1-0.1-0.1c-0.1,0-0.3,0.1-0.4,0.1
						c-0.1,0-0.1-0.1-0.2-0.2c-0.1,0-0.2,0-0.2,0c0,0,0-0.1,0.1-0.2c0,0-0.3-0.2-0.3-0.2c-0.1,0.1,0,0.1-0.1,0.2c0,0,0-0.1,0-0.1
						c0,0-0.1,0-0.2,0c0,0,0-0.2,0-0.3c0,0-0.1,0-0.2,0c0,0,0-0.1,0-0.1c0,0-0.1,0-0.2,0c0-0.1,0.1-0.1,0.1-0.2c0,0-0.1,0.1-0.1,0
						c0,0,0.1,0,0.1-0.1c0,0-0.1,0.1-0.1,0c0,0,0.1-0.1,0-0.1c0,0-0.1,0-0.2-0.1c0-0.1,0-0.1,0-0.1c0,0-0.1,0-0.2,0.1
						c0,0,0.1-0.1,0-0.1c0-0.1-0.1,0-0.1-0.1c0-0.1,0-0.2,0-0.2c0-0.1-0.1-0.1-0.2-0.2c0-0.1,0-0.1,0.1-0.1c0-0.1,0-0.2,0-0.3
						c0,0,0.1,0,0.1,0c0-0.1-0.2-0.2-0.3-0.3l0-0.1c0.1,0,0.1,0.1,0.2,0.1l0-0.2c0-0.1-0.1,0-0.1-0.1c0-0.1,0.1-0.1,0.1-0.1
						c0-0.1-0.1,0-0.1-0.1c0-0.1,0.1,0,0.1-0.1c0-0.1-0.1-0.1-0.1-0.2c0-0.1,0.1-0.2,0.2-0.2c0,0,0.1-0.1,0-0.2c0.1,0,0.1,0,0.2,0
						c0-0.1,0.1,0,0-0.1c-0.1-0.1-0.1,0-0.1,0c0.1,0,0.2,0,0.3-0.1c0,0,0-0.2-0.2-0.3l0.1-0.1c0.1,0.1,0.2,0.1,0.3,0.1
						c0,0,0-0.1-0.1-0.1c0.1,0,0.2,0,0.2,0c0,0,0-0.2,0-0.3c0,0,0.1,0,0.1,0c0,0,0,0,0-0.1c0.1,0,0.1,0.1,0.2,0.1c0,0-0.1-0.1,0-0.1
						c0,0,0.1,0,0.2,0c0.1-0.1,0.1-0.1-0.1-0.3l0.1-0.1c0.1,0.1,0.2,0.2,0.2,0.2c0,0-0.1-0.1,0-0.1c0.1,0,0,0.1,0.1,0.1
						c0,0,0-0.2,0-0.2c0-0.1,0.1,0,0.1-0.1c0.1,0,0.4,0.1,0.4,0.1c0.2-0.1,0.1-0.2,0.2-0.2c0.1,0,0.1,0.2,0.3,0.1
						c0.1,0,0.1-0.1,0.2-0.1c0.1,0,0.2,0.1,0.2,0.2c0,0,0-0.1,0-0.2l0.1,0c0.1,0,0,0.1,0.1,0.1c0,0,0,0.1,0,0.2l0.1,0
						c0.1,0,0-0.1,0.1-0.2c0,0,0.1,0,0.2,0c0,0,0-0.1,0.1-0.1c0.1,0,0.1,0.1,0.2,0.2c0,0,0.1-0.1,0.1-0.2c0,0.1,0.1,0.1,0.1,0.1
						c0.1,0,0.1,0,0.2,0c0,0,0,0.1-0.1,0.2l0.1,0.1c0,0,0.1-0.1,0.1-0.2l0.1,0.1c0.1,0,0,0.1,0,0.1c0,0,0.1,0,0.1,0
						c0.1,0.2-0.1,0.2,0.1,0.3c0.1,0.1,0.3,0,0.3,0c0,0-0.1,0.2,0,0.2c0,0,0.1-0.1,0.1,0c0,0-0.1,0.1,0,0.1c0,0,0.2,0.1,0.3,0.1
						c0,0,0,0,0,0c0,0.1,0,0.1-0.1,0.3l0.1,0.1c0.1,0,0.1,0,0.2,0c-0.1,0.3-0.1,0.5-0.1,0.8c-0.1,0-0.1-0.1-0.2-0.1
						c-0.3,0.1-0.3,0.4-0.5,0.4c-0.1,0-0.1,0-0.1,0c0-0.1-0.1-0.4-0.4-0.3c-0.1,0-0.1,0.1-0.2,0.1c0-0.2-0.2-0.1-0.3-0.2
						c0-0.1,0-0.1,0-0.2c0,0-0.1,0-0.1,0c0,0,0,0,0.1-0.1c0,0,0-0.1,0-0.2c0,0,0-0.1,0,0c0,0-0.2,0.1-0.2,0.1c0,0,0,0,0-0.1
						c0,0,0,0,0-0.1c0,0-0.1,0-0.1,0c0-0.1,0.1-0.1,0.1-0.1c0,0,0-0.1,0.1-0.2c0,0-0.1,0.1-0.1,0.1c0,0,0-0.1,0-0.1c0,0,0,0-0.1,0.1
						c-0.1,0.1,0,0.1-0.1,0.1l0,0c0-0.1,0.1-0.2,0-0.2c0,0,0,0.1-0.1,0.1c0,0,0-0.1,0-0.1c0,0,0,0.1-0.1,0.1c0,0,0-0.1,0-0.1
						c0,0-0.1,0-0.1,0.1c0,0-0.1,0.1-0.1,0.2c0-0.1,0-0.1,0.1-0.2c0,0-0.1-0.1-0.1-0.1c0,0-0.1,0-0.1,0.1l0,0c0,0,0-0.1,0-0.1
						c0,0,0,0.1,0,0.2c0,0,0-0.1,0-0.1c0,0,0,0,0,0.1c0,0,0-0.1,0-0.2c0,0-0.1,0-0.2,0c0,0,0-0.1,0-0.1c0,0,0,0.2-0.1,0.2
						c0,0-0.1-0.2-0.1-0.2c0,0,0,0.1,0,0.1c0,0-0.1-0.1-0.1-0.2c0,0,0,0.1,0.1,0.2l0,0c0-0.1-0.1-0.1-0.1-0.2c0,0,0,0.1,0.1,0.3l0,0
						c0-0.1,0-0.1-0.1-0.1c0,0,0,0,0,0c0,0,0.1,0.2,0,0.2c0,0-0.1-0.1-0.1-0.1c0,0,0,0.1,0,0.1c0,0-0.1-0.1-0.1-0.1c0,0,0,0,0,0.1
						c0,0-0.1-0.1-0.2-0.1c0,0,0,0-0.1,0c0,0-0.1,0,0,0.1c0,0,0,0.1,0.1,0.1c0,0,0,0,0,0c0,0-0.1,0-0.2-0.1c0,0,0,0,0,0
						c0,0.1,0.1,0.2,0.1,0.2c0,0-0.2-0.1-0.3-0.1l0,0c0,0,0,0,0.1,0c0.1,0,0.1,0,0.2,0.1l0,0.1c0,0-0.1,0-0.1,0c0,0,0,0,0.1,0.1
						c-0.1,0-0.1-0.1-0.1-0.1c0,0,0,0,0,0c0,0,0.1,0,0.1,0.1c0,0-0.1,0-0.1,0c0,0,0.1,0.1,0.1,0.1c0,0-0.1,0-0.1,0c0,0,0.1,0,0.1,0
						c0,0-0.1,0-0.1,0c0,0,0.1,0,0.1,0c0,0-0.1,0-0.2,0.1c0,0,0,0,0.1,0c0.1,0,0.1,0,0.1,0c0,0-0.1,0-0.1,0.1c0,0,0,0,0.1,0
						c-0.1,0-0.2,0.1-0.2,0.1c0,0,0.1,0,0.1,0c0,0-0.1,0-0.2,0.1l0.3-0.1l0,0.1c-0.1,0-0.1,0-0.2,0.1c0.1,0,0.2,0,0.2,0
						c0,0-0.1,0.1-0.2,0.1c0,0,0.1,0,0.2-0.1c-0.1,0.1-0.1,0.2-0.1,0.2c0,0,0,0,0.2-0.1l0,0c0,0-0.1,0.2-0.1,0.2c0,0,0.1-0.1,0.1,0
						c0,0,0,0.1,0,0.1c0,0,0.1,0,0.1,0c0,0-0.1,0.1,0,0.1c0,0,0.1-0.1,0.1-0.1c0,0,0,0.1,0,0.1c0,0,0.1-0.1,0.1-0.1
						c0,0-0.1,0.1,0,0.1c0,0,0.1-0.1,0.1-0.1c0,0,0,0.1,0,0.2c0,0,0-0.1,0.1-0.2c0,0,0,0.1,0,0.1c0,0,0-0.1,0.1-0.1c0,0,0,0.1,0,0.1
						c0,0,0,0,0-0.1c0,0,0,0.1,0.1-0.1c0,0,0,0.1,0,0.1c0,0,0,0.1,0,0.1c0,0,0.1-0.1,0.1-0.3l0,0c0,0.1,0,0.2,0,0.2c0,0,0-0.1,0-0.1
						c0,0,0,0.1,0.1,0.1c0,0,0,0,0,0c0,0,0-0.1,0-0.2c0,0,0,0,0.1-0.1c0,0.1,0,0.1,0,0.1c0,0,0,0.1,0,0.2c0,0,0-0.1,0.1-0.1
						c0,0,0,0.1,0.1,0.1c0,0,0-0.1,0-0.1c0,0,0,0.1,0,0.1c0,0,0,0,0.1,0c0,0,0.1,0,0-0.1l0,0c0,0,0,0.1,0.1,0.1c0,0,0-0.1,0-0.1
						c0,0,0,0.1,0.1,0.1c0,0,0-0.1,0-0.1c0,0,0.1,0.1,0.1,0.1c0,0,0-0.1,0-0.2c0.1,0.1,0.1,0.1,0.2,0.1c0,0,0-0.1,0-0.1
						c0,0,0.1,0.1,0.1,0.1c0,0,0,0,0-0.1c0,0,0.1,0.1,0.1,0.1c0,0,0.1-0.1,0.1-0.1c0,0-0.1-0.1-0.1-0.1c0,0,0.1,0.1,0.1,0
						c0,0-0.1-0.1,0-0.1c0,0,0.1,0,0.1,0c0-0.1,0-0.1,0-0.1c0.1,0,0.2,0,0.3,0c0.1-0.1,0.2-0.2,0.3-0.2c0,0-0.1-0.1-0.2-0.1l0-0.1
						c0-0.1,0.1-0.1,0.1-0.1c0.1,0,0.1-0.1,0.2-0.1c0.1,0,0.1,0.1,0.2,0.1c0.1,0,0.2-0.1,0.3-0.2c0.2,0.1,0.3,0.3,0.4,0.4
						c0,0.1-0.1,0.1-0.1,0.2l0.3,0.1l-0.1,0.2c-0.1,0.2-0.1,0-0.1,0.1c0,0.1,0,0.1,0.1,0.2c0,0.1-0.1,0.1-0.1,0.1
						c-0.1,0.1-0.1,0.2-0.2,0.3c0,0.1-0.1,0.1-0.1,0.2c0,0,0,0-0.1,0.1c-0.1,0.1-0.2,0.1-0.2,0.1c0,0-0.1,0.1-0.1,0.1
						C130.7,47.8,130.8,47.8,130.8,47.8z"/>
				</g>
			</g>
		</g>
	</g>
	<g>
		<g>
			<g>
				<g>
					<path fill-rule="evenodd" clip-rule="evenodd" fill="#3A494F" d="M100.2,26.5c0,0.1,0.1,0.2,0.2,0.2c0,0.1-0.1,0.2,0,0.2
						c0.1,0.1,0.2,0.3,0.3,0.3c0.1,0.1,0.1-0.1,0.2,0s0,0.2,0.1,0.2s0.4-0.1,0.5,0s0,0.1,0.1,0.2c0.1,0.1,0.1-0.1,0.3,0
						c0.1,0.1,0.1,0.4,0.1,0.5c0.2,0,0.7,0.1,0.8,0.2c0.2,0.1,0.1,0.2,0.3,0.4c0,0-0.1,0,0.1,0.1s0.1-0.1,0.3,0s0,0.2,0.1,0.2
						c0.1,0,0.2,0,0.4-0.2c0.1,0.2,0.2,0.5,0.3,0.6c0.1,0.1,0.5,0,0.7,0.1s0,0.1,0.1,0.2c0.1,0.1,0.2,0,0.3,0
						c0.3,0.1-0.1,0.2,0.1,0.3c0.1,0.1,0.1-0.1,0.2,0c0.1,0.1,0.1,0.2,0.2,0.3c0.1,0.1,0.7,0.1,0.9,0.2c0.1,0.1,0.3,0.3,0.4,0.4
						s0.3,0.1,0.5,0.1c0.1,0,0,0.2-0.1,0.3l0.8,0.5c0-0.2,0-0.2,0-0.3c0.1,0,0,0.1,0.1,0.2c0.1,0.1,0.2,0,0.3,0s0.2,0.4,0.3,0.5
						c0.1,0.1,0.2,0,0.3,0c0.1,0.1,0,0.2,0.1,0.2s0.3,0,0.4-0.1c0,0.1-0.1,0.2,0,0.3s0-0.1,0.2-0.1s-0.1,0.1,0,0.2s0-0.1,0.2-0.1
						s0,0.1,0.1,0.2c0.1,0.1,0.2,0,0.4,0.1c0.1,0.1,0.2,0.1,0.2,0.3c0,0,0.1-0.1,0.2-0.2c0.1,0,0,0.1,0.1,0.2s0.2,0,0.3,0
						c0.1,0.1,0.2,0.3,0.3,0.3c0.1,0.1,0.3,0,0.5,0.1c0.1,0.1,0.1,0.1,0.1,0.2c0.3,0.2,0.5,0.3,0.7,0.4c0,0.1-0.1,0.1,0,0.1
						s0.6,0,0.9,0l0.2,0.1c0,0.1-0.2,0-0.3,0.1l0.4,0.2c0.1,0.1,0.1-0.1,0.2,0s0.1,0.2,0.2,0.3s0.1-0.1,0.3,0c0.1,0.1,0,0.1,0.1,0.2
						s0.2,0,0.4,0.1s0.4,0.3,0.5,0.4c0.1,0.1,0.3,0.2,0.4,0.1c0,0.1,0.1,0.2,0.1,0.4c0.1,0.1,0.1,0.2,0.2,0c0.1-0.1-0.1-0.1,0-0.2
						c0.1,0.2,0.1,0.4,0.3,0.4c0,0,0.3,0,0.5-0.2l0.2,0.1c-0.1,0.1,0,0.3,0,0.4c0,0,0.1-0.1,0.2-0.2c0.1,0.2,0.1,0.3,0.2,0.4
						s0.4,0,0.6,0c0.1,0.1,0,0.2,0.1,0.2c0.1,0.1,0.1,0,0.2,0c0,0.1-0.1,0.2,0,0.3s0-0.1,0.2-0.1s0.1,0.2,0.2,0.3
						c0.2,0.1,0.3,0.1,0.5-0.2l0.2,0.1c-0.1,0.1-0.1,0.4,0,0.4c0.1,0.1,0-0.1,0.2-0.1c0.1,0.1-0.1,0.1,0,0.2c0.1,0.1,0.3,0,0.4-0.1
						c0.1,0,0.2,0.1,0.3,0.1c0.1,0.1,0.5,0.6,0.6,0.6c0.4,0.2,0.4-0.1,0.6,0c0.2,0.1-0.1,0.3,0.4,0.5c0.1,0.1,0.3,0,0.5,0.1
						s0.3,0.3,0.3,0.5c0,0,0.1,0,0.2-0.2l0.2,0.1c0.1,0.1,0,0.2,0.1,0.2c0,0.1-0.1,0.2-0.1,0.2l0.1,0.1c0.1,0.1,0.1-0.1,0.3-0.1
						c0.1,0,0.3,0.1,0.4,0.2c0.1,0,0-0.1,0.1,0c0.1,0.1,0.3,0.3,0.3,0.5c0,0,0.1,0,0.2-0.2c0,0.1,0.1,0.2,0.3,0.3
						c0.1,0.1,0.3,0.1,0.4,0.1c0.1,0,0,0.2-0.1,0.3l0.3,0.2c0.1,0,0.1-0.1,0.2-0.2l0.3,0.1c0.1,0.1,0,0.1,0.1,0.2s0.2,0.1,0.2,0
						c0.3,0.3,0,0.3,0.4,0.5c0.2,0.1,0.6,0,0.7,0.1c0.1,0.1,0.1,0.4,0.2,0.4s0.1-0.1,0.2,0c0.1,0.1-0.1,0.1,0,0.2
						c0.1,0.1,0.5,0.1,0.7,0.1c0,0,0,0,0.1,0.1c0.1,0.1,0.2,0.2,0.2,0.4l0,0.1l0.2,0.1c0.1,0,0.1-0.1,0.2-0.2c0,0.3,0.1,0.6,0.5,0.7
						c0,0.1-0.1,0-0.2,0.2c-0.2,0.3,0.2,0.6,0.1,0.9c-0.1,0.1-0.1,0.1-0.1,0.1c-0.1,0-0.6-0.2-0.7,0.1c-0.1,0.1,0,0.2,0,0.3
						c-0.3-0.2-0.6,0-0.7-0.1c-0.1-0.1-0.2-0.3-0.3-0.3c-0.1-0.1-0.2,0-0.4-0.1s0-0.1,0-0.1c-0.2-0.1-0.4-0.4-0.5-0.5
						s-0.2-0.2-0.3-0.2s-0.3,0.1-0.4,0.1s0-0.1,0-0.1c-0.1-0.1-0.2-0.1-0.4-0.2s-0.4-0.2-0.6-0.2c0-0.1,0.1-0.1,0.2-0.1
						c0,0,0-0.1,0-0.3c0,0-0.1,0.1-0.2,0s-0.1-0.1-0.1-0.2c-0.1,0-0.2-0.1-0.3,0.1c-0.1,0.1,0.1,0.1,0,0.2l-0.3-0.2
						c0-0.2,0-0.3-0.1-0.4c-0.1-0.1,0,0.1-0.2,0.1c-0.1-0.1,0.1-0.1,0-0.2c-0.1-0.1-0.1,0.1-0.3,0c-0.1-0.1-0.1-0.2-0.2-0.3
						c-0.1-0.1-0.4-0.1-0.5-0.1c-0.1,0-0.2,0.1-0.3,0.1c0-0.1,0.2-0.1,0.2-0.2c-0.2-0.1-0.5-0.4-0.6-0.5c-0.1-0.1-0.2-0.2-0.4-0.1
						l0,0c-0.1-0.1,0-0.1,0-0.2c0,0-0.1,0.1-0.2,0.2c-0.1,0,0-0.1-0.1-0.2c-0.1-0.1-0.1,0-0.1,0.1c-0.1,0,0-0.2,0-0.3
						c-0.2-0.1-0.5-0.3-0.8-0.5c0-0.1,0.1-0.1,0-0.1c-0.1-0.1-0.6,0-0.7-0.1c-0.1-0.1,0-0.3-0.2-0.4c-0.1-0.1,0,0.1-0.2,0.1
						c-0.1-0.1-0.2-0.3-0.2-0.4c0,0-0.1,0.1-0.2,0.2l-0.2-0.1c0-0.1,0-0.2,0-0.3c0,0-0.2,0-0.4,0.2l-0.2-0.1c0-0.1,0.2-0.1,0.2-0.1
						c0-0.1,0,0-0.1-0.1c-0.1-0.1-0.4,0.1-0.5,0s0-0.2-0.1-0.2s-0.1,0.1-0.3,0c-0.1-0.1,0-0.1-0.1-0.2c-0.1-0.1-0.1,0-0.2,0
						c0-0.1-0.1-0.2-0.1-0.3c0-0.1-0.2-0.1-0.4-0.2s-0.3-0.2-0.4-0.2c-0.1,0-0.1,0-0.3,0.1c0,0,0,0.1-0.1,0s-0.1-0.2-0.1-0.4
						c0-0.1-0.1-0.1-0.2-0.1c-0.4-0.2-0.4,0.1-0.6,0c-0.2-0.1-0.1-0.3-0.2-0.6l-0.1-0.1c-0.1,0,0,0-0.1,0.1c-0.1,0.1,0,0.2,0,0.3
						l-0.4-0.2c-0.1-0.1-0.1-0.2-0.2-0.3c-0.1-0.1-0.2-0.1-0.3,0c0-0.1,0.2-0.1,0.2-0.1c0-0.1,0,0-0.1-0.1c-0.1-0.1-0.1,0.1-0.3,0
						c-0.1-0.1,0-0.2-0.1-0.2c-0.1-0.1-0.3,0-0.4-0.1s-0.1-0.2-0.2-0.3s0,0.1-0.2,0.1c-0.1-0.1,0-0.1-0.1-0.2
						c-0.1-0.1-0.1,0.1-0.2,0c-0.1-0.1-0.2-0.3-0.2-0.4c-0.1,0-0.2-0.1-0.3,0.1c-0.1,0.1,0.1,0.1,0,0.2c-0.2-0.1-0.1-0.2-0.2-0.3
						c-0.1-0.1-0.1,0-0.2,0c-0.1-0.2-0.1-0.3-0.2-0.4c-0.1-0.1-0.2,0-0.3,0c0,0,0-0.2-0.1-0.3l-0.2,0.3l-0.4-0.2c0-0.1,0-0.2,0-0.3
						c-0.2,0-0.5,0-0.6-0.1c-0.1-0.1-0.2-0.3-0.2-0.4c0,0-0.1,0.1-0.2,0.2c-0.2-0.2-0.5-0.6-0.6-0.6c-0.2-0.1-0.2-0.1-0.3,0.1
						l-0.3-0.1c-0.1-0.1-0.2-0.4-0.3-0.5s-0.1,0.1-0.3,0s-0.2-0.2-0.3-0.3c-0.1-0.1-0.2,0-0.4-0.1c-0.1-0.1,0.1-0.1,0-0.2
						c-0.1-0.1-0.1,0.1-0.3,0c-0.1-0.1-0.1-0.2-0.2-0.3c-0.1-0.1-0.1,0.1-0.3,0s0.1-0.1,0-0.2s-0.1,0.1-0.3,0s-0.2-0.3-0.2-0.4
						c0,0-0.1,0.1-0.2,0.2c-0.1,0,0-0.1-0.1-0.2s0,0.1-0.2,0.1s0.1-0.1,0-0.2c-0.1-0.1-0.1,0-0.1,0c-0.1,0-0.3-0.3-0.6-0.1
						c-0.1,0,0-0.2,0-0.2c0-0.1-0.1-0.3-0.2-0.3c-0.1,0-0.3,0.1-0.4,0.2l-0.3-0.2c0-0.2,0-0.3-0.1-0.3s-0.1,0.1-0.2,0
						c-0.1-0.1-0.1-0.2-0.2-0.3c-0.1-0.1-0.2-0.1-0.2-0.1c-0.1,0-0.1,0.1-0.2,0.2c-0.1,0-0.2-0.1-0.4-0.1c0-0.1,0.1-0.1,0.2-0.1
						c0,0,0-0.1,0-0.3c-0.1,0-0.3,0-0.4-0.1c-0.1-0.1-0.1-0.2-0.2-0.3s0,0.1-0.2,0.1s0-0.1,0-0.1c-0.1-0.1-0.1-0.1-0.3-0.2
						c-0.1-0.1-0.2-0.2-0.4-0.1l0,0c-0.1-0.1,0-0.1-0.1-0.2c-0.1-0.1-0.1,0.1-0.3,0c-0.1-0.1,0-0.2-0.1-0.2c-0.1-0.1-0.1,0.1-0.2,0
						s0-0.2-0.1-0.2s-0.3,0-0.4,0.1c-0.1-0.2-0.2-0.4-0.3-0.5c-0.1-0.1-0.1,0.1-0.3,0c-0.1-0.1,0-0.1-0.1-0.2s-0.1,0-0.2,0
						c-0.1,0,0-0.2,0-0.3l-0.8-0.5c-0.1-0.1,0,0.1-0.2,0.1c-0.1-0.1,0-0.1-0.1-0.2c-0.1-0.1-0.1,0.1-0.3,0c-0.1-0.1,0-0.2-0.1-0.2
						c-0.1-0.1-0.1,0-0.2,0C98,28.2,97.9,28,98,27.8c-0.1-0.1-0.3-0.4-0.3-0.5c0,0-0.1,0.1-0.2,0.2l-0.2-0.1
						c-0.1-0.1-0.1-0.2-0.2-0.3c0-0.1-0.1-0.2,0-0.3s0.2,0,0.2-0.2c0.1-0.1,0-0.3-0.1-0.4c0.2-0.1,0.4-0.2,0.7-0.3
						c0.1,0,0.1,0.2,0.2,0.2l0.2-0.3l0.2,0.1c0.1,0.1,0,0.1,0,0.2c0,0,0.1,0,0.2-0.2c0.1,0,0.1,0.1,0.1,0.2c0.1,0.1,0.3,0.2,0.5,0.3
						c0.2,0.2,0.4,0.3,0.5,0.4c0.1,0.1,0.3,0.1,0.4,0.2C100.2,26.8,100.1,26.6,100.2,26.5z"/>
				</g>
			</g>
		</g>
		<g>
			<circle fill="#FFFFFF" cx="129.3" cy="44.8" r="2"/>
			<g>
				<g>
					<path fill-rule="evenodd" clip-rule="evenodd" fill="#3A494F" d="M131.5,47c0,0-0.1,0-0.2,0c0,0-0.1-0.1-0.1-0.1
						c-0.1,0-0.2,0-0.2,0c0,0,0.1,0.1,0,0.1c0,0-0.1-0.1-0.1,0c0,0,0,0.2-0.1,0.3c-0.1,0-0.1-0.1-0.1,0c-0.1,0,0,0.1,0,0.1
						c-0.1,0-0.2-0.1-0.3-0.2c0,0.1-0.2,0.3-0.2,0.3c-0.1,0-0.1-0.1-0.2-0.1c0,0,0,0,0,0c-0.1,0,0,0.1-0.1,0.1
						c-0.1,0-0.1-0.1-0.1-0.1c0,0-0.1,0.1-0.1,0.3c-0.1-0.1-0.2-0.3-0.3-0.3c-0.1,0-0.2,0.2-0.3,0.2c-0.1,0,0-0.1-0.1-0.1
						c-0.1,0-0.1,0.1-0.1,0.1c-0.1,0,0-0.2-0.1-0.2c-0.1,0,0,0.1-0.1,0.1c-0.1,0-0.1-0.1-0.1-0.1c-0.1,0-0.3,0.1-0.4,0.1
						c-0.1,0-0.1-0.1-0.2-0.2c-0.1,0-0.2,0-0.2,0c0,0,0-0.1,0.1-0.2c0,0-0.3-0.2-0.3-0.2c-0.1,0.1,0,0.1-0.1,0.2c0,0,0-0.1,0-0.1
						c0,0-0.1,0-0.2,0c0,0,0-0.2,0-0.3c0,0-0.1,0-0.2,0c0,0,0-0.1,0-0.1c0,0-0.1,0-0.2,0c0-0.1,0.1-0.1,0.1-0.2c0,0-0.1,0.1-0.1,0
						c0,0,0.1,0,0.1-0.1c0,0-0.1,0.1-0.1,0c0,0,0.1-0.1,0-0.1c0,0-0.1,0-0.2-0.1c0-0.1,0-0.1,0-0.1c0,0-0.1,0-0.2,0.1
						c0,0,0.1-0.1,0-0.1c0-0.1-0.1,0-0.1-0.1c0-0.1,0-0.2,0-0.2c0-0.1-0.1-0.1-0.2-0.2c0-0.1,0-0.1,0.1-0.1c0-0.1,0-0.2,0-0.3
						c0,0,0.1,0,0.1,0c0-0.1-0.2-0.2-0.3-0.3l0-0.1c0.1,0,0.1,0.1,0.2,0.1l0-0.2c0-0.1-0.1,0-0.1-0.1c0-0.1,0.1-0.1,0.1-0.1
						c0-0.1-0.1,0-0.1-0.1c0-0.1,0.1,0,0.1-0.1c0-0.1-0.1-0.1-0.1-0.2c0-0.1,0.1-0.2,0.2-0.2c0,0,0.1-0.1,0-0.2c0.1,0,0.1,0,0.2,0
						c0-0.1,0.1,0,0-0.1c-0.1-0.1-0.1,0-0.1,0c0.1,0,0.2,0,0.3-0.1c0,0,0-0.2-0.2-0.3l0.1-0.1c0.1,0.1,0.2,0.1,0.3,0.1
						c0,0,0-0.1-0.1-0.1c0.1,0,0.2,0,0.2,0c0,0,0-0.2,0-0.3c0,0,0.1,0,0.1,0c0,0,0,0,0-0.1c0.1,0,0.1,0.1,0.2,0.1c0,0-0.1-0.1,0-0.1
						c0,0,0.1,0,0.2,0c0.1-0.1,0.1-0.1-0.1-0.3l0.1-0.1c0.1,0.1,0.2,0.2,0.2,0.2c0,0-0.1-0.1,0-0.1c0.1,0,0,0.1,0.1,0.1
						c0,0,0-0.2,0-0.2c0-0.1,0.1,0,0.1-0.1c0.1,0,0.4,0.1,0.4,0.1c0.2-0.1,0.1-0.2,0.2-0.2c0.1,0,0.1,0.2,0.3,0.1
						c0.1,0,0.1-0.1,0.2-0.1c0.1,0,0.2,0.1,0.2,0.2c0,0,0-0.1,0-0.2l0.1,0c0.1,0,0,0.1,0.1,0.1c0,0,0,0.1,0,0.2l0.1,0
						c0.1,0,0-0.1,0.1-0.2c0,0,0.1,0,0.2,0c0,0,0-0.1,0.1-0.1c0.1,0,0.1,0.1,0.2,0.2c0,0,0.1-0.1,0.1-0.2c0,0.1,0.1,0.1,0.1,0.1
						c0.1,0,0.1,0,0.2,0c0,0,0,0.1-0.1,0.2l0.1,0.1c0,0,0.1-0.1,0.1-0.2l0.1,0.1c0.1,0,0,0.1,0,0.1c0,0,0.1,0,0.1,0
						c0.1,0.2-0.1,0.2,0.1,0.3c0.1,0.1,0.3,0,0.3,0c0,0-0.1,0.2,0,0.2c0,0,0.1-0.1,0.1,0c0,0-0.1,0.1,0,0.1c0,0,0.2,0.1,0.3,0.1
						c0,0,0,0,0,0c0,0.1,0,0.1-0.1,0.3l0.1,0.1c0.1,0,0.1,0,0.2,0c-0.1,0.3-0.1,0.5-0.1,0.8c-0.1,0-0.1-0.1-0.2-0.1
						c-0.3,0.1-0.3,0.4-0.5,0.4c-0.1,0-0.1,0-0.1,0c0-0.1-0.1-0.4-0.4-0.3c-0.1,0-0.1,0.1-0.2,0.1c0-0.2-0.2-0.1-0.3-0.2
						c0-0.1,0-0.1,0-0.2c0,0-0.1,0-0.1,0c0,0,0,0,0.1-0.1c0,0,0-0.1,0-0.2c0,0,0-0.1,0,0c0,0-0.2,0.1-0.2,0.1c0,0,0,0,0-0.1
						c0,0,0,0,0-0.1c0,0-0.1,0-0.1,0c0-0.1,0.1-0.1,0.1-0.1c0,0,0-0.1,0.1-0.2c0,0-0.1,0.1-0.1,0.1c0,0,0-0.1,0-0.1c0,0,0,0-0.1,0.1
						c-0.1,0.1,0,0.1-0.1,0.1l0,0c0-0.1,0.1-0.2,0-0.2c0,0,0,0.1-0.1,0.1c0,0,0-0.1,0-0.1c0,0,0,0.1-0.1,0.1c0,0,0-0.1,0-0.1
						c0,0-0.1,0-0.1,0.1c0,0-0.1,0.1-0.1,0.2c0-0.1,0-0.1,0.1-0.2c0,0-0.1-0.1-0.1-0.1c0,0-0.1,0-0.1,0.1l0,0c0,0,0-0.1,0-0.1
						c0,0,0,0.1,0,0.2c0,0,0-0.1,0-0.1c0,0,0,0,0,0.1c0,0,0-0.1,0-0.2c0,0-0.1,0-0.2,0c0,0,0-0.1,0-0.1c0,0,0,0.2-0.1,0.2
						c0,0-0.1-0.2-0.1-0.2c0,0,0,0.1,0,0.1c0,0-0.1-0.1-0.1-0.2c0,0,0,0.1,0.1,0.2l0,0c0-0.1-0.1-0.1-0.1-0.2c0,0,0,0.1,0.1,0.3l0,0
						c0-0.1,0-0.1-0.1-0.1c0,0,0,0,0,0c0,0,0.1,0.2,0,0.2c0,0-0.1-0.1-0.1-0.1c0,0,0,0.1,0,0.1c0,0-0.1-0.1-0.1-0.1c0,0,0,0,0,0.1
						c0,0-0.1-0.1-0.2-0.1c0,0,0,0-0.1,0c0,0-0.1,0,0,0.1c0,0,0,0.1,0.1,0.1c0,0,0,0,0,0c0,0-0.1,0-0.2-0.1c0,0,0,0,0,0
						c0,0.1,0.1,0.2,0.1,0.2c0,0-0.2-0.1-0.3-0.1l0,0c0,0,0,0,0.1,0c0.1,0,0.1,0,0.2,0.1l0,0.1c0,0-0.1,0-0.1,0c0,0,0,0,0.1,0.1
						c-0.1,0-0.1-0.1-0.1-0.1c0,0,0,0,0,0c0,0,0.1,0,0.1,0.1c0,0-0.1,0-0.1,0c0,0,0.1,0.1,0.1,0.1c0,0-0.1,0-0.1,0c0,0,0.1,0,0.1,0
						c0,0-0.1,0-0.1,0c0,0,0.1,0,0.1,0c0,0-0.1,0-0.2,0.1c0,0,0,0,0.1,0c0.1,0,0.1,0,0.1,0c0,0-0.1,0-0.1,0.1c0,0,0,0,0.1,0
						c-0.1,0-0.2,0.1-0.2,0.1c0,0,0.1,0,0.1,0c0,0-0.1,0-0.2,0.1l0.3-0.1l0,0.1c-0.1,0-0.1,0-0.2,0.1c0.1,0,0.2,0,0.2,0
						c0,0-0.1,0.1-0.2,0.1c0,0,0.1,0,0.2-0.1c-0.1,0.1-0.1,0.2-0.1,0.2c0,0,0,0,0.2-0.1l0,0c0,0-0.1,0.2-0.1,0.2c0,0,0.1-0.1,0.1,0
						c0,0,0,0.1,0,0.1c0,0,0.1,0,0.1,0c0,0-0.1,0.1,0,0.1c0,0,0.1-0.1,0.1-0.1c0,0,0,0.1,0,0.1c0,0,0.1-0.1,0.1-0.1
						c0,0-0.1,0.1,0,0.1c0,0,0.1-0.1,0.1-0.1c0,0,0,0.1,0,0.2c0,0,0-0.1,0.1-0.2c0,0,0,0.1,0,0.1c0,0,0-0.1,0.1-0.1c0,0,0,0.1,0,0.1
						c0,0,0,0,0-0.1c0,0,0,0.1,0.1-0.1c0,0,0,0.1,0,0.1c0,0,0,0.1,0,0.1c0,0,0.1-0.1,0.1-0.3l0,0c0,0.1,0,0.2,0,0.2c0,0,0-0.1,0-0.1
						c0,0,0,0.1,0.1,0.1c0,0,0,0,0,0c0,0,0-0.1,0-0.2c0,0,0,0,0.1-0.1c0,0.1,0,0.1,0,0.1c0,0,0,0.1,0,0.2c0,0,0-0.1,0.1-0.1
						c0,0,0,0.1,0.1,0.1c0,0,0-0.1,0-0.1c0,0,0,0.1,0,0.1c0,0,0,0,0.1,0c0,0,0.1,0,0-0.1l0,0c0,0,0,0.1,0.1,0.1c0,0,0-0.1,0-0.1
						c0,0,0,0.1,0.1,0.1c0,0,0-0.1,0-0.1c0,0,0.1,0.1,0.1,0.1c0,0,0-0.1,0-0.2c0.1,0.1,0.1,0.1,0.2,0.1c0,0,0-0.1,0-0.1
						c0,0,0.1,0.1,0.1,0.1c0,0,0,0,0-0.1c0,0,0.1,0.1,0.1,0.1c0,0,0.1-0.1,0.1-0.1c0,0-0.1-0.1-0.1-0.1c0,0,0.1,0.1,0.1,0
						c0,0-0.1-0.1,0-0.1c0,0,0.1,0,0.1,0c0-0.1,0-0.1,0-0.1c0.1,0,0.2,0,0.3,0c0.1-0.1,0.2-0.2,0.3-0.2c0,0-0.1-0.1-0.2-0.1l0-0.1
						c0-0.1,0.1-0.1,0.1-0.1c0.1,0,0.1-0.1,0.2-0.1c0.1,0,0.1,0.1,0.2,0.1c0.1,0,0.2-0.1,0.3-0.2c0.2,0.1,0.3,0.3,0.4,0.4
						c0,0.1-0.1,0.1-0.1,0.2l0.3,0.1l-0.1,0.2c-0.1,0.2-0.1,0-0.1,0.1c0,0.1,0,0.1,0.1,0.2c0,0.1-0.1,0.1-0.1,0.1
						c-0.1,0.1-0.1,0.2-0.2,0.3c0,0.1-0.1,0.1-0.1,0.2c0,0,0,0-0.1,0.1c-0.1,0.1-0.2,0.1-0.2,0.1c0,0-0.1,0.1-0.1,0.1
						C131.4,46.9,131.5,47,131.5,47z"/>
				</g>
			</g>
		</g>
	</g>
	<path fill="#FFFFFF" d="M98,50.6H2.7c-1.5,0-2.7-1.2-2.7-2.7V2.7C0,1.2,1.2,0,2.7,0H98c1.5,0,2.7,1.2,2.7,2.7v45.2
		C100.6,49.4,99.4,50.6,98,50.6z"/>
</g>
<g>
</g>
<g>
</g>
<g>
</g>
<g>
</g>
<g>
</g>
<g>
</g>
<g>
</g>
<g>
</g>
<g>
</g>
<g>
</g>
<g>
</g>
<g>
</g>
<g>
</g>
<g>
</g>
<g>
</g>
</svg>
