<?xml version="1.0" encoding="utf-8"?>
<!-- Generator: Adobe Illustrator 18.0.0, SVG Export Plug-In . SVG Version: 6.00 Build 0)  -->
<!DOCTYPE svg PUBLIC "-//W3C//DTD SVG 1.1//EN" "http://www.w3.org/Graphics/SVG/1.1/DTD/svg11.dtd">
<svg version="1.1" id="Layer_1" xmlns="http://www.w3.org/2000/svg" xmlns:xlink="http://www.w3.org/1999/xlink" x="0px" y="0px"
	 viewBox="0 0 80.9 39.8" enable-background="new 0 0 80.9 39.8" xml:space="preserve">
<g>
	<rect x="0" y="0.5" fill="none" width="80.9" height="39.2"/>
	<path fill="#FFFFFF" d="M2,2.7C2,2.7,2,2.7,2,2.7c0.1,0,0.1,0,0.2,0c0.1,0,0.1,0.1,0.1,0.2c0,0,0,0,0,0c0,0.1,0,0.1,0,0.2
		c0,0.1-0.1,0.1-0.2,0.1L1.6,3.3c0,0-0.1,0-0.1,0.1v1.5c0,0.1,0,0.3,0,0.3S1.4,5.4,1.4,5.4C1.2,5.5,1,5.5,0.8,5.5h0
		c-0.1,0-0.1,0-0.2-0.1c-0.1,0-0.1-0.1-0.1-0.2c0-0.1,0-0.1,0-0.2S0.6,5,0.6,5c0.1,0,0.1,0,0.1,0c0.1,0,0.1,0,0.2,0C1,5,1,5,1,5
		c0,0,0,0,0-0.1V3.5c0,0,0,0,0,0c0,0,0,0,0,0c-0.1,0-0.2,0.1-0.4,0.1c0,0,0,0-0.1,0c0,0-0.1,0-0.1,0c-0.1,0-0.1-0.1-0.1-0.2
		c0,0,0,0,0-0.1c0,0,0-0.1,0-0.1c0-0.1,0.1-0.1,0.2-0.1C0.7,3,0.9,3,1,3c0,0,0.1,0,0.1-0.1v-1c0,0,0-0.1-0.1-0.1H0.5
		c-0.1,0-0.1,0-0.2-0.1c0,0-0.1-0.1-0.1-0.2c0-0.1,0-0.1,0.1-0.2c0,0,0.1-0.1,0.2-0.1H1c0,0,0.1,0,0.1-0.1V0.4c0-0.1,0-0.1,0.1-0.2
		c0.1-0.1,0.1-0.1,0.2-0.1c0.1,0,0.1,0,0.2,0.1c0.1,0.1,0.1,0.1,0.1,0.2v0.8c0,0,0,0.1,0.1,0.1H2c0.1,0,0.1,0,0.2,0.1
		c0,0,0.1,0.1,0.1,0.2c0,0.1,0,0.1-0.1,0.2c0,0-0.1,0.1-0.2,0.1H1.6c0,0-0.1,0-0.1,0.1v0.9c0,0,0,0,0,0c0,0,0,0,0,0
		C1.8,2.7,2,2.7,2,2.7z M2.8,5.5c-0.1,0-0.1,0-0.2-0.1C2.6,5.4,2.6,5.3,2.6,5.2V3.4c0-0.1,0-0.3,0.1-0.4C2.8,3,2.9,2.9,3.1,2.9h1.8
		c0.1,0,0.3,0,0.4,0.1c0.1,0.1,0.1,0.2,0.1,0.4v1.8c0,0.1,0,0.1-0.1,0.2C5.2,5.4,5.1,5.5,5.1,5.5H5c-0.1,0-0.1,0-0.1-0.1
		S4.8,5.3,4.8,5.3c0,0,0,0,0,0H3.1c0,0,0,0,0,0c0,0.1,0,0.1-0.1,0.2C3,5.5,2.9,5.5,2.8,5.5L2.8,5.5z M3.5,2h1.2C4.8,2,4.9,2,5,1.9
		c0-0.1,0.1-0.2,0.1-0.4c0-0.1,0-0.1,0.1-0.1c0.1,0,0.1,0,0.2,0c0.1,0,0.1,0.1,0.2,0.1c0,0,0.1,0.1,0.1,0.2c0,0,0,0,0,0
		c0,0.3-0.1,0.5-0.2,0.6S5,2.5,4.7,2.5H3.5c-0.4,0-0.6-0.1-0.7-0.2C2.6,2.2,2.6,2,2.6,1.8V0.4c0-0.1,0-0.1,0.1-0.2
		c0.1-0.1,0.1-0.1,0.2-0.1S3,0.2,3,0.2s0.1,0.1,0.1,0.2v0.5c0,0,0,0,0,0c0,0,0,0,0,0c0.6-0.1,1-0.3,1.4-0.4c0.1,0,0.1,0,0.2,0
		c0,0,0.1,0,0.1,0C4.9,0.5,5,0.6,5,0.6c0,0,0.1,0.1,0.1,0.1c0,0,0,0,0,0c0,0.1,0,0.1-0.1,0.1C4.5,1.1,3.9,1.3,3.2,1.4
		c0,0-0.1,0-0.1,0.1v0.3c0,0.1,0,0.2,0.1,0.2C3.2,2,3.4,2,3.5,2z M4.8,3.4C4.8,3.4,4.8,3.4,4.8,3.4L3.1,3.4c0,0-0.1,0-0.1,0.1v0.4
		c0,0,0,0.1,0.1,0.1h1.6c0,0,0.1,0,0.1-0.1V3.4z M3.1,4.7C3.1,4.8,3.1,4.8,3.1,4.7l1.7,0.1c0,0,0.1,0,0.1-0.1V4.3c0,0,0-0.1-0.1-0.1
		H3.1c0,0-0.1,0-0.1,0.1V4.7z"/>
	<path fill="#FFFFFF" d="M11.1,0.9c0,0,0.1-0.1,0.2-0.1c0,0,0,0,0,0c0.1,0,0.1,0,0.2,0c0,0,0.1,0.1,0.1,0.1s0,0.1-0.1,0.1
		c-0.1,0.1-0.3,0.3-0.5,0.4c0,0,0,0,0,0c0,0,0,0,0,0c0.2,0.1,0.4,0.2,0.6,0.3c0.1,0,0.1,0.1,0.1,0.1c0,0,0,0,0,0.1c0,0,0,0.1,0,0.1
		c0,0.1-0.1,0.1-0.2,0.1c0,0-0.1,0-0.1,0c0,0-0.1,0-0.1,0c-0.2-0.1-0.3-0.1-0.5-0.2c0,0,0,0,0,0c0,0,0,0,0,0v0.6c0,0.1,0,0.1,0,0.1
		c0,0,0,0,0.1,0H11c0.1,0,0.1,0,0.1,0c0,0,0.1,0,0.1-0.1c0,0,0,0,0-0.1c0,0,0-0.1,0.1-0.1c0,0,0.1,0,0.1,0c0.1,0,0.1,0.1,0.1,0.1
		c0,0.1,0,0.1,0,0.2c0,0.1,0,0.1,0,0.2c0,0.1-0.1,0.1-0.2,0.1c-0.1,0-0.2,0-0.3,0h-0.3c-0.2,0-0.3,0-0.3-0.1c0,0-0.1-0.1-0.1-0.2
		c0-0.1,0-0.2,0-0.3V2.3c0,0,0-0.1-0.1-0.1H9.6c0,0-0.1,0-0.1,0.1c0,0.4-0.1,0.7-0.3,0.9C9.2,3.3,9.1,3.3,9,3.3c0,0,0,0,0,0
		c-0.1,0-0.2-0.1-0.3-0.1c0,0,0,0,0,0c0,0,0,0,0,0c0,0,0,0.1,0,0.1s-0.1,0-0.1,0H8.2c0,0,0,0-0.1,0c0,0,0,0,0-0.1c0,0,0,0,0,0H7.4
		c0,0-0.1,0-0.1,0.1c0,0,0,0.1,0,0.2c0,0.1,0,0.1,0,0.2c0,0,0,0,0,0c0,0,0,0,0,0h0.8c0.1,0,0.2,0,0.3,0.1c0.1,0.1,0.1,0.2,0.1,0.3
		c0,0,0,0,0,0c0,0.3-0.1,0.6-0.1,0.7c0,0.2-0.1,0.3-0.2,0.4C8.2,5.4,8.1,5.5,7.9,5.5c-0.1,0-0.2,0-0.3,0c-0.1,0-0.1,0-0.2,0
		c-0.1,0-0.1,0-0.2-0.1c-0.1,0-0.1-0.1-0.1-0.2c0-0.1,0-0.1,0-0.1C7.1,5,7.2,5,7.2,5c0.1,0,0.3,0,0.5,0c0.1,0,0.2,0,0.2,0
		C8,4.9,8.1,4.6,8.1,4.2c0,0,0,0,0,0c0,0,0,0,0,0H7.2c0,0,0,0,0,0c0,0,0,0.1-0.1,0.1s-0.1,0-0.1,0l-0.1,0c-0.1,0-0.1,0-0.1-0.1
		c0-0.1,0-0.1,0-0.2c0.1-0.2,0.1-0.4,0.1-0.7C6.9,3.2,7,3.1,7.1,3c0.1-0.1,0.2-0.1,0.4-0.1h0.6c0,0,0.1,0,0.1-0.1V2.4
		c0,0,0-0.1-0.1-0.1H7.2c0,0,0,0,0,0C7,2.3,7,2.4,6.9,2.4c0,0-0.1,0-0.1,0c0,0-0.1,0-0.1,0c-0.1,0-0.1-0.1-0.2-0.1c0,0,0-0.1,0-0.1
		c0,0,0,0,0-0.1C6.5,2.1,6.5,2,6.6,2c0.3-0.1,0.5-0.2,0.8-0.4c0,0,0,0,0,0s0,0,0,0C7.2,1.4,7.1,1.3,7,1.2c0,0-0.1-0.1-0.1-0.1
		C6.9,1.1,6.9,1,7,1c0,0,0.1-0.1,0.2-0.1c0.1,0,0.1,0,0.2,0c0.2,0.1,0.3,0.2,0.4,0.3c0,0,0.1,0,0.1,0C8,1.1,8.1,1,8.2,0.8
		c0,0,0,0,0,0c0,0,0,0,0,0h-1c-0.1,0-0.1,0-0.2-0.1S7,0.6,7,0.6S7,0.5,7,0.4s0.1-0.1,0.2-0.1h1.3c0,0,0,0,0,0c0.1,0,0.1,0,0.2,0
		l0.1,0.1c0,0,0.1,0.1,0.1,0.1c0,0,0,0.1,0,0.1c-0.2,0.5-0.6,0.8-1,1.2c0,0,0,0,0,0s0,0,0,0h0.3c0.1,0,0.3,0,0.4,0.1
		c0.1,0.1,0.1,0.2,0.1,0.4v0.7c0,0,0,0,0,0c0,0,0,0,0,0C9,2.9,9.1,2.7,9.1,2.4c0-0.1,0.1-0.3,0.2-0.4c0.1-0.1,0.2-0.1,0.3-0.1h0.7
		c0,0,0,0,0,0c0,0,0,0,0,0C9.8,1.5,9.4,1,9.1,0.5c0-0.1,0-0.1,0-0.2c0-0.1,0.1-0.1,0.1-0.1c0,0,0.1,0,0.1,0c0,0,0.1,0,0.1,0
		c0.1,0,0.1,0.1,0.1,0.1c0.1,0.1,0.2,0.3,0.3,0.4c0,0,0,0,0.1,0c0.2-0.1,0.3-0.3,0.4-0.4c0,0,0.1-0.1,0.2-0.1c0,0,0,0,0,0
		c0.1,0,0.1,0,0.2,0.1c0,0,0.1,0.1,0.1,0.1c0,0.1,0,0.1-0.1,0.2c-0.2,0.1-0.3,0.3-0.5,0.4c0,0,0,0,0,0.1c0.1,0.1,0.2,0.2,0.3,0.2
		c0,0,0.1,0,0.1,0C10.7,1.2,10.9,1.1,11.1,0.9z M10.8,3.5c0.1,0,0.2,0,0.3,0c0,0,0.1,0,0.1,0.1c0,0,0,0.1,0,0.1
		c-0.1,0.4-0.4,0.7-0.6,0.9c0,0,0,0,0,0c0,0,0,0,0,0C10.8,4.9,11.1,5,11.3,5c0.1,0,0.1,0,0.1,0.1c0,0.1,0,0.1,0,0.2
		c0,0.1-0.1,0.1-0.2,0.1c0,0-0.1,0-0.1,0c0,0-0.1,0-0.1,0c-0.3-0.1-0.6-0.2-0.9-0.4c0,0-0.1,0-0.1,0C9.7,5.2,9.4,5.4,9,5.4
		c0,0,0,0-0.1,0c0,0-0.1,0-0.1,0c-0.1,0-0.1-0.1-0.1-0.1c0,0,0-0.1,0-0.1c0-0.1,0.1-0.1,0.1-0.1C9.1,5,9.4,4.9,9.6,4.8c0,0,0,0,0,0
		c0,0,0,0,0,0C9.5,4.6,9.4,4.4,9.2,4.2c0,0,0-0.1,0-0.1c0,0,0-0.1,0-0.1C9.3,4,9.3,4,9.4,3.9v0H9.1C9.1,3.9,9,3.9,9,3.9
		S8.9,3.8,8.9,3.7c0-0.1,0-0.1,0.1-0.1s0.1-0.1,0.1-0.1H10.8z M10.6,4C10.6,4,10.6,4,10.6,4C10.5,3.9,10.5,3.9,10.6,4L9.6,3.9
		c0,0,0,0,0,0c0,0,0,0,0,0C9.7,4.2,9.8,4.3,10,4.5c0,0,0.1,0,0.1,0C10.3,4.3,10.4,4.2,10.6,4z"/>
	<path fill="#FFFFFF" d="M15.4,2.7c-0.1,0.1-0.1,0.1-0.2,0.1s-0.1,0-0.2-0.1C15,2.6,15,2.5,15,2.5v-1c0,0,0-0.1-0.1-0.1h-1.6
		c0,0-0.1,0-0.1,0.1V2c0,0.1,0,0.1-0.1,0.2c0,0-0.1,0.1-0.2,0.1s-0.1,0-0.2-0.1c0,0-0.1-0.1-0.1-0.2V1.6c0-0.1,0-0.3,0.1-0.4
		c0.1-0.1,0.2-0.1,0.4-0.1h1.7c0,0,0.1,0,0.1-0.1V0.8c0,0,0-0.1-0.1-0.1h-1.6c-0.1,0-0.1,0-0.1-0.1s-0.1-0.1-0.1-0.1s0-0.1,0.1-0.1
		s0.1-0.1,0.1-0.1h3.8c0.1,0,0.1,0,0.1,0.1s0.1,0.1,0.1,0.1s0,0.1-0.1,0.1s-0.1,0.1-0.1,0.1h-1.6c0,0-0.1,0-0.1,0.1V1
		c0,0,0,0.1,0.1,0.1h1.7c0.1,0,0.3,0,0.4,0.1s0.1,0.2,0.1,0.4V2c0,0.1,0,0.1-0.1,0.2s-0.1,0.1-0.2,0.1c-0.1,0-0.1,0-0.2-0.1
		S17.2,2,17.2,2V1.5c0,0,0-0.1-0.1-0.1h-1.6c0,0-0.1,0-0.1,0.1v1C15.5,2.5,15.5,2.6,15.4,2.7z M15.9,5h1.2c0.1,0,0.2,0,0.3-0.1
		c0-0.1,0.1-0.2,0.1-0.3c0-0.1,0-0.1,0.1-0.1s0.1,0,0.2,0c0.1,0,0.1,0.1,0.2,0.1c0,0,0,0.1,0,0.1c0,0,0,0,0,0c0,0.3-0.1,0.4-0.2,0.5
		c-0.1,0.1-0.3,0.1-0.6,0.1h-1.3c-0.4,0-0.6,0-0.7-0.1c-0.1-0.1-0.2-0.3-0.2-0.5V4.7c0,0,0-0.1-0.1-0.1h-1.1c0,0,0,0,0,0
		c0,0.1,0,0.1-0.1,0.2c0,0-0.1,0.1-0.2,0.1h0c-0.1,0-0.1,0-0.2-0.1c-0.1-0.1-0.1-0.1-0.1-0.2V3.4c0-0.1,0-0.3,0.1-0.4
		c0.1-0.1,0.2-0.1,0.4-0.1h3c0.1,0,0.3,0,0.4,0.1c0.1,0.1,0.1,0.2,0.1,0.4v0.8c0,0.1,0,0.3-0.1,0.4c-0.1,0.1-0.2,0.1-0.4,0.1h-1.2
		c0,0-0.1,0-0.1,0.1v0.1c0,0.1,0,0.2,0.1,0.2C15.6,5,15.7,5,15.9,5z M13.5,2.6c0,0-0.1,0-0.1,0s0-0.1,0-0.1c0,0,0-0.1,0-0.1
		c0,0,0.1,0,0.1,0h1c0,0,0.1,0,0.1,0c0,0,0,0.1,0,0.1c0,0,0,0.1,0,0.1s-0.1,0-0.1,0H13.5z M13.5,2c0,0,0-0.1,0-0.1s0-0.1,0-0.1
		c0,0,0.1,0,0.1,0h0.9c0,0,0.1,0,0.1,0c0,0,0,0.1,0,0.1s0,0.1,0,0.1s-0.1,0-0.1,0h-0.9C13.6,2,13.6,2,13.5,2z M14.9,3.3
		C14.9,3.3,14.9,3.3,14.9,3.3l-1.1-0.1c0,0-0.1,0-0.1,0.1v0.2c0,0,0,0.1,0.1,0.1h1c0,0,0.1,0,0.1-0.1V3.3z M13.8,4.2
		C13.8,4.3,13.8,4.3,13.8,4.2l1.1,0.1c0,0,0.1,0,0.1-0.1V4c0,0,0-0.1-0.1-0.1h-1c0,0-0.1,0-0.1,0.1V4.2z M16.6,3.6
		C16.7,3.6,16.7,3.6,16.6,3.6l0.1-0.3c0,0,0-0.1-0.1-0.1h-1.1c0,0-0.1,0-0.1,0.1v0.2c0,0,0,0.1,0.1,0.1H16.6z M15.4,4.2
		C15.4,4.3,15.5,4.3,15.4,4.2l1.2,0.1c0,0,0.1,0,0.1-0.1V4c0,0,0-0.1-0.1-0.1h-1.1c0,0-0.1,0-0.1,0.1V4.2z M15.8,2c0,0,0-0.1,0-0.1
		s0-0.1,0-0.1c0,0,0.1,0,0.1,0h0.9c0,0,0.1,0,0.1,0c0,0,0,0.1,0,0.1s0,0.1,0,0.1s-0.1,0-0.1,0h-0.9C15.9,2,15.8,2,15.8,2z M15.9,2.6
		c0,0-0.1,0-0.1,0c0,0,0-0.1,0-0.1c0,0,0-0.1,0-0.1c0,0,0.1,0,0.1,0h1c0,0,0.1,0,0.1,0c0,0,0,0.1,0,0.1c0,0,0,0.1,0,0.1
		s-0.1,0-0.1,0H15.9z"/>
	<path fill="#FFFFFF" d="M19.5,2.4c0.1,0,0.3,0,0.4,0.1C19.9,2.6,20,2.8,20,2.9v1.3c0,0,0,0.1,0,0.1c0.2,0.4,0.7,0.5,1.3,0.6
		c0.3,0,0.6,0,0.9,0c0.5,0,1,0,1.6,0c0.1,0,0.1,0,0.1,0.1C24,5,24,5,24,5c0,0,0,0,0,0.1c0,0.1-0.1,0.1-0.1,0.2
		c-0.1,0.1-0.1,0.1-0.2,0.1c-0.5,0-0.9,0-1.4,0c-0.3,0-0.7,0-1,0c-0.4,0-0.7-0.1-0.9-0.2c-0.3-0.1-0.5-0.3-0.6-0.5c0,0-0.1,0-0.1,0
		c-0.2,0.1-0.3,0.3-0.5,0.5c0,0-0.1,0.1-0.1,0.1c0,0,0,0,0,0c-0.1,0-0.1-0.1-0.2-0.1c0,0,0-0.1,0-0.2c0,0,0-0.1,0-0.1
		c0-0.1,0.1-0.1,0.1-0.2c0.2-0.1,0.3-0.2,0.5-0.4c0,0,0-0.1,0-0.1V3c0,0,0-0.1-0.1-0.1H19c-0.1,0-0.1,0-0.2-0.1c0,0-0.1-0.1-0.1-0.2
		c0-0.1,0-0.1,0.1-0.2c0,0,0.1-0.1,0.2-0.1H19.5z M20,1C20,1,20,1.1,20,1.1c0,0,0,0,0,0c0,0.1,0,0.1-0.1,0.2c0,0-0.1,0.1-0.1,0.1
		c0,0,0,0,0,0c-0.1,0-0.1,0-0.2-0.1c-0.1-0.2-0.3-0.4-0.5-0.6c0,0-0.1-0.1-0.1-0.2c0-0.1,0-0.1,0.1-0.2c0.1,0,0.1-0.1,0.2-0.1
		c0,0,0,0,0,0c0.1,0,0.1,0,0.2,0.1C19.6,0.6,19.8,0.8,20,1z M21,2.5C21,2.5,20.9,2.5,21,2.5l-0.1,1.9c0,0.1,0,0.1-0.1,0.2
		s-0.1,0.1-0.2,0.1c-0.1,0-0.1,0-0.2-0.1c0,0-0.1-0.1-0.1-0.2V2.5c0-0.1,0-0.2,0.1-0.3s0.2-0.1,0.3-0.1c0,0,0,0,0,0V0.8
		c0-0.1,0-0.3,0.1-0.4c0.1-0.1,0.2-0.1,0.4-0.1h1.4c0.1,0,0.3,0,0.4,0.1c0.1,0.1,0.1,0.2,0.1,0.4v1.2c0,0,0,0,0,0
		c0.1,0,0.2,0,0.3,0.1c0.1,0.1,0.1,0.2,0.1,0.3v1.6c0,0.1,0,0.2,0,0.3c0,0.1-0.1,0.1-0.2,0.2c-0.1,0-0.3,0.1-0.5,0.1h0
		c-0.1,0-0.1,0-0.2-0.1c-0.1,0-0.1-0.1-0.1-0.2c0-0.1,0-0.1,0-0.1c0,0,0.1-0.1,0.1-0.1c0,0,0.1,0,0.1,0c0.1,0,0.1,0,0.1,0
		c0.1,0,0.1,0,0.1-0.1V2.6c0,0,0-0.1-0.1-0.1H21z M22.4,2.8c0.1,0,0.3,0,0.4,0.1c0.1,0.1,0.1,0.2,0.1,0.4v0.3c0,0.1,0,0.3-0.1,0.4
		c-0.1,0.1-0.2,0.1-0.4,0.1h-0.6c0,0,0,0,0,0c0,0,0,0.1-0.1,0.1c0,0-0.1,0.1-0.1,0.1h0c-0.1,0-0.1,0-0.1-0.1s-0.1-0.1-0.1-0.1V3.3
		c0-0.1,0-0.3,0.1-0.4c0.1-0.1,0.2-0.1,0.4-0.1H22.4z M21.4,0.7C21.4,0.7,21.4,0.7,21.4,0.7L21.4,2c0,0,0,0.1,0.1,0.1h0.4
		c0,0,0.1,0,0.1-0.1V1.6c0-0.1,0-0.3,0.1-0.4c0.1-0.1,0.2-0.1,0.4-0.1h0.4c0,0,0.1,0,0.1-0.1V0.8c0,0,0-0.1-0.1-0.1H21.4z M22.4,3.7
		C22.4,3.7,22.4,3.7,22.4,3.7l0.1-0.5c0,0,0-0.1-0.1-0.1h-0.6c0,0-0.1,0-0.1,0.1v0.4c0,0,0,0.1,0.1,0.1H22.4z M22.8,2.1
		C22.8,2.1,22.8,2.1,22.8,2.1l0.1-0.5c0,0,0-0.1-0.1-0.1h-0.5c0,0-0.1,0-0.1,0.1V2c0,0,0,0.1,0.1,0.1H22.8z"/>
	<path fill="#FFFFFF" d="M26.9,3.1C27,3.2,27,3.3,27,3.3c0,0.1,0,0.1-0.1,0.2c0,0.1-0.1,0.1-0.2,0.1c-0.1,0-0.1,0-0.1-0.1
		c-0.1-0.1-0.2-0.2-0.3-0.4c0,0,0,0,0,0c0,0,0,0,0,0v2.1c0,0.1,0,0.1-0.1,0.2c-0.1,0.1-0.1,0.1-0.2,0.1s-0.1,0-0.2-0.1
		c-0.1-0.1-0.1-0.1-0.1-0.2v-2c0,0,0,0,0,0c0,0,0,0,0,0c-0.2,0.4-0.4,0.8-0.6,1.1c0,0.1-0.1,0.1-0.1,0.1c-0.1,0-0.1,0-0.1-0.1
		c0-0.1-0.1-0.1-0.1-0.2c0,0,0,0,0,0c0-0.1,0-0.2,0.1-0.2c0.3-0.4,0.5-0.9,0.8-1.4c0,0,0,0,0,0c0,0,0,0,0,0h-0.5
		c-0.1,0-0.1,0-0.2-0.1c-0.1-0.1-0.1-0.1-0.1-0.2c0-0.1,0-0.1,0.1-0.2c0.1,0,0.1-0.1,0.2-0.1h0.6c0,0,0.1,0,0.1-0.1V1c0,0,0,0,0,0
		c0,0,0,0,0,0c-0.1,0-0.3,0.1-0.5,0.1c-0.1,0-0.1,0-0.2,0C25,1,25,0.9,24.9,0.9c0-0.1,0-0.1,0-0.2c0,0,0.1-0.1,0.1-0.1
		c0.5-0.1,1-0.2,1.3-0.3c0,0,0.1,0,0.1,0c0,0,0.1,0,0.1,0c0.1,0,0.2,0.1,0.2,0.1c0,0,0.1,0.1,0.1,0.1c0,0,0,0,0,0.1
		c0,0.1-0.1,0.1-0.1,0.1c-0.1,0-0.3,0.1-0.4,0.1c0,0-0.1,0-0.1,0.1v0.8c0,0,0,0.1,0.1,0.1h0.4c0.1,0,0.1,0,0.2,0.1
		C27,1.9,27,1.9,27,2c0,0.1,0,0.1-0.1,0.2c-0.1,0.1-0.1,0.1-0.2,0.1h-0.4c0,0-0.1,0-0.1,0.1v0.2c0,0,0,0.1,0,0.1
		C26.5,2.7,26.7,2.9,26.9,3.1z M28.9,4.8C28.9,4.9,28.9,4.9,28.9,4.8L30,4.9c0.1,0,0.1,0,0.2,0.1c0,0,0.1,0.1,0.1,0.2s0,0.1-0.1,0.2
		c0,0-0.1,0.1-0.2,0.1h-2.9c-0.1,0-0.1,0-0.2-0.1c0,0-0.1-0.1-0.1-0.2s0-0.1,0.1-0.2c0,0,0.1-0.1,0.2-0.1h1.2c0,0,0.1,0,0.1-0.1V4.3
		c0,0,0-0.1-0.1-0.1h-0.8c-0.1,0-0.1,0-0.2-0.1c0,0-0.1-0.1-0.1-0.2s0-0.1,0.1-0.2s0.1-0.1,0.2-0.1h0.8c0,0,0.1,0,0.1-0.1V3.2
		c0,0,0-0.1-0.1-0.1h-0.9c-0.1,0-0.1,0-0.2-0.1S27.1,3,27.1,2.9c0-0.1,0-0.1,0.1-0.2c0,0,0.1-0.1,0.2-0.1h2.5c0.1,0,0.1,0,0.2,0.1
		c0,0,0.1,0.1,0.1,0.2c0,0.1,0,0.1-0.1,0.2s-0.1,0.1-0.2,0.1h-0.9c0,0-0.1,0-0.1,0.1v0.5c0,0,0,0.1,0.1,0.1h0.8c0.1,0,0.1,0,0.2,0.1
		c0,0,0.1,0.1,0.1,0.2s0,0.1-0.1,0.2c0,0-0.1,0.1-0.2,0.1h-0.8c0,0-0.1,0-0.1,0.1V4.8z M29.4,0.4c0.1,0,0.3,0,0.4,0.1
		c0.1,0.1,0.1,0.2,0.1,0.4v0.9c0,0.1,0,0.3-0.1,0.4c-0.1,0.1-0.2,0.1-0.4,0.1h-1.6c-0.1,0-0.3,0-0.4-0.1c-0.1-0.1-0.1-0.2-0.1-0.4
		V0.9c0-0.1,0-0.3,0.1-0.4c0.1-0.1,0.2-0.1,0.4-0.1H29.4z M29.3,1.8C29.4,1.8,29.4,1.8,29.3,1.8l0.1-0.9c0,0,0-0.1-0.1-0.1h-1.5
		c0,0-0.1,0-0.1,0.1v0.8c0,0,0,0.1,0.1,0.1H29.3z"/>
	<path fill="#FFFFFF" d="M34,1.1C34,1.1,34,1.1,34,1.1l1.6,0.1c0.1,0,0.3,0,0.4,0.1C36,1.4,36,1.5,36,1.6v2c0,0.1,0,0.1-0.1,0.2
		C35.9,3.9,35.8,4,35.8,4s-0.1,0-0.2-0.1c-0.1-0.1-0.1-0.1-0.1-0.2c0,0,0,0,0,0H34c0,0-0.1,0-0.1,0.1v1.5c0,0.1,0,0.1-0.1,0.2
		c-0.1,0.1-0.1,0.1-0.2,0.1s-0.1,0-0.2-0.1c-0.1-0.1-0.1-0.1-0.1-0.2V3.7c0,0,0-0.1-0.1-0.1h-1.4c0,0,0,0,0,0v0c0,0.1,0,0.1-0.1,0.2
		C31.7,4,31.7,4,31.6,4s-0.1,0-0.2-0.1c-0.1-0.1-0.1-0.1-0.1-0.2V1.6c0-0.1,0-0.3,0.1-0.4c0.1-0.1,0.2-0.1,0.4-0.1h1.5
		c0,0,0.1,0,0.1-0.1V0.4c0-0.1,0-0.1,0.1-0.2c0.1-0.1,0.1-0.1,0.2-0.1s0.1,0,0.2,0.1C33.9,0.3,34,0.3,34,0.4V1.1z M31.9,3
		C31.9,3.1,31.9,3.1,31.9,3l1.5,0.1c0,0,0.1,0,0.1-0.1V1.7c0,0,0-0.1-0.1-0.1h-1.4c0,0-0.1,0-0.1,0.1V3z M34,3C34,3.1,34,3.1,34,3
		l1.5,0.1c0,0,0.1,0,0.1-0.1V1.7c0,0,0-0.1-0.1-0.1H34c0,0-0.1,0-0.1,0.1V3z"/>
	<path fill="#FFFFFF" d="M38.7,0.4c0,0,0.1,0,0.1,0l0.1,0.1c0,0,0.1,0.1,0.1,0.1c0,0.1,0,0.1,0,0.2c-0.2,0.6-0.4,1-0.5,1.3
		c0,0,0,0.1,0,0.1C38.9,2.5,39,2.9,39,3.3C39,3.7,39,3.9,38.8,4c-0.1,0.1-0.2,0.1-0.3,0.1c0,0-0.1,0-0.1,0c0,0,0,0,0,0
		c-0.1,0-0.1,0-0.2-0.1c-0.1,0-0.1-0.1-0.1-0.2c0-0.1,0-0.1,0-0.1c0,0,0.1-0.1,0.1-0.1c0,0,0,0,0.1,0c0.1,0,0.1,0,0.2-0.1
		c0.1,0,0.1-0.2,0.1-0.4c0-0.2-0.1-0.5-0.2-0.7c-0.1-0.2-0.2-0.4-0.2-0.6c0-0.1,0-0.2,0-0.3c0.1-0.2,0.2-0.5,0.2-0.8c0,0,0,0,0,0
		c0,0,0,0,0,0h-0.5c0,0-0.1,0-0.1,0.1v4.3c0,0.1,0,0.1-0.1,0.2c0,0-0.1,0.1-0.2,0.1s-0.1,0-0.2-0.1c0,0-0.1-0.1-0.1-0.2V0.9
		c0-0.1,0-0.3,0.1-0.4c0.1-0.1,0.2-0.1,0.4-0.1H38.7C38.7,0.4,38.7,0.4,38.7,0.4z M39.4,3.9c0-0.1,0.1-0.1,0.1-0.1c0,0,0.1,0,0.1,0
		c0,0,0,0,0.1,0c0.1,0,0.1,0.1,0.1,0.1c0,0.1,0,0.1,0,0.2c-0.2,0.4-0.4,0.7-0.6,1c0,0.1-0.1,0.1-0.2,0.1c0,0,0,0,0,0
		C39.1,5.1,39,5,39,5c-0.1,0-0.1-0.1-0.1-0.2c0-0.1,0-0.1,0.1-0.1C39.2,4.4,39.3,4.2,39.4,3.9z M42.2,3c0,0,0.1,0.1,0.1,0.2
		c0,0.1,0,0.1-0.1,0.2c0,0-0.1,0.1-0.2,0.1h-1c0,0-0.1,0-0.1,0.1v1.5c0,0.1,0,0.2,0,0.3c0,0.1-0.1,0.1-0.2,0.2
		c-0.1,0-0.3,0.1-0.5,0.1c0,0,0,0,0,0c-0.1,0-0.1,0-0.2-0.1c-0.1,0-0.1-0.1-0.1-0.2c0-0.1,0-0.1,0-0.2C40,5,40,5,40.1,5
		c0,0,0.1,0,0.1,0c0,0,0.1,0,0.1,0s0.1,0,0.1,0c0,0,0.1,0,0.1,0c0,0,0,0,0-0.1V3.4c0,0,0-0.1-0.1-0.1h-0.9c-0.1,0-0.1,0-0.2-0.1
		c0,0-0.1-0.1-0.1-0.2c0-0.1,0-0.1,0.1-0.2c0,0,0.1-0.1,0.2-0.1h0.9c0,0,0.1,0,0.1-0.1V2.3c0,0,0-0.1-0.1-0.1H40
		c-0.1,0-0.2,0-0.3-0.1c-0.1-0.1-0.1-0.2-0.1-0.3c0,0,0,0,0,0c0,0,0,0,0,0C39.5,1.9,39.4,2,39.3,2c0,0-0.1,0-0.1,0c0,0,0,0-0.1,0
		C39.1,2.1,39,2,39,2c0,0,0-0.1,0-0.1c0,0,0,0,0-0.1c0-0.1,0-0.1,0.1-0.2c0.2-0.2,0.5-0.4,0.7-0.6c0.2-0.2,0.4-0.5,0.6-0.7
		c0.1-0.1,0.2-0.2,0.4-0.2c0.2,0,0.3,0.1,0.4,0.2c0.4,0.5,0.8,0.9,1.3,1.2c0.1,0,0.1,0.1,0.1,0.2c0,0,0,0,0,0.1c0,0,0,0.1,0,0.1
		C42.4,2,42.3,2,42.3,2c0,0,0,0-0.1,0c0,0-0.1,0-0.1,0C42,2,42,1.9,41.9,1.9c0,0,0,0,0,0s0,0,0,0c0,0.1,0,0.2-0.1,0.3
		c-0.1,0.1-0.2,0.1-0.3,0.1H41c0,0-0.1,0-0.1,0.1v0.5c0,0,0,0.1,0.1,0.1h1C42.1,2.9,42.2,2.9,42.2,3z M39.7,1.8
		C39.7,1.8,39.7,1.8,39.7,1.8C39.7,1.8,39.7,1.8,39.7,1.8l2.1,0c0,0,0,0,0,0c0,0,0,0,0,0c-0.4-0.4-0.8-0.7-1-1.1c0,0,0,0,0,0
		s0,0,0,0C40.4,1.1,40.1,1.4,39.7,1.8z M41.4,4c0,0,0-0.1,0-0.1c0,0,0,0,0-0.1c0-0.1,0-0.1,0.1-0.1c0,0,0.1,0,0.1,0c0,0,0,0,0.1,0
		c0.1,0,0.1,0,0.2,0.1c0.2,0.3,0.4,0.6,0.5,0.9c0,0,0,0.1,0,0.1c0,0,0,0.1,0,0.1c0,0.1-0.1,0.1-0.1,0.1c0,0-0.1,0-0.1,0
		c0,0-0.1,0-0.1,0C42,5,42,5,41.9,4.9C41.8,4.6,41.6,4.3,41.4,4z"/>
	<path fill="#FFFFFF" d="M47.8,0.5C47.8,0.5,47.8,0.5,47.8,0.5c0.1,0,0.2,0,0.2,0l0.1,0.1c0.1,0,0.1,0.1,0.1,0.2c0,0,0,0,0,0
		c0,0.1,0,0.1-0.1,0.2c-0.3,0.3-0.5,0.6-0.9,0.8c-0.3,0.3-0.6,0.5-0.9,0.7c0,0-0.1,0-0.1,0.1v2.2c0,0.2,0,0.3-0.1,0.4
		c0,0.1-0.1,0.2-0.3,0.2c-0.2,0.1-0.5,0.1-0.9,0.1c-0.1,0-0.2,0-0.2-0.1c-0.1-0.1-0.1-0.1-0.2-0.2c0,0,0-0.1,0-0.1c0,0,0-0.1,0-0.1
		C44.7,5,44.7,5,44.8,5h0c0.2,0,0.4,0,0.5,0c0.1,0,0.2,0,0.3,0c0.1,0,0.1,0,0.1,0c0,0,0-0.1,0-0.1V2.4c0-0.1,0-0.2,0.1-0.2
		c0.1-0.1,0.1-0.1,0.2-0.1c0,0,0,0,0.1,0c0.4-0.3,0.8-0.6,1.1-0.9c0,0,0,0,0,0c0,0,0,0,0,0h-3.3c-0.1,0-0.1,0-0.2-0.1
		c-0.1-0.1-0.1-0.1-0.1-0.2s0-0.1,0.1-0.2c0.1-0.1,0.1-0.1,0.2-0.1L47.8,0.5C47.7,0.6,47.7,0.6,47.8,0.5z"/>
	<path fill="#FFFFFF" d="M49.7,1.4c0,0,0-0.1,0.1-0.1c0,0,0.1,0,0.1,0c0,0,0.1,0,0.1,0.1s0,0.1,0,0.1c0,0.5-0.1,0.9-0.2,1.2
		c0,0-0.1,0.1-0.1,0.1c-0.1,0-0.1,0-0.1,0s-0.1-0.1-0.1-0.1c0,0,0,0,0-0.1c0,0,0-0.1,0-0.1C49.6,2.2,49.7,1.8,49.7,1.4z M51.1,4
		c0,0.1,0.1,0.1,0.1,0.2c0,0,0,0,0,0c0,0.1,0,0.1-0.1,0.2c0,0-0.1,0.1-0.2,0.1c-0.1,0-0.1,0-0.1-0.1c-0.1-0.1-0.1-0.2-0.2-0.4
		c0,0,0,0,0,0s0,0,0,0c-0.1,0.5-0.3,1-0.6,1.4c0,0.1-0.1,0.1-0.2,0.1c-0.1,0-0.1,0-0.2-0.1c0-0.1-0.1-0.1-0.1-0.2c0,0,0,0,0,0
		c0-0.1,0-0.1,0.1-0.2c0.1-0.2,0.2-0.4,0.3-0.6s0.1-0.5,0.2-0.7c0-0.3,0.1-0.5,0.1-0.7c0-0.2,0-0.5,0-0.7V0.4c0-0.1,0-0.1,0.1-0.2
		s0.1-0.1,0.2-0.1s0.1,0,0.2,0.1s0.1,0.1,0.1,0.2v1.4c0,0,0,0,0,0s0,0,0,0c0.1-0.2,0.2-0.4,0.2-0.6C50.9,1.1,51,1,51,1s0.1,0,0.2,0
		c0.1,0,0.1,0.1,0.1,0.1c0,0.1,0,0.1,0,0.2C51.1,1.7,51,2,51,2c0,0-0.1,0.1-0.1,0.1c-0.1,0-0.1,0-0.1,0c0,0,0,0,0,0v0
		c0,0.4,0,0.8,0,1c0,0,0,0.1,0,0.1C50.8,3.5,51,3.7,51.1,4z M51.5,5.3c0,0.1-0.1,0.1-0.2,0.1c0,0,0,0,0,0c-0.1,0-0.1,0-0.1,0
		C51,5.3,51,5.3,51,5.2c0,0,0-0.1,0.1-0.1c0.2-0.2,0.3-0.5,0.4-0.8c0-0.1,0.1-0.1,0.1-0.1c0.1,0,0.1,0,0.2,0c0.1,0,0.1,0.1,0.1,0.1
		s0,0.1,0,0.2C51.8,4.8,51.6,5.1,51.5,5.3z M53.2,1.8c-0.1,0-0.1,0-0.2-0.1C53,1.7,53,1.6,53,1.5h0c-0.2,1.1-0.7,1.9-1.3,2.4
		c0,0-0.1,0-0.1,0c0,0,0,0,0,0c-0.1,0-0.1,0-0.2-0.1c0,0-0.1-0.1-0.1-0.2c0-0.1,0-0.1,0.1-0.2c0.2-0.2,0.4-0.4,0.6-0.7
		c0,0,0-0.1,0-0.1c-0.1-0.1-0.2-0.2-0.4-0.3c0,0,0,0,0,0c0,0,0,0,0,0.1c0,0-0.1,0.1-0.1,0.1c-0.1,0-0.1,0-0.2,0c0,0-0.1-0.1-0.1-0.2
		c0-0.1,0-0.1,0-0.2c0.3-0.5,0.6-1.1,0.7-1.9c0-0.1,0-0.1,0.1-0.1c0,0,0.1,0,0.1,0c0,0,0,0,0,0c0.1,0,0.1,0,0.1,0.1
		c0,0.1,0,0.1,0,0.2c0,0.1,0,0.2-0.1,0.2c0,0,0,0,0,0c0,0,0,0,0,0h0.5c0,0,0,0,0,0c0,0,0.1,0,0.1,0l0.1,0c0,0,0.1,0,0.1,0.1
		c0,0,0,0.1,0,0.1c0,0.2,0,0.3-0.1,0.4c0,0,0,0,0,0c0,0,0,0,0,0h0.4c0,0,0.1,0,0.1-0.1V1.2V0.4c0-0.1,0-0.1,0.1-0.2
		c0,0,0.1-0.1,0.2-0.1s0.1,0,0.2,0.1c0,0,0.1,0.1,0.1,0.2v0.9v0c0,0,0,0.1,0.1,0.1h0.5c0.1,0,0.1,0,0.2,0.1c0,0,0.1,0.1,0.1,0.2
		c0,0.1,0,0.1-0.1,0.2c0,0-0.1,0.1-0.2,0.1h-0.5c0,0,0,0,0,0c0,0,0,0,0,0c0.1,0.7,0.4,1.2,0.7,1.6c0,0.1,0.1,0.1,0.1,0.2
		c0,0.1,0,0.1-0.1,0.2c0,0.1-0.1,0.1-0.2,0.1c0,0,0,0,0,0c-0.1,0-0.1,0-0.2-0.1c-0.2-0.3-0.4-0.6-0.6-1.1c0,0,0,0,0,0s0,0,0,0
		c-0.2,0.5-0.5,0.9-0.8,1.2c0,0-0.1,0.1-0.1,0.1c0,0,0,0,0,0c-0.1,0-0.1,0-0.2-0.1c0,0-0.1-0.1-0.1-0.2s0-0.1,0.1-0.1
		c0.5-0.4,0.8-1,0.9-1.7c0,0,0,0,0,0c0,0,0,0,0,0H53.2z M51.7,2C51.7,2.1,51.7,2.1,51.7,2c0.2,0.2,0.3,0.3,0.4,0.4c0,0,0.1,0,0.1,0
		c0-0.1,0.1-0.2,0.1-0.3c0,0,0-0.1,0-0.1c-0.1-0.1-0.3-0.2-0.4-0.2c0,0-0.1,0-0.1,0C51.8,1.9,51.8,2,51.7,2z M52.6,1.2
		C52.6,1.2,52.6,1.1,52.6,1.2C52.6,1.1,52.6,1.1,52.6,1.2l-0.5-0.1c0,0-0.1,0-0.1,0.1c0,0.1,0,0.1-0.1,0.2c0,0,0,0.1,0,0.1
		c0.1,0.1,0.3,0.1,0.4,0.2c0,0,0,0,0,0c0,0,0,0,0,0C52.5,1.5,52.6,1.3,52.6,1.2z M52.3,4.5C52.3,4.5,52.3,4.5,52.3,4.5
		c0-0.1,0-0.1,0-0.2c0,0,0.1-0.1,0.1-0.1c0.1,0,0.1,0,0.2,0c0.1,0,0.1,0.1,0.1,0.1c0.1,0.3,0.1,0.5,0.1,0.7c0,0.1,0,0.1-0.1,0.2
		c0,0-0.1,0.1-0.2,0.1c0,0,0,0,0,0c0,0-0.1,0-0.1-0.1c0,0-0.1-0.1-0.1-0.2C52.3,5,52.3,4.7,52.3,4.5z M53.1,4.5
		C53.1,4.5,53.1,4.5,53.1,4.5c0-0.1,0-0.1,0-0.2c0,0,0.1-0.1,0.1-0.1c0.1,0,0.1,0,0.2,0c0.1,0,0.1,0.1,0.1,0.1
		c0.1,0.2,0.2,0.5,0.2,0.7c0,0,0,0,0,0.1c0,0,0,0.1,0,0.1c0,0.1-0.1,0.1-0.1,0.1c-0.1,0-0.1,0-0.2,0s-0.1-0.1-0.1-0.1
		C53.3,5,53.2,4.7,53.1,4.5z M54,4.4C54,4.4,54,4.3,54,4.4c0-0.1,0-0.1,0-0.2c0-0.1,0.1-0.1,0.1-0.1c0,0,0.1,0,0.1,0s0.1,0,0.1,0
		c0.1,0,0.1,0.1,0.1,0.1c0.2,0.3,0.3,0.5,0.4,0.8c0,0,0,0.1,0,0.1c0,0,0,0.1,0,0.1c0,0.1-0.1,0.1-0.1,0.1c0,0-0.1,0-0.1,0
		c0,0-0.1,0-0.1,0c-0.1,0-0.1-0.1-0.1-0.1C54.3,5,54.2,4.7,54,4.4z M54.7,0.9c0,0.1,0,0.1,0,0.2c0,0.1-0.1,0.1-0.1,0.1
		c0,0-0.1,0-0.1,0S54.4,1.1,54.4,1c-0.1-0.2-0.1-0.3-0.2-0.5c0,0,0-0.1,0-0.1c0,0,0-0.1,0.1-0.1s0.1,0,0.2,0c0.1,0,0.1,0.1,0.1,0.1
		C54.6,0.6,54.7,0.7,54.7,0.9z"/>
	<path fill="#FFFFFF" d="M57.1,2.6C57.1,2.6,57.1,2.6,57.1,2.6C57.1,2.6,57.1,2.7,57.1,2.6c0.1,0.3,0.4,0.5,0.7,0.9
		c0,0.1,0.1,0.1,0.1,0.2c0,0.1,0,0.2-0.1,0.2c0,0-0.1,0.1-0.2,0.1c-0.1,0-0.1,0-0.1-0.1c-0.1-0.2-0.2-0.4-0.4-0.6c0,0,0,0,0,0
		c0,0,0,0,0,0v1.9c0,0.1,0,0.1-0.1,0.2c0,0-0.1,0.1-0.2,0.1s-0.1,0-0.2-0.1c0,0-0.1-0.1-0.1-0.2V3.3c0,0,0,0,0,0s0,0,0,0
		c-0.2,0.5-0.4,0.9-0.6,1.2c0,0.1-0.1,0.1-0.1,0.1c-0.1,0-0.1,0-0.1-0.1c0-0.1-0.1-0.2-0.1-0.2c0-0.1,0-0.2,0.1-0.3
		c0.3-0.4,0.5-0.9,0.6-1.4c0,0,0,0,0,0c0,0,0,0,0,0h-0.4c-0.1,0-0.1,0-0.2-0.1c0,0-0.1-0.1-0.1-0.2c0-0.1,0-0.1,0.1-0.2
		c0,0,0.1-0.1,0.2-0.1h0.6c0,0,0.1,0,0.1-0.1V0.4c0-0.1,0-0.1,0.1-0.2c0,0,0.1-0.1,0.2-0.1s0.1,0,0.2,0.1c0,0,0.1,0.1,0.1,0.2V2
		c0,0,0,0.1,0.1,0.1h0.6c0.1,0,0.1,0,0.2,0.1c0,0,0.1,0.1,0.1,0.2c0,0.1,0,0.1-0.1,0.2c0,0-0.1,0.1-0.2,0.1H57.1z M56.3,1.6
		c0,0.1,0,0.1,0,0.2c0,0.1-0.1,0.1-0.1,0.1c-0.1,0-0.1,0-0.2,0c0,0-0.1-0.1-0.1-0.1c0-0.3-0.1-0.6-0.2-0.9c0-0.1,0-0.1,0-0.1
		c0,0,0.1-0.1,0.1-0.1c0.1,0,0.1,0,0.2,0c0,0,0.1,0.1,0.1,0.1C56.2,1,56.3,1.3,56.3,1.6z M57.5,0.7c0-0.1,0-0.1,0.1-0.2
		c0,0,0.1,0,0.1,0c0,0,0,0,0.1,0c0.1,0,0.1,0.1,0.1,0.1c0,0,0,0.1,0,0.1c0,0,0,0,0,0.1c-0.1,0.4-0.3,0.7-0.3,0.9
		c0,0-0.1,0.1-0.1,0.1c0,0-0.1,0-0.1,0s-0.1,0-0.1-0.1c0,0,0-0.1,0-0.1C57.3,1.3,57.4,1,57.5,0.7z M61,3.5C61,3.5,61,3.5,61,3.5
		c0,0.1,0,0.1,0,0.2c0,0.1-0.1,0.1-0.2,0.1l-0.4,0.1c0,0-0.1,0-0.1,0.1v1.3c0,0.1,0,0.1-0.1,0.2c0,0-0.1,0.1-0.2,0.1s-0.1,0-0.2-0.1
		c0,0-0.1-0.1-0.1-0.2V4c0,0,0,0,0,0c0,0,0,0,0,0l-1.4,0.3c0,0,0,0-0.1,0c0,0-0.1,0-0.1,0C58,4.2,58,4.1,58,4c0,0,0,0,0,0
		c0-0.1,0-0.1,0-0.1c0-0.1,0.1-0.1,0.2-0.1l1.5-0.3c0,0,0.1,0,0.1-0.1v-3c0-0.1,0-0.1,0.1-0.2c0,0,0.1-0.1,0.2-0.1s0.1,0,0.2,0.1
		c0,0,0.1,0.1,0.1,0.2v2.9c0,0,0,0,0,0c0,0,0,0,0,0l0.3-0.1c0,0,0,0,0,0c0.1,0,0.1,0,0.1,0.1C60.9,3.4,61,3.4,61,3.5z M59.1,2.4
		c0.1,0,0.1,0.1,0.1,0.2c0,0,0,0,0,0c0,0.1,0,0.1-0.1,0.2c0,0.1-0.1,0.1-0.1,0.1c0,0,0,0,0,0c-0.1,0-0.1,0-0.1-0.1
		c-0.2-0.1-0.4-0.3-0.6-0.4c-0.1,0-0.1-0.1-0.1-0.1c0-0.1,0-0.1,0-0.2c0-0.1,0.1-0.1,0.1-0.1c0,0,0,0,0.1,0c0,0,0.1,0,0.1,0
		C58.8,2.2,58.9,2.3,59.1,2.4z M59.4,1c0.1,0,0.1,0.1,0.1,0.2c0,0,0,0,0,0c0,0.1,0,0.1-0.1,0.2c0,0-0.1,0.1-0.1,0.1
		c-0.1,0-0.1,0-0.2-0.1c-0.2-0.1-0.3-0.3-0.5-0.4c-0.1,0-0.1-0.1-0.1-0.1c0-0.1,0-0.1,0-0.2c0-0.1,0.1-0.1,0.2-0.1c0,0,0,0,0.1,0
		c0,0,0.1,0,0.1,0C59,0.8,59.2,0.9,59.4,1z"/>
	<path fill="#FFFFFF" d="M63.3,4.7c0.1,0.1,0.1,0.1,0.1,0.2c0,0.1,0,0.2-0.1,0.3c-0.1,0-0.1,0.1-0.2,0.1c0,0,0,0,0,0
		c-0.1,0-0.2,0-0.2-0.1c-0.3-0.3-0.5-0.6-0.8-0.8c-0.1-0.1-0.1-0.1-0.1-0.2c0-0.1,0-0.2,0.1-0.2c0.1-0.1,0.1-0.1,0.2-0.1h0
		c0.1,0,0.2,0,0.2,0.1C62.8,4.1,63.1,4.4,63.3,4.7z"/>
	<path fill="#FFFFFF" d="M72.3,3.8c0-0.1,0.1-0.1,0.1-0.1c0,0,0.1,0,0.1,0c0,0,0.1,0,0.1,0c0.1,0,0.1,0.1,0.1,0.1c0,0.1,0,0.1,0,0.2
		c-0.1,0.2-0.3,0.5-0.5,0.7c0,0,0,0.1,0,0.1C72.4,4.9,72.6,5,72.7,5c0.1,0,0.1,0,0.1-0.1S73,4.8,73,4.6c0,0,0-0.1,0.1-0.1
		s0.1,0,0.1,0c0.1,0,0.1,0.1,0.1,0.1c0,0,0,0.1,0,0.1c0,0,0,0,0,0.1c0,0.2-0.1,0.4-0.2,0.5c-0.1,0.1-0.2,0.1-0.4,0.1
		c-0.3,0-0.6-0.2-0.8-0.5c0,0,0,0-0.1,0c-0.2,0.2-0.5,0.3-0.7,0.4c0,0-0.1,0-0.1,0c0,0,0,0-0.1,0c-0.1,0-0.1,0-0.2-0.1
		c0,0,0-0.1,0-0.1c0-0.1,0-0.1,0.1-0.1c0.3-0.1,0.6-0.3,0.8-0.5c0,0,0-0.1,0-0.1c-0.1-0.3-0.2-0.6-0.3-0.9c0,0,0-0.1-0.1-0.1h-0.7
		c0,0-0.1,0-0.1,0.1c0,0,0,0.1,0,0.2c0,0,0,0.1,0,0.1C70.8,4,71,4.1,71.1,4.2c0.1,0,0.1,0.1,0.1,0.2c0,0.1,0,0.1-0.1,0.2
		c0,0-0.1,0.1-0.2,0.1c-0.1,0-0.1,0-0.2-0.1c-0.1-0.1-0.2-0.2-0.3-0.3c0,0,0,0,0,0c0,0,0,0,0,0c-0.1,0.4-0.3,0.8-0.6,1
		c0,0-0.1,0.1-0.2,0c-0.1,0-0.1,0-0.2-0.1c0,0-0.1-0.1-0.1-0.2s0-0.1,0.1-0.2c0.3-0.3,0.5-0.8,0.5-1.4c0,0,0,0,0,0H70
		c-0.1,0-0.1,0-0.2-0.1c-0.1-0.1-0.1-0.1-0.1-0.2c0,0,0,0,0,0s0,0,0,0v0c0,0.1-0.1,0.1-0.2,0.1c-0.1,0-0.1,0-0.1-0.1
		c-0.1-0.1-0.1-0.3-0.2-0.4c0,0,0,0,0,0c0,0,0,0,0,0v2.5c0,0.1,0,0.1-0.1,0.2c0,0-0.1,0.1-0.2,0.1s-0.1,0-0.2-0.1
		c0,0-0.1-0.1-0.1-0.2V3.1c0,0,0,0,0,0s0,0,0,0c-0.1,0.5-0.3,0.8-0.4,1.1c0,0-0.1,0.1-0.1,0.1c-0.1,0-0.1,0-0.1-0.1
		c0-0.1-0.1-0.2-0.1-0.2c0-0.1,0-0.1,0.1-0.2c0.3-0.5,0.5-1.1,0.6-1.8c0,0,0,0,0,0c0,0,0,0,0,0h-0.3c-0.1,0-0.1,0-0.2-0.1
		c0,0-0.1-0.1-0.1-0.2c0-0.1,0-0.1,0.1-0.2c0,0,0.1-0.1,0.2-0.1h0.4c0,0,0.1,0,0.1-0.1V0.4c0-0.1,0-0.1,0.1-0.2c0,0,0.1-0.1,0.2-0.1
		s0.1,0,0.2,0.1c0,0,0.1,0.1,0.1,0.2v0.9c0,0,0,0.1,0.1,0.1h0.3c0.1,0,0.1,0,0.2,0.1c0,0,0.1,0.1,0.1,0.2c0,0.1,0,0.1-0.1,0.2
		c0,0-0.1,0.1-0.2,0.1h-0.3c0,0-0.1,0-0.1,0.1v0.1c0,0,0,0.1,0,0.1c0.2,0.2,0.3,0.5,0.5,0.9c0,0,0,0.1,0.1,0.1h1.4c0,0,0,0,0,0
		c0,0,0,0,0,0c-0.1-0.8-0.2-1.7-0.2-2.7c0-0.1,0-0.1,0.1-0.2s0.1-0.1,0.2-0.1c0.1,0,0.1,0,0.2,0.1c0,0,0.1,0.1,0.1,0.2v0
		c0,0.2,0,0.4,0,0.7c0,0,0,0,0,0c0,0,0,0,0,0L71.7,1c0,0,0,0,0.1,0c0,0,0.1,0,0.1,0c0,0,0,0,0,0c0.1-0.2,0.2-0.4,0.2-0.6
		c0-0.1,0.1-0.1,0.1-0.1c0.1,0,0.1,0,0.2,0c0.1,0,0.1,0.1,0.1,0.1c0,0.1,0,0.1,0,0.2c-0.2,0.3-0.3,0.5-0.3,0.6c0,0,0,0.1,0,0.1
		c0.1,0.1,0.1,0.1,0.1,0.1c0,0,0,0,0,0c0,0,0,0,0,0c0.1-0.1,0.2-0.3,0.2-0.4c0-0.1,0.1-0.1,0.1-0.1c0.1,0,0.1,0,0.2,0
		C73,0.9,73,0.9,73,1c0,0.1,0,0.1,0,0.2c-0.2,0.4-0.5,0.7-0.7,1c0,0,0,0,0,0c0,0,0,0,0,0l0.4,0c0,0,0,0,0,0c0,0,0-0.1,0-0.1
		c0,0,0-0.1,0-0.1c0,0,0-0.1,0.1-0.1c0,0,0.1,0,0.1,0s0.1,0,0.1,0.1c0.1,0.2,0.2,0.4,0.2,0.5c0,0,0,0.1,0,0.1c0,0-0.1,0.1-0.1,0.1
		c0,0-0.1,0-0.1,0S73,2.6,73,2.6c0,0,0,0,0,0c0,0,0,0,0,0c0,0-0.1,0-0.2,0c-0.1,0-0.2,0-0.3,0c0,0,0,0,0,0c0,0,0,0,0,0
		c0.1,0.1,0.3,0.2,0.4,0.3c0,0,0,0.1,0,0.1s0,0.1,0,0.1c0,0,0,0,0,0H73c0.1,0,0.1,0,0.2,0.1s0.1,0.1,0.1,0.2s0,0.1-0.1,0.2
		S73.1,3.5,73,3.5h-1.1c0,0,0,0,0,0c0,0,0,0,0,0C71.9,3.8,72,4,72,4.2c0,0,0,0,0,0s0,0,0,0C72.2,4,72.3,3.9,72.3,3.8z M69.7,2.5
		c0,0,0-0.1,0-0.1c0,0,0.1-0.1,0.1-0.1c0,0,0,0,0,0C69.9,2.2,70,2,70.2,1.8c0,0,0-0.1,0-0.1c-0.1-0.1-0.3-0.3-0.4-0.4
		c0,0-0.1-0.1-0.1-0.1c0-0.1,0-0.1,0-0.1l0,0c0,0,0.1,0,0.1-0.1c0,0,0.1,0,0.1,0c0,0,0,0,0,0c0.1-0.2,0.2-0.4,0.2-0.6
		c0-0.1,0.1-0.1,0.1-0.1c0.1,0,0.1,0,0.2,0c0.1,0,0.1,0.1,0.1,0.1c0,0.1,0,0.1,0,0.2c-0.2,0.3-0.3,0.5-0.3,0.6c0,0,0,0.1,0,0.1
		c0,0,0.1,0.1,0.1,0.1c0,0,0,0,0,0c0,0,0,0,0,0c0.1-0.1,0.2-0.3,0.2-0.4c0-0.1,0.1-0.1,0.1-0.1c0.1,0,0.1,0,0.2,0
		C71,0.9,71,0.9,71.1,1c0,0.1,0,0.1,0,0.2c-0.3,0.4-0.5,0.8-0.7,1.1c0,0,0,0,0,0c0,0,0,0,0,0l0.4,0c0,0,0,0,0,0c0,0,0-0.1-0.1-0.1
		c0,0,0-0.1,0-0.1s0-0.1,0.1-0.1c0,0,0.1,0,0.1,0c0,0,0.1,0,0.1,0.1c0.1,0.2,0.1,0.4,0.2,0.5c0,0,0,0.1,0,0.1c0,0-0.1,0.1-0.1,0.1
		l0,0c0,0-0.1,0-0.1,0c0,0-0.1-0.1-0.1-0.1c0,0,0,0,0,0c-0.4,0-0.7,0.1-0.9,0.1c-0.1,0-0.1,0-0.2,0C69.7,2.6,69.7,2.6,69.7,2.5
		L69.7,2.5z M71.7,2.4c0,0,0-0.1,0-0.1c0,0,0.1-0.1,0.1-0.1c0,0,0,0,0,0C72,2.1,72.1,2,72.2,1.8c0,0,0-0.1,0-0.1
		c-0.1-0.2-0.3-0.3-0.5-0.5c0,0,0,0,0,0c0,0,0,0,0,0c0,0.7,0.1,1.2,0.1,1.8c0,0,0,0.1,0.1,0.1h0.6c0,0,0,0,0,0c0,0,0,0,0,0
		c0,0-0.1-0.1-0.1-0.1c-0.1-0.1-0.1-0.1-0.1-0.2c0-0.1,0-0.1,0.1-0.2c0,0,0,0,0,0c0,0,0,0,0,0l-0.3,0c-0.1,0-0.1,0-0.2,0
		S71.7,2.5,71.7,2.4L71.7,2.4z"/>
	<path fill="#FFFFFF" d="M79.3,2.5c0,0,0.1,0.1,0.1,0.2c0,0.1,0,0.1-0.1,0.2s-0.1,0.1-0.2,0.1h-1.2c0,0,0,0,0,0c0,0,0,0,0,0
		c0.4,0.3,0.8,0.5,1.4,0.7c0.1,0,0.1,0.1,0.1,0.1c0,0,0,0,0,0.1c0,0,0,0.1,0,0.1C79.3,4,79.2,4,79.2,4c0,0-0.1,0-0.1,0
		c0,0-0.1,0-0.1,0c0,0,0,0,0,0c0,0,0,0,0,0v1.2c0,0.1,0,0.1-0.1,0.2c0,0-0.1,0.1-0.2,0.1h-0.1c0,0-0.1,0-0.1,0c0,0,0-0.1,0-0.1
		c0,0,0,0,0,0h-0.9c0,0,0,0,0,0c0,0,0,0.1-0.1,0.1s-0.1,0.1-0.1,0.1h-0.1c-0.1,0-0.1,0-0.2-0.1c0,0-0.1-0.1-0.1-0.2V4.1
		c0-0.1,0-0.3,0.1-0.4c0.1-0.1,0.2-0.1,0.4-0.1h0.5c0,0,0,0,0,0c0,0,0,0,0,0c-0.3-0.2-0.5-0.4-0.8-0.6c0,0-0.1,0-0.1,0h-0.7
		c0,0-0.1,0-0.1,0c-0.2,0.2-0.5,0.5-0.8,0.7c0,0,0,0,0,0c0,0,0,0,0,0H76c0.1,0,0.3,0,0.4,0.1c0.1,0.1,0.1,0.2,0.1,0.4v1.2
		c0,0.1,0,0.1-0.1,0.2c0,0-0.1,0.1-0.2,0.1h-0.1c0,0-0.1,0-0.1,0c0,0,0-0.1,0-0.1c0,0,0,0,0,0h-0.9c0,0,0,0,0,0c0,0,0,0.1-0.1,0.1
		S75,5.5,74.9,5.5h-0.1c-0.1,0-0.1,0-0.2-0.1c0,0-0.1-0.1-0.1-0.2V4.1c0,0,0,0,0,0c0,0,0,0,0,0c0,0-0.1,0-0.1,0c0,0-0.1,0-0.1,0
		c-0.1,0-0.1-0.1-0.2-0.1c0,0,0-0.1,0-0.1c0,0,0,0,0-0.1c0-0.1,0.1-0.1,0.1-0.1c0.5-0.2,1-0.4,1.3-0.7c0,0,0,0,0,0c0,0,0,0,0,0h-1.1
		c-0.1,0-0.1,0-0.2-0.1s-0.1-0.1-0.1-0.2c0-0.1,0-0.1,0.1-0.2s0.1-0.1,0.2-0.1H76c0,0,0.1,0,0.1,0c0.1-0.1,0.1-0.2,0.2-0.3
		c0,0,0,0,0,0c0,0,0,0,0,0H75c-0.1,0-0.3,0-0.4-0.1s-0.1-0.2-0.1-0.4V0.9c0-0.1,0-0.3,0.1-0.4s0.2-0.1,0.4-0.1H76
		c0.1,0,0.3,0,0.4,0.1c0.1,0.1,0.1,0.2,0.1,0.4v0.9c0,0,0,0.1,0.1,0.1l0,0c0.1,0,0.2,0.1,0.2,0.2c0,0,0,0.1,0,0.1
		c0,0.1,0,0.1-0.1,0.2c0,0,0,0,0,0c0,0,0,0,0,0h2.4C79.2,2.4,79.3,2.4,79.3,2.5z M75.9,1.6C75.9,1.6,75.9,1.6,75.9,1.6l0.1-0.7
		c0,0,0-0.1-0.1-0.1h-0.8c0,0-0.1,0-0.1,0.1v0.7c0,0,0,0.1,0.1,0.1H75.9z M75.9,4.9C76,4.9,76,4.8,75.9,4.9L76,4.1
		c0,0,0-0.1-0.1-0.1h-0.8c0,0-0.1,0-0.1,0.1v0.7c0,0,0,0.1,0.1,0.1H75.9z M78.5,0.4c0.1,0,0.3,0,0.4,0.1C78.9,0.6,79,0.7,79,0.9v0.6
		c0,0.1,0,0.3-0.1,0.4C78.7,2,78.6,2,78.5,2h-0.9c-0.1,0-0.3,0-0.4-0.1C77.1,1.8,77,1.6,77,1.5V0.9c0-0.1,0-0.3,0.1-0.4
		c0.1-0.1,0.2-0.1,0.4-0.1H78.5z M77.5,4.8C77.5,4.8,77.5,4.9,77.5,4.8l0.9,0.1c0,0,0.1,0,0.1-0.1V4.1c0,0,0-0.1-0.1-0.1h-0.8
		c0,0-0.1,0-0.1,0.1V4.8z M78.4,1.6C78.4,1.6,78.5,1.6,78.4,1.6l0.1-0.7c0,0,0-0.1-0.1-0.1h-0.8c0,0-0.1,0-0.1,0.1v0.7
		c0,0,0,0.1,0.1,0.1H78.4z"/>
	<path fill="#FFFFFF" d="M1,11.5c0.1,0,0.3,0,0.4,0.1c0.1,0.1,0.1,0.2,0.1,0.4v1.3c0,0,0,0.1,0,0.1C1.8,13.8,2.2,14,2.9,14
		c0.3,0,0.6,0,0.9,0c0.5,0,1,0,1.6,0c0.1,0,0.1,0,0.1,0.1c0,0,0,0.1,0,0.1c0,0,0,0,0,0.1c0,0.1-0.1,0.1-0.1,0.2
		c-0.1,0.1-0.1,0.1-0.2,0.1c-0.5,0-0.9,0-1.4,0c-0.3,0-0.7,0-1,0c-0.4,0-0.7-0.1-0.9-0.2c-0.3-0.1-0.5-0.3-0.6-0.5c0,0-0.1,0-0.1,0
		c-0.2,0.1-0.3,0.3-0.5,0.5c0,0-0.1,0.1-0.1,0.1c0,0,0,0,0,0c-0.1,0-0.1-0.1-0.2-0.1c0,0,0-0.1,0-0.2c0,0,0-0.1,0-0.1
		c0-0.1,0.1-0.1,0.1-0.2c0.2-0.1,0.3-0.2,0.5-0.4c0,0,0-0.1,0-0.1v-1.3C1,12,1,12,0.9,12H0.5c-0.1,0-0.1,0-0.2-0.1
		c0,0-0.1-0.1-0.1-0.2c0-0.1,0-0.1,0.1-0.2c0,0,0.1-0.1,0.2-0.1H1z M1.5,10.1c0,0,0.1,0.1,0.1,0.2c0,0,0,0,0,0c0,0.1,0,0.1-0.1,0.2
		c0,0-0.1,0.1-0.1,0.1c0,0,0,0,0,0c-0.1,0-0.1,0-0.2-0.1c-0.1-0.2-0.3-0.4-0.5-0.6c0,0-0.1-0.1-0.1-0.2c0-0.1,0-0.1,0.1-0.2
		c0.1,0,0.1-0.1,0.2-0.1c0,0,0,0,0,0c0.1,0,0.1,0,0.2,0.1C1.2,9.7,1.4,9.9,1.5,10.1z M3.8,13.8c-0.1,0.1-0.1,0.1-0.2,0.1
		s-0.1,0-0.2-0.1c-0.1-0.1-0.1-0.1-0.1-0.2v-0.2c0,0,0,0-0.1,0H2c-0.1,0-0.1,0-0.1-0.1s-0.1-0.1-0.1-0.1s0-0.1,0.1-0.1S1.9,13,2,13
		h1.3c0,0,0.1,0,0.1-0.1v-0.2c0,0,0-0.1-0.1-0.1H2.6c-0.1,0-0.3,0-0.4-0.1c-0.1-0.1-0.1-0.2-0.1-0.4v-0.7c0-0.1,0-0.3,0.1-0.4
		C2.4,11,2.5,11,2.6,11h0.7c0,0,0.1,0,0.1-0.1v-0.2c0,0,0-0.1-0.1-0.1H2.2c-0.1,0-0.1,0-0.1-0.1c0,0-0.1-0.1-0.1-0.1s0-0.1,0.1-0.1
		c0,0,0.1-0.1,0.1-0.1h1.2c0,0,0,0,0,0v-0.1c0-0.1,0-0.1,0.1-0.2C3.5,10,3.5,10,3.6,10s0.1,0,0.2,0.1c0.1,0.1,0.1,0.1,0.1,0.2v0.1
		c0,0,0,0,0,0h1.2c0.1,0,0.1,0,0.1,0.1s0.1,0.1,0.1,0.1s0,0.1-0.1,0.1s-0.1,0.1-0.1,0.1H3.9c0,0-0.1,0-0.1,0.1v0.2
		c0,0,0,0.1,0.1,0.1h0.7c0.1,0,0.3,0,0.4,0.1c0.1,0.1,0.1,0.2,0.1,0.4v0.7c0,0.1,0,0.3-0.1,0.4c-0.1,0.1-0.2,0.1-0.4,0.1H3.9
		c0,0-0.1,0-0.1,0.1v0.2c0,0,0,0.1,0.1,0.1h1.4c0.1,0,0.1,0,0.1,0.1s0.1,0.1,0.1,0.1s0,0.1-0.1,0.1s-0.1,0.1-0.1,0.1H3.9
		c0,0-0.1,0-0.1,0v0.2C3.9,13.7,3.9,13.7,3.8,13.8z M2.4,9.8C2.3,9.8,2.3,9.8,2.4,9.8l0,0.1c0,0.1,0,0.1-0.1,0.2
		c0,0-0.1,0.1-0.2,0.1c-0.1,0-0.1,0-0.2-0.1c0,0-0.1-0.1-0.1-0.2V9.8c0-0.1,0-0.2,0.1-0.3C2,9.5,2.1,9.4,2.2,9.4h2.8
		c0.1,0,0.2,0,0.3,0.1c0.1,0.1,0.1,0.2,0.1,0.3V10c0,0.1,0,0.1-0.1,0.2c0,0-0.1,0.1-0.2,0.1s-0.1,0-0.2-0.1c0,0-0.1-0.1-0.1-0.2V9.9
		c0,0,0,0,0,0H2.4z M2.7,11.4C2.6,11.4,2.6,11.4,2.7,11.4l-0.1,0.3c0,0,0,0.1,0.1,0.1h0.6c0,0,0.1,0,0.1-0.1v-0.2c0,0,0-0.1-0.1-0.1
		H2.7z M2.6,12.3C2.6,12.3,2.6,12.3,2.6,12.3l0.7,0.1c0,0,0.1,0,0.1-0.1v-0.2c0,0,0-0.1-0.1-0.1H2.7c0,0-0.1,0-0.1,0.1V12.3z
		 M4.7,11.4C4.7,11.4,4.6,11.4,4.7,11.4l-0.7-0.1c0,0-0.1,0-0.1,0.1v0.2c0,0,0,0.1,0.1,0.1h0.7c0,0,0.1,0,0.1-0.1V11.4z M4.6,12.3
		C4.6,12.3,4.7,12.3,4.6,12.3l0.1-0.3c0,0,0-0.1-0.1-0.1H3.9c0,0-0.1,0-0.1,0.1v0.2c0,0,0,0.1,0.1,0.1H4.6z"/>
	<path fill="#FFFFFF" d="M10.8,12.6c0.1,0,0.1,0,0.2,0.1c0,0,0.1,0.1,0.1,0.2c0,0,0,0,0,0h0.5c0.1,0,0.1,0,0.1,0.1s0.1,0.1,0.1,0.1
		c0,0.1,0,0.1-0.1,0.1s-0.1,0.1-0.1,0.1h-0.4c0,0-0.1,0-0.1,0.1v0.7c0,0.1,0,0.2-0.1,0.3c0,0.1-0.1,0.1-0.2,0.1
		c-0.1,0-0.3,0.1-0.6,0.1c-0.1,0-0.1,0-0.2-0.1c-0.1,0-0.1-0.1-0.1-0.2c0,0,0-0.1,0-0.1c0,0,0.1-0.1,0.1-0.1c0.1,0,0.3,0,0.4,0
		c0,0,0.1,0,0.1,0c0,0,0,0,0-0.1v-0.7c0,0,0-0.1-0.1-0.1h-1c0,0,0,0,0,0c0,0,0,0,0,0c0.1,0.1,0.3,0.3,0.4,0.4c0,0,0,0.1,0,0.1
		c0,0,0,0,0,0.1c0,0.1-0.1,0.1-0.1,0.2c-0.1,0-0.1,0-0.2,0c-0.1,0-0.1-0.1-0.1-0.1c-0.1-0.1-0.1-0.2-0.2-0.2c0-0.1-0.1-0.1-0.1-0.2
		c0,0,0,0,0,0c0-0.1,0.1-0.2,0.1-0.2c0,0,0,0,0,0c0,0,0,0,0,0H8.8c0,0,0,0,0,0c0,0.1,0,0.1-0.1,0.2c-0.1,0.1-0.1,0.1-0.2,0.1H7.9
		c0,0-0.1,0-0.1,0.1v0.7c0,0.1,0,0.1-0.1,0.2c0,0-0.1,0.1-0.2,0.1c-0.1,0-0.1,0-0.2-0.1c0,0-0.1-0.1-0.1-0.2v-0.7c0,0,0-0.1-0.1-0.1
		H6.6c-0.1,0-0.1,0-0.2-0.1c0,0-0.1-0.1-0.1-0.2c0-0.1,0-0.1,0.1-0.2c0,0,0.1-0.1,0.2-0.1h0.7c0,0,0.1,0,0.1-0.1v-0.3
		c0,0,0-0.1-0.1-0.1H7.1c-0.1,0-0.3,0-0.4-0.1c-0.1-0.1-0.1-0.2-0.1-0.4v-1.1c0-0.1,0-0.3,0.1-0.4c0.1-0.1,0.2-0.1,0.4-0.1h0.2
		c0,0,0.1,0,0.1-0.1v-0.3c0,0,0-0.1-0.1-0.1H6.7c-0.1,0-0.1,0-0.2-0.1c0,0-0.1-0.1-0.1-0.2c0-0.1,0-0.1,0.1-0.2c0,0,0.1-0.1,0.2-0.1
		h0.6c0,0,0.1,0,0.1-0.1V9.5c0-0.1,0-0.1,0.1-0.2c0,0,0.1-0.1,0.2-0.1c0.1,0,0.1,0,0.2,0.1c0,0,0.1,0.1,0.1,0.2v0.3
		c0,0,0,0.1,0.1,0.1h0.6c0.1,0,0.1,0,0.2,0.1s0.1,0.1,0.1,0.2c0,0.1,0,0.1-0.1,0.2s-0.1,0.1-0.2,0.1H7.9c0,0-0.1,0-0.1,0.1v0.3
		c0,0,0,0.1,0.1,0.1h0.3c0.1,0,0.3,0,0.4,0.1c0.1,0.1,0.1,0.2,0.1,0.4v1.1c0,0.1,0,0.3-0.1,0.4c-0.1,0.1-0.2,0.1-0.4,0.1H7.9
		c0,0-0.1,0-0.1,0.1v0.3c0,0,0,0.1,0.1,0.1h0.8c0,0,0,0,0,0c0-0.1,0-0.1,0.1-0.2c0,0,0.1-0.1,0.2-0.1h1.5c0,0,0,0,0,0
		c0-0.1,0-0.1,0.1-0.2C10.7,12.7,10.8,12.6,10.8,12.6L10.8,12.6z M7,11.1C7,11.1,7,11.1,7,11.1L7,11.5c0,0,0,0.1,0.1,0.1h0.3
		c0,0,0.1,0,0.1-0.1v-0.3c0,0,0-0.1-0.1-0.1H7z M7,11.9C7,11.9,7,11.9,7,11.9L7,12.3c0,0,0,0.1,0.1,0.1h0.3c0,0,0.1,0,0.1-0.1V12
		c0,0,0-0.1-0.1-0.1H7z M8.2,11.5C8.2,11.5,8.3,11.5,8.2,11.5l0.1-0.4c0,0,0-0.1-0.1-0.1H7.9c0,0-0.1,0-0.1,0.1v0.3
		c0,0,0,0.1,0.1,0.1H8.2z M8.2,12.4C8.2,12.4,8.3,12.3,8.2,12.4L8.3,12c0,0,0-0.1-0.1-0.1H7.9c0,0-0.1,0-0.1,0.1v0.3
		c0,0,0,0.1,0.1,0.1H8.2z M9,12.6c-0.1,0-0.1,0-0.1-0.1s-0.1-0.1-0.1-0.1c0-0.1,0-0.1,0-0.1s0.1-0.1,0.1-0.1c0.2,0,0.6,0,1,0
		c0,0,0.1,0,0.1-0.1v-0.2c0,0,0-0.1-0.1-0.1H9.5c-0.1,0-0.3,0-0.4-0.1C9,11.6,9,11.5,9,11.4v-0.5c0-0.1,0-0.3,0.1-0.4
		c0.1-0.1,0.2-0.1,0.4-0.1H10c0,0,0.1,0,0.1-0.1v-0.2c0,0,0-0.1-0.1-0.1H9.1c-0.1,0-0.1,0-0.1-0.1S8.8,9.9,8.8,9.9
		c0-0.1,0-0.1,0.1-0.1S9,9.7,9.1,9.7H10c0,0,0,0,0,0V9.5c0-0.1,0-0.1,0.1-0.2c0,0,0.1-0.1,0.2-0.1c0.1,0,0.1,0,0.2,0.1
		c0,0,0.1,0.1,0.1,0.2v0.1c0,0,0,0,0,0h1c0.1,0,0.1,0,0.1,0.1s0.1,0.1,0.1,0.1c0,0.1,0,0.1-0.1,0.1s-0.1,0.1-0.1,0.1h-1
		c0,0-0.1,0-0.1,0.1v0.2c0,0,0,0.1,0.1,0.1h0.5c0.1,0,0.3,0,0.4,0.1c0.1,0.1,0.1,0.2,0.1,0.4v0.7c0,0.1,0,0.2-0.1,0.2
		c-0.1,0.1-0.1,0.1-0.2,0.1c0,0,0,0,0,0s0,0,0,0c0.2,0.2,0.3,0.3,0.4,0.5c0,0,0,0.1,0,0.2s0,0.1-0.1,0.1c-0.1,0-0.1,0-0.2,0
		c-0.1,0-0.1,0-0.1-0.1c0,0,0,0,0,0c0,0,0,0,0,0C9.9,12.6,9.1,12.6,9,12.6z M9.5,10.7C9.4,10.7,9.4,10.7,9.5,10.7l-0.1,0.2
		c0,0,0,0.1,0.1,0.1H10c0,0,0.1,0,0.1-0.1v-0.2c0,0,0-0.1-0.1-0.1H9.5z M9.4,11.5C9.4,11.5,9.4,11.5,9.4,11.5l0.6,0.1
		c0,0,0.1,0,0.1-0.1v-0.2c0,0,0-0.1-0.1-0.1H9.5c0,0-0.1,0-0.1,0.1V11.5z M11.1,10.7C11.1,10.7,11.1,10.7,11.1,10.7l-0.6-0.1
		c0,0-0.1,0-0.1,0.1v0.2c0,0,0,0.1,0.1,0.1h0.5c0,0,0.1,0,0.1-0.1V10.7z M11.1,11.5C11.1,11.5,11.1,11.5,11.1,11.5l0.1-0.2
		c0,0,0-0.1-0.1-0.1h-0.5c0,0-0.1,0-0.1,0.1v0.2c0,0,0,0.1,0.1,0.1H11.1z M10.5,11.9C10.5,11.9,10.5,11.9,10.5,11.9l-0.1,0.3
		c0,0,0,0.1,0.1,0.1l0.4,0c0,0,0,0,0,0s0,0,0,0c0,0,0,0,0-0.1c0,0,0-0.1,0-0.1c0,0,0-0.1,0.1-0.1c0,0,0,0,0,0H10.5z"/>
	<path fill="#FFFFFF" d="M17.8,11.9C17.9,12,17.9,12,17.8,11.9c0.1,0.1,0.1,0.1,0.1,0.2c0,0.1,0,0.1-0.1,0.2c0,0-0.1,0.1-0.2,0.1
		h-0.9c0,0-0.1,0-0.1,0.1v0.3c0,0,0,0.1,0.1,0.1h0.8c0.1,0,0.1,0,0.2,0.1c0,0,0.1,0.1,0.1,0.2c0,0.1,0,0.1-0.1,0.2
		c0,0-0.1,0.1-0.2,0.1h-0.8c0,0-0.1,0-0.1,0.1V14c0,0.1,0,0.3-0.1,0.3s-0.1,0.1-0.2,0.2c-0.1,0-0.4,0.1-0.7,0.1h0
		c-0.1,0-0.1,0-0.2-0.1c-0.1,0-0.1-0.1-0.1-0.2c0-0.1,0-0.1,0-0.2c0-0.1,0.1-0.1,0.1-0.1c0.1,0,0.2,0,0.3,0c0.1,0,0.2,0,0.2,0
		c0.1,0,0.1,0,0.1,0c0,0,0,0,0-0.1v-0.7c0,0,0-0.1-0.1-0.1h-1.9c0,0,0,0,0,0c0,0,0,0,0,0c0.3,0.2,0.5,0.4,0.6,0.5
		c0,0,0.1,0.1,0.1,0.2c0,0,0,0,0,0c0,0.1,0,0.1-0.1,0.2c0,0-0.1,0.1-0.2,0.1c0,0,0,0,0,0c-0.1,0-0.1,0-0.2-0.1
		c-0.1-0.1-0.3-0.3-0.5-0.5c-0.1-0.1-0.1-0.1-0.1-0.2c0-0.1,0-0.2,0.1-0.2c0,0,0,0,0,0c0,0,0,0,0,0H13c-0.1,0-0.1,0-0.2-0.1
		c0,0-0.1-0.1-0.1-0.2c0-0.1,0-0.1,0.1-0.2c0,0,0.1-0.1,0.2-0.1h3c0,0,0.1,0,0.1-0.1v-0.3c0,0,0-0.1-0.1-0.1h-3.2
		c-0.1,0-0.1,0-0.2-0.1c0,0-0.1-0.1-0.1-0.2c0-0.1,0-0.1,0.1-0.2c0,0,0.1-0.1,0.2-0.1h2.1c0,0,0.1,0,0.1-0.1v-0.3c0,0,0-0.1-0.1-0.1
		h-1.5c-0.1,0-0.1,0-0.2-0.1c0,0-0.1-0.1-0.1-0.2s0-0.1,0.1-0.2c0,0,0.1-0.1,0.2-0.1h1.5c0,0,0,0,0,0v-0.2c0,0,0-0.1,0-0.1
		c0,0,0.1,0,0.1,0c0,0,0,0,0,0c0,0,0,0,0,0c0,0-0.1-0.1-0.1-0.1c0-0.1,0-0.1,0.1-0.2c0,0,0.1-0.1,0.1-0.1c0,0,0,0,0,0s0,0,0,0h-0.9
		c0,0,0,0,0,0c0,0,0,0,0,0c0,0.1,0.1,0.1,0.1,0.2c0,0,0,0.1,0,0.1c0,0,0,0.1,0,0.1c0,0.1-0.1,0.1-0.1,0.1c0,0-0.1,0-0.1,0
		c0,0-0.1,0-0.1,0c-0.1,0-0.1-0.1-0.1-0.1c0-0.1-0.1-0.2-0.1-0.3c0,0,0-0.1-0.1-0.1h-0.1c0,0-0.1,0-0.1,0c-0.1,0.2-0.2,0.3-0.3,0.4
		c0,0.1-0.1,0.1-0.2,0.1c0,0,0,0,0,0c-0.1,0-0.1,0-0.2-0.1c-0.1,0-0.1-0.1-0.1-0.2c0-0.1,0-0.1,0.1-0.1c0.2-0.3,0.4-0.6,0.6-0.9
		c0-0.1,0.1-0.1,0.2-0.2c0,0,0.1,0,0.1,0c0,0,0.1,0,0.1,0c0.1,0,0.1,0.1,0.1,0.1c0,0,0,0.1,0,0.1c0,0,0,0.1,0,0.1c0,0,0,0,0,0.1
		c0,0,0,0,0,0c0,0,0,0,0,0h1c0.1,0,0.2,0,0.3,0.1c0.1,0.1,0.1,0.2,0.1,0.3c0,0,0,0,0,0c0,0,0,0,0,0c0.2-0.2,0.3-0.4,0.4-0.6
		c0-0.1,0.1-0.1,0.2-0.2c0,0,0.1,0,0.1,0c0,0,0,0,0.1,0c0.1,0,0.1,0.1,0.2,0.1c0,0,0,0.1,0,0.1c0,0,0,0.1,0,0.1c0,0,0,0.1,0,0.1
		c0,0,0,0,0,0c0,0,0,0,0,0h1.5c0.1,0,0.1,0,0.2,0.1c0,0,0.1,0.1,0.1,0.2s0,0.1-0.1,0.2s-0.1,0.1-0.2,0.1h-0.8c0,0,0,0,0,0
		c0,0,0,0,0,0c0,0.1,0.1,0.1,0.1,0.2c0,0,0,0.1,0,0.1c0,0,0,0.1,0,0.1c0,0.1-0.1,0.1-0.1,0.1c0,0-0.1,0-0.1,0c0,0-0.1,0-0.1,0
		c-0.1,0-0.1-0.1-0.2-0.1c-0.1-0.1-0.2-0.3-0.2-0.4c0,0-0.1,0-0.1,0h-0.2c0,0-0.1,0-0.1,0c-0.1,0.1-0.2,0.3-0.3,0.4h0c0,0,0,0,0,0
		v0.3c0,0,0,0,0,0h1.6c0.1,0,0.1,0,0.2,0.1s0.1,0.1,0.1,0.2s0,0.1-0.1,0.2s-0.1,0.1-0.2,0.1h-1.5c0,0-0.1,0-0.1,0.1v0.3
		c0,0,0,0.1,0.1,0.1h2.1C17.7,11.8,17.8,11.9,17.8,11.9z"/>
	<path fill="#FFFFFF" d="M23,11.4c0-0.1,0.1-0.1,0.1-0.2c0,0,0.1,0,0.1,0c0,0,0.1,0,0.1,0c0.1,0,0.1,0.1,0.2,0.1c0,0,0,0.1,0,0.1
		c0,0,0,0.1,0,0.1c-0.2,0.6-0.5,1.2-0.9,1.7c0,0,0,0.1,0,0.1c0.2,0.5,0.4,0.7,0.7,0.7c0.1,0,0.1-0.1,0.2-0.2s0.1-0.3,0.1-0.6
		c0-0.1,0-0.1,0.1-0.1c0.1,0,0.1,0,0.1,0c0.1,0,0.1,0.1,0.2,0.2c0,0.1,0,0.1,0,0.2c0,0,0,0,0,0c0,0.4-0.1,0.7-0.2,0.8
		c-0.1,0.1-0.3,0.2-0.5,0.2c-0.4,0-0.7-0.3-1-0.8c0,0,0,0,0,0c0,0,0,0,0,0c-0.3,0.3-0.5,0.5-0.8,0.7c-0.1,0-0.1,0.1-0.2,0.1
		c0,0,0,0-0.1,0c-0.1,0-0.2-0.1-0.2-0.1c0,0-0.1-0.1-0.1-0.2c0,0,0,0,0,0c0-0.1,0-0.1,0.1-0.2c0.4-0.2,0.7-0.5,1-0.8
		c0,0,0-0.1,0-0.1c-0.2-0.6-0.3-1.4-0.4-2.3c0,0,0-0.1-0.1-0.1h-1.8c0,0-0.1,0-0.1,0.1v0.6c0,0,0,0.1,0.1,0.1h0.9
		c0.1,0,0.3,0,0.4,0.1c0.1,0.1,0.1,0.2,0.1,0.3c0,0.4,0,0.8-0.1,1.2c0,0.2-0.1,0.4-0.1,0.5c-0.1,0.1-0.2,0.2-0.4,0.2
		c-0.1,0-0.2,0-0.4,0c0,0,0,0-0.1,0c-0.1,0-0.1,0-0.2-0.1c-0.1,0-0.1-0.1-0.1-0.2c0-0.1,0-0.1,0-0.2c0,0,0.1-0.1,0.1-0.1
		c0.1,0,0.2,0,0.3,0s0.1,0,0.2-0.1c0.1-0.1,0.1-0.5,0.1-1.2c0,0,0,0,0,0c0,0,0,0,0,0h-0.8c0,0-0.1,0-0.1,0.1c0,1-0.2,1.9-0.5,2.4
		c0,0.1-0.1,0.1-0.2,0.1c0,0,0,0,0,0c-0.1,0-0.1,0-0.2-0.1c-0.1-0.1-0.1-0.1-0.1-0.2c0,0,0-0.1,0-0.1c0-0.1,0-0.1,0-0.2
		c0.1-0.3,0.2-0.6,0.3-1c0-0.4,0.1-0.8,0.1-1.2v-1.2c0-0.1,0-0.3,0.1-0.4c0.1-0.1,0.2-0.1,0.4-0.1h1.9c0,0,0,0,0,0c0,0,0,0,0,0
		c0-0.3,0-0.5,0-0.6c0-0.1,0-0.1,0.1-0.2c0.1-0.1,0.1-0.1,0.2-0.1s0.1,0,0.2,0.1c0.1,0.1,0.1,0.1,0.1,0.2c0,0.2,0,0.4,0,0.6
		c0,0,0,0.1,0.1,0.1h1c0,0,0,0,0,0c0,0,0,0,0,0c-0.2-0.1-0.4-0.3-0.7-0.5c0,0-0.1-0.1-0.1-0.1s0-0.1,0.1-0.2c0,0,0.1-0.1,0.2-0.1
		c0,0,0,0,0.1,0c0,0,0.1,0,0.1,0c0.2,0.1,0.4,0.2,0.5,0.3c0.1,0.1,0.1,0.1,0.1,0.2c0,0,0,0,0,0c0,0.1,0,0.2-0.1,0.2c0,0,0,0,0,0
		c0,0,0,0,0,0h0.3c0.1,0,0.1,0,0.2,0.1c0.1,0.1,0.1,0.1,0.1,0.2s0,0.1-0.1,0.2c-0.1,0.1-0.1,0.1-0.2,0.1h-1.5c0,0,0,0,0,0s0,0,0,0
		c0.1,0.7,0.2,1.3,0.3,1.7c0,0,0,0,0,0s0,0,0,0C22.7,12.2,22.9,11.8,23,11.4z"/>
	<path fill="#FFFFFF" d="M30,10.5c0.1,0.1,0.1,0.1,0.1,0.2c0,0.1,0,0.1-0.1,0.2S29.9,11,29.8,11h-1.6c0,0,0,0,0,0c0,0,0,0,0,0
		c0.2,0.4,0.5,0.8,0.8,1.2c0.3,0.4,0.7,0.7,1,0.9c0.1,0,0.1,0.1,0.1,0.2c0,0,0,0,0,0c0,0.1,0,0.1-0.1,0.2c-0.1,0.1-0.1,0.1-0.2,0.1
		c0,0,0,0-0.1,0c-0.1,0-0.1,0-0.2-0.1c-0.7-0.5-1.3-1.1-1.8-2c0,0,0,0,0,0s0,0,0,0V13c0,0,0,0.1,0.1,0.1h0.7c0.1,0,0.1,0,0.2,0.1
		c0.1,0.1,0.1,0.1,0.1,0.2c0,0.1,0,0.1-0.1,0.2c-0.1,0.1-0.1,0.1-0.2,0.1h-0.7c0,0-0.1,0-0.1,0.1v0.7c0,0.1,0,0.1-0.1,0.2
		c-0.1,0.1-0.1,0.1-0.2,0.1s-0.1,0-0.2-0.1c-0.1-0.1-0.1-0.1-0.1-0.2v-0.7c0,0,0-0.1-0.1-0.1h-0.7c-0.1,0-0.1,0-0.2-0.1
		c-0.1-0.1-0.1-0.1-0.1-0.2c0-0.1,0-0.1,0.1-0.2c0.1-0.1,0.1-0.1,0.2-0.1h0.7c0,0,0.1,0,0.1-0.1v-1.4c0,0,0,0,0,0s0,0,0,0
		c-0.5,0.9-1.1,1.6-1.8,2c-0.1,0-0.1,0.1-0.2,0.1c0,0,0,0-0.1,0c-0.1,0-0.1-0.1-0.2-0.1c0,0-0.1-0.1-0.1-0.2c0,0,0,0,0,0
		c0-0.1,0-0.1,0.1-0.2c0.4-0.2,0.7-0.5,1-0.9c0.3-0.4,0.6-0.8,0.8-1.2c0,0,0,0,0,0c0,0,0,0,0,0h-1.6c-0.1,0-0.1,0-0.2-0.1
		S25,10.8,25,10.7c0-0.1,0-0.1,0.1-0.2c0.1-0.1,0.1-0.1,0.2-0.1h1.9c0,0,0.1,0,0.1-0.1V9.5c0-0.1,0-0.1,0.1-0.2
		c0.1-0.1,0.1-0.1,0.2-0.1s0.1,0,0.2,0.1c0.1,0.1,0.1,0.1,0.1,0.2v0.8c0,0,0,0.1,0.1,0.1h1.9C29.9,10.4,29.9,10.4,30,10.5z"/>
	<path fill="#FFFFFF" d="M33.1,12.5C33.1,12.5,33.2,12.5,33.1,12.5c0.1,0,0.2,0,0.2,0c0.1,0,0.1,0.1,0.1,0.1c0,0,0,0.1,0,0.1
		c0,0,0,0.1,0,0.1c0,0.1-0.1,0.1-0.2,0.2c-0.5,0.2-1.1,0.5-1.8,0.8c0,0-0.1,0-0.1,0c0,0-0.1,0-0.1,0c-0.1,0-0.1-0.1-0.2-0.2
		c0,0,0-0.1,0-0.1c0,0,0-0.1,0-0.1c0-0.1,0.1-0.1,0.2-0.2c0.1-0.1,0.3-0.1,0.5-0.2c0,0,0.1,0,0.1-0.1l-0.1-3.2c0-0.1,0-0.1,0.1-0.2
		c0.1-0.1,0.1-0.1,0.2-0.1c0,0,0,0,0,0c0.1,0,0.1,0,0.2,0.1c0.1,0.1,0.1,0.1,0.1,0.2l0.1,3c0,0,0,0,0,0c0,0,0,0,0,0
		C32.6,12.7,32.8,12.6,33.1,12.5z M36.2,13.9c0,0.1,0.1,0.1,0.1,0.2c0,0,0,0,0,0c0,0.1,0,0.2-0.1,0.2c0,0-0.1,0.1-0.2,0.1
		c0,0,0,0,0,0c-0.1,0-0.1,0-0.2-0.1c-0.2-0.3-0.6-0.7-1-1.2c0,0,0,0-0.1,0c-0.4,0.5-0.9,1-1.6,1.3c-0.1,0-0.1,0-0.2,0
		c0,0-0.1,0-0.1,0c-0.1,0-0.2-0.1-0.2-0.1c0,0-0.1-0.1-0.1-0.1c0,0,0,0,0,0c0-0.1,0.1-0.1,0.1-0.2c0.4-0.2,0.8-0.4,1-0.6
		c0.3-0.3,0.5-0.6,0.7-0.9c0.2-0.4,0.3-0.7,0.4-1.2c0.1-0.4,0.2-0.9,0.3-1.5c0-0.1,0-0.1,0.1-0.2c0.1,0,0.1-0.1,0.2-0.1c0,0,0,0,0,0
		c0.1,0,0.2,0,0.2,0.1c0,0.1,0.1,0.1,0.1,0.2c0,0,0,0,0,0c-0.1,1.1-0.4,2-0.7,2.7c0,0,0,0.1,0,0.1C35.6,13.2,36,13.6,36.2,13.9z
		 M34.2,11.1c0,0,0,0.1,0,0.1c0,0,0,0.1,0,0.1c0,0.1-0.1,0.1-0.2,0.2c0,0-0.1,0-0.1,0c0,0-0.1,0-0.1,0c-0.1,0-0.1-0.1-0.2-0.1
		c-0.2-0.3-0.4-0.6-0.6-0.9c0,0,0-0.1,0-0.1c0,0,0,0,0-0.1c0-0.1,0.1-0.1,0.1-0.1c0,0,0.1,0,0.2,0c0,0,0.1,0,0.1,0
		c0.1,0,0.1,0.1,0.2,0.1C33.8,10.5,34,10.8,34.2,11.1z"/>
	<path fill="#FFFFFF" d="M40.9,9.3c0.1-0.1,0.1-0.1,0.2-0.1s0.1,0,0.2,0.1c0.1,0.1,0.1,0.1,0.1,0.2v2.4c0,0,0,0.1,0,0.1
		c0.3,0.3,0.6,0.5,1,0.7c0.1,0,0.1,0.1,0.1,0.2c0,0,0,0,0,0c0,0.1,0,0.1-0.1,0.1c-0.1,0.1-0.1,0.1-0.2,0.1c0,0,0,0-0.1,0
		c-0.1,0-0.1,0-0.2,0c-0.2-0.1-0.4-0.3-0.6-0.4c0,0,0,0,0,0c0,0,0,0,0,0v1.6c0,0.1,0,0.1-0.1,0.2c-0.1,0.1-0.1,0.1-0.2,0.1
		s-0.1,0-0.2-0.1s-0.1-0.1-0.1-0.2v-2.1c0,0,0-0.1,0-0.1c-0.3-0.3-0.5-0.6-0.7-1c0,0,0,0,0,0s0,0,0,0c-0.4,1.5-1.1,2.6-2.1,3.3
		c-0.1,0-0.1,0.1-0.2,0.1c0,0,0,0-0.1,0c-0.1,0-0.2-0.1-0.2-0.1c0,0-0.1-0.1-0.1-0.1c0,0,0-0.1,0-0.1s0-0.1,0.1-0.1
		c0.6-0.3,1-0.8,1.4-1.4c0,0,0-0.1,0-0.1c-0.2-0.2-0.5-0.4-0.9-0.7c0,0-0.1,0-0.1,0c0,0-0.1,0.1-0.1,0.1c0,0.1-0.1,0.1-0.2,0.1
		c0,0,0,0,0,0c-0.1,0-0.1,0-0.2-0.1c-0.1,0-0.1-0.1-0.1-0.2c0-0.1,0-0.1,0.1-0.2c0.5-0.5,0.9-1.2,1.1-2.1c0-0.1,0.1-0.1,0.1-0.2
		c0,0,0.1,0,0.1,0c0,0,0,0,0.1,0c0.1,0,0.1,0.1,0.2,0.1c0,0,0,0.1,0,0.1c0,0,0,0,0,0.1c0,0.2-0.1,0.3-0.1,0.4c0,0,0,0,0,0
		c0,0,0,0,0,0h0.9c0,0,0,0,0,0c0.1,0,0.1,0,0.2,0l0.1,0c0,0,0.1,0.1,0.1,0.1c0,0,0,0.1,0,0.2c0,0.1,0,0.2-0.1,0.3c0,0,0,0,0,0
		c0,0,0,0,0,0c0.1,0,0.1,0,0.2,0c0.1,0,0.1,0.1,0.1,0.1c0.1,0.2,0.2,0.3,0.4,0.5c0,0,0,0,0,0c0,0,0,0,0,0V9.5
		C40.8,9.4,40.8,9.4,40.9,9.3z M39.6,10.7C39.6,10.7,39.6,10.7,39.6,10.7C39.5,10.6,39.5,10.6,39.6,10.7l-0.9-0.1c0,0-0.1,0-0.1,0.1
		c-0.1,0.2-0.2,0.4-0.3,0.6c0,0,0,0.1,0,0.1c0.3,0.2,0.6,0.4,0.9,0.6c0,0,0,0,0,0c0,0,0,0,0,0C39.3,11.6,39.5,11.2,39.6,10.7z"/>
	<path fill="#FFFFFF" d="M44.3,14.8C44.2,14.8,44.2,14.8,44.3,14.8c-0.1,0-0.1,0-0.2,0c0,0-0.1-0.1-0.1-0.1c0,0,0-0.1,0-0.1
		c0,0,0-0.1,0-0.1c0-0.1,0.1-0.1,0.1-0.1c0.3-0.2,0.5-0.4,0.5-0.7c0,0,0,0,0,0c0,0,0,0,0,0c0,0,0,0,0,0c-0.1,0-0.3,0-0.3-0.1
		c-0.1-0.1-0.1-0.2-0.1-0.3s0-0.3,0.1-0.3c0.1-0.1,0.2-0.1,0.4-0.1c0.2,0,0.3,0.1,0.4,0.2c0.1,0.1,0.1,0.3,0.1,0.5
		c0,0.3-0.1,0.5-0.2,0.8C44.8,14.5,44.5,14.7,44.3,14.8z"/>
	<path fill="#FFFFFF" d="M51.6,14h2c0.2,0,0.4,0,0.4-0.1s0.1-0.2,0.2-0.4c0-0.1,0-0.1,0.1-0.1c0,0,0.1,0,0.1,0c0,0,0,0,0.1,0
		c0.1,0,0.1,0.1,0.2,0.1c0,0,0.1,0.1,0.1,0.2c0,0,0,0,0,0.1c-0.1,0.3-0.2,0.5-0.3,0.6s-0.4,0.2-0.8,0.2h-2c-0.5,0-0.8-0.1-1-0.2
		s-0.3-0.3-0.3-0.6v-1c0-0.1,0-0.3,0.1-0.4s0.2-0.1,0.4-0.1h1.4c0,0,0.1,0,0.1-0.1v-0.7c0,0,0-0.1-0.1-0.1h-1.5
		c-0.1,0-0.2,0-0.2-0.1c-0.1-0.1-0.1-0.1-0.1-0.2c0,0,0,0,0,0s0,0,0,0c-0.1,0.1-0.2,0.2-0.3,0.4c-0.1,0.1-0.1,0.1-0.2,0.1
		c0,0,0,0,0,0c-0.1,0-0.2,0-0.2-0.1c-0.1,0-0.1-0.1-0.1-0.2c0-0.1,0-0.1,0.1-0.2c0.4-0.4,0.8-1,1.1-1.6c0-0.1,0.1-0.1,0.2-0.2
		c0,0,0.1,0,0.1,0c0,0,0.1,0,0.1,0c0.1,0,0.1,0.1,0.2,0.1c0,0,0,0.1,0,0.1c0,0,0,0.1,0,0.1c0,0.1-0.1,0.1-0.1,0.2c0,0,0,0,0,0
		s0,0,0,0h2.7c0.1,0,0.3,0,0.3,0.1c0.1,0.1,0.1,0.2,0.1,0.3c0,0.6,0,1.3-0.1,1.9c0,0.4-0.1,0.6-0.2,0.7c-0.1,0.1-0.2,0.2-0.4,0.2
		c-0.1,0-0.2,0-0.4,0c0,0-0.1,0-0.1,0c-0.1,0-0.1,0-0.2-0.1c-0.1-0.1-0.1-0.1-0.1-0.2c0-0.1,0-0.1,0-0.2c0,0,0.1-0.1,0.1-0.1
		c0.1,0,0.2,0,0.3,0s0.2,0,0.2-0.1c0.1-0.1,0.1-0.3,0.1-0.6s0.1-0.8,0.1-1.6c0,0,0,0,0,0c0,0,0,0,0,0h-2.9c0,0-0.1,0-0.1,0
		c-0.1,0.1-0.2,0.3-0.3,0.4c0,0,0,0,0,0c0,0,0,0,0,0h1.7c0.1,0,0.3,0,0.4,0.1c0.1,0.1,0.1,0.2,0.1,0.4v0.8c0,0.1,0,0.3-0.1,0.4
		c-0.1,0.1-0.2,0.1-0.4,0.1h-1.4c0,0-0.1,0-0.1,0.1v0.9c0,0.1,0,0.2,0.1,0.2C51,14,51.2,14,51.6,14z"/>
	<path fill="#FFFFFF" d="M57.8,9.4c0.1-0.1,0.3-0.2,0.4-0.2c0.2,0,0.3,0.1,0.5,0.2c0.3,0.3,0.6,0.5,1,0.7c0.4,0.2,0.7,0.4,1.1,0.5
		c0.1,0,0.1,0.1,0.1,0.1c0,0,0,0,0,0.1c0,0,0,0.1,0,0.1c0,0.1-0.1,0.1-0.2,0.1c0,0-0.1,0-0.1,0s-0.1,0-0.1,0c-0.3-0.1-0.7-0.3-1-0.5
		c0,0,0,0,0,0c0,0,0,0,0,0c0,0.1,0,0.1-0.1,0.2c-0.1,0.1-0.1,0.1-0.2,0.1h-1.7c-0.1,0-0.2,0-0.2-0.1c-0.1-0.1-0.1-0.1-0.1-0.2
		c0,0,0,0,0,0s0,0,0,0c-0.3,0.2-0.7,0.4-1,0.6c0,0-0.1,0-0.1,0c0,0-0.1,0-0.1,0c-0.1,0-0.1-0.1-0.2-0.1c0,0,0-0.1,0-0.1
		c0,0,0,0,0-0.1c0-0.1,0.1-0.1,0.1-0.1c0.4-0.2,0.8-0.4,1.1-0.6C57.3,9.9,57.6,9.7,57.8,9.4z M59.6,11.3c0.1,0,0.1,0,0.2,0l0.1,0.1
		c0.1,0,0.1,0.1,0.1,0.1c0,0.1,0,0.1,0,0.2c-0.2,0.3-0.3,0.6-0.5,0.9c0,0,0,0,0,0c0,0,0,0,0,0h0.2c0.1,0,0.3,0,0.4,0.1
		c0.1,0.1,0.1,0.2,0.1,0.4v1.3c0,0.1,0,0.1-0.1,0.2s-0.1,0.1-0.2,0.1h-0.1c-0.1,0-0.1,0-0.1-0.1c0,0-0.1-0.1-0.1-0.1c0,0,0,0,0,0H57
		c0,0,0,0,0,0c0,0.1,0,0.1-0.1,0.1c0,0-0.1,0.1-0.1,0.1h-0.1c-0.1,0-0.1,0-0.2-0.1c-0.1-0.1-0.1-0.1-0.1-0.2V13c0-0.1,0-0.3,0.1-0.4
		c0.1-0.1,0.2-0.1,0.4-0.1h1.8c0,0,0.1,0,0.1,0c0.2-0.2,0.3-0.5,0.4-0.7c0,0,0,0,0,0c0,0,0,0,0,0h-2.6c-0.1,0-0.1,0-0.2-0.1
		s-0.1-0.1-0.1-0.2c0-0.1,0-0.1,0.1-0.2c0,0,0.1-0.1,0.2-0.1H59.6C59.6,11.3,59.6,11.3,59.6,11.3z M59.5,13.9
		C59.6,13.9,59.6,13.9,59.5,13.9l0.1-0.9c0,0,0-0.1-0.1-0.1h-2.5c0,0-0.1,0-0.1,0.1v0.8c0,0,0,0.1,0.1,0.1H59.5z M57.4,10.4
		C57.4,10.4,57.4,10.4,57.4,10.4C57.4,10.4,57.4,10.4,57.4,10.4l1.7,0c0,0,0,0,0,0c0,0,0,0,0,0c-0.4-0.2-0.6-0.5-0.9-0.7
		c0,0-0.1,0-0.1,0C58,9.9,57.8,10.2,57.4,10.4z"/>
	<path fill="#FFFFFF" d="M62.6,11.5c0.1,0,0.3,0,0.4,0.1c0.1,0.1,0.1,0.2,0.1,0.4v1.3c0,0,0,0.1,0,0.1c0.3,0.4,0.7,0.5,1.3,0.6
		c0.3,0,0.5,0,0.8,0c0.5,0,1,0,1.6,0c0,0,0,0,0,0c0.1,0,0.1,0,0.1,0.1c0,0,0,0.1,0,0.1c0,0,0,0,0,0.1c0,0.1-0.1,0.2-0.1,0.2
		c-0.1,0.1-0.1,0.1-0.2,0.1c-0.4,0-0.8,0-1.2,0c-0.4,0-0.7,0-1,0c-0.4,0-0.7-0.1-0.9-0.2c-0.3-0.1-0.5-0.3-0.6-0.5c0,0-0.1,0-0.1,0
		c-0.2,0.1-0.4,0.3-0.6,0.5c0,0-0.1,0.1-0.2,0.1c0,0,0,0-0.1,0c-0.1,0-0.1-0.1-0.2-0.1c0-0.1,0-0.1,0-0.2c0,0,0-0.1,0-0.1
		c0-0.1,0.1-0.2,0.1-0.2c0.2-0.1,0.4-0.3,0.5-0.4c0,0,0-0.1,0-0.1v-1.3c0,0,0-0.1-0.1-0.1h-0.4c-0.1,0-0.1,0-0.2-0.1
		c0,0-0.1-0.1-0.1-0.2c0-0.1,0-0.1,0.1-0.2c0,0,0.1-0.1,0.2-0.1H62.6z M63.1,10.1c0,0,0.1,0.1,0.1,0.2c0,0.1,0,0.2-0.1,0.2
		c0,0-0.1,0.1-0.2,0.1c0,0,0,0,0,0c-0.1,0-0.1,0-0.2-0.1c-0.2-0.2-0.4-0.4-0.6-0.6C62,9.8,62,9.8,62,9.7s0-0.1,0.1-0.2
		c0.1,0,0.1-0.1,0.2-0.1c0,0,0,0,0,0c0.1,0,0.1,0,0.2,0.1C62.7,9.7,62.9,9.9,63.1,10.1z M64.9,10.5C64.9,10.4,64.9,10.4,64.9,10.5
		l-0.8-0.1c0,0-0.1,0-0.1,0c-0.1,0.1-0.1,0.2-0.2,0.3c0,0.1-0.1,0.1-0.2,0.1c0,0,0,0-0.1,0c-0.1,0-0.1,0-0.2,0
		c-0.1,0-0.1-0.1-0.1-0.1c0,0,0,0,0,0c0,0,0-0.1,0.1-0.1c0.2-0.3,0.4-0.6,0.6-1c0-0.1,0.1-0.1,0.1-0.2c0,0,0.1,0,0.1,0
		c0,0,0,0,0.1,0c0.1,0,0.1,0.1,0.2,0.1c0,0,0,0.1,0,0.1c0,0,0,0.1,0,0.1c0,0.1-0.1,0.1-0.1,0.2c0,0,0,0,0,0c0,0,0,0,0,0h0.4
		c0,0,0.1,0,0.1-0.1V9.5c0-0.1,0-0.1,0.1-0.2s0.1-0.1,0.2-0.1c0.1,0,0.1,0,0.2,0.1c0.1,0.1,0.1,0.1,0.1,0.2v0.4c0,0,0,0.1,0.1,0.1
		h1.1c0.1,0,0.1,0,0.2,0.1s0.1,0.1,0.1,0.2c0,0.1,0,0.1-0.1,0.2c0,0-0.1,0.1-0.2,0.1h-1.1c0,0-0.1,0-0.1,0.1V11c0,0,0,0.1,0.1,0.1
		h1.3c0.1,0,0.1,0,0.2,0.1c0,0,0.1,0.1,0.1,0.2s0,0.1-0.1,0.2s-0.1,0.1-0.2,0.1h-3.3c-0.1,0-0.1,0-0.2-0.1c0,0-0.1-0.1-0.1-0.2
		s0-0.1,0.1-0.2c0,0,0.1-0.1,0.2-0.1h1.3c0,0,0.1,0,0.1-0.1V10.5z M66.7,13.1c0,0.1,0,0.3-0.1,0.4c-0.1,0.1-0.2,0.1-0.4,0.1h-1.9
		c-0.1,0-0.3,0-0.4-0.1c-0.1-0.1-0.1-0.2-0.1-0.4v-0.7c0-0.1,0-0.3,0.1-0.4c0.1-0.1,0.2-0.1,0.4-0.1h1.9c0.1,0,0.3,0,0.4,0.1
		c0.1,0.1,0.1,0.2,0.1,0.4V13.1z M64.4,12.3C64.4,12.3,64.4,12.4,64.4,12.3l-0.1,0.7c0,0,0,0.1,0.1,0.1H66c0,0,0.1,0,0.1-0.1v-0.7
		c0,0,0-0.1-0.1-0.1H64.4z"/>
	<path fill="#FFFFFF" d="M72.3,11.4c0-0.1,0.1-0.1,0.1-0.2c0,0,0.1,0,0.1,0c0,0,0.1,0,0.1,0c0.1,0,0.1,0.1,0.2,0.1c0,0,0,0.1,0,0.1
		c0,0,0,0.1,0,0.1c-0.2,0.6-0.5,1.2-0.9,1.7c0,0,0,0.1,0,0.1c0.2,0.5,0.4,0.7,0.7,0.7c0.1,0,0.1-0.1,0.2-0.2s0.1-0.3,0.1-0.6
		c0-0.1,0-0.1,0.1-0.1c0.1,0,0.1,0,0.1,0c0.1,0,0.1,0.1,0.2,0.2c0,0.1,0,0.1,0,0.2c0,0,0,0,0,0c0,0.4-0.1,0.7-0.2,0.8
		c-0.1,0.1-0.3,0.2-0.5,0.2c-0.4,0-0.7-0.3-1-0.8c0,0,0,0,0,0c0,0,0,0,0,0c-0.3,0.3-0.5,0.5-0.8,0.7c-0.1,0-0.1,0.1-0.2,0.1
		c0,0,0,0-0.1,0c-0.1,0-0.2-0.1-0.2-0.1c0,0-0.1-0.1-0.1-0.2c0,0,0,0,0,0c0-0.1,0-0.1,0.1-0.2c0.4-0.2,0.7-0.5,1-0.8
		c0,0,0-0.1,0-0.1c-0.2-0.6-0.3-1.4-0.4-2.3c0,0,0-0.1-0.1-0.1H69c0,0-0.1,0-0.1,0.1v0.6c0,0,0,0.1,0.1,0.1h0.9c0.1,0,0.3,0,0.4,0.1
		c0.1,0.1,0.1,0.2,0.1,0.3c0,0.4,0,0.8-0.1,1.2c0,0.2-0.1,0.4-0.1,0.5c-0.1,0.1-0.2,0.2-0.4,0.2c-0.1,0-0.2,0-0.4,0c0,0,0,0-0.1,0
		c-0.1,0-0.1,0-0.2-0.1c-0.1,0-0.1-0.1-0.1-0.2c0-0.1,0-0.1,0-0.2c0,0,0.1-0.1,0.1-0.1c0.1,0,0.2,0,0.3,0s0.1,0,0.2-0.1
		c0.1-0.1,0.1-0.5,0.1-1.2c0,0,0,0,0,0c0,0,0,0,0,0H69c0,0-0.1,0-0.1,0.1c0,1-0.2,1.9-0.5,2.4c0,0.1-0.1,0.1-0.2,0.1c0,0,0,0,0,0
		c-0.1,0-0.1,0-0.2-0.1c-0.1-0.1-0.1-0.1-0.1-0.2c0,0,0-0.1,0-0.1c0-0.1,0-0.1,0-0.2c0.1-0.3,0.2-0.6,0.3-1c0-0.4,0.1-0.8,0.1-1.2
		v-1.2c0-0.1,0-0.3,0.1-0.4c0.1-0.1,0.2-0.1,0.4-0.1h1.9c0,0,0,0,0,0c0,0,0,0,0,0c0-0.3,0-0.5,0-0.6c0-0.1,0-0.1,0.1-0.2
		c0.1-0.1,0.1-0.1,0.2-0.1s0.1,0,0.2,0.1c0.1,0.1,0.1,0.1,0.1,0.2c0,0.2,0,0.4,0,0.6c0,0,0,0.1,0.1,0.1h1c0,0,0,0,0,0c0,0,0,0,0,0
		C72.3,10,72,9.8,71.8,9.7c0,0-0.1-0.1-0.1-0.1s0-0.1,0.1-0.2c0,0,0.1-0.1,0.2-0.1c0,0,0,0,0.1,0c0,0,0.1,0,0.1,0
		c0.2,0.1,0.4,0.2,0.5,0.3c0.1,0.1,0.1,0.1,0.1,0.2c0,0,0,0,0,0c0,0.1,0,0.2-0.1,0.2c0,0,0,0,0,0c0,0,0,0,0,0H73
		c0.1,0,0.1,0,0.2,0.1c0.1,0.1,0.1,0.1,0.1,0.2s0,0.1-0.1,0.2c-0.1,0.1-0.1,0.1-0.2,0.1h-1.5c0,0,0,0,0,0s0,0,0,0
		c0.1,0.7,0.2,1.3,0.3,1.7c0,0,0,0,0,0s0,0,0,0C71.9,12.2,72.1,11.8,72.3,11.4z"/>
	<path fill="#FFFFFF" d="M75.3,9.8c0.1,0,0.3,0,0.4,0.1c0.1,0.1,0.1,0.2,0.1,0.4v2.2c0,0.1,0,0.3-0.1,0.4C75.5,13,75.4,13,75.3,13
		h-0.5c0,0-0.1,0-0.1,0.1v0.2c0,0.1,0,0.1-0.1,0.2s-0.1,0.1-0.2,0.1s-0.1,0-0.2-0.1s-0.1-0.1-0.1-0.2v-3c0-0.1,0-0.3,0.1-0.4
		c0.1-0.1,0.2-0.1,0.4-0.1H75.3z M75.3,10.4C75.3,10.3,75.2,10.3,75.3,10.4l-0.5-0.1c0,0-0.1,0-0.1,0.1v2.1c0,0,0,0.1,0.1,0.1h0.4
		c0,0,0.1,0,0.1-0.1V10.4z M79.2,12.1c0.1,0,0.1,0,0.2,0.1c0,0.1,0.1,0.1,0.1,0.2c0,0.1,0,0.1-0.1,0.2c0,0.1-0.1,0.1-0.2,0.1H78
		c0,0-0.1,0-0.1,0.1V14c0,0.2,0,0.3-0.1,0.4s-0.1,0.1-0.2,0.2c-0.1,0.1-0.4,0.1-0.7,0.1h0c-0.1,0-0.1,0-0.2-0.1
		c-0.1-0.1-0.1-0.1-0.1-0.2c0-0.1,0-0.1,0-0.2c0-0.1,0.1-0.1,0.1-0.1c0.1,0,0.2,0,0.5,0c0.1,0,0.1,0,0.1,0c0,0,0-0.1,0-0.1v-1.3
		c0,0,0-0.1-0.1-0.1h-1.1c-0.1,0-0.1,0-0.2-0.1c0-0.1-0.1-0.1-0.1-0.2c0-0.1,0-0.1,0.1-0.2c0-0.1,0.1-0.1,0.2-0.1h1.1
		c0,0,0.1,0,0.1-0.1v-1.8c0,0,0,0,0,0c0,0,0,0,0,0c-0.4,0-0.7,0.1-1,0.1c0,0,0,0,0,0c-0.1,0-0.1,0-0.2-0.1c-0.1,0-0.1-0.1-0.1-0.2
		c0-0.1,0-0.1,0-0.2c0,0,0.1-0.1,0.1-0.1c1-0.1,1.8-0.2,2.4-0.3c0,0,0.1,0,0.1,0c0,0,0.1,0,0.1,0c0.1,0,0.2,0.1,0.2,0.1
		c0,0,0,0.1,0,0.1c0,0,0,0,0,0.1c0,0.1-0.1,0.1-0.1,0.1c-0.3,0.1-0.6,0.1-1,0.2c0,0-0.1,0-0.1,0.1V12c0,0,0,0.1,0.1,0.1H79.2z
		 M76.2,10.8C76.2,10.7,76.2,10.7,76.2,10.8c0-0.1,0-0.1,0-0.2c0-0.1,0.1-0.1,0.1-0.1c0,0,0.1,0,0.1,0c0,0,0.1,0,0.1,0
		c0.1,0,0.1,0.1,0.1,0.1c0.1,0.3,0.2,0.6,0.3,0.9c0,0,0,0,0,0.1c0,0,0,0.1,0,0.1c0,0.1-0.1,0.1-0.2,0.1c0,0,0,0-0.1,0
		c0,0-0.1,0-0.1,0c-0.1,0-0.1-0.1-0.1-0.1C76.4,11.4,76.3,11.1,76.2,10.8z M78.7,11.7c0,0.1-0.1,0.1-0.1,0.1c0,0-0.1,0-0.1,0
		c0,0-0.1,0-0.1,0c-0.1,0-0.1-0.1-0.1-0.1c0,0,0-0.1,0-0.1s0-0.1,0-0.1c0.1-0.3,0.3-0.7,0.4-1c0-0.1,0.1-0.1,0.1-0.2
		c0,0,0.1,0,0.1,0c0,0,0.1,0,0.1,0c0.1,0,0.1,0.1,0.2,0.1c0,0,0,0.1,0,0.1c0,0,0,0.1,0,0.1C79,11.1,78.8,11.5,78.7,11.7z"/>
	<path fill="#FFFFFF" d="M2.1,21.6c0,0.1,0,0.3-0.1,0.4c-0.1,0.1-0.2,0.1-0.4,0.1H1c0,0-0.1,0-0.1,0.1v0.2c0,0.1,0,0.1-0.1,0.2
		c0,0-0.1,0.1-0.2,0.1s-0.1,0-0.2-0.1c0,0-0.1-0.1-0.1-0.2v-2.9c0-0.1,0-0.3,0.1-0.4c0.1-0.1,0.2-0.1,0.4-0.1h0.6
		c0.1,0,0.3,0,0.4,0.1c0.1,0.1,0.1,0.2,0.1,0.4V21.6z M1.6,19.4C1.6,19.4,1.6,19.4,1.6,19.4L1,19.4c0,0-0.1,0-0.1,0.1v2.1
		c0,0,0,0.1,0.1,0.1h0.5c0,0,0.1,0,0.1-0.1V19.4z M5.1,20.1c0.1,0,0.1,0,0.2,0l0.1,0c0,0,0.1,0.1,0.1,0.1c0,0,0,0.1,0,0.1
		c-0.2,0.9-0.5,1.6-0.9,2.1c0,0,0,0.1,0,0.1c0.2,0.2,0.5,0.4,0.8,0.5c0.1,0,0.1,0.1,0.1,0.2c0,0,0,0,0,0.1c0,0,0,0.1,0,0.1
		c0,0.1-0.1,0.1-0.2,0.1c0,0-0.1,0-0.1,0c0,0-0.1,0-0.1,0c-0.3-0.2-0.6-0.4-0.8-0.6c0,0-0.1,0-0.1,0c-0.3,0.2-0.6,0.4-0.9,0.6
		c0,0-0.1,0-0.1,0c0,0-0.1,0-0.1,0c-0.1,0-0.1-0.1-0.2-0.1c0,0,0-0.1,0-0.1c0,0,0-0.1,0-0.1c0,0,0.1-0.1,0.1-0.1
		c0.3-0.1,0.7-0.3,0.9-0.5c0,0,0-0.1,0-0.1c-0.3-0.4-0.5-0.9-0.7-1.4c0,0,0,0,0,0s0,0,0,0C2.9,22.2,2.5,23,2,23.6
		c0,0-0.1,0.1-0.2,0.1c0,0,0,0,0,0c-0.1,0-0.1,0-0.2-0.1c0,0-0.1-0.1-0.1-0.2c0-0.1,0-0.1,0.1-0.2c0.2-0.2,0.4-0.4,0.5-0.6
		c0.1-0.2,0.2-0.5,0.3-0.7c0.1-0.2,0.1-0.5,0.2-0.8c0-0.3,0.1-0.6,0.1-0.9c0-0.3,0-0.6,0-0.9c0,0,0-0.1-0.1-0.1H2.4
		c-0.1,0-0.1,0-0.2-0.1c0,0-0.1-0.1-0.1-0.2c0-0.1,0-0.1,0.1-0.2c0-0.1,0.1-0.1,0.2-0.1h1.8c0,0,0,0,0,0c0,0,0.1,0,0.1,0
		c0,0,0,0,0.1,0l0.1,0c0.1,0,0.1,0,0.1,0.1s0,0.1,0,0.1c0,0.4-0.1,0.8-0.2,1.2c0,0,0,0,0,0c0,0,0,0,0,0H5.1
		C5.1,20.1,5.1,20.1,5.1,20.1z M4.1,19.2C4.1,19.2,4.1,19.2,4.1,19.2C4.1,19.2,4.1,19.2,4.1,19.2l-0.8-0.1c0,0-0.1,0-0.1,0.1
		c0,0.1,0,0.2,0,0.3c0,0,0,0.1,0,0.1c0.2,1.1,0.5,1.9,0.9,2.5c0,0,0,0,0.1,0c0.3-0.4,0.5-0.9,0.7-1.4c0,0,0,0,0,0c0,0,0,0,0,0H4.4
		c0,0,0,0,0,0c0,0,0,0.1-0.1,0.1c0,0-0.1,0-0.1,0l-0.1,0c-0.1,0-0.1,0-0.2-0.1c0,0,0-0.1,0-0.1c0,0,0,0,0,0
		C4,20.2,4.1,19.7,4.1,19.2z"/>
	<path fill="#FFFFFF" d="M11.6,21.7c0,0,0.1,0.1,0.1,0.2c0,0,0,0,0,0c0,0.1-0.1,0.1-0.1,0.2c-0.1,0-0.1,0-0.2,0c0,0,0,0-0.1,0
		c-0.1,0-0.1,0-0.2-0.1c0,0-0.1-0.1-0.1-0.2c0,0-0.1,0-0.1,0c-0.5,0-1,0-1.5,0.1c0,0-0.1,0-0.1,0.1v1.5c0,0.1,0,0.1-0.1,0.2
		c-0.1,0.1-0.1,0.1-0.2,0.1s-0.1,0-0.2-0.1c-0.1-0.1-0.1-0.1-0.1-0.2v-1.5c0,0,0,0,0,0c0,0,0,0,0,0c-0.6,0-1.2,0-1.9,0.1h0
		c-0.1,0-0.1,0-0.2-0.1c-0.1,0-0.1-0.1-0.1-0.2c0,0,0,0,0,0c0-0.1,0-0.1,0.1-0.2c0-0.1,0.1-0.1,0.2-0.1c0.2,0,0.5,0,0.9,0
		c0,0,0.1,0,0.1,0c0.1-0.1,0.2-0.2,0.4-0.3c0,0,0,0,0-0.1c-0.3-0.3-0.6-0.5-1-0.8c-0.1,0-0.1-0.1-0.1-0.2s0-0.1,0.1-0.2
		c0.1-0.1,0.1-0.1,0.2-0.1c0,0,0,0,0,0c0.1,0,0.1,0,0.2,0c0,0,0.1,0,0.1,0.1c0,0,0,0,0.1,0c0.2-0.2,0.4-0.4,0.6-0.7c0,0,0,0,0,0
		c0,0,0,0,0,0c-0.4,0-0.8,0-1.2,0h0c-0.1,0-0.1,0-0.2-0.1c-0.1,0-0.1-0.1-0.1-0.2c0-0.1,0-0.1,0-0.2c0-0.1,0.1-0.1,0.1-0.1
		c1.5,0,2.8-0.1,3.7-0.3c0,0,0.1,0,0.1,0c0.1,0,0.1,0,0.2,0c0.1,0,0.2,0.1,0.2,0.2c0,0,0,0.1,0,0.1c0,0,0,0,0,0.1
		c0,0.1-0.1,0.1-0.1,0.1c-0.6,0.1-1.2,0.2-2,0.2l0,0c0,0,0,0,0,0.1c-0.3,0.3-0.6,0.7-0.9,1c0,0,0,0,0,0.1c0.2,0.1,0.3,0.3,0.5,0.4
		c0,0,0.1,0,0.1,0c0.4-0.4,0.8-0.7,1.1-1.1c0.1-0.1,0.1-0.1,0.2-0.1c0,0,0,0,0.1,0c0.1,0,0.1,0,0.2,0c0.1,0,0.1,0.1,0.1,0.2
		c0,0,0,0,0,0c0,0.1,0,0.1-0.1,0.2c-0.5,0.5-1.1,1-1.7,1.5c0,0,0,0,0,0s0,0,0,0c0.8,0,1.4,0,1.8,0c0,0,0,0,0,0c0,0,0,0,0,0
		c-0.1-0.1-0.2-0.2-0.3-0.3c0,0-0.1-0.1-0.1-0.1c0-0.1,0-0.1,0.1-0.2c0.1,0,0.1-0.1,0.2-0.1c0,0,0,0,0,0c0.1,0,0.2,0,0.2,0.1
		C11,21.1,11.3,21.4,11.6,21.7z M7.5,22.4c0.1-0.1,0.1-0.1,0.2-0.1c0,0,0.1,0,0.1,0c0,0,0.1,0,0.1,0c0.1,0,0.1,0.1,0.1,0.1
		c0,0,0,0,0,0.1c0,0,0,0.1-0.1,0.1c-0.3,0.3-0.6,0.6-0.9,0.9C7,23.5,7,23.5,6.9,23.5c0,0,0,0,0,0c-0.1,0-0.2,0-0.2-0.1
		c-0.1,0-0.1-0.1-0.1-0.2c0-0.1,0-0.1,0.1-0.2C7,22.9,7.2,22.6,7.5,22.4z M10.1,22.6c0,0-0.1-0.1-0.1-0.2c0-0.1,0-0.1,0.1-0.2
		c0.1,0,0.1-0.1,0.2-0.1c0.1,0,0.2,0,0.2,0.1c0.4,0.3,0.7,0.5,1,0.8c0.1,0,0.1,0.1,0.1,0.2c0,0.1,0,0.2-0.1,0.2
		c-0.1,0-0.1,0.1-0.2,0.1c0,0,0,0,0,0c-0.1,0-0.2,0-0.2-0.1C10.8,23.2,10.4,22.9,10.1,22.6z"/>
	<path fill="#FFFFFF" d="M14.3,21.3C14.3,21.3,14.3,21.3,14.3,21.3l-0.3,0c0,0-0.1,0-0.1,0.1v2.1c0,0.1,0,0.1-0.1,0.2
		c0,0-0.1,0.1-0.2,0.1c-0.1,0-0.1,0-0.2-0.1c0,0-0.1-0.1-0.1-0.2v-2.1c0,0,0,0,0,0s0,0,0,0c-0.2,0-0.4,0-0.6,0c0,0,0,0,0,0
		c-0.1,0-0.1,0-0.2-0.1c-0.1,0-0.1-0.1-0.1-0.2c0-0.1,0-0.1,0.1-0.1c0,0,0.1-0.1,0.2-0.1h0.1c0,0,0.1,0,0.1,0
		c0.1-0.1,0.2-0.3,0.3-0.4c0,0,0-0.1,0-0.1c-0.1-0.2-0.3-0.4-0.5-0.6c0,0-0.1-0.1-0.1-0.2c0-0.1,0-0.1,0-0.2l0,0
		c0,0,0.1-0.1,0.1-0.1c0,0,0.1,0,0.1,0c0,0,0,0,0,0c0.1-0.3,0.3-0.5,0.4-0.8c0-0.1,0.1-0.1,0.1-0.1c0,0,0.1,0,0.1,0c0,0,0.1,0,0.1,0
		c0.1,0,0.1,0.1,0.1,0.1c0,0,0,0.1,0,0.1c0,0,0,0.1,0,0.1c-0.2,0.4-0.4,0.7-0.5,0.9c0,0,0,0.1,0,0.1c0.1,0.1,0.2,0.2,0.2,0.2
		c0,0,0,0,0,0c0,0,0,0,0,0c0.2-0.3,0.3-0.5,0.4-0.7c0-0.1,0.1-0.1,0.1-0.1c0,0,0.1,0,0.1,0c0,0,0.1,0,0.1,0c0.1,0,0.1,0.1,0.1,0.1
		c0,0,0,0,0,0.1c0,0,0,0.1,0,0.1c-0.3,0.6-0.7,1-1,1.4c0,0,0,0,0,0c0,0,0,0,0,0c0.2,0,0.4,0,0.6,0c0,0,0,0,0,0c0,0,0,0,0,0
		c0-0.1-0.1-0.2-0.1-0.2c0,0,0-0.1,0-0.1c0-0.1,0.1-0.1,0.1-0.1c0.1,0,0.1,0,0.2,0s0.1,0.1,0.1,0.1c0.2,0.3,0.3,0.6,0.4,0.8
		c0,0.1,0,0.1,0,0.2c0,0.1-0.1,0.1-0.1,0.1c0,0-0.1,0-0.2,0S14.4,21.5,14.3,21.3C14.3,21.4,14.3,21.4,14.3,21.3z M12.8,21.9
		c0-0.1,0-0.1,0.1-0.1s0.1-0.1,0.2,0c0.1,0,0.1,0,0.2,0.1c0,0,0,0.1,0,0.1c0,0,0,0,0,0c-0.1,0.4-0.2,0.8-0.3,1
		c0,0.1-0.1,0.1-0.1,0.1c-0.1,0-0.1,0-0.2,0c-0.1,0-0.1-0.1-0.1-0.1c0-0.1,0-0.1,0-0.2C12.6,22.6,12.7,22.3,12.8,21.9z M14.7,22.5
		c0,0.1,0,0.1,0,0.2c0,0.1-0.1,0.1-0.1,0.1c-0.1,0-0.1,0-0.2,0c0,0-0.1-0.1-0.1-0.1c-0.1-0.2-0.1-0.4-0.2-0.7c0,0,0,0,0-0.1
		c0,0,0-0.1,0-0.1c0,0,0.1-0.1,0.1-0.1c0.1,0,0.1,0,0.2,0c0.1,0,0.1,0.1,0.1,0.1C14.6,22.1,14.7,22.3,14.7,22.5z M15.4,21.5
		c0-0.1,0-0.1,0.1-0.2c0.1,0,0.1-0.1,0.2-0.1c0.1,0,0.1,0,0.2,0.1c0,0,0.1,0.1,0.1,0.2c0,0.5-0.1,0.9-0.3,1.3
		c-0.1,0.3-0.4,0.6-0.8,0.8c0,0-0.1,0-0.1,0c0,0-0.1,0-0.1,0c-0.1,0-0.1-0.1-0.2-0.1c0,0,0-0.1,0-0.1c0,0,0,0,0,0
		c0-0.1,0-0.1,0.1-0.1c0.3-0.2,0.5-0.4,0.6-0.6C15.3,22.3,15.3,22,15.4,21.5z M14.7,20.8c0-0.1,0-0.1,0.1-0.2c0-0.1,0.1-0.1,0.2-0.1
		l0.2,0c0,0,0.1,0,0.1,0c0.1-0.3,0.2-0.5,0.3-0.9c0,0,0,0,0,0c0,0,0,0,0,0h-0.6c-0.1,0-0.1,0-0.2-0.1s-0.1-0.1-0.1-0.2
		c0-0.1,0-0.1,0.1-0.2c0,0,0.1-0.1,0.2-0.1h1c0,0,0.1,0,0.1-0.1v-0.4c0-0.1,0-0.1,0.1-0.2s0.1-0.1,0.2-0.1s0.1,0,0.2,0.1
		c0.1,0.1,0.1,0.1,0.1,0.2V19c0,0,0,0.1,0.1,0.1h1.1c0.1,0,0.1,0,0.2,0.1c0,0,0.1,0.1,0.1,0.2c0,0.1,0,0.1-0.1,0.2
		c0,0-0.1,0.1-0.2,0.1h-1.4c0,0-0.1,0-0.1,0.1c-0.2,0.4-0.3,0.7-0.4,0.8c0,0,0,0,0,0c0,0,0,0,0,0c0.2,0,0.6,0,1.1-0.1c0,0,0,0,0,0
		s0,0,0,0c-0.1-0.1-0.1-0.2-0.2-0.2c0,0-0.1-0.1,0-0.2c0-0.1,0-0.1,0.1-0.1c0,0,0.1,0,0.1,0c0,0,0,0,0.1,0c0.1,0,0.1,0,0.2,0.1
		c0.3,0.3,0.5,0.6,0.6,0.9c0,0,0,0.1,0,0.1c0,0,0,0,0,0.1c0,0.1-0.1,0.1-0.1,0.2c0,0-0.1,0-0.1,0c0,0,0,0-0.1,0
		c-0.1,0-0.1-0.1-0.1-0.1c0-0.1-0.1-0.1-0.1-0.2c0,0,0,0-0.1,0L15,21c0,0,0,0,0,0c-0.1,0-0.1,0-0.2-0.1
		C14.7,20.9,14.7,20.9,14.7,20.8z M17.1,23.2h0.3c0,0,0.1,0,0.1-0.1c0-0.1,0-0.2,0-0.4c0-0.1,0-0.1,0.1-0.1c0,0,0.1,0,0.2,0
		c0.1,0,0.1,0.1,0.2,0.1c0,0.1,0.1,0.1,0.1,0.2c0,0,0,0,0,0c0,0.3-0.1,0.5-0.2,0.6s-0.2,0.2-0.4,0.2H17c-0.2,0-0.4,0-0.4-0.1
		c-0.1-0.1-0.1-0.3-0.1-0.5v-1.5c0-0.1,0-0.1,0.1-0.2c0,0,0.1-0.1,0.2-0.1c0.1,0,0.1,0,0.2,0.1c0,0,0.1,0.1,0.1,0.2V23
		c0,0.1,0,0.1,0,0.1C17,23.2,17,23.2,17.1,23.2z"/>
	<path fill="#FFFFFF" d="M20.3,23c0.1,0.1,0.1,0.1,0.1,0.2c0,0.1,0,0.2-0.1,0.3c-0.1,0-0.1,0.1-0.2,0.1c0,0,0,0,0,0
		c-0.1,0-0.2,0-0.2-0.1c-0.3-0.3-0.5-0.6-0.8-0.8c-0.1-0.1-0.1-0.1-0.1-0.2c0-0.1,0-0.2,0.1-0.2c0.1-0.1,0.1-0.1,0.2-0.1h0
		c0.1,0,0.2,0,0.2,0.1C19.7,22.4,20,22.7,20.3,23z"/>
	<path fill="#FFFFFF" d="M25.4,20.6c0-0.1,0-0.1,0.1-0.2c0,0,0.1,0,0.1,0c0,0,0,0,0.1,0c0.1,0,0.1,0.1,0.2,0.1c0,0,0.1,0.1,0.1,0.2
		c0,0,0,0,0,0c-0.1,0.8-0.3,1.3-0.5,1.7c0,0.1-0.1,0.1-0.2,0.1c0,0-0.1,0-0.1,0c-0.1,0-0.1,0-0.2,0c-0.1,0-0.1-0.1-0.1-0.2
		c0,0,0,0,0-0.1c0,0,0-0.1,0-0.1C25.1,21.7,25.3,21.2,25.4,20.6z M26.4,20.1c0-0.1,0-0.1,0.1-0.2c0.1-0.1,0.1-0.1,0.2-0.1
		s0.1,0,0.2,0.1c0.1,0.1,0.1,0.1,0.1,0.2v2.6c0,0.1,0,0.2,0.1,0.3s0.1,0.1,0.3,0.1h0.9c0.2,0,0.3-0.1,0.3-0.2c0-0.1,0.1-0.3,0.1-0.7
		c0-0.1,0-0.1,0.1-0.1c0.1,0,0.1,0,0.2,0c0.1,0,0.1,0.1,0.2,0.1c0,0.1,0.1,0.1,0.1,0.2c0,0,0,0,0,0c0,0.4-0.1,0.7-0.2,0.9
		c-0.1,0.2-0.3,0.3-0.7,0.3h-1c-0.3,0-0.6-0.1-0.7-0.2c-0.1-0.1-0.2-0.3-0.2-0.7V20.1z M26.7,18.8c-0.1,0-0.1-0.1-0.1-0.1
		c0,0,0,0,0-0.1c0,0,0-0.1,0-0.1c0.1-0.1,0.1-0.1,0.2-0.1c0,0,0.1,0,0.1,0c0,0,0.1,0,0.1,0c0.3,0.1,0.5,0.2,0.8,0.4
		c0.3,0.1,0.5,0.3,0.7,0.4c0.1,0,0.1,0.1,0.1,0.2c0,0,0,0,0,0.1c0,0.1,0,0.1-0.1,0.2c0,0.1-0.1,0.1-0.2,0.1c0,0,0,0-0.1,0
		c-0.1,0-0.1,0-0.2-0.1c-0.2-0.1-0.4-0.2-0.6-0.4C27.2,19,26.9,18.9,26.7,18.8z M28.9,20.6c0,0,0-0.1,0-0.1c0,0,0,0,0-0.1
		c0-0.1,0.1-0.1,0.1-0.2c0,0,0.1,0,0.1,0c0,0,0,0,0.1,0c0.1,0,0.1,0.1,0.2,0.1c0.2,0.3,0.4,0.5,0.5,0.9c0.1,0.3,0.2,0.5,0.3,0.8
		c0,0,0,0.1,0,0.1c0,0,0,0.1,0,0.1c0,0.1-0.1,0.1-0.2,0.2c0,0-0.1,0-0.1,0s-0.1,0-0.1,0c-0.1,0-0.1-0.1-0.1-0.2
		c-0.1-0.2-0.2-0.5-0.3-0.8C29.2,21.1,29.1,20.8,28.9,20.6z"/>
	<path fill="#FFFFFF" d="M35.8,22.7C35.8,22.7,35.9,22.8,35.8,22.7l0.3,0.1c0.1,0,0.1,0,0.2,0.1c0.1,0.1,0.1,0.1,0.1,0.2
		s0,0.1-0.1,0.2c-0.1,0.1-0.1,0.1-0.2,0.1h-4.8c-0.1,0-0.1,0-0.2-0.1C31,23.2,31,23.1,31,23s0-0.1,0.1-0.2c0.1-0.1,0.1-0.1,0.2-0.1
		h0.2c0,0,0.1,0,0.1-0.1v-2.9c0-0.1,0-0.3,0.1-0.4c0.1-0.1,0.2-0.1,0.4-0.1h0.8c0,0,0.1,0,0.1-0.1c0.1-0.3,0.2-0.5,0.3-0.7
		c0-0.1,0.1-0.2,0.2-0.2c0.1,0,0.1-0.1,0.2-0.1c0,0,0,0,0.1,0c0.1,0,0.1,0.1,0.2,0.1c0,0,0,0.1,0,0.1c0,0,0,0.1,0,0.1
		c-0.1,0.3-0.2,0.5-0.3,0.6c0,0,0,0,0,0c0,0,0,0,0,0h1.8c0.1,0,0.3,0,0.4,0.1c0.1,0.1,0.1,0.2,0.1,0.4V22.7z M32.2,19.9
		C32.1,19.9,32.1,19.9,32.2,19.9l-0.1,2.8c0,0,0,0.1,0.1,0.1h0.6c0,0,0.1,0,0.1-0.1v-2.8c0,0,0-0.1-0.1-0.1H32.2z M34,22.8
		C34,22.8,34,22.7,34,22.8l0.1-2.8c0,0,0-0.1-0.1-0.1h-0.6c0,0-0.1,0-0.1,0.1v2.8c0,0,0,0.1,0.1,0.1H34z M35.3,19.9
		C35.3,19.9,35.3,19.9,35.3,19.9l-0.7-0.1c0,0-0.1,0-0.1,0.1v2.8c0,0,0,0.1,0.1,0.1h0.6c0,0,0.1,0,0.1-0.1V19.9z"/>
	<path fill="#FFFFFF" d="M42.3,18.8c0.1,0,0.1,0,0.2,0.1s0.1,0.1,0.1,0.2s0,0.1-0.1,0.2s-0.1,0.1-0.2,0.1h-0.9c0,0,0,0,0,0
		c0,0,0,0,0,0c0,0.1,0.1,0.1,0.1,0.2c0,0,0,0.1,0,0.1c0,0,0,0.1,0,0.1c0,0.1-0.1,0.1-0.1,0.1c0,0-0.1,0-0.1,0c0,0-0.1,0-0.1,0
		c-0.1,0-0.1-0.1-0.2-0.1c-0.1-0.1-0.1-0.2-0.2-0.3c0,0-0.1,0-0.1,0h-0.3c0,0-0.1,0-0.1,0c-0.1,0.1-0.2,0.2-0.2,0.3c0,0,0,0,0,0v0.4
		c0,0,0,0,0,0h1.7c0.1,0,0.3,0,0.4,0.1c0.1,0.1,0.1,0.2,0.1,0.4v0.4c0,0.1,0,0.1-0.1,0.2s-0.1,0.1-0.2,0.1s-0.1,0-0.2-0.1
		c-0.1-0.1-0.1-0.1-0.1-0.2v-0.4c0,0,0-0.1-0.1-0.1H38c0,0-0.1,0-0.1,0.1v0.4c0,0.1,0,0.1-0.1,0.2c0,0-0.1,0.1-0.2,0.1
		c-0.1,0-0.1,0-0.2-0.1c0,0-0.1-0.1-0.1-0.2v-0.4c0-0.1,0-0.3,0.1-0.4c0.1-0.1,0.2-0.1,0.4-0.1h1.6c0,0,0,0,0,0v-0.4c0,0,0,0,0,0h0
		c0,0,0,0,0,0c0,0-0.1,0-0.1-0.1s0-0.1,0-0.1c0,0,0.1-0.1,0.1-0.1c0,0,0,0,0,0c0,0,0,0,0,0h-0.8c0,0,0,0,0,0c0,0,0,0,0,0
		c0,0.1,0.1,0.1,0.1,0.2c0,0,0,0.1,0,0.1c0,0,0,0.1,0,0.1c0,0.1-0.1,0.1-0.1,0.1c0,0-0.1,0-0.1,0c0,0-0.1,0-0.1,0
		c-0.1,0-0.1-0.1-0.1-0.1c0-0.1-0.1-0.2-0.2-0.3c0,0,0-0.1-0.1-0.1h-0.1c0,0-0.1,0-0.1,0.1c-0.1,0.1-0.2,0.2-0.3,0.3
		c0,0.1-0.1,0.1-0.2,0.1c0,0,0,0,0,0c-0.1,0-0.1,0-0.2-0.1c-0.1,0-0.1-0.1-0.1-0.2c0-0.1,0-0.1,0.1-0.1c0.2-0.2,0.4-0.5,0.5-0.8
		c0-0.1,0.1-0.1,0.2-0.2c0,0,0.1,0,0.1,0c0,0,0.1,0,0.1,0c0.1,0,0.1,0.1,0.1,0.1c0,0,0,0.1,0,0.1c0,0,0,0.1,0,0.1c0,0,0,0,0,0.1
		c0,0,0,0,0,0c0,0,0,0,0,0h1.1c0.1,0,0.2,0,0.2,0.1c0.1,0.1,0.1,0.1,0.1,0.2c0,0,0,0,0,0s0,0,0,0c0.2-0.2,0.3-0.4,0.4-0.5
		c0-0.1,0.1-0.1,0.2-0.2c0,0,0.1,0,0.1,0c0,0,0,0,0.1,0c0.1,0,0.1,0.1,0.1,0.1c0,0,0,0.1,0,0.1c0,0,0,0.1,0,0.1c0,0,0,0,0,0.1
		c0,0,0,0,0,0c0,0,0,0,0,0H42.3z M38.8,21.9C38.8,21.9,38.8,21.9,38.8,21.9l-0.1,0.3c0,0,0,0.1,0.1,0.1h2.5c0.1,0,0.3,0,0.4,0.1
		c0.1,0.1,0.1,0.2,0.1,0.4v0.7c0,0.1,0,0.1-0.1,0.2c-0.1,0.1-0.1,0.1-0.2,0.1h-0.1c0,0-0.1,0-0.1,0c0,0,0-0.1,0-0.1c0,0,0,0,0,0
		h-2.5c0,0,0,0,0,0c0,0,0,0.1,0,0.1s-0.1,0-0.1,0h-0.1c-0.1,0-0.1,0-0.2-0.1c0,0-0.1-0.1-0.1-0.2v-2.3c0-0.1,0-0.3,0.1-0.4
		s0.2-0.1,0.4-0.1H41c0.1,0,0.3,0,0.4,0.1c0.1,0.1,0.1,0.2,0.1,0.4v0.2c0,0.1,0,0.3-0.1,0.4c-0.1,0.1-0.2,0.1-0.4,0.1H38.8z
		 M40.9,21.2C40.9,21.1,40.9,21.1,40.9,21.2l-2.1-0.1c0,0-0.1,0-0.1,0.1v0.3c0,0,0,0.1,0.1,0.1h2c0,0,0.1,0,0.1-0.1V21.2z
		 M41.3,22.7C41.3,22.7,41.3,22.7,41.3,22.7l-2.5-0.1c0,0-0.1,0-0.1,0.1v0.3c0,0,0,0.1,0.1,0.1h2.4c0,0,0.1,0,0.1-0.1V22.7z"/>
	<path fill="#FFFFFF" d="M44.8,19.5C44.7,19.5,44.7,19.5,44.8,19.5l-0.1,1.3c0,1.2-0.3,2.2-0.7,2.8c0,0.1-0.1,0.1-0.2,0.1
		c-0.1,0-0.1,0-0.2-0.1c-0.1-0.1-0.1-0.1-0.1-0.2c0-0.1,0-0.1,0.1-0.2c0.3-0.4,0.5-0.8,0.5-1.3c0,0,0,0,0,0c0,0,0,0,0,0
		c-0.2,0.1-0.3,0.2-0.4,0.2c0,0-0.1,0-0.1,0c0,0-0.1,0-0.1,0c-0.1,0-0.1-0.1-0.1-0.1c0,0,0-0.1,0-0.1c0,0,0-0.1,0-0.1
		c0-0.1,0.1-0.1,0.1-0.2c0.2-0.1,0.4-0.2,0.7-0.3c0,0,0.1,0,0.1-0.1c0-0.1,0-0.3,0-0.5v-1.2c0-0.1,0-0.3,0.1-0.4
		c0.1-0.1,0.2-0.1,0.4-0.1h1.2c0,0,0.1,0,0.1-0.1v-0.3c0-0.1,0-0.1,0.1-0.2c0.1-0.1,0.1-0.1,0.2-0.1s0.1,0,0.2,0.1
		c0.1,0.1,0.1,0.1,0.1,0.2v0.3c0,0,0,0.1,0.1,0.1h1.8c0.1,0,0.1,0,0.2,0.1c0,0,0.1,0.1,0.1,0.2c0,0.1,0,0.1-0.1,0.2
		s-0.1,0.1-0.2,0.1H44.8z M44.1,20.3C44.1,20.3,44.1,20.3,44.1,20.3c0,0.1,0,0.2,0,0.2c0,0.1-0.1,0.1-0.1,0.1c-0.1,0-0.1,0-0.2,0
		c-0.1,0-0.1-0.1-0.1-0.1c-0.1-0.2-0.2-0.4-0.3-0.7c0-0.1,0-0.1,0-0.2c0-0.1,0.1-0.1,0.1-0.1c0.1,0,0.1,0,0.2,0
		c0.1,0,0.1,0.1,0.1,0.1C43.9,19.9,44,20.1,44.1,20.3z M48.5,21.5c0,0,0.1,0.1,0.1,0.2c0,0.1,0,0.1-0.1,0.2c0,0-0.1,0.1-0.2,0.1
		h-1.1c0,0,0,0,0,0c0,0,0,0,0,0c0.2,0.6,0.7,1,1.3,1.2c0.1,0,0.1,0.1,0.1,0.1c0,0,0,0,0,0.1c0,0,0,0.1,0,0.1
		c-0.1,0.1-0.1,0.1-0.2,0.2c0,0-0.1,0-0.1,0c0,0-0.1,0-0.1,0c-0.6-0.2-1-0.7-1.3-1.3c0,0,0,0,0,0s0,0,0,0c-0.1,0.2-0.3,0.5-0.5,0.7
		c-0.2,0.2-0.6,0.4-1,0.6c0,0-0.1,0-0.1,0c0,0-0.1,0-0.1,0c-0.1,0-0.1-0.1-0.2-0.1c0,0,0-0.1,0-0.1c0,0,0,0,0,0
		c0-0.1,0.1-0.1,0.1-0.1c0.8-0.3,1.2-0.7,1.4-1.3c0,0,0,0,0,0c0,0,0,0,0,0h-1.2c-0.1,0-0.1,0-0.2-0.1c0,0-0.1-0.1-0.1-0.2
		c0-0.1,0-0.1,0.1-0.2s0.1-0.1,0.2-0.1h1.3c0,0,0.1,0,0.1-0.1v0v-0.7c0,0,0-0.1-0.1-0.1h-0.6c0,0-0.1,0-0.1,0.1
		c-0.1,0.2-0.2,0.3-0.3,0.5c0,0.1-0.1,0.1-0.2,0.1c0,0,0,0,0,0c-0.1,0-0.1,0-0.2-0.1c-0.1,0-0.1-0.1-0.1-0.2c0,0,0,0,0,0
		c0-0.1,0-0.1,0-0.1c0.2-0.3,0.4-0.6,0.5-1.1c0-0.1,0.1-0.1,0.1-0.2c0,0,0.1,0,0.1,0c0,0,0,0,0.1,0c0.1,0,0.1,0.1,0.2,0.1
		c0,0,0,0.1,0,0.1c0,0,0,0.1,0,0.1c0,0.1,0,0.1-0.1,0.2c0,0,0,0,0,0c0,0,0,0,0,0h2.2c0.1,0,0.1,0,0.2,0.1c0,0,0.1,0.1,0.1,0.2
		s0,0.1-0.1,0.2c0,0-0.1,0.1-0.2,0.1H47c0,0-0.1,0-0.1,0.1v0.7v0c0,0,0,0.1,0.1,0.1h1.3C48.4,21.4,48.5,21.5,48.5,21.5z"/>
	<path fill="#FFFFFF" d="M52.7,18.9C52.7,19,52.7,19,52.7,18.9l1.9,0.1c0.1,0,0.1,0,0.2,0.1c0,0,0.1,0.1,0.1,0.2
		c0,0.1,0,0.1-0.1,0.2c0,0-0.1,0.1-0.2,0.1h-3.6c0,0-0.1,0-0.1,0.1v1.2c0,1.2-0.2,2.2-0.7,2.8c0,0.1-0.1,0.1-0.2,0.1
		c-0.1,0-0.1,0-0.2-0.1c-0.1-0.1-0.1-0.1-0.1-0.2c0-0.1,0-0.1,0.1-0.2c0.3-0.3,0.4-0.8,0.5-1.3c0,0,0,0,0,0c0,0,0,0,0,0
		c-0.1,0.1-0.2,0.1-0.4,0.2c0,0-0.1,0-0.1,0c0,0-0.1,0-0.1,0c-0.1,0-0.1-0.1-0.1-0.1c0,0,0-0.1,0-0.1c0,0,0-0.1,0-0.1
		c0-0.1,0.1-0.1,0.1-0.1c0.1-0.1,0.3-0.2,0.7-0.3c0,0,0.1,0,0.1-0.1c0-0.2,0-0.4,0-0.5v-1.2c0-0.1,0-0.3,0.1-0.4
		c0.1-0.1,0.2-0.1,0.4-0.1h1.2c0,0,0.1,0,0.1-0.1v-0.3c0-0.1,0-0.1,0.1-0.2c0.1-0.1,0.1-0.1,0.2-0.1s0.1,0,0.2,0.1
		c0.1,0.1,0.1,0.1,0.1,0.2V18.9z M50.3,20.3C50.3,20.3,50.3,20.4,50.3,20.3c0,0.1,0,0.2,0,0.2c0,0.1-0.1,0.1-0.1,0.1
		c-0.1,0-0.1,0-0.2,0c-0.1,0-0.1-0.1-0.1-0.1c-0.1-0.2-0.2-0.4-0.3-0.7c0-0.1,0-0.1,0-0.2c0-0.1,0.1-0.1,0.1-0.1c0.1,0,0.1,0,0.2,0
		c0.1,0,0.1,0.1,0.1,0.1C50.1,19.9,50.2,20.1,50.3,20.3z M51.4,20.4c-0.1,0-0.1,0-0.2-0.1s-0.1-0.1-0.1-0.2s0-0.1,0.1-0.2
		c0,0,0.1-0.1,0.2-0.1h3.2c0.1,0,0.1,0,0.2,0.1c0,0,0.1,0.1,0.1,0.2s0,0.1-0.1,0.2s-0.1,0.1-0.2,0.1h-1.4c0,0-0.1,0-0.1,0.1v0.4
		c0,0,0,0.1,0.1,0.1h0.9c0.1,0,0.3,0,0.4,0.1s0.1,0.2,0.1,0.4v1.7c0,0.1,0,0.2,0,0.3c0,0.1-0.1,0.1-0.2,0.2c-0.1,0-0.3,0.1-0.6,0.1
		h0c-0.1,0-0.1,0-0.2-0.1c-0.1,0-0.1-0.1-0.1-0.2c0-0.1,0-0.1,0-0.2s0.1-0.1,0.1-0.1c0.1,0,0.1,0,0.2,0c0.1,0,0.1,0,0.2,0
		c0,0,0.1,0,0.1,0c0,0,0,0,0-0.1v-1.7c0,0,0-0.1-0.1-0.1h-0.9c0,0-0.1,0-0.1,0.1c0,0.1,0,0.1,0,0.2c0,0,0,0.1,0,0.1
		c0.3,0.3,0.6,0.5,0.8,0.7c0,0,0.1,0.1,0.1,0.2c0,0.1,0,0.1-0.1,0.2c0,0-0.1,0.1-0.2,0.1c-0.1,0-0.1,0-0.2-0.1
		c-0.2-0.2-0.4-0.4-0.6-0.6c0,0-0.1,0-0.1,0c-0.1,0.2-0.3,0.4-0.5,0.6c-0.1,0-0.1,0.1-0.2,0.1c0,0-0.1,0-0.1,0
		c-0.1,0-0.2-0.1-0.3-0.1c0,0,0,0,0,0c0,0,0,0,0,0v0.8c0,0.1,0,0.1-0.1,0.2c0,0-0.1,0.1-0.2,0.1c-0.1,0-0.1,0-0.2-0.1
		c0,0-0.1-0.1-0.1-0.2v-2c0-0.1,0-0.3,0.1-0.4c0.1-0.1,0.2-0.1,0.4-0.1h0.8c0,0,0.1,0,0.1-0.1v-0.4c0,0,0-0.1-0.1-0.1H51.4z
		 M51.8,21.4C51.8,21.4,51.8,21.4,51.8,21.4l-0.1,1.1c0,0,0,0,0,0c0,0,0,0,0,0c0.5-0.2,0.7-0.6,0.8-1.1c0,0,0,0,0,0c0,0,0,0,0,0
		H51.8z"/>
	<path fill="#FFFFFF" d="M56.6,23.9C56.5,23.9,56.5,23.9,56.6,23.9c-0.1,0-0.1,0-0.2,0c0,0-0.1-0.1-0.1-0.1c0,0,0-0.1,0-0.1
		c0,0,0-0.1,0-0.1c0-0.1,0.1-0.1,0.1-0.1c0.3-0.2,0.5-0.4,0.5-0.7c0,0,0,0,0,0c0,0,0,0,0,0c0,0,0,0,0,0c-0.1,0-0.3,0-0.3-0.1
		c-0.1-0.1-0.1-0.2-0.1-0.3s0-0.3,0.1-0.3c0.1-0.1,0.2-0.1,0.4-0.1c0.2,0,0.3,0.1,0.4,0.2c0.1,0.1,0.1,0.3,0.1,0.5
		c0,0.3-0.1,0.5-0.2,0.8C57.1,23.6,56.8,23.8,56.6,23.9z"/>
	<path fill="#FFFFFF" d="M63.9,21.7C63.9,21.6,63.9,21.6,63.9,21.7c0.1,0,0.2,0,0.2,0c0.1,0,0.1,0.1,0.1,0.1c0,0,0,0.1,0,0.1
		c0,0,0,0.1,0,0.1c0,0.1-0.1,0.1-0.2,0.2c-0.5,0.2-1.1,0.5-1.8,0.8c0,0-0.1,0-0.1,0c0,0-0.1,0-0.1,0c-0.1,0-0.1-0.1-0.2-0.2
		c0,0,0-0.1,0-0.1c0,0,0-0.1,0-0.1c0-0.1,0.1-0.1,0.2-0.2c0.1-0.1,0.3-0.1,0.5-0.2c0,0,0.1,0,0.1-0.1L62.4,19c0-0.1,0-0.1,0.1-0.2
		c0.1-0.1,0.1-0.1,0.2-0.1c0,0,0,0,0,0c0.1,0,0.1,0,0.2,0.1c0.1,0.1,0.1,0.1,0.1,0.2l0.1,3c0,0,0,0,0,0c0,0,0,0,0,0
		C63.4,21.9,63.6,21.8,63.9,21.7z M67,23c0,0.1,0.1,0.1,0.1,0.2c0,0,0,0,0,0c0,0.1,0,0.2-0.1,0.2c0,0-0.1,0.1-0.2,0.1c0,0,0,0,0,0
		c-0.1,0-0.1,0-0.2-0.1c-0.2-0.3-0.6-0.7-1-1.2c0,0,0,0-0.1,0c-0.4,0.5-0.9,1-1.6,1.3c-0.1,0-0.1,0-0.2,0c0,0-0.1,0-0.1,0
		c-0.1,0-0.2-0.1-0.2-0.1c0,0-0.1-0.1-0.1-0.1c0,0,0,0,0,0c0-0.1,0.1-0.1,0.1-0.2c0.4-0.2,0.8-0.4,1-0.6c0.3-0.3,0.5-0.6,0.7-0.9
		c0.2-0.4,0.3-0.7,0.4-1.2c0.1-0.4,0.2-0.9,0.3-1.5c0-0.1,0-0.1,0.1-0.2c0.1,0,0.1-0.1,0.2-0.1c0,0,0,0,0,0c0.1,0,0.2,0,0.2,0.1
		c0,0.1,0.1,0.1,0.1,0.2c0,0,0,0,0,0c-0.1,1.1-0.4,2-0.7,2.7c0,0,0,0.1,0,0.1C66.4,22.3,66.8,22.7,67,23z M64.9,20.2
		c0,0,0,0.1,0,0.1c0,0,0,0.1,0,0.1c0,0.1-0.1,0.1-0.2,0.2c0,0-0.1,0-0.1,0c0,0-0.1,0-0.1,0c-0.1,0-0.1-0.1-0.2-0.1
		c-0.2-0.3-0.4-0.6-0.6-0.9c0,0,0-0.1,0-0.1c0,0,0,0,0-0.1c0-0.1,0.1-0.1,0.1-0.1c0,0,0.1,0,0.2,0c0,0,0.1,0,0.1,0
		c0.1,0,0.1,0.1,0.2,0.1C64.5,19.6,64.7,19.9,64.9,20.2z"/>
	<path fill="#FFFFFF" d="M72.5,20c0.1,0,0.1,0,0.2,0l0.1,0c0.1,0,0.1,0.1,0.1,0.1c0,0.1,0,0.1,0,0.2c-0.2,0.9-0.6,1.6-1.2,2.1
		c0,0,0,0,0,0.1c0.4,0.2,0.8,0.4,1.2,0.6c0.1,0,0.1,0.1,0.1,0.1c0,0,0,0.1,0,0.1c0,0,0,0.1,0,0.1c-0.1,0.1-0.1,0.1-0.2,0.2
		c0,0-0.1,0-0.1,0c0,0-0.1,0-0.1,0c-0.5-0.2-1-0.4-1.3-0.7c0,0-0.1,0-0.1,0c-0.4,0.3-0.9,0.5-1.4,0.7c0,0-0.1,0-0.1,0
		c0,0-0.1,0-0.1,0c-0.1,0-0.1-0.1-0.2-0.2c0,0,0-0.1,0-0.1c0,0,0,0,0-0.1c0-0.1,0.1-0.1,0.1-0.1c0.5-0.1,0.9-0.3,1.2-0.6
		c0,0,0,0,0-0.1c-0.4-0.4-0.8-1-1.1-1.7c0,0,0,0,0,0s0,0,0,0c-0.1,1-0.5,1.9-1.2,2.6c0,0-0.1,0.1-0.2,0.1c0,0,0,0,0,0
		c-0.1,0-0.1,0-0.2-0.1C68,23.3,68,23.2,68,23.2c0-0.1,0-0.2,0.1-0.2c0.2-0.2,0.4-0.4,0.5-0.7c0.1-0.2,0.2-0.5,0.3-0.7
		c0.1-0.2,0.1-0.5,0.2-0.7c0-0.3,0.1-0.5,0.1-0.7c0-0.2,0-0.4,0-0.6v-0.4c0,0,0-0.1-0.1-0.1h-0.7c-0.1,0-0.1,0-0.2-0.1
		c-0.1-0.1-0.1-0.1-0.1-0.2s0-0.1,0.1-0.2c0.1-0.1,0.1-0.1,0.2-0.1h2.8c0,0,0,0,0,0c0,0,0.1,0,0.1,0c0,0,0.1,0,0.1,0l0.1,0
		c0.1,0,0.1,0,0.1,0.1c0,0,0,0.1,0,0.2c-0.1,0.4-0.2,0.7-0.3,1.1c0,0,0,0,0,0c0,0,0,0,0,0L72.5,20C72.5,20,72.5,20,72.5,20z
		 M69.8,19.2C69.8,19.2,69.7,19.2,69.8,19.2l-0.1,0.2c0,0,0,0.1,0,0.1c0.3,1.2,0.8,2.1,1.5,2.7c0,0,0.1,0,0.1,0
		c0.4-0.4,0.8-0.9,1-1.5c0,0,0,0,0,0c0,0,0,0,0,0h-0.8c0,0,0,0,0,0c0,0.1-0.1,0.1-0.1,0.2c0,0-0.1,0-0.2,0c0,0,0,0,0,0h0
		c-0.1,0-0.1,0-0.2-0.1c0,0,0-0.1,0-0.1c0,0,0,0,0-0.1c0.1-0.4,0.2-0.8,0.3-1.2c0,0,0,0,0,0c0,0,0,0,0,0H69.8z"/>
	<path fill="#FFFFFF" d="M79.1,22c0.1,0,0.1,0,0.2,0.1c0,0,0.1,0.1,0.1,0.2c0,0.1,0,0.1-0.1,0.2c0,0-0.1,0.1-0.2,0.1h-4.7
		c-0.1,0-0.1,0-0.2-0.1c0,0-0.1-0.1-0.1-0.2c0-0.1,0-0.1,0.1-0.2c0,0,0.1-0.1,0.2-0.1h0.7c0,0,0.1,0,0.1-0.1v-2.4c0,0,0-0.1-0.1-0.1
		h-0.6c-0.1,0-0.1,0-0.2-0.1c0,0-0.1-0.1-0.1-0.2c0-0.1,0-0.1,0.1-0.2c0,0,0.1-0.1,0.2-0.1h0.6c0,0,0.1,0,0.1-0.1v-0.3
		c0-0.1,0-0.1,0.1-0.2c0.1-0.1,0.1-0.1,0.2-0.1s0.1,0,0.2,0.1c0.1,0.1,0.1,0.1,0.1,0.2v0.3c0,0,0,0.1,0.1,0.1h1.9c0,0,0.1,0,0.1-0.1
		v-0.3c0-0.1,0-0.1,0.1-0.2c0.1-0.1,0.1-0.1,0.2-0.1c0.1,0,0.1,0,0.2,0.1c0.1,0.1,0.1,0.1,0.1,0.2v0.3c0,0,0,0.1,0.1,0.1H79
		c0.1,0,0.1,0,0.2,0.1c0,0,0.1,0.1,0.1,0.2c0,0.1,0,0.1-0.1,0.2c0,0-0.1,0.1-0.2,0.1h-0.6c0,0-0.1,0-0.1,0.1v2.4c0,0,0,0.1,0.1,0.1
		H79.1z M75.7,22.7c0.1,0,0.2-0.1,0.2-0.1c0,0,0,0,0,0c0.1,0,0.2,0,0.2,0.1c0.1,0,0.1,0.1,0.1,0.1c0,0.1,0,0.1-0.1,0.2
		c-0.4,0.2-0.9,0.4-1.4,0.6c0,0-0.1,0-0.1,0s-0.1,0-0.1,0c-0.1,0-0.1-0.1-0.2-0.1c0,0,0-0.1,0-0.1c0,0,0,0,0-0.1
		c0-0.1,0.1-0.1,0.1-0.1C74.8,23.1,75.3,22.9,75.7,22.7z M77.8,19.5C77.8,19.5,77.7,19.5,77.8,19.5l-2-0.1c0,0-0.1,0-0.1,0.1v0.4
		c0,0,0,0.1,0.1,0.1h1.9c0,0,0.1,0,0.1-0.1V19.5z M75.8,20.4C75.7,20.4,75.7,20.5,75.8,20.4l-0.1,0.5c0,0,0,0.1,0.1,0.1h1.9
		c0,0,0.1,0,0.1-0.1v-0.4c0,0,0-0.1-0.1-0.1H75.8z M75.8,21.4C75.7,21.4,75.7,21.4,75.8,21.4l-0.1,0.5c0,0,0,0.1,0.1,0.1h1.9
		c0,0,0.1,0,0.1-0.1v-0.4c0,0,0-0.1-0.1-0.1H75.8z M77.4,23c-0.1,0-0.1-0.1-0.1-0.1c0,0,0,0,0,0c0,0,0-0.1,0.1-0.1
		c0.1-0.1,0.2-0.1,0.3-0.1c0,0,0.1,0,0.2,0c0.5,0.2,0.9,0.4,1.3,0.6c0.1,0,0.1,0.1,0.1,0.2c0,0.1,0,0.1-0.1,0.1
		c-0.1,0.1-0.2,0.1-0.3,0.1c0,0,0,0,0,0c-0.1,0-0.2,0-0.2-0.1C78.2,23.4,77.8,23.2,77.4,23z"/>
	<path fill="#FFFFFF" d="M1.4,27.7c0-0.1,0.1-0.1,0.1-0.1c0,0,0.1,0,0.1,0c0,0,0.1,0,0.1,0c0.1,0,0.1,0.1,0.1,0.1c0,0,0,0.1,0,0.1
		c0,0,0,0.1,0,0.1c-0.1,0.3-0.3,0.6-0.4,0.9c0,0,0,0.1,0,0.1v3.6c0,0.1,0,0.1-0.1,0.2c-0.1,0.1-0.1,0.1-0.2,0.1S1,32.8,1,32.8
		c-0.1-0.1-0.1-0.1-0.1-0.2v-2.8c0,0,0,0,0,0c0,0,0,0,0,0c-0.1,0.1-0.2,0.2-0.2,0.3c0,0-0.1,0.1-0.1,0.1c0,0,0,0,0,0
		c-0.1,0-0.1,0-0.2-0.1c0-0.1-0.1-0.1-0.1-0.2c0,0,0,0,0-0.1c0-0.1,0-0.2,0.1-0.2C0.8,29,1.1,28.4,1.4,27.7z M3.3,32.3h1.4
		c0.1,0,0.3,0,0.3-0.1c0.1-0.1,0.1-0.2,0.1-0.4c0-0.1,0-0.1,0.1-0.1c0.1,0,0.1,0,0.2,0c0.1,0,0.1,0.1,0.2,0.1c0,0,0.1,0.1,0.1,0.2
		c0,0,0,0,0,0c0,0.3-0.1,0.5-0.3,0.6S5,32.8,4.7,32.8H3.3c-0.4,0-0.6-0.1-0.8-0.2c-0.1-0.1-0.2-0.4-0.2-0.7v-1.7c0,0,0,0,0,0
		s0,0,0,0l-0.2,0.1c0,0-0.1,0-0.1,0c0,0-0.1,0-0.1,0c-0.1,0-0.1-0.1-0.1-0.1c0,0,0-0.1,0-0.1c0,0,0-0.1,0-0.1c0-0.1,0.1-0.1,0.1-0.1
		l0.4-0.2c0,0,0.1,0,0.1-0.1v-1.1c0-0.1,0-0.1,0.1-0.2c0.1-0.1,0.1-0.1,0.2-0.1s0.1,0,0.2,0.1c0.1,0.1,0.1,0.1,0.1,0.2v0.9
		c0,0,0,0,0,0c0,0,0,0,0,0l0.6-0.2c0,0,0.1,0,0.1-0.1v-1.2c0-0.1,0-0.1,0.1-0.2c0,0,0.1-0.1,0.2-0.1c0.1,0,0.1,0,0.2,0.1
		c0.1,0,0.1,0.1,0.1,0.2v1.1c0,0,0,0,0,0c0,0,0,0,0,0l0.7-0.3c0,0,0,0,0,0l0,0c0.1,0,0.1-0.1,0.2-0.1c0,0,0.1,0,0.1,0l0.1,0
		c0,0,0.1,0.1,0.1,0.1c0,0,0,0,0,0c0,1.2,0,1.9-0.1,2.1c0,0.2-0.1,0.4-0.3,0.5c-0.1,0-0.2,0-0.4,0.1c0,0,0,0,0,0
		c-0.1,0-0.1,0-0.2-0.1c-0.1,0-0.1-0.1-0.1-0.2c0-0.1,0-0.1,0-0.2s0.1-0.1,0.1-0.1c0,0,0.1,0,0.1,0c0,0,0.1,0,0.1,0
		c0,0,0-0.1,0.1-0.1c0-0.1,0-0.6,0.1-1.4c0,0,0,0,0,0c0,0,0,0,0,0l-0.7,0.3c0,0-0.1,0-0.1,0.1v1.8c0,0.1,0,0.1-0.1,0.2
		c-0.1,0-0.1,0.1-0.2,0.1c-0.1,0-0.1,0-0.2-0.1c0,0-0.1-0.1-0.1-0.2v-1.6c0,0,0,0,0,0c0,0,0,0,0,0l-0.6,0.2c0,0-0.1,0-0.1,0.1v1.9
		c0,0.2,0,0.3,0.1,0.3C3,32.2,3.1,32.3,3.3,32.3z"/>
	<path fill="#FFFFFF" d="M6.7,30.6c0,0-0.1,0-0.1-0.1c0,0-0.1-0.1-0.1-0.1c0,0,0-0.1,0.1-0.1c0,0,0.1-0.1,0.1-0.1h4.7
		c0,0,0.1,0,0.1,0.1c0,0,0.1,0.1,0.1,0.1c0,0,0,0.1-0.1,0.1c0,0-0.1,0.1-0.1,0.1H9.8c0,0-0.1,0-0.1,0.1v0.1c0,0,0,0.1,0.1,0.1h1
		c0.1,0,0.3,0,0.4,0.1s0.1,0.2,0.1,0.4v1.2c0,0.1,0,0.1-0.1,0.2c0,0-0.1,0.1-0.2,0.1h-0.1c0,0-0.1,0-0.1,0c0,0,0,0,0-0.1
		c0,0,0,0,0,0H7.4c0,0,0,0,0,0c0,0,0,0.1,0,0.1c0,0,0,0-0.1,0H7.1c-0.1,0-0.1,0-0.2-0.1c0,0-0.1-0.1-0.1-0.2v-1.2
		c0-0.1,0-0.3,0.1-0.4s0.2-0.1,0.4-0.1h0.9c0,0,0.1,0,0.1-0.1v-0.1c0,0,0-0.1-0.1-0.1H6.7z M9,29.7c0,0,0.1,0,0.1,0s0,0.1,0,0.1
		s0,0.1,0,0.1c0,0-0.1,0-0.1,0H7.2c-0.1,0-0.3,0-0.4-0.1c-0.1-0.1-0.1-0.2-0.1-0.4v-1.4c0-0.1,0-0.3,0.1-0.4
		c0.1-0.1,0.2-0.1,0.4-0.1h1.7c0,0,0.1,0,0.1,0c0,0,0,0.1,0,0.1c0,0,0,0.1,0,0.1S9,28,8.9,28H7.7v0h0c0,0,0.1,0,0.1,0.1
		c0,0,0,0.1,0,0.1c0,0,0,0,0,0h0.9c0,0,0.1,0,0.1,0c0,0,0,0.1,0,0.1s0,0.1,0,0.1c0,0-0.1,0-0.1,0H8.4c0,0-0.1,0-0.1,0.1v0.1
		c0,0,0,0.1,0.1,0.1h0.5c0,0,0.1,0,0.1,0c0,0,0,0.1,0,0.1S9,29,9,29c0,0-0.1,0-0.1,0H8.4c0,0,0,0,0,0c0,0,0,0,0,0
		c0.2,0.1,0.3,0.2,0.5,0.3c0,0,0.1,0.1,0.1,0.1c0,0,0,0.1,0,0.1c0,0-0.1,0.1-0.1,0.1s-0.1,0-0.1,0c-0.1-0.1-0.3-0.2-0.4-0.3
		c0,0-0.1,0-0.1,0c-0.1,0.1-0.3,0.2-0.5,0.3c0,0-0.1,0-0.1,0c-0.1,0-0.1,0-0.2-0.1c0,0,0-0.1,0-0.1c0,0,0-0.1,0.1-0.1
		c0.2-0.1,0.4-0.2,0.5-0.3c0,0,0,0,0,0c0,0,0,0,0,0H7.4c0,0-0.1,0-0.1,0c0,0,0-0.1,0-0.1s0-0.1,0-0.1c0,0,0.1,0,0.1,0h0.5
		c0,0,0.1,0,0.1-0.1v-0.1c0,0,0-0.1-0.1-0.1H7.7c0,0,0,0,0,0c0,0,0,0,0,0.1c0,0-0.1,0.1-0.1,0.1c0,0-0.1,0-0.1,0
		c0,0-0.1-0.1-0.1-0.1s0-0.1,0-0.1c0.1-0.1,0.2-0.2,0.2-0.4c0,0,0,0,0,0c0,0,0,0,0,0H7.2c0,0-0.1,0-0.1,0.1v1.6c0,0,0,0.1,0.1,0.1H9
		z M8.3,31.2C8.3,31.2,8.3,31.2,8.3,31.2C8.3,31.2,8.3,31.2,8.3,31.2l-0.8-0.1c0,0-0.1,0-0.1,0.1v0.6c0,0,0,0.1,0.1,0.1h0.2
		c0,0,0,0,0,0s0,0,0,0c0,0,0-0.1,0-0.1c0,0,0,0,0-0.1c0-0.1,0.1-0.1,0.1-0.1C8,31.5,8.2,31.4,8.3,31.2z M7.4,32.3
		C7.4,32.4,7.4,32.4,7.4,32.3l3.4,0.1c0,0,0.1,0,0.1-0.1v-0.1c0,0,0-0.1-0.1-0.1H7.4C7.4,32.2,7.4,32.2,7.4,32.3L7.4,32.3z
		 M10.7,31.7H9.9c-0.2,0-0.4,0-0.5-0.1s-0.1-0.2-0.1-0.3v-0.1c0,0,0-0.1-0.1-0.1H8.8c0,0-0.1,0-0.1,0.1c-0.1,0.3-0.4,0.5-0.9,0.7
		c0,0,0,0,0,0s0,0,0,0h3c0,0,0.1,0,0.1-0.1v-0.1C10.8,31.7,10.8,31.7,10.7,31.7C10.8,31.7,10.7,31.7,10.7,31.7z M9.3,30.9
		C9.3,30.9,9.3,30.8,9.3,30.9l0.1-0.2c0,0,0-0.1-0.1-0.1H8.8c0,0-0.1,0-0.1,0.1v0.1c0,0,0,0.1,0.1,0.1H9.3z M10.9,28.7
		c0.1,0,0.2,0,0.3,0c0,0,0.1,0,0.1,0.1c0,0,0,0.1,0,0.1c-0.1,0.3-0.3,0.5-0.5,0.7c0,0,0,0,0,0c0,0,0,0,0,0c0.2,0.1,0.4,0.1,0.7,0.2
		c0,0,0.1,0,0.1,0.1c0,0,0,0.1,0,0.1c0,0.1-0.1,0.1-0.2,0.1c0,0-0.1,0-0.1,0c0,0,0,0-0.1,0c-0.3-0.1-0.6-0.2-0.9-0.3
		c0,0-0.1,0-0.1,0C10,30,9.8,30.1,9.6,30.1c-0.1,0-0.1,0-0.2,0c-0.1,0-0.1-0.1-0.1-0.1c0,0,0-0.1,0-0.1c0,0,0-0.1,0.1-0.1
		c0.2,0,0.3-0.1,0.5-0.1c0,0,0,0,0,0c0,0,0,0,0,0c-0.1-0.1-0.2-0.2-0.3-0.3c0-0.1,0-0.1,0-0.2c0-0.1,0.1-0.1,0.1-0.1c0,0,0,0,0,0
		s0,0,0,0H9.5c-0.1,0-0.1,0-0.2-0.1s-0.1-0.1-0.1-0.2v0v0c0,0,0,0,0,0c0,0-0.1-0.1-0.1-0.2c0,0,0-0.1,0-0.1c0,0,0,0,0,0
		c0-0.1,0-0.1,0.1-0.1c0.1-0.1,0.2-0.2,0.3-0.3c0.1-0.3,0.3-0.5,0.5-0.5h0.7c0.1,0,0.2,0,0.2,0.1c0.1,0.1,0.1,0.1,0.1,0.2v0.2
		c0,0.1,0,0.1,0,0.1c0,0,0,0,0,0c0,0,0,0,0.1,0h0.1c0,0,0.1,0,0.1,0c0,0,0,0,0.1-0.1c0,0,0,0,0-0.1c0,0,0-0.1,0.1-0.1
		c0,0,0.1,0,0.1,0c0.1,0,0.1,0.1,0.1,0.1c0,0,0,0.1,0,0.1c0,0,0,0,0,0c0,0.1,0,0.1,0,0.2c0,0.1-0.1,0.1-0.2,0.1c-0.1,0-0.1,0-0.2,0
		L10.9,28.7c-0.1-0.1-0.2-0.1-0.3-0.2c-0.1-0.1-0.1-0.2-0.1-0.4V28c0,0,0-0.1-0.1-0.1H10c0,0-0.1,0-0.1,0.1c0,0.3-0.2,0.5-0.4,0.6
		c0,0,0,0,0,0s0,0,0,0H10.9z M10.8,31.2C10.8,31.2,10.8,31.2,10.8,31.2l-1-0.1c0,0-0.1,0-0.1,0.1v0.1c0,0.1,0,0.1,0,0.1
		c0,0,0.1,0,0.2,0h0.7c0.1,0,0.1,0,0.2,0c0,0,0,0,0,0V31.2z M10.7,29.1C10.7,29.1,10.7,29.1,10.7,29.1C10.7,29,10.7,29,10.7,29.1
		l-0.8,0c0,0,0,0,0,0c0,0,0,0,0,0c0.1,0.1,0.2,0.2,0.3,0.3c0,0,0.1,0,0.1,0C10.5,29.3,10.6,29.2,10.7,29.1z"/>
	<path fill="#FFFFFF" d="M17.3,29.5c0,0,0.1-0.1,0.1-0.1c0.1,0,0.1,0,0.2,0c0,0,0.1,0.1,0.1,0.1c0,0.1,0,0.1-0.1,0.1
		c-0.1,0.1-0.2,0.1-0.3,0.2c0,0,0,0,0,0s0,0,0,0c0.1,0.1,0.2,0.2,0.4,0.2c0.1,0,0.1,0.1,0.1,0.1c0,0.1,0,0.1,0,0.2
		c0,0.1-0.1,0.1-0.2,0.1c0,0,0,0-0.1,0c0,0-0.1,0-0.1,0c-0.1,0-0.1-0.1-0.2-0.1c0,0,0,0,0,0c0,0,0,0,0,0V31c0,0.1,0,0.3-0.1,0.4
		c-0.1,0.1-0.2,0.1-0.4,0.1h-0.5c0,0-0.1,0-0.1,0.1v0.8c0,0.1,0,0.2,0,0.3c0,0.1-0.1,0.1-0.2,0.1c-0.1,0-0.3,0.1-0.6,0.1h0
		c-0.1,0-0.1,0-0.2-0.1c-0.1,0-0.1-0.1-0.1-0.2c0,0,0-0.1,0-0.1c0,0,0.1-0.1,0.1-0.1c0,0,0.1,0,0.1,0c0.1,0,0.2,0,0.2,0
		c0,0,0.1,0,0.1,0c0,0,0,0,0-0.1v-0.7c0,0,0-0.1-0.1-0.1h-0.5c-0.1,0-0.3,0-0.4-0.1c-0.1-0.1-0.1-0.2-0.1-0.4v-0.5c0,0,0,0,0,0
		c0,0,0,0,0,0c0,0,0,0,0,0c-0.1,0-0.2,0.1-0.2,0.1c0,0-0.1,0-0.1,0c-0.1,0-0.2-0.1-0.3-0.2c0,0,0,0,0,0c0,0,0,0,0,0
		c-0.1,0.9-0.3,1.7-0.7,2.2c0,0.1-0.1,0.1-0.2,0.1h0c-0.1,0-0.1,0-0.2-0.1c-0.1,0-0.1-0.1-0.1-0.2c0,0,0,0,0,0c0-0.1,0-0.1,0.1-0.2
		c0.3-0.4,0.4-0.8,0.5-1.4c0,0,0,0,0,0c0,0,0,0,0,0c-0.1,0.1-0.3,0.2-0.4,0.2c0,0-0.1,0-0.1,0c0,0,0,0-0.1,0c-0.1,0-0.1-0.1-0.1-0.1
		c0,0,0-0.1,0-0.1c0,0,0-0.1,0-0.1c0-0.1,0.1-0.1,0.1-0.1c0.1,0,0.3-0.1,0.6-0.3c0,0,0.1,0,0.1-0.1c0-0.1,0-0.2,0-0.4v-1.4
		c0-0.1,0-0.3,0.1-0.4c0.1-0.1,0.2-0.1,0.4-0.1h1.3c0,0,0.1,0,0.1-0.1v-0.2c0-0.1,0-0.1,0.1-0.2c0.1-0.1,0.1-0.1,0.2-0.1
		s0.1,0,0.2,0.1c0.1,0.1,0.1,0.1,0.1,0.2v0.2c0,0,0,0.1,0.1,0.1h1.8c0.1,0,0.1,0,0.2,0.1c0,0,0.1,0.1,0.1,0.2c0,0.1,0,0.1-0.1,0.2
		s-0.1,0.1-0.2,0.1h-3.7c0,0-0.1,0-0.1,0.1v1.4c0,0.1,0,0.2,0,0.4c0,0,0,0,0,0s0,0,0,0c0.2-0.1,0.4-0.2,0.5-0.3c0,0,0,0,0-0.1
		c-0.1-0.1-0.1-0.1-0.2-0.2c0,0-0.1-0.1-0.1-0.1c0,0,0-0.1,0-0.1c0,0,0.1-0.1,0.2-0.1c0.1,0,0.1,0,0.2,0c0.1,0.1,0.1,0.1,0.2,0.2
		c0,0,0.1,0,0.1,0c0.1-0.1,0.2-0.2,0.2-0.3c0,0,0,0,0,0c0,0,0,0,0,0h-0.7c-0.1,0-0.1,0-0.1-0.1s-0.1-0.1-0.1-0.1s0-0.1,0.1-0.1
		s0.1-0.1,0.1-0.1h1c0,0,0.1,0,0.1,0c0-0.1,0.1-0.1,0.1-0.2c0-0.1,0.1-0.1,0.1-0.2c0,0,0.1-0.1,0.2-0.1c0,0,0,0,0,0
		c0.1,0,0.1,0,0.1,0.1c0,0,0,0.1,0,0.1c0,0,0,0.1,0,0.1c0,0,0,0.1,0,0.1c0,0,0,0,0,0c0,0,0,0,0,0h1.7c0.1,0,0.1,0,0.1,0.1
		s0.1,0.1,0.1,0.1s0,0.1-0.1,0.1s-0.1,0.1-0.1,0.1h-0.9c0,0,0,0,0,0c0,0,0,0,0,0c0.1,0.1,0.2,0.2,0.3,0.3c0,0,0.1,0,0.1,0
		C17.2,29.6,17.2,29.5,17.3,29.5z M13.3,29.4C13.3,29.4,13.3,29.4,13.3,29.4c0,0.1,0,0.2,0,0.2c0,0.1-0.1,0.1-0.1,0.1
		c-0.1,0-0.1,0-0.2,0s-0.1-0.1-0.1-0.1c-0.1-0.2-0.1-0.5-0.2-0.7c0-0.1,0-0.1,0-0.2c0-0.1,0.1-0.1,0.1-0.1s0.1,0,0.2,0
		c0.1,0,0.1,0.1,0.1,0.1C13.1,28.9,13.2,29.2,13.3,29.4z M14.5,31.8c0-0.1,0.1-0.1,0.2-0.1c0,0,0.1,0,0.1,0c0,0,0.1,0,0.1,0
		c0.1,0,0.1,0.1,0.1,0.1c0,0.1,0,0.1,0,0.2c-0.2,0.2-0.3,0.4-0.6,0.6c-0.1,0-0.1,0.1-0.2,0.1c0,0,0,0,0,0c-0.1,0-0.1,0-0.2-0.1
		c0,0-0.1-0.1-0.1-0.1c0-0.1,0-0.1,0.1-0.1C14.2,32.1,14.4,32,14.5,31.8z M16.7,30.6C16.7,30.6,16.8,30.5,16.7,30.6l0.1-0.2
		c0,0,0-0.1-0.1-0.1h-1.6c0,0-0.1,0-0.1,0.1v0.2c0,0,0,0.1,0.1,0.1H16.7z M16.7,31.2C16.7,31.2,16.8,31.2,16.7,31.2l0.1-0.2
		c0,0,0-0.1-0.1-0.1h-1.6c0,0-0.1,0-0.1,0.1v0.2c0,0,0,0.1,0.1,0.1H16.7z M16.2,29.4C16.2,29.3,16.2,29.3,16.2,29.4l-0.5-0.1
		c0,0-0.1,0-0.1,0.1c-0.1,0.2-0.2,0.3-0.4,0.5c0,0,0,0,0,0c0,0,0,0,0,0h1.3c0,0,0,0,0,0c0,0,0,0,0,0C16.4,29.7,16.3,29.5,16.2,29.4z
		 M16.7,32c0,0-0.1-0.1-0.1-0.1s0-0.1,0.1-0.1c0,0,0.1,0,0.2,0c0,0,0,0,0,0c0.1,0,0.1,0,0.2,0.1c0.2,0.2,0.4,0.4,0.5,0.5
		c0,0.1,0.1,0.1,0,0.2c0,0.1-0.1,0.1-0.1,0.1c0,0-0.1,0-0.1,0c0,0,0,0-0.1,0c-0.1,0-0.1-0.1-0.2-0.1C17.1,32.4,16.9,32.2,16.7,32z"
		/>
	<path fill="#FFFFFF" d="M22.9,29.5c0.1,0,0.1,0,0.2,0l0.1,0.1c0.1,0,0.1,0.1,0.1,0.1c0,0.1,0,0.1,0,0.2c-0.3,0.6-0.7,1.2-1.3,1.6
		c0,0,0,0,0,0s0,0,0,0c0.5,0.3,1.1,0.4,1.8,0.5c0.1,0,0.1,0,0.1,0.1c0,0,0,0.1,0,0.1c0,0,0,0.1,0,0.1c0,0.1-0.1,0.1-0.2,0.2
		c-0.1,0-0.1,0-0.2,0c0,0-0.1,0-0.1,0c-0.8-0.1-1.5-0.4-2-0.7c0,0-0.1,0-0.1,0c-0.6,0.3-1.2,0.5-2,0.7c0,0,0,0-0.1,0
		c-0.1,0-0.1,0-0.2,0c-0.1,0-0.1-0.1-0.2-0.2c0,0,0-0.1,0-0.1c0,0,0-0.1,0-0.1c0-0.1,0.1-0.1,0.1-0.1c0.7-0.1,1.3-0.3,1.8-0.5
		c0,0,0,0,0,0s0,0,0,0c-0.3-0.3-0.6-0.6-0.9-1c0-0.1,0-0.1,0-0.2c0,0,0-0.1,0-0.1c0-0.1,0.1-0.2,0.2-0.2c0,0,0,0,0,0c0,0,0,0,0,0
		h-0.7c-0.1,0-0.1,0-0.2-0.1c-0.1-0.1-0.1-0.1-0.1-0.2c0-0.1,0-0.1,0.1-0.2c0.1-0.1,0.1-0.1,0.2-0.1H21c0,0,0.1,0,0.1-0.1v-0.7
		c0,0,0-0.1-0.1-0.1h-1.8c-0.1,0-0.1,0-0.2-0.1c-0.1-0.1-0.1-0.1-0.1-0.2s0-0.1,0.1-0.2c0.1-0.1,0.1-0.1,0.2-0.1H21
		c0,0,0.1,0,0.1-0.1v-0.5c0-0.1,0-0.1,0.1-0.2c0.1-0.1,0.1-0.1,0.2-0.1s0.1,0,0.2,0.1c0.1,0.1,0.1,0.1,0.1,0.2v0.5
		c0,0,0,0.1,0.1,0.1h1.9c0.1,0,0.1,0,0.2,0.1c0.1,0.1,0.1,0.1,0.1,0.2s0,0.1-0.1,0.2c-0.1,0.1-0.1,0.1-0.2,0.1h-1.9
		c0,0-0.1,0-0.1,0.1v0.7c0,0,0,0.1,0.1,0.1H22.9C22.9,29.5,22.9,29.5,22.9,29.5z M22.5,30.1C22.6,30.1,22.6,30.1,22.5,30.1
		C22.5,30,22.5,30,22.5,30.1L20.3,30c0,0,0,0,0,0s0,0,0,0c0.2,0.5,0.6,0.8,1,1.2c0,0,0.1,0,0.1,0C21.9,30.9,22.3,30.5,22.5,30.1z"/>
	<path fill="#FFFFFF" d="M29.3,30.7c0-0.1,0-0.1,0.1-0.2c0.1-0.1,0.1-0.1,0.2-0.1s0.1,0,0.2,0.1c0.1,0.1,0.1,0.1,0.1,0.2v1.9
		c0,0.1,0,0.1-0.1,0.2c-0.1,0.1-0.1,0.1-0.2,0.1s-0.1,0-0.2-0.1c-0.1-0.1-0.1-0.1-0.1-0.2v0c0,0,0,0,0,0h-3.4c0,0,0,0,0,0v0
		c0,0.1,0,0.1-0.1,0.2c-0.1,0.1-0.1,0.1-0.2,0.1s-0.1,0-0.2-0.1c-0.1-0.1-0.1-0.1-0.1-0.2v-1.9c0-0.1,0-0.1,0.1-0.2
		c0.1-0.1,0.1-0.1,0.2-0.1s0.1,0,0.2,0.1c0.1,0.1,0.1,0.1,0.1,0.2v1.2c0,0,0,0.1,0.1,0.1h1.3c0,0,0.1,0,0.1-0.1v-1.8
		c0,0,0-0.1-0.1-0.1H26c-0.1,0-0.3,0-0.4-0.1c-0.1-0.1-0.1-0.2-0.1-0.4v-1.3c0-0.1,0-0.1,0.1-0.2c0.1-0.1,0.1-0.1,0.2-0.1
		c0.1,0,0.1,0,0.2,0.1c0.1,0.1,0.1,0.1,0.1,0.2v1.2c0,0,0,0.1,0.1,0.1h1.1c0,0,0.1,0,0.1-0.1v-1.7c0-0.1,0-0.1,0.1-0.2
		s0.1-0.1,0.2-0.1s0.1,0,0.2,0.1s0.1,0.1,0.1,0.2v1.7c0,0,0,0.1,0.1,0.1H29c0,0,0.1,0,0.1-0.1v-1.2c0-0.1,0-0.1,0.1-0.2
		s0.1-0.1,0.2-0.1s0.1,0,0.2,0.1s0.1,0.1,0.1,0.2v1.3c0,0.1,0,0.3-0.1,0.4c-0.1,0.1-0.2,0.1-0.4,0.1h-1.3c0,0-0.1,0-0.1,0.1v1.8
		c0,0,0,0.1,0.1,0.1h1.4c0,0,0.1,0,0.1-0.1V30.7z"/>
	<path fill="#FFFFFF" d="M35.3,29.6c0-0.1,0.1-0.1,0.1-0.2c0,0,0.1,0,0.1,0c0,0,0.1,0,0.1,0c0.1,0,0.1,0.1,0.2,0.1c0,0,0,0.1,0,0.1
		c0,0,0,0.1,0,0.1c-0.2,0.6-0.5,1.2-0.9,1.7c0,0,0,0.1,0,0.1c0.2,0.5,0.4,0.7,0.7,0.7c0.1,0,0.1-0.1,0.2-0.2s0.1-0.3,0.1-0.6
		c0-0.1,0-0.1,0.1-0.1c0.1,0,0.1,0,0.1,0c0.1,0,0.1,0.1,0.2,0.2c0,0.1,0,0.1,0,0.2c0,0,0,0,0,0c0,0.4-0.1,0.7-0.2,0.8
		c-0.1,0.1-0.3,0.2-0.5,0.2c-0.4,0-0.7-0.3-1-0.8c0,0,0,0,0,0c0,0,0,0,0,0c-0.3,0.3-0.5,0.5-0.8,0.7c-0.1,0-0.1,0.1-0.2,0.1
		c0,0,0,0-0.1,0c-0.1,0-0.2-0.1-0.2-0.1c0,0-0.1-0.1-0.1-0.2c0,0,0,0,0,0c0-0.1,0-0.1,0.1-0.2c0.4-0.2,0.7-0.5,1-0.8
		c0,0,0-0.1,0-0.1c-0.2-0.6-0.3-1.4-0.4-2.3c0,0,0-0.1-0.1-0.1h-1.8c0,0-0.1,0-0.1,0.1v0.6c0,0,0,0.1,0.1,0.1H33
		c0.1,0,0.3,0,0.4,0.1c0.1,0.1,0.1,0.2,0.1,0.3c0,0.4,0,0.8-0.1,1.2c0,0.2-0.1,0.4-0.1,0.5C33.2,31.9,33.1,32,33,32
		c-0.1,0-0.2,0-0.4,0c0,0,0,0-0.1,0c-0.1,0-0.1,0-0.2-0.1c-0.1,0-0.1-0.1-0.1-0.2c0-0.1,0-0.1,0-0.2s0.1-0.1,0.1-0.1
		c0.1,0,0.2,0,0.3,0s0.1,0,0.2-0.1c0.1-0.1,0.1-0.5,0.1-1.2c0,0,0,0,0,0c0,0,0,0,0,0h-0.8c0,0-0.1,0-0.1,0.1c0,1-0.2,1.9-0.5,2.4
		c0,0.1-0.1,0.1-0.2,0.1c0,0,0,0,0,0c-0.1,0-0.1,0-0.2-0.1c-0.1-0.1-0.1-0.1-0.1-0.2c0,0,0-0.1,0-0.1c0-0.1,0-0.1,0-0.2
		c0.1-0.3,0.2-0.6,0.3-1c0-0.4,0.1-0.8,0.1-1.2v-1.2c0-0.1,0-0.3,0.1-0.4c0.1-0.1,0.2-0.1,0.4-0.1h1.9c0,0,0,0,0,0c0,0,0,0,0,0
		c0-0.3,0-0.5,0-0.6c0-0.1,0-0.1,0.1-0.2c0.1-0.1,0.1-0.1,0.2-0.1s0.1,0,0.2,0.1c0.1,0.1,0.1,0.1,0.1,0.2c0,0.2,0,0.4,0,0.6
		c0,0,0,0.1,0.1,0.1h1c0,0,0,0,0,0c0,0,0,0,0,0c-0.2-0.1-0.4-0.3-0.7-0.5c0,0-0.1-0.1-0.1-0.1s0-0.1,0.1-0.2c0,0,0.1-0.1,0.2-0.1
		c0,0,0,0,0.1,0c0,0,0.1,0,0.1,0c0.2,0.1,0.4,0.2,0.5,0.3c0.1,0.1,0.1,0.1,0.1,0.2c0,0,0,0,0,0c0,0.1,0,0.2-0.1,0.2c0,0,0,0,0,0
		c0,0,0,0,0,0h0.3c0.1,0,0.1,0,0.2,0.1c0.1,0.1,0.1,0.1,0.1,0.2s0,0.1-0.1,0.2c-0.1,0.1-0.1,0.1-0.2,0.1h-1.5c0,0,0,0,0,0s0,0,0,0
		c0.1,0.7,0.2,1.3,0.3,1.7c0,0,0,0,0,0s0,0,0,0C35,30.4,35.2,30,35.3,29.6z"/>
	<path fill="#FFFFFF" d="M42.3,28.7c0.1,0.1,0.1,0.1,0.1,0.2c0,0.1,0,0.1-0.1,0.2s-0.1,0.1-0.2,0.1h-1.6c0,0,0,0,0,0c0,0,0,0,0,0
		c0.2,0.4,0.5,0.8,0.8,1.2c0.3,0.4,0.7,0.7,1,0.9c0.1,0,0.1,0.1,0.1,0.2c0,0,0,0,0,0c0,0.1,0,0.1-0.1,0.2c-0.1,0.1-0.1,0.1-0.2,0.1
		c0,0,0,0-0.1,0c-0.1,0-0.1,0-0.2-0.1c-0.7-0.5-1.3-1.1-1.8-2c0,0,0,0,0,0s0,0,0,0v1.4c0,0,0,0.1,0.1,0.1h0.7c0.1,0,0.1,0,0.2,0.1
		c0.1,0.1,0.1,0.1,0.1,0.2s0,0.1-0.1,0.2c-0.1,0.1-0.1,0.1-0.2,0.1h-0.7c0,0-0.1,0-0.1,0.1v0.7c0,0.1,0,0.1-0.1,0.2
		c-0.1,0.1-0.1,0.1-0.2,0.1s-0.1,0-0.2-0.1c-0.1-0.1-0.1-0.1-0.1-0.2v-0.7c0,0,0-0.1-0.1-0.1h-0.7c-0.1,0-0.1,0-0.2-0.1
		c-0.1-0.1-0.1-0.1-0.1-0.2s0-0.1,0.1-0.2c0.1-0.1,0.1-0.1,0.2-0.1h0.7c0,0,0.1,0,0.1-0.1v-1.4c0,0,0,0,0,0s0,0,0,0
		c-0.5,0.9-1.1,1.6-1.8,2c-0.1,0-0.1,0.1-0.2,0.1c0,0,0,0-0.1,0c-0.1,0-0.1-0.1-0.2-0.1c0,0-0.1-0.1-0.1-0.2c0,0,0,0,0,0
		c0-0.1,0-0.1,0.1-0.2c0.4-0.2,0.7-0.5,1-0.9c0.3-0.4,0.6-0.8,0.8-1.2c0,0,0,0,0,0c0,0,0,0,0,0h-1.6c-0.1,0-0.1,0-0.2-0.1
		s-0.1-0.1-0.1-0.2c0-0.1,0-0.1,0.1-0.2c0.1-0.1,0.1-0.1,0.2-0.1h1.9c0,0,0.1,0,0.1-0.1v-0.8c0-0.1,0-0.1,0.1-0.2
		c0.1-0.1,0.1-0.1,0.2-0.1s0.1,0,0.2,0.1c0.1,0.1,0.1,0.1,0.1,0.2v0.8c0,0,0,0.1,0.1,0.1h1.9C42.2,28.6,42.2,28.7,42.3,28.7z"/>
	<path fill="#FFFFFF" d="M44.2,30.9c0.3,0,0.5,0.1,0.6,0.3c0.2,0.2,0.3,0.4,0.3,0.6s-0.1,0.5-0.3,0.6c-0.2,0.2-0.4,0.3-0.6,0.3
		s-0.5-0.1-0.6-0.3c-0.2-0.2-0.3-0.4-0.3-0.6s0.1-0.5,0.3-0.6C43.7,31,43.9,30.9,44.2,30.9z M43.8,32.3c0.1,0.1,0.2,0.2,0.4,0.2
		s0.3-0.1,0.4-0.2s0.2-0.2,0.2-0.4s-0.1-0.3-0.2-0.4s-0.2-0.2-0.4-0.2s-0.3,0.1-0.4,0.2c-0.1,0.1-0.2,0.2-0.2,0.4
		S43.7,32.1,43.8,32.3z"/>
</g>
<g>
</g>
<g>
</g>
<g>
</g>
<g>
</g>
<g>
</g>
<g>
</g>
<g>
</g>
<g>
</g>
<g>
</g>
<g>
</g>
<g>
</g>
<g>
</g>
<g>
</g>
<g>
</g>
<g>
</g>
</svg>
