<?xml version="1.0" encoding="utf-8"?>
<!-- Generator: Adobe Illustrator 18.0.0, SVG Export Plug-In . SVG Version: 6.00 Build 0)  -->
<!DOCTYPE svg PUBLIC "-//W3C//DTD SVG 1.1//EN" "http://www.w3.org/Graphics/SVG/1.1/DTD/svg11.dtd">
<svg version="1.1" id="Layer_1" xmlns="http://www.w3.org/2000/svg" xmlns:xlink="http://www.w3.org/1999/xlink" x="0px" y="0px"
	 viewBox="0 0 72.2 32.8" enable-background="new 0 0 72.2 32.8" xml:space="preserve">
<g>
	<rect x="0" y="1.1" fill="none" width="72.2" height="31"/>
	<path fill="#27C1AE" d="M13.9,6.5c0.1-0.2,0.3-0.4,0.6-0.4C14.6,6,14.7,6,14.8,6c0.1,0,0.3,0,0.4,0.1c0.2,0.1,0.4,0.3,0.4,0.5
		c0,0.1,0,0.1,0,0.2c0,0.1,0,0.3-0.1,0.4c-0.4,0.7-0.9,1.3-1.5,1.9C14,9.1,14,9.2,14,9.3c0.3,0.7,0.5,1.1,0.8,1.1
		c0.2,0,0.3-0.4,0.4-1.1c0-0.2,0.1-0.3,0.3-0.4c0.1,0,0.1,0,0.2,0c0.1,0,0.2,0,0.3,0.1c0.2,0.2,0.4,0.4,0.6,0.6
		c0.1,0.2,0.1,0.4,0.1,0.5c0,0.1,0,0.2,0,0.2c-0.2,0.8-0.4,1.3-0.7,1.5c-0.3,0.3-0.7,0.4-1.3,0.4c-0.8,0-1.5-0.6-2.1-1.7
		c0-0.1-0.1-0.1-0.2,0c-0.4,0.3-0.8,0.6-1.2,0.8c-0.2,0.1-0.3,0.2-0.5,0.2c-0.1,0-0.2,0-0.3,0c-0.3-0.1-0.5-0.2-0.7-0.4
		c-0.1-0.1-0.2-0.3-0.2-0.5c0,0,0-0.1,0-0.2c0-0.2,0.2-0.4,0.4-0.5c0.6-0.3,1.2-0.7,1.8-1.2c0.1,0,0.1-0.1,0.1-0.2
		c-0.2-0.9-0.4-1.9-0.6-3.1c0-0.1-0.1-0.1-0.2-0.1H9c-0.1,0-0.1,0-0.1,0.1v0.9c0,0,0,0.1,0,0.1c0,0,0.1,0,0.1,0l0.9-0.1
		c0,0,0.1,0,0.1,0c0.2,0,0.3,0.1,0.5,0.2c0.2,0.1,0.3,0.3,0.3,0.6c0,0,0,0,0,0.1c0,0.2-0.1,0.4-0.2,0.6C10.4,7.9,10.2,8,10,8.1
		C9.5,8.2,9.2,8.2,9,8.3c-0.1,0-0.1,0.1-0.1,0.2v1.7c0,0.5-0.1,0.9-0.2,1.1c-0.1,0.3-0.3,0.5-0.6,0.6c-0.3,0.2-0.8,0.3-1.4,0.3
		c0,0-0.1,0-0.1,0c-0.3,0-0.5-0.1-0.7-0.2c-0.2-0.2-0.4-0.4-0.5-0.7c0-0.1,0-0.2,0-0.2c0-0.1,0-0.2,0.1-0.4c0.1-0.2,0.3-0.3,0.5-0.3
		h0c0.1,0,0.2,0,0.2,0c0.2,0,0.3,0,0.4,0c0.1,0,0.2,0,0.2-0.1c0,0,0.1-0.1,0.1-0.2V8.8c0,0,0-0.1,0-0.1c0,0-0.1,0-0.1,0l-1,0.2
		c-0.1,0-0.1,0-0.2,0c-0.2,0-0.4-0.1-0.5-0.2C4.8,8.6,4.7,8.4,4.6,8.1c0-0.1,0-0.1,0-0.2c0-0.2,0.1-0.3,0.2-0.5
		C4.9,7.2,5.1,7.1,5.4,7c0.5-0.1,1-0.1,1.5-0.2c0.1,0,0.1-0.1,0.1-0.1V5.5c0-0.1,0-0.1-0.1-0.1H5.6C5.3,5.4,5.1,5.3,5,5.1
		S4.7,4.7,4.7,4.5S4.8,4.1,5,3.9s0.4-0.3,0.6-0.3h1.3c0.1,0,0.1,0,0.1-0.1V2.6c0,0,0-0.1,0-0.1c0,0-0.1,0-0.1,0
		c-0.3,0-0.6,0.1-0.9,0.1c0,0-0.1,0-0.1,0c-0.2,0-0.4-0.1-0.5-0.2C5.1,2.3,4.9,2.1,4.9,1.9c0-0.1,0-0.2,0-0.2c0-0.1,0-0.2,0.1-0.3
		C5,1.2,5.2,1.1,5.4,1c1.2-0.2,2.3-0.4,3.3-0.7c0.1,0,0.3,0,0.4,0c0.2,0,0.3,0,0.5,0.1c0.3,0.1,0.5,0.3,0.7,0.5
		c0.1,0.1,0.2,0.3,0.2,0.4c0,0.1,0,0.2-0.1,0.2C10.3,1.8,10.2,1.9,9.9,2C9.7,2,9.3,2.1,9,2.2c-0.1,0-0.1,0.1-0.1,0.1v1.2
		c0,0.1,0,0.1,0.1,0.1h2c0,0,0.1,0,0.1,0c0,0,0-0.1,0-0.1c-0.1-1.1-0.1-1.9-0.1-2.4c0-0.3,0.1-0.5,0.3-0.6c0.2-0.2,0.4-0.3,0.7-0.3
		c0.3,0,0.5,0.1,0.7,0.3c0.2,0.2,0.3,0.4,0.3,0.7c0,0.8,0,1.6,0.1,2.4c0,0.1,0.1,0.1,0.1,0.1h2.4c0.2,0,0.4,0.1,0.6,0.3
		c0.2,0.2,0.3,0.4,0.3,0.6s-0.1,0.4-0.3,0.6c-0.2,0.2-0.4,0.3-0.6,0.3h-2.2c0,0-0.1,0-0.1,0c0,0,0,0.1,0,0.1
		c0.1,0.6,0.2,1.1,0.3,1.5c0,0,0,0,0,0c0,0,0,0,0.1,0C13.7,6.8,13.8,6.7,13.9,6.5z M15.8,1.7C15.9,1.9,16,2,16,2.2c0,0,0,0.1,0,0.2
		c0,0.3-0.2,0.4-0.4,0.6c-0.1,0.1-0.3,0.2-0.5,0.2c-0.1,0-0.1,0-0.2,0c-0.2,0-0.4-0.2-0.6-0.4C14.2,2.5,14,2.2,13.7,2
		c-0.1-0.1-0.2-0.3-0.2-0.5c0,0,0,0,0-0.1c0-0.2,0.1-0.4,0.3-0.5c0.2-0.1,0.4-0.2,0.6-0.2c0,0,0,0,0.1,0c0.3,0,0.5,0.1,0.6,0.3
		C15.4,1.2,15.6,1.5,15.8,1.7z"/>
	<path fill="#27C1AE" d="M23.6,0.7c0.3,0,0.6,0.1,0.8,0.3c0.2,0.2,0.3,0.5,0.3,0.8v2.9c0,0.3-0.1,0.6-0.3,0.8
		c-0.2,0.2-0.5,0.3-0.8,0.3h-0.8c-0.1,0-0.1,0-0.1,0.1v5.5c0,0.2-0.1,0.4-0.3,0.6c-0.2,0.2-0.4,0.3-0.6,0.3s-0.4-0.1-0.6-0.3
		c-0.2-0.2-0.3-0.4-0.3-0.6V1.4c0,0,0,0,0,0c0,0,0,0,0,0C20.6,2,20.4,2.6,20.2,3c0,0.1,0,0.2,0,0.2v8.2c0,0.2-0.1,0.4-0.3,0.6
		c-0.2,0.2-0.4,0.3-0.6,0.3c-0.2,0-0.5-0.1-0.6-0.3c-0.2-0.2-0.3-0.4-0.3-0.6v-5c0,0,0,0,0,0c0,0,0,0,0,0c-0.1,0.1-0.2,0.2-0.3,0.2
		c0,0-0.1,0-0.1,0c-0.2,0-0.3-0.1-0.3-0.3c0-0.1-0.1-0.2-0.1-0.3c-0.1-0.2-0.2-0.5-0.2-0.8c0-0.1,0-0.1,0-0.2c0-0.3,0.1-0.6,0.3-0.9
		c0.6-0.9,1.1-1.9,1.5-3.1c0.1-0.2,0.2-0.4,0.5-0.5c0.1-0.1,0.3-0.1,0.4-0.1c0.1,0,0.2,0,0.3,0L21,0.5c0.1,0,0.1,0.1,0.1,0.2
		c0,0,0,0,0,0H23.6z M23.3,2.2c0-0.1,0-0.1-0.1-0.1h-0.4c-0.1,0-0.1,0-0.1,0.1v0.2c0,0.1,0,0.1,0.1,0.1h0.4c0.1,0,0.1,0,0.1-0.1V2.2
		z M22.6,4.3c0,0.1,0,0.1,0.1,0.1h0.4c0.1,0,0.1,0,0.1-0.1V4c0-0.1,0-0.1-0.1-0.1h-0.4c-0.1,0-0.1,0-0.1,0.1V4.3z M28,0.7
		c0.3,0,0.6,0.1,0.8,0.3c0.2,0.2,0.3,0.5,0.3,0.8v8.3c0,0.5-0.1,0.9-0.2,1.1c-0.1,0.3-0.3,0.5-0.6,0.6c-0.4,0.2-0.9,0.3-1.7,0.3
		c0,0,0,0,0,0c-0.2,0-0.5-0.1-0.7-0.2c-0.2-0.2-0.4-0.4-0.5-0.7c0-0.1,0-0.1,0-0.2c0-0.1,0-0.2,0.1-0.3c0.1-0.2,0.3-0.3,0.5-0.3h0
		c0.2,0,0.4,0,0.5,0c0.2,0,0.3,0,0.4,0c0.1,0,0.2,0,0.3-0.1c0,0,0.1-0.1,0.1-0.3V5.9c0-0.1,0-0.1-0.1-0.1h-1c-0.3,0-0.6-0.1-0.8-0.3
		c-0.2-0.2-0.3-0.5-0.3-0.8V1.8c0-0.3,0.1-0.6,0.3-0.8s0.5-0.3,0.8-0.3H28z M27.3,2.2c0-0.1,0-0.1-0.1-0.1h-0.5
		c-0.1,0-0.1,0-0.1,0.1v0.2c0,0.1,0,0.1,0.1,0.1h0.5c0.1,0,0.1,0,0.1-0.1V2.2z M26.6,4.3c0,0.1,0,0.1,0.1,0.1h0.5
		c0.1,0,0.1,0,0.1-0.1V4c0-0.1,0-0.1-0.1-0.1h-0.5c-0.1,0-0.1,0-0.1,0.1V4.3z"/>
	<path fill="#27C1AE" d="M41.4,8.7c0.2,0,0.4,0.1,0.6,0.2c0.2,0.2,0.2,0.3,0.2,0.6S42.1,9.8,42,10c-0.2,0.2-0.3,0.2-0.6,0.2h-1.1
		c-0.1,0-0.1,0-0.1,0.1v1c0,0.2-0.1,0.4-0.3,0.6c-0.2,0.2-0.4,0.3-0.6,0.3c-0.2,0-0.5-0.1-0.6-0.3c-0.2-0.2-0.3-0.4-0.3-0.6v-1
		c0-0.1,0-0.1-0.1-0.1H37c-0.2,0-0.4-0.1-0.6-0.2s-0.2-0.3-0.2-0.6s0.1-0.4,0.2-0.6s0.3-0.2,0.6-0.2h1.3c0.1,0,0.1,0,0.1-0.1V7.8
		c0-0.1,0-0.1-0.1-0.1h-0.6c-0.1,0-0.1,0-0.1,0.1C37.4,8,37.3,8.2,37,8.2c-0.1,0-0.2,0-0.3,0c-0.1,0-0.3,0-0.4-0.1
		c-0.1,0-0.2-0.1-0.2-0.1c0,0,0,0-0.1,0c0,0,0,0,0,0.1v2.4c0,0.4,0,0.7-0.1,0.9c-0.1,0.2-0.2,0.4-0.4,0.5c-0.2,0.1-0.5,0.2-0.9,0.3
		c0,0-0.1,0-0.1,0c-0.2,0-0.4-0.1-0.5-0.2c-0.2-0.1-0.3-0.3-0.4-0.6c0-0.1,0-0.1,0-0.2c0-0.1,0-0.2,0.1-0.3c0.1-0.2,0.3-0.2,0.4-0.2
		h0.2c0.1,0,0.1,0,0.1,0s0-0.1,0-0.2V9c0-0.1,0-0.1-0.1-0.1h-2c-0.1,0-0.1,0-0.1,0.1c-0.1,1-0.4,1.9-0.7,2.6
		c-0.1,0.2-0.2,0.3-0.4,0.3c0,0-0.1,0-0.2,0c-0.1,0-0.3,0-0.4-0.1c-0.2-0.1-0.3-0.3-0.4-0.5c0-0.1,0-0.2,0-0.3c0-0.1,0-0.2,0.1-0.3
		c0.4-0.9,0.6-2.2,0.6-4V4.9c0-0.1,0-0.2-0.1-0.2c0,0-0.1,0-0.1-0.1c-0.2-0.2-0.4-0.4-0.4-0.7c0,0,0-0.1,0-0.2
		c0-0.2,0.1-0.4,0.2-0.7c0.4-0.6,0.7-1.4,1-2.2c0.1-0.2,0.2-0.4,0.4-0.5c0.1-0.1,0.3-0.1,0.4-0.1c0.1,0,0.1,0,0.2,0h0
		c0.2,0,0.4,0.2,0.5,0.4c0.1,0.1,0.1,0.2,0.1,0.4c0,0.1,0,0.2,0,0.2c0,0,0,0,0,0.1c0,0,0,0,0.1,0H34c0,0,0,0,0,0c0,0,0.1,0,0.1,0
		c0.1,0,0.2,0,0.3,0.1l0.3,0.2c0.2,0.1,0.3,0.2,0.3,0.4c0,0.1,0,0.2,0,0.2c0,0.1,0,0.2,0,0.3C35,2.7,34.9,3,34.7,3.3c0,0,0,0,0,0.1
		c0,0,0,0,0.1,0h0.6c0.2,0,0.3,0.1,0.4,0.2C36,3.7,36,3.8,36,4c0,0,0,0,0,0c0,0,0,0,0,0c0.7-0.4,1.1-0.9,1.3-1.7c0,0,0,0,0-0.1
		s0,0-0.1,0h-0.4c-0.2,0-0.4-0.1-0.5-0.2c-0.1-0.1-0.2-0.3-0.2-0.5c0-0.2,0.1-0.4,0.2-0.5c0.1-0.1,0.3-0.2,0.5-0.2h4
		c0.3,0,0.5,0.1,0.8,0.3c0.2,0.2,0.3,0.5,0.3,0.7c0,0.7,0,1.3-0.1,1.9c-0.1,0.4-0.2,0.7-0.3,0.9C41.3,4.8,41,5,40.6,5.1
		c-0.1,0-0.3,0-0.6,0c0,0,0.1,0,0.1,0s0,0.1,0,0.1v0.8c0,0.1,0,0.1,0.1,0.1h0.9c0.2,0,0.4,0.1,0.5,0.2C41.9,6.5,42,6.7,42,6.9
		c0,0.2-0.1,0.4-0.2,0.6c-0.1,0.1-0.3,0.2-0.5,0.2h-0.9c-0.1,0-0.1,0-0.1,0.1v0.7c0,0.1,0,0.1,0.1,0.1H41.4z M33.4,2.8
		C33.4,2.8,33.4,2.7,33.4,2.8c0-0.1-0.1-0.1-0.1-0.1h-0.6c-0.1,0-0.1,0-0.2,0.1c0,0,0,0.1-0.1,0.2c-0.1,0.1-0.1,0.2-0.1,0.3
		c0,0,0,0,0,0.1c0,0,0,0,0.1,0H33c0.1,0,0.1,0,0.2-0.1C33.2,3.1,33.3,3,33.4,2.8z M32.5,6.7c-0.1,0-0.1,0-0.1,0.1c0,0.2,0,0.4,0,0.6
		c0,0,0,0.1,0,0.1c0,0,0.1,0,0.1,0h0.2c0.1,0,0.1,0,0.1-0.1V6.9c0-0.1,0-0.1-0.1-0.1H32.5z M32.5,4.7c-0.1,0-0.1,0-0.1,0.1v0.5
		c0,0.1,0,0.1,0.1,0.1h0.2c0.1,0,0.1,0,0.1-0.1V4.9c0-0.1,0-0.1-0.1-0.1H32.5z M34.2,4.7c-0.1,0-0.1,0-0.1,0.1v0.5
		c0,0.1,0,0.1,0.1,0.1h0.2c0.1,0,0.1,0,0.1-0.1V4.9c0-0.1,0-0.1-0.1-0.1H34.2z M34,7.4c0,0.1,0,0.1,0.1,0.1h0.2c0.1,0,0.1,0,0.1-0.1
		V6.9c0-0.1,0-0.1-0.1-0.1h-0.2c-0.1,0-0.1,0-0.1,0.1V7.4z M36.1,4.6C36.1,4.5,36.1,4.5,36.1,4.6C36.1,4.6,36,4.6,36.1,4.6L36,7.3
		c0,0,0,0,0,0c0,0,0,0,0,0c0.3-0.5,0.4-1.1,0.6-1.8c0-0.1,0-0.2,0-0.2C36.5,5.1,36.3,4.8,36.1,4.6z M38.1,6.1
		C38.1,6.1,38.1,6.2,38.1,6.1l0.2,0.1c0.1,0,0.1,0,0.1-0.1V5.9c0-0.2,0.1-0.4,0.2-0.6c0.2-0.2,0.4-0.2,0.6-0.2c0.1,0,0.1,0,0.1-0.1
		c0-0.1,0-0.3-0.1-0.4c0,0,0-0.1,0-0.1c0-0.3,0.2-0.6,0.7-0.8c0,0,0.1,0,0.1-0.1c0.1-0.1,0.2-0.5,0.2-1.2c0,0,0-0.1,0-0.1s0,0-0.1,0
		h-0.9c-0.1,0-0.1,0-0.1,0.1C38.9,3,38.7,3.6,38.5,4c-0.3,0.5-0.7,0.9-1.2,1.2c0,0,0,0,0,0c0,0,0,0,0,0l0.4,0.1
		c0.2,0,0.3,0.1,0.4,0.3c0.1,0.1,0.1,0.2,0.1,0.3C38.1,6,38.1,6,38.1,6.1z"/>
	<path fill="#27C1AE" d="M45.4,4.3c0.2,0.1,0.4,0.3,0.4,0.6c0,0.1,0,0.1,0,0.2c0,0.2-0.1,0.4-0.2,0.5c-0.1,0.2-0.3,0.3-0.6,0.4
		c-0.1,0-0.1,0-0.2,0c-0.2,0-0.4-0.1-0.5-0.2c-0.2-0.1-0.5-0.3-0.8-0.4c-0.2-0.1-0.3-0.3-0.4-0.5c0-0.1,0-0.1,0-0.2
		c0-0.1,0-0.3,0.1-0.4c0.1-0.2,0.3-0.4,0.6-0.4c0.1,0,0.2,0,0.3,0c0.1,0,0.3,0,0.4,0.1C44.9,4,45.1,4.1,45.4,4.3z M45.1,7.7
		c0.1-0.2,0.3-0.3,0.5-0.4c0.1,0,0.1,0,0.2,0c0.2,0,0.3,0.1,0.4,0.2c0.2,0.2,0.3,0.4,0.4,0.7c0,0.1,0,0.2,0,0.3c0,0.2,0,0.3-0.1,0.5
		c-0.4,0.8-0.8,1.6-1.2,2.4c-0.1,0.2-0.3,0.4-0.6,0.4c-0.1,0-0.1,0-0.2,0c-0.2,0-0.4-0.1-0.5-0.2c-0.2-0.2-0.4-0.4-0.4-0.7
		c0-0.1,0-0.1,0-0.2c0-0.2,0.1-0.4,0.2-0.6C44.2,9.3,44.6,8.5,45.1,7.7z M46.2,0.8c0.2,0.1,0.3,0.3,0.4,0.6c0,0.1,0,0.1,0,0.2
		c0,0.2-0.1,0.4-0.2,0.5c-0.1,0.2-0.3,0.3-0.6,0.3c0,0-0.1,0-0.2,0c-0.2,0-0.4-0.1-0.5-0.2c-0.2-0.2-0.5-0.3-0.8-0.4
		C44.2,1.7,44,1.6,44,1.4c0-0.1,0-0.1,0-0.2c0-0.1,0-0.3,0.1-0.4c0.2-0.2,0.3-0.3,0.6-0.4c0.1,0,0.2,0,0.3,0c0.1,0,0.3,0,0.4,0.1
		C45.6,0.5,45.9,0.7,46.2,0.8z M55,6.6c0,0.2-0.1,0.4-0.3,0.6s-0.4,0.3-0.6,0.3h-1.9c0,0-0.1,0-0.1,0c0,0,0,0.1,0,0.1
		c0.5,1.1,1.2,1.9,2.1,2.5c0.2,0.1,0.3,0.3,0.4,0.6c0,0.1,0,0.1,0,0.2c0,0.2-0.1,0.4-0.2,0.5c-0.2,0.2-0.4,0.4-0.7,0.5
		c-0.1,0-0.2,0-0.2,0c-0.2,0-0.4-0.1-0.6-0.2c-1-0.7-1.8-1.8-2.4-3.2c0,0,0,0,0,0c0,0,0,0,0,0c-0.4,1.3-1.1,2.3-2.2,3.2
		c-0.2,0.2-0.4,0.2-0.7,0.2c0,0-0.1,0-0.1,0c-0.3,0-0.5-0.2-0.8-0.4c-0.2-0.1-0.3-0.3-0.3-0.5c0-0.3,0.1-0.5,0.3-0.6
		c1-0.7,1.7-1.7,2-2.8c0,0,0-0.1,0-0.1c0,0,0,0-0.1,0h-1.2c-0.2,0-0.4-0.1-0.6-0.3s-0.3-0.4-0.3-0.6c0-0.2,0.1-0.4,0.3-0.6
		s0.4-0.3,0.6-0.3H49c0.1,0,0.1,0,0.1-0.1c0-0.3,0-0.7,0-1V3.9c0-0.1,0-0.1-0.1-0.1h-0.9c-0.2,0-0.4-0.1-0.6-0.3s-0.3-0.4-0.3-0.6
		c0-0.2,0.1-0.4,0.3-0.6S47.8,2,48.1,2H49c0.1,0,0.1,0,0.1-0.1V1c0-0.3,0.1-0.5,0.3-0.7s0.4-0.3,0.7-0.3c0.3,0,0.5,0.1,0.7,0.3
		C50.9,0.5,51,0.7,51,1v0.9C51,1.9,51,2,51.1,2H53c0.3,0,0.6,0.1,0.8,0.3c0.2,0.2,0.3,0.5,0.3,0.8v2.6c0,0.1,0,0.1,0.1,0.1
		c0.2,0,0.4,0.1,0.6,0.2S55,6.3,55,6.6L55,6.6z M51.1,3.7c-0.1,0-0.1,0-0.1,0.1v0.8c0,0.5,0,0.8,0,1c0,0,0,0.1,0,0.1
		c0,0,0.1,0,0.1,0h1c0.1,0,0.1,0,0.1-0.1V3.9c0-0.1,0-0.1-0.1-0.1H51.1z"/>
	<path fill="#27C1AE" d="M65.2,0.9c0.1,0,0.2,0,0.2,0c0.2,0,0.3,0.1,0.5,0.2l0.4,0.3c0.2,0.2,0.3,0.4,0.4,0.6c0,0,0,0.1,0,0.1
		c0,0.2-0.1,0.4-0.2,0.5c-1.3,1.4-2.5,2.6-3.6,3.4C62.9,6,62.8,6,62.8,6.1v4c0,0.5-0.1,0.9-0.2,1.2c-0.1,0.3-0.4,0.5-0.8,0.6
		c-0.4,0.2-1,0.3-1.8,0.3c0,0,0,0-0.1,0c-0.3,0-0.5-0.1-0.8-0.3c-0.2-0.2-0.4-0.4-0.5-0.7c0-0.1-0.1-0.2-0.1-0.3
		c0-0.1,0-0.2,0.1-0.4c0.1-0.2,0.3-0.3,0.5-0.3c0,0,0,0,0,0c0.4,0,0.7,0,1.2,0c0.1,0,0.2,0,0.3-0.1c0.1,0,0.1-0.1,0.1-0.2V5.3
		c0-0.2,0.1-0.4,0.3-0.6s0.4-0.3,0.6-0.3c0.1,0,0.1,0,0.2-0.1C62.4,4,63,3.5,63.6,2.8c0,0,0,0,0-0.1c0,0,0,0,0,0h-6
		c-0.3,0-0.5-0.1-0.7-0.3c-0.2-0.2-0.3-0.4-0.3-0.6s0.1-0.5,0.3-0.7c0.2-0.2,0.4-0.3,0.7-0.3L65.2,0.9C65.2,0.9,65.2,0.9,65.2,0.9z"
		/>
	<path fill="#27C1AE" d="M8.1,25.6c0,0.3-0.1,0.6-0.3,0.8c-0.2,0.2-0.5,0.3-0.8,0.3H6.3c-0.1,0-0.1,0-0.1,0.1V27
		c0,0.2-0.1,0.4-0.2,0.5c-0.1,0.1-0.3,0.2-0.5,0.2c-0.2,0-0.4-0.1-0.5-0.2S4.8,27.2,4.8,27v-7.5c0-0.3,0.1-0.6,0.3-0.8
		c0.2-0.2,0.5-0.3,0.8-0.3H7c0.3,0,0.6,0.1,0.8,0.3C8,19,8.1,19.2,8.1,19.5V25.6z M6.7,20.2c0-0.1,0-0.1-0.1-0.1H6.3
		c-0.1,0-0.1,0-0.1,0.1v4.7c0,0.1,0,0.1,0.1,0.1h0.2c0.1,0,0.1,0,0.1-0.1V20.2z M12.3,22.7C12.3,22.7,12.3,22.8,12.3,22.7l0,1.4
		c0,0,0,0,0,0c0.1,0,0.2,0,0.2,0.1c0.1,0.1,0.1,0.1,0.1,0.2v0.9c0,0.1,0,0.2-0.1,0.2s-0.1,0.1-0.2,0.1c0,0,0,0,0,0
		c0,1.9-0.2,2.9-0.3,3.2c-0.1,0.2-0.2,0.4-0.4,0.5c-0.1,0.1-0.3,0.2-0.5,0.2c-0.1,0-0.2,0.1-0.3,0.1c0,0-0.1,0-0.1,0
		c-0.2,0-0.4-0.1-0.5-0.2C10,29.4,9.9,29.2,9.8,29c0,0,0-0.1,0-0.1c0-0.1,0-0.2,0.1-0.3c0.1-0.1,0.3-0.2,0.5-0.3
		c0.1,0,0.1-0.1,0.2-0.3c0.1-0.2,0.2-0.9,0.2-2.1c0,0,0-0.1,0-0.1c0,0,0,0-0.1,0h-0.3c-0.1,0-0.1,0-0.2,0.1
		c-0.3,1.4-0.7,2.5-1.3,3.4c-0.1,0.2-0.3,0.2-0.5,0.2c-0.2,0-0.4-0.1-0.5-0.2c-0.1-0.2-0.2-0.3-0.3-0.6c0,0,0-0.1,0-0.1
		c0-0.2,0-0.4,0.2-0.5c0.4-0.7,0.7-1.4,0.9-2.4c0,0,0,0,0,0c-0.1,0-0.2,0-0.3-0.1s-0.1-0.2-0.1-0.3v-0.6c0-0.2,0.1-0.3,0.2-0.4
		c0.1-0.1,0.2-0.2,0.4-0.2c0,0,0.1,0,0.1-0.1c0-0.4,0-0.9,0-1.3c0,0,0-0.1-0.1-0.1c-0.1,0-0.3,0-0.4-0.2c-0.1-0.1-0.2-0.2-0.2-0.4
		v-0.5c0-0.1,0-0.3,0.2-0.4c0.1-0.1,0.2-0.2,0.4-0.2c0,0,0.1,0,0.1-0.1v-1.3c0,0,0-0.1-0.1-0.1c-0.2,0-0.3-0.1-0.4-0.2
		c-0.1-0.1-0.2-0.3-0.2-0.4V19c0-0.2,0.1-0.4,0.2-0.5c0.2-0.2,0.3-0.2,0.6-0.2h2.1c0.3,0,0.6,0.1,0.8,0.3c0.2,0.2,0.3,0.5,0.3,0.8
		l0,1.9c0,0,0,0,0,0c0.1,0,0.1,0,0.2,0.1c0,0,0.1,0.1,0.1,0.2v1c0,0.1,0,0.1-0.1,0.2C12.5,22.7,12.4,22.7,12.3,22.7z M10.5,24.1
		C10.5,24.1,10.5,24.1,10.5,24.1c0,0.1,0.1,0.1,0.1,0.1h0.1c0.1,0,0.1,0,0.1-0.1l0-1.2c0,0,0-0.1,0-0.1c0,0-0.1,0-0.1,0h-0.1
		c-0.1,0-0.1,0-0.1,0.1C10.5,23.2,10.5,23.6,10.5,24.1z M10.6,19.8c-0.1,0-0.1,0-0.1,0.1v1.2c0,0.1,0,0.1,0.1,0.1h0.1
		c0.1,0,0.1,0,0.1-0.1v-1.2c0-0.1,0-0.1-0.1-0.1H10.6z M15.2,18.2c0,0,0.1,0,0.1,0c0.1,0,0.2,0,0.3,0.1l0.4,0.2
		c0.2,0.1,0.3,0.2,0.4,0.4c0.1,0.1,0.1,0.2,0.1,0.4c0,0.1,0,0.1,0,0.2c-0.3,1.5-0.5,2.7-0.7,3.4c0,0.1,0,0.2,0,0.2
		c0.4,0.8,0.5,1.7,0.5,2.8c0,0.9-0.2,1.6-0.5,1.9c-0.1,0.1-0.2,0.1-0.3,0.2c-0.1,0-0.2,0.1-0.3,0.1c-0.1,0-0.3-0.1-0.4-0.2
		c-0.2-0.2-0.3-0.4-0.4-0.7c0,0,0,0,0,0c0,0,0,0,0,0v2c0,0.2-0.1,0.4-0.2,0.5c-0.2,0.2-0.3,0.2-0.5,0.2s-0.4-0.1-0.5-0.2
		c-0.2-0.1-0.2-0.3-0.2-0.5v-9.8c0-0.3,0.1-0.6,0.3-0.8s0.5-0.3,0.8-0.3H15.2C15.2,18.2,15.2,18.2,15.2,18.2z M14.3,26.4
		C14.3,26.4,14.4,26.5,14.3,26.4c0.1,0.1,0.1,0.1,0.1,0.1c0.1,0,0.2,0,0.2-0.1c0.1-0.1,0.1-0.4,0.1-0.8c0-0.6,0-1.1-0.1-1.5
		c-0.1-0.6-0.2-1.2-0.2-1.6c0-0.2,0-0.3,0-0.5c0.1-0.8,0.2-1.5,0.3-2.2c0,0,0-0.1,0-0.1c0,0,0,0-0.1,0h-0.2c-0.1,0-0.1,0-0.1,0.1
		V26.4z"/>
	<path fill="#27C1AE" d="M18.4,24.9c0,0-0.1,0-0.1,0c-0.2,0-0.4-0.1-0.6-0.2c-0.2-0.2-0.3-0.4-0.3-0.6l0-0.3c0,0,0,0,0-0.1
		c0-0.1,0-0.3,0.1-0.3c0.1-0.1,0.2-0.2,0.4-0.2c0,0,0.1,0,0.1-0.1v-3.3c0-0.2,0.1-0.4,0.3-0.6c0.2-0.2,0.4-0.3,0.6-0.3
		s0.4,0.1,0.6,0.3c0.2,0.2,0.3,0.4,0.3,0.6v3.1c0,0,0,0.1,0,0.1c0,0,0.1,0,0.1,0l0.3,0c0.1,0,0.1-0.1,0.1-0.1v-4.3
		c0-0.3,0.1-0.5,0.3-0.6c0.2-0.2,0.4-0.3,0.6-0.3c0.3,0,0.5,0.1,0.7,0.3c0.2,0.2,0.3,0.4,0.3,0.6v0.8c0,0.1,0,0.1,0.1,0.1h0.4
		c0.2,0,0.4,0.1,0.6,0.2c0.2,0.2,0.2,0.4,0.2,0.6c0,0.2-0.1,0.4-0.2,0.6c-0.2,0.2-0.4,0.2-0.6,0.2h-0.4c-0.1,0-0.1,0-0.1,0.1v1.5
		c0,0,0,0.1,0,0.1c0,0,0.1,0,0.1,0l0.5,0c0,0,0.1,0,0.1,0c0.2,0,0.4,0.1,0.5,0.2c0.2,0.2,0.3,0.4,0.3,0.6s-0.1,0.4-0.2,0.6
		c-0.2,0.2-0.4,0.3-0.6,0.3C21.5,24.6,20.1,24.8,18.4,24.9z M18.4,29.6c-0.3,0-0.5-0.1-0.7-0.3c-0.2-0.2-0.3-0.4-0.3-0.7
		s0.1-0.5,0.3-0.7c0.2-0.2,0.4-0.3,0.7-0.3h9.9c0.3,0,0.5,0.1,0.7,0.3c0.2,0.2,0.3,0.4,0.3,0.7s-0.1,0.5-0.3,0.7
		c-0.2,0.2-0.4,0.3-0.7,0.3H18.4z M19.8,26.9c-0.2,0-0.5-0.1-0.6-0.3C19,26.5,19,26.3,19,26s0.1-0.5,0.3-0.6
		c0.2-0.2,0.4-0.3,0.6-0.3h7c0.3,0,0.5,0.1,0.6,0.3s0.3,0.4,0.3,0.6s-0.1,0.5-0.3,0.6s-0.4,0.3-0.6,0.3H19.8z M27.3,24.6h-1.5
		c-0.8,0-1.4-0.2-1.6-0.5c-0.3-0.3-0.4-0.9-0.4-1.8v-3.7c0-0.3,0.1-0.5,0.3-0.7s0.4-0.3,0.7-0.3s0.5,0.1,0.7,0.3s0.3,0.4,0.3,0.7v1
		c0,0,0,0.1,0,0.1c0,0,0.1,0,0.1,0c0.3-0.1,0.7-0.3,1-0.4c0.2-0.1,0.4-0.1,0.6-0.1c0.1,0,0.2,0,0.3,0c0.3,0.1,0.5,0.2,0.8,0.4
		c0.1,0.1,0.2,0.3,0.2,0.5c0,0.1,0,0.1,0,0.2c-0.1,0.2-0.2,0.4-0.4,0.5c-0.7,0.2-1.5,0.5-2.3,0.7c-0.1,0-0.1,0.1-0.1,0.2v0.7
		c0,0.3,0,0.4,0.1,0.5c0.1,0.1,0.2,0.1,0.4,0.1h1c0.1,0,0.2,0,0.3-0.1c0.1-0.1,0.1-0.2,0.1-0.4c0-0.2,0.1-0.4,0.3-0.5
		c0.1,0,0.2-0.1,0.3-0.1c0.1,0,0.2,0,0.3,0c0.3,0.1,0.4,0.3,0.6,0.5c0.1,0.2,0.2,0.3,0.2,0.5c0,0.1,0,0.1,0,0.2
		c-0.1,0.6-0.3,1-0.6,1.2S27.8,24.6,27.3,24.6z"/>
	<path fill="#27C1AE" d="M35.7,22c0,0.3-0.1,0.6-0.3,0.8c-0.2,0.2-0.5,0.3-0.8,0.3h-2c-0.1,0-0.1,0-0.1,0.1v5.7
		c0,0.3-0.1,0.5-0.3,0.6c-0.2,0.2-0.4,0.3-0.7,0.3s-0.5-0.1-0.7-0.3c-0.2-0.2-0.3-0.4-0.3-0.6v-9.7c0-0.3,0.1-0.6,0.3-0.8
		c0.2-0.2,0.5-0.3,0.8-0.3h2.9c0.3,0,0.6,0.1,0.8,0.3c0.2,0.2,0.3,0.5,0.3,0.8V22z M34,19.7c0-0.1,0-0.1-0.1-0.1h-1.3
		c-0.1,0-0.1,0-0.1,0.1v0.2c0,0.1,0,0.1,0.1,0.1h1.3c0.1,0,0.1,0,0.1-0.1V19.7z M32.5,21.6c0,0.1,0,0.1,0.1,0.1h1.3
		c0.1,0,0.1,0,0.1-0.1v-0.2c0-0.1,0-0.1-0.1-0.1h-1.3c-0.1,0-0.1,0-0.1,0.1V21.6z M40.6,18.1c0.3,0,0.6,0.1,0.8,0.3
		c0.2,0.2,0.3,0.5,0.3,0.8v8.5c0,0.5-0.1,0.9-0.2,1.2c-0.1,0.3-0.3,0.5-0.6,0.6c-0.4,0.2-0.9,0.3-1.6,0.3c0,0,0,0-0.1,0
		c-0.3,0-0.5-0.1-0.8-0.3c-0.3-0.2-0.4-0.5-0.5-0.8c-0.1-0.2-0.2-0.5-0.3-0.6c0-0.1-0.1-0.1-0.2-0.1h-2.2c0,0-0.1,0-0.1,0.1
		c0,0.2-0.1,0.3-0.2,0.4c-0.1,0.1-0.3,0.2-0.4,0.2h-0.2c-0.2,0-0.4-0.1-0.6-0.3c-0.2-0.2-0.3-0.4-0.3-0.6v-3c0-0.3,0.1-0.6,0.3-0.8
		c0.2-0.2,0.5-0.3,0.8-0.3h2.9c0.3,0,0.6,0.1,0.8,0.3c0.2,0.2,0.3,0.5,0.3,0.8v3c0,0.1,0,0.1,0.1,0.1h0.7c0.1,0,0.2,0,0.3-0.1
		s0.1-0.1,0.1-0.3v-4.4c0-0.1,0-0.1-0.1-0.1h-2.1c-0.3,0-0.6-0.1-0.8-0.3c-0.2-0.2-0.3-0.5-0.3-0.8v-2.8c0-0.3,0.1-0.6,0.3-0.8
		c0.2-0.2,0.5-0.3,0.8-0.3H40.6z M36.8,26.5c0.1,0,0.1,0,0.1-0.1v-0.9c0-0.1,0-0.1-0.1-0.1h-1.4c-0.1,0-0.1,0-0.1,0.1v0.9
		c0,0.1,0,0.1,0.1,0.1H36.8z M39.8,19.6c0-0.1,0-0.1-0.1-0.1h-1.3c-0.1,0-0.1,0-0.1,0.1v0.2c0,0.1,0,0.1,0.1,0.1h1.3
		c0.1,0,0.1,0,0.1-0.1V19.6z M38.2,21.6c0,0.1,0,0.1,0.1,0.1h1.3c0.1,0,0.1,0,0.1-0.1v-0.3c0-0.1,0-0.1-0.1-0.1h-1.3
		c-0.1,0-0.1,0-0.1,0.1V21.6z"/>
	<path fill="#27C1AE" d="M54.3,26.6c0.2,0.2,0.3,0.3,0.3,0.6c0,0,0,0.1,0,0.1c0,0.3-0.2,0.5-0.4,0.6l-0.2,0.1c0,0,0,0,0,0
		c0,0,0,0,0,0c0.2,0,0.3,0,0.4,0c0,0,0,0,0,0c0.2,0,0.3,0.1,0.4,0.2c0.1,0.1,0.1,0.2,0.1,0.3c0,0.1,0,0.1,0,0.2
		c-0.1,0.2-0.2,0.4-0.4,0.6c-0.2,0.1-0.4,0.2-0.6,0.2h-4.6c-1.2,0-2.1-0.1-2.8-0.3c-0.7-0.2-1.3-0.5-1.7-1.1c0,0,0,0-0.1,0
		c0,0,0,0,0,0c-0.1,0.4-0.2,0.7-0.4,1c-0.1,0.2-0.2,0.3-0.4,0.3h0c-0.2,0-0.4-0.1-0.5-0.2c-0.2-0.2-0.2-0.4-0.3-0.6
		c0-0.1,0-0.1,0-0.2c0-0.2,0-0.3,0.1-0.5c0.2-0.5,0.3-1.3,0.4-2.3c0-0.2,0.1-0.4,0.2-0.5c0.1-0.1,0.3-0.2,0.5-0.2s0.4,0.1,0.5,0.2
		c0.1,0.1,0.2,0.3,0.2,0.5c0,0.1,0,0.3,0,0.6c0,0.1,0,0.2,0,0.2c0.1,0.2,0.2,0.4,0.4,0.6c0,0,0,0,0,0s0,0,0,0v-2.4
		c0-0.1,0-0.1-0.1-0.1h-1.5c-0.2,0-0.3-0.1-0.5-0.2C43.1,24.1,43,24,43,23.8s0.1-0.3,0.2-0.5s0.3-0.2,0.5-0.2h4.5
		c0.2,0,0.3,0.1,0.5,0.2s0.2,0.3,0.2,0.5s-0.1,0.3-0.2,0.5c-0.1,0.1-0.3,0.2-0.5,0.2H47c-0.1,0-0.1,0-0.1,0.1v0.6
		c0,0.1,0,0.1,0.1,0.1h0.9c0.2,0,0.3,0.1,0.5,0.2c0.1,0.1,0.2,0.3,0.2,0.5c0,0.2-0.1,0.3-0.2,0.5s-0.3,0.2-0.5,0.2H47
		c-0.1,0-0.1,0-0.1,0.1v1.1c0,0.1,0,0.1,0.1,0.1c0.5,0.1,1.2,0.1,2.2,0.1h0c0,0,0,0,0,0c0,0,0,0,0-0.1c-0.1-0.1-0.1-0.1-0.2-0.2
		c-0.2-0.2-0.2-0.3-0.2-0.5c0,0,0-0.1,0-0.1c0-0.2,0.1-0.4,0.4-0.6c0.1-0.1,0.3-0.2,0.4-0.3c0.3-0.2,0.6-0.4,1-0.4
		c0.1,0,0.3,0,0.4,0.1c0.2,0.1,0.3,0.2,0.4,0.4c0,0,0,0.1,0,0.2c0,0.1,0,0.2-0.1,0.3c-0.4,0.4-0.9,0.8-1.4,1.1c0,0,0,0,0,0
		c0,0,0,0,0,0c1.7,0,2.9,0,3.8,0c0,0,0,0,0.1,0c0,0,0,0,0-0.1c-0.2-0.3-0.5-0.6-0.8-0.9c-0.2-0.2-0.3-0.3-0.3-0.5c0,0,0-0.1,0-0.1
		c0-0.3,0.2-0.4,0.4-0.6c0,0,0,0,0,0c0,0,0,0,0,0h-2.7c-0.3,0-0.6-0.1-0.8-0.3c-0.2-0.2-0.3-0.5-0.3-0.8V21c0-0.3,0.1-0.6,0.3-0.8
		c0.2-0.2,0.5-0.3,0.8-0.3h0.5c0.1,0,0.1,0,0.2-0.1l0.1-0.3c0,0,0,0,0-0.1c0,0,0,0-0.1,0h-1.4c-0.2,0-0.3-0.1-0.5-0.2
		s-0.2-0.3-0.2-0.5c0-0.2,0.1-0.3,0.2-0.5s0.3-0.2,0.5-0.2h4.7c0.2,0,0.3,0.1,0.5,0.2s0.2,0.3,0.2,0.5c0,0.2-0.1,0.3-0.2,0.5
		s-0.3,0.2-0.5,0.2h-1.3c-0.1,0-0.1,0-0.2,0.1l-0.1,0.3c0,0,0,0,0,0.1c0,0,0,0,0.1,0h0.8c0.3,0,0.6,0.1,0.8,0.3
		c0.2,0.2,0.3,0.5,0.3,0.8v4c0,0.3-0.1,0.5-0.3,0.6c-0.2,0.2-0.4,0.3-0.6,0.3c0,0,0,0,0,0c0,0,0,0,0,0C53.7,26.2,54,26.4,54.3,26.6z
		 M47.3,18.1c0.3,0,0.6,0.1,0.8,0.3c0.2,0.2,0.3,0.5,0.3,0.8v2.2c0,0.3-0.1,0.6-0.3,0.8c-0.2,0.2-0.5,0.3-0.8,0.3h-2.6
		c-0.3,0-0.6-0.1-0.8-0.3c-0.2-0.2-0.3-0.5-0.3-0.8v-2.2c0-0.3,0.1-0.6,0.3-0.8c0.2-0.2,0.5-0.3,0.8-0.3H47.3z M46.5,19.8
		c0.1,0,0.1,0,0.1-0.1v-0.1c0-0.1,0-0.1-0.1-0.1h-1.2c-0.1,0-0.1,0-0.1,0.1v0.1c0,0.1,0,0.1,0.1,0.1H46.5z M46.5,21.3
		c0.1,0,0.1,0,0.1-0.1V21c0-0.1,0-0.1-0.1-0.1h-1.2c-0.1,0-0.1,0-0.1,0.1v0.2c0,0.1,0,0.1,0.1,0.1H46.5z M52.6,21.6
		c0.1,0,0.1,0,0.1-0.1v-0.1c0-0.1,0-0.1-0.1-0.1h-1.7c-0.1,0-0.1,0-0.1,0.1v0.1c0,0.1,0,0.1,0.1,0.1H52.6z M52.6,23.1
		c0.1,0,0.1,0,0.1-0.1v-0.2c0-0.1,0-0.1-0.1-0.1h-1.7c-0.1,0-0.1,0-0.1,0.1V23c0,0.1,0,0.1,0.1,0.1H52.6z M52.6,24.7
		c0.1,0,0.1,0,0.1-0.1v-0.1c0-0.1,0-0.1-0.1-0.1h-1.7c-0.1,0-0.1,0-0.1,0.1v0.1c0,0.1,0,0.1,0.1,0.1H52.6z"/>
	<path fill="#27C1AE" d="M62.7,24.5c-0.2,0.5-0.5,0.7-0.8,0.7h-0.3c-0.3,0-0.5-0.1-0.7-0.3c-0.1-0.1-0.2-0.3-0.2-0.4
		c0-0.1,0-0.2,0-0.3c0.1-0.3,0.3-0.5,0.6-0.8c0.3-0.2,0.5-0.4,0.7-0.6c0.2-0.2,0.4-0.3,0.6-0.5s0.3-0.4,0.3-0.6
		c0-0.3-0.1-0.6-0.4-0.8c-0.3-0.2-0.6-0.3-1.1-0.3c-0.4,0-0.8,0.1-1.2,0.4c-0.2,0.1-0.4,0.2-0.7,0.2c0,0,0,0,0,0
		c-0.2,0-0.4-0.1-0.6-0.2c-0.2-0.2-0.3-0.4-0.3-0.6c0-0.2,0.1-0.4,0.3-0.5c0.8-0.7,1.7-1,2.8-1c1,0,1.8,0.2,2.4,0.7
		c0.6,0.5,0.9,1.1,0.9,2c0,0.3-0.1,0.6-0.2,0.8c-0.1,0.2-0.3,0.4-0.5,0.6c-0.2,0.2-0.4,0.3-0.6,0.5c-0.2,0.1-0.4,0.3-0.6,0.5
		C63,24.1,62.8,24.3,62.7,24.5z M60.1,27.4c0-0.4,0.1-0.7,0.4-1s0.6-0.4,1.1-0.4c0.4,0,0.8,0.1,1.1,0.4c0.3,0.3,0.4,0.6,0.4,1
		s-0.1,0.7-0.4,1c-0.3,0.3-0.6,0.4-1.1,0.4c-0.4,0-0.8-0.1-1.1-0.4S60.1,27.8,60.1,27.4z"/>
</g>
<g>
</g>
<g>
</g>
<g>
</g>
<g>
</g>
<g>
</g>
<g>
</g>
<g>
</g>
<g>
</g>
<g>
</g>
<g>
</g>
<g>
</g>
<g>
</g>
<g>
</g>
<g>
</g>
<g>
</g>
</svg>
