<?xml version="1.0" encoding="utf-8"?>
<!-- Generator: Adobe Illustrator 18.0.0, SVG Export Plug-In . SVG Version: 6.00 Build 0)  -->
<!DOCTYPE svg PUBLIC "-//W3C//DTD SVG 1.1//EN" "http://www.w3.org/Graphics/SVG/1.1/DTD/svg11.dtd">
<svg version="1.1" id="Layer_1" xmlns="http://www.w3.org/2000/svg" xmlns:xlink="http://www.w3.org/1999/xlink" x="0px" y="0px"
	 viewBox="0 0 29.3 56.4" enable-background="new 0 0 29.3 56.4" xml:space="preserve">
<g>
	<g>
		<path fill="#828282" d="M17.3,39c-0.4-0.3-0.9-0.6-1.4-0.9C8.5,34.5,4,38.2,2,40.6c-0.1,0.6-0.1,1.1-0.1,1.5c0,7.2,5.8,13,13,13
			c7.2,0,13-5.8,13-13c0-0.4,0-0.8-0.1-1.3C24,43.6,18.9,40.2,17.3,39z"/>
		<g>
			<g>
				<path fill-rule="evenodd" clip-rule="evenodd" fill="#3A494F" d="M13.7,38.9c-0.1-0.1-0.3-0.2-0.4-0.3c0-0.1,0-0.2-0.1-0.2
					c-0.3-0.1-0.4-0.3-0.7-0.4c-0.3-0.1-0.1,0.1-0.3,0.1c-0.2-0.1-0.1-0.2-0.4-0.2c-0.3,0-0.6,0.2-0.8,0.1c-0.2,0,0-0.2-0.3-0.2
					c-0.3,0-0.2,0.1-0.4,0.1c-0.2,0-0.5-0.3-0.7-0.4c-0.2,0.1-0.5,0.2-0.8,0.2C8.6,37.9,8.3,38,8.2,38c-0.5,0.1-0.3-0.1-0.8,0
					c0,0,0.1-0.1-0.1,0c-0.2,0.1-0.1,0.2-0.3,0.3c-0.2,0.1-0.2-0.1-0.4,0c-0.1,0.1-0.2,0.3-0.2,0.5c-0.4,0-0.8,0-1,0.1
					c-0.2,0.1-0.6,0.7-0.7,0.9c-0.2,0.2-0.1-0.1-0.3,0.1c-0.2,0.2-0.1,0.3-0.3,0.4c-0.4,0.4-0.2-0.2-0.5,0.1
					c-0.2,0.2,0.1,0.1-0.1,0.3C3.1,41,3.1,40.9,2.9,41c0,0,0,0.1,0,0.1c0,0,0,0,0,0.1c0,0.1,0,0.2,0,0.2c0,0.3,0.1,0.6,0.1,0.8
					c0,0.3-0.1,0.7-0.1,0.9c0,0.3,0.2,0.6,0.2,0.8c0,0.1-0.1,0.2-0.2,0.2c0,0,0,0.1,0,0.3c0,0.2,0.1,0.4,0.1,0.6
					c0.1,0.2,0.1,0.4,0.1,0.6c0,0.2,0.1,0.3,0.1,0.3c0.1-0.2,0.1-0.3,0.2-0.3c0.1,0.1-0.1,0.2,0,0.4c0.1,0.2,0.2,0.2,0.3,0.4
					c0.1,0.2,0,0.7,0.1,1c0.1,0.2,0.2,0.2,0.3,0.4c0.1,0.2,0,0.2,0.1,0.4c0.1,0.2,0.3,0.3,0.5,0.3c0,0.2-0.2,0.2-0.1,0.4
					c0.2,0.2,0.1-0.1,0.2,0.1c0.2,0.2-0.1,0,0,0.2c0.2,0.2,0.1-0.1,0.2,0.1c0.2,0.2-0.1,0.1,0.1,0.3c0.2,0.2,0.3,0.2,0.5,0.4
					c0.2,0.2,0.3,0.3,0.2,0.5c0.1,0.1,0.2,0,0.3-0.1c0.1,0.1,0,0.2,0.2,0.4C7,51,7.1,50.9,7.2,51.1c0.2,0.2,0.4,0.4,0.6,0.6
					c0.2,0.2,0.5,0.2,0.8,0.4c0.2,0.1,0.2,0.2,0.3,0.3c0.4,0.3,0.9,0.5,1.3,0.7c0,0.1-0.1,0.1,0.1,0.2c0.3,0.1,1,0.1,1.4,0.1
					l0.3,0.1c0,0.1-0.2,0.1-0.5,0.2l0.7,0.2c0.3,0.1,0.1-0.1,0.4-0.1c0.3,0,0.3,0.2,0.6,0.2c0.3,0,0.2-0.1,0.4-0.1
					c0.3,0,0,0.1,0.3,0.1c0.3,0,0.4-0.1,0.6-0.1c0.3,0,0.9,0.1,1.1,0.1c0.2,0,0.6,0,0.7-0.2c0.2,0.1,0.4,0.1,0.5,0.2
					c0.3,0,0.4,0,0.3-0.1c0-0.2-0.2-0.1-0.2-0.2c0.3,0.1,0.6,0.1,0.8,0.1c0.1,0,0.5-0.3,0.5-0.5l0.4-0.1c0.1,0.1,0.3,0.2,0.4,0.3
					c0.1,0,0.1-0.1,0.1-0.3c0.3,0,0.5,0.1,0.7,0c0.2-0.1,0.5-0.5,0.7-0.7c0.2-0.1,0.2,0,0.4-0.1c0.2-0.1,0.2-0.1,0.1-0.2
					c0.2,0,0.2,0.2,0.4,0.1c0.2-0.2-0.1-0.1,0.1-0.2c0.2-0.2,0.3-0.1,0.5-0.2c0.4-0.3,0.4-0.4,0.2-0.7l0.3-0.3
					c0.1,0.1,0.4,0.2,0.5,0.1c0.2-0.2-0.1-0.1,0.1-0.2c0.2-0.2,0.1,0.1,0.2-0.1c0.2-0.2,0.1-0.4,0.2-0.6c0.1-0.2,0.2-0.2,0.3-0.5
					c0.1-0.1,0.3-0.3,0.6-0.5c0.2-0.2,0.5-0.5,0.5-0.6c0.5-0.8,0.1-0.7,0.3-1c0.2-0.4,0.3,0,0.6-0.8c0.1-0.2,0.1-0.6,0.2-0.8
					c0.1-0.3,0.3-0.6,0.5-0.9c0-0.1-0.1-0.2-0.2-0.2l0.1-0.3c0-0.3,0.2-0.2,0.2-0.4c0.1,0,0.2,0,0.3-0.1c0,0,0-0.3,0-0.3
					c0-0.2-0.1-0.1-0.2-0.2c0-0.1,0-0.3,0-0.3c0,0-0.1,0.1-0.1,0c0-0.1,0.1-0.4,0.2-0.7c0,0-0.1,0.1-0.3,0.3c0-0.1,0-0.1-0.1,0
					c-0.1,0.1-0.2,0.2-0.3,0.3c0,0-0.1-0.1-0.1-0.3l-0.5,0.1c-0.1,0.1-0.1,0.2-0.1,0.3L25,42.9c-0.3,0-0.2-0.1-0.5-0.1
					c-0.3,0-0.4,0-0.4,0.1c-0.9-0.2-0.3-0.3-1.2-0.4c-0.5-0.1-1.2,0-1.4-0.1c-0.3-0.1-0.4-0.4-0.7-0.5c-0.3-0.1-0.1,0.1-0.4,0
					c-0.3-0.1,0.1-0.1-0.2-0.2c-0.3-0.1-0.9-0.3-1.3-0.4c-0.1,0,0,0-0.3-0.1c-0.2-0.1-0.6-0.5-0.6-0.7l-0.2-0.1
					c-0.1,0-0.1,0.1-0.2,0.2c0-0.3-0.1-0.6-0.4-0.8c0-0.1,0.2,0,0.2-0.1c0.2-0.3-0.2-0.7,0-0.9c0.1-0.1,0.1-0.1,0.1-0.1
					c0.1,0,0.6,0.2,0.7,0c0.1-0.1,0-0.2,0-0.3c0.3,0.2,0.5,0,0.6,0.1c0.1,0.1,0.1,0.2,0.4,0.4c0.2,0.1,0.4,0.1,0.6,0.2
					c0.2,0.1,0,0.1,0.1,0.2c0.3,0.2,0.8,0.6,1.1,0.7c0.2,0.1,0.4,0.2,0.6,0.2c0.2,0,0.4-0.1,0.6-0.1c0.2,0.1,0.1,0.1,0.1,0.2
					c0.2,0.1,0.5,0.1,0.7,0.2c0.2,0,0.7,0.1,1.1,0c0,0.1-0.1,0.1-0.2,0.2c0,0.1,0.2,0.1,0.3,0.2c0.1,0,0.1-0.1,0.3-0.1
					c0.2,0,0.2,0.1,0.2,0.1c0.1-0.1,0.3-0.1,0.3-0.2c0-0.2-0.2-0.1-0.2-0.2c0,0,0.1,0,0.2,0c0.1,0,0.3-0.1,0.3-0.1
					c0.1,0,0.3,0.1,0.5,0c0.2,0,0.4-0.1,0.6-0.2c0.5-0.3-0.1-0.1,0.5-0.4c0.5-0.3-0.2,0.2,0.4-0.1c0.5-0.3,0.4-0.4,0.9-0.7
					c0.2-0.1,0.4-0.2,0.4-0.1c0,0.1,0,0.3,0,0.4c0,0.5,0.2,1.2,0.3,1.7c0.1,0.3,0.2,0.5,0.3,0.7c-0.1,0.1-0.2-0.3-0.3-0.2
					c0,0.4,0,1-0.1,1.5c0,0.2,0,0.5-0.1,0.7c0,0.1-0.1,0.2-0.1,0.3c0,0.3-0.1,0.6,0,0.8l0,0c-0.1,0.3-0.1,0.1-0.2,0.2
					c0,0.1,0.1,0.2,0.2,0.2c0,0.2-0.1,0-0.2,0.3c-0.1,0.3,0,0.1,0.1,0.2c0,0.2-0.2,0.2-0.3,0.1c-0.1,0.6-0.4,1.3-0.6,1.8
					c-0.1,0,0-0.2-0.2,0.1c-0.1,0.3-0.2,1.2-0.4,1.4c-0.2,0.3-0.4,0.2-0.6,0.5c-0.2,0.3,0.1,0,0,0.3c-0.2,0.3-0.5,0.4-0.6,0.4
					c0,0.1,0,0.2,0.1,0.3L25.8,51c-0.1,0-0.3,0.1-0.4,0.1c0,0.1-0.1,0.3,0,0.6L25.1,52c-0.1-0.1,0-0.3,0-0.3c-0.1,0,0-0.1-0.2,0.2
					c-0.2,0.2-0.2,0.6-0.4,0.8c-0.2,0.2-0.2,0-0.5,0.2c-0.2,0.2-0.1,0.2-0.3,0.4c-0.2,0.2-0.1-0.1-0.4,0.1c-0.2,0.2-0.2,0.2-0.2,0.3
					c-0.2,0.1-0.4,0.1-0.6,0.1c-0.2,0-0.5,0.3-0.8,0.4c-0.3,0.2-0.6,0.3-0.8,0.4c-0.1,0.1-0.1,0.2-0.3,0.4c0,0,0.1,0-0.1,0.1
					c-0.3,0.1-0.5,0-0.6,0c-0.1,0-0.2,0.1-0.5,0.2c-1,0.4-0.6,0.5-1.1,0.6c-0.4,0.1-0.5-0.1-1-0.2l-0.3,0c-0.1,0.1-0.1,0-0.1,0.1
					c0,0.2,0.3,0.1,0.3,0.2l-0.9,0.1c-0.3,0-0.3-0.1-0.6-0.1c-0.3,0-0.4,0.1-0.6,0.2c0-0.1,0.2-0.2,0.2-0.2c-0.1,0,0.1,0-0.2,0
					c-0.3,0-0.2,0.1-0.5,0.1c-0.3,0-0.2-0.1-0.5-0.2c-0.3,0-0.6,0.1-0.9,0.1c-0.3,0-0.4-0.2-0.7-0.2c-0.3,0,0,0.1-0.3,0.1
					c-0.3-0.1,0-0.1-0.3-0.2c-0.3-0.1-0.1,0.1-0.4,0c-0.3-0.1-0.6-0.3-0.6-0.4c-0.2,0-0.4-0.1-0.4,0.1c-0.1,0.2,0.2,0.2,0.2,0.3
					c-0.4-0.1-0.4-0.3-0.6-0.4c-0.3-0.1-0.2-0.1-0.3,0c-0.2-0.2-0.4-0.4-0.7-0.6c-0.3-0.1-0.4-0.1-0.7-0.2c-0.1-0.1-0.1-0.2-0.3-0.4
					L8,54.6l-0.8-0.5C7.2,54,7,53.9,7,53.7c-0.3-0.1-0.9-0.4-1.2-0.6c-0.2-0.2-0.4-0.5-0.4-0.7c-0.1-0.1-0.2,0-0.3,0.1
					c-0.3-0.4-0.9-1.3-1.1-1.5c-0.3-0.3-0.2-0.3-0.4-0.1l-0.4-0.5c-0.2-0.2-0.2-0.8-0.4-1c-0.2-0.3-0.2-0.1-0.4-0.4
					c-0.2-0.3-0.1-0.6-0.3-0.8c-0.1-0.3-0.3-0.3-0.4-0.6c-0.1-0.3,0.1,0,0-0.3c-0.1-0.3-0.2-0.1-0.3-0.4c-0.1-0.3,0-0.4-0.1-0.7
					c-0.1-0.3-0.2-0.1-0.2-0.4c-0.1-0.3,0.1,0,0.1-0.3C1.2,45.1,1.1,45.3,1,45c0-0.3,0.1-0.6,0.2-0.7c0-0.1-0.1-0.1-0.3-0.1
					C0.9,44,1,44.1,1,43.8c0-0.3-0.1,0.1-0.2-0.2c0-0.3,0.1,0,0.1-0.3c0-0.3-0.1-0.1-0.1-0.2c0-0.2,0-1-0.2-1.2
					c0-0.2,0.2-0.2,0.2-0.2c0.1-0.2,0.2-0.3,0.2-0.7c0-0.1,0-0.3-0.1-0.4C1,40.3,0.9,40.1,0.9,40c0,0,0.7-0.9,0.7-0.8
					c0.2,0,0.3,0,0.5-0.2c0.2-0.2-0.1-0.1,0.2-0.4c0.2-0.2,0.4-0.2,0.6-0.4c0.2-0.2,0.3-0.3,0.4-0.3c0.1-0.1,0-0.2,0-0.3
					c0.1-0.1,0.3-0.3,0.7-0.7c0.1,0.1,0,0.2-0.1,0.3c0,0,0.3-0.1,0.4,0c0.1-0.2,0.3-0.4,0.6-0.5c0.3-0.1,0.5-0.1,0.7-0.2
					c0.3-0.1-0.1-0.1,0.2-0.2c0.3-0.1,0.1,0,0.2,0c0.2-0.1,0.3-0.1,0.6-0.2c0.3-0.1,0.6-0.2,0.8-0.3l0,0c0.3-0.1,0.1,0.1,0.4,0
					c0.3-0.1,0.2-0.2,0.5-0.2c0.3,0,0.2,0.1,0.5,0.1c0.3,0,0-0.1,0.4-0.2c0.3,0,0.2,0.1,0.5,0.1c0.3,0,0.5-0.1,0.7-0.2
					c0.3,0.1,0.7,0.3,1,0.3c0.3,0,0.2-0.1,0.5-0.1c0.3,0,0,0.1,0.3,0.2c0.3,0.1,0.2,0,0.3-0.1c0.2,0,0.2,0.2,0.1,0.3
					c0,0,0.1,0,0.3,0.1c0.2,0.1,0.4,0.1,0.7,0.2c0.5,0.2,1,0.3,1,0.3c0.3,0.1,0-0.2,0.3,0c0.3,0.1,0,0.1,0.3,0.3
					c0.3,0.1,0.2,0,0.5,0.1c0.3,0.1,0.1,0.2,0.4,0.3c0.2,0.1,0.1,0,0.2,0c0.1,0.1,0.1,0.3,0.1,0.5c0.1,0.1,0.3,0.4,0.3,0.5
					c0,0,0.1,0,0.2-0.2l0.2,0.1c0.2,0.1,0.1,0.2,0.2,0.3c0,0.1,0.1,0.2,0,0.3c-0.1,0.1-0.2,0-0.3,0.1c-0.1,0.1-0.1,0.3,0,0.4
					c-0.2,0.1-0.5,0.2-0.7,0.3c-0.1,0,0-0.2-0.1-0.2L16,39.8l-0.1-0.1c-0.1-0.1,0-0.1,0-0.2c0,0-0.1,0-0.2,0.2c-0.1,0,0-0.1-0.1-0.2
					c-0.1-0.1-0.2-0.1-0.3-0.2c0,0-0.1-0.1-0.2-0.1c-0.1,0-0.2-0.1-0.3-0.1c-0.4-0.2-0.7-0.4-0.8-0.4c-0.2-0.1-0.5-0.2-0.7-0.2
					C13.5,38.6,13.6,38.8,13.7,38.9z"/>
			</g>
		</g>
	</g>
	<g>
		<path fill="#FFFFFF" d="M17.9,10.8c-1.7-4.5-3-7.6-3-7.6S3.4,31.4,2,40.6c2-2.5,6.5-6.1,13.9-2.5c0.5,0.2,1,0.5,1.4,0.9
			c1.6,1.2,6.7,4.5,10.5,1.8c-0.2-1.7-0.8-4.1-1.7-6.9"/>
		<g>
			<g>
				<path fill-rule="evenodd" clip-rule="evenodd" fill="#3A494F" d="M15.1,7.9c0-0.1,0-0.2,0-0.3c0-0.1,0-0.1,0-0.2c0-0.1,0,0,0,0
					c0.1,0,0.2-0.1,0.2-0.1c0-0.1,0.1-0.3,0-0.4c0-0.1-0.1,0.1-0.1,0.1c0-0.1,0-0.2,0-0.3c0-0.1-0.2,0.3-0.2,0.3c0,0,0-0.3,0-0.4
					c0-0.1,0,0.3,0,0.3c0,0-0.1-0.5-0.2-0.7c-0.1,0.5-0.1,0.9-0.1,0.9c0,0.1-0.1,0.1-0.1,0.1c0,0-0.1,0-0.1,0c0,0-0.1,0-0.1,0.2
					c0,0,0-0.1-0.1,0.2c-0.1,0.3,0,0.2-0.1,0.5c-0.1,0.3-0.2,0.1-0.3,0.4c-0.1,0.1,0,0.5,0.2,0.7c-0.3,0.4-0.7,0.7-0.8,1
					c-0.1,0.3-0.2,1.1-0.3,1.4c-0.1,0.3-0.1,0-0.3,0.3c-0.1,0.3,0,0.4-0.1,0.7c-0.2,0.6-0.3,0-0.4,0.4c-0.1,0.3,0.1,0.1,0,0.4
					c-0.1,0.3-0.3,0.4-0.4,0.7c-0.1,0.3-0.3,1.6-0.5,1.9c-0.1,0.3-0.4,0.8-0.5,1.1c-0.1,0.3-0.2,0.8-0.3,1.1
					c-0.1,0.1-0.2,0.1-0.3,0.1l-0.7,2c0.2-0.1,0.3-0.2,0.3-0.1c-0.1,0.2-0.2,0.1-0.3,0.4s0,0.4-0.1,0.7c-0.1,0.3-0.5,0.7-0.6,1
					c-0.1,0.3,0,0.4-0.1,0.7c-0.1,0.3-0.2,0.1-0.3,0.4c-0.1,0.3-0.1,0.5,0,0.8c-0.1,0.2-0.2-0.1-0.4,0.2c-0.1,0.3,0.1,0,0,0.3
					c-0.1,0.3-0.1-0.1-0.2,0.2s0.1,0,0,0.3c-0.1,0.3-0.1,0-0.3,0.3c-0.1,0.3,0,0.5-0.1,0.8c-0.1,0.3-0.2,0.5-0.3,0.5
					c0,0.1,0,0.2,0.2,0.3c0,0.2-0.2,0.1-0.3,0.4c-0.1,0.3,0,0.4-0.1,0.7c-0.1,0.3-0.4,0.6-0.5,1c-0.1,0.3-0.1,0.7-0.2,1
					c-0.1,0.3-0.2,0.3-0.3,0.4c-0.2,0.6-0.4,1.2-0.6,1.8c-0.1,0-0.1-0.1-0.2,0.2C5,32.8,5,33.7,4.9,34.3l-0.1,0.4
					c-0.1,0,0-0.3-0.1-0.6l-0.3,0.9c-0.1,0.3,0.1,0.2,0,0.5c-0.1,0.3-0.3,0.4-0.3,0.7c-0.1,0.2,0.1,0.1,0.1,0.2c0,0.1-0.1,0-0.2,0.1
					c0,0.1,0.1,0.1,0.1,0.1c0,0.1-0.2,0.4-0.3,0.5c0,0.1-0.1,0.4,0.1,0c-0.1,0.2-0.3,0.5-0.5,0.8c0.1,0,0,0.1,0.2-0.3
					c0.2-0.4,0.1-0.2,0.3-0.4c-0.2,0.3-0.2,0.5-0.1,0.4c0,0,0.4-0.5,0.5-0.9l0.1,0c-0.1,0.2-0.1,0.4-0.1,0.5c0,0,0.1-0.2,0.1-0.4
					c0,0.1,0.1,0.2,0.2,0.1c0,0,0.1-0.1,0.1-0.1c0,0,0-0.1,0.1-0.2c0.2-0.2,0.4-0.3,0.5-0.4c0.3-0.2,0.3,0,0.6-0.1
					c0.3-0.1,0.3-0.1,0.3-0.2c0.2,0,0.1,0.2,0.5,0.1C7.2,36.1,6.7,36.1,7,36c0.4-0.1,0.4,0,0.7-0.1c0.6-0.1,0.8-0.1,0.8-0.5l0.6,0
					c0,0.1,0.3,0.4,0.5,0.4c0.4,0-0.1-0.1,0.3-0.1c0.4,0-0.1,0.1,0.3,0.1c0.4,0,0.5-0.1,0.8-0.2c0.2,0,0.4,0,0.8,0.1
					c0.2,0,0.6,0.2,1,0.3c0.4,0.2,0.8,0.3,1,0.4c1.1,0.4,0.9,0,1.4,0.2c0.5,0.2,0.1,0.3,1.2,0.8c0.3,0.2,0.7,0.3,1.1,0.5
					c0.1,0.1,0.4,0.3,0.5,0.4c0.1,0.2,0.3,0.3,0.4,0.5c0.1,0.1,0.2,0,0.3-0.1l0.3,0.2c0.3,0.2,0.2,0.2,0.3,0.4c0,0.1,0,0.2,0,0.3
					l0.3,0.2c0.3,0.1,0.2,0,0.4,0c0.2,0.1,0.6,0.3,0.8,0.3c0.1,0,0-0.1,0.2,0c0.3,0.1,0.7,0.4,1,0.6c0.1,0,0.2,0,0.3-0.2
					c0.2,0.1,0.4,0.2,0.7,0.3c0.3,0.1,0.6,0,0.9,0c0.1,0,0.2,0.2,0.2,0.3c0,0,0.6,0,0.6,0c0.1-0.1,0.1-0.2,0.1-0.3
					c0,0,0.6-0.1,0.6-0.1c0.3-0.1,0.1,0.1,0.4,0c0.3-0.1,0.3-0.1,0.3-0.2c0.5,0,0.3,0.2,0.7-0.1c0.1,0,0-0.1,0-0.2
					c0-0.1-0.1-0.1-0.1-0.2c0-0.1-0.1-0.1-0.1-0.1c0-0.1-0.1-0.2-0.1-0.2c-0.1-0.3,0.1-0.6,0.1-0.9c-0.1-0.3-0.1,0-0.2-0.3
					c-0.1-0.3,0.1,0,0.1-0.3c-0.1-0.3-0.4-1-0.6-1.4c0-0.1,0,0-0.1-0.3c-0.1-0.3-0.1-0.8,0-1l0-0.2c-0.1,0-0.2,0-0.3,0
					c0.2-0.3,0.3-0.5,0.2-0.8c0.1,0,0.1,0.1,0.3,0c0.4-0.1,0.3-0.6,0.5-0.7c0.2,0,0.1,0,0.2,0c0.1,0.1,0.3,0.6,0.6,0.5
					c0.2,0,0.1-0.2,0.2-0.2c0.1,0.4,0.4,0.4,0.4,0.6c0,0.1,0,0.2,0,0.2c0,0.1,0,0.3,0,0.4c0.1,0.3,0.2,0.4,0.3,0.7
					c0.1,0.3,0,0.1-0.1,0.2c0.1,0.5,0.2,1.3,0.3,1.6c0.1,0.3,0.1,0.6,0.2,0.8c0.1,0.2,0.3,0.3,0.4,0.8c0.1,0.6,0,0.2,0,0.4
					c0,0.2,0.1,0.5,0.1,0.8c0,0.2,0,0.3,0.1,0.5c0,0.1,0,0.2,0,0.2l-0.2,0.1c-0.2,0.2-0.6,0.4-1,0.7c-0.2,0.1-0.4,0.3-0.7,0.4
					c-0.2,0.1-0.3,0.2-0.5,0.3c-0.1-0.1,0.1-0.2,0.2-0.3c0,0-0.3,0-0.5-0.1c-0.1,0-0.1,0.2-0.5,0.3c-0.4,0.1-0.3,0-0.4,0
					c-0.3,0.1-0.5,0.1-0.5,0.3c0,0.2,0.3,0.1,0.3,0.2c0,0-0.2,0-0.5,0.1c-0.2,0-0.4,0-0.4,0C24.3,43.1,24,43,23.7,43
					c-0.4,0,0.1,0.1-0.3,0.1c-0.4,0,0.1-0.1-0.3-0.2c-0.4-0.1-0.2,0.1-0.6,0c-0.4-0.1-0.3-0.2-0.7-0.3c-0.4-0.1-0.9-0.2-1.3-0.3
					c-0.3,0-0.4,0-0.7,0c0-0.1,0.3,0,0.4-0.1c-0.6-0.2-1.4-0.8-1.7-1c-0.3-0.2-0.6-0.4-0.8-0.4l0,0c-0.3-0.2-0.1-0.2-0.2-0.3
					c-0.1-0.1-0.2,0-0.3,0.1c-0.2-0.1,0-0.1-0.3-0.3c-0.3-0.2-0.1-0.1-0.2,0c-0.2-0.1-0.1-0.3,0-0.3c-0.2-0.1-0.5-0.3-0.8-0.5
					l-0.4-0.3c-0.1-0.1-0.3-0.1-0.4-0.2c0-0.1,0.2,0-0.1-0.2c-0.1-0.1-0.4-0.1-0.7-0.2c-0.3,0-0.6-0.1-0.7-0.1
					c-0.3-0.1-0.3-0.4-0.6-0.5c-0.3-0.1,0,0.1-0.3,0.1c-0.3-0.1-0.5-0.3-0.6-0.4c-0.1,0-0.2,0.1-0.2,0.2l-0.4-0.1
					c0-0.1-0.2-0.2-0.3-0.3c-0.1,0-0.3,0.1-0.4,0.4l-0.4,0c0-0.1,0.2-0.1,0.2-0.2c-0.1-0.1,0.1,0-0.2-0.1c-0.3,0-0.5,0.3-0.8,0.3
					c-0.3,0-0.2-0.1-0.5-0.1c-0.3,0-0.1,0.2-0.4,0.2C8.1,38.1,8.3,38,8,38c-0.3,0.1-0.2,0.1-0.2,0.2c-0.2,0-0.4-0.1-0.6-0.1
					c-0.2,0-0.5,0.2-0.8,0.3c-0.3,0.2-0.5,0.2-0.9,0.5c-0.2,0.2-0.3,0.3-0.6,0.6c0,0,0.2-0.1-0.3,0.3c-0.6,0.5-0.7,0.5-1,0.6
					c-0.1,0-0.3,0.4-0.9,1c-0.5,0.5-0.9,1-1.2,1.4c-0.3,0.4-0.5,0.7-0.7,0.9c-0.2,0.3-0.4,0.5-0.5,0.7c-0.1,0.2-0.5,0.7-0.4,0.3
					c0-0.3,0.2-0.8,0.3-1.1c0.1-0.3,0.3-0.7,0.4-0.9l0.1-0.5c-0.1,0,0.1-0.2-0.2,0.2c-0.2,0.4-0.3,0.8-0.4,1l0.3-1.6
					c0.1-0.6,0.3-0.8,0.4-1.3C1,39.9,1,39.8,1,39.5c0.1-0.2,0.1,0.2,0.2,0.1c0.1-0.2,0,0,0.1-0.5c0.1-0.5-0.1-0.2,0-0.7
					c0.1-0.5,0.2-0.4,0.3-0.9c0.1-0.5,0.1-0.9,0.2-1.5c0.1-0.3,0.1-0.4,0.2-0.5c0.1-0.1,0.1-0.2,0.2-0.4c0.1-0.3-0.1,0-0.1-0.3
					c0.1-0.3,0.1,0,0.2-0.3c0.1-0.3-0.1-0.1,0-0.4c0.1-0.3,0.3-0.6,0.5-0.6c0-0.2,0.1-0.4-0.1-0.5c-0.2,0-0.2,0.2-0.3,0.2
					c0.1-0.4,0.2-0.4,0.3-0.7c0.1-0.3,0-0.3,0-0.3c0.2-0.3,0.4-0.5,0.5-0.8c0.1-0.3,0-0.5,0.1-0.7c0-0.1,0.2-0.1,0.4-0.4l-0.4-0.1
					l0.3-1c0.1,0,0.2-0.2,0.4-0.3c0-0.4,0.1-1.1,0.2-1.4c0.1-0.3,0.4-0.6,0.5-0.6c0-0.1,0-0.2-0.2-0.3c0.3-0.5,0.8-1.4,0.9-1.8
					c0.1-0.4,0.1-0.4-0.1-0.5l0.2-0.7c0.1-0.3,0.5-0.7,0.6-1c0.1-0.3-0.1-0.2,0.1-0.5c0.1-0.3,0.3-0.5,0.4-0.8
					c0.1-0.3,0-0.5,0.1-0.8C7,20.3,7,20.7,7.1,20.4c0.1-0.3-0.1-0.2,0.1-0.5c0.1-0.3,0.3-0.4,0.4-0.7c0.1-0.3-0.1-0.2,0.1-0.5
					c0.1-0.3,0.1,0.1,0.2-0.2c0.1-0.3-0.1-0.2,0.1-0.5c0.1-0.3,0.4-0.6,0.5-0.6c0-0.1,0-0.2-0.2-0.3c0.1-0.2,0.1,0,0.2-0.3
					s-0.1,0,0-0.3s0.1,0.1,0.2-0.2c0.1-0.3,0-0.1,0-0.2c0.1-0.2,0.5-0.9,0.3-1.2c0.1-0.2,0.2-0.2,0.3-0.2c0.1-0.2,0.3-0.3,0.4-0.6
					c0.1-0.2,0-0.5-0.2-0.7l0.3-0.7c0.2-0.1,0.3-0.1,0.4-0.4c0.1-0.3-0.1-0.1,0-0.4c0.1-0.3,0.3-0.4,0.4-0.7
					c0.1-0.3,0.2-0.4,0.2-0.5c0-0.1-0.1-0.2-0.1-0.2c0-0.1,0.1-0.4,0.2-0.9C11,9.3,11,9.5,11,9.6c0.1,0,0.2-0.2,0.3-0.3
					c0-0.2,0.1-0.5,0.2-0.8c0.1-0.3,0.3-0.4,0.4-0.7s-0.1,0,0-0.3C12,7.3,12,7.5,12.1,7.4c0.1-0.2,0.1-0.3,0.3-0.6
					c0.1-0.2,0.3-0.8,0.4-1.2l0,0c0.2-0.6,0.2-0.1,0.4-0.6c0.2-0.5,0-0.4,0.3-1c0.2-0.5,0.2-0.1,0.4-0.6c0.2-0.5,0-0.3,0.2-0.8
					c0.2-0.5,0.2-0.1,0.4-0.6c0.2-0.5,0.3-1.1,0.4-1.8l0.1-0.1l0,0c0,0,0,0,0,0l0,0.1C15,0.3,15,0.6,15.1,0.8
					c0.1,0.4,0.2,0.8,0.3,1.1c0.2,0.5,0.2,0,0.4,0.6c0.2,0.5,0,0.3,0.2,0.8c0.2,0.5,0.2,0.4,0.2,0.3c0.1,0.3,0.1,0.6,0,0.7l1.2,2.9
					c0.1,0.3,0.1-0.1,0.2,0.2c0.1,0.3-0.1,0.1,0,0.4c0.1,0.3,0.2,0.1,0.3,0.4c0.1,0.3,0,0.2,0.1,0.5c0.1,0.2,0.1,0.1,0.2,0.1
					c0,0.1-0.1,0.3-0.2,0.4c0,0.2,0,0.5-0.1,0.6c0,0,0.1,0,0.3,0l0.1,0.2c0.1,0.2-0.1,0.2-0.1,0.3c-0.1,0.1-0.1,0.2-0.2,0.3
					c-0.2,0.1-0.1-0.1-0.3,0s-0.2,0.2-0.2,0.4c-0.3,0-0.5-0.1-0.7-0.2c0-0.1,0.1-0.2,0-0.3l-0.4,0.1l-0.1-0.2
					c-0.1-0.1,0-0.1,0.1-0.1c0,0-0.1,0-0.3,0c0-0.1,0-0.1,0-0.2c0-0.1-0.1-0.2-0.1-0.4L16,9.6c0-0.1-0.1-0.2-0.1-0.4
					c-0.2-0.5-0.3-0.9-0.3-1.1c-0.1-0.3-0.3-0.6-0.4-0.8C15.1,7.5,15.1,7.7,15.1,7.9z"/>
			</g>
		</g>
	</g>
</g>
<g>
</g>
<g>
</g>
<g>
</g>
<g>
</g>
<g>
</g>
<g>
</g>
<g>
</g>
<g>
</g>
<g>
</g>
<g>
</g>
<g>
</g>
<g>
</g>
<g>
</g>
<g>
</g>
<g>
</g>
</svg>
