<?xml version="1.0" encoding="utf-8"?>
<!-- Generator: Adobe Illustrator 18.0.0, SVG Export Plug-In . SVG Version: 6.00 Build 0)  -->
<!DOCTYPE svg PUBLIC "-//W3C//DTD SVG 1.1//EN" "http://www.w3.org/Graphics/SVG/1.1/DTD/svg11.dtd">
<svg version="1.1" id="Layer_1" xmlns="http://www.w3.org/2000/svg" xmlns:xlink="http://www.w3.org/1999/xlink" x="0px" y="0px"
	 viewBox="0 0 76.7 12.7" enable-background="new 0 0 76.7 12.7" xml:space="preserve">
<g>
	<g>
		<line fill="#FFFFFF" x1="0" y1="11.7" x2="76.7" y2="11.7"/>
		<g>
			<g>
				<path fill-rule="evenodd" clip-rule="evenodd" fill="#3A494F" d="M2.9,10.8c0.2,0,0.4,0.1,0.6,0.1c0.1,0,0,0.1,0.2,0.1
					c0.4,0,0.6,0.1,0.9,0.1c0.3,0,0.1-0.1,0.4-0.1s0.2,0.1,0.5,0.1c0.3,0,0.7-0.2,1-0.2C6.7,11,6.4,11,6.7,11S6.9,11,7.2,11
					c0.3,0,0.6,0.2,0.8,0.2C8.5,11.1,9.5,11,9.8,11c0.6,0,0.4,0.1,0.9,0.1c0,0-0.1,0,0.2,0c0.3,0,0.2-0.1,0.5-0.1
					c0.3,0,0.2,0.1,0.5,0.1c0.1,0,0.4-0.1,0.5-0.2c0.4,0.1,0.9,0.2,1.2,0.2c0.3,0,1-0.2,1.4-0.2c0.3,0,0.1,0.1,0.4,0.1
					c0.3,0,0.3-0.1,0.6-0.1c0.6,0,0.1,0.2,0.5,0.2c0.3,0,0.1-0.1,0.4-0.1c0.3,0,0.4,0.1,0.7,0.1c0.3,0,1.5-0.2,1.8-0.2
					c0.3,0,0.8,0.1,1.1,0.1c0.3,0,0.8,0,1-0.1c0.1,0,0.2,0.1,0.2,0.2h2c-0.1-0.1-0.3-0.1-0.2-0.2c0.2,0,0.2,0.1,0.5,0.1
					c0.3,0,0.3-0.1,0.6-0.1c0.3,0,0.8,0.2,1.1,0.2s0.3-0.1,0.6-0.1c0.3,0,0.2,0.1,0.5,0.1s0.5-0.1,0.7-0.2c0.2,0,0,0.2,0.3,0.2
					c0.3,0-0.1-0.1,0.2-0.1c0.3,0-0.1,0.1,0.2,0.1c0.3,0-0.1-0.1,0.2-0.1c0.3,0,0.1,0.1,0.4,0.1s0.4-0.1,0.7-0.1
					c0.3,0,0.5,0,0.6,0.1c0.1,0,0.2-0.1,0.2-0.2c0.2,0,0.2,0.1,0.5,0.1c0.3,0,0.3-0.1,0.6-0.1c0.3,0,0.7,0.1,1,0.1
					c0.3,0,0.7-0.1,1-0.1s0.3,0,0.4,0.1c0.6,0,1.2,0,1.8,0c0.1,0-0.1,0.1,0.2,0.1c0.3,0,1.1-0.2,1.6-0.2H38c0,0.1-0.2,0.1-0.5,0.2
					h0.9c0.3,0,0.1-0.1,0.4-0.1c0.3,0,0.4,0.1,0.7,0.1s0.2-0.1,0.5-0.1s0.1,0.1,0.4,0.1c0.3,0,0.4-0.1,0.7-0.1s1,0.1,1.4,0.1
					c0.2,0,0.7,0,0.9-0.1c0.2,0,0.4,0.1,0.5,0.2c0.3,0,0.4,0.1,0.4,0c0-0.1-0.2-0.1-0.2-0.1c0.3,0.1,0.6,0.2,0.9,0.2
					c0.1,0,0.7-0.1,0.8-0.2h0.5c0,0.1,0.3,0.2,0.4,0.2c0.1,0,0.2-0.1,0.2-0.2c0.3,0.1,0.5,0.2,0.8,0.2s0.8-0.2,1.1-0.2
					s0.2,0.1,0.5,0.1c0.3,0,0.2,0,0.3-0.1c0.2,0,0,0.2,0.3,0.2c0.3,0-0.1-0.1,0.2-0.1s0.3,0.1,0.6,0.1c0.5,0,0.7,0,0.8-0.2H52
					c0,0.1,0.2,0.2,0.4,0.2c0.3,0-0.1-0.1,0.2-0.1c0.3,0-0.1,0.1,0.2,0.1s0.5-0.1,0.7-0.1c0.2,0,0.4,0,0.7,0s1.5,0.2,1.8,0.2
					c1.1,0,0.7-0.2,1.2-0.2c0.5,0,0.2,0.2,1.2,0.2c0.3,0,0.7-0.1,1-0.1c0.3,0,0.8,0.1,1.2,0.2c0.1,0,0.2-0.1,0.2-0.2h0.4
					c0.3,0,0.3,0.1,0.5,0.1c0.1,0,0.1,0.1,0.2,0.1h0.3c0.3,0,0.2-0.1,0.4-0.1c0.3,0,0.6,0,0.8,0c0.1,0-0.1-0.1,0.2-0.1
					c0.3,0,0.8,0.1,1.2,0.2c0.1,0,0.2-0.1,0.2-0.2c0.2,0,0.5,0.1,0.8,0.1c0.3,0,0.6,0,0.9-0.1c0.1,0,0.2,0.1,0.2,0.2h0.7
					c0.1,0,0.1-0.1,0.1-0.2h0.6c0.3,0,0.1,0.1,0.4,0.1s0.4,0,0.4-0.1c0.9,0.1,0.3,0.2,1.2,0.2c0.5,0,1.2-0.2,1.4-0.2
					c0.3,0,0.6,0.2,0.9,0.2c0.3,0,0.1-0.1,0.4-0.1s-0.1,0.1,0.2,0.1c0.3,0,1-0.1,1.4-0.1c0.1,0,0,0,0.3,0c0.2,0,0.3,0,0.5,0.1
					c0.2,0,0.4,0.1,0.4,0.1h0.1c0,0,0-0.1,0-0.2c0.1,0.2,0.2,0.2,0.4,0.2c0,0.1-0.1,0.1-0.1,0.1c0,0.2,0.3,0.3,0.3,0.4
					c0,0.1,0,0.1,0,0.1c-0.1,0-0.4,0.1-0.4,0.2c0,0.1,0.1,0.1,0.1,0.1c-0.2,0-0.3,0.2-0.4,0.2c0,0-0.1,0-0.1,0c0,0-0.1,0-0.1,0
					c-0.1,0-0.1,0-0.2,0c-0.3,0-0.4,0.1-0.7,0.1s-0.1,0-0.2-0.1c-0.4,0-1.3-0.1-1.5-0.1c-0.3,0-0.6,0-0.8,0c-0.2,0-0.4,0.1-0.7,0.1
					s-0.1,0-0.2-0.1c-0.3,0-0.6,0-0.9,0c-0.3,0-0.9,0-1.4,0.1c0-0.1,0.1-0.1,0.2-0.1c0,0-0.2-0.1-0.3-0.1c-0.1,0-0.1,0.1-0.4,0.1
					c-0.3,0-0.2,0-0.3-0.1c-0.2,0-0.4,0-0.4,0.1c0,0.1,0.2,0.1,0.2,0.1h-0.7c-0.1-0.1-0.3-0.1-0.6-0.1c-0.3,0,0.1,0.1-0.2,0.1
					c-0.3,0,0.1-0.1-0.2-0.1s-0.2,0.1-0.5,0.1s-0.3-0.1-0.6-0.1c-0.3,0-0.8,0-1.1,0.1c-0.2,0-0.4,0.1-0.5,0.1c0-0.1,0.2-0.1,0.2-0.2
					c-0.6,0-1.4-0.1-1.7-0.1c-0.3,0-0.6,0-0.8,0.1v0c-0.3,0-0.1,0-0.2-0.1c-0.1,0-0.2,0.1-0.2,0.2c-0.2,0,0-0.1-0.4-0.1
					c-0.3,0-0.1,0-0.1,0.1c-0.2,0-0.2-0.1-0.2-0.2c-0.6,0-1.3,0-1.9,0c-0.1,0,0.1-0.1-0.2-0.1c-0.3,0-1.2,0.2-1.5,0.2
					c-0.3,0-0.4-0.2-0.7-0.2s0.1,0.1-0.2,0.1c-0.3,0-0.6-0.1-0.7-0.2c-0.1,0-0.2,0.1-0.2,0.2H54c0-0.1-0.3-0.1-0.3-0.1
					c-0.1,0-0.3,0.1-0.4,0.2h-0.5c0-0.1,0.2-0.1,0.2-0.1c-0.1,0,0.1,0-0.3,0c-0.3,0-0.6,0.2-0.9,0.2s-0.2-0.1-0.5-0.1
					c-0.3,0-0.2,0.1-0.5,0.1c-0.3,0-0.1-0.1-0.4-0.1s-0.2,0-0.3,0.1c-0.2,0-0.4-0.1-0.6-0.1c-0.2,0-0.6,0-0.9,0s-0.7,0-0.9,0
					c-0.1,0-0.2,0.1-0.4,0.1c0,0,0.1,0-0.2,0c-0.3,0-0.4-0.1-0.6-0.2c-0.1,0-0.2,0-0.5,0c-1,0-0.7,0.2-1.2,0.2
					c-0.4,0-0.5-0.1-0.9-0.2h-0.3c-0.1,0-0.1,0-0.1,0.1c0,0.1,0.2,0.1,0.2,0.2H43c-0.3,0-0.3-0.1-0.6-0.1s-0.4,0-0.6,0.1
					c0-0.1,0.2-0.1,0.2-0.1c-0.1,0,0.1,0-0.3,0s-0.2,0.1-0.5,0.1s-0.2-0.1-0.5-0.1c-0.3,0-0.6,0.1-0.9,0.1s-0.4-0.1-0.7-0.1
					c-0.3,0,0.1,0.1-0.2,0.1c-0.3,0-0.1-0.1-0.4-0.1s-0.1,0.1-0.4,0.1c-0.3,0-0.6-0.1-0.7-0.2c-0.2,0-0.4,0-0.4,0.1
					c0,0.1,0.2,0.1,0.2,0.1c-0.4,0-0.4-0.1-0.7-0.1c-0.3,0-0.2,0-0.3,0.1c-0.3-0.1-0.5-0.2-0.8-0.2c-0.3,0-0.4,0.1-0.7,0.1
					c-0.1,0-0.2-0.1-0.5-0.2v0.2h-0.9c0-0.1-0.3-0.1-0.3-0.1c-0.3,0.1-1,0.2-1.3,0.2c-0.3,0-0.6-0.1-0.7-0.2c-0.1,0-0.2,0.1-0.2,0.2
					c-0.6-0.1-1.5-0.2-1.8-0.2c-0.4,0-0.4,0-0.4,0.2H28c-0.3,0-0.8-0.2-1.1-0.2c-0.3,0-0.2,0.1-0.5,0.1c-0.3,0-0.6-0.1-0.9-0.1
					c-0.3,0-0.4,0.1-0.7,0.1c-0.3,0,0.1-0.1-0.2-0.1c-0.3,0-0.2,0.1-0.5,0.1s-0.4-0.1-0.7-0.1c-0.3,0-0.2,0.1-0.5,0.1
					c-0.3,0,0.1-0.1-0.2-0.1c-0.3,0-0.2,0.1-0.5,0.1c-0.3,0-0.6-0.1-0.7-0.2c-0.1,0-0.2,0.1-0.2,0.2c-0.2,0,0-0.1-0.4-0.1
					s0.1,0.1-0.2,0.1s0.1-0.1-0.2-0.1s-0.1,0-0.2,0.1c-0.2,0-1-0.1-1.2,0.1c-0.2,0-0.2-0.1-0.3-0.1c-0.2,0-0.4-0.1-0.7-0.1
					c-0.2,0-0.4,0.1-0.5,0.2h-0.7c-0.1-0.1-0.2-0.2-0.5-0.2s-0.1,0.1-0.4,0.1c-0.3,0-0.4-0.1-0.7-0.1c-0.3,0-0.4,0-0.5,0
					c-0.1,0-0.1,0.1-0.2,0.1c-0.1,0-0.4,0-0.9,0.1c0-0.1,0.1-0.1,0.2-0.1c0,0-0.2-0.1-0.3-0.1c-0.2,0-0.5,0.1-0.8,0.1
					c-0.3,0-0.4-0.1-0.7-0.1c-0.3,0,0.1,0.1-0.2,0.1c-0.3,0-0.1,0-0.2-0.1c-0.3,0-0.4,0-0.7,0c-0.3,0-0.6,0-0.8,0.1v0
					c-0.3,0-0.1-0.1-0.4-0.1s-0.2,0.1-0.5,0.1S9,12.4,8.7,12.4c-0.3,0-0.1,0.1-0.4,0.1s-0.2-0.1-0.5-0.1c-0.3,0-0.5,0.1-0.7,0.2
					c-0.3-0.1-0.7-0.2-1.1-0.2c-0.3,0-0.2,0.1-0.5,0.1c-0.3,0-0.1-0.1-0.4-0.1c-0.3,0-0.2,0-0.3,0.1c-0.2,0-0.2-0.1-0.2-0.2H2.7
					c-0.3,0,0.1,0.1-0.2,0.1c-0.3,0-0.1-0.1-0.4-0.1c-0.3,0-0.2,0.1-0.5,0.1c-0.3,0-0.2-0.1-0.5-0.1c-0.1,0-0.1,0-0.1,0.1
					c-0.1,0-0.1-0.1-0.2-0.2c-0.1,0-0.3-0.1-0.3-0.2c0,0,0,0.1-0.1,0.2H0.3c-0.1,0-0.1-0.1-0.2-0.1c0-0.1-0.1-0.1-0.1-0.2
					c0-0.1,0.1-0.1,0.1-0.2c0-0.1-0.1-0.2-0.2-0.2c0.1-0.1,0.2-0.2,0.2-0.4c0,0,0.1,0.1,0.1,0.1V11h0.1c0.1,0,0,0,0.1,0.1
					c0,0,0.1-0.1,0.1-0.2c0.1,0,0.1,0,0.1,0.1c0.1,0,0.1,0,0.2,0l0.1,0c0.1,0,0.2,0,0.3,0c0.5,0,0.9,0,1,0c0.3,0,0.6,0,0.9,0
					C3.2,11,3,10.9,2.9,10.8z"/>
			</g>
		</g>
	</g>
	<g>
		<g>
			<circle fill="#3A494F" cx="72.1" cy="4.5" r="4.1"/>
			<g>
				<g>
					<path fill-rule="evenodd" clip-rule="evenodd" fill="#3A494F" d="M76.5,5.9c0,0.1-0.1,0.1-0.1,0.2c0,0-0.1,0-0.1,0
						c0,0.1-0.1,0.2-0.2,0.3c0,0.1,0,0,0,0.1c-0.1,0.1-0.1,0-0.1,0.1c-0.1,0.1,0,0.3-0.1,0.4c-0.1,0.1-0.1,0-0.1,0.1
						c-0.1,0.1,0,0.1-0.1,0.2c-0.1,0.1-0.2,0.1-0.3,0.1C75.3,7.6,75.1,7.9,75,8c-0.2,0.1-0.1,0-0.3,0.1c0,0,0,0-0.1,0
						c-0.1,0.1,0,0.1-0.1,0.1c-0.1,0.1-0.1,0-0.2,0.1c0,0-0.1,0.1-0.1,0.2c-0.2,0-0.4,0-0.5,0.1c-0.1,0-0.3,0.2-0.4,0.3
						c-0.1,0,0,0-0.1,0c-0.1,0-0.1,0.1-0.2,0.1c-0.2,0,0-0.1-0.2-0.1c-0.1,0,0,0.1-0.1,0.1c-0.1,0-0.2,0-0.3,0
						c-0.1,0-0.5,0.1-0.7,0.1c-0.1,0-0.3-0.1-0.4-0.1c-0.1,0-0.3,0-0.4,0c0,0-0.1-0.1,0-0.1c0,0-0.2,0-0.3-0.1
						c-0.2-0.1-0.3-0.1-0.3-0.1c0,0.1,0.1,0.1,0,0.1c-0.1,0,0-0.1-0.1-0.1c-0.1,0-0.1,0-0.2-0.1c-0.1,0-0.2-0.2-0.3-0.3
						c-0.1-0.1-0.1,0-0.2-0.1c-0.1-0.1,0-0.1-0.1-0.1C69.3,8,69.2,8,69.1,8c0-0.1,0.1-0.1,0-0.1c-0.1-0.1,0,0.1-0.1,0
						c-0.1-0.1,0,0,0-0.1c-0.1-0.1,0,0.1-0.1,0c-0.1-0.1,0,0-0.1-0.1c-0.1-0.1-0.1-0.1-0.2-0.2c-0.1-0.1-0.1-0.1-0.1-0.2
						c0,0-0.1,0-0.1,0c0,0,0-0.1-0.1-0.2c-0.1-0.1-0.1-0.1-0.2-0.2c-0.1-0.1-0.1-0.2-0.1-0.3c0-0.1-0.2-0.2-0.2-0.3
						c0-0.1,0-0.1,0-0.2c-0.1-0.2-0.1-0.4-0.2-0.6c0,0,0,0,0-0.1c0-0.1-0.2-0.4-0.2-0.6l0-0.2c0,0,0,0.1,0.1,0.2c0,0,0-0.3,0-0.3
						c0-0.1,0-0.1,0-0.2c0-0.1,0.1-0.2,0.1-0.3c0-0.1,0-0.1,0-0.2c0-0.1,0.1,0,0.1-0.1c0-0.1,0-0.2,0-0.3c0-0.1,0.1-0.4,0.2-0.5
						c0-0.1,0.1-0.2,0.1-0.3c0.1,0,0.1-0.1,0.2-0.1c0.1-0.1,0.1-0.1,0-0.1c-0.1,0-0.1,0.1-0.1,0c0.1-0.1,0.2-0.2,0.3-0.2
						c0,0,0.1-0.2,0-0.3l0.1-0.1c0,0,0.1,0,0.2,0c0,0,0-0.1,0-0.1c0.1-0.1,0.2-0.1,0.3-0.2c0.1-0.1,0.1-0.3,0.2-0.3
						c0.1-0.1,0.1,0,0.2-0.1C69.3,1,69.3,1,69.3,1c0.1,0,0.1,0.1,0.2,0c0.1-0.1,0,0,0-0.1c0.1-0.1,0.1,0,0.2-0.1
						c0.2-0.1,0.2-0.1,0.2-0.3L70,0.4c0,0,0.1,0.1,0.2,0.1c0.1,0,0,0,0.1-0.1c0.1,0,0,0.1,0.1,0c0.1,0,0.1-0.1,0.2-0.2
						c0.1,0,0.1-0.1,0.2-0.1c0.1,0,0.6,0,0.7,0C71.8,0.1,71.7,0,71.9,0c0.2,0,0.1,0.1,0.4,0.1c0.1,0,0.2,0,0.4,0
						c0.1,0,0.3,0.1,0.4,0.2c0,0,0.1,0,0.1-0.1l0.1,0c0.1,0,0.1,0.1,0.1,0.1c0,0,0,0.1,0,0.1l0.1,0c0.1,0,0.1,0,0.2,0
						c0.1,0,0.2,0.1,0.3,0.1c0,0,0-0.1,0.1,0c0.1,0,0.2,0.2,0.3,0.3c0,0,0.1,0,0.1,0c0,0.1,0.1,0.1,0.2,0.2C74.8,1,74.9,1.1,75,1.2
						c0,0,0,0.1,0,0.1l0.2,0.2c0,0,0.1,0,0.1,0l0.2,0.2c0.1,0.1,0,0.1,0.1,0.1c0.1,0.1,0.1,0.1,0.1,0.1c0.1,0.3,0,0.1,0.2,0.4
						c0.1,0.2,0.3,0.3,0.3,0.4c0,0.1,0,0.2,0,0.3c0,0.1,0.1,0,0.1,0.1c0,0.1-0.1,0,0,0.1c0,0.1,0.1,0.3,0.2,0.5c0,0,0,0,0,0.1
						c0,0.1,0,0.3,0,0.3l0,0.1c0,0,0.1,0,0.1,0c-0.1,0.1-0.1,0.2-0.1,0.3c0,0,0,0-0.1,0c-0.1,0-0.1,0.2-0.3,0.2c-0.1,0,0,0-0.1,0
						c0,0-0.1-0.2-0.2-0.2c-0.1,0-0.1,0-0.1,0c0-0.1-0.1-0.1-0.1-0.2c0-0.1,0-0.1,0-0.2c0-0.1-0.1-0.1-0.1-0.2c0-0.1,0,0,0-0.1
						c0-0.1,0-0.4-0.1-0.4c0-0.1,0-0.2-0.1-0.2c-0.1,0-0.1-0.1-0.2-0.1c0-0.1,0,0,0-0.1c0-0.1-0.1-0.1-0.1-0.2
						c0-0.1-0.1-0.2-0.3-0.3c0,0,0.1,0,0.1,0c0,0,0-0.1,0-0.1c0,0-0.1,0-0.1-0.1c-0.1-0.1,0-0.1,0-0.1c-0.1,0-0.1-0.1-0.1,0
						c0,0,0,0.1,0,0.1c0,0-0.1-0.1-0.1-0.1c0-0.1,0-0.1-0.1-0.2c-0.1-0.1,0,0-0.1,0c-0.1-0.1,0,0,0-0.1c-0.1-0.1-0.1,0-0.1,0
						c-0.1-0.1,0-0.1-0.1-0.1c-0.1,0-0.2-0.1-0.3-0.1c-0.1,0-0.1,0-0.2,0c0,0,0.1,0,0.1-0.1c-0.1-0.1-0.4-0.2-0.5-0.2
						C73.1,1,73.1,1,73,1l0,0c-0.1,0,0,0-0.1-0.1c0,0-0.1,0-0.1,0.1c0,0,0-0.1-0.1-0.1c-0.1,0,0,0,0,0c0,0-0.1-0.1,0-0.1
						c-0.2,0-0.4,0-0.6-0.1c0,0,0,0-0.1,0c-0.1,0-0.3,0.1-0.4,0.1c-0.1,0-0.1-0.1-0.2-0.1c-0.1,0,0,0-0.1,0.1c-0.1,0-0.2,0-0.2,0
						c0,0,0,0,0,0.1L71,1c0,0-0.1,0-0.1-0.1c0,0-0.1,0.1-0.1,0.2l-0.1,0c0,0,0-0.1,0-0.1c0,0,0,0-0.1,0c-0.1,0-0.1,0.2-0.2,0.2
						c-0.1,0-0.1,0-0.1,0c-0.1,0,0,0.1-0.1,0.1c-0.1,0,0,0-0.1,0C70,1.5,70,1.5,70,1.6c-0.1,0-0.1,0-0.2,0c-0.1,0-0.1,0.1-0.2,0.2
						c-0.1,0.1-0.2,0.1-0.2,0.2c0,0,0,0.1,0,0.1c0,0,0,0,0,0c-0.1,0.1-0.1,0.1-0.2,0.1c0,0,0,0-0.1,0.1c-0.2,0.2,0,0.2-0.1,0.4
						c-0.1,0.1-0.1,0.1-0.3,0.2l0,0.1c0,0,0,0,0,0c0.1,0,0.1,0,0.1,0c0,0-0.1,0.2-0.1,0.2c0,0.1-0.1,0.1-0.1,0.2c0,0.1,0,0.1,0,0.2
						c0,0,0-0.1-0.1-0.1c0,0,0,0,0,0.1c0,0.1,0,0.1,0,0.2c0,0.1-0.1,0-0.1,0.1c0,0.1,0,0.2,0,0.3c0,0.1-0.1,0.1-0.1,0.2
						c0,0.1,0,0,0,0.1c0,0.1,0,0-0.1,0.1c0,0.1,0,0,0,0.1c0,0.1,0,0.2-0.1,0.2c0,0.1,0,0.1,0.1,0.1c0.1,0,0-0.1,0.1-0.1
						c0,0.1,0,0.1,0,0.2c0,0.1,0,0.1,0.1,0.1c0,0.1-0.1,0.2,0,0.3c0,0.1,0.1,0.1,0.1,0.2c0,0,0,0.1-0.1,0.2l0.1,0l0.1,0.3
						c0,0,0,0.1,0,0.1c0.1,0.1,0.2,0.2,0.3,0.3c0,0.1,0,0.2,0,0.2c0,0,0.1,0,0.1,0C69.1,6.7,69.3,7,69.3,7c0.1,0.1,0.1,0.1,0.1,0
						c0,0,0.1,0.1,0.1,0.1c0.1,0.1,0.1,0.2,0.2,0.3c0.1,0.1,0.1,0,0.1,0C70,7.6,70,7.6,70.1,7.7c0.1,0,0.1,0,0.2,0.1
						c0.1,0,0,0,0,0.1c0.1,0,0.1,0,0.2,0c0.1,0,0.1,0.1,0.2,0.1c0.1,0,0.1,0,0.2,0c0.1,0,0,0,0.1,0.1c0.1,0,0.1,0,0.2,0
						c0.1,0,0.2,0.1,0.2,0.1c0,0,0.1,0,0.1-0.1c0,0,0,0,0.1,0.1c0.1,0,0,0,0.1,0c0.1,0,0,0,0.1,0.1c0.1,0,0,0,0.1,0
						c0.1,0,0.3,0.1,0.4,0c0,0,0.1,0.1,0.1,0.1c0.1,0,0.1,0.1,0.2,0.1c0.1,0,0.1-0.1,0.1-0.1c0,0,0.2,0,0.2,0c0,0,0.1,0.1,0.2,0.1
						c0.1,0,0,0,0.1-0.1c0.1,0,0.1,0,0.2,0c0.1,0,0.1,0,0.1,0c0,0,0-0.1,0-0.1c0,0,0.1-0.1,0.2-0.1c0,0,0,0.1,0,0.1c0,0,0.1,0,0.1,0
						c0,0,0.1-0.1,0.2-0.1c0.1,0,0.1,0,0.2-0.1c0.1,0,0,0,0-0.1c0.1,0,0,0,0.1,0c0.1,0,0.1,0,0.2-0.1c0.1-0.1,0.2-0.1,0.2-0.2l0,0
						c0.1-0.1,0.1,0,0.1,0c0.1-0.1,0-0.1,0.1-0.1c0.1-0.1,0.1,0,0.1-0.1c0.1-0.1,0,0,0-0.1c0.1-0.1,0.1,0,0.1-0.1
						C75,6.9,75,6.8,75,6.7c0.1,0,0.2-0.1,0.3-0.2c0-0.1,0-0.1,0-0.1c0-0.1,0.1,0,0.1-0.1c0-0.1,0-0.1,0-0.1c0,0,0.1,0,0.1,0
						c0,0,0.3-0.6,0.2-0.6c0-0.1-0.1,0,0-0.1c0-0.1,0.1,0,0.1-0.1c0-0.1,0-0.1,0-0.2c0-0.1,0.1,0,0.1-0.1c0-0.1,0,0,0-0.1
						c0,0,0.1-0.1,0.2-0.1C75.9,5,76,4.9,76,4.8c0,0,0,0-0.1,0l0-0.1c0-0.1,0,0,0.1-0.1c0,0,0-0.1,0.1-0.1c0.1,0,0,0,0.1,0
						c0.1,0,0.1,0,0.1-0.1c0.1,0.1,0.1,0.1,0.2,0.2c0,0,0,0.1-0.1,0.1l0.1,0l0,0.1c0,0.1,0,0,0,0c0,0,0,0,0.1,0c0,0,0,0,0,0.1
						c0,0.1-0.1,0.2-0.1,0.4c0,0.2-0.1,0.3-0.1,0.4c0,0.1-0.1,0.2-0.1,0.3C76.4,6,76.5,6,76.5,5.9z"/>
				</g>
			</g>
		</g>
		<g>
			<path fill="#FFFFFF" d="M72.1,7.1c-0.2,0-0.3-0.1-0.4-0.2c-0.1-0.1-0.2-0.2-0.2-0.4V4.4c0,0,0-0.1-0.1-0.1H71
				c-0.1,0-0.2,0-0.3-0.1S70.6,4,70.6,3.9c0-0.1,0-0.2,0.1-0.3s0.2-0.1,0.3-0.1h1.1c0.2,0,0.3,0.1,0.4,0.2c0.1,0.1,0.2,0.2,0.2,0.4
				v2.6c0,0.2-0.1,0.3-0.2,0.4C72.4,7.1,72.3,7.1,72.1,7.1L72.1,7.1z M72.6,2.8c-0.1,0.1-0.3,0.2-0.5,0.2s-0.4-0.1-0.5-0.2
				s-0.2-0.3-0.2-0.4s0.1-0.3,0.2-0.4s0.3-0.2,0.5-0.2s0.3,0.1,0.5,0.2c0.1,0.1,0.2,0.3,0.2,0.4S72.7,2.7,72.6,2.8z"/>
		</g>
	</g>
</g>
<g>
</g>
<g>
</g>
<g>
</g>
<g>
</g>
<g>
</g>
<g>
</g>
<g>
</g>
<g>
</g>
<g>
</g>
<g>
</g>
<g>
</g>
<g>
</g>
<g>
</g>
<g>
</g>
<g>
</g>
</svg>
