<?xml version="1.0" encoding="utf-8"?>
<!-- Generator: Adobe Illustrator 18.0.0, SVG Export Plug-In . SVG Version: 6.00 Build 0)  -->
<!DOCTYPE svg PUBLIC "-//W3C//DTD SVG 1.1//EN" "http://www.w3.org/Graphics/SVG/1.1/DTD/svg11.dtd">
<svg version="1.1" id="Layer_1" xmlns="http://www.w3.org/2000/svg" xmlns:xlink="http://www.w3.org/1999/xlink" x="0px" y="0px"
	 viewBox="0 0 51.4 8.5" enable-background="new 0 0 51.4 8.5" xml:space="preserve">
<g id="群組">
	<g>
		<line fill="#FFFFFF" x1="0" y1="7.9" x2="51.4" y2="7.9"/>
		<g>
			<g>
				<path fill-rule="evenodd" clip-rule="evenodd" fill="#3A494F" d="M1.9,7.3c0.1,0,0.3,0,0.4,0c0,0,0,0.1,0.1,0.1
					c0.2,0,0.4,0.1,0.6,0.1s0-0.1,0.2-0.1s0.1,0.1,0.3,0.1c0.2,0,0.5-0.1,0.7-0.1s0,0.1,0.2,0.1s0.1-0.1,0.3-0.1s0.4,0.1,0.5,0.2
					c0.3-0.1,1-0.1,1.2-0.1c0.4,0,0.3,0.1,0.6,0.1c0,0-0.1,0,0.1,0c0.2,0,0.1-0.1,0.3-0.1S7.8,7.5,8,7.5c0.1,0,0.3-0.1,0.4-0.2
					c0.3,0.1,0.6,0.2,0.8,0.2c0.2,0,0.7-0.1,0.9-0.1s0,0.1,0.2,0.1s0.2-0.1,0.4-0.1c0.4,0,0,0.1,0.3,0.1c0.2,0,0-0.1,0.2-0.1
					s0.3,0.1,0.5,0.1s1-0.1,1.2-0.1c0.2,0,0.5,0.1,0.7,0.1c0.2,0,0.5,0,0.7-0.1c0.1,0,0.1,0.1,0.1,0.1h1.3c-0.1-0.1-0.2-0.1-0.2-0.1
					c0.1,0,0.1,0,0.3,0c0.2,0,0.2-0.1,0.4-0.1s0.5,0.1,0.7,0.1s0.2-0.1,0.4-0.1c0.2,0,0.1,0.1,0.3,0.1c0.2,0,0.3,0,0.4-0.1
					c0.1,0,0,0.1,0.2,0.1s0-0.1,0.2-0.1s0,0.1,0.2,0.1c0.2,0,0-0.1,0.2-0.1s0,0.1,0.2,0.1s0.3-0.1,0.5-0.1s0.3,0,0.4,0.1
					c0.1,0,0.1,0,0.1-0.1c0.1,0,0.1,0,0.3,0s0.2-0.1,0.4-0.1s0.5,0.1,0.7,0.1s0.5-0.1,0.7-0.1s0.2,0,0.3,0c0.4,0,0.8,0,1.2,0
					c0,0-0.1,0,0.1,0s0.8-0.1,1.1-0.2h0.3c0,0-0.2,0-0.3,0.1h0.6c0.2,0,0.1-0.1,0.3-0.1s0.3,0.1,0.5,0.1c0.2,0,0.1-0.1,0.3-0.1
					s0,0.1,0.2,0.1s0.3-0.1,0.5-0.1c0.1,0,0.8,0,0.9,0.1c0.2,0,0.5,0,0.6-0.1c0.1,0,0.3,0.1,0.4,0.1c0.2,0,0.3,0,0.3,0
					c0-0.1-0.2,0-0.1-0.1c0.2,0.1,0.4,0.1,0.6,0.1c0.1,0,0.4-0.1,0.5-0.2h0.3c0,0.1,0.2,0.1,0.2,0.2c0.1,0,0.1,0,0.1-0.1
					c0.2,0.1,0.3,0.1,0.6,0.1c0.2,0,0.5-0.1,0.7-0.1c0.2,0,0.1,0.1,0.3,0.1s0.2,0,0.2-0.1c0.1,0,0,0.1,0.2,0.1c0.2,0,0-0.1,0.2-0.1
					s0.2,0.1,0.4,0.1c0.4,0,0.4,0,0.5-0.2h0.3c0,0,0.1,0.2,0.3,0.2c0.2,0,0-0.1,0.2-0.1c0.2,0,0,0.1,0.2,0.1s0.3-0.1,0.5-0.1
					c0.1,0,0.2,0,0.5,0c0.2,0,1,0.1,1.2,0.1c0.7,0,0.5-0.1,0.8-0.1c0.4,0,0.1,0.1,0.8,0.1c0.2,0,0.5-0.1,0.7-0.1s0.6,0.1,0.8,0.1
					c0.1,0,0.1,0,0.1-0.1h0.3c0.2,0,0.2,0,0.3,0.1c0,0,0,0.1,0.1,0.1h0.2c0.2,0,0.1,0,0.2-0.1c0.2,0,0.4,0,0.6,0c0.1,0-0.1,0,0.1,0
					s0.6,0.1,0.8,0.1c0.1,0,0.1,0,0.1-0.1c0.1,0,0.3,0.1,0.6,0.1c0.2,0,0.4,0,0.6-0.1c0.1,0,0.1,0.1,0.1,0.1h0.5
					c0.1,0,0.1-0.1,0.1-0.1h0.4c0.2,0,0.1,0,0.3,0c0.2,0,0.2,0,0.3,0c0.6,0.1,0.2,0.1,0.8,0.1c0.4,0,0.8-0.1,0.9-0.1
					c0.2,0,0.4,0.1,0.6,0.1s0-0.1,0.2-0.1s0,0.1,0.2,0.1s0.7-0.1,1-0.1c0.1,0,0,0,0.2,0c0.2,0,0.5,0.1,0.6,0.1h0.1c0,0,0-0.1,0-0.1
					c0.1,0.1,0.2,0.2,0.3,0.2c0,0,0,0,0,0.1c0,0.2,0.2,0.2,0.2,0.3c0,0.1,0,0,0,0.1c0,0-0.2,0.1-0.2,0.2c0,0.1,0.1,0.1,0,0.1
					c-0.2,0-0.2,0.1-0.3,0.1c0,0-0.1,0-0.1,0c0,0-0.2,0-0.2,0c-0.2,0-0.3,0.1-0.5,0.1c-0.2,0-0.1,0-0.1,0c-0.2,0-0.9,0-1-0.1
					c-0.2,0-0.4,0-0.5,0c-0.1,0-0.3,0.1-0.5,0.1c-0.2,0-0.1,0-0.1,0c-0.2,0-0.4,0-0.6,0c-0.2,0-0.6,0-1,0c0,0,0.1,0,0.1-0.1
					c0,0-0.2,0-0.2-0.1c-0.1,0-0.1,0.1-0.3,0.1c-0.2,0-0.2,0-0.2-0.1c-0.1,0-0.3,0-0.3,0.1s0.2,0,0.2,0.1h-0.5
					c-0.1-0.1-0.2-0.1-0.4-0.1c-0.2,0,0,0.1-0.2,0.1s0-0.1-0.2-0.1c-0.2,0-0.1,0.1-0.3,0.1s-0.2-0.1-0.4-0.1c-0.2,0-0.5,0-0.8,0.1
					c-0.1,0-0.2,0.1-0.4,0.1c0,0,0.1-0.1,0.2-0.1c-0.4,0-1,0-1.2,0s-0.4,0-0.5,0v0c-0.2,0-0.1,0-0.2-0.1c-0.1,0-0.1,0-0.1,0.1
					c-0.1,0,0,0-0.2,0s-0.1,0-0.1,0c-0.1,0-0.2-0.1-0.1-0.1c-0.4,0-0.9,0-1.3,0c0,0,0.1,0-0.1,0s-0.8,0.1-1,0.1s-0.3-0.1-0.5-0.1
					s0,0.1-0.2,0.1c-0.2,0-0.4-0.1-0.5-0.1c-0.1,0-0.1,0-0.1,0.1h-0.3c0,0-0.2-0.1-0.2-0.1c-0.1,0-0.2,0-0.3,0.2h-0.3
					c0,0,0.2-0.1,0.2-0.1c-0.1,0,0,0-0.2,0c-0.2,0-0.4,0.1-0.6,0.1c-0.2,0-0.1-0.1-0.3-0.1s-0.1,0.1-0.3,0.1s0-0.1-0.2-0.1
					s-0.2,0-0.2,0.1c-0.1,0-0.3-0.1-0.4-0.1c-0.1,0-0.4,0-0.6,0c-0.2,0-0.5,0-0.6,0c-0.1,0-0.1,0-0.3,0.1c0,0,0.1,0-0.1,0
					s-0.3-0.1-0.4-0.1c-0.1,0-0.1,0-0.3,0c-0.7,0-0.5,0.1-0.8,0.1c-0.3,0-0.3-0.1-0.6-0.2h-0.2c-0.1,0-0.1,0-0.1,0.1
					c0,0.1,0.2,0.1,0.2,0.1h-0.6c-0.2,0-0.2,0-0.4,0s-0.3,0-0.4,0.1c0,0,0.1-0.1,0.1-0.1c-0.1,0,0,0-0.2,0s-0.1,0.1-0.3,0.1
					s-0.1-0.1-0.3-0.1c-0.2,0-0.4,0.1-0.6,0.1c-0.2,0-0.3-0.1-0.5-0.1c-0.2,0,0,0.1-0.2,0.1s0-0.1-0.2-0.1s0,0.1-0.2,0.1
					s-0.4-0.1-0.5-0.1c-0.1,0-0.3,0-0.3,0.1c0,0.1,0.2,0,0.2,0.1c-0.3,0-0.3,0-0.5,0s-0.2,0-0.2,0.1c-0.2-0.1-0.3-0.1-0.6-0.1
					s-0.3,0.1-0.5,0.1c-0.1,0-0.1-0.1-0.3-0.1v0.2h-0.6c0,0-0.2-0.1-0.2-0.1c-0.2,0-0.6,0.1-0.9,0.1c-0.2,0-0.4-0.1-0.5-0.1
					c-0.1,0-0.1,0-0.1,0.1c-0.4-0.1-1-0.1-1.2-0.1c-0.3,0-0.3,0-0.3,0.1h-0.4c-0.2,0-0.5-0.1-0.7-0.1s-0.1,0.1-0.3,0.1
					c-0.2,0-0.4-0.1-0.6-0.1c-0.2,0-0.3,0.1-0.5,0.1c-0.2,0,0-0.1-0.2-0.1s-0.1,0.1-0.3,0.1c-0.2,0-0.3-0.1-0.5-0.1
					s-0.1,0.1-0.3,0.1c-0.2,0,0-0.1-0.2-0.1S15,8.3,14.8,8.3c-0.2,0-0.4-0.1-0.5-0.1c-0.1,0-0.1,0-0.1,0.1c-0.1,0,0,0-0.2,0
					c-0.2,0,0,0.1-0.2,0.1s0-0.1-0.2-0.1s-0.1,0-0.1,0c-0.2,0-0.6,0-0.8,0.1c-0.1,0-0.1-0.1-0.2-0.1c-0.1,0-0.3-0.1-0.5-0.1
					c-0.1,0-0.3,0.1-0.3,0.2h-0.5c-0.1-0.1-0.1-0.1-0.3-0.1c-0.2,0,0,0.1-0.2,0.1c-0.2,0-0.3-0.1-0.5-0.1s-0.3,0-0.4,0
					c-0.1,0-0.1,0.1-0.1,0.1c-0.1,0-0.3,0-0.6,0.1c0,0,0.1,0,0.1-0.1c0,0-0.2,0-0.2-0.1C9,8.3,8.8,8.3,8.6,8.3
					c-0.2,0-0.3-0.1-0.5-0.1c-0.2,0,0,0.1-0.2,0.1s-0.1,0-0.1,0c-0.2,0-0.2,0-0.4,0c-0.2,0-0.4,0-0.5,0v0c-0.2,0-0.1-0.1-0.3-0.1
					c-0.2,0-0.1,0.1-0.3,0.1S6.1,8.3,5.8,8.3s0,0.1-0.2,0.1S5.5,8.3,5.3,8.3c-0.2,0-0.3,0-0.4,0.1C4.6,8.3,4.3,8.3,4.1,8.3
					S4,8.3,3.8,8.3s0-0.1-0.2-0.1s-0.2,0-0.2,0c-0.1,0-0.2-0.1-0.1-0.1H1.8c-0.2,0,0,0.1-0.2,0.1s0-0.1-0.2-0.1S1.3,8.3,1.1,8.3
					c-0.2,0-0.1-0.1-0.3-0.1c-0.1,0-0.1,0-0.1,0.1c0,0-0.1-0.1-0.1-0.2C0.5,8.1,0.4,8.1,0.3,8c0,0,0,0,0,0.1H0.2
					c-0.1,0-0.1-0.1-0.1-0.1c0,0-0.1-0.1-0.1-0.1c0-0.1,0.1,0,0.1-0.1s0-0.1-0.1-0.1c0.1-0.1,0.1-0.2,0.2-0.2c0,0,0.1,0.1,0.1,0.1
					V7.4h0.1c0.1,0,0,0,0,0.1c0,0,0,0,0-0.1c0,0,0,0,0.1,0c0,0,0.1,0,0.1,0l0.1,0l0.2,0c0.3,0,0.6,0,0.7,0c0.2,0,0.4,0,0.6,0
					C2.1,7.3,2,7.3,1.9,7.3z"/>
			</g>
		</g>
	</g>
	<g>
		<g>
			<circle fill="#3A494F" cx="48.3" cy="3" r="2.8"/>
			<g>
				<g>
					<path fill-rule="evenodd" clip-rule="evenodd" fill="#3A494F" d="M51.3,4c0,0-0.1,0.1-0.1,0.1c0,0,0,0-0.1,0
						c0,0.1-0.1,0.1-0.1,0.2c0,0.1,0,0,0,0.1c0,0.1,0,0-0.1,0.1c0,0.1,0,0.2-0.1,0.2c0,0.1,0,0-0.1,0.1c0,0.1,0,0.1,0,0.1
						C50.7,5,50.6,5,50.6,5c0,0.1-0.2,0.3-0.3,0.3c-0.1,0.1-0.1,0-0.2,0.1c0,0,0,0,0,0c-0.1,0,0,0.1-0.1,0.1c-0.1,0-0.1,0-0.1,0
						c0,0-0.1,0.1-0.1,0.1c-0.1,0-0.2,0-0.3,0c-0.1,0-0.2,0.1-0.3,0.2c-0.1,0,0,0-0.1,0C49,6,49,6,49,6c-0.2,0,0-0.1-0.1,0
						c-0.1,0,0,0-0.1,0c-0.1,0-0.1,0-0.2,0c-0.1,0-0.4,0.1-0.4,0.1c-0.1,0-0.2,0-0.3-0.1c-0.1,0-0.2,0-0.3,0c0,0,0-0.1,0-0.1
						c0,0-0.5-0.2-0.5-0.2c0,0.1,0,0.1,0,0.1c0,0,0,0-0.1-0.1c-0.1,0-0.1,0-0.1,0c-0.1,0-0.1-0.2-0.2-0.2c-0.1,0-0.1,0-0.1-0.1
						c-0.1,0,0-0.1-0.1-0.1c-0.1,0-0.1,0-0.2-0.1c0,0,0-0.1,0-0.1c-0.1,0,0,0-0.1,0c-0.1,0,0,0,0-0.1c-0.1-0.1,0,0-0.1,0
						c0-0.1,0,0,0-0.1C46.1,5,46.1,5,46,5c0-0.1-0.1-0.1-0.1-0.1c0,0,0,0-0.1,0c0,0,0,0,0-0.1c0-0.1-0.1,0-0.1-0.1
						c0-0.1-0.1-0.2-0.1-0.2c0-0.1-0.1-0.1-0.1-0.2c0-0.1,0-0.1,0-0.1c-0.1-0.1-0.1-0.3-0.1-0.4c0,0,0,0,0-0.1
						c0-0.1-0.1-0.3-0.1-0.4l0-0.1c0,0,0,0.1,0.1,0.1c0,0,0-0.2,0-0.2c0-0.1,0,0,0-0.1c0-0.1,0-0.1,0-0.2c0-0.1,0,0,0-0.1
						c0-0.1,0,0,0-0.1c0-0.1,0-0.1,0-0.2c0-0.1,0.1-0.2,0.1-0.3c0-0.1,0.1-0.2,0.1-0.2c0,0,0.1-0.1,0.1-0.1c0-0.1,0.1-0.1,0-0.1
						c0,0,0,0-0.1,0c0.1-0.1,0.1-0.1,0.2-0.2c0,0,0.1-0.2,0-0.2l0.1-0.1c0,0,0.1,0,0.1,0c0,0,0,0,0-0.1c0.1,0,0.1-0.1,0.2-0.1
						c0-0.1,0.1-0.2,0.1-0.2c0.1,0,0.1,0,0.1-0.1c0.1,0,0,0,0-0.1c0,0,0,0,0.1,0c0.1,0,0,0,0-0.1c0.1,0,0.1,0,0.1-0.1
						c0.1-0.1,0.1-0.1,0.1-0.2l0.1-0.1c0,0,0.1,0.1,0.1,0c0.1,0,0,0,0-0.1c0.1,0,0,0,0.1,0c0.1,0,0.1-0.1,0.1-0.1c0,0,0.1,0,0.2-0.1
						c0.1,0,0.4,0,0.4,0c0.3,0,0.2-0.1,0.3-0.1c0.1,0,0,0.1,0.3,0.1c0.1,0,0.2,0,0.2,0c0.1,0,0.2,0.1,0.3,0.1c0,0,0,0,0.1-0.1l0.1,0
						c0.1,0,0.1,0,0.1,0.1c0,0,0,0,0,0.1l0.1,0c0.1,0,0.1,0,0.1,0c0.1,0,0.1,0.1,0.2,0.1c0,0,0,0,0.1,0c0.1,0,0.2,0.1,0.2,0.2
						c0,0,0,0,0.1,0c0,0,0.1,0.1,0.1,0.1c0.1,0,0.1,0.1,0.2,0.1c0,0,0,0.1,0,0.1L50.4,1c0,0,0,0,0.1,0L50.6,1c0.1,0.1,0,0,0,0.1
						c0,0.1,0.1,0.1,0.1,0.1c0.1,0.2,0,0.1,0.1,0.3C50.9,1.6,51,1.7,51,1.7c0,0.1,0,0.1,0,0.2c0,0.1,0,0,0.1,0.1c0,0.1,0,0,0,0.1
						c0,0.1,0.1,0.2,0.2,0.3c0,0,0,0,0,0.1c0,0.1,0,0.2,0,0.2l0,0c0,0,0,0,0.1,0c-0.1,0.1-0.1,0.1-0.1,0.2c0,0,0,0-0.1,0
						C51.1,2.9,51.1,3,51,3c0,0,0,0,0,0c0,0,0-0.1-0.1-0.1c0,0,0,0-0.1,0c0-0.1-0.1-0.1-0.1-0.1c0,0,0-0.1,0-0.1
						c0-0.1,0-0.1-0.1-0.1c0-0.1,0,0,0,0c0-0.1,0-0.2-0.1-0.3c0-0.1,0-0.1-0.1-0.1c0,0-0.1,0-0.1-0.1c0-0.1,0,0,0,0
						c0,0-0.1-0.1-0.1-0.2c0-0.1-0.1-0.1-0.2-0.2c0,0,0,0,0.1,0c0,0,0-0.1,0-0.1c0,0,0,0-0.1,0c0,0,0,0,0-0.1c0,0-0.1-0.1-0.1,0
						s0,0.1,0,0.1L50,1.3c0,0,0-0.1-0.1-0.1c0,0,0,0-0.1,0c0,0,0,0,0-0.1c0,0,0,0-0.1,0c0,0,0-0.1-0.1-0.1c-0.1,0-0.1-0.1-0.2-0.1
						c0,0-0.1,0-0.1,0c0,0,0.1,0,0.1,0c-0.1-0.1-0.2-0.1-0.3-0.2c-0.1,0-0.1,0-0.2,0l0,0c-0.1,0,0,0,0,0c0,0,0,0,0,0.1
						c0,0,0,0-0.1,0c-0.1,0,0,0,0,0c0,0,0,0,0-0.1c-0.1,0-0.3,0-0.4,0c0,0,0,0,0,0c-0.1,0-0.2,0.1-0.3,0.1c-0.1,0-0.1-0.1-0.2,0
						c-0.1,0,0,0,0,0c-0.1,0-0.1,0-0.2,0c0,0,0,0,0,0.1l-0.1,0c0,0-0.1,0-0.1,0c0,0-0.1,0.1,0,0.1l-0.1,0c0,0,0-0.1,0-0.1
						c0,0,0,0-0.1,0c-0.1,0-0.1,0.1-0.1,0.1c-0.1,0,0,0-0.1,0c-0.1,0,0,0-0.1,0.1C47,1,47,1,47,1c-0.1,0,0,0,0,0.1c0,0-0.1,0-0.1,0
						c0,0-0.1,0.1-0.1,0.1c0,0-0.1,0.1-0.1,0.1c0,0,0,0.1,0,0.1c0,0,0,0,0,0c0,0-0.1,0-0.1,0c0,0,0,0-0.1,0.1
						c-0.1,0.2,0,0.2-0.1,0.2c0,0.1-0.1,0-0.2,0.1L46,2c0,0,0,0,0,0c0,0,0.1,0,0.1,0c0,0-0.1,0.2-0.1,0.2c0,0.1-0.1,0-0.1,0.1
						c0,0.1,0,0.1,0,0.1c0,0,0-0.1,0-0.1c0,0,0,0,0,0c0,0.1,0,0,0,0.1c0,0.1,0,0-0.1,0.1c0,0.1,0,0.1,0,0.2c0,0.1,0,0.1,0,0.1
						c0,0.1,0,0,0,0.1c0,0.1,0,0,0,0.1c0,0.1,0,0,0,0.1c0,0.1,0,0.1-0.1,0.1c0,0,0,0.1,0.1,0.1c0,0,0-0.1,0,0c0,0.1,0,0.1,0,0.1
						c0,0.1,0,0,0,0.1c0,0.1,0,0.1,0,0.2c0,0.1,0.1,0.1,0.1,0.1c0,0,0,0,0,0.1l0.1,0L46.1,4c0,0,0,0.1,0,0.1c0.1,0,0.1,0.1,0.2,0.2
						c0,0.1,0,0.1,0,0.2c0,0,0,0,0.1,0c0,0.1,0.1,0.3,0.2,0.3c0.1,0.1,0.1,0.1,0.1,0l0.1,0.1c0,0,0.1,0.1,0.1,0.2c0,0,0,0,0.1,0
						c0,0,0.1,0.1,0.1,0.1c0.1,0,0.1,0,0.1,0c0.1,0,0,0,0,0c0.1,0,0,0,0.1,0c0.1,0,0.1,0.1,0.1,0.1c0.1,0,0,0,0.1,0c0.1,0,0,0,0,0
						c0.1,0,0,0,0.1,0c0.1,0,0.1,0.1,0.1,0.1c0,0,0,0,0-0.1c0,0,0,0,0.1,0c0.1,0,0,0,0.1,0c0.1,0,0,0,0,0c0.1,0,0,0,0,0
						c0,0,0.2,0,0.2,0c0,0,0,0,0,0.1c0,0,0.1,0,0.1,0c0,0,0.1,0,0.1-0.1l0.1,0c0,0,0.1,0.1,0.1,0c0.1,0,0,0,0.1,0c0.1,0,0.1,0,0.1,0
						c0.1,0,0.1,0,0.1,0c0,0,0,0,0-0.1c0,0,0.1,0,0.1-0.1c0,0,0,0,0,0.1c0,0,0.1,0,0.1,0c0,0,0.1-0.1,0.1-0.1c0.1,0,0.1,0,0.1,0
						c0.1,0,0,0,0-0.1c0.1,0,0,0,0.1,0c0,0,0.1,0,0.1-0.1c0,0,0.1-0.1,0.1-0.1l0,0c0.1,0,0,0,0.1,0c0,0,0,0,0.1-0.1c0,0,0.1,0,0.1,0
						c0,0,0,0,0-0.1c0,0,0,0,0.1-0.1c0,0,0-0.1,0-0.1c0.1,0,0.1-0.1,0.2-0.1c0-0.1,0,0,0-0.1c0-0.1,0,0,0.1,0c0-0.1,0,0,0-0.1
						c0,0,0.1,0,0.1,0c0,0,0.2-0.4,0.2-0.4c0-0.1,0,0,0-0.1c0-0.1,0,0,0-0.1c0-0.1,0,0,0-0.1c0-0.1,0,0,0-0.1c0,0,0,0,0,0
						c0,0,0.1,0,0.1-0.1c0,0,0-0.1,0.1-0.1c0,0,0,0-0.1,0l0-0.1c0,0,0,0,0-0.1c0,0,0,0,0.1,0c0,0,0,0,0.1,0c0,0,0.1,0,0.1-0.1
						c0.1,0,0.1,0.1,0.1,0.1c0,0,0,0,0,0.1l0.1,0l0,0.1c0,0,0,0,0,0c0,0,0,0,0.1,0c0,0,0,0,0,0c0,0.1-0.1,0.4-0.1,0.5
						c0,0.1,0,0.2-0.1,0.2C51.2,4,51.3,4,51.3,4z"/>
				</g>
			</g>
		</g>
		<g>
			<path fill="#FFFFFF" d="M48.4,4.8c-0.1,0-0.2,0-0.3-0.1C48,4.6,48,4.5,48,4.4V3c0,0,0,0,0,0h-0.3c-0.1,0-0.2,0-0.2-0.1
				c-0.1-0.1-0.1-0.1-0.1-0.2c0-0.1,0-0.2,0.1-0.2c0.1-0.1,0.1-0.1,0.2-0.1h0.8c0.1,0,0.2,0,0.3,0.1c0.1,0.1,0.1,0.2,0.1,0.3v1.7
				c0,0.1,0,0.2-0.1,0.3C48.6,4.7,48.5,4.8,48.4,4.8L48.4,4.8z M48.7,1.9C48.6,1.9,48.5,2,48.3,2s-0.2,0-0.3-0.1
				c-0.1-0.1-0.1-0.2-0.1-0.3s0-0.2,0.1-0.3c0.1-0.1,0.2-0.1,0.3-0.1s0.2,0,0.3,0.1c0.1,0.1,0.1,0.2,0.1,0.3S48.7,1.8,48.7,1.9z"/>
		</g>
	</g>
</g>
<g>
</g>
<g>
</g>
<g>
</g>
<g>
</g>
<g>
</g>
<g>
</g>
<g>
</g>
<g>
</g>
<g>
</g>
<g>
</g>
<g>
</g>
<g>
</g>
<g>
</g>
<g>
</g>
<g>
</g>
</svg>
