<?xml version="1.0" encoding="utf-8"?>
<!-- Generator: Adobe Illustrator 18.0.0, SVG Export Plug-In . SVG Version: 6.00 Build 0)  -->
<!DOCTYPE svg PUBLIC "-//W3C//DTD SVG 1.1//EN" "http://www.w3.org/Graphics/SVG/1.1/DTD/svg11.dtd">
<svg version="1.1" id="Layer_1" xmlns="http://www.w3.org/2000/svg" xmlns:xlink="http://www.w3.org/1999/xlink" x="0px" y="0px"
	 viewBox="0 0 119.4 73.3" enable-background="new 0 0 119.4 73.3" xml:space="preserve">
<g>
	<g>
		<path fill="#FFFFFF" d="M112.8,71.9H6.7c-3.1,0-5.7-2.5-5.7-5.7V14.9c0-3.1,2.5-5.7,5.7-5.7h106.2c3.1,0,5.7,2.5,5.7,5.7v51.3
			C118.5,69.4,116,71.9,112.8,71.9z"/>
		<g>
			<g>
				<path fill-rule="evenodd" clip-rule="evenodd" fill="#3A494F" d="M102.9,73.3c-0.8,0-1.8-0.1-2.8-0.1c-0.3-0.1-0.2-0.2-0.7-0.2
					c-1.7,0-2.8-0.1-4.2-0.1S94.9,73,93.4,73s-0.9-0.1-2.3-0.1s-3.1,0.2-4.6,0.2S86.3,73,84.9,73s-0.9,0.1-2.3,0.1s-2.8-0.2-3.8-0.3
					C76.7,72.8,72,73,70.6,73c-2.8,0-1.8-0.1-4.4-0.2c0,0,0.6,0-0.8,0s-0.9,0.1-2.3,0.1s-0.9-0.1-2.3-0.1c-0.6,0-1.9,0.1-2.5,0.3
					c-2-0.1-4.1-0.3-5.5-0.3S48,73,46.5,73s-0.3-0.1-1.7-0.1S43.4,73,42,73c-2.9,0-0.3-0.2-2.3-0.2c-1.4,0-0.3,0.1-1.7,0.1
					s-2-0.1-3.4-0.1c-1.4,0-7.2,0.2-8.6,0.2c-1.4,0-3.8-0.1-5.1-0.1c-1.4,0-3.6,0.1-4.8,0.1c-0.6,0-0.9-0.1-0.8-0.2c0,0-2.3,0-4.6,0
					c-1.2,0-2.3,0-3.2,0c-0.4,0-0.8,0-1.1,0c-0.3,0-0.5,0-0.5,0c0.3,0.1,0.7,0.2,0.9,0.2c0.2,0,0.3,0.1,0.3,0.1
					c-0.4,0-0.6,0-0.9-0.1c-0.3-0.1-0.7-0.1-1.5-0.4C3.7,72.2,3.4,72,3,71.8c-0.4-0.2-0.7-0.4-1.3-1.1c-0.6-0.6-1.1-1.6-1.3-2.7
					c-0.1-0.5-0.2-1.1-0.2-1.6c0-0.5,0-0.9,0-1.2c0-1.4-0.1-1.4-0.1-2.9c0-1.4,0.1-0.9,0.1-2.3c0-1.4-0.1-2.3-0.2-3.1
					c0.1-0.8,0.2,0,0.2-1.5c0-1.4-0.1,0.3-0.1-1.1c0-1.4,0.1,0.3,0.1-1.1s-0.1,0.3-0.1-1.1c0-1.4,0.1-0.3,0.1-1.7
					c0-1.4-0.1-2-0.1-3.4s0-2.3,0.1-2.7c0-0.4-0.1-0.7-0.2-0.8c0-0.8,0.1-0.8,0.1-2.2c0-1.4-0.1-1.4-0.1-2.9c0-1.4,0.1-3.1,0.1-4.6
					c0-1.4-0.1-3.1-0.1-4.6s0.1-1.6,0.1-2.1c0-2.8,0-5.6,0-8.4c0.1-0.3,0.1,0.5,0.1-0.9c0-0.4,0-0.9,0-1.5c0-0.6-0.1-1.2,0-2.1
					c0.1-1.7,1-3.4,2.1-4.4c0,0,0.4-0.4,1-0.7c0.5-0.3,1.1-0.5,1.1-0.5c0.1,0-1.3,0.6-2.1,1.6c0,0,0.9-0.9,2-1.3
					c1.1-0.5,2.4-0.5,2.4-0.5c1.5,0,0.7-0.1,2.1-0.1c1.4,0,2,0.1,3.4,0.1s0.9-0.1,2.3-0.1c1.4,0,0.3,0.1,1.7,0.1s2-0.1,3.4-0.1
					c1.4,0,4.9,0.1,6.3,0.1c1.1,0,3.5,0,4.2-0.1c0.8,0.1,2,0.1,2.5,0.2c1.6,0,1.9,0.1,1.9-0.1s-1.1-0.1-1-0.2c1.5,0.1,3,0.2,4.4,0.2
					c0.4,0,3.1-0.1,3.5-0.3h2.1c0.1,0.1,1.2,0.2,1.7,0.3c0.4,0,0.7-0.1,0.9-0.2c1.5,0.1,2.4,0.2,3.8,0.2c1.4,0,3.7-0.2,5.1-0.2
					s0.9,0.1,2.3,0.1s1.1,0,1.3-0.1c0.9,0.1,0.1,0.2,1.5,0.2c1.4,0-0.3-0.1,1.1-0.1s1.4,0.1,2.9,0.1c2.5,0,3.1,0,3.5-0.3h2.1
					c0.1,0.1,0.9,0.3,1.8,0.3c1.4,0-0.3-0.1,1.1-0.1s-0.3,0.1,1.1,0.1S76,8.3,77,8.3c0.9-0.1,1.7,0,3.2,0c1.4,0,7.2,0.2,8.6,0.2
					c4.9,0,3.4-0.2,5.7-0.2c2.4,0,0.8,0.2,5.7,0.2c1.4,0,3.1-0.1,4.6-0.1s3.9,0.1,5.5,0.2c0.5,0,0.8-0.1,0.9-0.2c0,0,0.5,0,1,0
					c0.5,0,1,0,1,0c0.8,0,1.2,0.2,1.4,0.3c0.3,0.1,0.5,0.2,1,0.5c0.3,0.2,0.2,0.3,0.6,0.6c0,0,0.4,0.2,0.7,0.5
					c0.3,0.3,0.6,0.6,0.6,0.6c0.5,0.6,0.6,0.8,0.8,0.9c0.1,0.1,0.2,0.2,0.4,0.6c0.3,0.6,0.5,1.3,0.6,2.1c0,0.4,0,0.8,0,1.1
					c0,0.3,0,0.6,0,0.9c0,0.5,0.1-0.5,0.1,1s-0.1,3.9-0.2,5.5c0,0.5,0.1,0.8,0.2,1c-0.1,0.9-0.1,2.4-0.1,3.8c0,1.4,0.1,3,0.1,4.2
					c0,0.6-0.1,0.9-0.2,0.8v3.1c0.1,0.5,0.1,0.4,0.2,0.5v3c0,1.4-0.1,0.6-0.1,2.1c0,1.4,0,1.7,0.1,1.8c-0.1,4.1-0.2,1.6-0.2,5.6
					c0,2.5,0.2,5.5,0.2,6.3c0,1.4-0.2,2.6-0.2,4c0,1.4,0.1,0.3,0.1,1.7c0,1.4-0.1-0.3-0.1,1.1c0,0.7,0,1.9,0.1,3.1
					c0,0.6,0.1,1.2,0,2c-0.1,0.7-0.2,1.3-0.4,1.8c-0.1,0.2-0.1,0.2-0.2,0.4c-0.1,0.1-0.2,0.4-0.7,1c-0.5,0.7-1.3,1.3-2.1,1.7
					c-0.4,0.2-0.8,0.3-1.2,0.4l-0.3,0.1c-0.1,0-0.2,0-0.2,0l-0.1,0l-0.2,0c0,0.1,0,0.1,0,0.2c-0.2-0.2-0.4-0.3-0.8-0.3
					c0-0.1,0.1-0.1,0.1-0.2c0-0.3-0.5-0.3-0.5-0.6c0-0.1,0-0.1,0-0.1c0.1,0,0.5-0.1,0.5-0.4c0-0.1-0.1-0.1-0.1-0.2
					c0.3,0,0.3-0.3,0.4-0.3c0.1,0,0.1,0,0.2,0c0,0,0,0,0.1,0c0.1,0,0.3,0,0.4-0.1c0.3-0.1,0.5-0.2,0.8-0.3c1-0.6,1.2-1.1,1.8-2
					c0.4-1,0.2-0.3,0.4-0.7c0.1-0.4,0.2-0.9,0.2-1.5c0-0.6,0-1.3,0-2c0-1.3,0-2.5,0.1-3.2c0-1.4,0.1-2.6,0-3.6
					c-0.1-0.9-0.2-1.9-0.2-3.3s0.1-0.5,0.1-1c0-1.1,0-2.8,0-4.2c0-1.4,0-4.2-0.1-6.7c0.1-0.1,0.1,0.5,0.1,1c0,0,0.1-1.1,0.2-1.6
					c0-0.4-0.1-0.4-0.1-1.9c0-1.4,0.1-1.1,0.1-1.5c-0.1-1,0-2-0.2-2c-0.1,0-0.1,1.1-0.2,1.1v-3.2c0.1-0.7,0.2-1.6,0.2-3
					c0-1.4-0.1,0.3-0.1-1.1s0.1,0.3,0.1-1.1c0-1.4-0.1-0.9-0.1-2.3s0.1-1.4,0.1-2.9c0-1.4-0.1-3.8-0.1-5.3c0-1-0.1-1.6-0.2-2.5
					c0.1-0.2,0.1,1,0.2,1.1c0-0.7,0-1.4,0-2.1c0-0.6-0.2-1.3-0.4-1.8c-0.5-1.1-1.4-1.9-2-2.1c-0.5-0.3-1.1-0.5-1.6-0.5
					c-0.5,0-1.1,0-1.6,0v0c-1.6,0-0.7-0.1-1.2-0.1c-0.5,0-0.7,0.1-0.8,0.2c-0.8,0-0.2-0.1-1.6-0.1s-0.6,0-0.7,0.1
					c-0.8,0-1.1-0.1-1-0.2c-2.7,0-6.1,0-9,0c-0.2,0,0.6-0.1-0.8-0.1s-5.4,0.2-6.9,0.2s-2-0.2-3.4-0.2s0.3,0.1-1.1,0.1
					c-1.4,0-2.8-0.1-3.3-0.2c-0.4,0-0.7,0.1-0.8,0.2h-2.1c-0.1-0.1-1.2-0.1-1.6-0.2c-0.4,0-1.5,0.1-2,0.3h-2.1
					c-0.1-0.1,1.1-0.1,1.1-0.2c-0.5,0,0.3,0-1.2,0s-2.6,0.2-4,0.2s-0.9-0.1-2.3-0.1s-0.9,0.1-2.3,0.1s-0.3-0.1-1.7-0.1
					s-1.1,0-1.3,0.1c-0.8-0.1-1.7-0.1-2.6-0.2c-0.9-0.1-2.7,0-4.1,0s-3.1,0-4.2,0c-0.6,0-1,0.1-1.9,0.2c0,0,0.6,0-0.8,0
					s-2-0.1-2.8-0.2c-0.4,0-0.9,0-2.4,0c-4.9,0-3.4,0.2-5.7,0.2c-1.9,0-2.2-0.2-4.4-0.3h-1.5c-0.5,0-0.4,0-0.4,0.1s1.1,0.1,1.1,0.2
					h-4.1c-1.4,0-1.5-0.1-2.9-0.1s-2.1,0-3,0.1c-0.2-0.1,1-0.1,1-0.2c-0.5,0,0.3,0-1.2,0s-0.9,0.1-2.3,0.1s-0.9-0.1-2.3-0.1
					s-2.6,0.1-4,0.1s-2-0.1-3.4-0.1s0.3,0.1-1.1,0.1S8.4,10.2,7,10.2c-0.7,0-0.7,0.1-0.8,0.1c-0.1,0-0.1,0.1-0.7,0.2
					c-1.2,0.3-2.1,1-2.4,1.2c-0.5,0.6-0.9,1.4-0.7,1.4c0.1,0,0.2-0.2,0.3-0.4c0.1-0.2,0.2-0.4,0.3-0.3c-0.4,0.7-0.5,1-0.7,1.3
					C2.1,14,2,14.3,2,14.9c0,1.4,0,1.1,0.1,1.3c-0.1,1.5-0.2,2.4-0.2,3.8c0,1.4,0.1,2,0.1,3.1c0,0.6-0.1,0.7-0.2,2.1h0.3v4.4
					c-0.1,0.1-0.1,1.2-0.2,1.6c0.1,1.5,0.2,4.5,0.2,5.9S2,40.1,1.9,40.5c0,0.4,0.1,0.7,0.2,0.8c-0.1,2.6-0.2,7-0.2,8.4
					c0,1.9,0,1.9,0.2,1.8v3c0,1.4-0.2,3.5-0.2,4.9S2,60.4,2,61.8c0,1.4-0.1,2.6-0.1,4c0,0.4,0,0.6,0,0.9c0,0.2,0.1,0.4,0.1,0.6
					c0.1,0.4,0.3,0.8,0.6,1.3c0.7,1-0.3-0.1,0.5,0.8C3.5,69.9,3.7,70,3.9,70c0.2,0.1,0.3,0.2,0.8,0.4c0.5,0.2,0.9,0.4,1.3,0.5
					C6.3,71,6.5,71,6.7,71c0.3,0,0.6,0,0.9,0c1.4,0,0.9-0.1,2.3-0.1S9.7,71,11.1,71s0.9-0.1,2.3-0.1s2.8,0.1,3.3,0.2
					c0.4,0,0.7-0.1,0.8-0.2c0.8,0,0.2,0.1,1.6,0.1s-0.3-0.1,1.1-0.1S19.9,71,21.4,71c1.4,0,0.6,0,0.9-0.1c1.1,0,4.5,0.1,5.5-0.1
					c0.7,0,1,0.1,1.2,0.2c0.9,0.1,1.9,0.2,3.3,0.2c0.9,0,1.9-0.1,2.4-0.3h3.2c0.7,0.1,1,0.2,2.4,0.2s0.3-0.1,1.7-0.1s2,0.1,3.4,0.1
					c1.4,0,1.9,0,2.5,0c0.5,0,0.4-0.1,0.7-0.2c0.6,0,2,0,4.1-0.1c0.1,0.1-0.5,0.1-1,0.1c0,0,1.1,0.1,1.5,0.2
					c0.9-0.1,2.2-0.1,3.6-0.1c1.4,0,2,0.1,3.4,0.1c1.4,0-0.3-0.1,1.1-0.1s0.5,0.1,1,0.1c1.1,0,1.6,0,3,0c1.4,0,2.9,0,3.8-0.1v0
					c1.6,0,0.5,0.1,1.9,0.1c1.4,0,0.9-0.1,2.3-0.1s0.9,0.1,2.3,0.1s0.3-0.1,1.7-0.1s0.9,0.1,2.3,0.1s2.3-0.1,3.1-0.2
					c1.4,0.1,3.5,0.2,4.9,0.2s0.9-0.1,2.3-0.1s0.3,0.1,1.7,0.1s1.1,0,1.2-0.1c0.8,0,1.1,0.1,1,0.2h9.8c1.4,0-0.3-0.1,1.1-0.1
					s0.3,0.1,1.7,0.1c1.4,0,0.9-0.1,2.3-0.1s0.9,0.1,2.3,0.1c0.1,0,0.1,0,0.1,0c0,0,0,0,0,0c0,0,0,0,0,0c0,0,0,0,0-0.1
					c0.1,0.1,0.2,0.2,0.3,0.3c0.1,0,0.4,0.1,0.4,0.2c0,0,0.1-0.1,0.1-0.2h0.2c0.1,0,0.1,0.1,0.2,0.1c0,0.1,0.1,0.1,0.1,0.3
					s-0.1,0.1-0.1,0.2s0.1,0.2,0.2,0.3c-0.1,0.2-0.2,0.4-0.4,0.5c-0.1,0-0.1-0.1-0.2-0.1v0.3h-0.2c-0.1,0,0-0.1-0.1-0.1
					c0,0-0.1,0.1-0.1,0.2c-0.1,0-0.1-0.1-0.1-0.1c-0.1,0-0.2,0-0.3,0l-0.2,0c-0.5,0-1,0-1.5,0c-2.2,0-4.2-0.1-4.9-0.1
					c-1.4,0-3,0-4,0C101.4,73.1,102.5,73.2,102.9,73.3z"/>
			</g>
		</g>
	</g>
	<g>
		<path fill="#3A494F" d="M109.1,67.4H10.3c-2.9,0-5.3-2.4-5.3-5.3V14.4c0-2.9,2.4-5.3,5.3-5.3h98.8c2.9,0,5.3,2.4,5.3,5.3v47.8
			C114.4,65.1,112,67.4,109.1,67.4z"/>
		<g>
			<g>
				<path fill-rule="evenodd" clip-rule="evenodd" fill="#3A494F" d="M99.9,68.7c-0.7,0-1.6-0.1-2.6-0.1c-0.3,0-0.2-0.1-0.7-0.2
					c-1.5,0-2.6-0.1-3.9-0.1c-1.3,0-0.3,0.1-1.6,0.1c-1.3,0-0.8-0.1-2.1-0.1c-1.3,0-2.9,0.2-4.3,0.2c-1.3,0-0.3-0.1-1.6-0.1
					c-1.3,0-0.8,0.1-2.1,0.1s-2.6-0.2-3.5-0.3c-2,0.1-6.3,0.2-7.7,0.2c-2.6,0-1.7-0.1-4.1-0.2c0,0,0.6,0-0.7,0s-0.8,0.1-2.1,0.1
					c-1.3,0-0.8-0.1-2.1-0.1c-0.6,0-1.8,0.1-2.3,0.3c-1.8-0.1-3.8-0.3-5.2-0.3c-1.3,0-4.5,0.2-5.9,0.2s-0.3-0.1-1.6-0.1
					s-1.3,0.1-2.7,0.1c-2.7,0-0.3-0.2-2.1-0.2c-1.3,0-0.3,0.1-1.6,0.1s-1.9-0.1-3.2-0.1c-1.3,0-6.7,0.2-8,0.2
					c-1.3,0-3.5-0.1-4.8-0.1c-1.3,0-3.3,0-4.5,0.1c-0.6,0-0.9-0.1-0.8-0.2c0,0-2.2,0-4.3,0c-1.1,0-2.2,0-3,0c-0.4,0-0.7,0-1,0
					c-0.3,0-0.4,0-0.4,0c0.3,0.1,0.6,0.2,0.9,0.2c0.2,0,0.3,0,0.3,0.1c-0.3,0-0.6,0-0.9-0.1c-0.3-0.1-0.7-0.1-1.4-0.4
					c-0.7-0.3-1.1-0.5-1.4-0.6c-0.3-0.2-0.7-0.4-1.2-1c-0.5-0.6-1-1.5-1.3-2.5c-0.1-0.5-0.2-1-0.2-1.5c0-0.4,0-0.8,0-1.1
					c0-1.3-0.1-1.3-0.1-2.7c0-1.3,0.1-0.8,0.1-2.1s-0.1-2.2-0.2-2.9c0.1-0.8,0.2,0,0.2-1.4c0-1.3-0.1,0.3-0.1-1.1
					c0-1.3,0.1,0.3,0.1-1.1S4.2,50.3,4.2,49c0-1.3,0.1-0.3,0.1-1.6c0-1.3-0.1-1.9-0.1-3.2c0-1.3,0-2.1,0.1-2.5
					c0-0.4-0.1-0.7-0.2-0.7c0-0.7,0.1-0.7,0.1-2.1c0-1.3-0.1-1.3-0.1-2.7s0.1-2.9,0.1-4.3c0-1.3-0.1-2.9-0.1-4.3
					c0-1.3,0.1-1.5,0.1-1.9c0-2.6,0-5.3,0-7.8c0-0.3,0.1,0.5,0.1-0.9c0-0.3,0-0.8,0-1.4c0-0.6-0.1-1.1,0-2c0.1-1.6,0.9-3.2,1.9-4.1
					c0,0,0.4-0.4,0.9-0.7c0.5-0.3,1-0.5,1-0.5c0.1,0-1.2,0.5-2,1.5c0,0,0.8-0.8,1.9-1.2c1.1-0.5,2.2-0.5,2.2-0.5
					c1.4,0,0.6-0.1,1.9-0.1c1.3,0,1.9,0.1,3.2,0.1c1.3,0,0.8-0.1,2.1-0.1c1.3,0,0.3,0.1,1.6,0.1c1.3,0,1.9-0.1,3.2-0.1
					c1.3,0,4.5,0.1,5.9,0.1c1,0,3.2,0,3.9-0.1c0.8,0.1,1.9,0.1,2.3,0.2c1.5,0,1.7,0.1,1.7-0.1c0-0.1-1.1-0.1-0.9-0.2
					c1.4,0.1,2.8,0.2,4.1,0.2c0.3,0,2.9-0.1,3.3-0.3h2c0.1,0.1,1.1,0.2,1.5,0.3c0.4,0,0.7-0.1,0.8-0.2c1.4,0.1,2.2,0.2,3.6,0.2
					c1.3,0,3.5-0.2,4.8-0.2c1.3,0,0.8,0.1,2.1,0.1s1.1,0,1.2-0.1c0.8,0.1,0.1,0.2,1.4,0.2c1.3,0-0.3-0.1,1.1-0.1
					c1.3,0,1.3,0.1,2.7,0.1c2.3,0,2.9,0,3.3-0.3h2c0.1,0.1,0.9,0.3,1.7,0.3c1.3,0-0.3-0.1,1.1-0.1s-0.3,0.1,1.1,0.1
					c1.3,0,2-0.1,2.9-0.2c0.8-0.1,1.6,0,2.9,0c1.3,0,6.7,0.2,8,0.2c4.6,0,3.2-0.2,5.3-0.2c2.3,0,0.7,0.2,5.3,0.2
					c1.3,0,2.9-0.1,4.3-0.1s3.6,0.1,5.1,0.2c0.5,0,0.7-0.1,0.8-0.2c0,0,0.4,0,0.9,0c0.4,0,0.9,0,0.9,0c0.8,0,1.1,0.2,1.3,0.3
					c0.3,0.1,0.5,0.2,1,0.4c0.3,0.2,0.2,0.2,0.6,0.5c0,0,0.3,0.2,0.7,0.5c0.3,0.3,0.6,0.6,0.6,0.6c0.5,0.6,0.6,0.8,0.7,0.9
					c0.1,0.1,0.2,0.2,0.4,0.5c0.2,0.5,0.5,1.3,0.5,2c0,0.8,0,1.3,0,1.9c0,0.5,0.1-0.4,0.1,0.9s-0.1,3.6-0.2,5.1
					c0,0.5,0.1,0.7,0.2,0.9c-0.1,0.8-0.1,2.2-0.1,3.6c0,1.3,0,2.8,0.1,3.9c0,0.6-0.1,0.9-0.2,0.8v2.9c0,0.4,0.1,0.4,0.2,0.4v2.8
					c0,1.3-0.1,0.6-0.1,1.9c0,1.3,0,1.6,0.1,1.7c-0.1,3.8-0.2,1.5-0.2,5.2c0,2.3,0.2,5.1,0.2,5.9c0,1.3-0.2,2.4-0.2,3.7
					c0,1.3,0.1,0.3,0.1,1.6c0,1.3-0.1-0.3-0.1,1.1c0,0.7,0,1.8,0.1,2.9c0,0.6,0.1,1.2,0,1.8c0,0.6-0.2,1.2-0.4,1.7
					c-0.1,0.2-0.1,0.2-0.1,0.3c-0.1,0.1-0.2,0.4-0.6,1c-0.5,0.6-1.2,1.2-2,1.6c-0.4,0.2-0.8,0.3-1.1,0.4l-0.3,0.1
					c-0.1,0-0.2,0-0.2,0l-0.1,0l-0.2,0c0,0.1,0,0.1,0,0.2c-0.2-0.2-0.4-0.3-0.7-0.2c0-0.1,0.1-0.1,0.1-0.2c0-0.3-0.4-0.3-0.4-0.6
					c0-0.1,0-0.1,0-0.1c0.1,0,0.5-0.1,0.4-0.4c0-0.1-0.1-0.1-0.1-0.2c0.3,0,0.3-0.3,0.4-0.3c0.1,0,0.1,0,0.2,0c0,0,0,0,0.1,0
					c0.1,0,0.2,0,0.4-0.1c0.2-0.1,0.5-0.2,0.7-0.3c0.9-0.6,1.2-1,1.7-1.9c0.4-1,0.2-0.3,0.4-0.6c0.1-0.4,0.2-0.8,0.2-1.4
					c0-0.6,0-1.2,0-1.8c0-1.2,0-2.4,0.1-3c0-1.3,0.1-2.4,0-3.3c-0.1-0.9-0.2-1.7-0.2-3.1c0-1.3,0.1-0.4,0.1-0.9c0-1,0-2.6,0-3.9
					c0-1.3,0-3.9-0.1-6.3c0.1-0.1,0.1,0.5,0.1,1c0,0,0.1-1.1,0.2-1.5c0-0.4-0.1-0.4-0.1-1.7c0-1.3,0.1-1,0.1-1.4
					c0-0.9,0-1.8-0.2-1.8c-0.1,0-0.1,1.1-0.2,1v-3c0.1-0.6,0.2-1.4,0.2-2.8c0-1.3-0.1,0.3-0.1-1.1s0.1,0.3,0.1-1.1
					c0-1.3-0.1-0.8-0.1-2.1c0-1.3,0.1-1.3,0.1-2.7s0-3.5-0.1-4.9c0-0.9-0.1-1.5-0.2-2.3c0.1-0.2,0.1,0.9,0.2,1c0-0.6,0-1.3,0-2
					c0-0.6-0.1-1.2-0.4-1.7c-0.5-1.1-1.3-1.7-1.8-2c-0.5-0.3-1-0.4-1.5-0.5c-0.5,0-1.1,0-1.5,0v0c-1.5,0-0.6-0.1-1.1-0.1
					c-0.4,0-0.7,0.1-0.8,0.2c-0.7,0-0.2-0.1-1.5-0.1s-0.5,0-0.6,0.1c-0.7,0-1-0.1-0.9-0.2c-2.5,0-5.7,0-8.4,0
					c-0.2,0,0.6-0.1-0.8-0.1s-5.1,0.2-6.4,0.2s-1.9-0.2-3.2-0.2s0.3,0.1-1.1,0.1c-1.3,0-2.6-0.1-3.1-0.2c-0.4,0-0.7,0.1-0.7,0.2h-2
					c-0.1-0.1-1.1-0.1-1.5-0.2c-0.3,0-1.4,0.1-1.9,0.3h-2c-0.1-0.1,1-0.1,1-0.2c-0.5,0,0.2,0-1.1,0c-1.3,0-2.4,0.2-3.7,0.2
					S67.8,10,66.5,10c-1.3,0-0.8,0.1-2.1,0.1c-1.3,0-0.3-0.1-1.6-0.1c-1.3,0-1.1,0-1.2,0.1C60.8,10.1,60,10,59.2,10
					c-0.9-0.1-2.5,0-3.8,0c-1.3,0-2.9,0-3.9,0c-0.6,0-0.9,0.1-1.7,0.2c0,0,0.6,0-0.7,0c-1.3,0-1.9-0.1-2.6-0.2c-0.3,0-0.9,0-2.2,0
					c-4.5,0-3.1,0.2-5.3,0.2c-1.7,0-2-0.2-4.1-0.3h-1.4c-0.4,0-0.3,0-0.3,0.1c0,0.1,1.1,0.1,1,0.2h-3.8c-1.3,0-1.4-0.1-2.7-0.1
					c-1.3,0-1.9,0-2.8,0.1c-0.2-0.1,0.9-0.1,0.9-0.2c-0.5,0,0.2,0-1.1,0S23.6,10,22.3,10c-1.3,0-0.8-0.1-2.1-0.1
					c-1.3,0-2.4,0.1-3.7,0.1s-1.9-0.1-3.2-0.1s0.3,0.1-1.1,0.1c-1.3,0-0.3-0.1-1.6-0.1C9.9,10,10,10,9.9,10c0,0-0.1,0-0.6,0.2
					c-1.1,0.3-2,0.9-2.3,1.1c-0.5,0.6-0.8,1.3-0.7,1.3c0.1,0,0.2-0.2,0.3-0.3C6.7,12.1,6.8,12,6.8,12c-0.4,0.6-0.5,1-0.6,1.2
					C6.1,13.6,6,13.8,6,14.4c0,1.3,0,1.1,0.1,1.2C6,17,5.9,17.8,5.9,19.2S6,21,6,22.1c0,0.5-0.1,0.7-0.2,2h0.3v4.1
					C6,28.2,6,29.3,5.9,29.6C6,31,6.1,33.8,6.1,35.1c0,1.3-0.1,2.6-0.2,3.1c0,0.4,0.1,0.7,0.2,0.8c-0.1,2.4-0.2,6.5-0.2,7.9
					c0,1.8,0,1.7,0.2,1.7v2.8c0,1.3-0.2,3.3-0.2,4.6C5.9,57.2,6,56.7,6,58c0,1.3-0.1,2.4-0.1,3.7c0,0.4,0,0.6,0,0.8
					C6,62.8,6,63,6.1,63.1c0.1,0.4,0.3,0.7,0.5,1.2c0.6,0.9-0.2-0.1,0.4,0.8c0.4,0.4,0.5,0.5,0.7,0.6c0.1,0.1,0.3,0.2,0.8,0.4
					c0.5,0.2,0.9,0.4,1.2,0.4c0.2,0.1,0.4,0.1,0.6,0.1c0.3,0,0.5,0,0.9,0c1.3,0,0.8-0.1,2.1-0.1c1.3,0-0.3,0.1,1.1,0.1
					s0.8-0.1,2.1-0.1c1.3,0,2.6,0.1,3.1,0.2c0.4,0,0.7-0.1,0.7-0.2c0.7,0,0.2,0.1,1.5,0.1c1.3,0-0.3-0.1,1.1-0.1
					c1.3,0-0.3,0.1,1.1,0.1c1.3,0,0.6,0,0.8-0.1c1,0,4.2,0.1,5.1-0.1c0.7,0,0.9,0.1,1.1,0.2c0.8,0,1.7,0.1,3.1,0.1
					c0.8,0,1.8-0.1,2.2-0.3h3c0.6,0.1,0.9,0.2,2.2,0.2c1.3,0,0.3-0.1,1.6-0.1c1.3,0,1.9,0.1,3.2,0.1c1.3,0,1.8,0,2.3,0
					c0.5,0,0.4-0.1,0.7-0.2c0.6,0,1.9,0,3.8-0.1c0.1,0.1-0.5,0.1-0.9,0.1c0,0,1.1,0.1,1.4,0.2c0.9-0.1,2-0.1,3.4-0.1
					s1.9,0.1,3.2,0.1s-0.3-0.1,1.1-0.1c1.3,0,0.4,0.1,0.9,0.1c1,0,1.5,0,2.8,0c1.3,0,2.7,0,3.6-0.1v0c1.5,0,0.4,0.1,1.8,0.1
					c1.3,0,0.8-0.1,2.1-0.1c1.3,0,0.8,0.1,2.1,0.1s0.3-0.1,1.6-0.1s0.8,0.1,2.1,0.1c1.3,0,2.2-0.1,2.9-0.2c1.3,0.1,3.2,0.2,4.6,0.2
					s0.8-0.1,2.1-0.1c1.3,0,0.3,0.1,1.6,0.1c1.3,0,1.1,0,1.1-0.1c0.7,0,1,0.1,0.9,0.2h9.1c1.3,0-0.3-0.1,1.1-0.1
					c1.3,0,0.3,0.1,1.6,0.1c1.3,0,0.8-0.1,2.1-0.1c1.3,0,0.8,0.1,2.1,0.1c0.1,0,0.1,0,0.1,0c0,0,0,0,0,0c0,0,0,0,0,0c0,0,0,0,0-0.1
					c0.1,0.1,0.2,0.2,0.2,0.3c0.1,0,0.4,0.1,0.4,0.2c0,0,0.1-0.1,0.1-0.2h0.2c0.1,0,0.1,0.1,0.2,0.1c0,0.1,0.1,0.1,0.1,0.2
					s-0.1,0.1-0.1,0.2c0,0.1,0.1,0.2,0.2,0.3c-0.1,0.2-0.2,0.3-0.3,0.5c-0.1,0-0.1-0.1-0.2-0.1v0.3h-0.1c-0.1,0,0-0.1-0.1-0.1
					c0,0-0.1,0.1-0.1,0.2c-0.1,0-0.1,0-0.1-0.1c-0.1,0-0.2,0-0.3,0l-0.2,0c-0.5,0-1,0-1.4,0c-2.1,0-3.9,0-4.5-0.1
					c-1.3,0-2.8,0-3.7,0C98.5,68.5,99.5,68.6,99.9,68.7z"/>
			</g>
		</g>
	</g>
	<g>
		<path fill="#FFB048" d="M109.1,59.4H10.3c-2.9,0-5.3-2.4-5.3-5.3V6.3c0-2.9,2.4-5.3,5.3-5.3h98.8c2.9,0,5.3,2.4,5.3,5.3v47.8
			C114.4,57,112,59.4,109.1,59.4z"/>
		<g>
			<g>
				<path fill-rule="evenodd" clip-rule="evenodd" fill="#3A494F" d="M99.9,60.6c-0.7,0-1.6-0.1-2.6-0.1c-0.3,0-0.2-0.1-0.7-0.2
					c-1.5,0-2.6-0.1-3.9-0.1c-1.3,0-0.3,0.1-1.6,0.1c-1.3,0-0.8-0.1-2.1-0.1c-1.3,0-2.9,0.2-4.3,0.2c-1.3,0-0.3-0.1-1.6-0.1
					c-1.3,0-0.8,0.1-2.1,0.1s-2.6-0.2-3.5-0.3c-2,0.1-6.3,0.2-7.7,0.2c-2.6,0-1.7-0.1-4.1-0.2c0,0,0.6,0-0.7,0s-0.8,0.1-2.1,0.1
					c-1.3,0-0.8-0.1-2.1-0.1c-0.6,0-1.8,0.1-2.3,0.3c-1.8-0.1-3.8-0.3-5.2-0.3c-1.3,0-4.5,0.2-5.9,0.2s-0.3-0.1-1.6-0.1
					s-1.3,0.1-2.7,0.1c-2.7,0-0.3-0.2-2.1-0.2c-1.3,0-0.3,0.1-1.6,0.1s-1.9-0.1-3.2-0.1c-1.3,0-6.7,0.2-8,0.2
					c-1.3,0-3.5-0.1-4.8-0.1c-1.3,0-3.3,0-4.5,0.1c-0.6,0-0.9-0.1-0.8-0.2c0,0-2.2,0-4.3,0c-1.1,0-2.2,0-3,0c-0.4,0-0.7,0-1,0
					c-0.3,0-0.4,0-0.4,0c0.3,0.1,0.6,0.2,0.9,0.2c0.2,0,0.3,0,0.3,0.1c-0.3,0-0.6,0-0.9-0.1c-0.3-0.1-0.7-0.1-1.4-0.4
					c-0.7-0.3-1.1-0.5-1.4-0.6c-0.3-0.2-0.7-0.4-1.2-1c-0.5-0.6-1-1.5-1.3-2.5c-0.1-0.5-0.2-1-0.2-1.5c0-0.4,0-0.8,0-1.1
					c0-1.3-0.1-1.3-0.1-2.7c0-1.3,0.1-0.8,0.1-2.1c0-1.3-0.1-2.2-0.2-2.9c0.1-0.8,0.2,0,0.2-1.4S4.2,44.4,4.2,43
					c0-1.3,0.1,0.3,0.1-1.1c0-1.3-0.1,0.3-0.1-1.1s0.1-0.3,0.1-1.6s-0.1-1.9-0.1-3.2c0-1.3,0-2.1,0.1-2.5c0-0.4-0.1-0.7-0.2-0.7
					c0-0.7,0.1-0.7,0.1-2.1c0-1.3-0.1-1.3-0.1-2.7c0-1.3,0.1-2.9,0.1-4.3s-0.1-2.9-0.1-4.3s0.1-1.5,0.1-1.9c0-2.6,0-5.3,0-7.8
					c0-0.3,0.1,0.5,0.1-0.9c0-0.3,0-0.8,0-1.4c0-0.6-0.1-1.1,0-2c0.1-1.6,0.9-3.2,1.9-4.1c0,0,0.4-0.4,0.9-0.7c0.5-0.3,1-0.5,1-0.5
					c0.1,0-1.2,0.5-2,1.5c0,0,0.8-0.8,1.9-1.2c1.1-0.5,2.2-0.5,2.2-0.5c1.4,0,0.6-0.1,1.9-0.1c1.3,0,1.9,0.1,3.2,0.1
					c1.3,0,0.8-0.1,2.1-0.1c1.3,0,0.3,0.1,1.6,0.1c1.3,0,1.9-0.1,3.2-0.1c1.3,0,4.5,0.1,5.9,0.1c1,0,3.2,0,3.9-0.1
					c0.8,0.1,1.9,0.1,2.3,0.2c1.5,0,1.7,0.1,1.7-0.1c0-0.1-1.1-0.1-0.9-0.2c1.4,0.1,2.8,0.2,4.1,0.2c0.3,0,2.9-0.1,3.3-0.3h2
					c0.1,0.1,1.1,0.2,1.5,0.3c0.4,0,0.7-0.1,0.8-0.2c1.4,0.1,2.2,0.2,3.6,0.2c1.3,0,3.5-0.2,4.8-0.2c1.3,0,0.8,0.1,2.1,0.1
					s1.1,0,1.2-0.1c0.8,0.1,0.1,0.2,1.4,0.2c1.3,0-0.3-0.1,1.1-0.1c1.3,0,1.3,0.1,2.7,0.1c2.3,0,2.9,0,3.3-0.3h2
					c0.1,0.1,0.9,0.3,1.7,0.3c1.3,0-0.3-0.1,1.1-0.1s-0.3,0.1,1.1,0.1c1.3,0,2-0.1,2.9-0.2c0.8-0.1,1.6,0,2.9,0c1.3,0,6.7,0.2,8,0.2
					c4.6,0,3.2-0.2,5.3-0.2c2.3,0,0.7,0.2,5.3,0.2c1.3,0,2.9-0.1,4.3-0.1s3.6,0.1,5.1,0.2c0.5,0,0.7-0.1,0.8-0.2c0,0,0.4,0,0.9,0
					c0.4,0,0.9,0,0.9,0c0.8,0,1.1,0.2,1.3,0.3c0.3,0.1,0.5,0.2,1,0.4c0.3,0.2,0.2,0.2,0.6,0.5c0,0,0.3,0.2,0.7,0.5
					c0.3,0.3,0.6,0.6,0.6,0.6c0.5,0.6,0.6,0.8,0.7,0.9c0.1,0.1,0.2,0.2,0.4,0.5c0.2,0.5,0.5,1.3,0.5,2c0,0.8,0,1.3,0,1.9
					c0,0.5,0.1-0.4,0.1,0.9c0,1.3-0.1,3.6-0.2,5.1c0,0.5,0.1,0.7,0.2,0.9c-0.1,0.8-0.1,2.2-0.1,3.6c0,1.3,0,2.8,0.1,3.9
					c0,0.6-0.1,0.9-0.2,0.8v2.9c0,0.4,0.1,0.4,0.2,0.4v2.8c0,1.3-0.1,0.6-0.1,1.9c0,1.3,0,1.6,0.1,1.7c-0.1,3.8-0.2,1.5-0.2,5.2
					c0,2.3,0.2,5.1,0.2,5.9c0,1.3-0.2,2.4-0.2,3.7s0.1,0.3,0.1,1.6c0,1.3-0.1-0.3-0.1,1.1c0,0.7,0,1.8,0.1,2.9c0,0.6,0.1,1.2,0,1.8
					c0,0.6-0.2,1.2-0.4,1.7c-0.1,0.2-0.1,0.2-0.1,0.3c-0.1,0.1-0.2,0.4-0.6,1c-0.5,0.6-1.2,1.2-2,1.6c-0.4,0.2-0.8,0.3-1.1,0.4
					l-0.3,0.1c-0.1,0-0.2,0-0.2,0l-0.1,0l-0.2,0c0,0.1,0,0.1,0,0.2c-0.2-0.2-0.4-0.3-0.7-0.2c0-0.1,0.1-0.1,0.1-0.2
					c0-0.3-0.4-0.3-0.4-0.6c0-0.1,0-0.1,0-0.1c0.1,0,0.5-0.1,0.4-0.4c0-0.1-0.1-0.1-0.1-0.2c0.3,0,0.3-0.3,0.4-0.3
					c0.1,0,0.1,0,0.2,0c0,0,0,0,0.1,0c0.1,0,0.2,0,0.4-0.1c0.2-0.1,0.5-0.2,0.7-0.3c0.9-0.6,1.2-1,1.7-1.9c0.4-1,0.2-0.3,0.4-0.6
					c0.1-0.4,0.2-0.8,0.2-1.4c0-0.6,0-1.2,0-1.8c0-1.2,0-2.4,0.1-3c0-1.3,0.1-2.4,0-3.3s-0.2-1.7-0.2-3.1s0.1-0.4,0.1-0.9
					c0-1,0-2.6,0-3.9c0-1.3,0-3.9-0.1-6.3c0.1-0.1,0.1,0.5,0.1,1c0,0,0.1-1.1,0.2-1.5c0-0.4-0.1-0.4-0.1-1.7c0-1.3,0.1-1,0.1-1.4
					c0-0.9,0-1.8-0.2-1.8c-0.1,0-0.1,1.1-0.2,1v-3c0.1-0.6,0.2-1.4,0.2-2.8c0-1.3-0.1,0.3-0.1-1.1c0-1.3,0.1,0.3,0.1-1.1
					s-0.1-0.8-0.1-2.1c0-1.3,0.1-1.3,0.1-2.7s0-3.5-0.1-4.9c0-0.9-0.1-1.5-0.2-2.3c0.1-0.2,0.1,0.9,0.2,1c0-0.6,0-1.3,0-2
					c0-0.6-0.1-1.2-0.4-1.7c-0.5-1.1-1.3-1.7-1.8-2c-0.5-0.3-1-0.4-1.5-0.5c-0.5,0-1.1,0-1.5,0v0c-1.5,0-0.6-0.1-1.1-0.1
					c-0.4,0-0.7,0.1-0.8,0.2c-0.7,0-0.2-0.1-1.5-0.1s-0.5,0-0.6,0.1c-0.7,0-1-0.1-0.9-0.2c-2.5,0-5.7,0-8.4,0
					c-0.2,0,0.6-0.1-0.8-0.1s-5.1,0.2-6.4,0.2s-1.9-0.2-3.2-0.2S84.9,2,83.5,2c-1.3,0-2.6-0.1-3.1-0.2c-0.4,0-0.7,0.1-0.7,0.2h-2
					c-0.1-0.1-1.1-0.1-1.5-0.2c-0.3,0-1.4,0.1-1.9,0.3h-2c-0.1-0.1,1-0.1,1-0.2c-0.5,0,0.2,0-1.1,0c-1.3,0-2.4,0.2-3.7,0.2
					S67.8,2,66.5,2c-1.3,0-0.8,0.1-2.1,0.1C63,2.1,64.1,2,62.8,2c-1.3,0-1.1,0-1.2,0.1C60.8,2,60,2,59.2,1.9c-0.9-0.1-2.5,0-3.8,0
					c-1.3,0-2.9,0-3.9,0c-0.6,0-0.9,0.1-1.7,0.2c0,0,0.6,0-0.7,0c-1.3,0-1.9-0.1-2.6-0.2c-0.3,0-0.9,0-2.2,0c-4.5,0-3.1,0.2-5.3,0.2
					c-1.7,0-2-0.2-4.1-0.3h-1.4c-0.4,0-0.3,0-0.3,0.1s1.1,0.1,1,0.2h-3.8c-1.3,0-1.4-0.1-2.7-0.1c-1.3,0-1.9,0-2.8,0.1
					C24.4,2,25.5,2,25.5,1.9c-0.5,0,0.2,0-1.1,0S23.6,2,22.3,2c-1.3,0-0.8-0.1-2.1-0.1c-1.3,0-2.4,0.1-3.7,0.1s-1.9-0.1-3.2-0.1
					S13.5,2,12.2,2c-1.3,0-0.3-0.1-1.6-0.1C9.9,1.9,10,1.9,9.9,2c0,0-0.1,0-0.6,0.2C8.2,2.4,7.3,3.1,7,3.2C6.5,3.8,6.2,4.5,6.3,4.6
					c0.1,0,0.2-0.2,0.3-0.3C6.7,4.1,6.8,3.9,6.8,4c-0.4,0.6-0.5,1-0.6,1.2C6.1,5.5,6,5.8,6,6.3c0,1.3,0,1.1,0.1,1.2
					C6,8.9,5.9,9.8,5.9,11.1C5.9,12.4,6,13,6,14c0,0.5-0.1,0.7-0.2,2h0.3v4.1C6,20.1,6,21.2,5.9,21.5c0.1,1.4,0.2,4.2,0.2,5.5
					S6,29.7,5.9,30.1c0,0.4,0.1,0.7,0.2,0.8c-0.1,2.4-0.2,6.5-0.2,7.9c0,1.8,0,1.7,0.2,1.7v2.8c0,1.3-0.2,3.3-0.2,4.6
					C5.9,49.2,6,48.6,6,50c0,1.3-0.1,2.4-0.1,3.7c0,0.4,0,0.6,0,0.8c0,0.2,0.1,0.4,0.1,0.6c0.1,0.4,0.3,0.7,0.5,1.2
					c0.6,0.9-0.2-0.1,0.4,0.8c0.4,0.4,0.5,0.5,0.7,0.6C7.9,57.7,8,57.8,8.5,58c0.5,0.2,0.9,0.4,1.2,0.4c0.2,0.1,0.4,0.1,0.6,0.1
					c0.3,0,0.5,0,0.9,0c1.3,0,0.8-0.1,2.1-0.1c1.3,0-0.3,0.1,1.1,0.1s0.8-0.1,2.1-0.1c1.3,0,2.6,0.1,3.1,0.2c0.4,0,0.7-0.1,0.7-0.2
					c0.7,0,0.2,0.1,1.5,0.1c1.3,0-0.3-0.1,1.1-0.1c1.3,0-0.3,0.1,1.1,0.1c1.3,0,0.6,0,0.8-0.1c1,0,4.2,0.1,5.1-0.1
					c0.7,0,0.9,0.1,1.1,0.2c0.8,0,1.7,0.1,3.1,0.1c0.8,0,1.8-0.1,2.2-0.3h3c0.6,0.1,0.9,0.2,2.2,0.2c1.3,0,0.3-0.1,1.6-0.1
					c1.3,0,1.9,0.1,3.2,0.1c1.3,0,1.8,0,2.3,0c0.5,0,0.4-0.1,0.7-0.2c0.6,0,1.9,0,3.8-0.1c0.1,0.1-0.5,0.1-0.9,0.1
					c0,0,1.1,0.1,1.4,0.2c0.9-0.1,2-0.1,3.4-0.1s1.9,0.1,3.2,0.1s-0.3-0.1,1.1-0.1c1.3,0,0.4,0.1,0.9,0.1c1,0,1.5,0,2.8,0
					c1.3,0,2.7,0,3.6-0.1v0c1.5,0,0.4,0.1,1.8,0.1c1.3,0,0.8-0.1,2.1-0.1c1.3,0,0.8,0.1,2.1,0.1s0.3-0.1,1.6-0.1s0.8,0.1,2.1,0.1
					c1.3,0,2.2-0.1,2.9-0.2c1.3,0.1,3.2,0.2,4.6,0.2s0.8-0.1,2.1-0.1c1.3,0,0.3,0.1,1.6,0.1c1.3,0,1.1,0,1.1-0.1
					c0.7,0,1,0.1,0.9,0.2h9.1c1.3,0-0.3-0.1,1.1-0.1c1.3,0,0.3,0.1,1.6,0.1c1.3,0,0.8-0.1,2.1-0.1c1.3,0,0.8,0.1,2.1,0.1
					c0.1,0,0.1,0,0.1,0c0,0,0,0,0,0c0,0,0,0,0,0c0,0,0,0,0-0.1c0.1,0.1,0.2,0.2,0.2,0.3c0.1,0,0.4,0.1,0.4,0.2c0,0,0.1-0.1,0.1-0.2
					h0.2c0.1,0,0.1,0.1,0.2,0.1c0,0.1,0.1,0.1,0.1,0.2s-0.1,0.1-0.1,0.2s0.1,0.2,0.2,0.3c-0.1,0.2-0.2,0.3-0.3,0.5
					c-0.1,0-0.1-0.1-0.2-0.1v0.3h-0.1c-0.1,0,0-0.1-0.1-0.1c0,0-0.1,0.1-0.1,0.2c-0.1,0-0.1,0-0.1-0.1c-0.1,0-0.2,0-0.3,0l-0.2,0
					c-0.5,0-1,0-1.4,0c-2.1,0-3.9,0-4.5-0.1c-1.3,0-2.8,0-3.7,0C98.5,60.4,99.5,60.5,99.9,60.6z"/>
			</g>
		</g>
	</g>
	<g>
		<g>
			<g>
				<path fill-rule="evenodd" clip-rule="evenodd" fill="#3A494F" d="M97.6,55.4c-0.7,0-1.5,0-2.4,0c-0.3,0-0.2-0.1-0.6-0.1
					c-1.3,0-2.4,0-3.5-0.1c-1.2,0-0.2,0.1-1.4,0.1s-0.7-0.1-1.9-0.1s-2.6,0.1-3.8,0.1s-0.2-0.1-1.4-0.1s-0.7,0.1-1.9,0.1
					s-2.3-0.1-3.2-0.2c-1.8,0-5.7,0.1-6.9,0.1c-2.3,0-1.5-0.1-3.7-0.1c0,0,0.5,0-0.7,0s-0.7,0-1.9,0s-0.7,0-1.9,0
					c-0.5,0-1.6,0.1-2.1,0.1c-1.7-0.1-3.4-0.1-4.6-0.1c-1.1,0-4.2,0.1-5.3,0.1c-1.2,0-0.2-0.1-1.4-0.1c-1.1,0-1.3,0-2.4,0.1
					c-2.5,0-0.2-0.1-1.9-0.1c-1.2,0-0.2,0-1.4,0c-1.1,0-1.8,0-2.9,0c-1.1,0-6,0.1-7.2,0.1c-1.2,0-3.2,0-4.3-0.1c-1.2,0-3,0-4,0
					c-0.5,0-0.8-0.1-0.7-0.1h-7.8c0.5,0.1,1,0.1,0.9,0.1c-0.6,0-0.6,0-1.8,0c-0.6,0-0.9,0-1.2,0c-0.3,0-0.7,0-1.3-0.1
					c-0.6-0.1-1.4-0.5-2.1-1.1c-0.6-0.6-1.1-1.3-1.3-1.9c-0.2-0.6-0.3-0.9-0.4-1.2C9,50.6,9,50.2,9,49.6c0-1.2,0-0.7,0-1.9
					s0-1.9-0.1-2.6c0-0.7,0.1,0,0.1-1.2c0-1.2,0,0.2,0-1s0,0.2,0-1s0,0.2,0-1s0-0.2,0-1.4c0-1.1,0-1.8,0-2.9c0-1.2,0-1.9,0.1-2.3
					c0-0.4,0-0.6-0.1-0.7c0-0.6,0-0.6,0-1.8c0-1.1,0-1.3,0-2.4c0-1.1,0-2.7,0-3.8c0-1.1,0-2.7,0-3.8c0-1.2,0-1.3,0-1.8
					c0-2.3,0-4.7,0-7.1c0-0.3,0,0.4,0-0.8c0-0.6,0-1.7,0-3c0-1.3,0.8-2.7,1.6-3.4c0,0,0.3-0.3,0.7-0.6c0.4-0.3,0.8-0.4,0.8-0.4
					c0.1,0-1,0.4-1.7,1.2c0,0,0.7-0.7,1.6-1.1c0.9-0.4,1.9-0.4,1.9-0.4c1.2,0,0.5-0.1,1.7-0.1c1.1,0,1.8,0,2.9,0c1.2,0,0.7,0,1.9,0
					s0.2,0,1.4,0c1.1,0,1.8,0,2.9,0c1.2,0,4.1,0,5.3,0c0.9,0,2.9,0,3.6,0c0.7,0,1.7,0.1,2.1,0.1c1.3,0,1.6,0,1.6,0s-1,0-0.8-0.1
					c1.2,0.1,2.5,0.1,3.7,0.1c0.3,0,2.6-0.1,3-0.1h1.8c0.1,0.1,1,0.1,1.4,0.1c0.4,0,0.6,0,0.7-0.1c1.2,0.1,2,0.1,3.2,0.1
					c1.1,0,3.3-0.1,4.3-0.1c1.2,0,0.7,0,1.9,0s1,0,1.1,0c0.7,0,0.1,0.1,1.3,0.1s-0.2,0,1,0c1.1,0,1.3,0,2.4,0c2.1,0,2.6,0,3-0.1h1.8
					c0.1,0,0.8,0.1,1.5,0.1c1.2,0-0.2,0,1,0s-0.2,0,1,0s1.8-0.1,2.6-0.1c0.7,0,1.5,0,2.6,0c1.1,0,6,0.1,7.2,0.1
					c4.1,0,2.9-0.1,4.8-0.1c2,0,0.7,0.1,4.8,0.1c1.1,0,2.7,0,3.8,0c1.2,0,3.3,0.1,4.6,0.1c0.4,0,0.6,0,0.7-0.1h1.6
					c1.2,0,1,0,1.9,0.1c0.3,0,0.2,0.1,0.6,0.1c0,0,0.4,0,0.7,0.1c0.3,0.1,0.7,0.2,0.7,0.2c0.6,0.2,0.8,0.4,0.9,0.4
					c0.1,0.1,0.2,0.1,0.5,0.3c0.4,0.3,0.8,0.8,1.2,1.3c0.3,0.5,0.6,1.1,0.7,1.6c0.1,0.5,0-0.4,0.1,0.9c0,1.2,0,3.3-0.1,4.6
					c0,0.4,0,0.6,0.1,0.8c0,0.7,0,2,0,3.2s0,2.5,0,3.5c0,0.5-0.1,0.8-0.1,0.7V25c0,0.4,0.1,0.3,0.1,0.4v2.5c0,1.2,0,0.5,0,1.7
					s0,1.4,0,1.5c-0.1,3.4-0.1,1.3-0.1,4.7c0,2.1,0.1,4.6,0.1,5.3c0,1.2-0.1,2.2-0.1,3.4c0,1.2,0.1,0.2,0.1,1.4s-0.1-0.2-0.1,1
					c0,0.6,0,1.6,0,2.6c0,0.5,0,1.1-0.1,1.6c-0.1,0.5-0.3,1-0.5,1.4c-0.2,0.3,0.1,0-0.7,1c-0.4,0.5-1.1,0.9-1.8,1.2
					c-0.3,0.1-0.7,0.2-1,0.3l-0.2,0c-0.1,0-0.2,0-0.1,0l0,0l-0.1,0c0,0,0,0.1,0,0.1c-0.1-0.1-0.2-0.2-0.3-0.1c0,0,0,0,0-0.1
					c0-0.1-0.2-0.2-0.2-0.3c0-0.1,0,0,0-0.1c0,0,0.2-0.1,0.2-0.2c0-0.1,0-0.1,0-0.1c0.1,0,0.2-0.1,0.2-0.1c0,0,0.1,0,0.1,0
					c0,0,0,0,0.1,0c0.1,0,0.2,0,0.4-0.1c0.2,0,0.5-0.1,0.7-0.2c0.5-0.2,0.8-0.5,1.1-0.7c0.3-0.3,0.5-0.5,0.8-1
					c0.5-0.9,0.2-0.3,0.4-0.6c0.2-0.4,0.3-0.8,0.3-1.3c0-0.5,0-1.1,0-1.6c0-1.1,0-2.1,0-2.7c0-1.2,0-2.2,0-3c0-0.8-0.1-1.6-0.1-2.8
					c0-1.2,0-0.4,0-0.8c0-0.9,0-2.3,0-3.5c0-1.2,0-3.5,0-5.6c0-0.1,0,0.4,0.1,0.9c0,0,0-1,0.1-1.3c0-0.4-0.1-0.4-0.1-1.6
					s0-0.9,0.1-1.2c0-0.8,0-1.6-0.1-1.6s0,1-0.1,0.9v-2.7c0.1-0.6,0.1-1.3,0.1-2.5s0,0.2,0-1c0-1.2,0,0.2,0-1s0-0.7,0-1.9
					c0-1.1,0-1.3,0-2.4c0-1.2,0-3.2-0.1-4.5c0-0.9-0.1-1.3-0.3-1.9c0-0.1,0.2,0.7,0.3,0.7c-0.1-1-0.7-2.2-1.6-2.9
					c-0.9-0.7-2-0.9-2.5-0.9c-1.2,0-2.4,0-3.2,0v0c-1.4,0-0.6,0-1-0.1c-0.4,0-0.6,0-0.7,0.1c-0.6,0-0.2,0-1.4,0s-0.5,0-0.5,0
					c-0.6,0-0.9-0.1-0.8-0.1c-2.2,0-5.1,0-7.5,0c-0.2,0,0.5,0-0.7,0c-1.1,0-4.6,0.1-5.8,0.1c-1.2,0-1.7-0.1-2.9-0.1s0.2,0.1-1,0.1
					s-2.4-0.1-2.8-0.1c-0.4,0-0.6,0-0.7,0.1h-1.8c-0.1,0-1-0.1-1.3-0.1c-0.3,0-1.2,0-1.7,0.1h-1.8c-0.1,0,0.9-0.1,0.9-0.1
					c-0.4,0,0.2,0-1,0s-2.2,0.1-3.4,0.1s-0.7,0-1.9,0s-0.7,0-1.9,0s-0.2,0-1.4,0s-1,0-1.1,0c-0.7,0-1.4-0.1-2.1-0.1
					c-0.8,0-2.3,0-3.5,0c-1.2,0-2.6,0-3.5,0c-0.5,0-0.9,0-1.6,0.1c0,0,0.5,0-0.7,0s-1.7-0.1-2.3-0.1c-0.3,0-0.8,0-2,0
					c-4.1,0-2.8,0.1-4.8,0.1c-1.6,0-1.8-0.1-3.7-0.2h-1.3c-0.4,0-0.3,0-0.3,0.1s1,0.1,0.9,0.1h-3.5c-1.2,0-1.3,0-2.5,0s-1.7,0-2.5,0
					c-0.1,0,0.8-0.1,0.8-0.1c-0.4,0,0.2,0-1,0S26,5.4,24.8,5.4s-0.7-0.1-1.9-0.1c-1.1,0-2.2,0-3.4,0.1c-1.1,0-1.8,0-2.9-0.1
					c-1.2,0,0.2,0.1-1,0.1s-0.2-0.1-1.4-0.1c-0.6,0-0.6,0-0.7,0.1c0,0-0.1,0-0.6,0.2c-1.1,0.3-1.9,1-2.1,1.2
					c-0.5,0.5-0.8,1.3-0.7,1.3c0,0,0.4-0.8,0.4-0.7c-0.4,0.6-0.5,1-0.6,1.3C9.9,9,9.8,9.2,9.8,9.8c0,1.2,0,1,0,1.1
					c-0.1,1.2-0.1,2-0.1,3.2c0,1.1,0,1.8,0,2.6c0,0.5-0.1,0.6-0.1,1.8h0.1v3.7c0,0.1-0.1,1-0.1,1.3c0,1.2,0.1,3.8,0.1,5
					s-0.1,2.4-0.1,2.8c0,0.4,0,0.6,0.1,0.7c0,2.2-0.1,5.9-0.1,7.1c0,1.6,0,1.6,0.1,1.5v2.5c0,1.2-0.1,2.9-0.1,4.1s0,0.7,0,1.9
					c0,0.6,0,1.1,0,1.6c0.1,0.5,0.2,1,0.5,1.4c0.3,0.5,0.5,0.8,0.8,1c0.3,0.3,0.6,0.5,1.1,0.7c1,0.4-0.2,0,0.8,0.3
					c0.5,0.1,0.7,0.1,0.9,0.1c0.2,0,0.4,0,0.9,0c1.1,0,1.8,0,2.9,0.1c1.2,0,0.7-0.1,1.9-0.1s-0.2,0.1,1,0.1s0.7-0.1,1.9-0.1
					s2.4,0.1,2.8,0.1c0.4,0,0.6,0,0.7-0.1c0.6,0,0.2,0,1.4,0s-0.2-0.1,1-0.1s-0.2,0.1,1,0.1s0.5,0,0.8,0c0.9,0,3.8,0,4.6-0.1
					c0.6,0,0.8,0.1,1,0.1c0.7,0,1.6,0.1,2.8,0.1c0.7,0,1.6-0.1,2-0.1h2.7c0.6,0.1,0.8,0.1,2,0.1s0.2-0.1,1.4-0.1
					c1.1,0,1.8,0,2.9,0.1c1.2,0,1.6,0,2.1,0c0.4,0,0.4-0.1,0.6-0.1c0.5,0,1.6,0,3.4-0.1c0.1,0-0.4,0-0.9,0.1c0,0,1,0,1.3,0.1
					c0.8,0,1.8-0.1,3-0.1c1.1,0,1.8,0,2.9,0.1c1.2,0-0.2-0.1,1-0.1s0.4,0,0.8,0c0.9,0,1.4,0,2.5,0c1.2,0,2.4,0,3.2,0v0
					c1.4,0,0.4,0.1,1.6,0.1s0.7-0.1,1.9-0.1s0.7,0.1,1.9,0.1s0.2-0.1,1.4-0.1s0.7,0.1,1.9,0.1s1.9,0,2.6-0.1
					c1.2,0.1,2.9,0.1,4.1,0.1s0.7-0.1,1.9-0.1s0.2,0.1,1.4,0.1c1.2,0,1,0,1,0c0.6,0,0.9,0.1,0.8,0.1h8.2c1.2,0-0.2-0.1,1-0.1
					c1.2,0,0.2,0,1.4,0s0.7,0,1.9,0s0.7,0,1.9,0c0,0,0.1,0,0.1,0c0,0,0,0,0,0c0,0,0,0,0,0c0,0,0,0,0,0c0,0,0.1,0.1,0.1,0.1
					c0.1,0,0.2,0.1,0.2,0.1c0,0,0,0,0-0.1h0.1c0.1,0,0.1,0,0.1,0.1c0,0,0.1,0,0.1,0.1s0,0,0,0.1s0,0.1,0.1,0.1
					c-0.1,0.1-0.1,0.2-0.2,0.2c0,0-0.1,0-0.1-0.1v0.2H105c-0.1,0,0,0,0,0c0,0,0,0,0,0.1c0,0,0,0-0.1,0c0,0-0.1,0-0.1,0l-0.1,0
					c-0.4,0-0.9,0-1.3,0c-1.9,0-3.5,0-4.1,0c-1.2,0-2.5,0-3.4,0C96.5,55.3,97.2,55.3,97.6,55.4z"/>
			</g>
		</g>
	</g>
</g>
<g>
</g>
<g>
</g>
<g>
</g>
<g>
</g>
<g>
</g>
<g>
</g>
<g>
</g>
<g>
</g>
<g>
</g>
<g>
</g>
<g>
</g>
<g>
</g>
<g>
</g>
<g>
</g>
<g>
</g>
</svg>
