<?xml version="1.0" encoding="utf-8"?>
<!-- Generator: Adobe Illustrator 18.0.0, SVG Export Plug-In . SVG Version: 6.00 Build 0)  -->
<!DOCTYPE svg PUBLIC "-//W3C//DTD SVG 1.1//EN" "http://www.w3.org/Graphics/SVG/1.1/DTD/svg11.dtd">
<svg version="1.1" id="Layer_1" xmlns="http://www.w3.org/2000/svg" xmlns:xlink="http://www.w3.org/1999/xlink" x="0px" y="0px"
	 viewBox="0 0 166.4 189.6" enable-background="new 0 0 166.4 189.6" xml:space="preserve">
<g>
	<rect x="1.9" y="1.9" fill="#FFFFFF" width="162.9" height="106.4"/>
	<g>
		<g>
			<path fill-rule="evenodd" clip-rule="evenodd" fill="#3A494F" d="M149.3,110.5c-1.2-0.1-2.7-0.1-4.3-0.2
				c-0.5-0.1-0.3-0.3-1.1-0.3c-2.5,0-4.2-0.2-6.4-0.2c-2.2,0-0.4,0.2-2.6,0.2c-2.2,0-1.3-0.2-3.5-0.2c-2.2,0-4.8,0.4-7,0.4
				c-2.2,0-0.4-0.2-2.6-0.2c-2.2,0-1.3,0.2-3.5,0.2c-2.2,0-4.3-0.4-5.8-0.6c-3.2,0.2-10.5,0.4-12.7,0.4c-4.3,0-2.7-0.2-6.7-0.3
				c0,0,1,0-1.2,0s-1.3,0.2-3.5,0.2c-2.2,0-1.3-0.2-3.5-0.2c-1,0-3,0.2-3.8,0.6c-3-0.2-6.3-0.6-8.5-0.6c-2.2,0-7.5,0.4-9.7,0.4
				c-2.2,0-0.4-0.2-2.6-0.2c-2.2,0-2.2,0.2-4.4,0.2c-4.5,0-0.4-0.4-3.5-0.4c-2.2,0-0.4,0.2-2.6,0.2c-2.2,0-3.1-0.2-5.3-0.2
				c-2.2,0-11,0.4-13.2,0.4s-5.7-0.2-7.9-0.2c-2.2,0-5.5,0.1-7.4,0.2c-1,0-1.4-0.2-1.3-0.4H2.9H1.7H1.1H0.8H0.7c0,0-0.1,0-0.1,0
				v-2.4c-0.1,0.8-0.2,1.6-0.2,2.2c0,0.1,0,0.3,0,0.4l0,0.1c0,0,0,0,0.1,0l0.1,0c0.1,0,0.2,0,0.1,0.1c-0.1,0-0.3,0-0.3,0
				c0-0.1,0-0.2,0-0.3c0-0.2,0-0.4,0-0.6c0-0.3,0-0.7,0.1-1.1c0-0.7,0.1-2,0.1-2.9c0-2.2-0.2-2.2-0.2-4.4c0-2.2,0.4-5.7,0.4-7.9
				c0-2.2-0.2-2.2-0.2-4.4c0-2.2,0.2-1.3,0.2-3.5c0-2.2-0.2-3.6-0.4-4.8c0.1-1.3,0.4-0.1,0.4-2.3c0-2.2-0.2,0.4-0.2-1.8
				c0-2.2,0.2,0.4,0.2-1.8c0-2.2-0.2,0.4-0.2-1.8c0-2.2,0.2-0.4,0.2-2.6c0-2.2-0.2-3.1-0.2-5.3c0-2.2,0-3.5,0.2-4.2
				c0-0.6-0.1-1.1-0.4-1.2c0-1.2,0.2-1.2,0.2-3.4s-0.2-2.2-0.2-4.4c0-2.2,0.2-4.8,0.2-7c0-2.2-0.2-4.8-0.2-7c0-2.2,0.1-2.4,0.2-3.2
				c0-4.3,0-8.7,0.1-12.9c0.1-0.5,0.2,0.8,0.2-1.4c0-2.2-0.4-8.1-0.6-11.8V5.1C0.1,5,0.2,6.8,0.4,8.5V4.3V0.5l0-0.2l0.2,0
				c0.1,0,0.2,0,0.3,0c0.2,0,0.4,0,0.5,0c0.3,0,0.5,0,0.7,0c0.4,0,0.6,0,0.8-0.1c0.2,0,0.4,0,0.8-0.1c0.5,0,0.8,0,1.3,0
				c2.2,0,3.1,0.2,5.3,0.2s1.3-0.2,3.5-0.2c2.2,0,0.4,0.2,2.6,0.2c2.2,0,3.1-0.2,5.3-0.2c2.2,0,7.5,0.1,9.7,0.2
				c1.6,0,5.3,0.1,6.5-0.2c1.3,0.1,3.1,0.2,3.8,0.4c2.4,0,2.8,0.1,2.8-0.1c0-0.2-1.8-0.1-1.5-0.3c2.2,0.2,4.6,0.4,6.8,0.4
				c0.5,0,4.7-0.2,5.4-0.6h3.2c0.1,0.2,1.8,0.4,2.5,0.6c0.6,0,1.1-0.1,1.4-0.4c2.2,0.2,3.7,0.4,5.9,0.4c2.2,0,5.7-0.4,7.9-0.4
				s1.3,0.2,3.5,0.2c2.2,0,1.8,0,2-0.2C83,0.3,81.8,0.6,84,0.6s-0.4-0.2,1.8-0.2c2.2,0,2.2,0.2,4.4,0.2c3.8,0,4.7,0,5.4-0.6h3.3
				c0.1,0.2,1.4,0.6,2.7,0.6c2.2,0-0.4-0.2,1.8-0.2c2.2,0-0.4,0.2,1.8,0.2c2.2,0,3.3-0.2,4.8-0.3c1.3-0.1,2.7,0,4.9,0
				c2.2,0,11,0.4,13.2,0.4c7.6,0,5.3-0.4,8.8-0.4c3.7,0,1.2,0.4,8.8,0.4c2.2,0,4.8-0.2,7-0.2s6,0.2,8.5,0.4c0.8,0,1.2-0.1,1.3-0.4
				c0,0,1.1,0,2.3,0c0.6,0,1.2,0,1.7,0h0.1c0,0,0,0.1,0,0.1c0,0.1,0,0.1,0,0.2c0,0.1,0,0.2,0,0.2c0,0.1,0,0.2,0,0.2
				c0,0.9,0,1.6,0,2.1c0,0.2,0,0.5,0,0.7c0,0.2,0,0.4,0,0.4c-0.1,0.4-0.1,0.7-0.1,1.5c-0.1,0.5-0.3,0.4-0.3,1.1v2.5
				c0,2.2,0.2,1.4,0.3,2.6c0,1.7,0,4.3,0.1,6c0.1,0.8,0.2-0.7,0.2,1.5c0,2.2-0.2,6-0.4,8.5c0,0.8,0.1,1.2,0.4,1.5
				c-0.1,1.4-0.2,3.7-0.2,5.9s0.1,4.6,0.2,6.5c0,1-0.2,1.4-0.4,1.3v4.8c0.1,0.7,0.2,0.6,0.4,0.7v4.6c0,2.2-0.2,1-0.2,3.2
				c0,2.2,0,2.6,0.2,2.8c-0.2,6.2-0.4,2.4-0.4,8.6c0,3.8,0.4,8.5,0.4,9.7c0,2.2-0.4,4-0.4,6.1s0.2,0.4,0.2,2.6s-0.2-0.4-0.2,1.8
				c0,2.2,0.2,7.3,0.4,10.1c0,0.7,0,0,0,2.2c0,1.1-0.1,2.4-0.1,3.6c0,0.6-0.1,1.2-0.1,1.7c0,0.1,0,0.3,0,0.4l0,0.2c0,0.1,0,0,0,0.1
				l-0.1,0.1v0.3c0.1,0.1,0.2,0.1,0.4,0.1c-0.4,0.3-0.6,0.6-0.6,1.1c-0.1,0-0.1-0.2-0.4-0.2c-0.6,0-0.6,0.8-1,0.8
				c-0.2,0-0.2,0-0.2-0.1c-0.1-0.2-0.2-0.9-0.6-0.9c-0.2,0-0.2,0.2-0.4,0.2c0-0.6-0.4-0.7-0.4-0.9c0-0.1,0-0.2,0.1-0.3l0,0
				c0,0,0,0,0-0.1l0-0.8c0-0.5,0-1,0-1.6c0-2.2-0.2-3.1-0.2-5.3s0.1-0.7,0.2-1.5c0.1-3.4,0.2-8.6,0.2-10.8c0-2.2,0.1-4,0-5.5
				c-0.1-1.4-0.4-2.9-0.4-5.1s0.1-0.7,0.2-1.5c0-1.6,0-4.2,0-6.4c0-2.2,0-6.4-0.2-10.3c0.1-0.2,0.2,0.8,0.2,1.6
				c0.1,0,0.1-1.7,0.3-2.5c0-0.6-0.2-0.6-0.2-2.8c0-2.2,0.1-1.6,0.2-2.3c-0.1-1.5,0-3-0.3-3s-0.1,1.8-0.3,1.6v-4.9
				c0.2-1,0.4-2.4,0.4-4.6s-0.2,0.4-0.2-1.8c0-2.2,0.2,0.4,0.2-1.8c0-2.2-0.2-1.3-0.2-3.5c0-2.2,0.2-2.2,0.2-4.4
				c0-2.2-0.1-5.8-0.2-8.2c-0.1-1.5-0.3-2.5-0.4-3.9c0.1-0.3,0.2,1.5,0.4,1.6c0-4.1,0.2-10.2,0.2-12.4c0-0.5,0-1.1,0-1.6
				c0-0.2,0-0.4,0-0.6l0-0.2l0-0.2l0-0.1c0,0-0.1,0-0.1,0c-0.1,0-0.2,0-0.3,0.1l0,0.1c-0.3,0-0.5,0-0.6,0c-0.2,0-0.3,0-0.3,0
				c0,0,0.1-0.1-0.2-0.1c-0.7,0-1.1,0.1-1.3,0.4c-1.2,0-0.3-0.2-2.5-0.2s-0.9,0-1,0.2c-1.2,0-1.6-0.2-1.5-0.4c-4.1,0-9.4,0-13.8,0
				c-0.4-0.1,0.9-0.1-1.3-0.1c-2.2,0-8.3,0.4-10.5,0.4c-2.2,0-3.1-0.4-5.3-0.4c-2.2,0,0.4,0.2-1.8,0.2c-2.2,0-4.3-0.2-5.1-0.4
				c-0.6,0-1.1,0.1-1.2,0.4h-3.3c-0.1-0.1-1.8-0.2-2.4-0.4c-0.5,0-2.3,0.2-3.1,0.6h-3.2c-0.1-0.1,1.6-0.2,1.7-0.3
				c-0.8-0.1,0.4-0.1-1.8-0.1s-4,0.4-6.1,0.4c-2.2,0-1.3-0.2-3.5-0.2c-2.2,0-1.3,0.2-3.5,0.2c-2.2,0-0.4-0.2-2.6-0.2
				c-2.2,0-1.8,0-2,0.2c-1.3-0.1-2.6-0.2-3.9-0.4c-1.4-0.1-4.1,0-6.3,0s-4.8,0-6.4,0c-1,0-1.6,0.2-2.9,0.3c0,0,1,0-1.2,0
				c-2.2,0-3.1-0.2-4.3-0.4c-0.5-0.1-1.4,0-3.6,0c-7.5,0-5.2,0.4-8.8,0.4c-2.9,0-3.3-0.3-6.7-0.6h-2.4c-0.7,0.1-0.6,0-0.6,0.2
				c0,0.2,1.8,0.2,1.6,0.4h-6.3c-2.2,0-2.3-0.2-4.5-0.2c-2.2,0-3.2,0.1-4.6,0.2c-0.3-0.1,1.5-0.2,1.5-0.3c-0.8-0.1,0.4-0.1-1.8-0.1
				c-2.2,0-1.3,0.2-3.5,0.2c-2.2,0-1.3-0.2-3.5-0.2s-4,0.2-6.1,0.2c-2.2,0-3.1-0.2-5.3-0.2C4.5,3.4,7.2,3.6,5,3.6
				c-0.5,0-0.9,0-0.9,0c0,0-0.1,0-0.1-0.1c0,0-0.1-0.1-0.5-0.1C3.3,3.3,3.4,3.6,3.4,3.6c0,0.1,0,0.1,0.1,0.1c0,0.1,0.1,0.1,0.1,0.4
				c0,2.1-0.2,4.3-0.4,4.9c0.1,1.4,0,2.9,0.3,2.9c0.2,0,0.1-1.8,0.3-1.6c0,2.9-0.2,2.9-0.2,5.1s0,1.8,0.2,2
				c-0.2,2.2-0.4,3.7-0.4,5.9s0.2,3.1,0.2,4.8c0,0.9-0.2,1.1-0.4,3.3h0.6v6.7c-0.1,0.1-0.2,1.8-0.4,2.4c0.2,2.3,0.4,6.9,0.4,9.1
				c0,2.2-0.2,4.3-0.4,5.1c0,0.6,0.1,1.1,0.4,1.3c-0.2,3.9-0.4,10.8-0.4,13c0,3,0,2.9,0.4,2.8v4.6c0,2.2-0.4,5.4-0.4,7.6
				s0.2,1.3,0.2,3.5c0,2.2-0.2,4-0.2,6.1c0,2.2,0.2,3.1,0.2,5.3c0,2.2-0.2-0.4-0.2,1.8c0,2.2,0.2,1.3,0.2,3.5c0,0.5,0,1,0,1.4
				c0,0.6,0,0.5-0.1,0.6c0,0.1,0,0.3-0.1,0.4c0,0.1,0,0.1,0.1,0.1c0.1,0,0.2,0,0.3,0c0.1,0,0.2,0,0.2,0c0.1,0,0.1,0,0.2,0
				c0.3,0,0.4,0,0.6-0.1c0.3,0,0.7-0.1,1.8-0.1c2.2,0-0.4,0.2,1.8,0.2s1.3-0.2,3.5-0.2c2.2,0,4.3,0.2,5.1,0.4c0.6,0,1.1-0.1,1.2-0.4
				c1.2,0,0.3,0.2,2.5,0.2c2.2,0-0.4-0.2,1.8-0.2c2.2,0-0.4,0.2,1.8,0.2c2.2,0,0.9-0.1,1.4-0.1c1.7-0.1,6.9,0.2,8.5-0.2
				c1.1,0,1.5,0.2,1.8,0.3c1.3,0.1,2.8,0.3,5,0.3c1.3,0,3-0.2,3.7-0.6h4.9c1,0.2,1.5,0.4,3.7,0.4c2.2,0,0.4-0.2,2.6-0.2
				c2.2,0,3.1,0.2,5.3,0.2c2.2,0,3,0,3.8,0c0.8-0.1,0.7-0.2,1.1-0.3c0.9,0,3.1-0.1,6.3-0.2c0.2,0.1-0.8,0.2-1.6,0.2
				c0,0.1,1.7,0.1,2.4,0.3c1.4-0.1,3.4-0.2,5.6-0.2c2.2,0,3.1,0.2,5.3,0.2c2.2,0-0.4-0.2,1.8-0.2c2.2,0,0.7,0.1,1.5,0.2
				c1.6,0,2.5,0,4.7,0c2.2,0,4.5,0,5.9-0.1v-0.1c2.5,0,0.7,0.2,2.9,0.2c2.2,0,1.3-0.2,3.5-0.2c2.2,0,1.3,0.2,3.5,0.2
				s0.4-0.2,2.6-0.2c2.2,0,1.3,0.2,3.5,0.2c2.2,0,3.6-0.2,4.8-0.4c2.1,0.2,5.3,0.4,7.5,0.4c2.2,0,1.3-0.2,3.5-0.2
				c2.2,0,0.4,0.2,2.6,0.2c2.2,0,1.8,0,1.9-0.2c1.2,0,1.6,0.2,1.5,0.4h15.1c2.2,0-0.4-0.2,1.8-0.2s0.4,0.2,2.6,0.2s1.3-0.2,3.5-0.2
				c2.2,0,1.3,0.2,3.5,0.2c0.1,0,0.2,0,0.2,0c0,0,0,0,0.1,0c0,0,0,0,0.1,0c0,0,0-0.1,0-0.1c0.1,0.1,0.3,0.3,0.4,0.6
				c0.2,0,0.7,0.2,0.7,0.4c0.1,0,0.1-0.1,0.1-0.4h0.3c0.2,0,0.2,0.2,0.4,0.2c0,0.2,0.2,0.2,0.2,0.4s-0.2,0.1-0.2,0.4
				s0.2,0.4,0.4,0.5c-0.2,0.3-0.4,0.6-0.6,0.9c-0.1,0-0.2-0.2-0.4-0.2v0.6h-0.3c-0.2,0-0.1-0.1-0.2-0.2c-0.1,0-0.1,0.1-0.1,0.4
				c-0.1,0-0.2-0.1-0.2-0.1c-0.2,0-0.3,0-0.5,0l-0.3,0c-0.8,0-1.6,0-2.4,0c-3.4,0-6.4-0.1-7.5-0.1c-2.2,0-4.6,0-6.2,0.1
				C147.1,110.2,148.7,110.4,149.3,110.5z"/>
		</g>
	</g>
</g>
<g>
	<rect x="2.1" y="86.4" fill="#3A494F" width="162.2" height="100.8"/>
	<g>
		<g>
			<path fill-rule="evenodd" clip-rule="evenodd" fill="#3A494F" d="M149,189.6c-1.2-0.1-2.6-0.1-4.2-0.2c-0.5-0.1-0.3-0.3-1.1-0.3
				c-2.5,0-4.1-0.2-6.3-0.2s-0.4,0.2-2.6,0.2s-1.3-0.2-3.4-0.2c-2.1,0-4.7,0.4-6.9,0.4s-0.4-0.2-2.6-0.2c-2.1,0-1.3,0.2-3.4,0.2
				s-4.2-0.4-5.6-0.6c-3.2,0.2-10.2,0.4-12.4,0.4c-4.2,0-2.7-0.2-6.5-0.4c0,0,1,0-1.2,0c-2.1,0-1.3,0.2-3.4,0.2
				c-2.1,0-1.3-0.2-3.4-0.2c-1,0-2.9,0.2-3.7,0.6c-3-0.2-6.2-0.6-8.3-0.6c-2.1,0-7.3,0.4-9.4,0.4s-0.4-0.2-2.6-0.2
				c-2.1,0-2.1,0.2-4.3,0.2c-4.4,0-0.4-0.4-3.4-0.4c-2.1,0-0.4,0.2-2.6,0.2s-3-0.2-5.1-0.2S35.8,189,33.7,189
				c-2.1,0-5.6-0.2-7.7-0.2c-2.1,0-5.4,0.1-7.2,0.2c-1,0-1.4-0.2-1.3-0.4H3.1c1.7,0.2,2.2,0.3,2.2,0.4c-0.3,0-0.5,0-0.7,0
				c-0.3,0-0.6,0-0.9-0.1c-0.4,0-0.8,0-1.3-0.1c-0.3,0-0.6,0-0.9,0c-0.2,0-0.4,0-0.6,0c-0.1,0-0.2,0-0.3,0c0,0-0.1,0-0.1,0l0-0.2
				c0-1.8,0-2.7-0.1-3.6c0-0.3,0-0.6-0.1-0.9c0-0.3,0-0.7,0-1.3c0-2.1,0.4-5.6,0.4-7.7s-0.2-2.1-0.2-4.3c0-2.1,0.2-1.3,0.2-3.4
				c0-2.1-0.2-3.5-0.4-4.6c0.1-1.2,0.4-0.1,0.4-2.2s-0.2,0.4-0.2-1.7c0-2.1,0.2,0.4,0.2-1.7c0-2.1-0.2,0.4-0.2-1.7
				c0-2.1,0.2-0.4,0.2-2.6c0-2.1-0.2-3-0.2-5.1c0-2.1,0-3.4,0.2-4.1c0-0.6-0.2-1.1-0.4-1.2c0-1.2,0.2-1.2,0.2-3.3s-0.2-2.1-0.2-4.3
				c0-2.1,0.2-4.7,0.2-6.9s-0.2-4.7-0.2-6.9s0.1-2.4,0.2-3.1c0-4.2,0-8.5,0.1-12.6c0.1-0.5,0.2,0.8,0.2-1.4s-0.4-8-0.6-11.5v-3
				c0.1-0.1,0.2,1.7,0.4,3.4v-4.1v-3.8c0,0,0-0.1,0-0.1l0.2,0c0.1,0,0.2,0,0.3,0c0.2,0,0.3,0,0.5,0c0.3,0,0.5,0,0.7,0
				c0.4,0,0.6,0,0.8-0.1c0.2,0,0.4-0.1,0.8-0.1c0.2,0,0.4,0,0.7,0c0.2,0,0.4,0,0.7,0c2.1,0,3,0.2,5.1,0.2c2.1,0,1.3-0.2,3.4-0.2
				c2.1,0,0.4,0.2,2.6,0.2c2.1,0,3-0.2,5.1-0.2c2.1,0,7.3,0.2,9.4,0.2c1.6,0,5.2,0.1,6.3-0.2c1.2,0.1,3,0.2,3.7,0.4
				c2.3,0,2.8,0.1,2.8-0.1s-1.7-0.1-1.4-0.3c2.2,0.2,4.4,0.4,6.6,0.4c0.5,0,4.6-0.2,5.3-0.6h3.2c0.1,0.2,1.8,0.4,2.5,0.6
				c0.6,0,1.1-0.2,1.3-0.4c2.2,0.2,3.6,0.4,5.7,0.4c2.1,0,5.6-0.4,7.7-0.4s1.3,0.2,3.4,0.2c2.1,0,1.7,0,2-0.2
				c1.3,0.1,0.2,0.4,2.3,0.4c2.1,0-0.4-0.2,1.7-0.2c2.1,0,2.1,0.2,4.3,0.2c3.7,0,4.6,0,5.3-0.6h3.2c0.1,0.2,1.4,0.6,2.7,0.6
				c2.1,0-0.4-0.2,1.7-0.2c2.1,0-0.4,0.2,1.7,0.2c2.1,0,3.2-0.3,4.7-0.4c1.3-0.1,2.6,0,4.7,0c2.1,0,10.7,0.4,12.9,0.4
				c7.4,0,5.1-0.4,8.6-0.4c3.6,0,1.2,0.4,8.6,0.4c2.1,0,4.7-0.2,6.9-0.2s5.8,0.2,8.3,0.4c0.7,0,1.2-0.2,1.3-0.4h2.9
				c0.3,0,0.6,0,0.9,0c0.3,0,0.6,0,0.9,0c0.5,0,0.8,0,1.1,0.1c0.3,0,0.6,0,0.9,0.1c0.1,0,0.2,0,0.3,0c0.1,0,0.2,0,0.2,0.1
				c0,0.2,0,0.5,0,0.8c-0.1,0.8-0.3,0.8-0.4,1.8v2.7c0,2.1,0.2,1.4,0.4,2.6c0,1.7,0,4.2,0.1,5.9c0.1,0.8,0.2-0.7,0.2,1.4
				c0,2.1-0.2,5.8-0.4,8.3c0,0.7,0.2,1.2,0.4,1.4c-0.1,1.3-0.2,3.6-0.2,5.7c0,2.1,0.1,4.5,0.2,6.3c0,1-0.2,1.4-0.4,1.3v4.7
				c0.1,0.7,0.3,0.6,0.4,0.7v4.5c0,2.1-0.2,1-0.2,3.1c0,2.1,0,2.6,0.2,2.8c-0.3,6.1-0.4,2.4-0.4,8.4c0,3.7,0.4,8.2,0.4,9.4
				c0,2.1-0.4,3.9-0.4,6c0,2.1,0.2,0.4,0.2,2.6c0,2.1-0.2-0.4-0.2,1.7s0.2,7.1,0.4,9.9c0,0.7,0,0,0,2.1c0,1.1-0.1,2.3-0.1,3.5
				c0,0.6-0.1,1.2-0.1,1.7c0,0.1,0,0.3,0,0.4l0,0.2c0,0.1,0,0,0,0.1c0,0,0,0.1-0.1,0.1v0.3c0.1,0.1,0.3,0.1,0.4,0.1
				c-0.4,0.3-0.6,0.6-0.6,1.1c-0.1,0-0.1-0.2-0.4-0.2c-0.6,0-0.7,0.8-1.1,0.8c-0.2,0-0.2,0-0.2-0.1c-0.1-0.2-0.2-0.9-0.6-0.9
				c-0.2,0-0.2,0.2-0.4,0.2c0-0.6-0.4-0.7-0.4-1c0-0.1,0-0.2,0.1-0.3l0,0c0,0,0,0,0-0.1l0-0.7c0-0.5,0-1,0-1.5c0-2.1-0.2-3-0.2-5.1
				c0-2.1,0.1-0.7,0.2-1.4c0.1-3.3,0.2-8.4,0.2-10.6c0-2.1,0.1-3.9,0-5.3c-0.1-1.4-0.4-2.8-0.4-5c0-2.1,0.1-0.7,0.2-1.4
				c0-1.6,0-4.1,0-6.3c0-2.1,0-6.2-0.2-10.1c0.1-0.2,0.2,0.8,0.3,1.5c0.1,0,0.2-1.7,0.3-2.4c0-0.6-0.2-0.6-0.2-2.8
				c0-2.1,0.1-1.6,0.2-2.2c-0.1-1.5-0.1-2.9-0.3-2.9s-0.1,1.7-0.3,1.6v-4.8c0.2-1,0.4-2.3,0.4-4.5c0-2.1-0.2,0.4-0.2-1.7
				s0.2,0.4,0.2-1.7c0-2.1-0.2-1.3-0.2-3.4s0.2-2.1,0.2-4.3c0-2.1-0.1-5.7-0.2-8c-0.1-1.5-0.3-2.5-0.4-3.8c0.1-0.3,0.2,1.4,0.4,1.6
				c0-2,0-4.5,0.1-6.8c0-1.9,0.1-3.5,0.1-4.4c0.1-0.4-0.3-0.2-0.5-0.3c-0.4,0-0.8,0-1.2,0c-0.4,0-0.8,0-1.2,0.1v0.1
				c-2.4,0-1-0.1-1.7-0.2c-0.7,0-1.1,0.2-1.2,0.4c-1.2,0-0.3-0.2-2.4-0.2s-0.9,0-1,0.2c-1.2,0-1.6-0.2-1.5-0.4c-4,0-9.2,0-13.4,0
				c-0.4-0.1,0.9-0.2-1.2-0.2s-8.1,0.4-10.3,0.4s-3-0.4-5.1-0.4c-2.1,0,0.4,0.2-1.7,0.2c-2.1,0-4.2-0.2-4.9-0.4
				c-0.6,0-1.1,0.2-1.2,0.4h-3.2c-0.1-0.1-1.8-0.2-2.4-0.4c-0.5,0-2.2,0.2-3,0.6h-3.2c-0.1-0.1,1.6-0.2,1.6-0.3
				C103,88,104.1,88,102,88c-2.1,0-3.9,0.4-6,0.4c-2.1,0-1.3-0.2-3.4-0.2s-1.3,0.2-3.4,0.2c-2.1,0-0.4-0.2-2.6-0.2s-1.7,0-2,0.2
				c-1.3-0.1-2.5-0.2-3.8-0.4c-1.4-0.1-4,0-6.2,0s-4.7,0-6.3,0c-1,0-1.5,0.2-2.8,0.3c0,0,0.9,0-1.2,0c-2.1,0-3-0.2-4.2-0.4
				c-0.5-0.1-1.4,0-3.6,0c-7.3,0-5,0.4-8.6,0.4c-2.8,0-3.2-0.4-6.5-0.6h-2.3c-0.7,0.1-0.6,0-0.6,0.2s1.7,0.2,1.6,0.4H34
				c-2.1,0-2.2-0.2-4.4-0.2c-2.1,0-3.1,0.1-4.4,0.2c-0.3-0.1,1.4-0.2,1.5-0.3C25.8,88,27,88,24.8,88c-2.1,0-1.3,0.2-3.4,0.2
				S20.1,88,18,88c-2.1,0-3.9,0.2-6,0.2c-2.1,0-3-0.2-5.1-0.2c-2.1,0,0.4,0.2-1.7,0.2c-0.3,0-0.5,0-0.6,0c-0.1,0-0.1,0-0.1,0
				c0,0-0.1,0-0.1-0.1c0,0-0.1-0.1-0.5-0.1c-0.2-0.1-0.1,0.2-0.1,0.2c0,0.1,0,0.1,0.1,0.1c0,0.1,0.1,0.1,0.1,0.4l0,0.6
				c0,0.3,0,0.5,0,0.8c0,0.5-0.1,1-0.1,1.4c-0.1,0.9-0.2,1.5-0.3,1.8c0.1,1.4,0.1,2.9,0.3,2.9s0.1-1.7,0.3-1.6c0,2.9-0.2,2.9-0.2,5
				c0,2.1,0,1.7,0.2,2c-0.2,2.2-0.4,3.6-0.4,5.7c0,2.1,0.2,3,0.2,4.7c0,0.9-0.2,1.1-0.4,3.2H4v6.6c-0.1,0.1-0.2,1.8-0.4,2.4
				c0.2,2.2,0.4,6.7,0.4,8.9s-0.2,4.2-0.4,4.9c0,0.6,0.2,1.1,0.4,1.3c-0.2,3.8-0.4,10.5-0.4,12.7c0,2.9,0,2.8,0.4,2.7v4.5
				c0,2.1-0.4,5.2-0.4,7.4s0.2,1.3,0.2,3.4c0,2.1-0.2,3.9-0.2,6c0,2.1,0.2,3,0.2,5.1s-0.2-0.4-0.2,1.7c0,1.1,0,1.4,0.1,1.7
				c0,0.4,0.1,0.4,0.1,0.7c-0.1,0.4,0.2,0.3,0.4,0.3c0,0,1,0.1,2,0.1c2.1,0,1.3-0.2,3.4-0.2c2.1,0-0.4,0.2,1.7,0.2s1.3-0.2,3.4-0.2
				c2.1,0,4.2,0.2,4.9,0.4c0.6,0,1.1-0.2,1.2-0.4c1.2,0,0.3,0.2,2.4,0.2s-0.4-0.2,1.7-0.2c2.1,0-0.4,0.2,1.7,0.2
				c2.1,0,0.9-0.1,1.3-0.2c1.6-0.1,6.7,0.2,8.3-0.2c1.1,0,1.5,0.2,1.7,0.3c1.3,0.1,2.8,0.3,4.9,0.3c1.3,0,2.9-0.3,3.6-0.6h4.8
				c1,0.2,1.5,0.4,3.6,0.4c2.1,0,0.4-0.2,2.6-0.2s3,0.2,5.1,0.2c2.1,0,2.9,0,3.7,0c0.8-0.1,0.7-0.3,1.1-0.3c0.9,0,3-0.1,6.1-0.2
				c0.2,0.1-0.8,0.2-1.5,0.3c0,0.1,1.7,0.2,2.3,0.3c1.4-0.1,3.3-0.2,5.4-0.2c2.1,0,3,0.2,5.1,0.2c2.1,0-0.4-0.2,1.7-0.2
				c2.1,0,0.7,0.1,1.4,0.2c1.6,0,2.4,0,4.6,0c2.1,0,4.4,0,5.7-0.1v-0.1c2.4,0,0.7,0.2,2.9,0.2c2.1,0,1.3-0.2,3.4-0.2
				c2.1,0,1.3,0.2,3.4,0.2c2.1,0,0.4-0.2,2.6-0.2c2.1,0,1.3,0.2,3.4,0.2c2.1,0,3.5-0.2,4.6-0.4c2.1,0.2,5.2,0.4,7.4,0.4
				s1.3-0.2,3.4-0.2c2.1,0,0.4,0.2,2.6,0.2s1.7,0,1.8-0.2c1.2,0,1.6,0.2,1.5,0.4h14.7c2.1,0-0.4-0.2,1.7-0.2c2.1,0,0.4,0.2,2.6,0.2
				c2.1,0,1.3-0.2,3.4-0.2s1.3,0.2,3.4,0.2c0.1,0,0.2,0,0.2,0c0,0,0,0,0.1,0c0,0,0,0,0.1,0c0,0,0-0.1,0-0.2c0.2,0.1,0.4,0.3,0.4,0.6
				c0.3,0.1,0.7,0.2,0.8,0.4c0.1,0,0.1-0.2,0.1-0.4h0.3c0.2,0,0.2,0.2,0.4,0.2c0,0.2,0.2,0.2,0.2,0.4s-0.2,0.1-0.2,0.4
				s0.2,0.4,0.4,0.5c-0.2,0.3-0.4,0.6-0.6,0.9c-0.1,0-0.2-0.2-0.4-0.2v0.6H163c-0.2,0-0.1-0.1-0.2-0.2c-0.1,0-0.1,0.2-0.1,0.4
				c-0.1,0-0.2-0.1-0.2-0.1c-0.2,0-0.4,0-0.6-0.1l-0.3,0c-0.8,0-1.6,0-2.3,0c-3.4,0-6.2-0.1-7.3-0.1c-2.1,0-4.5,0-6,0.1
				C146.8,189.2,148.4,189.4,149,189.6z"/>
		</g>
	</g>
</g>
<g>
	<circle fill="#3A494F" cx="86.3" cy="84.9" r="11.8"/>
	<g>
		<g>
			<path fill-rule="evenodd" clip-rule="evenodd" fill="#3A494F" d="M99.1,89c-0.1,0.2-0.2,0.3-0.3,0.6c-0.1,0-0.2,0-0.3,0.1
				c-0.1,0.3-0.4,0.5-0.5,0.8c-0.1,0.3,0.1,0.1,0,0.4c-0.1,0.3-0.2,0.1-0.4,0.4c-0.2,0.3-0.1,0.7-0.3,1c-0.2,0.3-0.1,0-0.3,0.2
				c-0.2,0.3,0,0.2-0.2,0.5c-0.2,0.3-0.6,0.3-0.9,0.4c-0.1,0.2-0.3,0.6-0.5,0.8c-0.2,0.3-0.5,0.5-0.6,0.6c-0.5,0.4-0.4,0.1-0.9,0.4
				c0,0,0.1-0.1-0.2,0.1c-0.3,0.2-0.1,0.2-0.3,0.4c-0.3,0.2-0.2,0-0.5,0.1c-0.1,0.1-0.3,0.4-0.3,0.6c-0.5,0.1-1,0-1.3,0.2
				c-0.3,0.1-0.9,0.6-1.2,0.7c-0.3,0.1-0.1-0.1-0.4,0c-0.3,0.1-0.3,0.2-0.6,0.3c-0.6,0.1-0.1-0.3-0.6-0.2c-0.3,0,0,0.1-0.4,0.2
				c-0.3,0-0.5-0.1-0.8,0c-0.2,0-0.5,0.1-0.9,0.2c-0.4,0.1-0.8,0.1-1,0.1c-0.3,0-0.8-0.2-1.1-0.3c-0.3,0-0.8-0.1-1.1-0.1
				c-0.1,0-0.2-0.2-0.1-0.3c0,0-0.1,0-0.3-0.1c-0.2,0-0.4-0.1-0.7-0.2c-0.2-0.1-0.5-0.2-0.7-0.2c-0.2-0.1-0.3-0.1-0.3-0.1
				c0.1,0.2,0.2,0.3,0.1,0.4c-0.2,0-0.1-0.2-0.4-0.3c-0.3-0.1-0.3,0-0.6-0.2c-0.3-0.1-0.6-0.7-0.9-0.8c-0.3-0.2-0.3,0-0.6-0.2
				c-0.3-0.2-0.1-0.2-0.3-0.4c-0.3-0.2-0.5-0.2-0.7-0.2c-0.1-0.2,0.2-0.2-0.1-0.4c-0.2-0.2,0,0.1-0.3-0.1c-0.2-0.2,0.1-0.1-0.1-0.3
				c-0.2-0.2-0.1,0.1-0.3-0.1c-0.2-0.2,0.1-0.1-0.2-0.4c-0.2-0.2-0.4-0.2-0.6-0.5c-0.2-0.3-0.3-0.4-0.3-0.6c-0.1-0.1-0.2-0.1-0.3,0
				c-0.1-0.1,0-0.2-0.2-0.5c-0.2-0.3-0.3-0.2-0.4-0.5c-0.2-0.3-0.2-0.7-0.4-1c-0.1-0.3-0.4-0.6-0.6-0.9c-0.1-0.3-0.1-0.4-0.1-0.5
				c-0.2-0.6-0.3-1.2-0.5-1.8c0.1-0.1,0.1,0.1,0.1-0.2c0-0.3-0.5-1.1-0.6-1.6l0-0.5c0.1,0,0.1,0.3,0.3,0.5c0,0-0.1-0.9,0-0.9
				c0-0.3-0.1-0.1-0.1-0.5c0-0.3,0.2-0.4,0.2-0.8c0-0.3-0.1-0.2-0.1-0.5c0-0.3,0.1,0,0.2-0.4c0-0.3-0.1-0.5,0-0.8
				c0.1-0.3,0.4-1,0.5-1.3c0.1-0.2,0.3-0.7,0.2-0.9c0.2-0.1,0.3-0.3,0.5-0.4c0.1-0.3,0.3-0.3,0.1-0.4c-0.2-0.1-0.2,0.2-0.3,0.1
				c0.3-0.2,0.6-0.4,0.7-0.7c0-0.1,0.2-0.7,0.1-0.9l0.3-0.4c0.1,0.1,0.4,0,0.5,0c0.1-0.1,0-0.2-0.1-0.3c0.3-0.2,0.6-0.2,0.8-0.4
				c0.2-0.2,0.4-0.8,0.6-1c0.2-0.2,0.2,0,0.5-0.2c0.3-0.2,0.2-0.2,0.2-0.3c0.2-0.1,0.2,0.2,0.4,0c0.3-0.2-0.1-0.1,0.1-0.3
				c0.3-0.2,0.3-0.1,0.6-0.2c0.5-0.3,0.6-0.4,0.5-0.8c0,0,0.4-0.2,0.4-0.2c0.1,0.1,0.4,0.3,0.5,0.2c0.3-0.1-0.1-0.1,0.2-0.2
				c0.3-0.1,0,0.2,0.3,0c0.3-0.1,0.4-0.3,0.6-0.5c0.2-0.1,0.4-0.2,0.7-0.3c0.2,0,0.6-0.1,1-0.1c0.4,0,0.8,0,1,0
				c1.1-0.2,0.7-0.3,1.2-0.4c0.5,0,0.2,0.2,1.3,0.3c0.3,0,0.7-0.1,1,0c0.3,0.1,0.8,0.2,1.1,0.5c0.1,0,0.2-0.1,0.2-0.2l0.4,0.1
				c0.3,0.1,0.2,0.2,0.4,0.3c0,0.1,0,0.2,0.1,0.3l0.3,0.1c0.3,0.1,0.2,0,0.4-0.1c0.2,0.1,0.6,0.2,0.8,0.3c0.1,0,0-0.1,0.2,0
				c0.3,0.1,0.7,0.5,0.9,0.8c0.1,0.1,0.2,0,0.3-0.1c0.1,0.2,0.4,0.4,0.6,0.6c0.3,0.2,0.6,0.3,0.8,0.5c0.1,0.1,0,0.3,0,0.3l0.5,0.5
				c0.1,0,0.2-0.1,0.3-0.1l0.4,0.5c0.2,0.2,0,0.2,0.2,0.4c0.2,0.3,0.3,0.3,0.3,0.2c0.4,0.8,0,0.4,0.5,1.2c0.1,0.2,0.4,0.5,0.5,0.6
				c0.2,0.2,0.3,0.4,0.4,0.4c0.1,0.3,0,0.6,0.1,0.9c0.1,0.3,0.1,0,0.3,0.3c0.1,0.3-0.2,0,0,0.3c0.1,0.3,0.4,0.9,0.6,1.3
				c0,0.1,0,0,0.1,0.3c0,0.3,0,0.8-0.1,1l0,0.2c0.1,0.1,0.2,0,0.3,0c-0.3,0.3-0.4,0.5-0.4,0.9c-0.1,0-0.1-0.1-0.3-0.1
				c-0.4,0-0.4,0.6-0.7,0.6c-0.2,0-0.1,0-0.2,0c0-0.1-0.2-0.6-0.5-0.6c-0.2,0-0.2,0.1-0.3,0.1c0-0.4-0.3-0.4-0.3-0.6
				c0-0.1,0.1-0.3,0.1-0.6c0-0.3-0.2-0.3-0.2-0.6c-0.1-0.2,0.1-0.1,0.1-0.2c0-0.2-0.1-0.4-0.1-0.7c0-0.2-0.1-0.5-0.1-0.6
				c-0.1-0.2-0.1-0.5-0.2-0.6c-0.1-0.1-0.4-0.2-0.5-0.4c-0.1-0.2,0-0.1,0-0.2c-0.1-0.2-0.2-0.4-0.4-0.7c-0.1-0.2-0.4-0.6-0.8-0.9
				c0.1-0.1,0.2,0,0.3,0c0,0,0-0.2,0-0.4c-0.1-0.1-0.2,0-0.3-0.2c-0.2-0.2-0.1-0.2-0.1-0.3c-0.2-0.1-0.3-0.2-0.4-0.1
				c-0.1,0.1,0.1,0.2,0,0.3c0,0-0.4-0.4-0.4-0.4c0-0.2,0-0.4-0.2-0.6c-0.2-0.2,0,0.1-0.2,0c-0.2-0.2,0.1-0.1-0.1-0.2
				c-0.2-0.2-0.2,0-0.4-0.1c-0.2-0.2-0.1-0.3-0.3-0.4c-0.2-0.1-0.6-0.3-0.9-0.4c-0.2,0-0.3,0-0.5,0c0-0.1,0.2-0.1,0.3-0.2
				c-0.4-0.2-1.1-0.6-1.3-0.7c-0.2-0.1-0.5-0.2-0.7-0.1l0,0c-0.3-0.1-0.1-0.1-0.2-0.2c-0.1,0-0.2,0.1-0.2,0.2c-0.1,0,0-0.1-0.3-0.2
				c-0.3,0-0.1,0-0.1,0.1c-0.1,0-0.2-0.2-0.1-0.3c-0.5-0.1-1.1-0.1-1.6-0.2c0-0.1,0.1-0.1-0.2-0.1c-0.3,0-1,0.3-1.2,0.4
				c-0.3,0-0.4-0.2-0.7-0.2c-0.3,0,0.1,0.1-0.2,0.2c-0.3,0.1-0.5,0-0.7-0.1c-0.1,0-0.1,0.1-0.1,0.3c0,0-0.4,0.1-0.4,0.1
				c0-0.1-0.2-0.1-0.4-0.2c-0.1,0.1-0.2,0.2-0.2,0.5c0,0-0.4,0.1-0.4,0.1c-0.1-0.1,0.1-0.2,0.1-0.3c-0.1,0,0-0.1-0.2,0
				c-0.2,0.1-0.3,0.5-0.5,0.6c-0.2,0.1-0.2-0.1-0.4,0.1c-0.2,0.1-0.1,0.2-0.3,0.3c-0.2,0.1-0.1-0.1-0.3,0c-0.2,0.1-0.1,0.2-0.1,0.2
				c-0.2,0-0.3,0-0.5,0.1c-0.2,0-0.4,0.3-0.6,0.5c-0.2,0.2-0.5,0.4-0.6,0.5c-0.1,0.1,0,0.2-0.1,0.4c0,0,0.1-0.1-0.1,0.1
				c-0.2,0.2-0.4,0.1-0.5,0.2c-0.1,0-0.1,0.1-0.3,0.3c-0.5,0.7-0.1,0.7-0.4,1c-0.2,0.3-0.4,0.2-0.8,0.5l-0.1,0.3
				c0,0.1-0.1,0,0.1,0.1c0.2,0.1,0.2-0.1,0.3-0.1c0,0-0.3,0.7-0.3,0.7c-0.1,0.2-0.2,0.2-0.3,0.5c-0.1,0.2-0.1,0.4,0,0.6
				c-0.1,0-0.1-0.2-0.2-0.2C76,81.9,76,81.7,76,82c-0.1,0.3,0.1,0.2,0,0.4c-0.1,0.3-0.2,0.1-0.2,0.4c0,0.3,0.1,0.5,0,0.7
				c0,0.3-0.2,0.3-0.2,0.6c0,0.3,0.1,0,0.1,0.2c0,0.3-0.1,0-0.2,0.3c0,0.3,0.1,0.1,0.1,0.3c0,0.3-0.1,0.5-0.2,0.6
				c0.1,0.2,0.1,0.4,0.2,0.3c0.2,0,0.1-0.2,0.2-0.2c0,0.3-0.1,0.4-0.1,0.6c0,0.3,0.1,0.2,0.2,0.2c-0.1,0.3-0.2,0.5-0.1,0.7
				c0.1,0.3,0.2,0.3,0.3,0.5c0,0.1-0.1,0.2-0.2,0.5l0.4-0.1l0.3,0.7c-0.1,0.1,0,0.3-0.1,0.4c0.2,0.2,0.6,0.6,0.7,0.8
				c0.1,0.2,0.1,0.5,0.1,0.7c0,0.1,0.2,0.1,0.3,0c0.2,0.4,0.6,1.2,0.8,1.4c0.2,0.3,0.2,0.3,0.4,0.1c0,0,0.4,0.4,0.4,0.4
				c0.2,0.2,0.3,0.6,0.5,0.8c0.2,0.2,0.2,0,0.4,0.1c0.2,0.2,0.3,0.4,0.5,0.5c0.2,0.1,0.4,0.1,0.6,0.2c0.2,0.1-0.1,0.1,0.1,0.2
				c0.2,0.1,0.2-0.1,0.4,0.1c0.2,0.1,0.3,0.3,0.5,0.4c0.2,0.1,0.2-0.1,0.4,0c0.2,0.1-0.1,0.1,0.2,0.2c0.2,0.1,0.2-0.1,0.4,0
				c0.3,0.1,0.5,0.3,0.5,0.4c0.1,0,0.2-0.1,0.2-0.2c0.1,0,0,0.1,0.3,0.2c0.3,0,0-0.1,0.2-0.1c0.3,0-0.1,0.1,0.2,0.2
				c0.3,0,0.1,0,0.2-0.1c0.2,0,0.8,0.2,1-0.1c0.1,0,0.2,0.2,0.2,0.2c0.2,0.1,0.3,0.2,0.6,0.2c0.2,0,0.4-0.2,0.4-0.4
				c0,0,0.6-0.1,0.6-0.1c0.1,0.1,0.2,0.2,0.5,0.2c0.3,0,0-0.1,0.3-0.2c0.3-0.1,0.4,0,0.6,0c0.3-0.1,0.3-0.1,0.4-0.1
				c0.1-0.1,0-0.2,0.1-0.3c0.1-0.1,0.3-0.2,0.6-0.4c0.1,0.1,0,0.1-0.1,0.2c0,0,0.2,0,0.3,0.1c0.1-0.1,0.3-0.3,0.5-0.4
				c0.2-0.1,0.4,0,0.6-0.2c0.2-0.1-0.1-0.1,0.1-0.2c0.2-0.1,0.1,0,0.2,0c0.2-0.1,0.3-0.1,0.5-0.3c0.2-0.2,0.4-0.3,0.5-0.5l0,0
				c0.2-0.2,0.2,0,0.4-0.1c0.2-0.2,0-0.2,0.2-0.4c0.2-0.2,0.2,0,0.4-0.2c0.2-0.2-0.1-0.1,0.1-0.3c0.2-0.2,0.2,0,0.4-0.2
				c0.2-0.2,0.2-0.4,0.1-0.6c0.3-0.1,0.6-0.3,0.7-0.6c0.1-0.2,0-0.2,0.1-0.4c0.1-0.2,0.1,0,0.3-0.2c0.1-0.2,0.1-0.2,0-0.3
				c0.1-0.1,0.2-0.1,0.3,0c0,0,0-0.1,0.1-0.3c0.1-0.2,0.2-0.4,0.3-0.6c0.1-0.2,0.2-0.4,0.2-0.6c0.1-0.2,0.1-0.3,0.1-0.3
				c0.1-0.3-0.1,0-0.1-0.2c0.1-0.3,0.1,0,0.2-0.3c0.1-0.3-0.1-0.2,0-0.4c0-0.3,0.2-0.1,0.2-0.4c0-0.2,0-0.1-0.1-0.2
				c0.1-0.1,0.3-0.2,0.4-0.2c0.1-0.2,0.2-0.4,0.3-0.5c0,0-0.1-0.1-0.3-0.1l0-0.2c0-0.2,0.1-0.1,0.2-0.3c0.1,0,0.1-0.2,0.3-0.2
				c0.2,0,0.1,0.1,0.3,0.1c0.2,0,0.3-0.1,0.4-0.3c0.2,0.1,0.4,0.3,0.6,0.5c0,0.1-0.1,0.2-0.2,0.3l0.4,0l0,0.2c0,0.2-0.1,0.1-0.1,0.1
				c0,0.1,0.1,0.1,0.3,0.1c0,0.1-0.1,0.1-0.1,0.2c0,0.1-0.1,0.3-0.1,0.4L99.3,87c0,0.1-0.1,0.2-0.1,0.4c-0.1,0.5-0.3,0.9-0.3,1.1
				c-0.1,0.3-0.2,0.6-0.2,0.9C98.8,89.2,99,89,99.1,89z"/>
		</g>
	</g>
</g>
<g>
	<path fill="#FFFFFF" d="M86.4,92.4c-0.4,0-0.8-0.2-1.1-0.5s-0.5-0.7-0.5-1.1v-6.2c0-0.1-0.1-0.2-0.2-0.2h-1.3
		c-0.4,0-0.7-0.1-0.9-0.4c-0.3-0.3-0.4-0.6-0.4-0.9c0-0.4,0.1-0.7,0.4-0.9s0.6-0.4,0.9-0.4h3.2c0.4,0,0.8,0.2,1.1,0.5
		c0.3,0.3,0.5,0.7,0.5,1.1v7.4c0,0.4-0.2,0.8-0.5,1.1c-0.3,0.3-0.7,0.5-1.1,0.5H86.4z M87.7,79.8c-0.3,0.3-0.8,0.5-1.4,0.5
		s-1-0.2-1.4-0.5s-0.5-0.7-0.5-1.2c0-0.5,0.2-0.9,0.5-1.2s0.8-0.5,1.4-0.5s1,0.2,1.4,0.5s0.5,0.7,0.5,1.2
		C88.3,79.1,88.1,79.5,87.7,79.8z"/>
</g>
<g>
</g>
<g>
</g>
<g>
</g>
<g>
</g>
<g>
</g>
<g>
</g>
<g>
</g>
<g>
</g>
<g>
</g>
<g>
</g>
<g>
</g>
<g>
</g>
<g>
</g>
<g>
</g>
<g>
</g>
</svg>
