<?xml version="1.0" encoding="utf-8"?>
<!-- Generator: Adobe Illustrator 18.0.0, SVG Export Plug-In . SVG Version: 6.00 Build 0)  -->
<!DOCTYPE svg PUBLIC "-//W3C//DTD SVG 1.1//EN" "http://www.w3.org/Graphics/SVG/1.1/DTD/svg11.dtd">
<svg version="1.1" id="Layer_1" xmlns="http://www.w3.org/2000/svg" xmlns:xlink="http://www.w3.org/1999/xlink" x="0px" y="0px"
	 viewBox="0 0 205 85.8" enable-background="new 0 0 205 85.8" xml:space="preserve">
<g>
	<g>
		<g>
			<path fill-rule="evenodd" clip-rule="evenodd" fill="#3A494F" d="M144.4,42.3c0.1,0.1,0.2,0.3,0.3,0.4c0,0.1-0.1,0.2-0.1,0.3
				c0.2,0.2,0.3,0.5,0.5,0.6c0.2,0.1,0.1-0.1,0.4,0c0.2,0.1,0,0.3,0.3,0.4s0.7,0,0.9,0.1c0.2,0.1-0.1,0.2,0.2,0.3
				c0.2,0.1,0.2-0.1,0.5,0.1c0.2,0.1,0.2,0.6,0.3,0.9c0.4,0.1,1.3,0.4,1.5,0.5c0.4,0.3,0.2,0.4,0.5,0.7c0,0-0.1,0,0.1,0.1
				s0.2-0.1,0.5,0.1c0.2,0.1,0,0.3,0.3,0.4c0.1,0.1,0.4,0,0.7-0.2c0.2,0.4,0.3,0.9,0.6,1c0.2,0.1,1,0.2,1.2,0.3
				c0.2,0.1-0.1,0.2,0.2,0.3c0.2,0.1,0.3,0,0.6,0.1c0.5,0.3-0.2,0.4,0.2,0.6c0.2,0.1,0.1-0.1,0.4,0c0.2,0.1,0.2,0.4,0.4,0.5
				s1.3,0.4,1.6,0.5c0.2,0.1,0.5,0.5,0.7,0.7c0.2,0.1,0.6,0.3,0.9,0.3c0.1,0.1,0,0.3-0.1,0.4l1.5,0.9c0-0.3-0.1-0.3,0-0.4
				c0.1,0.1,0,0.2,0.3,0.4s0.3,0,0.6,0.1c0.2,0.1,0.4,0.7,0.6,0.8c0.2,0.1,0.3,0,0.6,0.1c0.2,0.1,0,0.3,0.3,0.4
				c0.2,0.1,0.5,0.1,0.7,0c0.1,0.2-0.2,0.3,0,0.5c0.2,0.1,0.1-0.2,0.3,0c0.2,0.1-0.1,0.1,0.1,0.3c0.2,0.1,0.1-0.2,0.3,0
				s-0.1,0.2,0.2,0.3c0.2,0.1,0.4,0,0.6,0.2c0.2,0.1,0.3,0.3,0.3,0.4c0.1,0,0.2-0.1,0.3-0.2c0.1,0.1,0,0.2,0.3,0.4
				c0.2,0.1,0.3,0,0.6,0.1c0.2,0.1,0.4,0.5,0.6,0.6c0.2,0.1,0.6,0.2,0.8,0.3c0.2,0.1,0.2,0.2,0.2,0.3c0.4,0.3,0.9,0.6,1.3,0.9
				c0,0.1-0.2,0.1,0.1,0.2c0.2,0.1,1,0.2,1.5,0.3l0.3,0.2c-0.1,0.1-0.3,0-0.6,0.1l0.7,0.4c0.2,0.1,0.2-0.1,0.4,0
				c0.2,0.1,0.2,0.4,0.4,0.5c0.2,0.1,0.2-0.1,0.5,0.1c0.2,0.1-0.1,0.2,0.2,0.3c0.2,0.1,0.4,0,0.6,0.2s0.7,0.7,0.9,0.8
				c0.2,0.1,0.5,0.4,0.8,0.3c0.1,0.2,0.2,0.4,0.2,0.6c0.3,0.2,0.2,0.3,0.3,0.1c0.1-0.2-0.1-0.2,0-0.3c0.1,0.3,0.3,0.6,0.5,0.8
				c0.1,0,0.6,0.1,0.9-0.1l0.3,0.2c-0.1,0.2,0,0.5,0,0.7c0.1,0,0.2-0.1,0.4-0.2c0.1,0.3,0.2,0.6,0.4,0.7c0.2,0.1,0.8,0.1,1,0.2
				c0.2,0.1,0,0.3,0.3,0.4c0.2,0.1,0.2,0.1,0.3,0c0.1,0.2-0.2,0.3,0,0.5c0.2,0.1,0.1-0.2,0.3,0s0.1,0.3,0.3,0.5
				c0.4,0.3,0.5,0.3,0.9-0.1l0.3,0.2c-0.1,0.2-0.2,0.6,0,0.7c0.2,0.1,0.1-0.2,0.3,0s-0.1,0.1,0.1,0.3s0.5,0,0.7,0
				c0.2,0,0.3,0.1,0.5,0.3c0.2,0.1,0.9,1.1,1.2,1.2c0.8,0.5,0.8,0,1.1,0.3c0.4,0.2-0.1,0.4,0.7,0.9c0.2,0.1,0.6,0.2,0.8,0.3
				c0.2,0.1,0.5,0.6,0.7,0.9c0.1,0,0.2,0,0.3-0.2l0.3,0.2c0.2,0.1,0.1,0.3,0.2,0.4c0,0.1-0.1,0.3-0.1,0.4l0.3,0.2
				c0.2,0.1,0.2-0.1,0.5-0.1c0.2,0.1,0.5,0.3,0.7,0.3c0.1,0,0-0.2,0.2,0c0.2,0.1,0.5,0.6,0.7,0.9c0.1,0,0.2,0,0.4-0.2
				c0.1,0.2,0.3,0.4,0.5,0.5c0.2,0.1,0.5,0.2,0.8,0.3c0.1,0.1,0,0.3-0.1,0.4l0.5,0.3c0.1,0,0.2-0.2,0.3-0.3l0.5,0.3
				c0.2,0.1,0,0.2,0.2,0.4c0.2,0.1,0.3,0.1,0.4,0c0.5,0.6,0,0.5,0.7,0.9c0.4,0.3,1.1,0.2,1.2,0.3c0.2,0.1,0.2,0.6,0.4,0.7
				c0.2,0.1,0.1-0.1,0.4,0c0.2,0.1-0.1,0.1,0.1,0.3c0.2,0.1,0.9,0.3,1.2,0.4c0.1,0,0,0,0.2,0.1c0.2,0.1,0.4,0.5,0.5,0.8l0.2,0.1
				c0.1,0,0.2-0.2,0.3-0.3c0,0.5,0.1,0.8,0.6,1.1c-0.1,0.1-0.2,0-0.4,0.2c-0.3,0.5,0.3,1,0.1,1.3c-0.1,0.2-0.1,0.1-0.2,0.2
				c-0.2,0-0.9-0.3-1.1,0c-0.1,0.2,0,0.3-0.1,0.4c-0.5-0.3-0.8,0-1-0.2c-0.1-0.1-0.2-0.2-0.3-0.3c-0.1-0.1-0.1-0.2-0.2-0.2
				c-0.2-0.1-0.4,0-0.6-0.2c-0.2-0.1,0-0.1-0.1-0.2c-0.3-0.2-0.8-0.8-1-0.9s-0.4-0.3-0.6-0.3c-0.2,0-0.5,0.1-0.7,0
				c-0.2-0.1,0-0.1-0.1-0.2c-0.2-0.1-0.4-0.3-0.7-0.4c-0.2-0.1-0.7-0.4-1.2-0.5c0.1-0.1,0.2-0.1,0.3-0.1c0-0.1-0.1-0.2-0.1-0.4
				c-0.1,0-0.2,0.1-0.4,0s-0.1-0.2-0.1-0.3c-0.2,0-0.3-0.2-0.5,0c-0.1,0.2,0.1,0.2,0,0.3l-0.5-0.3c0-0.2,0-0.5-0.3-0.6
				c-0.2-0.1-0.1,0.2-0.3,0c-0.2-0.1,0.1-0.1-0.1-0.3c-0.2-0.1-0.2,0.1-0.5-0.1s-0.1-0.3-0.3-0.5s-0.7-0.3-1-0.4
				c-0.2,0-0.4,0-0.6,0.1c0-0.1,0.3-0.1,0.4-0.2c-0.4-0.3-1-0.8-1.2-1s-0.5-0.3-0.7-0.3l0,0c-0.3-0.2,0-0.2-0.1-0.3
				c-0.1,0-0.2,0-0.3,0.2c-0.1-0.1,0.1-0.2-0.2-0.3c-0.2-0.1-0.1,0-0.2,0.1c-0.1-0.1,0-0.3,0.1-0.4c-0.4-0.3-1-0.6-1.4-0.9
				c0-0.1,0.2-0.1-0.1-0.2s-1.1-0.2-1.3-0.4c-0.2-0.1-0.1-0.5-0.3-0.7c-0.2-0.1-0.1,0.2-0.3,0c-0.2-0.1-0.3-0.5-0.3-0.7
				c-0.1,0-0.2,0.1-0.3,0.2l-0.3-0.2c0.1-0.1-0.1-0.3-0.1-0.5c-0.1,0-0.3,0-0.6,0.3l-0.3-0.2c0.1-0.1,0.3-0.1,0.3-0.1
				c0-0.1,0.1,0-0.1-0.2c-0.2-0.1-0.6,0.1-0.8-0.1c-0.2-0.1,0-0.3-0.3-0.4s-0.2,0.1-0.5-0.1s0.1-0.2-0.2-0.3c-0.2-0.1-0.2-0.1-0.3,0
				c-0.1-0.2-0.1-0.4-0.2-0.6c-0.1-0.2-0.4-0.3-0.6-0.4c-0.2-0.1-0.5-0.4-0.7-0.4c-0.1,0-0.2,0-0.5,0.1c0,0,0.1,0.1-0.2,0
				c-0.2-0.1-0.2-0.4-0.2-0.6c0-0.1-0.1-0.1-0.4-0.2c-0.8-0.5-0.7,0-1.1-0.3c-0.3-0.2-0.2-0.5-0.4-0.9l-0.2-0.2
				c-0.1,0,0-0.1-0.2,0.1c-0.1,0.2,0.1,0.3,0,0.4l-0.7-0.4c-0.2-0.1-0.1-0.3-0.4-0.5c-0.2-0.1-0.4-0.1-0.6-0.1
				c0-0.1,0.3-0.1,0.3-0.2c0-0.1,0.1,0-0.1-0.2c-0.2-0.1-0.2,0.1-0.5-0.1c-0.2-0.1,0-0.3-0.3-0.4c-0.2-0.1-0.5-0.1-0.7-0.2
				s-0.2-0.4-0.4-0.5c-0.2-0.1-0.1,0.2-0.3,0c-0.2-0.1,0.1-0.2-0.2-0.3s-0.1,0.1-0.4,0s-0.3-0.5-0.3-0.7c-0.2,0-0.3-0.2-0.5,0.1
				c-0.1,0.2,0.1,0.2,0,0.3c-0.3-0.2-0.2-0.3-0.4-0.5c-0.2-0.1-0.2-0.1-0.3,0c-0.1-0.3-0.2-0.6-0.4-0.7s-0.4,0-0.6-0.2
				c-0.1-0.1,0-0.2-0.1-0.5l-0.3,0.5l-0.7-0.4c0.1-0.1-0.1-0.3,0-0.5c-0.3,0-0.9-0.1-1.2-0.3s-0.3-0.5-0.3-0.7
				c-0.1,0-0.2,0.1-0.3,0.2c-0.3-0.4-0.9-1-1.1-1.2c-0.3-0.2-0.3-0.2-0.5,0.1l-0.5-0.3c-0.2-0.1-0.4-0.7-0.6-0.8
				c-0.2-0.1-0.2,0.1-0.5-0.1c-0.2-0.1-0.3-0.4-0.5-0.6s-0.4,0-0.6-0.2c-0.2-0.1,0.1-0.1-0.1-0.3c-0.2-0.1-0.2,0.1-0.5-0.1
				s-0.2-0.4-0.4-0.5c-0.2-0.1-0.2,0.1-0.5-0.1c-0.2-0.1,0.1-0.1-0.1-0.3c-0.2-0.1-0.2,0.1-0.5-0.1c-0.2-0.1-0.3-0.5-0.3-0.7
				c-0.1,0-0.2,0.1-0.3,0.2c-0.1-0.1,0.1-0.2-0.2-0.3c-0.2-0.1-0.1,0.2-0.3,0c-0.2-0.1,0.1-0.1-0.1-0.3c-0.2-0.1-0.1,0-0.2,0
				c-0.2-0.1-0.6-0.6-1-0.4c-0.1-0.1,0-0.3,0-0.4c-0.1-0.2-0.1-0.4-0.4-0.6c-0.1-0.1-0.4,0-0.7,0.2l-0.5-0.3c0-0.2,0-0.4-0.2-0.6
				c-0.2-0.1-0.1,0.1-0.4,0c-0.2-0.1-0.2-0.4-0.4-0.5c-0.2-0.1-0.3-0.2-0.4-0.2c-0.1,0-0.2,0.2-0.3,0.2c-0.1,0-0.3-0.2-0.8-0.2
				c0.1-0.1,0.2-0.1,0.3-0.1c0-0.1-0.1-0.2-0.1-0.4c-0.2,0-0.5-0.1-0.7-0.2c-0.2-0.1-0.2-0.4-0.4-0.5c-0.2-0.1-0.1,0.2-0.3,0
				s0-0.1-0.1-0.2c-0.2-0.1-0.2-0.2-0.5-0.3c-0.2-0.1-0.5-0.3-0.7-0.3l0,0c-0.3-0.2,0-0.2-0.2-0.4c-0.2-0.1-0.2,0.1-0.5-0.1
				c-0.2-0.1,0-0.3-0.3-0.4c-0.2-0.1-0.1,0.1-0.4,0s0-0.3-0.3-0.4c-0.2-0.1-0.5-0.1-0.7,0c-0.1-0.3-0.3-0.7-0.6-0.8
				c-0.2-0.1-0.2,0.1-0.5-0.1c-0.2-0.1,0.1-0.2-0.2-0.3s-0.2-0.1-0.3,0c-0.1-0.1,0-0.3,0.1-0.4l-1.6-1c-0.2-0.1-0.1,0.2-0.3,0.1
				s0.1-0.2-0.2-0.3c-0.2-0.1-0.2,0.1-0.5-0.1c-0.2-0.1,0-0.3-0.3-0.4c-0.2-0.1-0.2-0.1-0.3,0c-0.1-0.2-0.1-0.5-0.1-0.7
				c-0.2-0.2-0.5-0.5-0.4-0.8c-0.1,0-0.2,0.1-0.3,0.3l-0.3-0.2c-0.2-0.1-0.1-0.3-0.2-0.4c0.1-0.2-0.1-0.3,0-0.5
				c0.1-0.2,0.2,0,0.4-0.2c0.1-0.2,0.1-0.4,0-0.6c0.3-0.2,0.7-0.3,1-0.5c0.1,0.1,0.1,0.3,0.2,0.4l0.3-0.5l0.2,0.1
				c0.2,0.1,0,0.1,0,0.2c0.1,0,0.2-0.1,0.3-0.2c0.1,0.1,0.1,0.2,0.1,0.3c0.2,0.2,0.5,0.4,0.7,0.6c0.4,0.3,0.8,0.7,0.9,0.8
				c0.2,0.1,0.5,0.3,0.7,0.4C144.5,42.7,144.4,42.4,144.4,42.3z"/>
		</g>
	</g>
</g>
<g>
	<circle fill="#3A494F" cx="199.2" cy="79.9" r="4.1"/>
	<g>
		<g>
			<path fill-rule="evenodd" clip-rule="evenodd" fill="#3A494F" d="M203.6,84.4c-0.1,0-0.2,0-0.3,0c-0.1,0-0.2-0.2-0.3-0.2
				c-0.1,0.1-0.3,0-0.4,0.1c-0.1,0.1,0.1,0.2,0,0.2c-0.1,0.1-0.2-0.1-0.3,0c-0.1,0.1,0,0.5-0.1,0.5c-0.1,0.1-0.1-0.2-0.2-0.1
				c-0.1,0.1,0,0.2-0.1,0.3c-0.1,0.1-0.4-0.3-0.5-0.4c-0.1,0.3-0.4,0.6-0.5,0.6c-0.2,0.1-0.2-0.2-0.4-0.2c0,0,0,0-0.1,0
				c-0.1,0,0,0.2-0.1,0.2c-0.1,0-0.1-0.2-0.2-0.2c0,0-0.1,0.3-0.1,0.6c-0.2-0.2-0.4-0.5-0.5-0.5c-0.1,0-0.4,0.4-0.5,0.4
				c-0.1,0,0-0.2-0.1-0.2c-0.1,0-0.1,0.2-0.3,0.2c-0.2,0,0-0.4-0.1-0.4c-0.1,0-0.1,0.2-0.2,0.2c-0.1,0-0.1-0.2-0.2-0.2
				c-0.1,0-0.7,0.2-0.8,0.2c-0.1,0-0.2-0.3-0.3-0.3c-0.1,0-0.3,0-0.4,0c-0.1,0,0-0.2,0.1-0.4c0,0-0.6-0.4-0.6-0.4
				c-0.1,0.2-0.1,0.3-0.2,0.4c-0.1,0,0.1-0.2,0-0.3c-0.1-0.1-0.2,0.1-0.3,0c-0.1-0.1,0-0.5-0.1-0.6c-0.1-0.1-0.2,0.1-0.3,0
				c-0.1-0.1,0.1-0.2,0-0.3c-0.1-0.1-0.3,0-0.5,0.1c0-0.1,0.3-0.2,0.2-0.3c-0.1-0.1-0.1,0.1-0.2,0c-0.1-0.1,0.2-0.1,0.1-0.2
				c-0.1-0.1-0.1,0.1-0.2,0c-0.1-0.1,0.1-0.1,0.1-0.2c-0.1-0.1-0.2,0-0.3-0.1c-0.1-0.1-0.1-0.2,0.1-0.3c0,0-0.2,0-0.4,0.1
				c0-0.1,0.1-0.1,0.1-0.2c-0.1-0.1-0.2,0-0.3-0.1c-0.1-0.1,0.1-0.3,0-0.4c0-0.1-0.3-0.2-0.3-0.3c0-0.1,0.1-0.2,0.1-0.2
				c0-0.2-0.1-0.5-0.1-0.7c0.1,0,0.2,0,0.2-0.1c0-0.1-0.4-0.4-0.6-0.6l0-0.2c0.1,0,0.2,0.1,0.4,0.2l0-0.3c0-0.1-0.2-0.1-0.2-0.2
				c0-0.1,0.2-0.1,0.2-0.3c0-0.1-0.2-0.1-0.2-0.2c0-0.1,0.2,0,0.2-0.1c0-0.1-0.1-0.2-0.1-0.3c0-0.1,0.3-0.3,0.3-0.4
				c0-0.1,0.2-0.2-0.1-0.4c0.1,0,0.3-0.1,0.4,0c0-0.1,0.2-0.1,0-0.2c-0.2-0.1-0.2,0-0.3-0.1c0.2,0,0.4,0,0.5-0.1
				c0,0-0.1-0.3-0.3-0.5l0.1-0.2c0.2,0.1,0.4,0.1,0.6,0.2c0,0-0.1-0.1-0.3-0.3c0.2,0,0.4,0.1,0.5,0c0.1-0.1-0.1-0.5,0-0.6
				c0.1-0.1,0.2,0.1,0.3,0c0.1-0.1,0-0.1,0-0.2c0.1,0,0.3,0.3,0.4,0.2c0.1-0.1-0.1-0.1-0.1-0.2c0.1-0.1,0.2,0.1,0.3,0
				c0.2-0.1,0.2-0.2-0.1-0.6l0.2-0.1c0.1,0.1,0.4,0.4,0.4,0.4c0.1-0.1-0.1-0.2,0-0.2c0.1-0.1,0.1,0.2,0.2,0.1c0.1-0.1,0-0.3,0.1-0.4
				c0-0.1,0.1-0.1,0.2-0.1c0.1-0.1,0.7,0.1,0.8,0.1c0.4-0.1,0.2-0.4,0.4-0.5c0.2,0,0.1,0.4,0.5,0.3c0.1,0,0.2-0.2,0.3-0.2
				c0.1,0,0.3,0.2,0.4,0.4c0,0,0.1-0.1,0.1-0.4l0.2,0c0.1,0,0.1,0.2,0.2,0.2c0,0.1,0,0.3,0,0.4l0.1,0c0.1,0,0.1-0.2,0.2-0.3
				c0.1,0,0.2,0,0.3,0c0.1,0,0-0.2,0.1-0.1c0.1,0,0.3,0.3,0.3,0.5c0,0,0.1-0.1,0.2-0.3c0,0.1,0.1,0.2,0.2,0.3c0.1,0,0.3,0,0.4,0
				c0,0,0,0.3-0.1,0.4l0.2,0.1c0.1-0.1,0.1-0.2,0.2-0.3c0,0,0.2,0.1,0.2,0.1c0.1,0.1-0.1,0.2,0,0.2c0.1,0.1,0.1,0,0.2-0.1
				c0.1,0.4-0.1,0.4,0.1,0.6c0.1,0.1,0.6,0,0.6,0c0.1,0.1-0.1,0.4-0.1,0.5c0.1,0.1,0.2-0.1,0.2,0c0.1,0.1-0.2,0.1-0.1,0.2
				c0.1,0.1,0.4,0.2,0.6,0.2c0,0,0,0,0.1,0.1c0,0,0,0.1,0,0.2c0,0.1-0.1,0.2-0.1,0.3c0,0,0.2,0.3,0.2,0.3c0.1,0.1,0.3,0,0.4,0
				c-0.2,0.5-0.3,0.9-0.2,1.6c-0.1,0-0.2-0.2-0.4-0.1c-0.3,0.1-0.4,0.3-0.5,0.5c-0.1,0.2-0.2,0.4-0.5,0.4c-0.2,0-0.2,0-0.2,0
				c0-0.2-0.3-0.7-0.7-0.6c-0.2,0.1-0.2,0.2-0.3,0.2c-0.1-0.3-0.5-0.3-0.5-0.4c0-0.1,0.1-0.3,0.1-0.3c0,0-0.2,0-0.2,0
				c0,0,0.1-0.1,0.1-0.1c0-0.1,0.1-0.3,0-0.3c0,0,0-0.1-0.1-0.1c-0.1,0-0.3,0.2-0.3,0.2c0,0,0.1-0.1,0.1-0.1c0,0,0-0.1-0.1-0.1
				c0,0-0.1-0.1-0.3,0c0.1-0.1,0.1-0.1,0.2-0.2c0-0.1,0.1-0.1,0.1-0.3c0,0-0.1,0.2-0.2,0.1c0,0,0-0.1,0.1-0.2
				c-0.1,0.1-0.1,0-0.2,0.2c-0.1,0.2,0,0.1-0.1,0.3c0,0-0.1,0-0.1,0c0.1-0.2,0.1-0.4,0.1-0.4c0,0-0.1,0.2-0.1,0.2c0,0,0.1-0.2,0-0.2
				c0,0-0.1,0.2-0.1,0.2c0,0,0-0.2,0-0.2c0,0-0.2,0.1-0.2,0.2c0,0.1-0.1,0.2-0.1,0.3c0-0.1,0.1-0.2,0.1-0.4c-0.1,0-0.2-0.2-0.2-0.2
				c0,0-0.1,0-0.1,0.1l0,0.1c-0.1,0,0-0.1,0-0.2c0,0,0,0.1,0,0.4c0,0,0-0.2-0.1-0.2c0,0,0,0,0,0.2c0,0,0-0.2,0-0.4
				c-0.1,0-0.2,0-0.3,0c0-0.1,0-0.1-0.1-0.1c-0.1,0-0.1,0.4-0.1,0.4c0,0-0.2-0.3-0.2-0.3c0,0,0.1,0.2,0,0.2c0,0-0.2-0.2-0.3-0.3
				c0,0,0,0.2,0.1,0.4l-0.1,0c-0.1-0.1-0.1-0.2-0.2-0.3c0,0,0,0.2,0.2,0.5l-0.1,0c-0.1-0.1-0.1-0.2-0.1-0.3c-0.1-0.1,0-0.1-0.1,0
				c0,0,0.1,0.4,0.1,0.4c0,0-0.1-0.1-0.2-0.1c0,0,0.1,0.2,0.1,0.2c0,0-0.1-0.1-0.2-0.1c0,0,0,0.1,0.1,0.2c-0.1-0.1-0.2-0.2-0.3-0.2
				c-0.1-0.1-0.1,0.1-0.1,0.1c0,0-0.1,0.1-0.1,0.1c0,0,0.1,0.1,0.2,0.3c0,0,0,0,0,0c0,0-0.2-0.1-0.4-0.2c-0.1,0,0,0-0.1,0.1
				c-0.1,0.2,0.3,0.3,0.2,0.4c0,0-0.3-0.1-0.6-0.1l0,0.1c0.1,0.1,0,0,0.2,0.1c0.2,0.1,0.2,0.1,0.4,0.1c0,0-0.1,0.1-0.1,0.1
				c0,0-0.2,0-0.2,0c0,0,0.1,0.1,0.1,0.1c-0.1,0-0.2-0.1-0.3-0.1c-0.1,0-0.1,0-0.1,0c0,0.1,0.2,0.1,0.2,0.1c0,0-0.2,0-0.2,0
				c0,0.1,0.2,0.1,0.2,0.2c0,0-0.2,0-0.2,0.1c0,0.1,0.2,0,0.2,0.1c0,0-0.2,0-0.2,0c0,0.1,0.2,0,0.2,0.1c0,0-0.2,0.1-0.4,0.1
				c0.1,0,0.1,0.1,0.3,0.1c0.2,0,0.1,0,0.3,0c0,0.1-0.2,0.1-0.2,0.1c0,0,0,0,0.2,0c-0.2,0.1-0.4,0.1-0.4,0.2c0,0.1,0.2,0,0.2,0.1
				c0,0-0.2,0.1-0.4,0.2l0.6-0.1l0,0.1c-0.1,0-0.2,0.1-0.3,0.2c0.2,0,0.4,0,0.4,0.1c0,0-0.2,0.2-0.3,0.3c0,0,0.1,0,0.4-0.1
				c-0.1,0.2-0.2,0.4-0.2,0.4c0,0.1,0,0.1,0.3-0.2l0.1,0.1c0,0-0.2,0.3-0.2,0.4c0,0,0.2-0.1,0.2-0.1c0,0-0.1,0.2,0,0.2
				c0,0,0.2-0.1,0.2-0.1c0,0-0.1,0.1-0.1,0.2c0,0,0.1-0.1,0.2-0.1c0,0-0.1,0.2,0,0.2c0,0,0.1-0.1,0.2-0.1c0,0-0.1,0.2-0.1,0.2
				c0,0,0.1-0.1,0.2-0.1c0,0,0,0.2-0.1,0.4c0,0,0.1-0.1,0.2-0.3c0,0-0.1,0.2,0,0.2c0,0,0.1-0.2,0.1-0.2c0,0-0.1,0.2,0,0.2
				c0,0,0-0.1,0.1-0.1c0.1,0,0.1,0.2,0.3-0.2c0,0,0,0.2-0.1,0.3c0,0.1,0,0.3,0,0.3c0,0,0.1-0.2,0.2-0.5l0.1,0c0,0.2,0,0.4,0,0.4
				c0.1,0,0-0.2,0.1-0.2c0,0,0.1,0.2,0.1,0.2c0.1,0,0.1,0,0.1,0c0-0.1,0-0.2,0-0.3c0,0,0.1-0.1,0.1-0.2c0,0.1,0,0.2,0,0.3
				c0,0.1,0,0.2,0.1,0.3c0-0.1,0.1-0.2,0.1-0.2c0,0,0.1,0.2,0.1,0.2c0.1,0,0-0.2,0-0.2c0,0,0,0.1,0.1,0.2c0,0,0.1,0,0.1,0
				c0.1,0,0.1,0,0.1-0.2l0-0.1c0.1,0,0.1,0.2,0.1,0.2c0,0,0-0.2,0-0.2c0,0,0.1,0.2,0.1,0.2c0,0-0.1-0.2,0-0.2c0,0,0.1,0.2,0.2,0.1
				c0,0,0-0.2-0.1-0.4c0.1,0.2,0.3,0.3,0.3,0.2c0,0-0.1-0.2,0-0.2c0,0,0.1,0.2,0.2,0.1c0,0,0-0.1-0.1-0.2c0,0,0.2,0.2,0.3,0.3
				c0,0,0.3-0.3,0.3-0.3c0,0-0.2-0.1-0.1-0.2c0,0,0.1,0.1,0.2,0.1c0,0-0.1-0.2-0.1-0.2c0,0,0.2,0.1,0.2,0.1c0.1-0.1,0-0.1-0.1-0.2
				c0.1,0,0.4,0,0.6,0c0.1-0.1,0.4-0.4,0.6-0.4c0-0.1-0.1-0.1-0.3-0.2l0.1-0.2c0-0.2,0.2-0.1,0.3-0.3c0.2,0,0.2-0.2,0.4-0.2
				c0.2,0,0.1,0.2,0.4,0.2c0.2,0,0.4-0.1,0.5-0.4c0.3,0.2,0.6,0.5,0.9,0.8c0,0.2-0.2,0.3-0.3,0.5l0.6,0.1l-0.1,0.4
				c-0.1,0.3-0.1,0.1-0.3,0.2c0,0.1,0.1,0.2,0.3,0.3c-0.1,0.2-0.2,0.2-0.3,0.3c-0.1,0.2-0.3,0.5-0.4,0.7c-0.1,0.1-0.2,0.2-0.3,0.3
				c-0.1,0.1-0.1,0.1-0.1,0.1c-0.2,0.1-0.3,0.2-0.4,0.2c-0.1,0.1-0.2,0.2-0.2,0.3C203.3,84.3,203.5,84.3,203.6,84.4z"/>
		</g>
	</g>
</g>
<path fill="#FFFFFF" d="M144.8,74.7H4c-2.2,0-4-1.8-4-4V4c0-2.2,1.8-4,4-4h140.8c2.2,0,4,1.8,4,4v66.8C148.8,73,147,74.7,144.8,74.7
	z"/>
<g>
</g>
<g>
</g>
<g>
</g>
<g>
</g>
<g>
</g>
<g>
</g>
<g>
</g>
<g>
</g>
<g>
</g>
<g>
</g>
<g>
</g>
<g>
</g>
<g>
</g>
<g>
</g>
<g>
</g>
</svg>
