<?xml version="1.0" encoding="utf-8"?>
<!-- Generator: Adobe Illustrator 18.0.0, SVG Export Plug-In . SVG Version: 6.00 Build 0)  -->
<!DOCTYPE svg PUBLIC "-//W3C//DTD SVG 1.1//EN" "http://www.w3.org/Graphics/SVG/1.1/DTD/svg11.dtd">
<svg version="1.1" id="Layer_1" xmlns="http://www.w3.org/2000/svg" xmlns:xlink="http://www.w3.org/1999/xlink" x="0px" y="0px"
	 viewBox="0 0 64.6 48.1" enable-background="new 0 0 64.6 48.1" xml:space="preserve">
<g>
	<path fill="#FFFFFF" d="M63.4,21.2c0-11.1-14-20.1-31.2-20.1s-31.2,9-31.2,20.1s14,20.1,31.2,20.1c0.3,0,0.5,0,0.8,0v5.1
		c0,0.7,0.9,1,1.4,0.5l4.6-6.1C53,38.9,63.4,30.8,63.4,21.2z"/>
	<g>
		<g>
			<path fill-rule="evenodd" clip-rule="evenodd" fill="#3A494F" d="M61,16.3c-0.1-0.2-0.1-0.4-0.2-0.6c-0.1-0.2-0.2-0.4-0.3-0.6
				c0-0.1,0.1-0.2,0-0.4c-0.2-0.3-0.3-0.6-0.4-0.9c-0.2-0.3-0.3-0.5-0.5-0.8c-0.4-0.5-0.2,0-0.6-0.6c-0.4-0.5-0.2-0.4-0.6-0.9
				c-0.5-0.5-1.1-0.9-1.7-1.3c-0.5-0.4,0-0.2-0.5-0.6c-0.5-0.4-0.4-0.2-0.9-0.6c-0.5-0.4-0.9-0.9-1.2-1.3c-0.9-0.5-2.9-1.5-3.5-1.7
				c-1.2-0.6-0.7-0.5-1.8-1c0,0,0.3,0.1-0.3-0.2c-0.6-0.2-0.4,0-1.1-0.3c-0.6-0.2-0.3-0.3-1-0.5c-0.3-0.1-0.9-0.1-1.2,0
				c-0.9-0.4-1.8-0.9-2.4-1c-0.3-0.1-0.9-0.2-1.5-0.2c-0.6,0-1.2-0.1-1.5-0.1c-0.7-0.1-0.1-0.1-0.8-0.2c-0.7-0.1-0.7,0-1.4-0.1
				c-1.4-0.1-0.1-0.2-1.1-0.3c-0.7-0.1-0.1,0.1-0.8,0C35.1,2,34.8,2,34.1,1.9c-0.3,0-1.2,0-2,0.1c-0.9,0.1-1.7,0.2-2,0.2
				c-0.7,0-1.8,0-2.4,0.1c-0.7,0.1-1.7,0.2-2.2,0.4c-0.3,0.1-0.5-0.1-0.4-0.2c0,0-0.3,0-0.7,0.1c-0.4,0.1-1,0.1-1.5,0.3
				c-1.1,0.3-2.2,0.5-2.2,0.5c0.3,0.1,0.6,0,0.6,0.1c-0.4,0.1-0.4,0-1,0.2c-0.6,0.2-0.6,0.3-1.3,0.5c-0.3,0.1-0.8,0.2-1.2,0.3
				c-0.4,0.1-0.9,0.2-1.2,0.3c-0.6,0.2-0.6,0.4-1.2,0.6c-0.6,0.3-0.4,0.1-1,0.4C13.6,6,13.3,6.2,13,6.5c-0.4,0.1-0.1-0.2-0.7,0.1
				c-0.6,0.3,0.2,0-0.4,0.4c-0.6,0.3,0.1-0.2-0.5,0.2c-0.6,0.3,0.2,0-0.4,0.4c-0.6,0.3-0.2,0-0.7,0.4C9.7,8.3,9.5,8.5,9,8.9
				C8.4,9.3,8.2,9.6,7.9,9.7c-0.1,0.1-0.2,0.3-0.1,0.4c-0.3,0.2-0.4,0.2-0.8,0.6c-0.5,0.5-0.4,0.6-0.8,1c-0.5,0.5-1,1-1.4,1.6
				c-0.4,0.5-0.7,1.3-1,1.8c-0.3,0.6-0.4,0.6-0.5,0.8c-0.2,0.6-0.5,1.2-0.7,1.8c-0.1,0.6-0.3,1.2-0.4,1.9C2,19.7,2,19.3,2,20
				c0,0.3-0.1,0.9,0.1,1.6c0.1,0.6,0.2,1.3,0.4,1.8l0.2,0.9c-0.1,0-0.2-0.5-0.5-0.9c0,0,0.1,0.5,0.2,0.9c0.1,0.5,0.2,0.9,0.3,0.9
				c0.2,0.6,0.2,0.2,0.5,0.8c0.1,0.3,0.2,0.5,0.2,0.7c0.1,0.2,0.2,0.4,0.3,0.7C4,28,4,27.8,4.3,28.3c0.4,0.5,0,0.2,0.4,0.7
				c0.4,0.5,0.6,0.7,1,1.2c0.5,0.5,1.4,1.7,2,2.1c0.4,0.3,1.2,1.1,1.6,1.2c0.3,0.3,0.7,0.7,0.8,0.9c0.6,0.4,0.7,0.6,0.8,0.4
				c0.1-0.1-0.4-0.4-0.3-0.4c0.5,0.5,1.1,0.9,1.7,1.3c0.1,0,0.4,0.2,0.8,0.3c0.4,0.1,0.7,0.2,0.9,0.2l0.9,0.4c0,0.1,0.4,0.5,0.6,0.6
				c0.2,0.1,0.3,0,0.5-0.1c0.6,0.4,1,0.6,1.6,0.9c0.6,0.2,1.8,0.3,2.4,0.5c0.6,0.2,0.4,0.2,1,0.4c0.7,0.2,0.5,0.1,0.6,0
				c0.4,0.2,0,0.2,0.7,0.4c0.7,0.2-0.1-0.1,0.6,0c0.7,0.2,0.6,0.2,1.3,0.4c1.2,0.2,1.5,0.2,1.7,0c0,0,0.2,0,0.5,0.1
				c0.3,0,0.5,0,0.5,0c0,0.1,0.4,0.4,0.8,0.4c0.7,0.1-0.1-0.1,0.6-0.1c0.7,0.1-0.1,0.1,0.5,0.2c0.7,0.1,1-0.1,1.5-0.1
				c0.4,0,0.8,0,1.5,0c0.1,0,0.8,0,1.4,0.1c0.3,0,0.6,0,1,0l0.1,0l0,0.1l0,0.1l0,0.3l0,0.6c0,0.4,0,0.7,0,1.1c0,0.2,0,0.4,0,0.6
				c0,0.4,0,0.7,0,0.8c0,0.3,0,0.5,0,0.8c0,0.1,0,0.1,0,0.2c0,0.1,0,0.1,0.1,0.2c0.1,0,0.1,0,0.1,0.1c0.1,0.1,0.1,0.2,0.1,0.3
				c0.1,0.1,0.2,0.1,0.5-0.3c0.1-0.2,0.3-0.4,0.5-0.7c0.2-0.3,0.4-0.6,0.6-0.9c0.4-0.6,1.2-1.4,1.8-2c0.1-0.2,0.2-0.4,0.1-0.5
				l0.7-0.9c0.1-0.1,0.2-0.2,0.3-0.2c0.1,0,0.2,0,0.3,0c0.2,0,0.3,0,0.4,0c0.2,0,0.2,0,0.5,0c0.2,0,0.1,0.1,0.4,0.1l0.8-0.1
				c0.7-0.1,0.4-0.2,0.8-0.4c0.5-0.1,1.3-0.3,1.8-0.5c0.2-0.1-0.2,0,0.4-0.2c0.6-0.2,1.8-0.4,2.6-0.6c0.2-0.1,0.3-0.2,0.4-0.4
				c0.4-0.1,1.1-0.3,1.7-0.5c0.6-0.3,1.3-0.6,1.8-0.9c0.3-0.1,0.4-0.1,0.5,0l1.3-0.7c0.2-0.2,0.1-0.2,0.1-0.3c0,0,0.3-0.2,0.6-0.4
				c0.3-0.2,0.6-0.4,0.6-0.4c0.6-0.4,0.3-0.1,0.9-0.4c0.5-0.4,0.6-0.5,0.6-0.6c1.6-1,0.7-0.3,2.2-1.5c0.9-0.8,1.7-2,1.9-2.3
				c0.4-0.5,1-0.8,1.3-1.4c0.4-0.6,0-0.2,0.3-0.7c0.3-0.6,0,0.2,0.4-0.4c0.1-0.3,0.4-0.8,0.6-1.3c0.2-0.5,0.3-1.1,0.4-1.5
				c0-0.2,0,0,0.1-0.6c0.1-0.3,0.2-0.7,0.3-1c0.1-0.3,0.2-0.8,0.2-0.7l0-0.1c0,0-0.1,0-0.2-0.1c0.2-0.1,0.4-0.3,0.4-0.6
				c0.1,0,0.1,0.1,0.2,0.1c0.3,0,0.4-0.4,0.6-0.4c0.1,0,0.1,0,0.1,0c0,0.1,0.1,0.5,0.3,0.6c0.1,0,0.1-0.1,0.2-0.1
				c0,0.4,0.2,0.5,0.2,0.6c0,0.1,0,0.1-0.1,0.2c0,0,0,0,0,0.1c0,0.1,0,0.2,0,0.3c0,0.2,0,0.3-0.1,0.5c-0.2,0.7-0.1,1.1-0.3,1.8
				c-0.2,0.7-0.1,0.2-0.3,0.4c-0.3,1.1-1.2,2.7-1.6,3.3c-0.4,0.6-0.7,1.1-1,1.5c-0.2,0.4-0.4,0.9-0.9,1.5c-0.5,0.5-0.2,0.1-0.4,0.3
				c-0.4,0.4-1,1-1.5,1.5c-0.3,0.2-0.7,0.6-1.1,1c-0.5,0.4-1,0.8-1.5,1.2c-0.1,0,0.2-0.2,0.3-0.4c0,0-0.5,0.3-0.8,0.3
				c-0.2,0.1-0.1,0.2-0.7,0.6c-0.6,0.4-0.5,0.2-0.7,0.3c-0.4,0.3-0.8,0.5-0.8,0.6c0.1,0.1,0.5-0.2,0.5-0.1c0,0-1.4,0.8-1.4,0.8
				c-0.4,0-0.8,0.2-1.4,0.5c-0.7,0.3,0.2,0-0.5,0.3c-0.7,0.3,0.1-0.2-0.6,0.1c-0.7,0.3-0.3,0.3-1,0.5c-0.7,0.2-0.7,0.1-1.4,0.4
				c-0.7,0.3-1.8,0.6-2.5,0.9c-0.5,0.2-0.7,0.4-1.2,0.5c-0.1-0.1,0.4-0.2,0.5-0.3c-0.6,0.2-1.5,0.3-2.2,0.5
				c-0.7,0.1-1.4,0.2-1.8,0.3l-0.5,0.1l-0.1,0l-0.1,0c-0.1,0.1,0,0.1-0.2,0.3l0,0c-0.5,0.6-0.3,0.2-0.4,0.4
				c-0.1,0.2-0.2,0.3-0.1,0.5c-0.2,0.3-0.1,0-0.6,0.6c-0.4,0.6-0.1,0.2-0.1,0.3c-0.2,0.3-0.4,0.3-0.5,0.2c-0.4,0.5-0.8,1.1-1.3,1.7
				c-0.3,0.4-0.7,0.8-1,1.3c-0.4,0.6-0.8,0.9-1.2,1c-0.1,0,0-0.1,0-0.1c0,0,0,0-0.5,0.1c-0.2,0-0.6,0-0.9-0.2
				c-0.4-0.2-0.6-0.5-0.8-0.8C32,46.8,32,46.2,32,45.7c0-0.5,0-0.9,0-1.1c0-0.7,0.2-1,0.2-1.7c0-0.4,0-0.3-0.1-0.3
				c0,0-0.1,0-0.1-0.1c0-0.1,0-0.2,0.1-0.3c0-0.1-0.1-0.1-0.1-0.2c-0.1,0-0.2,0.1-0.2,0.2l-0.8,0c0-0.1-0.6-0.1-0.8-0.2
				c-0.2,0-0.7,0.1-1,0.3c0,0-0.3,0-0.5,0c-0.3,0-0.5-0.1-0.5-0.1c0-0.1,0.5-0.1,0.6-0.1c-0.2-0.1,0.1,0-0.6-0.1
				c-0.7-0.1-1.3,0.1-2,0c-0.7-0.1-0.4-0.2-1.1-0.3c-0.7-0.1-0.4,0-1.1-0.1c-0.7-0.1-0.1-0.1-0.8-0.3c-0.7-0.1-0.6-0.1-0.7,0
				c-0.4-0.2-0.8-0.3-1.2-0.5c-0.4-0.2-1.3-0.3-2-0.5c-0.7-0.2-1.5-0.5-2-0.6c-0.3-0.1-0.5-0.1-0.9-0.2c0,0,0.3,0.1-0.4-0.1
				c-0.7-0.3-0.9-0.5-1.2-0.7c-0.2-0.1-0.4-0.2-1.1-0.5c-2.2-1-1.6-0.5-2.6-1.1c-0.8-0.5-0.9-0.7-1.7-1.4l-0.6-0.4
				c-0.2-0.1-0.1-0.1-0.2,0c-0.1,0.1,0.4,0.4,0.3,0.5c0,0-1.7-1.2-1.7-1.2c-0.6-0.5-0.5-0.6-1.1-1.1c-0.6-0.5-0.8-0.7-1.1-1
				c0-0.1,0.4,0.3,0.5,0.2c-0.1-0.2,0.1,0.1-0.4-0.5c-0.5-0.5-0.4-0.2-0.9-0.8c-0.5-0.6-0.2-0.4-0.6-1c-0.4-0.6-0.9-1-1.2-1.6
				c-0.3-0.7-0.4-0.9-0.7-1.6c-0.3-0.7,0,0.2-0.3-0.5c-0.3-0.7,0-0.2-0.2-0.9c-0.3-0.7-0.2-0.1-0.4-0.8c-0.2-0.7-0.2-1.5-0.2-1.7
				c-0.1-0.5-0.1-1-0.3-1c-0.1,0,0,0.6-0.1,0.6c-0.1-1,0-1,0-1.8c0-0.7,0-0.6-0.1-0.7c0.2-0.8,0.3-1.2,0.4-2c0.2-0.7,0.1-1,0.3-1.6
				c0.1-0.3,0.2-0.3,0.6-1L1,16c0,0,0.2-0.5,0.4-1.1c0.1-0.3,0.3-0.5,0.4-0.7c0.1-0.2,0.2-0.3,0.2-0.3c0.1,0,0.4-0.5,0.6-0.6
				C2.7,12.9,3,12.4,3.3,12c0.3-0.5,0.6-1,0.9-1.2c0.5-0.5,1.1-1,1.3-1.1c0.1-0.2,0.2-0.3,0.1-0.5c0.6-0.4,1.3-1,1.9-1.4
				c0.7-0.5,1.3-0.9,1.6-1.1C9.8,6.1,9.8,6.2,9.7,6L11,5.2c0.3-0.2,0.7-0.4,1.1-0.5c0.4-0.1,0.8-0.3,1.2-0.4c0.6-0.3,0.3-0.3,1-0.6
				c0.7-0.3,1.2-0.4,1.9-0.6c0.7-0.3,0.9-0.5,1.6-0.7c0.7-0.2-0.1,0.1,0.6-0.1c0.7-0.2,0.4-0.2,1.1-0.4c0.7-0.2,1-0.1,1.7-0.3
				c0.7-0.2,0.4-0.2,1.1-0.4c0.7-0.2-0.1,0.1,0.6,0c0.7-0.1,0.4-0.2,1.1-0.3c0.7-0.1,1.4-0.1,1.6,0c0.2,0,0.3-0.1,0.4-0.3
				c0.4-0.1,0.1,0.1,0.8,0c0.7-0.1-0.2-0.1,0.6-0.2c0.7-0.1-0.1,0.1,0.6,0.1c0.7-0.1,0.3-0.1,0.4-0.1c0.5-0.1,2.2,0,2.7-0.3
				c0.4,0,0.5,0.1,0.6,0.2c0.4,0,0.9,0.1,1.6,0.2c0.4,0,1-0.1,1.2-0.3c0,0,0.4,0,0.8,0c0.4,0,0.8,0,0.8,0c0.3,0.2,0.5,0.3,1.2,0.3
				c0.7,0.1,0.2-0.1,0.9,0c0.7,0.1,1,0.2,1.7,0.3c0.7,0.1,0.9,0.2,1.2,0.2c0.3,0,0.2-0.1,0.4-0.1c0.3,0,1,0.2,2,0.3
				c0.1,0.1-0.3,0-0.5,0c0,0,0.5,0.2,0.7,0.4c0.5,0.1,1.1,0.1,1.8,0.3C45.8,2,46,2.2,46.7,2.4c0.7,0.2-0.1-0.1,0.6,0.1
				c0.7,0.2,0.2,0.1,0.4,0.3c0.5,0.2,0.7,0.3,1.4,0.6c0.7,0.2,1.3,0.6,1.8,0.7l0,0c0.7,0.4,0.2,0.2,0.8,0.5c0.6,0.3,0.4,0.1,1.1,0.4
				c0.6,0.4,0.3,0.3,0.9,0.7c0.6,0.4,0.2,0,0.8,0.3c0.6,0.4,0.3,0.3,0.9,0.7c0.6,0.4,1,0.6,1.4,0.7c0.5,0.5,1.2,1.3,1.7,1.8
				c0.5,0.5,0.4,0.2,0.9,0.7c0.5,0.5,0,0.2,0.5,0.7c0.5,0.5,0.4,0.4,0.5,0.4c0.2,0.3,0.2,0.5,0.1,0.5c0,0,0.2,0.2,0.5,0.6
				c0.3,0.4,0.7,0.9,0.9,1.4c0.3,0.5,0.6,1.1,0.8,1.5c0.2,0.4,0.3,0.7,0.3,0.7c0.3,0.7,0.1-0.2,0.3,0.5c0.3,0.7,0,0.2,0.2,0.9
				c0.2,0.7,0.2,0.4,0.4,1.1c0.2,0.7,0,0.4,0.1,1.2c0,0.2,0,0.1,0.1,0.2c-0.1,0.1-0.2,0.2-0.3,0.3c0,0.2-0.1,0.4-0.2,0.5
				c0,0,0.1,0.1,0.2,0.1l0,0.2c0,0.1-0.1,0.1-0.1,0.2c-0.1,0-0.1,0.1-0.2,0.1c-0.1,0-0.1-0.1-0.2-0.1c-0.1,0-0.2,0.1-0.3,0.2
				c-0.2-0.1-0.4-0.2-0.6-0.3c0-0.1,0.1-0.1,0.1-0.2l-0.3,0l0-0.1c0-0.1,0.1,0,0.1-0.1c0,0-0.1-0.1-0.2-0.1c0-0.1,0-0.1,0.1-0.1
				c0-0.1,0-0.2,0-0.3l0-0.2c0,0,0,0,0-0.1l0-0.2c0-0.1,0-0.3-0.1-0.4c-0.2-1-0.4-1.8-0.5-2.1c-0.3-0.6-0.5-1.3-0.8-1.6
				C60.9,15.6,61,16.1,61,16.3z"/>
		</g>
	</g>
</g>
<g>
</g>
<g>
</g>
<g>
</g>
<g>
</g>
<g>
</g>
<g>
</g>
<g>
</g>
<g>
</g>
<g>
</g>
<g>
</g>
<g>
</g>
<g>
</g>
<g>
</g>
<g>
</g>
<g>
</g>
</svg>
