<?xml version="1.0" encoding="utf-8"?>
<!-- Generator: Adobe Illustrator 18.0.0, SVG Export Plug-In . SVG Version: 6.00 Build 0)  -->
<!DOCTYPE svg PUBLIC "-//W3C//DTD SVG 1.1//EN" "http://www.w3.org/Graphics/SVG/1.1/DTD/svg11.dtd">
<svg version="1.1" id="Layer_1" xmlns="http://www.w3.org/2000/svg" xmlns:xlink="http://www.w3.org/1999/xlink" x="0px" y="0px"
	 viewBox="0 0 9.5 9.3" enable-background="new 0 0 9.5 9.3" xml:space="preserve">
<g>
	<path fill="#3A494F" d="M8.9,4.7C8.9,7,7,8.9,4.7,8.9C2.4,8.9,0.5,7,0.5,4.7c0-2.3,1.9-4.2,4.2-4.2C7,0.4,8.9,2.3,8.9,4.7"/>
	<path fill-rule="evenodd" clip-rule="evenodd" fill="#3A494F" d="M9.3,6.1c0,0.1-0.1,0.1-0.1,0.2c0,0-0.1,0-0.1,0
		C9,6.5,8.9,6.5,8.9,6.6c0,0.1,0,0,0,0.1c-0.1,0.1-0.1,0-0.1,0.1C8.7,7,8.7,7.2,8.6,7.3c-0.1,0.1-0.1,0-0.1,0.1
		c-0.1,0.1,0,0.1-0.1,0.2C8.4,7.6,8.2,7.7,8.1,7.7C8.1,7.8,7.8,8.1,7.7,8.2c-0.2,0.1-0.2,0-0.3,0.1c0,0,0,0-0.1,0
		c-0.1,0.1,0,0.1-0.1,0.1c-0.1,0.1-0.1,0-0.2,0.1C7,8.6,7,8.7,7,8.8c-0.2,0-0.4,0-0.5,0.1c-0.1,0-0.3,0.2-0.4,0.3c-0.1,0,0,0-0.1,0
		c-0.1,0-0.1,0.1-0.2,0.1c-0.2,0,0-0.1-0.2-0.1c-0.1,0,0,0.1-0.1,0.1c-0.1,0-0.2,0-0.3,0C5,9.2,4.5,9.3,4.4,9.3
		C4.3,9.3,4.1,9.2,4,9.2c-0.1,0-0.3,0-0.4,0c0,0-0.1-0.1,0-0.1C3.4,9,3.1,8.9,2.9,8.9c0,0.1,0.1,0.1,0,0.1c-0.1,0,0-0.1-0.1-0.1
		c-0.1,0-0.1,0-0.2-0.1c-0.1,0-0.2-0.2-0.3-0.3c-0.1-0.1-0.1,0-0.2-0.1C2,8.4,2,8.4,1.9,8.3C1.8,8.2,1.8,8.2,1.7,8.2
		c0-0.1,0.1-0.1,0-0.2C1.6,8,1.6,8.1,1.6,8C1.5,8,1.6,8,1.5,7.9c-0.1-0.1,0,0.1-0.1,0c-0.1-0.1,0-0.1-0.1-0.1
		C1.3,7.7,1.2,7.7,1.2,7.6C1.1,7.5,1,7.5,1.1,7.4c0,0-0.1,0-0.1,0c0,0,0-0.1-0.1-0.2C0.8,7.1,0.8,7.2,0.7,7.1C0.7,7,0.6,6.8,0.6,6.7
		c0-0.1-0.2-0.2-0.2-0.3c0-0.1,0-0.1,0-0.2C0.3,6,0.2,5.8,0.2,5.6c0,0,0,0,0-0.1c0-0.1-0.2-0.4-0.2-0.6l0-0.2c0,0,0,0.1,0.1,0.2
		c0-0.1,0-0.2,0-0.3c0-0.1-0.1-0.1,0-0.2c0-0.1,0.1-0.2,0.1-0.3c0-0.1,0-0.1,0-0.2c0-0.1,0.1,0,0.1-0.1c0-0.1,0-0.2,0-0.3
		c0-0.1,0.1-0.4,0.2-0.5c0-0.1,0.1-0.3,0.1-0.3c0.1,0,0.1-0.1,0.2-0.1c0.1-0.1,0.1-0.1,0-0.1c-0.1,0-0.1,0.1-0.1,0
		c0.1-0.1,0.2-0.2,0.3-0.3c0,0,0.1-0.2,0-0.3L1,1.8c0,0,0.1,0,0.2,0c0,0,0-0.1,0-0.1c0.1-0.1,0.2-0.1,0.3-0.2
		c0.1-0.1,0.1-0.3,0.2-0.4c0.1-0.1,0.1,0,0.2-0.1C1.9,1,1.9,1,1.8,1C1.9,1,1.9,1.1,2,1c0.1-0.1,0,0,0-0.1c0.1-0.1,0.1,0,0.2-0.1
		c0.2-0.1,0.2-0.1,0.2-0.3c0,0,0.1-0.1,0.2-0.1c0,0,0.1,0.1,0.2,0.1c0.1,0,0,0,0.1-0.1c0.1,0,0,0.1,0.1,0c0.1,0,0.1-0.1,0.2-0.2
		c0.1,0,0.1-0.1,0.2-0.1c0.1,0,0.6,0,0.7,0C4.4,0.1,4.3,0,4.5,0C4.7,0,4.6,0.1,5,0.1c0.1,0,0.3,0,0.4,0c0.1,0,0.3,0.1,0.4,0.2
		c0,0,0.1,0,0.1-0.1l0.1,0c0.1,0,0.1,0.1,0.2,0.1c0,0,0,0.1,0,0.1l0.1,0c0.1,0,0.1,0,0.2,0c0.1,0,0.2,0.1,0.3,0.1c0,0,0-0.1,0.1,0
		c0.1,0,0.2,0.2,0.3,0.3c0,0,0.1,0,0.1,0c0,0.1,0.1,0.1,0.2,0.2c0.1,0.1,0.2,0.1,0.3,0.2c0,0,0,0.1,0,0.1l0.2,0.2c0,0,0.1,0,0.1,0
		l0.2,0.2c0.1,0.1,0,0.1,0.1,0.2c0.1,0.1,0.1,0.1,0.1,0.1c0.1,0.3,0,0.2,0.2,0.4c0.1,0.2,0.3,0.3,0.3,0.4c0,0.1,0,0.2,0,0.3
		C8.9,3.1,9,3,9,3.1c0,0.1-0.1,0,0,0.1c0,0.1,0.2,0.3,0.2,0.5c0,0,0,0,0,0.1c0,0.1,0,0.3,0,0.3l0,0.1c0,0,0.1,0,0.1,0
		C9.2,4.3,9.2,4.4,9.2,4.5c0,0,0,0-0.1,0c-0.1,0-0.2,0.2-0.3,0.2c-0.1,0,0,0-0.1,0c0,0-0.1-0.2-0.2-0.2c-0.1,0-0.1,0-0.1,0
		c0-0.1-0.1-0.2-0.1-0.2c0-0.1,0-0.1,0-0.2C8.4,4,8.3,4,8.3,3.9c0-0.1,0,0,0-0.1c0-0.1,0-0.4-0.1-0.5c0-0.1,0-0.2-0.1-0.2
		C8.1,3.1,8,3.1,8,3c0-0.1,0,0,0-0.1c0-0.1-0.1-0.2-0.1-0.2c0-0.1-0.2-0.2-0.3-0.3c0,0,0.1,0,0.1,0c0,0,0-0.1,0-0.1
		c0,0-0.1,0-0.1-0.1c-0.1-0.1,0-0.1,0-0.1C7.5,2,7.4,2,7.4,2c0,0,0,0.1,0,0.1C7.3,2.1,7.3,2,7.2,2c0-0.1,0-0.1-0.1-0.2
		c-0.1-0.1,0,0-0.1,0c-0.1-0.1,0,0,0-0.1C7,1.6,7,1.7,6.9,1.6c-0.1-0.1,0-0.1-0.1-0.1c-0.1,0-0.2-0.1-0.3-0.1c-0.1,0-0.1,0-0.2,0
		c0,0,0.1,0,0.1-0.1C6.2,1.2,6,1.1,5.9,1.1C5.8,1,5.7,1,5.7,1l0,0C5.5,1,5.6,1,5.6,1c0,0-0.1,0-0.1,0.1c0,0,0-0.1-0.1-0.1
		c-0.1,0,0,0,0,0c0,0-0.1-0.1,0-0.1c-0.2,0-0.4,0-0.6-0.1c0,0,0,0-0.1,0C4.6,0.8,4.3,0.9,4.3,1C4.2,1,4.1,0.9,4,0.9
		C3.9,0.9,4,0.9,4,1c-0.1,0-0.2,0-0.2,0c0,0,0,0,0,0.1c0,0-0.1,0-0.1,0c0,0-0.1,0-0.1-0.1c0,0-0.1,0.1-0.1,0.2c0,0-0.1,0-0.1,0
		c0,0,0-0.1,0-0.1c0,0,0,0-0.1,0C3.1,1.2,3.1,1.3,3,1.3c-0.1,0-0.1,0-0.2,0c-0.1,0,0,0.1-0.1,0.1c-0.1,0,0,0-0.1,0
		c-0.1,0.1-0.1,0.1,0,0.1c-0.1,0-0.1,0-0.2,0c-0.1,0-0.1,0.1-0.2,0.2C2.1,1.9,2,1.9,2,2c0,0,0,0.1,0,0.1c0,0,0,0,0,0
		C1.9,2.2,1.8,2.2,1.7,2.3c0,0,0,0-0.1,0.1c-0.2,0.3,0,0.2-0.1,0.4C1.5,2.8,1.4,2.8,1.2,2.9l0,0.1c0,0,0,0,0,0c0.1,0,0.1,0,0.1,0
		c0,0.1-0.1,0.2-0.1,0.2c0,0.1-0.1,0.1-0.1,0.2c0,0.1,0,0.1,0,0.2c0,0,0-0.1-0.1-0.1c0,0,0,0,0,0.1c0,0.1,0,0.1,0,0.2
		C1,3.9,1,3.8,1,3.9c0,0.1,0,0.2,0,0.3c0,0.1-0.1,0.1-0.1,0.2c0,0.1,0,0,0,0.1c0,0.1,0,0-0.1,0.1c0,0.1,0,0,0,0.1
		c0,0.1,0,0.2-0.1,0.2C0.9,5,0.9,5,0.9,5C1,5,1,5,1,5c0,0.1,0,0.1,0,0.2C1,5.3,1,5.3,1,5.3C1,5.4,1,5.4,1,5.5c0,0.1,0.1,0.1,0.1,0.2
		c0,0,0,0.1-0.1,0.2l0.1,0l0.1,0.3c0,0,0,0.1,0,0.1c0.1,0.1,0.2,0.2,0.3,0.3c0,0.1,0,0.2,0,0.2c0,0,0.1,0,0.1,0
		c0.1,0.2,0.2,0.4,0.3,0.5C2,7.3,2,7.3,2,7.3c0,0.1,0.1,0.1,0.1,0.1c0.1,0.1,0.1,0.2,0.2,0.3c0.1,0.1,0.1,0,0.1,0.1
		c0.1,0.1,0.1,0.1,0.2,0.2c0.1,0,0.1,0,0.2,0.1c0.1,0,0,0,0,0.1c0.1,0,0.1,0,0.2,0c0.1,0,0.1,0.1,0.2,0.1c0.1,0,0.1,0,0.2,0
		c0.1,0,0,0,0.1,0.1c0.1,0,0.1,0,0.2,0c0.1,0,0.2,0.1,0.2,0.2c0,0,0.1,0,0.1-0.1c0,0,0,0,0.1,0.1c0.1,0,0-0.1,0.1,0
		c0.1,0,0,0,0.1,0.1c0.1,0,0,0,0.1,0c0.1,0,0.3,0.1,0.4,0c0,0,0.1,0.1,0.1,0.1c0.1,0,0.1,0.1,0.2,0.1C5,8.5,5,8.5,5,8.4
		c0.1,0,0.1,0,0.2,0c0,0,0.1,0.1,0.2,0.1c0.1,0,0,0,0.1-0.1c0.1,0,0.1,0,0.2,0c0.1,0,0.1,0,0.2,0c0,0,0-0.1,0-0.1
		c0,0,0.1-0.1,0.2-0.1c0,0,0,0.1,0,0.1c0,0,0.1,0,0.1,0c0,0,0.1-0.1,0.2-0.1C6.5,8,6.6,8,6.6,8c0.1,0,0,0,0-0.1c0.1,0,0,0,0.1,0
		c0.1,0,0.1,0,0.2-0.1C7,7.7,7.1,7.7,7.1,7.6l0,0c0.1-0.1,0.1,0,0.1,0c0.1-0.1,0-0.1,0.1-0.1c0.1-0.1,0.1,0,0.1-0.1
		c0.1-0.1,0,0,0-0.1c0.1-0.1,0.1,0,0.1-0.1c0.1-0.1,0.1-0.1,0-0.2c0.1,0,0.2-0.1,0.3-0.2c0-0.1,0-0.1,0-0.2c0-0.1,0.1,0,0.1-0.1
		c0-0.1,0-0.1,0-0.1c0,0,0.1,0,0.1,0C8.3,6.2,8.4,6,8.4,5.8c0-0.1-0.1,0,0-0.1c0-0.1,0.1,0,0.1-0.1c0-0.1,0-0.1,0-0.2
		c0-0.1,0.1,0,0.1-0.1c0-0.1,0,0,0-0.1c0,0,0.1-0.1,0.2-0.1C8.7,5.1,8.7,5,8.8,5c0,0,0,0-0.1,0l0-0.1c0-0.1,0,0,0.1-0.1
		c0,0,0.1-0.1,0.1-0.1c0.1,0,0,0,0.1,0.1c0.1,0,0.1,0,0.1-0.1c0.1,0.1,0.2,0.1,0.2,0.2c0,0,0,0.1-0.1,0.1l0.1,0l0,0.1
		c0,0.1,0,0-0.1,0c0,0,0,0,0.1,0c0,0,0,0,0,0.1c0,0.1-0.1,0.2-0.1,0.4c0,0.2-0.1,0.3-0.1,0.4c0,0.1-0.1,0.2-0.1,0.3
		C9.2,6.2,9.2,6.1,9.3,6.1"/>
	
		<path fill="none" stroke="#FFFFFF" stroke-width="0.2812" stroke-linecap="round" stroke-linejoin="round" stroke-miterlimit="10" d="
		M6.8,3.9c0-1.1-0.9-2.1-2.1-2.1c-1.1,0-2.1,0.9-2.1,2.1c0,0.9,0.5,1.6,1.3,1.9h1.6C6.3,5.5,6.8,4.8,6.8,3.9z"/>
	
		<polygon fill="none" stroke="#FFFFFF" stroke-width="0.2812" stroke-linecap="round" stroke-linejoin="round" stroke-miterlimit="10" points="
		5.5,5.6 3.8,5.6 3.8,5.6 3.8,7.3 5.5,7.3 5.5,5.6 	"/>
	
		<path fill="none" stroke="#FFFFFF" stroke-width="0.2812" stroke-linecap="round" stroke-linejoin="round" stroke-miterlimit="10" d="
		M4.5,7.6v0.2c0,0.2,0.1,0.3,0.3,0.3h0c0.2,0,0.3-0.1,0.3-0.3V7.6H4.5z"/>
	
		<path fill="none" stroke="#FFFFFF" stroke-width="0.2812" stroke-linecap="round" stroke-linejoin="round" stroke-miterlimit="10" d="
		M4.3,3.8c0,0.5-0.3,1-0.3,1s-0.3-0.5-0.3-1c0-0.5,0.1-0.7,0.3-0.7C4.2,3.1,4.3,3.4,4.3,3.8z"/>
	
		<path fill="none" stroke="#FFFFFF" stroke-width="0.2812" stroke-linecap="round" stroke-linejoin="round" stroke-miterlimit="10" d="
		M5.1,3.8c0,0.5-0.3,1-0.3,1s-0.3-0.5-0.3-1c0-0.5,0.1-0.7,0.3-0.7C4.9,3.1,5.1,3.4,5.1,3.8z"/>
	
		<path fill="none" stroke="#FFFFFF" stroke-width="0.2812" stroke-linecap="round" stroke-linejoin="round" stroke-miterlimit="10" d="
		M5.8,3.8c0,0.5-0.3,1-0.3,1s-0.3-0.5-0.3-1c0-0.5,0.1-0.7,0.3-0.7S5.8,3.4,5.8,3.8z"/>
	
		<path fill="none" stroke="#FFFFFF" stroke-width="0.2812" stroke-linecap="round" stroke-linejoin="round" stroke-miterlimit="10" d="
		M4,4.9c0,0,0.4,0.9,0.7,0"/>
	
		<path fill="none" stroke="#FFFFFF" stroke-width="0.2812" stroke-linecap="round" stroke-linejoin="round" stroke-miterlimit="10" d="
		M4.8,4.9c0,0,0.4,0.9,0.7,0"/>
	
		<line fill="none" stroke="#FFFFFF" stroke-width="0.2608" stroke-linecap="round" stroke-linejoin="round" stroke-miterlimit="10" x1="4.1" y1="6.4" x2="5.6" y2="6.4"/>
	
		<line fill="none" stroke="#FFFFFF" stroke-width="0.2608" stroke-linecap="round" stroke-linejoin="round" stroke-miterlimit="10" x1="4.1" y1="6.9" x2="5.6" y2="6.9"/>
</g>
<g>
</g>
<g>
</g>
<g>
</g>
<g>
</g>
<g>
</g>
<g>
</g>
<g>
</g>
<g>
</g>
<g>
</g>
<g>
</g>
<g>
</g>
<g>
</g>
<g>
</g>
<g>
</g>
<g>
</g>
</svg>
