<?xml version="1.0" encoding="utf-8"?>
<!-- Generator: Adobe Illustrator 18.0.0, SVG Export Plug-In . SVG Version: 6.00 Build 0)  -->
<!DOCTYPE svg PUBLIC "-//W3C//DTD SVG 1.1//EN" "http://www.w3.org/Graphics/SVG/1.1/DTD/svg11.dtd">
<svg version="1.1" id="Layer_1" xmlns="http://www.w3.org/2000/svg" xmlns:xlink="http://www.w3.org/1999/xlink" x="0px" y="0px"
	 viewBox="0 0 11.1 11" enable-background="new 0 0 11.1 11" xml:space="preserve">
<g>
	<path fill="#3A494F" d="M10.5,5.5c0,2.7-2.2,5-5,5c-2.7,0-5-2.2-5-5c0-2.7,2.2-5,5-5C8.3,0.5,10.5,2.7,10.5,5.5"/>
	<path fill-rule="evenodd" clip-rule="evenodd" fill="#3A494F" d="M10.9,7.2c0,0.1-0.1,0.1-0.1,0.2c0,0-0.1,0-0.1,0
		c-0.1,0.1-0.2,0.2-0.2,0.3c-0.1,0.1,0,0.1,0,0.2c-0.1,0.1-0.1,0-0.2,0.2c-0.1,0.1-0.1,0.3-0.1,0.4c-0.1,0.1-0.1,0-0.1,0.1
		C10,8.8,10,8.8,9.9,8.9C9.9,9,9.7,9,9.6,9C9.5,9.2,9.2,9.6,9.1,9.7c-0.2,0.2-0.2,0-0.4,0.2c0,0,0,0-0.1,0C8.6,10,8.6,10,8.5,10
		c-0.1,0.1-0.1,0-0.2,0.1c-0.1,0-0.1,0.2-0.1,0.3c-0.2,0-0.4,0-0.5,0.1c-0.1,0-0.4,0.3-0.5,0.3c-0.1,0,0,0-0.2,0
		c-0.1,0-0.1,0.1-0.2,0.1c-0.3,0.1,0-0.1-0.2-0.1c-0.1,0,0,0.1-0.1,0.1c-0.1,0-0.2,0-0.3,0c-0.1,0-0.7,0.1-0.8,0.1
		c-0.1,0-0.3-0.1-0.5-0.1c-0.1,0-0.3,0-0.5,0c-0.1,0-0.1-0.1,0-0.1c-0.3-0.1-0.5-0.2-0.8-0.3c0,0.1,0.1,0.1,0.1,0.1
		c-0.1,0,0-0.1-0.2-0.1c-0.1-0.1-0.1,0-0.3-0.1c-0.1-0.1-0.2-0.3-0.4-0.3C2.6,10,2.5,10,2.4,9.9c-0.1-0.1,0-0.1-0.1-0.2
		C2.2,9.7,2.1,9.7,2,9.7c0-0.1,0.1-0.1,0-0.2c-0.1-0.1,0,0.1-0.1,0c-0.1-0.1,0.1,0,0-0.1c-0.1-0.1,0,0.1-0.1,0
		c-0.1-0.1,0-0.1-0.1-0.2C1.5,9.1,1.4,9.1,1.4,9C1.3,8.9,1.2,8.8,1.3,8.7c0,0-0.1,0-0.1,0c0-0.1,0-0.1-0.1-0.2
		C1,8.4,0.9,8.4,0.8,8.3C0.8,8.2,0.7,8.1,0.7,7.9C0.6,7.8,0.5,7.7,0.5,7.6c0-0.1,0-0.2,0-0.2C0.3,7.1,0.3,6.8,0.2,6.6
		c0,0,0.1,0,0-0.1C0.2,6.4,0.1,6,0,5.8l0-0.2c0,0,0.1,0.1,0.1,0.2c0-0.1,0-0.3,0-0.4c0-0.1-0.1-0.1-0.1-0.2c0-0.1,0.1-0.2,0.1-0.3
		c0-0.1,0-0.1,0-0.2c0-0.1,0.1,0,0.1-0.2c0-0.1,0-0.2,0-0.3c0-0.1,0.2-0.4,0.2-0.6c0-0.1,0.1-0.3,0.1-0.4c0.1-0.1,0.1-0.1,0.2-0.2
		C0.8,3,0.8,3,0.8,2.9C0.7,2.9,0.7,3,0.7,3C0.8,2.9,0.9,2.8,1,2.7c0,0,0.1-0.3,0-0.4l0.1-0.2c0.1,0,0.2,0,0.2,0c0,0,0-0.1,0-0.1
		c0.1-0.1,0.2-0.1,0.3-0.2c0.1-0.1,0.2-0.3,0.3-0.4C2,1.3,2,1.4,2.1,1.3c0.1-0.1,0.1-0.1,0.1-0.1c0.1,0,0.1,0.1,0.2,0
		c0.1-0.1-0.1,0,0.1-0.1C2.5,1,2.5,1,2.7,1c0.2-0.1,0.2-0.2,0.2-0.3C2.9,0.6,3,0.6,3,0.5c0,0,0.2,0.1,0.2,0.1c0.1-0.1,0,0,0.1-0.1
		c0.1-0.1,0,0.1,0.1,0c0.1,0,0.2-0.1,0.2-0.2C3.8,0.3,3.8,0.3,4,0.2c0.1,0,0.7-0.1,0.8-0.1C5.2,0.1,5.1,0,5.3,0
		c0.2,0,0.1,0.1,0.5,0.1c0.1,0,0.3,0,0.4,0c0.1,0,0.4,0.1,0.5,0.2c0,0,0.1,0,0.1-0.1l0.2,0c0.1,0,0.1,0.1,0.2,0.1c0,0,0,0.1,0,0.1
		l0.1,0.1c0.1,0,0.1,0,0.2,0c0.1,0,0.2,0.1,0.3,0.1c0.1,0,0-0.1,0.1,0C8.1,0.7,8.3,0.9,8.4,1c0,0,0.1,0,0.1-0.1
		C8.6,1,8.7,1.1,8.8,1.2C8.9,1.3,9,1.3,9.1,1.4c0,0,0,0.1,0,0.1l0.2,0.2c0,0,0.1,0,0.1,0l0.2,0.2C9.7,2,9.6,2,9.7,2.1
		c0.1,0.1,0.1,0.1,0.1,0.1c0.2,0.4,0,0.2,0.2,0.5c0.1,0.2,0.4,0.4,0.4,0.5c0.1,0.1,0,0.3,0,0.4c0,0.1,0.1,0,0.1,0.1
		c0,0.1-0.1,0,0,0.1c0.1,0.1,0.2,0.4,0.3,0.6c0,0,0,0,0,0.1c0,0.1,0,0.3-0.1,0.4l0,0.1c0,0,0.1,0,0.1,0c-0.1,0.1-0.2,0.2-0.2,0.4
		c0,0,0-0.1-0.1-0.1c-0.2,0-0.2,0.2-0.3,0.2c-0.1,0-0.1,0-0.1,0c0-0.1-0.1-0.3-0.2-0.3C10,5.2,10,5.3,10,5.3C10,5.1,9.9,5.1,9.9,5
		c0-0.1,0-0.1,0-0.2c0-0.1-0.1-0.1-0.1-0.2c0-0.1,0,0,0-0.1c0-0.2,0-0.4-0.1-0.5c0-0.1,0-0.2-0.1-0.3C9.6,3.6,9.5,3.6,9.4,3.5
		c0-0.1,0,0,0-0.1c0-0.1-0.1-0.2-0.2-0.3c0-0.1-0.2-0.3-0.3-0.4c0,0,0.1,0,0.1,0c0,0,0-0.1,0-0.2c0,0-0.1,0-0.1-0.1
		c-0.1-0.1,0-0.1,0-0.1c-0.1,0-0.1-0.1-0.2-0.1c-0.1,0.1,0,0.1,0,0.1C8.6,2.4,8.6,2.4,8.5,2.3c0-0.1,0-0.2-0.1-0.2
		c-0.1-0.1,0,0.1-0.1,0C8.2,2,8.4,2.1,8.3,2C8.2,1.9,8.2,2,8.1,1.9C8,1.9,8.1,1.8,8,1.8C7.9,1.7,7.7,1.6,7.6,1.6c-0.1,0-0.1,0-0.2,0
		c0,0,0.1,0,0.1-0.1C7.3,1.5,7.1,1.3,7,1.3c-0.1,0-0.2-0.1-0.3,0l0,0c-0.1,0,0,0-0.1-0.1c0,0-0.1,0-0.1,0.1c-0.1,0,0-0.1-0.1-0.1
		c-0.1,0,0,0-0.1,0c-0.1,0-0.1-0.1-0.1-0.1C6.1,1.1,5.8,1,5.6,1c0,0,0,0-0.1,0C5.4,1,5.1,1.1,5,1.1C4.9,1.1,4.8,1,4.7,1.1
		c-0.1,0,0,0.1-0.1,0.1c-0.1,0-0.2,0-0.3-0.1c0,0,0,0.1,0,0.1c-0.1,0-0.1,0-0.2,0c0,0-0.1,0-0.2-0.1c0,0-0.1,0.1-0.1,0.2
		c0,0-0.1,0-0.1,0.1c0,0,0-0.1,0-0.1c0,0,0,0-0.1,0c-0.1,0-0.1,0.2-0.2,0.2c-0.1,0-0.1,0-0.2,0c-0.1,0.1,0,0.1-0.1,0.1
		c-0.1,0.1,0,0-0.1,0C3,1.8,3,1.8,3,1.9c-0.1,0-0.1,0-0.2,0C2.7,1.9,2.6,2,2.6,2.1C2.5,2.2,2.4,2.3,2.3,2.3c0,0,0,0.1,0,0.2
		c0,0,0,0,0,0.1C2.2,2.6,2.1,2.6,2,2.7c0,0,0,0.1-0.1,0.1c-0.2,0.3,0,0.3-0.1,0.4C1.7,3.4,1.6,3.3,1.5,3.4L1.4,3.6c0,0,0,0,0,0.1
		c0.1,0,0.1,0,0.1,0c0,0.1-0.1,0.2-0.1,0.3c0,0.1-0.1,0.1-0.1,0.2c0,0.1,0,0.2,0,0.2c0,0-0.1-0.1-0.1-0.1c0,0,0,0,0,0.1
		c0,0.1,0,0.1,0,0.2c0,0.1-0.1,0.1-0.1,0.2c0,0.1,0,0.2,0,0.3c0,0.1-0.1,0.1-0.1,0.3c0,0.1,0.1,0,0.1,0.1c0,0.1-0.1,0-0.1,0.1
		c0,0.1,0.1,0,0.1,0.1C1.1,5.6,1,5.8,1,5.8c0,0.1,0,0.1,0.1,0.1c0.1,0,0-0.1,0.1-0.1c0,0.1,0,0.2,0,0.3c0,0.1,0,0.1,0.1,0.1
		c0,0.1-0.1,0.2-0.1,0.3c0,0.1,0.1,0.1,0.1,0.2c0,0-0.1,0.1-0.1,0.2l0.2-0.1l0.1,0.3c0,0,0,0.1-0.1,0.2c0.1,0.1,0.2,0.3,0.3,0.4
		c0.1,0.1,0.1,0.2,0,0.3c0,0,0.1,0,0.1,0C2,8.1,2.1,8.5,2.2,8.5c0.1,0.1,0.1,0.1,0.2,0c0,0.1,0.1,0.1,0.2,0.2C2.6,8.8,2.7,9,2.8,9
		C2.9,9.1,2.9,9,3,9.1C3,9.2,3.1,9.3,3.2,9.3c0.1,0.1,0.2,0,0.3,0.1c0.1,0,0,0,0.1,0.1c0.1,0,0.1,0,0.2,0c0.1,0,0.1,0.1,0.2,0.2
		c0.1,0,0.1,0,0.2,0c0.1,0,0,0,0.1,0.1c0.1,0,0.1,0,0.2,0c0.1,0,0.2,0.1,0.2,0.2c0,0,0.1,0,0.1-0.1c0.1,0,0,0.1,0.1,0.1
		c0.1,0,0-0.1,0.1,0c0.1,0,0,0.1,0.1,0.1C5,10,5,9.9,5,9.9c0.1,0,0.3,0.1,0.4,0c0.1,0,0.1,0.1,0.1,0.1c0.1,0,0.1,0.1,0.3,0.1
		c0.1,0,0.1-0.1,0.2-0.2c0.1,0,0.2,0,0.2,0c0.1,0.1,0.1,0.1,0.2,0.1c0.1,0,0-0.1,0.1-0.1c0.1,0,0.2,0,0.3,0c0.1,0,0.1,0,0.2-0.1
		c0,0,0-0.1,0-0.1c0,0,0.1-0.1,0.3-0.2c0,0,0,0.1,0,0.1c0,0,0.1,0,0.1,0c0.1-0.1,0.1-0.1,0.2-0.2c0.1,0,0.2,0,0.3-0.1
		c0.1-0.1,0,0,0-0.1c0.1-0.1,0,0,0.1,0c0.1,0,0.1-0.1,0.2-0.1C8.3,9.1,8.4,9,8.4,9l0,0c0.1-0.1,0.1,0,0.1-0.1c0.1-0.1,0-0.1,0.1-0.2
		c0.1-0.1,0.1,0,0.2-0.1c0.1-0.1,0-0.1,0-0.1c0.1-0.1,0.1,0,0.2-0.1C9.1,8.3,9.1,8.2,9,8.2c0.1,0,0.3-0.1,0.3-0.2
		c0.1-0.1,0-0.1,0-0.2c0.1-0.1,0.1,0,0.1-0.1c0-0.1,0-0.1,0-0.1c0-0.1,0.1,0,0.1,0c0.1-0.2,0.2-0.5,0.3-0.7c0-0.1-0.1,0,0-0.1
		c0-0.1,0.1,0,0.1-0.1c0-0.1,0-0.1,0-0.2c0-0.1,0.1-0.1,0.1-0.2c0-0.1,0-0.1,0-0.1c0,0,0.1-0.1,0.2-0.1c0-0.1,0.1-0.2,0.1-0.2
		c0,0,0,0-0.1,0l0-0.1c0-0.1,0.1-0.1,0.1-0.1c0.1,0,0.1-0.1,0.1-0.1c0.1,0,0,0.1,0.1,0.1c0.1,0,0.1,0,0.2-0.1
		c0.1,0.1,0.2,0.1,0.3,0.2c0,0-0.1,0.1-0.1,0.1l0.2,0l0,0.1c0,0.1,0,0-0.1,0.1c0,0,0,0,0.1,0.1c0,0,0,0.1-0.1,0.1
		c0,0.1-0.1,0.3-0.1,0.4c-0.1,0.2-0.1,0.4-0.1,0.4c0,0.1-0.1,0.3-0.1,0.4C10.8,7.3,10.9,7.2,10.9,7.2"/>
	
		<path fill="none" stroke="#FFFFFF" stroke-width="0.3313" stroke-linecap="round" stroke-linejoin="round" stroke-miterlimit="10" d="
		M8.1,4.6c0-1.3-1.1-2.4-2.4-2.4c-1.3,0-2.4,1.1-2.4,2.4c0,1,0.6,1.9,1.5,2.2h1.9C7.4,6.5,8.1,5.6,8.1,4.6z"/>
	
		<polygon fill="none" stroke="#FFFFFF" stroke-width="0.3313" stroke-linecap="round" stroke-linejoin="round" stroke-miterlimit="10" points="
		6.4,6.6 4.5,6.6 4.5,6.6 4.5,8.6 6.5,8.6 6.5,6.6 	"/>
	
		<path fill="none" stroke="#FFFFFF" stroke-width="0.3313" stroke-linecap="round" stroke-linejoin="round" stroke-miterlimit="10" d="
		M5.3,8.9v0.2c0,0.2,0.1,0.3,0.3,0.3h0C5.8,9.5,6,9.3,6,9.2V8.9H5.3z"/>
	
		<path fill="none" stroke="#FFFFFF" stroke-width="0.3313" stroke-linecap="round" stroke-linejoin="round" stroke-miterlimit="10" d="
		M5.1,4.5c0,0.6-0.4,1.2-0.4,1.2S4.4,5.1,4.4,4.5c0-0.6,0.2-0.9,0.4-0.9C4.9,3.7,5.1,4,5.1,4.5z"/>
	
		<path fill="none" stroke="#FFFFFF" stroke-width="0.3313" stroke-linecap="round" stroke-linejoin="round" stroke-miterlimit="10" d="
		M6,4.5c0,0.6-0.4,1.2-0.4,1.2S5.2,5.1,5.2,4.5c0-0.6,0.2-0.9,0.4-0.9C5.8,3.7,6,4,6,4.5z"/>
	
		<path fill="none" stroke="#FFFFFF" stroke-width="0.3313" stroke-linecap="round" stroke-linejoin="round" stroke-miterlimit="10" d="
		M6.9,4.5c0,0.6-0.4,1.2-0.4,1.2S6.1,5.1,6.1,4.5c0-0.6,0.2-0.9,0.4-0.9S6.9,4,6.9,4.5z"/>
	
		<path fill="none" stroke="#FFFFFF" stroke-width="0.3313" stroke-linecap="round" stroke-linejoin="round" stroke-miterlimit="10" d="
		M4.7,5.7c0,0,0.4,1,0.9,0"/>
	
		<path fill="none" stroke="#FFFFFF" stroke-width="0.3313" stroke-linecap="round" stroke-linejoin="round" stroke-miterlimit="10" d="
		M5.6,5.7c0,0,0.4,1,0.9,0"/>
	
		<line fill="none" stroke="#FFFFFF" stroke-width="0.3072" stroke-linecap="round" stroke-linejoin="round" stroke-miterlimit="10" x1="4.8" y1="7.6" x2="6.6" y2="7.6"/>
	
		<line fill="none" stroke="#FFFFFF" stroke-width="0.3072" stroke-linecap="round" stroke-linejoin="round" stroke-miterlimit="10" x1="4.8" y1="8.2" x2="6.6" y2="8.2"/>
</g>
<g>
</g>
<g>
</g>
<g>
</g>
<g>
</g>
<g>
</g>
<g>
</g>
<g>
</g>
<g>
</g>
<g>
</g>
<g>
</g>
<g>
</g>
<g>
</g>
<g>
</g>
<g>
</g>
<g>
</g>
</svg>
