<svg xmlns="http://www.w3.org/2000/svg" viewBox="0 0 150 190">
  <g>
    <g>
      <path d="M137,187.53H12.84A10.81,10.81,0,0,1,2,176.72H2v-122A10.73,10.73,0,0,1,12.7,43.88a.33.33,0,0,1,.14,0H137a10.8,10.8,0,0,1,10.81,10.8h0v122A10.81,10.81,0,0,1,137,187.53Z" fill="#fff"/>
      <path d="M120.76,190c-1.24-.1-2.78-.21-4.53-.21-.52-.1-.31-.3-1.14-.3-2.67,0-4.42-.21-6.69-.21s-.41.21-2.78.21-1.34-.21-3.6-.21-5,.41-7.31.41-.41-.2-2.78-.2-1.34.2-3.6.2a41.24,41.24,0,0,1-6-.62c-3.4.21-10.92.42-13.18.42-4.43,0-2.89-.31-7-.42H60.93c-2.27,0-1.34.21-3.6.21s-1.34-.21-3.6-.21a12.07,12.07,0,0,0-3.91.62c-3.2-.2-6.6-.62-8.86-.62s-7.72.42-10.09.42-.41-.21-2.78-.21-2.27.21-4.53.21c-4.64,0-.42-.42-3.6-.42-2.27,0-.42.21-2.78.21a23.41,23.41,0,0,1-2.78-.1c-.83-.1-1.55-.1-2.89-.21a13.74,13.74,0,0,1-3.09-.72,10.88,10.88,0,0,1-4-2.37,10.84,10.84,0,0,1-2.88-3.7c-.31-.62-.52-1.24-.73-1.75a7.85,7.85,0,0,1-.3-1.34,3.63,3.63,0,0,0-.21-1v-1.14a17.09,17.09,0,0,1,.1-2.26c0-1.44.1-3,.1-4.12,0-2.27-.1-5.77-.21-7.62,0-1,.21-1.44.42-1.34V146.75c-.31,1-.31,2-.42,1.75,0-1.24.21-1.24.21-3.5s-.42-2.27-.42-4.53.41-6,.41-8.24S.27,130,.27,127.7s.21-1.34.21-3.6a29.49,29.49,0,0,0-.41-5c.1-1.34.41-.1.41-2.37s-.21.41-.21-1.85.21.41.21-1.86-.21.42-.21-1.85.21-.42.21-2.78-.21-3.19-.21-5.46a20.83,20.83,0,0,1,.21-4.32c0-.72-.21-1.14-.41-1.24,0-1.24.2-1.24.2-3.5s-.2-2.27-.2-4.53.2-5.05.2-7.31-.2-5-.2-7.31a15.79,15.79,0,0,1,.2-3.3c0-4.43,0-9.07.1-13.49.1-.52.21.82.21-1.45V54a11.3,11.3,0,0,1,.62-3.6A9,9,0,0,1,3,46.77a21.16,21.16,0,0,1,2.58-2.69,13,13,0,0,1,3.39-1.65,3.4,3.4,0,0,1-1.13.62A8.28,8.28,0,0,0,5.42,44.7a12.47,12.47,0,0,1,7.31-2.47c2.27,0,1-.21,3.3-.21s3.2.21,5.46.21,1.34-.21,3.6-.21.41.21,2.78.21,3.2-.21,5.46-.21,7.83.21,10.09.21a48.25,48.25,0,0,0,6.8-.21,36,36,0,0,1,4,.41c2.47,0,3,.1,3-.1s-1.85-.1-1.54-.31c2.36.21,4.73.41,7,.41.61,0,4.94-.2,5.66-.61h3.4a15.3,15.3,0,0,0,2.68.61A2.38,2.38,0,0,0,75.86,42c2.37.21,3.81.41,6.08.41s6-.41,8.23-.41,1.34.21,3.6.21,1.86,0,2.06-.21c1.45.1.21.41,2.48.41s-.42-.2,1.85-.2,2.27.2,4.53.2c4,0,4.94,0,5.66-.61h3.4a5.57,5.57,0,0,0,2.89.61c2.26,0-.41-.2,1.85-.2s-.41.2,1.86.2,3.4-.31,5-.41c1.34-.1,2.78,0,5,0,1.13,0,4,.1,6.9.21a10.46,10.46,0,0,1,4.53,1,13.21,13.21,0,0,1,2.68,1.54,14.08,14.08,0,0,1,3.3,3.5c.3.41.51.83.72,1.14a3.5,3.5,0,0,1,.41.82,4.22,4.22,0,0,1,.51,1.24,6.63,6.63,0,0,1,.42,2.16,6,6,0,0,1,0,1.34v.82c0,.41-.1.72-.1,1.13A51.31,51.31,0,0,0,149.6,63c0,2.27.21,5,.21,7.32s-.21,6.17-.42,8.85c0,.83.21,1.24.42,1.34v3.09c0,2.27-.21,1.85-.21,3.6-.1.51-.31.41-.41,1.13v2.59c0,2.26.2,1.44.41,2.78,0,1.75,0,4.53.1,6.28.1.82.21-.72.21,1.54s-.21,6.18-.42,8.86a2.48,2.48,0,0,0,.42,1.54c-.1,1.45-.21,3.81-.21,6.08s.1,4.84.21,6.8c0,1-.21,1.44-.42,1.34v5c.1.72.31.62.42.72v4.74c0,2.27-.21,1-.21,3.3s0,2.78.21,3c-.31,6.49-.42,2.57-.42,9,0,4,.42,8.75.42,10.09,0,2.26-.42,4.12-.42,6.38s.21.42.21,2.78-.21-.41-.21,1.86v5a12.74,12.74,0,0,1-1.75,6,3.3,3.3,0,0,0-.31.51,8.3,8.3,0,0,1-1.23,1.55,13.3,13.3,0,0,1-3.6,2.37c-.31.1-.62.2-1,.3a3,3,0,0,1-.93.21c-.21,0-.31.1-.41.1h-.72c-.1.1,0,.31,0,.41a2,2,0,0,0-1.44-.51c0-.1.2-.1.2-.41-.1-.62-.93-.62-.82-1.14,0-.2,0-.2.1-.31s.92-.2.82-.72c0-.2-.2-.2-.2-.41.51,0,.51-.51.72-.51a.37.37,0,0,1,.31.1h.1l.61-.1a6,6,0,0,0,1.24-.42,9.6,9.6,0,0,0,1.85-1.23c.42-.52.93-.93,1.45-1.65.92-1.55.41-.41.82-.93a10.44,10.44,0,0,0,.82-2.16,5.19,5.19,0,0,0,.21-1.24v-1.54c.1-2.06.1-4,.1-5.15,0-2.27.1-4.22,0-5.66s-.41-3-.41-5.26.1-.72.2-1.54V152c0-2.26,0-6.69-.2-10.71.1-.2.2.83.31,1.65.14-.85.25-1.71.31-2.57a23,23,0,0,1-.21-3,6,6,0,0,1,.21-2.37c-.1-1.54-.1-3.08-.31-3.08s-.21,1.85-.31,1.64v-5.15a23.6,23.6,0,0,0,.41-4.74c0-2.27-.21.41-.21-1.86s.21.42.21-1.85-.21-1.34-.21-3.6.21-2.27.21-4.53-.1-6.08-.21-8.44c-.1-1.65-.31-2.58-.41-4,.1-.31.21,1.54.41,1.65,0-4.22.21-10.61.21-12.87s0-4.64-.1-6.08h-.1c0-2.57.1-1,.21-1.85S146.2,79,146,78.89a22.43,22.43,0,0,0,.21-2.58c0-2.26-.1-.92-.21-1,0-1.23.21-1.65.42-1.54V59.42c.1-.41.2.93.2-1.33a20.68,20.68,0,0,0-.1-2.37,10.76,10.76,0,0,0-.41-2.58,10.72,10.72,0,0,0-2.37-3.81,20,20,0,0,0-1.65-1.54,6.86,6.86,0,0,0-2-1.13c-.93-.21-.83-.21-.72-.1s.2.1-.72,0a1.93,1.93,0,0,1-.72-.1,2.26,2.26,0,0,1-.73-.1c-.51,0-1-.1-1.54-.1a20.47,20.47,0,0,1-2.06-.31c-.72,0-1.13.2-1.24.41H129c-.1-.1-1.85-.21-2.57-.41a10.2,10.2,0,0,0-3.19.61h-3.4c-.1-.1,1.75-.2,1.75-.3-.83-.1.41-.1-1.86-.1s-4.11.41-6.38.41-1.34-.21-3.6-.21-1.34.21-3.6.21-.41-.21-2.78-.21-1.85.1-2.06.21c-1.34-.1-2.68-.21-4.12-.41s-4.32,0-6.59,0h-6.7c-1,0-1.65.2-3,.3H79.67a31.32,31.32,0,0,1-4.43-.41c-.62-.1-1.54,0-3.81,0-7.72,0-5.35.41-9.16.41-3,0-3.4-.41-7-.61H52.79c-.72.1-.61,0-.61.2s1.85.21,1.64.41H47.23c-2.26,0-2.37-.2-4.63-.2s-3.3.1-4.74.2c-.31-.1,1.55-.2,1.55-.3-.83-.1.41-.1-1.86-.1s-1.34.2-3.6.2-2-.72-4.22-.72-4.12.21-6.38.21-3.2-.21-5.46-.21.41.21-1.86.21-.41-.21-2.78-.21a2.4,2.4,0,0,0-1,.1c-.2,0-.2.1-.2.1s-.21.1-1.14.31a9,9,0,0,0-2.47.72c-.72.3-1.34.61-1.54.71-1,.82-1.75,2-1.55,2.06s.42-.21.62-.52.52-.51.52-.41a11.23,11.23,0,0,0-1.55,2,9.35,9.35,0,0,0-.83,1.75c-.41,1.85-.2,1.54-.1,1.75s-.1.51-.1.72a2.08,2.08,0,0,1-.1.82c0,.52-.1,1-.1,1.44a29,29,0,0,0-.1,3.09c0,2.27.21,3.19.21,5,0,.93-.21,1.13-.41,3.4H4v7c-.1.1-.21,1.85-.42,2.57.21,2.37.42,7.21.42,9.48a27.16,27.16,0,0,1-.43,5.25A1.84,1.84,0,0,0,4,94.23c-.2,4.12-.41,11.23-.41,13.49,0,3.09,0,3,.41,2.88v4.74c0,2.27-.41,5.56-.41,7.93s.2,1.34.2,3.6-.2,4.12-.2,6.39.2,3.19.2,5.46-.2-.41-.2,1.85.2,1.34.2,3.6-.2,3.19-.2,5.46.2,1.34.2,3.6-.2-.41-.2,1.85.2,1.34.2,3.6a26.38,26.38,0,0,1-.41,5.25c0,.73.21,1.14.41,1.24a24.49,24.49,0,0,0-.2,2.57c0,2.27.2-.41.2,1.86s-.2-.41-.2,1.85.1,1,.2,1.44v4.23a6,6,0,0,0,1.14,3.4A3.88,3.88,0,0,1,5.42,182a3.07,3.07,0,0,0,.52.72c.2.31.41.51.62.82a8.44,8.44,0,0,0,2.06,1.55,4.51,4.51,0,0,0,3.19.31h4.94a14,14,0,0,0,3.81.41c2.27,0,.41-.21,2.78-.21s3.19.21,5.46.21h3.91c.83-.1.72-.31,1.13-.31.93,0,3.2-.1,6.6-.21.2.1-.83.21-1.65.31,0,.1,1.85.21,2.47.31,1.44-.1,3.5-.2,5.77-.2s3.19.2,5.45.2-.41-.2,1.86-.2.72.1,1.54.2h4.84c2.27,0,4.64,0,6.08-.1v-.1c2.57,0,.72.21,3.09.21s1.34-.21,3.6-.21,1.34.21,3.6.21.41-.21,2.78-.21,1.34.21,3.6.21a28.23,28.23,0,0,0,4.94-.41c2.27.2,5.56.41,7.83.41s1.34-.21,3.6-.21.41.21,2.78.21,1.85,0,1.95-.21c1.24,0,1.65.21,1.55.41h15.67c2.26,0-.41-.2,1.85-.2s.41.2,2.78.2,1.34-.2,3.6-.2,1.34.2,3.6.2H134v-.2a1,1,0,0,1,.52.62c.31.1.72.2.82.41.1,0,.1-.21.1-.41h.31c.21,0,.21.2.41.2,0,.21.21.21.21.41s-.21.1-.21.42.21.41.42.51a9.07,9.07,0,0,0-.62,1c-.1,0-.21-.2-.41-.2v.61h-.31c-.21,0-.1-.1-.21-.2s-.1.2-.1.41c-.1,0-.2-.1-.31-.21a1.21,1.21,0,0,1-.62-.1h-2.78c-3.6,0-6.69-.1-7.82-.1-2.27,0-4.84,0-6.39.1C118.39,189.69,120.14,189.9,120.76,190Z" fill="#3a494f"/>
    </g>
    <g>
      <g>
        <path d="M133.63,178.78H16.13a5.28,5.28,0,0,1-5.25-5.26V58a5.28,5.28,0,0,1,5.25-5.25h117.5A5.28,5.28,0,0,1,138.89,58V173.52A5.29,5.29,0,0,1,133.63,178.78Z" fill="#fff"/>
        <path d="M118.9,181.14c-1.13-.1-2.47-.2-4-.2-.41-.1-.31-.31-1-.31-2.37,0-3.91-.21-6-.21s-.42.21-2.48.21-1.23-.21-3.3-.21-4.42.42-6.48.42-.42-.21-2.47-.21-1.24.21-3.3.21a35.77,35.77,0,0,1-5.36-.62c-3,.2-9.68.41-11.74.41-3.91,0-2.57-.31-6.18-.41H65.46c-2.06,0-1.24.2-3.3.2s-1.24-.2-3.3-.2a9.3,9.3,0,0,0-3.5.62c-2.78-.21-5.87-.62-7.83-.62s-6.9.41-9,.41-.41-.21-2.47-.21-2.06.21-4,.21c-4.12,0-.41-.41-3.3-.41-2.06,0-.41.2-2.47.2s-2.89-.2-4.84-.2a22.57,22.57,0,0,0-2.47.1,10.34,10.34,0,0,0-1.76.1H15.19a7.5,7.5,0,0,1-4.32-1.86A7.79,7.79,0,0,1,9,175.78a7.22,7.22,0,0,1-.31-2.26,11.65,11.65,0,0,1,.1-2c.1-1.34.1-2.68.1-3.6,0-2.06-.1-5.15-.21-6.8,0-.93.21-1.34.41-1.24V146.75c-.31.82-.31,1.75-.41,1.54,0-1.13.21-1.13.21-3.08s-.21-2.06-.21-4,.41-5.25.41-7.31-.2-2.06-.2-4,.2-1.23.2-3.3A28.57,28.57,0,0,0,9,122c.1-1.13.41-.1.41-2.06s-.2.41-.2-1.65.2.42.2-1.64-.2.41-.2-1.65.2-.41.2-2.47-.2-2.89-.2-4.84a17.75,17.75,0,0,1,.2-3.92c0-.61-.2-1-.41-1.13,0-1.13.21-1.13.21-3.09S9,97.52,9,95.57s.21-4.43.21-6.49S9,84.65,9,82.59a13.64,13.64,0,0,1,.21-3c0-4,0-8,.1-11.94.1-.41.2.72.2-1.34,0-1-.1-2.88-.2-4.94-.1-1-.1-2.06-.21-3.09v-.93a3.57,3.57,0,0,1,.1-1,5.16,5.16,0,0,1,.62-1.75,7.93,7.93,0,0,1,2.7-2.88c.1,0-.41.31-.93.93A5,5,0,0,0,9.85,55.2a6.9,6.9,0,0,1,6.28-4.12c2.06,0,.93-.2,3-.2s2.88.2,4.84.2,1.23-.2,3.3-.2.31.2,2.37.2,2.88-.2,4.84-.2,6.9.2,9,.2a56,56,0,0,0,6.07-.2,24.05,24.05,0,0,1,3.5.41c2.27,0,2.68.1,2.68-.1s-1.65-.1-1.34-.31c2.06.21,4.22.41,6.28.41.52,0,4.33-.2,5.05-.62h3a12.16,12.16,0,0,0,2.37.62,1.76,1.76,0,0,0,1.24-.41,47.42,47.42,0,0,0,5.46.41c2.06,0,5.25-.41,7.31-.41s1,.21,3.09.21,1.64,0,1.85-.21c1.24.1.21.41,2.16.41s-.41-.2,1.65-.2,2.06.2,4,.2c3.6,0,4.32,0,5-.62h3a4.63,4.63,0,0,0,2.57.62c2.06,0-.41-.2,1.65-.2s-.41.2,1.65.2a38.8,38.8,0,0,0,4.43-.41c1.23-.1,2.47,0,4.53,0s10.19.41,12.15.41a10.07,10.07,0,0,1,2.57.21,16.22,16.22,0,0,1,1.86.72A7.54,7.54,0,0,1,139,53.56a3.73,3.73,0,0,1,.82,1,7,7,0,0,1,.83,2.06,8.64,8.64,0,0,1,.1,1.44v.72c0,.41-.1.62-.1,1a36.91,36.91,0,0,0-.21,5.36c0,2.06.21,4.42.21,6.48s-.21,5.46-.42,7.83c0,.72.21,1.13.42,1.24v2.67c0,2.06-.21,1.65-.21,3.2-.1.41-.31.3-.41,1v2.27c0,2.06.2,1.34.41,2.47,0,1.55,0,4,.1,5.56.1.72.21-.62.21,1.34s-.21,5.46-.42,7.83a1.87,1.87,0,0,0,.42,1.34c-.1,1.23-.21,3.4-.21,5.46s.1,4.32.21,6c0,.93-.21,1.34-.42,1.23v4.43c.1.62.31.52.42.62v4.21c0,2.06-.21.93-.21,3s.1,2.47.21,2.57c-.31,5.77-.42,2.27-.42,7.93,0,3.6.42,7.83.42,9,0,2.06-.42,3.6-.42,5.66s.21.42.21,2.47-.21-.41-.21,1.65.21,6.7.42,9.37v2.17a8.77,8.77,0,0,1-.52,2.06,5.79,5.79,0,0,1-1.24,1.85,8.62,8.62,0,0,1-1.64,1.24c-.1.1-.31.1-.42.2l-.2.1h-.2a.36.36,0,0,1-.31.1c-.1.1,0,.31,0,.41a2.6,2.6,0,0,0-1.55-.3c0-.11.21-.21.21-.42-.1-.61-.93-.61-.93-1V178c.21,0,.83-.31.72-.72-.1-.2-.2-.2-.2-.41.41-.1.31-.51.51-.62h.31c.1,0,.21-.1.41-.2a2.09,2.09,0,0,0,.73-.62,3,3,0,0,0,.61-1.34v-1.85c0-2.06.1-.62.21-1.34,0-3.09.21-8,.21-10s.1-3.71,0-5a46.93,46.93,0,0,1-.42-4.73c0-2.06.1-.62.21-1.34v-6c0-2.06,0-5.87-.21-9.57.1-.21.21.72.31,1.44a19.34,19.34,0,0,0,.31-2.27,18.35,18.35,0,0,1-.2-2.67c0-2.06.1-1.55.2-2.06-.1-1.34-.1-2.78-.31-2.78s-.2,1.64-.31,1.54V123a18.71,18.71,0,0,0,.42-4.22c0-2.06-.21.41-.21-1.65s.21.41.21-1.65-.21-1.23-.21-3.3.21-2.06.21-4-.1-5.46-.21-7.52c-.1-1.44-.31-2.37-.41-3.6.1-.21.2,1.34.41,1.44,0-3.81.21-9.47.21-11.53s0-4.12-.1-5.46h-.1c0-2.27.1-.93.2-1.65s-.2-1-.41-1.13a23.69,23.69,0,0,0,.21-2.37c0-2.06-.1-.82-.21-.93,0-1.13.21-1.54.41-1.33V61.28c.1-.31.21.82.21-1.13a15.7,15.7,0,0,0-.1-2.06,3.23,3.23,0,0,0-.52-1.76,3.35,3.35,0,0,0-2.57-1.54.59.59,0,0,1-.41-.1h-.62c-.41,0-.72-.1-1.13-.1a17.17,17.17,0,0,0-2.48-.21c-2.06,0,.42.21-1.64.21a20.65,20.65,0,0,1-4.64-.41c-.62,0-1,.2-1.13.41h-3c-.1-.1-1.65-.21-2.27-.41a7.71,7.71,0,0,0-2.88.62h-3c-.1-.1,1.55-.21,1.55-.31-.72-.1.41-.1-1.65-.1s-3.6.41-5.66.41-1.24-.21-3.3-.21-1.24.21-3.3.21-.42-.21-2.47-.21-1.65,0-1.86.21c-1.23-.1-2.37-.21-3.6-.41s-3.81,0-5.87,0h-6c-.93,0-1.45.2-2.68.31H75.35a25.68,25.68,0,0,1-3.92-.42,32.13,32.13,0,0,0-3.4,0c-6.9,0-4.73.42-8.13.42-2.68,0-3.09-.42-6.18-.62H51.56c-.62.1-.52,0-.52.2s1.65.21,1.55.42H46.41c-2.06,0-2.16-.21-4.12-.21a40.07,40.07,0,0,0-4.22.21c-.21-.1,1.34-.21,1.44-.31-.72-.1.41-.1-1.65-.1s-1.23.2-3.3.2-1.23-.2-3.3-.2-3.6.2-5.66.2-2.89-.1-5-.1.42.21-1.64.21-.42-.21-2.47-.21h-.82c-.1,0-.1.1-.21.1s-.1.1-.72.31a4,4,0,0,0-1.54,1c-.42.41-.62.83-.83.93V58.1c0,.51.1.82.21.82s.2-.41.2-.82v-.43c0-.1,0-.1.1-.1V59a3,3,0,0,1-.1,1c0,.62-.1,1.14-.1,2.17,0,2.06.1,1.64.21,1.85a47.42,47.42,0,0,0-.41,5.46c0,2.06.2,2.88.2,4.43,0,.82-.2,1-.41,3h.62v6.18c-.1.1-.21,1.65-.41,2.27.2,2.06.41,6.38.41,8.44a20.65,20.65,0,0,1-.41,4.64,1.73,1.73,0,0,0,.41,1.23c-.21,3.6-.41,10-.41,12,0,2.78,0,2.67.41,2.57v4.22c0,2.06-.41,4.95-.41,7s.2,1.24.2,3.3-.2,3.6-.2,5.67.2,2.88.2,4.84-.2-.42-.2,1.64.2,1.24.2,3.3-.2,2.89-.2,4.84.2,1.24.2,3.3-.2-.41-.2,1.65.2,1.24.2,3.3a20.48,20.48,0,0,1-.41,4.62c0,.62.2,1,.41,1.13a23.44,23.44,0,0,0-.21,2.37c0,2.06.21-.41.21,1.65s-.21-.42-.21,1.64.1.83.21,1.24v3.81A2.64,2.64,0,0,0,14,175.79a3.54,3.54,0,0,1,.72.82,3.24,3.24,0,0,0,1.34.52H18.6a9.65,9.65,0,0,0,3.4-.62h4.53a11.16,11.16,0,0,0,3.4.41c2,0,.41-.2,2.47-.2s2.89.2,4.84.2h3.5c.72-.1.62-.31,1-.31.83,0,2.89-.1,5.87-.2.21.1-.72.2-1.44.31.72.14,1.44.24,2.16.31,1.34-.1,3.09-.21,5.15-.21s2.89.21,4.84.21-.41-.21,1.65-.21.62.1,1.34.21h4.32c2.06,0,4.12,0,5.46-.1v-.1c2.27,0,.72.2,2.68.2s1.24-.2,3.3-.2,1.24.2,3.3.2.41-.2,2.47-.2,1.24.2,3.3.2a21.94,21.94,0,0,0,4.43-.41c2,.21,4.94.41,7,.41s1.23-.2,3.3-.2.41.2,2.47.2,1.65,0,1.75-.2c1.13,0,1.55.2,1.34.41h13.9c2.06,0-.41-.21,1.65-.21s.41.21,2.47.21,1.23-.21,3.3-.21,1.23.21,3.3.21h.41V177a1.07,1.07,0,0,1,.52.62c.3.1.72.21.82.41.1,0,.1-.2.1-.41h.31c.2,0,.2.21.41.21,0,.2.21.2.21.41s-.21.2-.21.41a.71.71,0,0,0,.41.52,8.79,8.79,0,0,0-.62,1c-.1,0-.2-.21-.41-.21v.62h-.31c-.2,0-.1-.1-.2-.21s-.1.21-.1.41c-.1,0-.21-.1-.31-.2a1.47,1.47,0,0,1-.62-.1H129c-3.19,0-5.87-.1-6.9-.1-2.06,0-4.33,0-5.66.1A7.87,7.87,0,0,0,118.9,181.14Z" fill="#3a494f"/>
      </g>
      <g>
        <g style="isolation: isolate">
          <text transform="translate(47 88.82)" font-size="14" fill="#707070" font-family="YuGothicUI-Regular, Yu Gothic UI" style="isolation: isolate">能源線索</text>
        </g>
        <g style="isolation: isolate">
          <text transform="translate(43 122.82)" font-size="16" fill="#707070" font-family="YuGothicUI-Regular, Yu Gothic UI" style="isolation: isolate">能源線索</text>
          <text transform="translate(51 143.82)" font-size="16" fill="#707070" font-family="YuGothicUI-Regular, Yu Gothic UI" style="isolation: isolate">大蒐集</text>
        </g>
        <line x1="31" y1="97.32" x2="119" y2="97.32" fill="none" stroke="#7e7e7e"/>
      </g>
    </g>
    <g>
      <g>
        <path d="M81.1,68.3l-.35.1a2.44,2.44,0,0,1-3-1.7L72.46,46.76a2.43,2.43,0,0,1,1.7-2.95l.35-.09a2.43,2.43,0,0,1,2.95,1.7L82.8,65.36A2.42,2.42,0,0,1,81.1,68.3Z" fill="#50acd1"/>
        <path d="M76.75,68.41a2.51,2.51,0,0,0-.26-.69c.05-.09.19-.12.16-.26a4.47,4.47,0,0,1-.07-.82c-.06-.21-.16,0-.22-.24s.11-.18,0-.39-.41-.42-.47-.63.12-.11.06-.32-.17-.1-.23-.31.17-.5.27-.68a4.32,4.32,0,0,1-.6-1.12c-.12-.42.13-.34.11-.71l0-.14c-.05-.21-.18-.11-.23-.32s.1-.18,0-.39a.56.56,0,0,0-.51-.24c.06-.32.25-.74.19-1s-.47-.62-.53-.84.13-.1.07-.32-.2-.17-.25-.38c-.12-.42.26-.15.18-.43s-.16,0-.21-.24.06-.32,0-.53-.57-1-.63-1.2,0-.6-.06-.81a2.27,2.27,0,0,0-.33-.66c0-.07.1-.18.24-.22l-.38-1.41c-.19.13-.15.27-.24.22s.1-.18,0-.39-.2-.17-.26-.38.13-.64.08-.85-.12.11-.18-.11.1-.17,0-.39a.69.69,0,0,0-.41-.41c0-.16.28-.08.23-.29s-.13.11-.18-.1.16,0,.1-.18-.14,0-.2-.18.12-.1.07-.32-.22-.24-.28-.45-.09-.35,0-.46-.16,0-.32-.07.11-.18,0-.39-.2-.17-.26-.38,0-.53,0-.75-.13-.19-.17-.33-.16-.33-.13-.49c0-.37,0-.39.1-.48a4,4,0,0,1,.64-1.83c.07,0,0,.14.19-.13.13-.11.19-.43.42-.71a3.47,3.47,0,0,1,.69-.79,4.73,4.73,0,0,1,.47-.2c0,.07-.24.21-.4.48.15,0,.27-.15.48-.2l.35-.1c.21-.05,0-.16.32-.23s.48.1.84.07.2-.12.59-.08,0,.14.35.21a3.55,3.55,0,0,1,.8.16,3.11,3.11,0,0,1,1,1c.2.18.4.65.65.73a3.18,3.18,0,0,1-.06.62c0,.21,0,.3.14.27s.11-.18.18-.2a1.24,1.24,0,0,0-.11.71.7.7,0,0,0,.55.38l.08.28c-.14,0-.25.22-.37.32s.16,0,.32.07c-.08.25-.19.43-.13.64s.43.49.49.7-.11.17,0,.39.11.12.2.17-.28.08-.23.29.13-.11.18.1-.08.25,0,.46.12.42.56.38l.08.28c-.15,0-.39.26-.35.4s.12-.11.18.1-.16,0-.11.18.29.23.42.42.07.28.13.49,0,1.13.06,1.34c.19.71.41.42.51.77s-.25.22-.06.92c.06.22.27.46.33.67a2.58,2.58,0,0,1,0,.92c0,.07.17.1.32.07l.07.28c.06.21-.1.18,0,.39s-.19.13-.24.22l.06.21c.05.21.18.1.36.2a1.39,1.39,0,0,0,.22.55c.09,0,.12-.11.18.1a2.38,2.38,0,0,1-.06.92c0,.07.18.11.32.07a1.35,1.35,0,0,0,0,.6,2.22,2.22,0,0,0,.31.59c0,.07-.1.18-.24.22l.13.49a.39.39,0,0,0,.3,0l.11.42c.06.21-.12.11-.06.32s.07.28.21.25c0,.69-.22.28,0,.92a3.71,3.71,0,0,0,.53.84c0,.21-.19.43-.13.64s.14,0,.21.24-.16,0-.08.25a6,6,0,0,1,.16,1.46c0,.09,0,0-.06.32a1.26,1.26,0,0,1-.73.65c-.06.09-.13.11-.18.2s.13.19.15.27a2.3,2.3,0,0,0-1.2.32c0-.07.1-.18,0-.3-.24-.32-.8-.17-.83-.54l0-.21c.14,0,.43-.34.22-.59s-.18-.1-.2-.17c.19-.13,0-.37,0-.39l.21-.06c0-.09-.06-.21-.06-.21s.07,0,.14,0,.21-.36.19-.43l-.06-.21a.28.28,0,0,0-.12-.19c-.11-.12-.36-.21-.42-.42s0-.09.1-.18L81,63.87a2.75,2.75,0,0,0-.4-.95.35.35,0,0,1,.25.09c.07,0,.1-.18.15-.27s-.16,0-.21-.25,0-.16.08-.25c-.11-.12-.15-.26-.29-.22s-.1.18-.17.2l-.13-.5a.5.5,0,0,0,.17-.5c-.06-.21-.13.11-.18-.1s.16,0,.1-.18-.18-.1-.23-.31.08-.25,0-.46a3,3,0,0,0-.35-.74c-.1-.12-.26-.15-.37-.27.07,0,.18.1.32.06-.12-.42-.13-1-.18-1.24a1.5,1.5,0,0,0-.22-.54l-.07,0c-.06-.21,0-.09.1-.18s-.17-.1-.32-.07c0-.14.15,0,.09-.25s-.09-.05-.16,0c0-.14.1-.18.24-.21l-.36-1.35c0-.09.16,0,.11-.18s-.49-.69-.55-.91.21-.36.15-.57-.12.11-.18-.1A.63.63,0,0,1,78.6,53c0-.07-.16,0-.32-.06l-.08-.28c.08,0,.11-.18.23-.29s-.2-.18-.5-.17L77.86,52c.07,0,.17.1.25.08s.08.05,0-.16-.38-.27-.44-.49.11-.17,0-.39-.18-.1-.23-.31.12-.11.06-.32,0-.14-.2-.17c0-.16.16-.27.19-.43a2,2,0,0,0-.17-.64l-.17-.63c0-.07-.18-.1-.29-.23l0-.13c-.06-.22.13-.34.17-.5s0-.14-.1-.36c-.19-.7-.41-.41-.51-.77s.19-.42.26-.74l0-.14-.14,0c-.22.06-.13.11-.27.15a.25.25,0,0,0-.12-.19c0-.07,0-.16,0-.23a.27.27,0,0,0-.23,0,.25.25,0,0,1,.19-.12c0-.07.07,0,0-.07s-.12.1-.21,0,0-.16-.13-.19-.21.06-.35.09-.13-.19-.27-.15,0,.14,0,.16,0-.14-.25-.08,0,.16-.17.19-.25-.08-.36-.2c0,.09-.12.11,0,.3s.08,0,.17.1-.16,0-.23,0-.05.09,0,.14c-.16,0-.32-.07-.37,0s.06.21.08.28a.51.51,0,0,0-.36.1l.39.05c0,.07,0,.16,0,.3s-.12.1-.26.14a1.87,1.87,0,0,1,.5.77.6.6,0,0,1-.15.57c0,.07.16,0,.32.07a6,6,0,0,0,.06,1.34c.08.28.08.28.36.21l.11.42c.06.21-.15.57-.09.78s.18.1.24.31,0,.39,0,.6.21.25.27.46-.16,0-.1.18.17.1.23.31-.06.32,0,.53.18.11.24.32-.16,0-.11.18.18.1.24.31a.63.63,0,0,1-.15.57c0,.07.16,0,.32.07s-.14,0-.08.25.12-.11.17.1-.16,0-.1.18.09,0,.18.1,0,.67.37.81c0,.14-.11.18-.18.2a1.14,1.14,0,0,0-.08.55c0,.14.29.22.52.23l.13.5c-.12.11-.24.21-.18.43s.16,0,.21.24-.06.32,0,.53l.1.35c.09.05.23,0,.25.09s.14.26.31.59c-.07,0-.16,0-.25-.08s-.1.18-.16.27a1.36,1.36,0,0,1,.3.52c0,.21-.07.32,0,.53s.12-.11.18.11,0,.09-.11.17l.12.43a1.34,1.34,0,0,0,.22.54l.07,0c.06.21-.12.11-.07.32s.18.11.24.32-.1.18,0,.39.16,0,.22.24-.1.18,0,.39a.79.79,0,0,0,.42.42,1.61,1.61,0,0,0-.1.78c.06.21.18.1.24.31s-.12.11-.07.32.11.13.2.18-.1.18-.24.21l.19.71c0,.14.14.26.18.4s.12-.11.14,0-.12.1,0,.23.14,0,.23,0,0,.16,0,.21.08,0,.13-.11a1.12,1.12,0,0,1,0,.44c.09.06.36.21.4.35.07,0,0-.09.06-.32l.14,0c.14,0,.11.13.27.16s.18.1.22.24-.06.09,0,.23a.48.48,0,0,0,.38.28c0,.16-.08.25-.12.41a1.18,1.18,0,0,1-.19.43c-.14,0-.24-.09-.4-.12l0,.44c-.14,0-.23,0-.37,0-.3,0-.09,0-.2-.18-.07,0-.12.11-.16.27-.16,0-.17-.1-.26-.15a3.47,3.47,0,0,1-1-.41,5,5,0,0,1-1.17-1,8.23,8.23,0,0,1-.57-.75C76.79,68,76.78,68.19,76.75,68.41Z" fill="#38484e"/>
      </g>
      <g>
        <circle cx="71.33" cy="32.42" r="17.65" fill="#50acd1"/>
        <path d="M90.67,32.44a7.62,7.62,0,0,0-.13.94c-.05.09-.21.06-.25.22-.07.55-.28.9-.31,1.37s.11.12.08.58-.15.27-.27.68a11.39,11.39,0,0,1-.11,1.54c-.1.48-.15,0-.31.53s.07.28-.1.78a3.05,3.05,0,0,1-.87,1,10.71,10.71,0,0,1-1.05,2.55c-.55.75-.42.41-1,1,0,0,.11-.18-.17.2s-.07.32-.34.7-.27.14-.63.47a1.25,1.25,0,0,0-.22.88c-.57.38-1.26.64-1.65.9a14.67,14.67,0,0,1-1.49,1.46c-.39.25-.16,0-.55.22s-.34.39-.75.58c-.86.45-.21-.25-.79.13-.4.19,0,.16-.43.35s-.66.1-1.13.3a10.41,10.41,0,0,1-1.28.57,3.86,3.86,0,0,1-.74.35l-.56.15a12.06,12.06,0,0,1-1.7.15,11.74,11.74,0,0,0-1.56.35c-.23,0-.34-.14-.31-.3-.53,0-1,0-1.5,0L69,51c.2.17.36.21.31.3-.24,0-.27-.16-.73-.19s-.51.06-1,0a3.38,3.38,0,0,1-.84-.31,5.27,5.27,0,0,0-.79-.39c-.4-.12-.53,0-.94-.13s-.07-.28-.5-.47a1.49,1.49,0,0,0-1.08-.08c-.2-.18.08-.25-.29-.53s0,.14-.39,0,.12-.1-.24-.31,0,.14-.39,0,0-.14-.41-.41-.66-.21-1-.48-.57-.45-.63-.66a.23.23,0,0,0-.33.06l0,0c-.2-.17-.15-.26-.45-.55s-.43-.19-.82-.54-.67-.8-1-1.17A12.32,12.32,0,0,1,56.32,44c-.12-.21-.23-.44-.33-.66l-.77-1.16L54.6,41c0-.07.18.11,0-.3s-1-1.47-1.34-2.21l-.17-.63c.07,0,.23.31.54.61-.12-.42-.32-.9-.43-1.32s-.2-.17-.31-.6a5.14,5.14,0,0,1-.07-1.11c-.05-.44-.15-.26-.19-.7s.12-.11.08-.55A7.58,7.58,0,0,1,52.46,33c0-.23.06-.62.09-1.08s.17-.8.18-1a3.33,3.33,0,0,0,0-1.44,2.64,2.64,0,0,1,.48-.73c.1-.48.22-.59.06-.62s-.2.36-.29.31c.23-.42.44-.86.63-1.3a2.91,2.91,0,0,0,0-1.28l.27-.67a1.24,1.24,0,0,1,.44-.35c0-.16,0-.23-.18-.4a6.24,6.24,0,0,0,.86-1c.19-.54.4-1.08.63-1.6s.26-.15.54-.52.23-.29.19-.43c.24-.22.27.15.54-.22s-.16,0,.12-.41.45-.28.75-.58c.59-.61.71-.72.53-1.12l.56-.46c.1.13.48.1.74,0,.36-.33-.16,0,.2-.36s0,.14.43-.12.45-.57.69-.78c0-.31.26-.45.66-.64a12.26,12.26,0,0,1,1.29-.56,7.83,7.83,0,0,0,1.32-.43c.33-.17.61-.24.8-.37s.27-.15.32-.24a1.62,1.62,0,0,1,.67-.33c.77-.2.35.21,1.93-.14a10.61,10.61,0,0,1,1.47-.39,6.91,6.91,0,0,1,.91,0l1,.2c.16,0,.27-.15.3-.31h.6c.46,0,.36.21.73.19.09.05.06.21.24.31h.53c.46,0,.35-.09.54-.22.39,0,.87.14,1.26.19.16,0-.11-.12.35-.1a7.45,7.45,0,0,1,1.64.77.35.35,0,0,0,.41-.18,5.9,5.9,0,0,0,1.14.6,12.34,12.34,0,0,0,1.33.47.33.33,0,0,1,.12.42,3.46,3.46,0,0,1,.89.52c.16,0,.21-.06.26-.15l.82.53c.38.28.06.22.46.56s.46.33.51.24a2.48,2.48,0,0,1,.58.75c0,.14.13.19.63.66a2.32,2.32,0,0,0,.49.4c.18.1.3.3.48.4s.58.45.67.5c.32.37.29.83.55,1.21s.16,0,.48.4-.16,0,.1.35.94,1.26,1.23,1.79c.11.12,0,0,.18.4a2.68,2.68,0,0,1,.21.77c.06.21.08.58,0,.6l.06.22c.09,0,.21-.06.3,0a.89.89,0,0,0-.13.94c-.07,0-.1-.13-.32-.07-.42.11-.27.68-.62.77-.14,0-.14,0-.23,0s-.31-.6-.66-.51c-.14,0-.1.18-.25.22-.11-.42-.41-.42-.52-.54a.27.27,0,0,1,0-.23l-.14-.49c-.16-.33-.34-.44-.52-.84s0-.16,0-.3c-.29-.53-.62-1.49-.86-1.81a6.89,6.89,0,0,0-.6-.82,5.92,5.92,0,0,1-.82-.54c-.24-.31,0-.14-.08-.28a7.6,7.6,0,0,0-.75-.85,6.26,6.26,0,0,0-1.53-1.18c0-.09.23,0,.32.07s-.14-.27-.2-.48c-.09,0-.21.06-.52-.24s-.22-.24-.25-.38c-.25-.09-.52-.24-.57-.15s.21.24.16.33l-.73-.48a1.27,1.27,0,0,0-.63-.66c-.36-.21,0,.16-.39-.05s.12-.1-.24-.31-.28.08-.63-.13-.31-.3-.72-.41a8.55,8.55,0,0,0-1.51-.28,2.93,2.93,0,0,0-.72.12c0-.14.26-.15.39-.25a9.67,9.67,0,0,1-1.21-.28,4.54,4.54,0,0,0-1-.18c-.23,0-.39,0-.62-.06a.61.61,0,0,0-.49.13V16c-.46,0-.17-.1-.33-.14s-.2.13-.23.29c-.23,0,0-.14-.48-.1s-.14,0-.19.13c-.21.06-.34-.14-.29-.23l-1.25.11c-.43.12-.87.16-1.29.27-.09-.05.12-.1-.25-.08s-1.38.75-1.81.86c-.5.36-.72.12-1.13.3s.11.13-.22.29a2.2,2.2,0,0,1-1,.2c-.14,0-.1.17,0,.39l-.53.29c-.09-.05-.37,0-.53,0a.94.94,0,0,0-.2.66l-.51.36c-.09-.05.14-.34.14-.34s.05-.09-.33.17-.35.69-.66.93-.3,0-.6.31-.08.25-.38.55-.16,0-.45.28-.16.26-.14.33c-.19.13-.45.28-.64.4a2.81,2.81,0,0,0-.73.95c-.23.33-.45.66-.64,1a2.66,2.66,0,0,0-.06.62s.12-.1-.08.25-.42.42-.59.62-.19.41-.3.6c-.27.68-.28.91-.24,1.05a.8.8,0,0,1,0,.53c-.17.5-.47.5-.76,1.11l-.1.48c0,.14,0,.09.11.12s.22-.29.31-.23c0,.39-.18.72-.21,1.18s-.18.43-.23.82a1.93,1.93,0,0,0,.09.89c-.15,0-.15-.27-.24-.32,0,.16,0-.07-.07.32s.15.26.17.63-.15.27-.13.64a6.3,6.3,0,0,0,.31,1.13,5.25,5.25,0,0,0,0,1c.11.43.12-.11.24.32s-.13.11,0,.53.16,0,.27.45a2.31,2.31,0,0,1,0,1c.15.26.23.54.35.43s0-.37.13-.34c.21.48.08.58.25.92s.15.26.3.29c0,.23,0,.38,0,.61a1.83,1.83,0,0,0,.23.54c.16.33.41.42.56.68a2.84,2.84,0,0,0,.1.65l.38-.25c.24.31.49.69.73,1-.06.09.09.35.06.51.46.34.91.7,1.34,1.08a1.32,1.32,0,0,1,.45.86.32.32,0,0,0,.36-.09,10.54,10.54,0,0,0,.93,1c.38.27.68.57.86.67.47.33.45.26.6,0l.79.39a6.26,6.26,0,0,1,.57.45,1.09,1.09,0,0,0,.62.36c.41.12.29-.07.64.13a9.79,9.79,0,0,0,1,.48,4.88,4.88,0,0,0,1,.11c.39,0-.12.11.28.22s.29-.07.68,0a6.3,6.3,0,0,0,1,.26c.39,0,.27-.14.66-.1s-.11.18.33.14.27-.15.64-.17a2,2,0,0,1,1,.26c.14,0,.19-.12.22-.28.21-.06,0,.14.48.1s-.11-.13.33-.17,0,.16.34.14.14,0,.27-.15c.28-.08,1.32-.13,1.52-.49a.47.47,0,0,1,.41.12,2.83,2.83,0,0,0,1-.1.85.85,0,0,0,.5-.67l.81-.37a.64.64,0,0,0,.74,0c.34-.17,0-.16.35-.4s.56-.15,1-.33.43-.35.56-.46,0-.23.06-.32a5.43,5.43,0,0,0,.84-.82c.09.05,0,.16-.07.32s.35-.1.49-.14a5.21,5.21,0,0,1,.7-.79c.29-.3.52-.29.82-.59s-.16,0,.14-.34.14,0,.26-.15.28-.37.57-.68c.1-.18.3-.31.4-.48a1.85,1.85,0,0,0,.17-.5h0c.27-.38.21-.06.41-.42s0-.3.21-.66.26-.14.47-.5-.11-.12.09-.48.27-.14.38-.55a1.61,1.61,0,0,0,.06-.92,3.45,3.45,0,0,0,.72-1.26c.12-.4-.08-.28,0-.69s.14,0,.26-.44.06-.32-.09-.36a.22.22,0,0,1,.22-.24.14.14,0,0,1,.09,0A18.15,18.15,0,0,0,88.27,32c0-.45-.13.1-.17-.34s.12-.11.17-.5-.15-.26-.24-.61.08-.25,0-.69c-.06-.21,0-.14-.2-.18a1.31,1.31,0,0,1,.35-.39c0-.16.08-.55.22-.59,0-.07-.16,0-.32-.06l-.05-.21c0-.14.1-.17.13-.33s.11-.18.32-.24.11.12.32.07.24-.22.35-.4a4.22,4.22,0,0,1,.76.32c0,.07-.1.18-.06.32l.42-.11,0,.21c.06.21,0,.09-.1.18s.11.12.32.07a.35.35,0,0,1-.09.25.94.94,0,0,1,.05.44c0,.07,0,.16,0,.23a1.46,1.46,0,0,0,.06.51c0,.74.08,1.41.07,1.64a11.92,11.92,0,0,0,0,1.34C90.41,32.89,90.61,32.53,90.67,32.44Z" fill="#38484e"/>
      </g>
      <g>
        <circle cx="71.33" cy="32.42" r="11.52" fill="#fff"/>
        <path d="M84.52,33.18a5.53,5.53,0,0,1-.2.66c0,.09-.21.06-.26.15,0,.39-.29.6-.29.9s.11.12.11.42-.19.13-.25.45.11.72,0,1.06-.14,0-.3.31.06.21-.08.55-.55.45-.75.58A5.61,5.61,0,0,1,81.8,40c-.39.48-.4.18-.82.6,0,0,0-.09-.12.11s0,.23-.26.44-.21.06-.45.28a.78.78,0,0,0-.11.71,6.24,6.24,0,0,0-1.24.48c-.26.14-.67.86-.93,1s-.11-.12-.45,0-.22.28-.48.43c-.62.24-.22-.25-.55-.08s0,.16-.3.31-.44,0-.72.11a4,4,0,0,0-.86.46,2.21,2.21,0,0,1-.9.32,7.1,7.1,0,0,1-1.13,0,1.26,1.26,0,0,1-.51.06l-.49.13c-.15,0-.2-.17-.17-.33a10.3,10.3,0,0,1-2-.14c.12.19.21.24.16.33S69.34,45,69,45s-.35.1-.67,0-.73-.48-1-.56-.37,0-.62-.06-.13-.2-.39-.35a1.34,1.34,0,0,0-.77,0c-.12-.2.16-.27-.18-.41s0,.16-.3,0,.12-.11-.15-.27,0,.16-.3,0,0-.16-.23-.32-.48-.09-.68-.27-.4-.35-.36-.5a.32.32,0,0,0-.36.09c-.1-.12,0-.21-.25-.39s-.34-.13-.54-.31-.38-.57-.59-.82-.58-.45-.79-.69a1.53,1.53,0,0,1-.19-.41,7.07,7.07,0,0,1-.87-1.57c0-.09.16,0,0-.23a13.52,13.52,0,0,1-1-1.4l-.11-.42c.07,0,.2.17.41.42a4.15,4.15,0,0,1-.24-.92c-.08-.28-.18-.1-.26-.38a2.79,2.79,0,0,1,0-.76c0-.3-.2-.18-.21-.48.1-.48.25-.21.22-.59s-.18-.4-.19-.7.16-1.1.16-1.4a2,2,0,0,0,0-1c.11-.18.26-.45.4-.49.07-.32.21-.35,0-.37s-.18.2-.27.15a3.63,3.63,0,0,0,.54-.82,1.16,1.16,0,0,0-.16-.87l.19-.43c.16,0,.35-.09.56-.15,0-.09,0-.21-.23-.31a2.2,2.2,0,0,0,.66-.63c.15-.27.14-.87.3-1.14s.21-.06.36-.33.11-.17.07-.32c.19-.12.27.16.42-.11s-.16,0,.07-.32.33-.16.5-.36c.35-.4.47-.5.22-.89l.36-.32a.49.49,0,0,0,.55.08c.25-.22-.16,0,.09-.25s0,.14.28-.08a1.7,1.7,0,0,0,.36-.62c.1-.18.32-.24.58-.38a3.16,3.16,0,0,1,.89-.32l.92-.25a1.78,1.78,0,0,0,.72-.41.42.42,0,0,1,.32-.24c.5-.14.27.15,1.28,0a4.77,4.77,0,0,1,1-.34,4,4,0,0,1,1.19.21.23.23,0,0,0,.16-.27l.44,0c.3,0,.27.16.5.17s.06.21.15.26l.32.07c.3,0,.19-.13.38-.26l.85.08c.14,0-.11-.12.21-.06a3,3,0,0,1,1.05.55c.09.05.21-.06.32-.24a3.85,3.85,0,0,0,.71.41,4,4,0,0,0,.89.22c.09.05.07.28,0,.37l.61.29a.36.36,0,0,0,.24-.21l.56.38c.27.15,0,.21.32.36s.29.23.41.12c.56.68.12.42.73,1a13.51,13.51,0,0,0,1.18.74c.21.25.17.64.29.83s.15,0,.36.21-.14,0,0,.3.67.8,1,1.1c.09.05,0,0,.15.26a1.3,1.3,0,0,1,.1.95l.06.21c.09.06.21-.05.3,0a1.12,1.12,0,0,0-.11,1c-.07,0-.11-.12-.32-.07-.42.12-.27.68-.62.77-.14,0-.14,0-.23,0s-.31-.6-.66-.5c-.14,0-.11.18-.25.22-.09-.36-.39-.35-.5-.47a5.84,5.84,0,0,0-.08-.59c-.13-.19-.29-.22-.36-.5s0-.09,0-.23a2.22,2.22,0,0,1-.24-.62c-.13-.19-.18-.4-.29-.52s-.19-.41-.36-.51-.39,0-.59-.22,0-.09,0-.23a6.63,6.63,0,0,0-.52-.54,2.77,2.77,0,0,0-1-.64c0-.09.14,0,.21-.05s-.05-.22-.09-.36-.12.11-.39,0-.13-.2-.15-.27-.34-.13-.37,0,.13.19.08.28a1.72,1.72,0,0,1-.45-.26.65.65,0,0,0-.36-.5c-.25-.09,0,.16-.22,0s.13-.11-.12-.19-.21.06-.46,0-.22-.24-.45-.26a1.8,1.8,0,0,0-.92-.05,5,5,0,0,0-.48.2c0-.14.2-.13.23-.29-.48-.09-1.14-.3-1.37-.31a1.12,1.12,0,0,0-.65.1l0,.07c-.3,0-.11-.12-.2-.17s-.12.11-.15.27,0-.15-.27-.16-.07,0-.11.18-.19-.17-.21-.24c-.44,0-1.08.21-1.52.25-.09-.05,0-.16-.16,0a5.77,5.77,0,0,0-1,.65c-.19.13-.41-.11-.69,0s.11.12-.11.18a1,1,0,0,1-.67,0c-.07,0,0,.16,0,.3-.14,0-.19.13-.34.17s-.23,0-.39-.05a.7.7,0,0,0-.08.55c-.12.11-.19.13-.31.23-.09-.05,0-.23,0-.3s0-.07-.19.13-.17.5-.34.69-.23,0-.4.19,0,.23-.19.43-.16,0-.35.09-.11.18,0,.23a1.31,1.31,0,0,0-.47.2c-.21.06-.28.38-.45.58a1.56,1.56,0,0,0-.36.62c.36.21.37.28.43.49,0,0,0-.09,0,.16s-.32.24-.46.27,0,.16-.18.43a1,1,0,0,0-.12.71c0,.14.13.19,0,.37s-.39.26-.59.62l-.09.24c0,.08-.05.09.11.13s.19-.13.33-.17c0,.23-.09.48-.11.71s-.15.27-.17.5a.59.59,0,0,0,.14.49c-.15,0-.2-.17-.27-.15s-.09-.05,0,.23.13.19.19.4-.18.2-.12.41.2.48.26.69-.12.41-.06.62.12-.11.2.17-.12.11-.07.32.16,0,.22.24a.76.76,0,0,1-.13.64c.11.13.16.34.28.23s0-.23.16-.27c.09.35,0,.37.08.58s.13.2.2.18a.87.87,0,0,0,0,.74c.12.19.28.22.41.42s-.1.17,0,.46L63,37.9l.47.63c-.05.09,0,.23-.05.39a3.91,3.91,0,0,1,.91.58.71.71,0,0,1,.24.62c.09.05.16,0,.29-.08a3.57,3.57,0,0,0,1,1.08c.27.16.27.16.44,0l.45.26c.25.08.38.58.63.66s.21-.06.46,0,.38.27.63.36.37,0,.61.06-.12.11.2.17.2-.13.44,0,.29.22.59.22.19-.13.43-.12,0,.16.19.18.2-.13.43-.12a1,1,0,0,1,.6.3c.07,0,.12-.11.16-.27s0,.14.27.15,0-.14.17-.2,0,.16.18.11.12-.11.12-.11c.21-.06.83,0,.9-.32.14,0,.18.11.26.16a1.32,1.32,0,0,0,.62.06.46.46,0,0,0,.24-.52,1.55,1.55,0,0,0,.55-.22c.18.1.29.23.48.1s0-.14.22-.29.37,0,.57-.15.33-.17.38-.25,0-.22,0-.31a3.14,3.14,0,0,0,.45-.57c.09.05,0,.14,0,.23s.23,0,.39,0a3.67,3.67,0,0,1,.38-.56c.2-.13.35-.09.53-.29s-.16,0,0-.23.14,0,.21-.06a1.44,1.44,0,0,0,.35-.39,1.22,1.22,0,0,0,.36-.63h0c.17-.2.16,0,.33-.16s0-.21.12-.41.21-.06.32-.24-.11-.12,0-.3.21-.06.3-.3a1,1,0,0,0,0-.61,1.32,1.32,0,0,0,.57-.68c.08-.25-.13-.19,0-.44s.14,0,.22-.29,0-.23,0-.21c0-.16.19-.13.35-.09a3.76,3.76,0,0,0,.14-.87l.08-.85c0-.23-.14,0-.13-.19s.14,0,.14-.34-.13-.19-.19-.4S82,32,82,31.74s0-.14-.18-.11a.88.88,0,0,1,.37-.32,1.29,1.29,0,0,1,.22-.59c0-.07-.16,0-.32-.06l-.06-.22c0-.14.1-.17.14-.33s.1-.18.31-.24.11.12.32.07.25-.22.35-.4a4.31,4.31,0,0,1,.77.32c0,.07-.11.18-.07.32l.42-.11.06.21c.06.21,0,.09-.1.18s.1.12.32.07c0,.14,0,.16-.09.24s0,.31,0,.45,0,.16,0,.23,0,.23,0,.37c0,.46-.06.92-.09,1.08a5.41,5.41,0,0,0,0,.9.4.4,0,0,1,0-.57Z" fill="#38484e"/>
      </g>
    </g>
  </g>
</svg>
