<svg xmlns="http://www.w3.org/2000/svg" viewBox="0 0 150 190">
  <g>
    <g>
      <path d="M137,187.53H12.84A10.81,10.81,0,0,1,2,176.72H2v-122A10.73,10.73,0,0,1,12.7,43.88a.33.33,0,0,1,.14,0H137a10.8,10.8,0,0,1,10.81,10.8h0v122A10.81,10.81,0,0,1,137,187.53Z" fill="#fff"/>
      <path d="M120.76,190c-1.24-.1-2.78-.21-4.53-.21-.52-.1-.31-.3-1.14-.3-2.67,0-4.42-.21-6.69-.21s-.41.21-2.78.21-1.34-.21-3.6-.21-5,.41-7.31.41-.41-.2-2.78-.2-1.34.2-3.6.2a41.24,41.24,0,0,1-6-.62c-3.4.21-10.92.42-13.18.42-4.43,0-2.89-.31-7-.42H60.93c-2.27,0-1.34.21-3.6.21s-1.34-.21-3.6-.21a12.07,12.07,0,0,0-3.91.62c-3.2-.2-6.6-.62-8.86-.62s-7.72.42-10.09.42-.41-.21-2.78-.21-2.27.21-4.53.21c-4.64,0-.42-.42-3.6-.42-2.27,0-.42.21-2.78.21a23.41,23.41,0,0,1-2.78-.1c-.83-.1-1.55-.1-2.89-.21a13.74,13.74,0,0,1-3.09-.72,10.88,10.88,0,0,1-4-2.37,10.84,10.84,0,0,1-2.88-3.7c-.31-.62-.52-1.24-.73-1.75a7.85,7.85,0,0,1-.3-1.34,3.63,3.63,0,0,0-.21-1v-1.14a17.09,17.09,0,0,1,.1-2.26c0-1.44.1-3,.1-4.12,0-2.27-.1-5.77-.21-7.62,0-1,.21-1.44.42-1.34V146.75c-.31,1-.31,2-.42,1.75,0-1.24.21-1.24.21-3.5s-.42-2.27-.42-4.53.41-6,.41-8.24S.27,130,.27,127.7s.21-1.34.21-3.6a29.49,29.49,0,0,0-.41-5c.1-1.34.41-.1.41-2.37s-.21.41-.21-1.85.21.41.21-1.86-.21.42-.21-1.85.21-.42.21-2.78-.21-3.19-.21-5.46a20.83,20.83,0,0,1,.21-4.32c0-.72-.21-1.14-.41-1.24,0-1.24.2-1.24.2-3.5s-.2-2.27-.2-4.53.2-5.05.2-7.31-.2-5-.2-7.31a15.79,15.79,0,0,1,.2-3.3c0-4.43,0-9.07.1-13.49.1-.52.21.82.21-1.45V54a11.3,11.3,0,0,1,.62-3.6A9,9,0,0,1,3,46.77a21.16,21.16,0,0,1,2.58-2.69,13,13,0,0,1,3.39-1.65,3.4,3.4,0,0,1-1.13.62A8.28,8.28,0,0,0,5.42,44.7a12.47,12.47,0,0,1,7.31-2.47c2.27,0,1-.21,3.3-.21s3.2.21,5.46.21,1.34-.21,3.6-.21.41.21,2.78.21,3.2-.21,5.46-.21,7.83.21,10.09.21a48.25,48.25,0,0,0,6.8-.21,36,36,0,0,1,4,.41c2.47,0,3,.1,3-.1s-1.85-.1-1.54-.31c2.36.21,4.73.41,7,.41.61,0,4.94-.2,5.66-.61h3.4a15.3,15.3,0,0,0,2.68.61A2.38,2.38,0,0,0,75.86,42c2.37.21,3.81.41,6.08.41s6-.41,8.23-.41,1.34.21,3.6.21,1.86,0,2.06-.21c1.45.1.21.41,2.48.41s-.42-.2,1.85-.2,2.27.2,4.53.2c4,0,4.94,0,5.66-.61h3.4a5.57,5.57,0,0,0,2.89.61c2.26,0-.41-.2,1.85-.2s-.41.2,1.86.2,3.4-.31,5-.41c1.34-.1,2.78,0,5,0,1.13,0,4,.1,6.9.21a10.46,10.46,0,0,1,4.53,1,13.21,13.21,0,0,1,2.68,1.54,14.08,14.08,0,0,1,3.3,3.5c.3.41.51.83.72,1.14a3.5,3.5,0,0,1,.41.82,4.22,4.22,0,0,1,.51,1.24,6.63,6.63,0,0,1,.42,2.16,6,6,0,0,1,0,1.34v.82c0,.41-.1.72-.1,1.13A51.31,51.31,0,0,0,149.6,63c0,2.27.21,5,.21,7.32s-.21,6.17-.42,8.85c0,.83.21,1.24.42,1.34v3.09c0,2.27-.21,1.85-.21,3.6-.1.51-.31.41-.41,1.13v2.59c0,2.26.2,1.44.41,2.78,0,1.75,0,4.53.1,6.28.1.82.21-.72.21,1.54s-.21,6.18-.42,8.86a2.48,2.48,0,0,0,.42,1.54c-.1,1.45-.21,3.81-.21,6.08s.1,4.84.21,6.8c0,1-.21,1.44-.42,1.34v5c.1.72.31.62.42.72v4.74c0,2.27-.21,1-.21,3.3s0,2.78.21,3c-.31,6.49-.42,2.57-.42,9,0,4,.42,8.75.42,10.09,0,2.26-.42,4.12-.42,6.38s.21.42.21,2.78-.21-.41-.21,1.86v5a12.74,12.74,0,0,1-1.75,6,3.3,3.3,0,0,0-.31.51,8.3,8.3,0,0,1-1.23,1.55,13.3,13.3,0,0,1-3.6,2.37c-.31.1-.62.2-1,.3a3,3,0,0,1-.93.21c-.21,0-.31.1-.41.1h-.72c-.1.1,0,.31,0,.41a2,2,0,0,0-1.44-.51c0-.1.2-.1.2-.41-.1-.62-.93-.62-.82-1.14,0-.2,0-.2.1-.31s.92-.2.82-.72c0-.2-.2-.2-.2-.41.51,0,.51-.51.72-.51a.37.37,0,0,1,.31.1h.1l.61-.1a6,6,0,0,0,1.24-.42,9.6,9.6,0,0,0,1.85-1.23c.42-.52.93-.93,1.45-1.65.92-1.55.41-.41.82-.93a10.44,10.44,0,0,0,.82-2.16,5.19,5.19,0,0,0,.21-1.24v-1.54c.1-2.06.1-4,.1-5.15,0-2.27.1-4.22,0-5.66s-.41-3-.41-5.26.1-.72.2-1.54V152c0-2.26,0-6.69-.2-10.71.1-.2.2.83.31,1.65.14-.85.25-1.71.31-2.57a23,23,0,0,1-.21-3,6,6,0,0,1,.21-2.37c-.1-1.54-.1-3.08-.31-3.08s-.21,1.85-.31,1.64v-5.15a23.6,23.6,0,0,0,.41-4.74c0-2.27-.21.41-.21-1.86s.21.42.21-1.85-.21-1.34-.21-3.6.21-2.27.21-4.53-.1-6.08-.21-8.44c-.1-1.65-.31-2.58-.41-4,.1-.31.21,1.54.41,1.65,0-4.22.21-10.61.21-12.87s0-4.64-.1-6.08h-.1c0-2.57.1-1,.21-1.85S146.2,79,146,78.89a22.43,22.43,0,0,0,.21-2.58c0-2.26-.1-.92-.21-1,0-1.23.21-1.65.42-1.54V59.42c.1-.41.2.93.2-1.33a20.68,20.68,0,0,0-.1-2.37,10.76,10.76,0,0,0-.41-2.58,10.72,10.72,0,0,0-2.37-3.81,20,20,0,0,0-1.65-1.54,6.86,6.86,0,0,0-2-1.13c-.93-.21-.83-.21-.72-.1s.2.1-.72,0a1.93,1.93,0,0,1-.72-.1,2.26,2.26,0,0,1-.73-.1c-.51,0-1-.1-1.54-.1a20.47,20.47,0,0,1-2.06-.31c-.72,0-1.13.2-1.24.41H129c-.1-.1-1.85-.21-2.57-.41a10.2,10.2,0,0,0-3.19.61h-3.4c-.1-.1,1.75-.2,1.75-.3-.83-.1.41-.1-1.86-.1s-4.11.41-6.38.41-1.34-.21-3.6-.21-1.34.21-3.6.21-.41-.21-2.78-.21-1.85.1-2.06.21c-1.34-.1-2.68-.21-4.12-.41s-4.32,0-6.59,0h-6.7c-1,0-1.65.2-3,.3H79.67a31.32,31.32,0,0,1-4.43-.41c-.62-.1-1.54,0-3.81,0-7.72,0-5.35.41-9.16.41-3,0-3.4-.41-7-.61H52.79c-.72.1-.61,0-.61.2s1.85.21,1.64.41H47.23c-2.26,0-2.37-.2-4.63-.2s-3.3.1-4.74.2c-.31-.1,1.55-.2,1.55-.3-.83-.1.41-.1-1.86-.1s-1.34.2-3.6.2-2-.72-4.22-.72-4.12.21-6.38.21-3.2-.21-5.46-.21.41.21-1.86.21-.41-.21-2.78-.21a2.4,2.4,0,0,0-1,.1c-.2,0-.2.1-.2.1s-.21.1-1.14.31a9,9,0,0,0-2.47.72c-.72.3-1.34.61-1.54.71-1,.82-1.75,2-1.55,2.06s.42-.21.62-.52.52-.51.52-.41a11.23,11.23,0,0,0-1.55,2,9.35,9.35,0,0,0-.83,1.75c-.41,1.85-.2,1.54-.1,1.75s-.1.51-.1.72a2.08,2.08,0,0,1-.1.82c0,.52-.1,1-.1,1.44a29,29,0,0,0-.1,3.09c0,2.27.21,3.19.21,5,0,.93-.21,1.13-.41,3.4H4v7c-.1.1-.21,1.85-.42,2.57.21,2.37.42,7.21.42,9.48a27.16,27.16,0,0,1-.43,5.25A1.84,1.84,0,0,0,4,94.23c-.2,4.12-.41,11.23-.41,13.49,0,3.09,0,3,.41,2.88v4.74c0,2.27-.41,5.56-.41,7.93s.2,1.34.2,3.6-.2,4.12-.2,6.39.2,3.19.2,5.46-.2-.41-.2,1.85.2,1.34.2,3.6-.2,3.19-.2,5.46.2,1.34.2,3.6-.2-.41-.2,1.85.2,1.34.2,3.6a26.38,26.38,0,0,1-.41,5.25c0,.73.21,1.14.41,1.24a24.49,24.49,0,0,0-.2,2.57c0,2.27.2-.41.2,1.86s-.2-.41-.2,1.85.1,1,.2,1.44v4.23a6,6,0,0,0,1.14,3.4A3.88,3.88,0,0,1,5.42,182a3.07,3.07,0,0,0,.52.72c.2.31.41.51.62.82a8.44,8.44,0,0,0,2.06,1.55,4.51,4.51,0,0,0,3.19.31h4.94a14,14,0,0,0,3.81.41c2.27,0,.41-.21,2.78-.21s3.19.21,5.46.21h3.91c.83-.1.72-.31,1.13-.31.93,0,3.2-.1,6.6-.21.2.1-.83.21-1.65.31,0,.1,1.85.21,2.47.31,1.44-.1,3.5-.2,5.77-.2s3.19.2,5.45.2-.41-.2,1.86-.2.72.1,1.54.2h4.84c2.27,0,4.64,0,6.08-.1v-.1c2.57,0,.72.21,3.09.21s1.34-.21,3.6-.21,1.34.21,3.6.21.41-.21,2.78-.21,1.34.21,3.6.21a28.23,28.23,0,0,0,4.94-.41c2.27.2,5.56.41,7.83.41s1.34-.21,3.6-.21.41.21,2.78.21,1.85,0,1.95-.21c1.24,0,1.65.21,1.55.41h15.67c2.26,0-.41-.2,1.85-.2s.41.2,2.78.2,1.34-.2,3.6-.2,1.34.2,3.6.2H134v-.2a1,1,0,0,1,.52.62c.31.1.72.2.82.41.1,0,.1-.21.1-.41h.31c.21,0,.21.2.41.2,0,.21.21.21.21.41s-.21.1-.21.42.21.41.42.51a9.07,9.07,0,0,0-.62,1c-.1,0-.21-.2-.41-.2v.61h-.31c-.21,0-.1-.1-.21-.2s-.1.2-.1.41c-.1,0-.2-.1-.31-.21a1.21,1.21,0,0,1-.62-.1h-2.78c-3.6,0-6.69-.1-7.82-.1-2.27,0-4.84,0-6.39.1C118.39,189.69,120.14,189.9,120.76,190Z" fill="#3a494f"/>
    </g>
    <g>
      <g>
        <path d="M133.63,178.78H16.13a5.28,5.28,0,0,1-5.25-5.26V58a5.28,5.28,0,0,1,5.25-5.25h117.5A5.28,5.28,0,0,1,138.89,58V173.52A5.29,5.29,0,0,1,133.63,178.78Z" fill="#fff"/>
        <path d="M118.9,181.14c-1.13-.1-2.47-.2-4-.2-.41-.1-.31-.31-1-.31-2.37,0-3.91-.21-6-.21s-.42.21-2.48.21-1.23-.21-3.3-.21-4.42.42-6.48.42-.42-.21-2.47-.21-1.24.21-3.3.21a35.77,35.77,0,0,1-5.36-.62c-3,.2-9.68.41-11.74.41-3.91,0-2.57-.31-6.18-.41H65.46c-2.06,0-1.24.2-3.3.2s-1.24-.2-3.3-.2a9.3,9.3,0,0,0-3.5.62c-2.78-.21-5.87-.62-7.83-.62s-6.9.41-9,.41-.41-.21-2.47-.21-2.06.21-4,.21c-4.12,0-.41-.41-3.3-.41-2.06,0-.41.2-2.47.2s-2.89-.2-4.84-.2a22.57,22.57,0,0,0-2.47.1,10.34,10.34,0,0,0-1.76.1H15.19a7.5,7.5,0,0,1-4.32-1.86A7.79,7.79,0,0,1,9,175.78a7.22,7.22,0,0,1-.31-2.26,11.65,11.65,0,0,1,.1-2c.1-1.34.1-2.68.1-3.6,0-2.06-.1-5.15-.21-6.8,0-.93.21-1.34.41-1.24V146.75c-.31.82-.31,1.75-.41,1.54,0-1.13.21-1.13.21-3.08s-.21-2.06-.21-4,.41-5.25.41-7.31-.2-2.06-.2-4,.2-1.23.2-3.3A28.57,28.57,0,0,0,9,122c.1-1.13.41-.1.41-2.06s-.2.41-.2-1.65.2.42.2-1.64-.2.41-.2-1.65.2-.41.2-2.47-.2-2.89-.2-4.84a17.75,17.75,0,0,1,.2-3.92c0-.61-.2-1-.41-1.13,0-1.13.21-1.13.21-3.09S9,97.52,9,95.57s.21-4.43.21-6.49S9,84.65,9,82.59a13.64,13.64,0,0,1,.21-3c0-4,0-8,.1-11.94.1-.41.2.72.2-1.34,0-1-.1-2.88-.2-4.94-.1-1-.1-2.06-.21-3.09v-.93a3.57,3.57,0,0,1,.1-1,5.16,5.16,0,0,1,.62-1.75,7.93,7.93,0,0,1,2.7-2.88c.1,0-.41.31-.93.93A5,5,0,0,0,9.85,55.2a6.9,6.9,0,0,1,6.28-4.12c2.06,0,.93-.2,3-.2s2.88.2,4.84.2,1.23-.2,3.3-.2.31.2,2.37.2,2.88-.2,4.84-.2,6.9.2,9,.2a56,56,0,0,0,6.07-.2,24.05,24.05,0,0,1,3.5.41c2.27,0,2.68.1,2.68-.1s-1.65-.1-1.34-.31c2.06.21,4.22.41,6.28.41.52,0,4.33-.2,5.05-.62h3a12.16,12.16,0,0,0,2.37.62,1.76,1.76,0,0,0,1.24-.41,47.42,47.42,0,0,0,5.46.41c2.06,0,5.25-.41,7.31-.41s1,.21,3.09.21,1.64,0,1.85-.21c1.24.1.21.41,2.16.41s-.41-.2,1.65-.2,2.06.2,4,.2c3.6,0,4.32,0,5-.62h3a4.63,4.63,0,0,0,2.57.62c2.06,0-.41-.2,1.65-.2s-.41.2,1.65.2a38.8,38.8,0,0,0,4.43-.41c1.23-.1,2.47,0,4.53,0s10.19.41,12.15.41a10.07,10.07,0,0,1,2.57.21,16.22,16.22,0,0,1,1.86.72A7.54,7.54,0,0,1,139,53.56a3.73,3.73,0,0,1,.82,1,7,7,0,0,1,.83,2.06,8.64,8.64,0,0,1,.1,1.44v.72c0,.41-.1.62-.1,1a36.91,36.91,0,0,0-.21,5.36c0,2.06.21,4.42.21,6.48s-.21,5.46-.42,7.83c0,.72.21,1.13.42,1.24v2.67c0,2.06-.21,1.65-.21,3.2-.1.41-.31.3-.41,1v2.27c0,2.06.2,1.34.41,2.47,0,1.55,0,4,.1,5.56.1.72.21-.62.21,1.34s-.21,5.46-.42,7.83a1.87,1.87,0,0,0,.42,1.34c-.1,1.23-.21,3.4-.21,5.46s.1,4.32.21,6c0,.93-.21,1.34-.42,1.23v4.43c.1.62.31.52.42.62v4.21c0,2.06-.21.93-.21,3s.1,2.47.21,2.57c-.31,5.77-.42,2.27-.42,7.93,0,3.6.42,7.83.42,9,0,2.06-.42,3.6-.42,5.66s.21.42.21,2.47-.21-.41-.21,1.65.21,6.7.42,9.37v2.17a8.77,8.77,0,0,1-.52,2.06,5.79,5.79,0,0,1-1.24,1.85,8.62,8.62,0,0,1-1.64,1.24c-.1.1-.31.1-.42.2l-.2.1h-.2a.36.36,0,0,1-.31.1c-.1.1,0,.31,0,.41a2.6,2.6,0,0,0-1.55-.3c0-.11.21-.21.21-.42-.1-.61-.93-.61-.93-1V178c.21,0,.83-.31.72-.72-.1-.2-.2-.2-.2-.41.41-.1.31-.51.51-.62h.31c.1,0,.21-.1.41-.2a2.09,2.09,0,0,0,.73-.62,3,3,0,0,0,.61-1.34v-1.85c0-2.06.1-.62.21-1.34,0-3.09.21-8,.21-10s.1-3.71,0-5a46.93,46.93,0,0,1-.42-4.73c0-2.06.1-.62.21-1.34v-6c0-2.06,0-5.87-.21-9.57.1-.21.21.72.31,1.44a19.34,19.34,0,0,0,.31-2.27,18.35,18.35,0,0,1-.2-2.67c0-2.06.1-1.55.2-2.06-.1-1.34-.1-2.78-.31-2.78s-.2,1.64-.31,1.54V123a18.71,18.71,0,0,0,.42-4.22c0-2.06-.21.41-.21-1.65s.21.41.21-1.65-.21-1.23-.21-3.3.21-2.06.21-4-.1-5.46-.21-7.52c-.1-1.44-.31-2.37-.41-3.6.1-.21.2,1.34.41,1.44,0-3.81.21-9.47.21-11.53s0-4.12-.1-5.46h-.1c0-2.27.1-.93.2-1.65s-.2-1-.41-1.13a23.69,23.69,0,0,0,.21-2.37c0-2.06-.1-.82-.21-.93,0-1.13.21-1.54.41-1.33V61.28c.1-.31.21.82.21-1.13a15.7,15.7,0,0,0-.1-2.06,3.23,3.23,0,0,0-.52-1.76,3.35,3.35,0,0,0-2.57-1.54.59.59,0,0,1-.41-.1h-.62c-.41,0-.72-.1-1.13-.1a17.17,17.17,0,0,0-2.48-.21c-2.06,0,.42.21-1.64.21a20.65,20.65,0,0,1-4.64-.41c-.62,0-1,.2-1.13.41h-3c-.1-.1-1.65-.21-2.27-.41a7.71,7.71,0,0,0-2.88.62h-3c-.1-.1,1.55-.21,1.55-.31-.72-.1.41-.1-1.65-.1s-3.6.41-5.66.41-1.24-.21-3.3-.21-1.24.21-3.3.21-.42-.21-2.47-.21-1.65,0-1.86.21c-1.23-.1-2.37-.21-3.6-.41s-3.81,0-5.87,0h-6c-.93,0-1.45.2-2.68.31H75.35a25.68,25.68,0,0,1-3.92-.42,32.13,32.13,0,0,0-3.4,0c-6.9,0-4.73.42-8.13.42-2.68,0-3.09-.42-6.18-.62H51.56c-.62.1-.52,0-.52.2s1.65.21,1.55.42H46.41c-2.06,0-2.16-.21-4.12-.21a40.07,40.07,0,0,0-4.22.21c-.21-.1,1.34-.21,1.44-.31-.72-.1.41-.1-1.65-.1s-1.23.2-3.3.2-1.23-.2-3.3-.2-3.6.2-5.66.2-2.89-.1-5-.1.42.21-1.64.21-.42-.21-2.47-.21h-.82c-.1,0-.1.1-.21.1s-.1.1-.72.31a4,4,0,0,0-1.54,1c-.42.41-.62.83-.83.93V58.1c0,.51.1.82.21.82s.2-.41.2-.82v-.43c0-.1,0-.1.1-.1V59a3,3,0,0,1-.1,1c0,.62-.1,1.14-.1,2.17,0,2.06.1,1.64.21,1.85a47.42,47.42,0,0,0-.41,5.46c0,2.06.2,2.88.2,4.43,0,.82-.2,1-.41,3h.62v6.18c-.1.1-.21,1.65-.41,2.27.2,2.06.41,6.38.41,8.44a20.65,20.65,0,0,1-.41,4.64,1.73,1.73,0,0,0,.41,1.23c-.21,3.6-.41,10-.41,12,0,2.78,0,2.67.41,2.57v4.22c0,2.06-.41,4.95-.41,7s.2,1.24.2,3.3-.2,3.6-.2,5.67.2,2.88.2,4.84-.2-.42-.2,1.64.2,1.24.2,3.3-.2,2.89-.2,4.84.2,1.24.2,3.3-.2-.41-.2,1.65.2,1.24.2,3.3a20.48,20.48,0,0,1-.41,4.62c0,.62.2,1,.41,1.13a23.44,23.44,0,0,0-.21,2.37c0,2.06.21-.41.21,1.65s-.21-.42-.21,1.64.1.83.21,1.24v3.81A2.64,2.64,0,0,0,14,175.79a3.54,3.54,0,0,1,.72.82,3.24,3.24,0,0,0,1.34.52H18.6a9.65,9.65,0,0,0,3.4-.62h4.53a11.16,11.16,0,0,0,3.4.41c2,0,.41-.2,2.47-.2s2.89.2,4.84.2h3.5c.72-.1.62-.31,1-.31.83,0,2.89-.1,5.87-.2.21.1-.72.2-1.44.31.72.14,1.44.24,2.16.31,1.34-.1,3.09-.21,5.15-.21s2.89.21,4.84.21-.41-.21,1.65-.21.62.1,1.34.21h4.32c2.06,0,4.12,0,5.46-.1v-.1c2.27,0,.72.2,2.68.2s1.24-.2,3.3-.2,1.24.2,3.3.2.41-.2,2.47-.2,1.24.2,3.3.2a21.94,21.94,0,0,0,4.43-.41c2,.21,4.94.41,7,.41s1.23-.2,3.3-.2.41.2,2.47.2,1.65,0,1.75-.2c1.13,0,1.55.2,1.34.41h13.9c2.06,0-.41-.21,1.65-.21s.41.21,2.47.21,1.23-.21,3.3-.21,1.23.21,3.3.21h.41V177a1.07,1.07,0,0,1,.52.62c.3.1.72.21.82.41.1,0,.1-.2.1-.41h.31c.2,0,.2.21.41.21,0,.2.21.2.21.41s-.21.2-.21.41a.71.71,0,0,0,.41.52,8.79,8.79,0,0,0-.62,1c-.1,0-.2-.21-.41-.21v.62h-.31c-.2,0-.1-.1-.2-.21s-.1.21-.1.41c-.1,0-.21-.1-.31-.2a1.47,1.47,0,0,1-.62-.1H129c-3.19,0-5.87-.1-6.9-.1-2.06,0-4.33,0-5.66.1A7.87,7.87,0,0,0,118.9,181.14Z" fill="#3a494f"/>
      </g>
      <g>
        <g style="isolation: isolate">
          <text transform="translate(47 89.82)" font-size="14" fill="#707070" font-family="YuGothicUI-Regular, Yu Gothic UI" style="isolation: isolate">能源資訊</text>
        </g>
        <g style="isolation: isolate">
          <text transform="translate(43 123.82)" font-size="16" fill="#707070" font-family="YuGothicUI-Regular, Yu Gothic UI" style="isolation: isolate">一網打盡</text>
          <text transform="translate(107 123.82)" font-size="16" fill="#707070" font-family="SegoeUI, Segoe UI" style="isolation: isolate"> </text>
          <text transform="translate(35 144.82)" font-size="16" fill="#707070" font-family="YuGothicUI-Regular, Yu Gothic UI" style="isolation: isolate">能源大地圖</text>
        </g>
        <line x1="31" y1="98.32" x2="119" y2="98.32" fill="none" stroke="#707070"/>
      </g>
    </g>
    <g>
      <g>
        <g>
          <path d="M75,66h0c-9.53,0-17.25-2.86-17.25-14.12,0-3.47,1.39-17.41,1.39-17.41H90.89s1.39,13.94,1.39,17.41C92.28,63.22,84.57,66,75,66h0" fill="#fff"/>
          <path d="M69.58,67.72c-.26-.08-.61-.26-1-.34-.08-.09,0-.26-.17-.35-.6-.09-.86-.43-1.38-.52s-.18.17-.61,0-.26-.26-.69-.43-1.22,0-1.65-.26,0-.18-.52-.44-.35,0-.78-.26A2.42,2.42,0,0,1,62,63.91a5.07,5.07,0,0,1-1.38-.86,6.3,6.3,0,0,1-1-1c-.61-.86-.26-.69-.69-1.47,0,0,.17.17-.09-.26s-.26-.17-.52-.61,0-.34-.17-.86a1.61,1.61,0,0,0-.78-.7,14.34,14.34,0,0,0-.09-2.07A21,21,0,0,1,56.5,54c0-.52.17-.09.17-.61s-.17-.52-.26-1c0-1,.35-.09.35-.78,0-.52-.18-.09-.18-.61a4.8,4.8,0,0,1,.26-1.12c0-.43-.17-2.34-.17-2.86A10.3,10.3,0,0,1,57,45.37V43.81c0-.17.26-.26.34-.26l.26-3c-.26.17-.26.34-.34.34,0-.26.17-.26.26-.69s-.09-.52-.09-1A12.14,12.14,0,0,1,58,37.57c.09-.43-.09-.52-.09-1,0-.26.09-.26.09-.35l.09-.08a2.14,2.14,0,0,0,.08-.44A3.89,3.89,0,0,0,58,33.93c.17-.43.35.26.43-.52v-.17h.09l-.09-.09c-.08,0-.17-.08.26-.08.78,0,0,.17.7.17s-.26-.17.52-.17.26.17.95.17h.52a.32.32,0,0,0,.26-.09c.17,0,.35-.08.52-.08.43,0,.78,0,.87.17.17,0,.26-.17.26-.35.26,0,.26.17.69.17s.43-.17,1-.17,1,.17,1.47.17,1-.17,1.48-.17a1.13,1.13,0,0,1,.69.17c.95,0,1.82,0,2.77.09.09.09-.17.17.26.17a19.77,19.77,0,0,0,2.52-.52h.69c0,.09-.35.18-.69.35h1.38c.43,0,.17-.17.69-.17s.7.17,1.13.17.26-.17.78-.17.09.17.52.17.69-.17,1.13-.17,1.56.17,2.08.17c.34,0,1.12.09,1.38-.17.26.09.69.17.78.35.52,0,.61.08.61-.09s-.35-.09-.35-.26a4.21,4.21,0,0,0,1.47.35c.09,0,1-.18,1.13-.52h.69c0,.17.35.34.52.52.17,0,.26-.18.26-.35a4,4,0,0,1,.6.26c.09,0,.18.09.26.09h.52a12.2,12.2,0,0,0,1.48-.18c.26,0,.6-.08.86-.08s.61-.18.52.17c.09.78-.08.6,0,1.38s.09.61.26.7c-.08.52-.34.17-.26,1,.09.52.18-.09.18.35s-.09.52-.09,1c.09.78.09,1,.61,1.13l.08.69c-.17,0-.52.35-.43.61.09.43.17-.09.17.34s-.17-.08-.17.35a1.66,1.66,0,0,0,.43,1,3.3,3.3,0,0,0-.08,1c0,.44-.18,2.34-.09,2.86.17,1.65.43,1.13.52,1.82s-.35.26-.17,1.91c0,.43.26,1,.26,1.47a8.25,8.25,0,0,1-.35,1.91c0,.17.09.26.35.34v.7c0,.52-.18.43-.26.78-.09.08-.26.08-.35.17l-.26.52c-.09.52.09.35.26.6a9.21,9.21,0,0,1-.26,1.39c0,.17.17-.09.09.35a5.26,5.26,0,0,1-1,1.73c-.09.17,0,.26.17.43a6.8,6.8,0,0,0-.87,1.13,11.79,11.79,0,0,0-.78,1.39c-.17.17-.43.08-.43,0l-.78.78c-.09.17.09.26.09.34-.26.26-.61.44-.87.7-.43.34-.26,0-.69.34s-.52.35-.52.52a2.54,2.54,0,0,1-1,.26c-.18,0-.26,0-1,.35s-1.73,1-2,1c-.52.09-1-.09-1.38,0s-.09.17-.52.26.08-.17-.44-.09-1.56.44-2.16.61c-.18,0,0,0-.44.09a2.6,2.6,0,0,1-.78-.09c-.26-.09-.6-.09-.6-.17h-.26a.52.52,0,0,0-.09.34,1.13,1.13,0,0,0-1-.52c0-.08.17-.08.17-.34a.57.57,0,0,0-.34-.52c-.09-.09-.18-.09-.26-.18L75,65.82v-.09h0v-.26c.17-.09.78-.17.78-.61,0-.17-.17-.17-.17-.34.52,0,.6-.35.78-.35a.32.32,0,0,1,.26.09.79.79,0,0,1,.26.08h.34a4.07,4.07,0,0,0,1-.26c.44-.08.18.09.35.09h1.21c.44,0,.78-.09,1-.09a2.9,2.9,0,0,0,1-.26,3.91,3.91,0,0,1,.86-.6c.44-.18.18.08.35.08a9.7,9.7,0,0,0,1.13-.43c.17-.09.43-.17.78-.35a3.35,3.35,0,0,0,.86-.69c.09.09,0,.17-.09.35s.35-.09.52,0c.09-.09,0-.17.35-.43s.26-.09.43-.09c.18-.26.44-.35.26-.52s-.34.09-.34,0a3.85,3.85,0,0,0,.6-.61.93.93,0,0,0,.78-.34c.26-.35-.17-.09.09-.35s.09.17.35-.17,0-.26.17-.61.35-.26.52-.61A4.11,4.11,0,0,0,89.85,57a2.11,2.11,0,0,0-.18-.78c.18,0,.18.35.26.35.09-.35.26-.78.35-1.22a6.33,6.33,0,0,1,.26-1,2.36,2.36,0,0,0,0-1.12h-.09c0-.52.09-.17.18-.35s-.09-.26-.35-.26c0-.26.17-.09.17-.52s-.08-.17-.17-.17c0-.26.17-.35.35-.26,0-.87-.09-1.91-.09-2.86.09-.09.17.17.09-.26s-.52-1.73-.52-2.17.26-.69.26-1.12-.18.08-.18-.35a2.12,2.12,0,0,1,.26-1.13c0-.17-.17-.26-.34-.26L90,42.77c.09,0,.17-.43.26-.52a1.27,1.27,0,0,0-.61-.6l.09-1c.09,0,.26.35.35.35.09-.17.09.09,0-.35s-.43-.78-.43-1.3.17-.26.08-.78-.17-.26-.26-.69.18-.09.09-.61-.09-.34-.17-.43.08-.26.08-.43l.18-.18a.77.77,0,0,0,0-.43.39.39,0,0,0-.44,0c-.08,0-.17.17-.17.26h-.26a1.63,1.63,0,0,1-.87-.35c-.08-.08-.34,0-.78,0-1.56,0-1.12.35-1.9.35-.61,0-.7-.35-1.39-.52h-.52c-.17.09-.09,0-.09.17s.35.18.35.35H82.23c-.44,0-.52-.17-1-.17a2.9,2.9,0,0,0-1,.26c-.08-.09.35-.17.35-.26-.17-.09.09-.09-.35-.09S80,36,79.45,36s-.26-.17-.78-.17-.86.17-1.3.17-.69-.17-1.12-.17.08.17-.35.17-.09-.17-.52-.17-.09.17-.52.17a1.46,1.46,0,0,1-1-.34c-.26.08-.61.08-.61.26s.35.08.35.26c-.6,0-.6-.18-1.12-.18s-.35.09-.44.18a3,3,0,0,0-1.21-.35c-.43,0-.69.17-1,.17-.17,0-.26-.17-.69-.34v.52H67.58c0-.09-.34-.18-.52-.35a8.07,8.07,0,0,1-1.9.35,1.51,1.51,0,0,1-1-.35c-.17,0-.26.17-.26.35-.43-.09-1-.18-1.56-.26-.26,0-.52-.09-.69-.09h-.44c-.17,0-.17,0-.08.35h-.35c-.09,0-.35-.09-.35.17s.18,0,.09.43a5.76,5.76,0,0,0-.26,1.3c-.09.44.09.7.09,1.13s-.18-.09-.18.35.18.26.09.78A4.34,4.34,0,0,0,60,41.47c0,.43.17.26.09.78s-.17-.09-.17.35.17.26.08.78a1.7,1.7,0,0,1-.43,1c0,.17.09.26.35.26,0,.26-.18.09-.18.52s.18-.09.18.35-.18-.09-.18.34.09.18.09.26c0,.35-.26,1.48.09,1.82a.31.31,0,0,1-.26.35,7.47,7.47,0,0,0-.35,1,1.05,1.05,0,0,0,.43.78l-.08,1a.76.76,0,0,0-.35.69c0,.43.17.09.17.52s-.17.61-.08,1a6.87,6.87,0,0,0,.08.78c.09.17.26.09.35.17a3.77,3.77,0,0,0,.43,1.13c-.09.09-.17-.09-.26-.26-.09,0-.09.35-.17.52a3.27,3.27,0,0,1,.43.95c.09.44,0,.61.17,1-.08.52-.08,0,.09.34s0,.18,0,.35a7.37,7.37,0,0,0,.43.78,1.57,1.57,0,0,0,.7.78h0c.26.35-.09.17.17.52s.26.09.61.35,0,.34.34.6.18-.08.52.18.09.26.44.52a1.36,1.36,0,0,0,1,.17,3.78,3.78,0,0,0,1.12.95c.35.17.26-.09.7.09s0,.17.43.35.35.08.43,0c.26.08.26.26.18.43,1,.26,2,.43,2.94.6.44.09-.08-.17.35-.17s.09.17.52.26.26-.17.69-.09.26.18.7.26c.26,0,.17,0,.26-.17a2.9,2.9,0,0,1,.34.52c.18.09.61.17.7.35.08,0,.08-.17.08-.35h.26c.18,0,.18.17.35.26,0,.17.17.17.17.43s-.17.09-.17.35a.31.31,0,0,0,.09.26l.08.09.09.09h0v.08l-.09.09-.17.17c-.09.18-.17.26-.26.44-.09,0-.17-.18-.35-.18v.52h-.26c-.26,0-.08-.08-.17-.17s-.09.17-.17.35c-.09,0-.18-.09-.26-.18a1,1,0,0,1-.52-.08l-.26-.09c-.18,0-.35-.09-.52-.09-.78-.08-1.39-.26-1.65-.26a8.12,8.12,0,0,0-1.3-.17C69.14,67.38,69.49,67.55,69.58,67.72Z" fill="#38484e"/>
        </g>
        <circle cx="67.24" cy="45.2" r="1.47" fill="#3a494f"/>
        <circle cx="82.14" cy="45.2" r="1.47" fill="#3a494f"/>
        <path d="M74.17,52,68.1,55.08a.45.45,0,0,0-.22.6.41.41,0,0,0,.05.09,2,2,0,0,0,1.56.95c2,.26,3-2,3-2a2.74,2.74,0,0,0,2.16-.35,2,2,0,0,0,.61-2A.83.83,0,0,0,74.17,52Z" fill="#3a494f"/>
        <g>
          <path d="M75.47,48.14,73.74,51A1.31,1.31,0,0,0,74,52.56l1.47,1.3" fill="#fff"/>
          <path d="M76,51.35c-.09,0-.09-.09-.17-.09a.41.41,0,0,1-.26-.17L75.38,51l.18.09L75.38,51l.26.18-.17-.09.17.09a2.73,2.73,0,0,1-.43-.26,1.17,1.17,0,0,1,.26.17,1.06,1.06,0,0,1-.26-.17h0l.17.09-.17-.09c.15.08.29.17.43.26L75.21,51l.35.17-.18-.09.18.09s-.35-.09-.35-.17l.17.09L75.21,51l.35.17-.18-.09a.31.31,0,0,1,.18.09,1.06,1.06,0,0,0-.35-.09h0c.26.09.26.09.35.09h-.18l.18.09-.35-.09.17.09h-.17a.73.73,0,0,1,.35.09,2,2,0,0,1-.35-.09h0a.73.73,0,0,1,.35.09h-.44a1.29,1.29,0,0,1,.52.08h0a1.24,1.24,0,0,0-.6.09h.43a1.06,1.06,0,0,0-.35.09h.35a2.21,2.21,0,0,0-.35.08h0l.61-.08h0a3,3,0,0,0-.52.08h0a.72.72,0,0,0,.35-.08h0L75,51.7l.35-.08L75,51.7h.17a.69.69,0,0,1-.34.09.67.67,0,0,0,.34-.09h0l-.17.09c-.09,0-.26.09-.35.09h0a1.06,1.06,0,0,1,.35-.09H75a.32.32,0,0,0,.17-.09l-.35.18.35-.18a.26.26,0,0,0-.17.09.28.28,0,0,0,.17-.09,1.29,1.29,0,0,0-.35.18h0a.62.62,0,0,0,.35-.18h0l-.17.09a.28.28,0,0,0,.17-.09l-.35.18.35-.18-.35.18.18-.09-.18.09.35-.18h0A.65.65,0,0,0,75,52l.09.09c.08,0,.17-.09.26-.17-.26.26-.09.6.26.95-.09.09-.18,0-.35.17-.35.35.17.87-.09,1.22L75,54.3c-.18-.08-.7-.43-1-.08-.17.17,0,.26-.08.34-.18-.17-.35-.17-.52-.26s-.44-.08-.61-.26a1.47,1.47,0,0,1-.35-.43l-.08-.09h0l-.18.09.09-.09.09-.17h0c-.09,0-.35.17-.35.09a.32.32,0,0,1,.17-.09v-.09s0-.08-.17,0a.25.25,0,0,1,.17-.08c.09,0,.09-.09.26-.18l-.17.09a.32.32,0,0,1,.17-.09c-.08,0-.08,0-.26.09s-.08.09-.26.09h0a1,1,0,0,0,.26-.17l-.17.08.17-.08s-.17.08-.17,0l.17-.09h-.17c-.09,0-.26.09-.35.09.09,0,.18-.09.35-.09l.09-.17h-.26a.28.28,0,0,0,.17-.09.73.73,0,0,0-.35.09l.18-.09h-.18a1.06,1.06,0,0,1,.35-.09v-.09h-.26l.35-.08H72a1.06,1.06,0,0,1,.35-.09.73.73,0,0,0-.35.09h0c.09,0,.18-.09.35-.09a2.27,2.27,0,0,0-.52.09h0s.17,0,.17-.09h-.17s.17,0,.17-.09h-.17c.09,0,.26-.08.35-.08s0,0,0-.09V52h-.26a1,1,0,0,1,.34-.09h0c0-.08-.34,0-.34-.08a2.27,2.27,0,0,1,.52-.09h-.52v-.09h.34s-.17,0-.17-.08h.17s-.17,0-.17-.09h.35l-.52-.09v-.08h.35a1,1,0,0,1-.35-.09h.34a.67.67,0,0,1-.34-.09h.34L71.92,51h.34l-.17-.09h.17l-.17-.09s.17.09.17,0l-.17-.08h.17l-.17-.09s.17.09.17,0l-.17-.09a1.06,1.06,0,0,1,.35.09.54.54,0,0,0-.35-.09s.17.09.17,0l-.17-.08s.17.08.17,0a.09.09,0,0,1-.08-.09h0s.17,0-.18-.17a.87.87,0,0,0,.26.08,1.14,1.14,0,0,1,.26.09,3.2,3.2,0,0,0-.43-.17h0a.85.85,0,0,0,.35.08l-.18-.08s.18.08.18,0h0c-.09,0-.18-.09-.26-.09L72,50a.25.25,0,0,0,.18.08c.08,0,.17.09.26.09a.31.31,0,0,0-.18-.09s.18.09.18,0L72.26,50a.25.25,0,0,1,.18.08h0L72.35,50h-.09l.18.08L72.26,50l.18.08L72.26,50l.18.08a1.45,1.45,0,0,0-.26-.17l.34.17L72.35,50l.17.08L72.35,50a1.06,1.06,0,0,1,.26.17v-.09L72.44,50l.17.08L72.44,50l.17.08c.09-.17.09-.17-.09-.26a1.41,1.41,0,0,1,.61-.08,1.54,1.54,0,0,1,.69-.44c0-.08-.08-.17-.26-.26l.18-.26c.08-.17.26-.08.34-.17.18.09.26-.09.44,0s0,.17.17.35a.55.55,0,0,0,.6-.09,8.86,8.86,0,0,0,.44.87c-.09.08-.26.08-.35.17l.43.26-.08.17c-.09.17-.09,0-.26,0,0,.09.08.18.26.26a.32.32,0,0,1-.26.09,1.59,1.59,0,0,0-.26.43c-.09.09-.09.17-.18.17s0,0-.08,0h-.09v.09C75.73,51.18,75.82,51.26,76,51.35Z" fill="#38484e"/>
        </g>
        <path d="M76.16,52l6.15,3.12a.45.45,0,0,1,.23.6.41.41,0,0,1-.05.09,2,2,0,0,1-1.56.95c-2,.26-3-2-3-2a2.74,2.74,0,0,1-2.16-.35,2,2,0,0,1-.61-2,.71.71,0,0,1,.89-.46Z" fill="#3a494f"/>
      </g>
      <g>
        <g>
          <path d="M90.46,31.42H59.61V13.83A5.44,5.44,0,0,1,65,8.38H84.91a5.42,5.42,0,0,1,5.46,5.41V31.42Z" fill="#27c1ae"/>
          <path d="M85.69,33.5a2.59,2.59,0,0,0-.78-.17c-.08-.09-.08-.26-.17-.26-.43,0-.78-.17-1.21-.17s-.09.17-.52.17-.26-.17-.61-.17-.87.34-1.3.34-.09-.17-.52-.17-.26.17-.61.17a1.91,1.91,0,0,1-1-.52,12.26,12.26,0,0,1-2.33.35c-.78,0-.52-.26-1.22-.35h-.26c-.43,0-.26.18-.6.18s-.26-.18-.61-.18a1,1,0,0,0-.69.52,10.52,10.52,0,0,0-1.74-.6c-.43,0-1.38.34-1.81.34s-.09-.17-.52-.17-.44.17-.78.17c-.87,0-.09-.34-.61-.34s-.09.17-.52.17-.61-.17-.95-.17-2,.34-2.43.34-1-.17-1.47-.17a2.07,2.07,0,0,0-.7.09c-.43,0-.86.09-1.12.09s-.35-.18-.26-.35H58.49a.09.09,0,0,1-.09-.08h0V30.3c-.26.34-.26.6-.35.6a7.06,7.06,0,0,0,.18-1.12v-.44c0-.08,0-.08-.09-.17a1.57,1.57,0,0,1-.09-.43c0-.44.35-1,.35-1.48s-.17-.43-.17-.78.17-.26.17-.6a1.35,1.35,0,0,0-.35-.87c.09-.26.35,0,.35-.43s-.17.09-.17-.35.17.09.17-.34-.17.08-.17-.35.17-.09.17-.52-.17-.61-.17-.95,0-.61.17-.78c0-.09-.17-.18-.35-.26,0-.26.18-.26.18-.61s-.18-.43-.18-.78.18-.87.18-1.3-.18-.87-.18-1.3a.85.85,0,0,1,.18-.61A21.74,21.74,0,0,1,58.31,14c.09-.09.18.17.18-.26,0-.26-.09-.69-.09-1.21A8.08,8.08,0,0,1,58.49,11a2.67,2.67,0,0,1,.34-.7c.09,0-.08.44,0,.87a5.28,5.28,0,0,1,.61-1.21c.26-.35,0-.26.35-.7s.6-.43,1-.78.17-.34.6-.6.18.08.61-.18a6.69,6.69,0,0,1,1-.6,3.87,3.87,0,0,1,1.13-.18h1.12c.35,0,1,.09,1.21-.17.26.09.61.17.7.35.43,0,.52.09.52-.09s-.35-.09-.26-.26a3.66,3.66,0,0,0,1.21.35c.09,0,.87-.18,1-.52h.6c0,.17.35.34.44.52.08,0,.17-.18.26-.35a3,3,0,0,0,1.13.35c.43,0,1-.35,1.47-.35s.26.17.61.17.34-.08.34-.17c.26.09,0,.35.44.35s-.09-.18.34-.18.44.18.78.18c.7,0,.87,0,1-.52h.61a.65.65,0,0,0,.52.52c.43,0-.09-.18.35-.18s-.09.18.34.18.61-.26.87-.35a3.1,3.1,0,0,1,.86,0c.35,0,2,.35,2.43.35,1.39,0,.95-.35,1.65-.35a1,1,0,0,1,.6.17,5.44,5.44,0,0,0,1.3.35,9.62,9.62,0,0,0,1.48.52A4,4,0,0,1,89.5,9.16a.39.39,0,0,0,.44,0,2.17,2.17,0,0,1,.43.52c.35.43.17.43.35.78,0,.17-.18.17-.18.34l.26.52c.18.44.26.26.52.44a6.4,6.4,0,0,1,.35,1.3c.09.17.17-.18.17.34a4.63,4.63,0,0,1-.34,1.65c0,.17.17.26.34.26a4,4,0,0,0-.17,1.13,5.52,5.52,0,0,0,.17,1.21c0,.17-.17.26-.34.26v.87c.08.17.26.08.34.17v.86c0,.44-.17.18-.17.61s.09.52.17.52c-.26,1.13-.34.43-.34,1.56a14.21,14.21,0,0,0,.34,1.82c0,.43-.34.69-.34,1.12s.17.09.17.52-.17-.26-.17.18a8.81,8.81,0,0,0,.34,1.9v.44c0,.17-.08.43-.08.69s-.18.52-.26.52V30a.52.52,0,0,0,.34.09,1.1,1.1,0,0,0-.52.95c-.08,0-.08-.17-.34-.17-.52,0-.61.69-1,.69-.17,0-.17,0-.26-.09s-.17-.78-.52-.78c-.17,0-.17.18-.34.18,0-.52-.35-.61-.35-.87,0-.09.09-.17.09-.35a.34.34,0,0,0,.08-.26v-.26c0-.43-.17-.6-.17-.95s.09-.09.17-.26c0-.61.18-1.56.18-2a4.52,4.52,0,0,0,0-1,2.53,2.53,0,0,1-.35-1c0-.43.09-.08.17-.26V22.41a8.05,8.05,0,0,0-.17-1.9c.09,0,.17.17.26.26s.17-.35.26-.44-.17-.08-.17-.52.08-.26.17-.43c-.09-.26-.09-.52-.26-.52s-.17.35-.26.26v-.95a1.18,1.18,0,0,0,.35-.87c0-.43-.18.09-.18-.35s.18.09.18-.34-.18-.26-.18-.61.18-.43.18-.78a9.08,9.08,0,0,0-.18-1.47c-.08-.17-.26-.26-.34-.43.08-.09.26.17.34.17a3.81,3.81,0,0,0-.34-1.56c-.18-.26-.35-.52-.52-.52h0c-.18-.26,0-.17,0-.26s-.18,0-.35.09c-.09-.09.09-.18-.17-.35s-.09,0-.18.09c-.08-.09-.08-.26.09-.44a8.33,8.33,0,0,0-1.73-.69c0-.09.17-.09-.17-.17H85c-.17,0-.35.08-.52.08a2.3,2.3,0,0,1-1,.35c-.43,0-.61-.35-1-.35s.08.18-.35.18a1.38,1.38,0,0,1-1-.35c-.09,0-.18.17-.26.35h-.61c0-.09-.35-.18-.43-.35a1,1,0,0,0-.61.52h-.61c0-.09.35-.17.35-.26-.17-.09.09-.09-.35-.09s-.69.35-1.12.35-.26-.17-.61-.17-.26.17-.6.17-.09-.17-.52-.17-.35,0-.35.17c-.26-.09-.43-.26-.69-.35a6.22,6.22,0,0,0-1.22,0H72.35c-.17,0-.26.18-.52.26h-.26a1.29,1.29,0,0,1-.78-.34c-.08-.09-.26,0-.69,0-1.38,0-.95.34-1.64.34-.52,0-.61-.34-1.22-.52h-.43c-.09.09-.09,0-.09.18s.35.17.26.34H65.77c-.44,0-.44-.17-.78-.17a.78.78,0,0,0-.61.26c0-.09.26-.17.26-.26s.09-.09-.26,0-.17.17-.43.26-.26-.09-.52,0a3.52,3.52,0,0,0-.61.61c-.26.17-.43.08-.69.34s.17.09,0,.26-.18-.08-.35.18.09.17-.09.43a.88.88,0,0,1-.6.43c0,.26-.09.44.08.44s.18-.18.26-.18c-.08.35-.26.35-.34.61.08.35.17.26.26.35a1.56,1.56,0,0,0-.35.95c0,.43.17.6.17.86s-.17.18-.34.61h.52v1.21c-.09,0-.18.35-.35.44a6.16,6.16,0,0,1,.35,1.64,1.59,1.59,0,0,1-.35,1c0,.08.17.17.35.26A14.12,14.12,0,0,0,61,22.93c0,.52,0,.52.35.52v.87c0,.43-.35.95-.35,1.38s.17.26.17.61S61,27,61,27.44s.17.6.17.95-.17-.09-.17.35c0,.17.09.26.09.34l.08.09v.17c0,.09-.17.18-.17.35s.17,0,.17.09S61,29.86,61,30c.09,0,.26-.18.35-.18s.08.18.17.35c.09,0,.09-.17.17-.35V30h.18c.43,0-.09-.18.34-.18s-.08.18.35.18.17-.09.26-.18c.35-.08,1.3.18,1.56-.17.17,0,.26.17.35.26a2.4,2.4,0,0,0,1,.26c.26,0,.52-.26.69-.52h.87a.79.79,0,0,0,.69.35c.43,0,.09-.18.52-.18s.61.18,1,.18h.7c.17-.09.08-.26.17-.26s.61-.09,1.13-.18c0,.09-.18.18-.26.26s.34.18.43.26a3.33,3.33,0,0,1,1-.17c.43,0,.61.17,1,.17s-.08-.17.35-.17.09.09.26.17H75A3.85,3.85,0,0,0,76.16,30V30c.43,0,.17.17.52.17s.26-.17.61-.17.26.17.6.17S78,30,78.41,30s.26.17.61.17a1.14,1.14,0,0,0,.87-.34,4.06,4.06,0,0,0,1.38.34c.43,0,.26-.17.61-.17s.08.17.52.17.34,0,.34-.17c.26,0,.26.17.26.35h2.78c.43,0-.09-.18.34-.18s.09.18.52.18.26-.18.61-.18.26.18.61.18.17-.09.17-.18a.89.89,0,0,1,.43.52c.26.09.61.18.69.35.09,0,.09-.17.09-.35h.26c.17,0,.17.18.35.18,0,.17.17.17.17.34s-.17.09-.17.35.17.35.35.43a6.45,6.45,0,0,0-.52.87c-.09,0-.18-.17-.35-.17v.52h-.26c-.17,0-.09-.09-.17-.18s-.09.18-.09.35c-.09,0-.17-.09-.26-.17a1.14,1.14,0,0,1-.52-.09h-.69A10.81,10.81,0,0,0,86,33a4.28,4.28,0,0,0-1.13.09A8.79,8.79,0,0,1,85.69,33.5Z" fill="#38484e"/>
        </g>
        <g>
          <path d="M94,37.23H56.06a2,2,0,0,1-2-1.93V32.38a2,2,0,0,1,1.93-2H93.92a2,2,0,0,1,2,1.93v2.93a1.9,1.9,0,0,1-1.79,2Z" fill="#27c1ae"/>
          <path d="M89.42,39.31a1.69,1.69,0,0,0-.7-.18c-.08-.08-.08-.26-.17-.26-.43,0-.69-.17-1-.17s-.09.17-.43.17-.26-.17-.61-.17-.78.35-1.21.35-.09-.17-.43-.17-.26.17-.61.17-.69-.35-1-.52a10.67,10.67,0,0,1-2.17.35c-.69,0-.43-.26-1.12-.35H79.8c-.34,0-.26.17-.6.17s-.26-.17-.61-.17a.72.72,0,0,0-.61.52,5.85,5.85,0,0,0-1.47-.52c-.43,0-1.21.34-1.65.34s-.08-.17-.43-.17-.35.17-.78.17c-.78,0-.09-.34-.61-.34-.34,0-.08.17-.43.17s-.52-.17-.86-.17-1.82.34-2.26.34-.95-.17-1.3-.17a4.94,4.94,0,0,0-1.21.09c-.17,0-.26-.17-.26-.35H64.29c.18.26.35.26.35.35-.17,0-.17-.17-.61-.17s-.34.17-.78.17-1-.35-1.3-.35-.34.17-.78.17-.26-.17-.6-.17a1.09,1.09,0,0,0-.78.35c-.18-.09,0-.35-.35-.35s.09.17-.26.17.09-.17-.26-.17.09.17-.26.17-.09-.17-.52-.17-.52.17-.87.17-.6,0-.69-.17c-.09,0-.17.17-.17.35a.31.31,0,0,1-.26-.09,2.1,2.1,0,0,1-.61-.09,2.67,2.67,0,0,1-1.21-.26A3.63,3.63,0,0,1,53,36.8a8.26,8.26,0,0,1-.43-1,3.11,3.11,0,0,1-.09-.86c0-.35.09-.44.17-.52V32.2c.09-.08.09.26.18-.34a6.57,6.57,0,0,1,.34-1.39A4.13,4.13,0,0,1,54.42,29a1.53,1.53,0,0,1,.86-.26c.09.08-.52.26-.86.6a1.7,1.7,0,0,1,.86-.26c.17,0,.26-.08.43-.08h.44c.34,0,.17-.18.52-.18s.52.18.86.18.26-.18.61-.18.09.18.43.18.52-.18.87-.18,1.21.18,1.64.18c.26,0,.87.08,1.13-.18.17.09.52.18.61.35.43,0,.52.09.52-.09s-.26-.08-.26-.26a2.77,2.77,0,0,0,1.12.35c.09,0,.78-.17,1-.52h.52c0,.17.34.35.43.52.09,0,.17-.17.26-.35a2.15,2.15,0,0,0,.95.35c.35,0,1-.35,1.3-.35s.26.18.61.18.26,0,.34-.18c.26.09,0,.35.44.35s-.09-.17.26-.17.34.17.78.17c.6,0,.78,0,1-.52h.52c0,.17.26.52.43.52.35,0-.08-.17.26-.17s-.08.17.26.17.52-.26.78-.35a2.54,2.54,0,0,1,.78,0c.35,0,1.82.35,2.26.35,1.3,0,.86-.35,1.47-.35s.17.35,1.47.35c.35,0,.78-.17,1.22-.17a3.64,3.64,0,0,1,1.38.34c.09,0,.17-.17.26-.34h.52c.35,0,.35.17.61.17.08.09.08.26.17.35h.43c.35,0,.26-.18.44-.35a4.57,4.57,0,0,0,1-.09c.17-.08-.09-.17.26-.17a3.9,3.9,0,0,1,1.38.35c.09,0,.18-.18.26-.35a2.85,2.85,0,0,0,1,.17,4.74,4.74,0,0,0,1.12-.17c.17,0,.26.17.26.35h.78a.54.54,0,0,0,.09-.35h.78c.35,0,.17.17.52.17s.43,0,.43-.17a2,2,0,0,1,.78.26c.17.09.35.09,1,.35a3.92,3.92,0,0,1,1.3.78,9.2,9.2,0,0,1,.69.78,1.4,1.4,0,0,1,0,.86c0,.18-.08.26-.08.44s-.09.17-.09.26c0,.34.17.08.17.43s-.17-.09-.17.26a7.81,7.81,0,0,0,.35,1.73v.52a1.86,1.86,0,0,1-.35,1c-.17.26-.43.52-.61.52l-.26.26a.47.47,0,0,0,.18.35,4.91,4.91,0,0,0-1.56.35c-.09-.09.17-.17.09-.35s-.35-.35-.52-.43-.35-.17-.35-.43v-.26c.09,0,.52-.26.35-.61-.09-.17-.18-.17-.18-.26s-.08-.35-.08-.35.17.09.17,0a.09.09,0,0,0-.08-.08h-.1v-.09c0-.35.09-.09.18-.26,0-.61.17-1.47.17-1.82v-.69l-.09-.09c-.08-.09-.34,0-.34,0l.08-.09a.08.08,0,0,0-.08-.08h-.52c-.18,0-.35.08-.52.08,0-.08.17-.17.26-.26s-.26-.17-.44-.26-.08.18-.52.18-.26-.09-.34-.18c.08.09-.18.09-.18.26s.26.18.26.26h-.86a1.12,1.12,0,0,0-.78-.34c-.35,0,.08.17-.26.17s.08-.17-.26-.17S89.33,32,89,32s-.35-.17-.78-.17a9.13,9.13,0,0,0-1.38.17c-.26.09-.44.26-.7.35-.08-.09.26-.18.26-.35-.69,0-1.73-.17-2.08-.17a3,3,0,0,0-1,.08V32c-.43,0-.17-.09-.26-.17s-.17.17-.17.35c-.18,0-.09-.18-.44-.18s-.17.09-.17.18c-.17,0-.26-.18-.26-.35H79.71c-.09-.09.17-.17-.17-.17S78.15,32,77.8,32s-.52-.34-.86-.34.08.17-.26.17a1.35,1.35,0,0,1-.87-.35c-.09,0-.17.17-.17.35h-.52c0-.09-.35-.17-.43-.35a.92.92,0,0,0-.52.52h-.52c0-.09.26-.17.26-.26-.18-.09.08-.09-.26-.09s-.7.35-1,.35-.26-.17-.61-.17-.26.17-.61.17-.08-.17-.43-.17-.26,0-.35.17c-.26-.09-.43-.26-.69-.35a4.52,4.52,0,0,0-1,0H67.76c-.18,0-.26.18-.52.26h-.18c-.34,0-.52-.26-.69-.34s-.26,0-.6,0c-1.22,0-.87.34-1.48.34s-.52-.34-1.12-.52h-.44c-.08.09-.08,0-.08.18s.26.17.26.34h-1c-.35,0-.35-.17-.78-.17a1.89,1.89,0,0,0-.78.17c-.09-.08.26-.17.26-.26-.18-.08.08-.08-.26-.08s-.26.17-.61.17-.26-.17-.61-.17-.69.17-1,.17-.52-.17-.86-.17.09.17-.26.17-.09-.17-.43-.17-.18.17-.26.17-.26-.17-.35-.26c-.09.09-.17.17,0,.35s.17.08.17.17-.17-.09-.26,0,0,.09.09.17a.31.31,0,0,0-.26.09.09.09,0,0,0-.09.08h0v.26c0,.34.17.52.17.78s-.17.17-.34.52h.52v1.12a1.1,1.1,0,0,1-.44.26,4.07,4.07,0,0,0,.44.18v.43a.47.47,0,0,0,.08-.35.09.09,0,0,0,.09.09h0a.39.39,0,0,1,.26.09c.26,0,.43.08.61.08a4.31,4.31,0,0,0,1,.09c.52,0,.52,0,.43-.35h.78c.35,0,.87.35,1.3.35s.26-.17.61-.17.69.17,1,.17.52-.17.87-.17-.09.17.26.17.26-.17.6-.17.52.17.87.17.26-.17.6-.17-.08.17.26.17.26-.17.61-.17a1.34,1.34,0,0,1,.87.34c.08,0,.17-.17.17-.34.17,0,.09.17.43.17s-.09-.17.26-.17-.09.17.26.17.17-.09.26-.17c.26-.09,1.13.17,1.39-.18a.29.29,0,0,1,.26.26,2.38,2.38,0,0,0,.86.26.73.73,0,0,0,.61-.52h.87c.17.18.26.35.6.35s.09-.17.43-.17.52.17.87.17h.61c.17-.09.08-.26.17-.26s.52-.09,1-.17c0,.09-.17.17-.26.26s.26.17.43.26a2.85,2.85,0,0,1,1-.17c.34,0,.52.17.86.17s-.09-.17.26-.17.09.08.26.17h.78a3,3,0,0,0,1-.09v-.09c.44,0,.09.18.52.18s.26-.18.61-.18.26.18.61.18.08-.18.43-.18.26.18.61.18a1.13,1.13,0,0,0,.78-.35,3.07,3.07,0,0,0,1.3.35c.43,0,.26-.18.6-.18s.09.18.43.18.26-.09.35-.18.26.18.26.35h2.51c.35,0-.08-.17.26-.17s.09.17.44.17.26-.17.6-.17.26.17.61.17.17,0,.17-.17a.9.9,0,0,1,.44.52c.26.09.6.17.69.35.09,0,.09-.18.09-.35h.6c.17,0,.17.17.35.17,0,.17.17.17.17.35s-.17.09-.17.35.17.34.35.43a7,7,0,0,0-.52.86c-.09,0-.18-.17-.35-.17v.52h-.26c-.17,0-.09-.09-.17-.17s-.09.17-.09.35c-.09,0-.17-.09-.26-.18a1,1,0,0,1-.52-.08h-.69a7.11,7.11,0,0,0-1.3-.09,3.63,3.63,0,0,0-1,.09A2.39,2.39,0,0,1,89.42,39.31Z" fill="#38484e"/>
        </g>
      </g>
    </g>
  </g>
</svg>
