<svg xmlns="http://www.w3.org/2000/svg" viewBox="0 0 150 190">
  <g>
    <g>
      <path d="M137,187.53H12.84A10.81,10.81,0,0,1,2,176.72H2v-122A10.73,10.73,0,0,1,12.7,43.88a.33.33,0,0,1,.14,0H137a10.8,10.8,0,0,1,10.81,10.8h0v122A10.81,10.81,0,0,1,137,187.53Z" fill="#fff"/>
      <path d="M120.76,190c-1.24-.1-2.78-.21-4.53-.21-.52-.1-.31-.3-1.14-.3-2.67,0-4.42-.21-6.69-.21s-.41.21-2.78.21-1.34-.21-3.6-.21-5,.41-7.31.41-.41-.2-2.78-.2-1.34.2-3.6.2a41.24,41.24,0,0,1-6-.62c-3.4.21-10.92.42-13.18.42-4.43,0-2.89-.31-7-.42H60.93c-2.27,0-1.34.21-3.6.21s-1.34-.21-3.6-.21a12.07,12.07,0,0,0-3.91.62c-3.2-.2-6.6-.62-8.86-.62s-7.72.42-10.09.42-.41-.21-2.78-.21-2.27.21-4.53.21c-4.64,0-.42-.42-3.6-.42-2.27,0-.42.21-2.78.21a23.41,23.41,0,0,1-2.78-.1c-.83-.1-1.55-.1-2.89-.21a13.74,13.74,0,0,1-3.09-.72,10.88,10.88,0,0,1-4-2.37,10.84,10.84,0,0,1-2.88-3.7c-.31-.62-.52-1.24-.73-1.75a7.85,7.85,0,0,1-.3-1.34,3.63,3.63,0,0,0-.21-1v-1.14a17.09,17.09,0,0,1,.1-2.26c0-1.44.1-3,.1-4.12,0-2.27-.1-5.77-.21-7.62,0-1,.21-1.44.42-1.34V146.75c-.31,1-.31,2-.42,1.75,0-1.24.21-1.24.21-3.5s-.42-2.27-.42-4.53.41-6,.41-8.24S.27,130,.27,127.7s.21-1.34.21-3.6a29.49,29.49,0,0,0-.41-5c.1-1.34.41-.1.41-2.37s-.21.41-.21-1.85.21.41.21-1.86-.21.42-.21-1.85.21-.42.21-2.78-.21-3.19-.21-5.46a20.83,20.83,0,0,1,.21-4.32c0-.72-.21-1.14-.41-1.24,0-1.24.2-1.24.2-3.5s-.2-2.27-.2-4.53.2-5.05.2-7.31-.2-5-.2-7.31a15.79,15.79,0,0,1,.2-3.3c0-4.43,0-9.07.1-13.49.1-.52.21.82.21-1.45V54a11.3,11.3,0,0,1,.62-3.6A9,9,0,0,1,3,46.77a21.16,21.16,0,0,1,2.58-2.69,13,13,0,0,1,3.39-1.65,3.4,3.4,0,0,1-1.13.62A8.28,8.28,0,0,0,5.42,44.7a12.47,12.47,0,0,1,7.31-2.47c2.27,0,1-.21,3.3-.21s3.2.21,5.46.21,1.34-.21,3.6-.21.41.21,2.78.21,3.2-.21,5.46-.21,7.83.21,10.09.21a48.25,48.25,0,0,0,6.8-.21,36,36,0,0,1,4,.41c2.47,0,3,.1,3-.1s-1.85-.1-1.54-.31c2.36.21,4.73.41,7,.41.61,0,4.94-.2,5.66-.61h3.4a15.3,15.3,0,0,0,2.68.61A2.38,2.38,0,0,0,75.86,42c2.37.21,3.81.41,6.08.41s6-.41,8.23-.41,1.34.21,3.6.21,1.86,0,2.06-.21c1.45.1.21.41,2.48.41s-.42-.2,1.85-.2,2.27.2,4.53.2c4,0,4.94,0,5.66-.61h3.4a5.57,5.57,0,0,0,2.89.61c2.26,0-.41-.2,1.85-.2s-.41.2,1.86.2,3.4-.31,5-.41c1.34-.1,2.78,0,5,0,1.13,0,4,.1,6.9.21a10.46,10.46,0,0,1,4.53,1,13.21,13.21,0,0,1,2.68,1.54,14.08,14.08,0,0,1,3.3,3.5c.3.41.51.83.72,1.14a3.5,3.5,0,0,1,.41.82,4.22,4.22,0,0,1,.51,1.24,6.63,6.63,0,0,1,.42,2.16,6,6,0,0,1,0,1.34v.82c0,.41-.1.72-.1,1.13A51.31,51.31,0,0,0,149.6,63c0,2.27.21,5,.21,7.32s-.21,6.17-.42,8.85c0,.83.21,1.24.42,1.34v3.09c0,2.27-.21,1.85-.21,3.6-.1.51-.31.41-.41,1.13v2.59c0,2.26.2,1.44.41,2.78,0,1.75,0,4.53.1,6.28.1.82.21-.72.21,1.54s-.21,6.18-.42,8.86a2.48,2.48,0,0,0,.42,1.54c-.1,1.45-.21,3.81-.21,6.08s.1,4.84.21,6.8c0,1-.21,1.44-.42,1.34v5c.1.72.31.62.42.72v4.74c0,2.27-.21,1-.21,3.3s0,2.78.21,3c-.31,6.49-.42,2.57-.42,9,0,4,.42,8.75.42,10.09,0,2.26-.42,4.12-.42,6.38s.21.42.21,2.78-.21-.41-.21,1.86v5a12.74,12.74,0,0,1-1.75,6,3.3,3.3,0,0,0-.31.51,8.3,8.3,0,0,1-1.23,1.55,13.3,13.3,0,0,1-3.6,2.37c-.31.1-.62.2-1,.3a3,3,0,0,1-.93.21c-.21,0-.31.1-.41.1h-.72c-.1.1,0,.31,0,.41a2,2,0,0,0-1.44-.51c0-.1.2-.1.2-.41-.1-.62-.93-.62-.82-1.14,0-.2,0-.2.1-.31s.92-.2.82-.72c0-.2-.2-.2-.2-.41.51,0,.51-.51.72-.51a.37.37,0,0,1,.31.1h.1l.61-.1a6,6,0,0,0,1.24-.42,9.6,9.6,0,0,0,1.85-1.23c.42-.52.93-.93,1.45-1.65.92-1.55.41-.41.82-.93a10.44,10.44,0,0,0,.82-2.16,5.19,5.19,0,0,0,.21-1.24v-1.54c.1-2.06.1-4,.1-5.15,0-2.27.1-4.22,0-5.66s-.41-3-.41-5.26.1-.72.2-1.54V152c0-2.26,0-6.69-.2-10.71.1-.2.2.83.31,1.65.14-.85.25-1.71.31-2.57a23,23,0,0,1-.21-3,6,6,0,0,1,.21-2.37c-.1-1.54-.1-3.08-.31-3.08s-.21,1.85-.31,1.64v-5.15a23.6,23.6,0,0,0,.41-4.74c0-2.27-.21.41-.21-1.86s.21.42.21-1.85-.21-1.34-.21-3.6.21-2.27.21-4.53-.1-6.08-.21-8.44c-.1-1.65-.31-2.58-.41-4,.1-.31.21,1.54.41,1.65,0-4.22.21-10.61.21-12.87s0-4.64-.1-6.08h-.1c0-2.57.1-1,.21-1.85S146.2,79,146,78.89a22.43,22.43,0,0,0,.21-2.58c0-2.26-.1-.92-.21-1,0-1.23.21-1.65.42-1.54V59.42c.1-.41.2.93.2-1.33a20.68,20.68,0,0,0-.1-2.37,10.76,10.76,0,0,0-.41-2.58,10.72,10.72,0,0,0-2.37-3.81,20,20,0,0,0-1.65-1.54,6.86,6.86,0,0,0-2-1.13c-.93-.21-.83-.21-.72-.1s.2.1-.72,0a1.93,1.93,0,0,1-.72-.1,2.26,2.26,0,0,1-.73-.1c-.51,0-1-.1-1.54-.1a20.47,20.47,0,0,1-2.06-.31c-.72,0-1.13.2-1.24.41H129c-.1-.1-1.85-.21-2.57-.41a10.2,10.2,0,0,0-3.19.61h-3.4c-.1-.1,1.75-.2,1.75-.3-.83-.1.41-.1-1.86-.1s-4.11.41-6.38.41-1.34-.21-3.6-.21-1.34.21-3.6.21-.41-.21-2.78-.21-1.85.1-2.06.21c-1.34-.1-2.68-.21-4.12-.41s-4.32,0-6.59,0h-6.7c-1,0-1.65.2-3,.3H79.67a31.32,31.32,0,0,1-4.43-.41c-.62-.1-1.54,0-3.81,0-7.72,0-5.35.41-9.16.41-3,0-3.4-.41-7-.61H52.79c-.72.1-.61,0-.61.2s1.85.21,1.64.41H47.23c-2.26,0-2.37-.2-4.63-.2s-3.3.1-4.74.2c-.31-.1,1.55-.2,1.55-.3-.83-.1.41-.1-1.86-.1s-1.34.2-3.6.2-2-.72-4.22-.72-4.12.21-6.38.21-3.2-.21-5.46-.21.41.21-1.86.21-.41-.21-2.78-.21a2.4,2.4,0,0,0-1,.1c-.2,0-.2.1-.2.1s-.21.1-1.14.31a9,9,0,0,0-2.47.72c-.72.3-1.34.61-1.54.71-1,.82-1.75,2-1.55,2.06s.42-.21.62-.52.52-.51.52-.41a11.23,11.23,0,0,0-1.55,2,9.35,9.35,0,0,0-.83,1.75c-.41,1.85-.2,1.54-.1,1.75s-.1.51-.1.72a2.08,2.08,0,0,1-.1.82c0,.52-.1,1-.1,1.44a29,29,0,0,0-.1,3.09c0,2.27.21,3.19.21,5,0,.93-.21,1.13-.41,3.4H4v7c-.1.1-.21,1.85-.42,2.57.21,2.37.42,7.21.42,9.48a27.16,27.16,0,0,1-.43,5.25A1.84,1.84,0,0,0,4,94.23c-.2,4.12-.41,11.23-.41,13.49,0,3.09,0,3,.41,2.88v4.74c0,2.27-.41,5.56-.41,7.93s.2,1.34.2,3.6-.2,4.12-.2,6.39.2,3.19.2,5.46-.2-.41-.2,1.85.2,1.34.2,3.6-.2,3.19-.2,5.46.2,1.34.2,3.6-.2-.41-.2,1.85.2,1.34.2,3.6a26.38,26.38,0,0,1-.41,5.25c0,.73.21,1.14.41,1.24a24.49,24.49,0,0,0-.2,2.57c0,2.27.2-.41.2,1.86s-.2-.41-.2,1.85.1,1,.2,1.44v4.23a6,6,0,0,0,1.14,3.4A3.88,3.88,0,0,1,5.42,182a3.07,3.07,0,0,0,.52.72c.2.31.41.51.62.82a8.44,8.44,0,0,0,2.06,1.55,4.51,4.51,0,0,0,3.19.31h4.94a14,14,0,0,0,3.81.41c2.27,0,.41-.21,2.78-.21s3.19.21,5.46.21h3.91c.83-.1.72-.31,1.13-.31.93,0,3.2-.1,6.6-.21.2.1-.83.21-1.65.31,0,.1,1.85.21,2.47.31,1.44-.1,3.5-.2,5.77-.2s3.19.2,5.45.2-.41-.2,1.86-.2.72.1,1.54.2h4.84c2.27,0,4.64,0,6.08-.1v-.1c2.57,0,.72.21,3.09.21s1.34-.21,3.6-.21,1.34.21,3.6.21.41-.21,2.78-.21,1.34.21,3.6.21a28.23,28.23,0,0,0,4.94-.41c2.27.2,5.56.41,7.83.41s1.34-.21,3.6-.21.41.21,2.78.21,1.85,0,1.95-.21c1.24,0,1.65.21,1.55.41h15.67c2.26,0-.41-.2,1.85-.2s.41.2,2.78.2,1.34-.2,3.6-.2,1.34.2,3.6.2H134v-.2a1,1,0,0,1,.52.62c.31.1.72.2.82.41.1,0,.1-.21.1-.41h.31c.21,0,.21.2.41.2,0,.21.21.21.21.41s-.21.1-.21.42.21.41.42.51a9.07,9.07,0,0,0-.62,1c-.1,0-.21-.2-.41-.2v.61h-.31c-.21,0-.1-.1-.21-.2s-.1.2-.1.41c-.1,0-.2-.1-.31-.21a1.21,1.21,0,0,1-.62-.1h-2.78c-3.6,0-6.69-.1-7.82-.1-2.27,0-4.84,0-6.39.1C118.39,189.69,120.14,189.9,120.76,190Z" fill="#3a494f"/>
    </g>
    <g>
      <g>
        <path d="M133.63,178.78H16.13a5.28,5.28,0,0,1-5.25-5.26V58a5.28,5.28,0,0,1,5.25-5.25h117.5A5.28,5.28,0,0,1,138.89,58V173.52A5.29,5.29,0,0,1,133.63,178.78Z" fill="#fff"/>
        <path d="M118.9,181.14c-1.13-.1-2.47-.2-4-.2-.41-.1-.31-.31-1-.31-2.37,0-3.91-.21-6-.21s-.42.21-2.48.21-1.23-.21-3.3-.21-4.42.42-6.48.42-.42-.21-2.47-.21-1.24.21-3.3.21a35.77,35.77,0,0,1-5.36-.62c-3,.2-9.68.41-11.74.41-3.91,0-2.57-.31-6.18-.41H65.46c-2.06,0-1.24.2-3.3.2s-1.24-.2-3.3-.2a9.3,9.3,0,0,0-3.5.62c-2.78-.21-5.87-.62-7.83-.62s-6.9.41-9,.41-.41-.21-2.47-.21-2.06.21-4,.21c-4.12,0-.41-.41-3.3-.41-2.06,0-.41.2-2.47.2s-2.89-.2-4.84-.2a22.57,22.57,0,0,0-2.47.1,10.34,10.34,0,0,0-1.76.1H15.19a7.5,7.5,0,0,1-4.32-1.86A7.79,7.79,0,0,1,9,175.78a7.22,7.22,0,0,1-.31-2.26,11.65,11.65,0,0,1,.1-2c.1-1.34.1-2.68.1-3.6,0-2.06-.1-5.15-.21-6.8,0-.93.21-1.34.41-1.24V146.75c-.31.82-.31,1.75-.41,1.54,0-1.13.21-1.13.21-3.08s-.21-2.06-.21-4,.41-5.25.41-7.31-.2-2.06-.2-4,.2-1.23.2-3.3A28.57,28.57,0,0,0,9,122c.1-1.13.41-.1.41-2.06s-.2.41-.2-1.65.2.42.2-1.64-.2.41-.2-1.65.2-.41.2-2.47-.2-2.89-.2-4.84a17.75,17.75,0,0,1,.2-3.92c0-.61-.2-1-.41-1.13,0-1.13.21-1.13.21-3.09S9,97.52,9,95.57s.21-4.43.21-6.49S9,84.65,9,82.59a13.64,13.64,0,0,1,.21-3c0-4,0-8,.1-11.94.1-.41.2.72.2-1.34,0-1-.1-2.88-.2-4.94-.1-1-.1-2.06-.21-3.09v-.93a3.57,3.57,0,0,1,.1-1,5.16,5.16,0,0,1,.62-1.75,7.93,7.93,0,0,1,2.7-2.88c.1,0-.41.31-.93.93A5,5,0,0,0,9.85,55.2a6.9,6.9,0,0,1,6.28-4.12c2.06,0,.93-.2,3-.2s2.88.2,4.84.2,1.23-.2,3.3-.2.31.2,2.37.2,2.88-.2,4.84-.2,6.9.2,9,.2a56,56,0,0,0,6.07-.2,24.05,24.05,0,0,1,3.5.41c2.27,0,2.68.1,2.68-.1s-1.65-.1-1.34-.31c2.06.21,4.22.41,6.28.41.52,0,4.33-.2,5.05-.62h3a12.16,12.16,0,0,0,2.37.62,1.76,1.76,0,0,0,1.24-.41,47.42,47.42,0,0,0,5.46.41c2.06,0,5.25-.41,7.31-.41s1,.21,3.09.21,1.64,0,1.85-.21c1.24.1.21.41,2.16.41s-.41-.2,1.65-.2,2.06.2,4,.2c3.6,0,4.32,0,5-.62h3a4.63,4.63,0,0,0,2.57.62c2.06,0-.41-.2,1.65-.2s-.41.2,1.65.2a38.8,38.8,0,0,0,4.43-.41c1.23-.1,2.47,0,4.53,0s10.19.41,12.15.41a10.07,10.07,0,0,1,2.57.21,16.22,16.22,0,0,1,1.86.72A7.54,7.54,0,0,1,139,53.56a3.73,3.73,0,0,1,.82,1,7,7,0,0,1,.83,2.06,8.64,8.64,0,0,1,.1,1.44v.72c0,.41-.1.62-.1,1a36.91,36.91,0,0,0-.21,5.36c0,2.06.21,4.42.21,6.48s-.21,5.46-.42,7.83c0,.72.21,1.13.42,1.24v2.67c0,2.06-.21,1.65-.21,3.2-.1.41-.31.3-.41,1v2.27c0,2.06.2,1.34.41,2.47,0,1.55,0,4,.1,5.56.1.72.21-.62.21,1.34s-.21,5.46-.42,7.83a1.87,1.87,0,0,0,.42,1.34c-.1,1.23-.21,3.4-.21,5.46s.1,4.32.21,6c0,.93-.21,1.34-.42,1.23v4.43c.1.62.31.52.42.62v4.21c0,2.06-.21.93-.21,3s.1,2.47.21,2.57c-.31,5.77-.42,2.27-.42,7.93,0,3.6.42,7.83.42,9,0,2.06-.42,3.6-.42,5.66s.21.42.21,2.47-.21-.41-.21,1.65.21,6.7.42,9.37v2.17a8.77,8.77,0,0,1-.52,2.06,5.79,5.79,0,0,1-1.24,1.85,8.62,8.62,0,0,1-1.64,1.24c-.1.1-.31.1-.42.2l-.2.1h-.2a.36.36,0,0,1-.31.1c-.1.1,0,.31,0,.41a2.6,2.6,0,0,0-1.55-.3c0-.11.21-.21.21-.42-.1-.61-.93-.61-.93-1V178c.21,0,.83-.31.72-.72-.1-.2-.2-.2-.2-.41.41-.1.31-.51.51-.62h.31c.1,0,.21-.1.41-.2a2.09,2.09,0,0,0,.73-.62,3,3,0,0,0,.61-1.34v-1.85c0-2.06.1-.62.21-1.34,0-3.09.21-8,.21-10s.1-3.71,0-5a46.93,46.93,0,0,1-.42-4.73c0-2.06.1-.62.21-1.34v-6c0-2.06,0-5.87-.21-9.57.1-.21.21.72.31,1.44a19.34,19.34,0,0,0,.31-2.27,18.35,18.35,0,0,1-.2-2.67c0-2.06.1-1.55.2-2.06-.1-1.34-.1-2.78-.31-2.78s-.2,1.64-.31,1.54V123a18.71,18.71,0,0,0,.42-4.22c0-2.06-.21.41-.21-1.65s.21.41.21-1.65-.21-1.23-.21-3.3.21-2.06.21-4-.1-5.46-.21-7.52c-.1-1.44-.31-2.37-.41-3.6.1-.21.2,1.34.41,1.44,0-3.81.21-9.47.21-11.53s0-4.12-.1-5.46h-.1c0-2.27.1-.93.2-1.65s-.2-1-.41-1.13a23.69,23.69,0,0,0,.21-2.37c0-2.06-.1-.82-.21-.93,0-1.13.21-1.54.41-1.33V61.28c.1-.31.21.82.21-1.13a15.7,15.7,0,0,0-.1-2.06,3.23,3.23,0,0,0-.52-1.76,3.35,3.35,0,0,0-2.57-1.54.59.59,0,0,1-.41-.1h-.62c-.41,0-.72-.1-1.13-.1a17.17,17.17,0,0,0-2.48-.21c-2.06,0,.42.21-1.64.21a20.65,20.65,0,0,1-4.64-.41c-.62,0-1,.2-1.13.41h-3c-.1-.1-1.65-.21-2.27-.41a7.71,7.71,0,0,0-2.88.62h-3c-.1-.1,1.55-.21,1.55-.31-.72-.1.41-.1-1.65-.1s-3.6.41-5.66.41-1.24-.21-3.3-.21-1.24.21-3.3.21-.42-.21-2.47-.21-1.65,0-1.86.21c-1.23-.1-2.37-.21-3.6-.41s-3.81,0-5.87,0h-6c-.93,0-1.45.2-2.68.31H75.35a25.68,25.68,0,0,1-3.92-.42,32.13,32.13,0,0,0-3.4,0c-6.9,0-4.73.42-8.13.42-2.68,0-3.09-.42-6.18-.62H51.56c-.62.1-.52,0-.52.2s1.65.21,1.55.42H46.41c-2.06,0-2.16-.21-4.12-.21a40.07,40.07,0,0,0-4.22.21c-.21-.1,1.34-.21,1.44-.31-.72-.1.41-.1-1.65-.1s-1.23.2-3.3.2-1.23-.2-3.3-.2-3.6.2-5.66.2-2.89-.1-5-.1.42.21-1.64.21-.42-.21-2.47-.21h-.82c-.1,0-.1.1-.21.1s-.1.1-.72.31a4,4,0,0,0-1.54,1c-.42.41-.62.83-.83.93V58.1c0,.51.1.82.21.82s.2-.41.2-.82v-.43c0-.1,0-.1.1-.1V59a3,3,0,0,1-.1,1c0,.62-.1,1.14-.1,2.17,0,2.06.1,1.64.21,1.85a47.42,47.42,0,0,0-.41,5.46c0,2.06.2,2.88.2,4.43,0,.82-.2,1-.41,3h.62v6.18c-.1.1-.21,1.65-.41,2.27.2,2.06.41,6.38.41,8.44a20.65,20.65,0,0,1-.41,4.64,1.73,1.73,0,0,0,.41,1.23c-.21,3.6-.41,10-.41,12,0,2.78,0,2.67.41,2.57v4.22c0,2.06-.41,4.95-.41,7s.2,1.24.2,3.3-.2,3.6-.2,5.67.2,2.88.2,4.84-.2-.42-.2,1.64.2,1.24.2,3.3-.2,2.89-.2,4.84.2,1.24.2,3.3-.2-.41-.2,1.65.2,1.24.2,3.3a20.48,20.48,0,0,1-.41,4.62c0,.62.2,1,.41,1.13a23.44,23.44,0,0,0-.21,2.37c0,2.06.21-.41.21,1.65s-.21-.42-.21,1.64.1.83.21,1.24v3.81A2.64,2.64,0,0,0,14,175.79a3.54,3.54,0,0,1,.72.82,3.24,3.24,0,0,0,1.34.52H18.6a9.65,9.65,0,0,0,3.4-.62h4.53a11.16,11.16,0,0,0,3.4.41c2,0,.41-.2,2.47-.2s2.89.2,4.84.2h3.5c.72-.1.62-.31,1-.31.83,0,2.89-.1,5.87-.2.21.1-.72.2-1.44.31.72.14,1.44.24,2.16.31,1.34-.1,3.09-.21,5.15-.21s2.89.21,4.84.21-.41-.21,1.65-.21.62.1,1.34.21h4.32c2.06,0,4.12,0,5.46-.1v-.1c2.27,0,.72.2,2.68.2s1.24-.2,3.3-.2,1.24.2,3.3.2.41-.2,2.47-.2,1.24.2,3.3.2a21.94,21.94,0,0,0,4.43-.41c2,.21,4.94.41,7,.41s1.23-.2,3.3-.2.41.2,2.47.2,1.65,0,1.75-.2c1.13,0,1.55.2,1.34.41h13.9c2.06,0-.41-.21,1.65-.21s.41.21,2.47.21,1.23-.21,3.3-.21,1.23.21,3.3.21h.41V177a1.07,1.07,0,0,1,.52.62c.3.1.72.21.82.41.1,0,.1-.2.1-.41h.31c.2,0,.2.21.41.21,0,.2.21.2.21.41s-.21.2-.21.41a.71.71,0,0,0,.41.52,8.79,8.79,0,0,0-.62,1c-.1,0-.2-.21-.41-.21v.62h-.31c-.2,0-.1-.1-.2-.21s-.1.21-.1.41c-.1,0-.21-.1-.31-.2a1.47,1.47,0,0,1-.62-.1H129c-3.19,0-5.87-.1-6.9-.1-2.06,0-4.33,0-5.66.1A7.87,7.87,0,0,0,118.9,181.14Z" fill="#3a494f"/>
      </g>
      <g>
        <g style="isolation: isolate">
          <text transform="translate(47 88.57) scale(1.02 1)" font-size="13.72" fill="#707070" font-family="YuGothicUI-Regular, Yu Gothic UI" style="isolation: isolate">綠電迷思</text>
        </g>
        <g style="isolation: isolate">
          <text transform="translate(27 122.82)" font-size="16" fill="#707070" font-family="YuGothicUI-Regular, Yu Gothic UI" style="isolation: isolate">臺灣先生與綠</text>
          <text transform="translate(27 143.82)" font-size="16" fill="#707070" font-family="YuGothicUI-Regular, Yu Gothic UI" style="isolation: isolate">電小姐的煩惱</text>
        </g>
        <line x1="31" y1="97.32" x2="119" y2="97.32" fill="none" stroke="#707070"/>
      </g>
    </g>
    <g>
      <g>
        <g>
          <circle cx="74.33" cy="30.16" r="3.82" fill="#fff"/>
          <circle cx="74.33" cy="30.16" r="3.82" fill="#fff"/>
        </g>
        <g>
          <path d="M74.33,26.25s-5.59-9-1.24-23.16a1.33,1.33,0,0,1,1.65-.9,1.35,1.35,0,0,1,.93,1C77.09,8.86,78.77,19.51,74.33,26.25Z" fill="#fff"/>
          <path d="M74.33,26.25s-5.59-9-1.24-23.16a1.33,1.33,0,0,1,1.65-.9,1.35,1.35,0,0,1,.93,1C77.09,8.86,78.77,19.51,74.33,26.25Z" fill="#fff"/>
        </g>
        <g>
          <path d="M70.78,32.38s-5,9.31-19.52,12.68A1.36,1.36,0,0,1,50,42.76C54.37,38.59,62.71,31.84,70.78,32.38Z" fill="#fff"/>
          <path d="M70.78,32.38s-5,9.31-19.52,12.68A1.36,1.36,0,0,1,50,42.76C54.37,38.59,62.71,31.84,70.78,32.38Z" fill="#fff"/>
        </g>
        <g>
          <path d="M77.8,32.37S88.36,32,98.47,42.93a1.36,1.36,0,0,1-1.33,2.22C91.46,43.47,81.43,39.65,77.8,32.37Z" fill="#fff"/>
          <path d="M77.8,32.37S88.36,32,98.47,42.93a1.36,1.36,0,0,1-1.33,2.22C91.46,43.47,81.43,39.65,77.8,32.37Z" fill="#fff"/>
        </g>
        <g>
          <path d="M74.34,34l-3.2,31.68h5.32Z" fill="#fff"/>
          <path d="M74.34,34l-3.2,31.68h5.32Z" fill="#fff"/>
        </g>
      </g>
      <g>
        <g>
          <path d="M78.59,34.24a.32.32,0,0,0-.26.09c-.09,0-.18-.18-.27-.18s-.26,0-.35.09.09.18,0,.18-.18-.09-.27,0,0,.44-.09.53-.09-.18-.17-.09,0,.18-.09.26-.36-.17-.54-.35a.87.87,0,0,1-.44.53c-.18.09-.18-.17-.44-.17h-.09c-.09,0,0,.17-.09.17s-.09-.17-.18-.17-.09.26-.09.53c-.17-.18-.35-.45-.53-.45s-.35.36-.44.36,0-.18-.09-.18-.09.18-.27.18,0-.36-.18-.36-.08.18-.17.18-.09-.18-.27-.18-.62.18-.71.18-.18-.27-.35-.27-.27,0-.45,0,0-.26.09-.35c-.18-.09-.44-.27-.62-.36-.09.18-.09.27-.18.36s.09-.18,0-.27-.17.09-.26,0,0-.44-.09-.53-.18.09-.27,0,.09-.18,0-.26-.26,0-.44.08c0-.08.26-.26.18-.35s-.09.09-.18,0,.18-.09.09-.18-.09.09-.18,0,.09-.09.09-.17-.27,0-.27-.09-.09-.18.09-.27a.73.73,0,0,0-.35.09c0-.09.09-.09.09-.27s-.18,0-.27-.09.09-.26,0-.44-.27-.18-.27-.27a.35.35,0,0,1,.09-.17c0-.18-.09-.45-.09-.62.09,0,.18,0,.18-.09s-.35-.36-.53-.53v-.18c.09,0,.18.09.35.18V30c0-.09-.17-.09-.17-.18s.17-.17.17-.26-.17-.09-.17-.18.17,0,.17-.09-.17-.18-.08-.26.26-.36.35-.45.18-.26,0-.35c.09,0,.27-.09.44,0,.09-.09.18-.09,0-.18s-.17,0-.26-.09c.18,0,.44-.09.44-.18a2.94,2.94,0,0,0-.27-.53c0-.09.09-.09.09-.18a1.28,1.28,0,0,0,.54.18L70,27c.18,0,.35.08.44,0s-.09-.45,0-.54.18.09.27,0,0-.09,0-.17.27.26.35.17-.17-.09-.08-.17.17.09.26,0,.18-.18-.09-.62c.09,0,.09-.09.18-.09a1.17,1.17,0,0,0,.35.35c.09-.09-.08-.18,0-.18s.09.18.18.09,0-.26.09-.44.09-.09.18-.18.62.09.71.09c.35-.09.17-.44.35-.44s.18.35.53.26c.09,0,.18-.17.36-.17s.27.17.44.35a.45.45,0,0,0,.09-.35h.18c.09,0,.09.17.18.17v.36h.09c.08,0,.08-.18.17-.27h.27c.09,0,0-.17.09-.09s.26.27.26.45a.87.87,0,0,0,.18-.36c0,.09.09.27.18.27h.36c.08,0,0,.26-.09.35l.17.09c.09-.09.18-.17.18-.26l.18.09c.09.08-.09.17,0,.26s.09,0,.17-.09c.09.36-.08.36.09.53s.54,0,.62.09-.08.36-.08.45.17-.09.17,0-.17.09-.09.17a.88.88,0,0,0,.54.18l.08.09v.18c0,.09-.08.17-.08.26l.08.27c.09.09.27,0,.36,0a2.47,2.47,0,0,0-.18,1.42c-.09,0-.17-.18-.35-.18-.53.09-.53.8-.89.8h-.27c-.08-.17-.26-.71-.62-.53-.17.09-.17.18-.35.18-.09-.36-.45-.27-.53-.36s.09-.26.09-.26h-.18l.09-.09c0-.09.09-.27,0-.27a.09.09,0,0,0-.09-.09h0a.62.62,0,0,1-.36.18.31.31,0,0,0,.09-.18l-.09-.09s-.09-.09-.26,0l.17-.17c0-.09.09-.18.09-.27s-.09.18-.17.09a.23.23,0,0,1,.09-.18c-.09.09-.09,0-.18.18s0,.18-.09.27h-.09a1.12,1.12,0,0,0,.09-.36l-.09.18s.09-.18,0-.18-.09.18-.18.18v-.18s-.17.09-.17.18-.09.17-.18.26c0-.09.09-.17.09-.35-.09,0-.18-.18-.27-.18s-.09,0-.17.09v.09c-.09,0,0-.09,0-.18v.36s0-.18-.09-.18,0,.09,0,.18v-.36h-.27c0-.09,0-.17-.09-.09s-.09.36-.18.36-.17-.36-.17-.27.09.18,0,.18L72.83,28a1.06,1.06,0,0,0,.09.36h-.09c-.09-.09-.09-.18-.18-.27a1.58,1.58,0,0,0,.18.53h-.09a.31.31,0,0,1-.09-.26c-.09-.09,0-.09-.09,0s.09.35.09.35a.35.35,0,0,0-.17-.09l.09.18s-.09-.18-.18-.09a.31.31,0,0,0,.09.18c-.09-.09-.18-.18-.27-.18s-.09.09-.09.09l-.09.09a1,1,0,0,1,.18.27v.09l-.35-.18c-.09,0,0,0-.09.09s.26.26.17.35-.26-.09-.53-.09v.08c.09.09-.09,0,.18.09a.54.54,0,0,0,.35.09.08.08,0,0,1-.08.09h-.18c0,.09.09.09.17.18-.08,0-.17-.09-.26-.09H71.5c0,.09.17.09.17.09s-.17,0-.17,0,.17.08.17.17-.17,0-.17.09.17,0,.17.09-.17,0-.17.09.17,0,.17.09-.17.09-.35.09c.09,0,.09.09.26.09h.27c0,.09-.18.09-.18.09s.09,0,.18,0c-.18.08-.36.08-.36.17s.18,0,.18.09l-.35.18.53-.09v.09c-.09,0-.18.09-.36.18a.64.64,0,0,1,.45.08l-.27.27a.77.77,0,0,0,.36-.09,1.25,1.25,0,0,0-.18.45c0,.08,0,.08.35-.18l.09.09a1.62,1.62,0,0,0-.17.35l.17-.09s-.09.18,0,.27l.18-.09a.31.31,0,0,0-.09.18l.18-.09s-.09.18,0,.18a.31.31,0,0,1,.18-.09l-.09.17s.09-.17.17-.09a.74.74,0,0,1-.09.36.8.8,0,0,0,.18-.27s-.09.18,0,.18.09-.18.09-.18-.09.18,0,.18a.09.09,0,0,0,.09-.08h0c.09,0,.09.18.27-.18V33c0,.09,0,.27.08.27a2.45,2.45,0,0,0,.18-.54h.09v.36c.09,0,0-.18.09-.18s.09.18.09.18H74v-.27a.41.41,0,0,0,.09-.26v.26c0,.09.09.18.09.27a.37.37,0,0,1,.08-.18c.09,0,.09.18.18.18s0-.18,0-.18,0,.09.09.18h.09c.09,0,.09,0,.09-.18v-.09c.09,0,.09.18.09.18s0-.18,0-.18.09.18.17.18-.08-.18,0-.18.09.18.18.09,0-.17-.09-.35c.09.17.27.26.36.17s-.09-.17,0-.17.09.17.17.09a.25.25,0,0,0-.08-.18l.26.27.27-.27c0-.09-.18-.09-.09-.18l.18.09L76,32.19s.17.09.17,0,0-.08-.09-.17h.63c.08-.09.35-.36.53-.36,0-.09-.09-.09-.36-.17l.09-.27c0-.18.18-.09.27-.27.17,0,.17-.17.44-.17s.09.17.36.17a.64.64,0,0,0,.53-.35,3.38,3.38,0,0,1,.8.8c0,.18-.18.26-.27.44l.53.09-.08.36c-.09.26-.09.09-.27.17q0,.13.27.27c-.09.18-.18.18-.27.27s-.27.44-.36.62l-.26.26-.09.09a1.54,1.54,0,0,0-.36.27c-.08.09-.17.17-.17.26C78.33,34.15,78.51,34.15,78.59,34.24Z" fill="#3a494f"/>
          <path d="M78.59,34.24a.32.32,0,0,0-.26.09c-.09,0-.18-.18-.27-.18s-.26,0-.35.09.09.18,0,.18-.18-.09-.27,0,0,.44-.09.53-.09-.18-.17-.09,0,.18-.09.26-.36-.17-.54-.35a.87.87,0,0,1-.44.53c-.18.09-.18-.17-.44-.17h-.09c-.09,0,0,.17-.09.17s-.09-.17-.18-.17-.09.26-.09.53c-.17-.18-.35-.45-.53-.45s-.35.36-.44.36,0-.18-.09-.18-.09.18-.27.18,0-.36-.18-.36-.08.18-.17.18-.09-.18-.27-.18-.62.18-.71.18-.18-.27-.35-.27-.27,0-.45,0,0-.26.09-.35c-.18-.09-.44-.27-.62-.36-.09.18-.09.27-.18.36s.09-.18,0-.27-.17.09-.26,0,0-.44-.09-.53-.18.09-.27,0,.09-.18,0-.26-.26,0-.44.08c0-.08.26-.26.18-.35s-.09.09-.18,0,.18-.09.09-.18-.09.09-.18,0,.09-.09.09-.17-.27,0-.27-.09-.09-.18.09-.27a.73.73,0,0,0-.35.09c0-.09.09-.09.09-.27s-.18,0-.27-.09.09-.26,0-.44-.27-.18-.27-.27a.35.35,0,0,1,.09-.17c0-.18-.09-.45-.09-.62.09,0,.18,0,.18-.09s-.35-.36-.53-.53v-.18c.09,0,.18.09.35.18V30c0-.09-.17-.09-.17-.18s.17-.17.17-.26-.17-.09-.17-.18.17,0,.17-.09-.17-.18-.08-.26.26-.36.35-.45.18-.26,0-.35c.09,0,.27-.09.44,0,.09-.09.18-.09,0-.18s-.17,0-.26-.09c.18,0,.44-.09.44-.18a2.94,2.94,0,0,0-.27-.53c0-.09.09-.09.09-.18a1.28,1.28,0,0,0,.54.18L70,27c.18,0,.35.08.44,0s-.09-.45,0-.54.18.09.27,0,0-.09,0-.17.27.26.35.17-.17-.09-.08-.17.17.09.26,0,.18-.18-.09-.62c.09,0,.09-.09.18-.09a1.17,1.17,0,0,0,.35.35c.09-.09-.08-.18,0-.18s.09.18.18.09,0-.26.09-.44.09-.09.18-.18.62.09.71.09c.35-.09.17-.44.35-.44s.18.35.53.26c.09,0,.18-.17.36-.17s.27.17.44.35a.45.45,0,0,0,.09-.35h.18c.09,0,.09.17.18.17v.36h.09c.08,0,.08-.18.17-.27h.27c.09,0,0-.17.09-.09s.26.27.26.45a.87.87,0,0,0,.18-.36c0,.09.09.27.18.27h.36c.08,0,0,.26-.09.35l.17.09c.09-.09.18-.17.18-.26l.18.09c.09.08-.09.17,0,.26s.09,0,.17-.09c.09.36-.08.36.09.53s.54,0,.62.09-.08.36-.08.45.17-.09.17,0-.17.09-.09.17a.88.88,0,0,0,.54.18l.08.09v.18c0,.09-.08.17-.08.26l.08.27c.09.09.27,0,.36,0a2.47,2.47,0,0,0-.18,1.42c-.09,0-.17-.18-.35-.18-.53.09-.53.8-.89.8h-.27c-.08-.17-.26-.71-.62-.53-.17.09-.17.18-.35.18-.09-.36-.45-.27-.53-.36s.09-.26.09-.26h-.18l.09-.09c0-.09.09-.27,0-.27a.09.09,0,0,0-.09-.09h0a.62.62,0,0,1-.36.18.31.31,0,0,0,.09-.18l-.09-.09s-.09-.09-.26,0l.17-.17c0-.09.09-.18.09-.27s-.09.18-.17.09a.23.23,0,0,1,.09-.18c-.09.09-.09,0-.18.18s0,.18-.09.27h-.09a1.12,1.12,0,0,0,.09-.36l-.09.18s.09-.18,0-.18-.09.18-.18.18v-.18s-.17.09-.17.18-.09.17-.18.26c0-.09.09-.17.09-.35-.09,0-.18-.18-.27-.18s-.09,0-.17.09v.09c-.09,0,0-.09,0-.18v.36s0-.18-.09-.18,0,.09,0,.18v-.36h-.27c0-.09,0-.17-.09-.09s-.09.36-.18.36-.17-.36-.17-.27.09.18,0,.18L72.83,28a1.06,1.06,0,0,0,.09.36h-.09c-.09-.09-.09-.18-.18-.27a1.58,1.58,0,0,0,.18.53h-.09a.31.31,0,0,1-.09-.26c-.09-.09,0-.09-.09,0s.09.35.09.35a.35.35,0,0,0-.17-.09l.09.18s-.09-.18-.18-.09a.31.31,0,0,0,.09.18c-.09-.09-.18-.18-.27-.18s-.09.09-.09.09l-.09.09a1,1,0,0,1,.18.27v.09l-.35-.18c-.09,0,0,0-.09.09s.26.26.17.35-.26-.09-.53-.09v.08c.09.09-.09,0,.18.09a.54.54,0,0,0,.35.09.08.08,0,0,1-.08.09h-.18c0,.09.09.09.17.18-.08,0-.17-.09-.26-.09H71.5c0,.09.17.09.17.09s-.17,0-.17,0,.17.08.17.17-.17,0-.17.09.17,0,.17.09-.17,0-.17.09.17,0,.17.09-.17.09-.35.09c.09,0,.09.09.26.09h.27c0,.09-.18.09-.18.09s.09,0,.18,0c-.18.08-.36.08-.36.17s.18,0,.18.09l-.35.18.53-.09v.09c-.09,0-.18.09-.36.18a.64.64,0,0,1,.45.08l-.27.27a.77.77,0,0,0,.36-.09,1.25,1.25,0,0,0-.18.45c0,.08,0,.08.35-.18l.09.09a1.62,1.62,0,0,0-.17.35l.17-.09s-.09.18,0,.27l.18-.09a.31.31,0,0,0-.09.18l.18-.09s-.09.18,0,.18a.31.31,0,0,1,.18-.09l-.09.17s.09-.17.17-.09a.74.74,0,0,1-.09.36.8.8,0,0,0,.18-.27s-.09.18,0,.18.09-.18.09-.18-.09.18,0,.18a.09.09,0,0,0,.09-.08h0c.09,0,.09.18.27-.18V33c0,.09,0,.27.08.27a2.45,2.45,0,0,0,.18-.54h.09v.36c.09,0,0-.18.09-.18s.09.18.09.18H74v-.27a.41.41,0,0,0,.09-.26v.26c0,.09.09.18.09.27a.37.37,0,0,1,.08-.18c.09,0,.09.18.18.18s0-.18,0-.18,0,.09.09.18h.09c.09,0,.09,0,.09-.18v-.09c.09,0,.09.18.09.18s0-.18,0-.18.09.18.17.18-.08-.18,0-.18.09.18.18.09,0-.17-.09-.35c.09.17.27.26.36.17s-.09-.17,0-.17.09.17.17.09a.25.25,0,0,0-.08-.18l.26.27.27-.27c0-.09-.18-.09-.09-.18l.18.09L76,32.19s.17.09.17,0,0-.08-.09-.17h.63c.08-.09.35-.36.53-.36,0-.09-.09-.09-.36-.17l.09-.27c0-.18.18-.09.27-.27.17,0,.17-.17.44-.17s.09.17.36.17a.64.64,0,0,0,.53-.35,3.38,3.38,0,0,1,.8.8c0,.18-.18.26-.27.44l.53.09-.08.36c-.09.26-.09.09-.27.17q0,.13.27.27c-.09.18-.18.18-.27.27s-.27.44-.36.62l-.26.26-.09.09a1.54,1.54,0,0,0-.36.27c-.08.09-.17.17-.17.26C78.33,34.15,78.51,34.15,78.59,34.24Z" fill="#3a494f"/>
        </g>
        <g>
          <path d="M70.87,23.68v-.45c.09-.09.27-.09.27-.17,0-.27.09-.45,0-.62s-.18,0-.27-.18.18-.18.09-.36-.44-.35-.53-.53.18-.09.09-.26-.18-.09-.27-.27.27-.44.45-.62a2.3,2.3,0,0,1-.53-1.07c-.09-.35.17-.26.26-.62v-.09c0-.18-.17-.27-.17-.44s.17-.18.17-.36-.26-.27-.53-.27a2.16,2.16,0,0,0,.44-.8c0-.17-.35-.62-.44-.88s.18-.09.18-.27-.18-.18-.18-.35c0-.45.36-.09.36-.36s-.18,0-.18-.26.18-.27.18-.45-.36-1-.36-1.24.18-.53.18-.71-.09-.53-.09-.71.26-.09.35-.09a7.44,7.44,0,0,1,.09-1.33c-.26.09-.26.18-.35.09s.17-.09.17-.27-.17-.17-.08-.44.44-.45.44-.71-.18-.27-.09-.45.18-.08.18-.26a.5.5,0,0,0-.27-.45c.09,0,.27.18.36,0s-.18,0-.18-.17.18.09.18-.09-.18,0-.18-.18.18,0,.18-.18-.09-.26-.09-.53A.32.32,0,0,1,70.79,6,.18.18,0,0,1,71,5.84c0-.09-.09-.18-.26-.27,0-.17.17-.09.26-.44s.09-.44.18-.71.36-.44.44-.71a4.19,4.19,0,0,1,.27-1c.09-.17.18-.17.18-.17a2.48,2.48,0,0,1,.35-.71l.18-.36c.09-.09.18-.09.18-.18.09.09,0,.18.17.09A4,4,0,0,1,74,.34h.36c0,.09-.18.18-.36.35a2.1,2.1,0,0,1,.71,0c.27,0,.09-.17.36-.08s.35.26.53.35.17-.09.35,0,0,.18.18.36.27,0,.35.17.36.8.45,1.07a.31.31,0,0,1,.09.18.33.33,0,0,0,.09.27c.09.17.09.26.26.26a2,2,0,0,1-.17.8c.09.27,0,.45.17.27s.09-.36.18-.36a2.85,2.85,0,0,0-.09,1.16,1.38,1.38,0,0,0,.62.62l.09.44a2.17,2.17,0,0,0-.44.36h.35c-.17.26-.26.35-.26.62s.44.44.44.62-.18.18-.09.35.09.18.18.18c-.09,0-.36,0-.36.18s.18-.09.18.09-.18.17-.09.44.09.44.62.44v.27c-.17,0-.53.18-.53.27s.18-.09.18.17-.18,0-.18.18.27.27.36.36a.62.62,0,0,1,.08.44c0,.18-.26,1-.26,1.24,0,.71.35.45.35.8s-.35.09-.35.8c0,.18.18.45.18.62a1.94,1.94,0,0,1-.36.8c0,.09.18.09.36.09v.27c0,.17-.18.17-.18.26a.57.57,0,0,0-.36.09v.18c0,.18.18.18.36.27v.53c.09.09.18-.09.18.17a1.6,1.6,0,0,1-.45.71c0,.09.09.09.36.18a2.94,2.94,0,0,0-.27.53,1.61,1.61,0,0,0,.09.62c0,.09-.27.09-.36.09v.45c.09.09.18.09.36.09l-.09.44c0,.18-.18.09-.18.27s0,.26.09.26c-.35.53-.35.18-.53.71-.09.36.18.89.09,1s-.44.26-.53.44.17.09.09.27-.18-.09-.18.09a1.78,1.78,0,0,0,0,1c0,.09,0,0-.09.18a.61.61,0,0,1-.53.36l-.09.08-.09.27c0,.09.18.18.27.27a1.24,1.24,0,0,0-1.07.71c-.09-.09,0-.18-.18-.36-.44-.26-.88.36-1.15.09l-.27-.09c0-.18.27-.8-.08-1-.18-.09-.27,0-.36-.09.27-.45,0-.71.09-.8s.27-.27.35-.36-.08-.26,0-.44.09,0,.18,0a1.66,1.66,0,0,0,.45-.71c.08-.18.17-.27.08-.45s-.26-.35-.17-.44.09,0,.17-.09.09-.35.18-.53.18-.53,0-.8a.19.19,0,0,1,.18.18c.09,0,.18-.09.35-.09,0-.09-.17-.09-.17-.27s.09-.09.17-.18c-.09-.17,0-.26-.17-.26s-.18.09-.27.09l.09-.36a2.13,2.13,0,0,0,.44-.26c0-.18-.17,0-.17-.18s.17.09.17-.09-.17-.09-.17-.27.17-.17.17-.35a2.13,2.13,0,0,0-.09-.71l-.35-.36c.09,0,.18.18.35.18a2.81,2.81,0,0,1,.27-1,1.21,1.21,0,0,0-.09-.53h-.09c0-.17.09-.09.18-.17s-.18-.09-.36-.09c0-.09.18,0,.18-.18s0-.09-.18-.09c0-.09.18-.09.36-.09V14c.09,0,.18.08.09-.09s-.36-.71-.36-.89.36-.27.36-.44-.18.08-.18-.18a.61.61,0,0,1,.36-.45c0-.08-.18-.08-.36-.08v-.27c.09,0,.18-.18.36-.27-.09,0-.18-.17-.54-.17V10.9a1.07,1.07,0,0,1,.27.09c.09-.09.09,0,.09-.18s-.36-.26-.44-.44.17-.09.17-.36-.17-.09-.17-.26.17-.09.17-.27-.09-.18-.17-.18c.08-.09.17-.26.26-.35a.56.56,0,0,0-.09-.53c0-.18,0-.45-.09-.54s-.17-.08-.35-.17c0,0,0,.09-.09-.09s.18-.27.27-.45,0-.08-.09-.26-.36,0-.36-.09a4.65,4.65,0,0,0,.45-.53V6.2c-.09.09,0-.09-.18.17-.18-.09-.18,0-.27.09V6.37l.09-.26c0-.09-.09,0-.18.17.18-.26.18-.35.27-.44s.09-.09,0-.18l-.09.27a2.37,2.37,0,0,1,.09-.36c0-.08-.18.27-.18.18V5.31c-.09,0-.09.35-.09.35s0-.35,0-.44,0,.35-.08.35-.09-.44-.18-.8a1.34,1.34,0,0,0,0,.63c.09.44.09.26.09.53,0,0-.09-.36-.09-.27a1.19,1.19,0,0,0,.09.36c-.09-.36-.18-.62-.27-.54s.09.36.09.45a1.29,1.29,0,0,0-.27-.45l.36.8v.09C74.16,6.2,74.07,6.2,74,6a2.65,2.65,0,0,0,.27.53,1.06,1.06,0,0,0-.36-.09,1,1,0,0,0,.36.18.33.33,0,0,0-.27.09,1.49,1.49,0,0,0-.17.44c-.36.18-.36.18,0,.27l-.09.35c0,.18-.45.36-.45.53s.18.18.18.36-.18.27-.27.44.18.27.09.45-.17-.09-.17.09.17.09.17.35-.17.27-.26.45.17.08.17.26-.17-.09-.17.09.17.09.17.27-.26.35-.35.35.18.09.35.09c0,.09-.17,0-.17.18s.17,0,.17.17-.17-.08-.17.18.09.09.09.09c0,.18-.18.53.17.71,0,.09-.17.09-.26.18a.78.78,0,0,0-.27.44c0,.09.27.27.53.27v.44c-.17.09-.35.18-.35.36s.18,0,.18.17-.18.27-.18.45v.35c.09.09.26,0,.26.09a1.27,1.27,0,0,0,.27.53c-.09,0-.18-.09-.27-.09s-.08.18-.26.18a1.7,1.7,0,0,1,.26.45c0,.17-.17.26-.08.44s.17-.09.17.09-.09.09-.17.18v.35c0,.18,0,.36.17.44h.09c0,.18-.18.09-.09.27s.18.09.27.27-.18.17-.09.35.18,0,.18.18-.18.18-.09.35.17.27.44.27a.74.74,0,0,0-.18.71c0,.18.18.09.27.27s-.18.08-.09.26.09.09.18.09-.18.18-.27.18c.09.44.27.8.36,1.15.09.18.17-.09.17.09s-.17.09-.08.27.17,0,.26.17-.09.18-.09.36.09.18.27.09c0,.17-.18.35-.36.53,0,.18.09.62-.09.8,0,.09.18,0,.36,0v.35c.09.18-.09.27,0,.45-.09.09-.09.26-.27.35s-.17-.09-.35,0a.72.72,0,0,0-.27.62,4.19,4.19,0,0,1-1.06-.17c-.09-.09.09-.27,0-.45l-.44.27L72.21,26c-.09-.18.09-.09.09-.27s-.18-.09-.36,0c-.09-.09,0-.18,0-.27-.09-.26-.17-.53-.26-.88s-.18-.8-.18-.89a2.65,2.65,0,0,0-.27-.53A4.93,4.93,0,0,0,70.87,23.68Z" fill="#3a494f"/>
          <path d="M70.87,23.68v-.45c.09-.09.27-.09.27-.17,0-.27.09-.45,0-.62s-.18,0-.27-.18.18-.18.09-.36-.44-.35-.53-.53.18-.09.09-.26-.18-.09-.27-.27.27-.44.45-.62a2.3,2.3,0,0,1-.53-1.07c-.09-.35.17-.26.26-.62v-.09c0-.18-.17-.27-.17-.44s.17-.18.17-.36-.26-.27-.53-.27a2.16,2.16,0,0,0,.44-.8c0-.17-.35-.62-.44-.88s.18-.09.18-.27-.18-.18-.18-.35c0-.45.36-.09.36-.36s-.18,0-.18-.26.18-.27.18-.45-.36-1-.36-1.24.18-.53.18-.71-.09-.53-.09-.71.26-.09.35-.09a7.44,7.44,0,0,1,.09-1.33c-.26.09-.26.18-.35.09s.17-.09.17-.27-.17-.17-.08-.44.44-.45.44-.71-.18-.27-.09-.45.18-.08.18-.26a.5.5,0,0,0-.27-.45c.09,0,.27.18.36,0s-.18,0-.18-.17.18.09.18-.09-.18,0-.18-.18.18,0,.18-.18-.09-.26-.09-.53A.32.32,0,0,1,70.79,6,.18.18,0,0,1,71,5.84c0-.09-.09-.18-.26-.27,0-.17.17-.09.26-.44s.09-.44.18-.71.36-.44.44-.71a4.19,4.19,0,0,1,.27-1c.09-.17.18-.17.18-.17a2.48,2.48,0,0,1,.35-.71l.18-.36c.09-.09.18-.09.18-.18.09.09,0,.18.17.09A4,4,0,0,1,74,.34h.36c0,.09-.18.18-.36.35a2.1,2.1,0,0,1,.71,0c.27,0,.09-.17.36-.08s.35.26.53.35.17-.09.35,0,0,.18.18.36.27,0,.35.17.36.8.45,1.07a.31.31,0,0,1,.09.18.33.33,0,0,0,.09.27c.09.17.09.26.26.26a2,2,0,0,1-.17.8c.09.27,0,.45.17.27s.09-.36.18-.36a2.85,2.85,0,0,0-.09,1.16,1.38,1.38,0,0,0,.62.62l.09.44a2.17,2.17,0,0,0-.44.36h.35c-.17.26-.26.35-.26.62s.44.44.44.62-.18.18-.09.35.09.18.18.18c-.09,0-.36,0-.36.18s.18-.09.18.09-.18.17-.09.44.09.44.62.44v.27c-.17,0-.53.18-.53.27s.18-.09.18.17-.18,0-.18.18.27.27.36.36a.62.62,0,0,1,.08.44c0,.18-.26,1-.26,1.24,0,.71.35.45.35.8s-.35.09-.35.8c0,.18.18.45.18.62a1.94,1.94,0,0,1-.36.8c0,.09.18.09.36.09v.27c0,.17-.18.17-.18.26a.57.57,0,0,0-.36.09v.18c0,.18.18.18.36.27v.53c.09.09.18-.09.18.17a1.6,1.6,0,0,1-.45.71c0,.09.09.09.36.18a2.94,2.94,0,0,0-.27.53,1.61,1.61,0,0,0,.09.62c0,.09-.27.09-.36.09v.45c.09.09.18.09.36.09l-.09.44c0,.18-.18.09-.18.27s0,.26.09.26c-.35.53-.35.18-.53.71-.09.36.18.89.09,1s-.44.26-.53.44.17.09.09.27-.18-.09-.18.09a1.78,1.78,0,0,0,0,1c0,.09,0,0-.09.18a.61.61,0,0,1-.53.36l-.09.08-.09.27c0,.09.18.18.27.27a1.24,1.24,0,0,0-1.07.71c-.09-.09,0-.18-.18-.36-.44-.26-.88.36-1.15.09l-.27-.09c0-.18.27-.8-.08-1-.18-.09-.27,0-.36-.09.27-.45,0-.71.09-.8s.27-.27.35-.36-.08-.26,0-.44.09,0,.18,0a1.66,1.66,0,0,0,.45-.71c.08-.18.17-.27.08-.45s-.26-.35-.17-.44.09,0,.17-.09.09-.35.18-.53.18-.53,0-.8a.19.19,0,0,1,.18.18c.09,0,.18-.09.35-.09,0-.09-.17-.09-.17-.27s.09-.09.17-.18c-.09-.17,0-.26-.17-.26s-.18.09-.27.09l.09-.36a2.13,2.13,0,0,0,.44-.26c0-.18-.17,0-.17-.18s.17.09.17-.09-.17-.09-.17-.27.17-.17.17-.35a2.13,2.13,0,0,0-.09-.71l-.35-.36c.09,0,.18.18.35.18a2.81,2.81,0,0,1,.27-1,1.21,1.21,0,0,0-.09-.53h-.09c0-.17.09-.09.18-.17s-.18-.09-.36-.09c0-.09.18,0,.18-.18s0-.09-.18-.09c0-.09.18-.09.36-.09V14c.09,0,.18.08.09-.09s-.36-.71-.36-.89.36-.27.36-.44-.18.08-.18-.18a.61.61,0,0,1,.36-.45c0-.08-.18-.08-.36-.08v-.27c.09,0,.18-.18.36-.27-.09,0-.18-.17-.54-.17V10.9a1.07,1.07,0,0,1,.27.09c.09-.09.09,0,.09-.18s-.36-.26-.44-.44.17-.09.17-.36-.17-.09-.17-.26.17-.09.17-.27-.09-.18-.17-.18c.08-.09.17-.26.26-.35a.56.56,0,0,0-.09-.53c0-.18,0-.45-.09-.54s-.17-.08-.35-.17c0,0,0,.09-.09-.09s.18-.27.27-.45,0-.08-.09-.26-.36,0-.36-.09a4.65,4.65,0,0,0,.45-.53V6.2c-.09.09,0-.09-.18.17-.18-.09-.18,0-.27.09V6.37l.09-.26c0-.09-.09,0-.18.17.18-.26.18-.35.27-.44s.09-.09,0-.18l-.09.27a2.37,2.37,0,0,1,.09-.36c0-.08-.18.27-.18.18V5.31c-.09,0-.09.35-.09.35s0-.35,0-.44,0,.35-.08.35-.09-.44-.18-.8a1.34,1.34,0,0,0,0,.63c.09.44.09.26.09.53,0,0-.09-.36-.09-.27a1.19,1.19,0,0,0,.09.36c-.09-.36-.18-.62-.27-.54s.09.36.09.45a1.29,1.29,0,0,0-.27-.45l.36.8v.09C74.16,6.2,74.07,6.2,74,6a2.65,2.65,0,0,0,.27.53,1.06,1.06,0,0,0-.36-.09,1,1,0,0,0,.36.18.33.33,0,0,0-.27.09,1.49,1.49,0,0,0-.17.44c-.36.18-.36.18,0,.27l-.09.35c0,.18-.45.36-.45.53s.18.18.18.36-.18.27-.27.44.18.27.09.45-.17-.09-.17.09.17.09.17.35-.17.27-.26.45.17.08.17.26-.17-.09-.17.09.17.09.17.27-.26.35-.35.35.18.09.35.09c0,.09-.17,0-.17.18s.17,0,.17.17-.17-.08-.17.18.09.09.09.09c0,.18-.18.53.17.71,0,.09-.17.09-.26.18a.78.78,0,0,0-.27.44c0,.09.27.27.53.27v.44c-.17.09-.35.18-.35.36s.18,0,.18.17-.18.27-.18.45v.35c.09.09.26,0,.26.09a1.27,1.27,0,0,0,.27.53c-.09,0-.18-.09-.27-.09s-.08.18-.26.18a1.7,1.7,0,0,1,.26.45c0,.17-.17.26-.08.44s.17-.09.17.09-.09.09-.17.18v.35c0,.18,0,.36.17.44h.09c0,.18-.18.09-.09.27s.18.09.27.27-.18.17-.09.35.18,0,.18.18-.18.18-.09.35.17.27.44.27a.74.74,0,0,0-.18.71c0,.18.18.09.27.27s-.18.08-.09.26.09.09.18.09-.18.18-.27.18c.09.44.27.8.36,1.15.09.18.17-.09.17.09s-.17.09-.08.27.17,0,.26.17-.09.18-.09.36.09.18.27.09c0,.17-.18.35-.36.53,0,.18.09.62-.09.8,0,.09.18,0,.36,0v.35c.09.18-.09.27,0,.45-.09.09-.09.26-.27.35s-.17-.09-.35,0a.72.72,0,0,0-.27.62,4.19,4.19,0,0,1-1.06-.17c-.09-.09.09-.27,0-.45l-.44.27L72.21,26c-.09-.18.09-.09.09-.27s-.18-.09-.36,0c-.09-.09,0-.18,0-.27-.09-.26-.17-.53-.26-.88s-.18-.8-.18-.89a2.65,2.65,0,0,0-.27-.53A4.93,4.93,0,0,0,70.87,23.68Z" fill="#3a494f"/>
        </g>
        <g>
          <path d="M70.25,36.63c-.09.09-.26.09-.35.18s-.18-.18-.27-.09-.44.18-.53.27.09.17,0,.26-.18,0-.35.09-.09.53-.18.71-.18-.09-.27,0,0,.18-.09.36-.53,0-.71,0a5.15,5.15,0,0,1-.62,1.06c-.26.27-.35,0-.71.18,0,0,.09-.09-.09,0s0,.18-.17.35-.18-.08-.36.09a.75.75,0,0,0,0,.62,3.94,3.94,0,0,0-1,0c-.18.09-.36.71-.54.8s-.09-.08-.26,0-.09.27-.27.36c-.35.27-.18-.27-.44-.09s.09.18-.09.27-.36,0-.53.09-.71.8-.89.88-.53.09-.71.18a1.34,1.34,0,0,0-.53.44c-.09,0-.18-.17-.27-.26-.35.17-.8.35-1.15.53.17.18.26.18.26.27s-.17-.09-.35,0-.09.26-.27.35-.62-.09-.8-.09-.09.27-.26.36-.18-.09-.36,0a.47.47,0,0,0-.26.44c-.18-.09-.09-.35-.36-.27s.09.18-.09.18,0-.18-.18-.09.09.18-.08.18-.09-.18-.27-.09-.18.27-.36.36h-.26a.33.33,0,0,1-.27-.09c-.09,0-.09.18-.09.44-.18.09-.18-.08-.53,0s-.36.27-.62.36-.62,0-1,.09h0a1.84,1.84,0,0,1-.88.26c-.27,0-.18-.08-.27-.17H50.55c-.09,0-.17-.09-.26-.09s.17-.09,0-.18a3.93,3.93,0,0,1-1.42-.45c-.09-.08-.18-.17-.18-.26s.27.09.53.18a2.25,2.25,0,0,1-.35-.62c-.09-.27-.18,0-.27-.27s.09-.44.09-.62c-.44-.45-.62-.27-.62-.53s.18-.09.26-.27-.17-.18,0-.44A6.16,6.16,0,0,1,49,42a.31.31,0,0,0,.09-.18l.18-.18c.09-.08.18-.26.09-.35.23-.1.47-.19.71-.27.27-.26.44-.17.18-.26s-.36.09-.45.09a3.25,3.25,0,0,0,1.07-.53.91.91,0,0,0,.17-.89l.36-.27c.18.18.35.18.53.27a.52.52,0,0,0-.18-.36c.27,0,.45.09.63-.09s.17-.62.35-.71.18.09.36-.08.08-.09,0-.27c.17,0,.26.27.35.18s-.18-.09,0-.27.27,0,.44-.09c.36-.18.36-.26.09-.71l.27-.18c.09.09.44.36.53.27s-.18-.09,0-.27.09.18.27.09.09-.35.09-.53.17-.18.35-.26,1.07-.27,1.16-.36c.53-.35.17-.53.44-.71s.27.27.89-.09c.17-.09.26-.35.44-.44a2.24,2.24,0,0,1,.89-.09c.09,0,0-.18-.09-.36l.26-.09c.18-.08.27.09.36,0l.27.27.17-.09c.18-.09,0-.18.09-.35s.36-.18.45-.27-.09-.09.08-.18a1.5,1.5,0,0,1,.89,0c.09,0,.09-.17,0-.35a1.19,1.19,0,0,0,.53-.09,2,2,0,0,0,.45-.36c.09,0,.17.18.26.27l.45-.18a.54.54,0,0,0-.09-.35l.44-.18c.18-.09.18.09.36.09s.17-.09.17-.27c.63.09.36.27.89.09.36-.09.71-.53.8-.53s.45.27.62.27,0-.18.18-.18,0,.18.18.18a2.82,2.82,0,0,0,.88-.45c.09,0,0,0,.18-.09a1,1,0,0,1,.62.27l.09.09h.27a.57.57,0,0,0,.09-.36,1.37,1.37,0,0,0,1.06.54c0,.09-.18.09-.18.35,0,.53.71.62.71,1,0,.17,0,.17-.09.26s-.8.18-.8.54.18.26.18.35c-.44,0-.53.36-.8.36s-.35-.18-.53-.09-.18.17-.36.17-.08-.09-.08-.17c-.27,0-.71-.09-.89-.09a.65.65,0,0,0-.45.09c-.08.09-.17.35-.35.44s-.09-.09-.18-.09-.35.09-.53.09-.53.09-.71.36c-.09-.09,0-.18.09-.27S65.1,35,65,34.86s0,.18-.17.27-.18-.09-.27-.09-.18.09-.18.35.18.09.18.18l-.35.09c-.18-.18-.27-.27-.45-.18s.09.18-.09.27,0-.18-.17-.09,0,.18-.18.27-.27-.09-.45,0a1.32,1.32,0,0,0-.53.44c-.09.09-.09.27-.17.44-.09-.08,0-.26,0-.35a2.44,2.44,0,0,1-1,.27c-.18.08-.36.17-.36.35v.09c-.17.09-.08-.09-.17-.09s0,.18.09.36c-.09.08-.09-.09-.27,0s0,.08,0,.17-.18-.09-.27-.26a5.07,5.07,0,0,1-1,.53c-.09-.09,0-.18-.18-.09a2.38,2.38,0,0,0-.53.8c-.18.09-.44-.18-.53-.09s.09.09,0,.27a.56.56,0,0,1-.53-.09.85.85,0,0,0,.08.35l-.26.18c-.09-.09-.27-.09-.36-.18a.89.89,0,0,0,.09.62l-.26-.27c-.09-.08,0-.26-.09-.35s0-.09-.18,0-.09.44-.17.62-.18-.09-.36,0,0,.18-.09.36-.18-.09-.26,0-.09.08,0,.26h-.54c-.18,0-.27.18-.45.36s-.35.17-.35.26v.36s.09,0-.09.09-.35,0-.53,0-.09.09-.27.17.18.36.09.36a2.82,2.82,0,0,0-.71-.09l-.09.09c.09,0-.09,0,.18.09s.27,0,.44.09h.09s-.26,0-.26.09a.27.27,0,0,0,.17.08h-.62c-.09.09.27,0,.27,0l-.36.09c-.09.09.27,0,.27.09s-.36.18-.36.27.36-.18.36-.09-.36.18-.36.27.36-.18.36-.09a5.25,5.25,0,0,1-.62.53,1.4,1.4,0,0,0,.53-.27,4.6,4.6,0,0,1,.44-.35c.09,0-.26.26-.17.26s.08-.09.26-.26c-.26.26-.44.53-.35.44s.26-.27.35-.27a4,4,0,0,0-.26.45l.53-.71h.09c-.09.17-.09.26-.18.44.09-.09.09-.17.18-.26s.09-.18.17-.18a1.06,1.06,0,0,0,.09.35v-.35a.2.2,0,0,0,.18.18c.18,0,.44,0,.53-.09.27-.09.27-.09.09-.45l.36-.17c.17-.09.53.17.71.09s0-.18.17-.27.36,0,.53,0,.18-.27.36-.36,0,.18.18.09,0-.17.17-.26.27.09.45,0,0-.18.17-.27,0,.18.18.09,0-.18.18-.27a.43.43,0,0,1,.53.18c.09,0,0-.18-.09-.35.09-.09.09.17.27.09s-.09-.18.09-.27.09.18.17.09,0-.09,0-.18.62-.09.54-.53c.08-.09.17.09.26.18s.36.09.53,0a.68.68,0,0,0,0-.62l.36-.18c.18.09.26.26.44.18s-.09-.18.09-.27.27,0,.45-.09.17-.18.26-.18-.09-.17-.09-.26a2.54,2.54,0,0,0,.36-.45c.09.09,0,.18,0,.27s.17,0,.35.18a1.29,1.29,0,0,1,.27-.45c.18-.09.26,0,.44-.09s-.17-.09,0-.26.09,0,.18.09c.09-.09.18-.09.35-.18a.4.4,0,0,0,.27-.44h0c.18-.09.18.08.27,0s0-.18.09-.36.17.09.35-.09-.09-.18.09-.26.18.08.35-.09.09-.36.09-.54a.94.94,0,0,0,.71-.17c.09-.09-.09-.18.09-.36s.18.09.27,0a.16.16,0,0,0,0-.23l0,0c.09-.09.26.09.35.17l.89-.88c.09-.18-.18-.09,0-.27s.18.09.27-.09-.09-.18.09-.35.17,0,.35-.09.09-.18,0-.27c.18,0,.44-.09.62,0a1.29,1.29,0,0,1,.71-.35c0-.09-.09-.18-.26-.27l.17-.27c.09-.17.27-.08.36-.17.17.09.26-.09.44,0s0,.17.18.35a.55.55,0,0,0,.62-.09c.18.36.27.62.44,1-.09.09-.26.09-.35.18l.44.26-.17.27c-.18.18-.09,0-.27,0,0,.09,0,.18.18.35a.33.33,0,0,1-.27.09,3.64,3.64,0,0,1-.62.62c-.27.27-.62.54-.71.62s-.27.36-.36.45A1,1,0,0,0,70.25,36.63Z" fill="#3a494f"/>
          <path d="M70.25,36.63c-.09.09-.26.09-.35.18s-.18-.18-.27-.09-.44.18-.53.27.09.17,0,.26-.18,0-.35.09-.09.53-.18.71-.18-.09-.27,0,0,.18-.09.36-.53,0-.71,0a5.15,5.15,0,0,1-.62,1.06c-.26.27-.35,0-.71.18,0,0,.09-.09-.09,0s0,.18-.17.35-.18-.08-.36.09a.75.75,0,0,0,0,.62,3.94,3.94,0,0,0-1,0c-.18.09-.36.71-.54.8s-.09-.08-.26,0-.09.27-.27.36c-.35.27-.18-.27-.44-.09s.09.18-.09.27-.36,0-.53.09-.71.8-.89.88-.53.09-.71.18a1.34,1.34,0,0,0-.53.44c-.09,0-.18-.17-.27-.26-.35.17-.8.35-1.15.53.17.18.26.18.26.27s-.17-.09-.35,0-.09.26-.27.35-.62-.09-.8-.09-.09.27-.26.36-.18-.09-.36,0a.47.47,0,0,0-.26.44c-.18-.09-.09-.35-.36-.27s.09.18-.09.18,0-.18-.18-.09.09.18-.08.18-.09-.18-.27-.09-.18.27-.36.36h-.26a.33.33,0,0,1-.27-.09c-.09,0-.09.18-.09.44-.18.09-.18-.08-.53,0s-.36.27-.62.36-.62,0-1,.09h0a1.84,1.84,0,0,1-.88.26c-.27,0-.18-.08-.27-.17H50.55c-.09,0-.17-.09-.26-.09s.17-.09,0-.18a3.93,3.93,0,0,1-1.42-.45c-.09-.08-.18-.17-.18-.26s.27.09.53.18a2.25,2.25,0,0,1-.35-.62c-.09-.27-.18,0-.27-.27s.09-.44.09-.62c-.44-.45-.62-.27-.62-.53s.18-.09.26-.27-.17-.18,0-.44A6.16,6.16,0,0,1,49,42a.31.31,0,0,0,.09-.18l.18-.18c.09-.08.18-.26.09-.35.23-.1.47-.19.71-.27.27-.26.44-.17.18-.26s-.36.09-.45.09a3.25,3.25,0,0,0,1.07-.53.91.91,0,0,0,.17-.89l.36-.27c.18.18.35.18.53.27a.52.52,0,0,0-.18-.36c.27,0,.45.09.63-.09s.17-.62.35-.71.18.09.36-.08.08-.09,0-.27c.17,0,.26.27.35.18s-.18-.09,0-.27.27,0,.44-.09c.36-.18.36-.26.09-.71l.27-.18c.09.09.44.36.53.27s-.18-.09,0-.27.09.18.27.09.09-.35.09-.53.17-.18.35-.26,1.07-.27,1.16-.36c.53-.35.17-.53.44-.71s.27.27.89-.09c.17-.09.26-.35.44-.44a2.24,2.24,0,0,1,.89-.09c.09,0,0-.18-.09-.36l.26-.09c.18-.08.27.09.36,0l.27.27.17-.09c.18-.09,0-.18.09-.35s.36-.18.45-.27-.09-.09.08-.18a1.5,1.5,0,0,1,.89,0c.09,0,.09-.17,0-.35a1.19,1.19,0,0,0,.53-.09,2,2,0,0,0,.45-.36c.09,0,.17.18.26.27l.45-.18a.54.54,0,0,0-.09-.35l.44-.18c.18-.09.18.09.36.09s.17-.09.17-.27c.63.09.36.27.89.09.36-.09.71-.53.8-.53s.45.27.62.27,0-.18.18-.18,0,.18.18.18a2.82,2.82,0,0,0,.88-.45c.09,0,0,0,.18-.09a1,1,0,0,1,.62.27l.09.09h.27a.57.57,0,0,0,.09-.36,1.37,1.37,0,0,0,1.06.54c0,.09-.18.09-.18.35,0,.53.71.62.71,1,0,.17,0,.17-.09.26s-.8.18-.8.54.18.26.18.35c-.44,0-.53.36-.8.36s-.35-.18-.53-.09-.18.17-.36.17-.08-.09-.08-.17c-.27,0-.71-.09-.89-.09a.65.65,0,0,0-.45.09c-.08.09-.17.35-.35.44s-.09-.09-.18-.09-.35.09-.53.09-.53.09-.71.36c-.09-.09,0-.18.09-.27S65.1,35,65,34.86s0,.18-.17.27-.18-.09-.27-.09-.18.09-.18.35.18.09.18.18l-.35.09c-.18-.18-.27-.27-.45-.18s.09.18-.09.27,0-.18-.17-.09,0,.18-.18.27-.27-.09-.45,0a1.32,1.32,0,0,0-.53.44c-.09.09-.09.27-.17.44-.09-.08,0-.26,0-.35a2.44,2.44,0,0,1-1,.27c-.18.08-.36.17-.36.35v.09c-.17.09-.08-.09-.17-.09s0,.18.09.36c-.09.08-.09-.09-.27,0s0,.08,0,.17-.18-.09-.27-.26a5.07,5.07,0,0,1-1,.53c-.09-.09,0-.18-.18-.09a2.38,2.38,0,0,0-.53.8c-.18.09-.44-.18-.53-.09s.09.09,0,.27a.56.56,0,0,1-.53-.09.85.85,0,0,0,.08.35l-.26.18c-.09-.09-.27-.09-.36-.18a.89.89,0,0,0,.09.62l-.26-.27c-.09-.08,0-.26-.09-.35s0-.09-.18,0-.09.44-.17.62-.18-.09-.36,0,0,.18-.09.36-.18-.09-.26,0-.09.08,0,.26h-.54c-.18,0-.27.18-.45.36s-.35.17-.35.26v.36s.09,0-.09.09-.35,0-.53,0-.09.09-.27.17.18.36.09.36a2.82,2.82,0,0,0-.71-.09l-.09.09c.09,0-.09,0,.18.09s.27,0,.44.09h.09s-.26,0-.26.09a.27.27,0,0,0,.17.08h-.62c-.09.09.27,0,.27,0l-.36.09c-.09.09.27,0,.27.09s-.36.18-.36.27.36-.18.36-.09-.36.18-.36.27.36-.18.36-.09a5.25,5.25,0,0,1-.62.53,1.4,1.4,0,0,0,.53-.27,4.6,4.6,0,0,1,.44-.35c.09,0-.26.26-.17.26s.08-.09.26-.26c-.26.26-.44.53-.35.44s.26-.27.35-.27a4,4,0,0,0-.26.45l.53-.71h.09c-.09.17-.09.26-.18.44.09-.09.09-.17.18-.26s.09-.18.17-.18a1.06,1.06,0,0,0,.09.35v-.35a.2.2,0,0,0,.18.18c.18,0,.44,0,.53-.09.27-.09.27-.09.09-.45l.36-.17c.17-.09.53.17.71.09s0-.18.17-.27.36,0,.53,0,.18-.27.36-.36,0,.18.18.09,0-.17.17-.26.27.09.45,0,0-.18.17-.27,0,.18.18.09,0-.18.18-.27a.43.43,0,0,1,.53.18c.09,0,0-.18-.09-.35.09-.09.09.17.27.09s-.09-.18.09-.27.09.18.17.09,0-.09,0-.18.62-.09.54-.53c.08-.09.17.09.26.18s.36.09.53,0a.68.68,0,0,0,0-.62l.36-.18c.18.09.26.26.44.18s-.09-.18.09-.27.27,0,.45-.09.17-.18.26-.18-.09-.17-.09-.26a2.54,2.54,0,0,0,.36-.45c.09.09,0,.18,0,.27s.17,0,.35.18a1.29,1.29,0,0,1,.27-.45c.18-.09.26,0,.44-.09s-.17-.09,0-.26.09,0,.18.09c.09-.09.18-.09.35-.18a.4.4,0,0,0,.27-.44h0c.18-.09.18.08.27,0s0-.18.09-.36.17.09.35-.09-.09-.18.09-.26.18.08.35-.09.09-.36.09-.54a.94.94,0,0,0,.71-.17c.09-.09-.09-.18.09-.36s.18.09.27,0a.16.16,0,0,0,0-.23l0,0c.09-.09.26.09.35.17l.89-.88c.09-.18-.18-.09,0-.27s.18.09.27-.09-.09-.18.09-.35.17,0,.35-.09.09-.18,0-.27c.18,0,.44-.09.62,0a1.29,1.29,0,0,1,.71-.35c0-.09-.09-.18-.26-.27l.17-.27c.09-.17.27-.08.36-.17.17.09.26-.09.44,0s0,.17.18.35a.55.55,0,0,0,.62-.09c.18.36.27.62.44,1-.09.09-.26.09-.35.18l.44.26-.17.27c-.18.18-.09,0-.27,0,0,.09,0,.18.18.35a.33.33,0,0,1-.27.09,3.64,3.64,0,0,1-.62.62c-.27.27-.62.54-.71.62s-.27.36-.36.45A1,1,0,0,0,70.25,36.63Z" fill="#3a494f"/>
        </g>
        <g>
          <path d="M81.79,30.69c.09.09.26.18.35.26v.36c.27.09.36.27.53.35s.09-.17.27-.08.09.17.27.26.53-.18.71-.18,0,.18.17.27.18-.18.36-.09.26.45.35.71a2.88,2.88,0,0,1,1.24.09c.36.18.18.27.45.53,0,0-.09,0,.09.09s.17-.09.35,0,0,.18.27.27a.79.79,0,0,0,.53-.36c.18.27.36.71.53.8s.8,0,1,.09,0,.18.18.27.26-.09.44,0c.35.17-.09.35.09.44s.09-.18.26,0,.18.27.36.36,1.06.17,1.24.26.36.45.53.53.45.18.62.27,0,.27-.08.36c.35.26.71.44,1.06.71.09-.27,0-.27.09-.36.09.09,0,.18.18.36s.26,0,.44.08.18.63.36.71.26,0,.44.09,0,.18.18.36a.55.55,0,0,0,.53,0c0,.18-.27.26-.09.44s.09-.17.27,0-.18.09,0,.27.08-.18.26,0-.09.18.09.26.36.09.44.18l.09.09.09.09a.33.33,0,0,1,.09.27c.09.08.18,0,.36-.09.17.09,0,.26.26.44s.36.09.53.36.18.53.36.8a4.77,4.77,0,0,1,.71.71c.18.26.09.26.09.35.18.18.26.44.44.62l.27.36a.32.32,0,0,1,.09.26c-.09,0-.18-.09-.18.09a4.94,4.94,0,0,1,.36,1.42c-.09.09-.09.27-.18.36-.09-.09,0-.27-.18-.54a1.41,1.41,0,0,1-.35.63c-.18.17.09.17-.09.35s-.36.09-.62.27,0,.17-.18.26-.18-.09-.36-.09-.08.27-.35.27-.89-.18-1.07-.18h-.17c-.09,0-.18-.09-.27-.09s-.26,0-.35.09a1.77,1.77,0,0,1-.62-.53c-.36-.09-.36-.27-.36,0s.27.18.27.36a4.81,4.81,0,0,0-1-.63,1.42,1.42,0,0,0-.89.27l-.62-.44c.09-.18,0-.45,0-.54s-.17.09-.26.27A.79.79,0,0,0,92.7,45c-.18-.09-.62.18-.8.09s-.09-.18-.26-.27-.18,0-.27.09c-.09-.18.09-.35-.09-.44s0,.17-.18.09-.09-.27-.26-.36c-.36-.09-.36-.18-.62.27L90,44.36a.75.75,0,0,0,0-.62c-.18-.09,0,.17-.18.09s0,0-.17-.09-.36.09-.54.09-.26-.09-.44-.18-.71-.8-.89-.8c-.62-.27-.62.09-.88-.09s.09-.36-.54-.71a1.64,1.64,0,0,1-.62-.09,1.39,1.39,0,0,1-.44-.71q-.14,0-.27.27l-.26-.18c-.18-.09-.09-.27-.18-.36s.09-.26.09-.35l-.18-.09c-.17-.09-.17.09-.35.18a2.07,2.07,0,0,1-.45-.27c-.09,0,0,.18-.17.09a1.34,1.34,0,0,1-.45-.71c-.09,0-.17,0-.35.18a.61.61,0,0,0-.36-.45,4.26,4.26,0,0,0-.62-.26c-.09-.09,0-.27.18-.36l-.36-.26c-.09,0-.17.17-.26.26l-.36-.26c-.17-.09,0-.18-.09-.36a.54.54,0,0,0-.35-.09c-.27-.53.09-.44-.36-.8-.26-.26-.8-.26-.88-.35s0-.53-.09-.71-.18.09-.27-.09.18-.09,0-.27a2.18,2.18,0,0,0-.89-.53c-.08,0,0,0-.17-.18a1.3,1.3,0,0,1-.09-.62v-.09l-.18-.18c-.09,0-.26.09-.35.09a1.25,1.25,0,0,0-.09-1.24c.09-.09.17.09.35,0,.45-.27.18-.89.53-1.07.18-.09.18-.09.27-.09s.53.63.89.45c.17-.09.09-.27.26-.27.27.45.62.36.71.45s.09.35.18.53.27.09.36.26-.09.09-.09.18a7.17,7.17,0,0,0,.35.8c.09.09.18.27.27.36s.35-.09.53.09,0,.08,0,.17l.35.36a1.61,1.61,0,0,0,.71.44.31.31,0,0,1-.26.09c-.09.09,0,.18-.09.36.09,0,.18-.09.27,0s0,.17,0,.26c.17,0,.17.09.35,0s0-.18.09-.26l.27.26a.41.41,0,0,0,.08.53c.18.09.09-.17.27-.09s-.18.09,0,.27.18-.09.36,0,0,.27.17.36a2,2,0,0,0,.62.26c.18,0,.27-.09.45-.09-.09.09-.27.09-.36.27.27.18.62.62.8.71s.27.18.45.18h0c.17.08,0,.08,0,.26.09,0,.17-.09.26-.26.09,0-.09.17.09.26s.09,0,.18-.09,0,.27-.09.36a6,6,0,0,1,1,.62c0,.09-.09.09,0,.18s.8,0,1,.08.09.45.27.54.09-.18.17-.09a.6.6,0,0,1,.27.53q.14,0,.27-.27l.26.09c0,.09.09.27.09.36s.27-.09.45-.36l.26.09c0,.09-.18.18-.26.18s-.09,0,.08.09.45-.18.63-.09,0,.18.17.26.18-.08.36-.08,0,.17.17.26.18,0,.27-.09c.09.18.09.27.18.45s.35.17.53.17a1.24,1.24,0,0,0,.53.18c.09,0,.18-.09.36-.18,0,0-.09-.09.09,0s.17.27.17.45.09.09.27.09.18-.27.26-.27a2.29,2.29,0,0,0,.27.62h.09c0-.09,0,.09-.09-.18a1.85,1.85,0,0,0-.18-.44h.09l.18.27c.09,0,0-.09-.09-.18a1.31,1.31,0,0,0,.27.35c.09.09,0,.09.09.09s-.18-.26-.09-.17.26.26.26.26-.09-.26-.09-.26.36.26.45.17-.27-.26-.27-.26.36.26.36.17-.36-.26-.27-.26a2.52,2.52,0,0,1,.71.26c-.18-.08-.09-.17-.53-.35a4.72,4.72,0,0,0-.53-.18c0-.09.35.09.35,0s-.09-.09-.35-.17a2.57,2.57,0,0,0,.62.08c-.09-.08-.36-.08-.36-.17h.53l-.8-.09L95,42.22a.85.85,0,0,0,.44-.09c-.27,0-.53,0-.53-.09l.26-.26-.35.17a.32.32,0,0,0,.09-.26c-.09-.18-.27-.36-.27-.45-.18-.17-.18-.17-.44.09l-.27-.26c-.18-.09-.09-.54-.26-.71s-.18.08-.36,0c0-.09,0-.36-.09-.45s-.35,0-.44-.09.17-.09,0-.26-.18.09-.36,0-.09-.27-.26-.45-.18.09-.36,0,.09-.09,0-.26-.18.09-.35,0-.18-.36-.18-.54q-.14,0-.27.27c-.09,0,.09-.18-.09-.27s-.08.18-.17.09.09-.09,0-.26-.09,0-.18.09-.44-.45-.71-.18c-.09,0,0-.27,0-.27s-.09-.35-.27-.44-.35.09-.53.27l-.35-.18c0-.18.09-.36-.09-.45s-.09.18-.27.09-.17-.26-.35-.35-.18-.09-.27-.09-.18.18-.18.27a1,1,0,0,0-.53,0c0-.09.09-.09.18-.18s-.09-.18-.09-.36h-.52c-.18-.09-.18-.26-.36-.35s0,.18-.18.09,0-.09-.08-.18-.18-.09-.36-.18a.59.59,0,0,0-.53-.08v.08c-.18-.08,0-.17-.18-.26s-.18.09-.35.09,0-.18-.18-.27-.09.18-.27.09-.09-.18-.17-.27-.36.09-.45.27a1,1,0,0,0-.53-.53c-.18-.09-.18.18-.35.09s0-.18-.18-.27-.18,0-.18.09-.09-.27,0-.35L81,34.15c-.18,0,0,.18-.18.18s0-.18-.17-.18-.18.18-.36.09-.09-.18-.27-.18-.17,0-.17.18a1,1,0,0,1-.27-.53,1.63,1.63,0,0,1-.62-.45c-.09,0-.09.09-.18.36h-.27c-.18,0-.18-.18-.36-.27,0-.18-.18-.18-.18-.44s.18-.09.18-.36a.58.58,0,0,0-.35-.44c.17-.27.44-.53.62-.8.09,0,.17.18.35.18V31H79c.26,0,.09.09.18.18s.17-.09.17-.35c.18,0,.18.08.27.17a4.53,4.53,0,0,1,.89.18c.44.09.8.26.88.26s.45.09.62.09A2.53,2.53,0,0,0,81.79,30.69Z" fill="#3a494f"/>
          <path d="M81.79,30.69c.09.09.26.18.35.26v.36c.27.09.36.27.53.35s.09-.17.27-.08.09.17.27.26.53-.18.71-.18,0,.18.17.27.18-.18.36-.09.26.45.35.71a2.88,2.88,0,0,1,1.24.09c.36.18.18.27.45.53,0,0-.09,0,.09.09s.17-.09.35,0,0,.18.27.27a.79.79,0,0,0,.53-.36c.18.27.36.71.53.8s.8,0,1,.09,0,.18.18.27.26-.09.44,0c.35.17-.09.35.09.44s.09-.18.26,0,.18.27.36.36,1.06.17,1.24.26.36.45.53.53.45.18.62.27,0,.27-.08.36c.35.26.71.44,1.06.71.09-.27,0-.27.09-.36.09.09,0,.18.18.36s.26,0,.44.08.18.63.36.71.26,0,.44.09,0,.18.18.36a.55.55,0,0,0,.53,0c0,.18-.27.26-.09.44s.09-.17.27,0-.18.09,0,.27.08-.18.26,0-.09.18.09.26.36.09.44.18l.09.09.09.09a.33.33,0,0,1,.09.27c.09.08.18,0,.36-.09.17.09,0,.26.26.44s.36.09.53.36.18.53.36.8a4.77,4.77,0,0,1,.71.71c.18.26.09.26.09.35.18.18.26.44.44.62l.27.36a.32.32,0,0,1,.09.26c-.09,0-.18-.09-.18.09a4.94,4.94,0,0,1,.36,1.42c-.09.09-.09.27-.18.36-.09-.09,0-.27-.18-.54a1.41,1.41,0,0,1-.35.63c-.18.17.09.17-.09.35s-.36.09-.62.27,0,.17-.18.26-.18-.09-.36-.09-.08.27-.35.27-.89-.18-1.07-.18h-.17c-.09,0-.18-.09-.27-.09s-.26,0-.35.09a1.77,1.77,0,0,1-.62-.53c-.36-.09-.36-.27-.36,0s.27.18.27.36a4.81,4.81,0,0,0-1-.63,1.42,1.42,0,0,0-.89.27l-.62-.44c.09-.18,0-.45,0-.54s-.17.09-.26.27A.79.79,0,0,0,92.7,45c-.18-.09-.62.18-.8.09s-.09-.18-.26-.27-.18,0-.27.09c-.09-.18.09-.35-.09-.44s0,.17-.18.09-.09-.27-.26-.36c-.36-.09-.36-.18-.62.27L90,44.36a.75.75,0,0,0,0-.62c-.18-.09,0,.17-.18.09s0,0-.17-.09-.36.09-.54.09-.26-.09-.44-.18-.71-.8-.89-.8c-.62-.27-.62.09-.88-.09s.09-.36-.54-.71a1.64,1.64,0,0,1-.62-.09,1.39,1.39,0,0,1-.44-.71q-.14,0-.27.27l-.26-.18c-.18-.09-.09-.27-.18-.36s.09-.26.09-.35l-.18-.09c-.17-.09-.17.09-.35.18a2.07,2.07,0,0,1-.45-.27c-.09,0,0,.18-.17.09a1.34,1.34,0,0,1-.45-.71c-.09,0-.17,0-.35.18a.61.61,0,0,0-.36-.45,4.26,4.26,0,0,0-.62-.26c-.09-.09,0-.27.18-.36l-.36-.26c-.09,0-.17.17-.26.26l-.36-.26c-.17-.09,0-.18-.09-.36a.54.54,0,0,0-.35-.09c-.27-.53.09-.44-.36-.8-.26-.26-.8-.26-.88-.35s0-.53-.09-.71-.18.09-.27-.09.18-.09,0-.27a2.18,2.18,0,0,0-.89-.53c-.08,0,0,0-.17-.18a1.3,1.3,0,0,1-.09-.62v-.09l-.18-.18c-.09,0-.26.09-.35.09a1.25,1.25,0,0,0-.09-1.24c.09-.09.17.09.35,0,.45-.27.18-.89.53-1.07.18-.09.18-.09.27-.09s.53.63.89.45c.17-.09.09-.27.26-.27.27.45.62.36.71.45s.09.35.18.53.27.09.36.26-.09.09-.09.18a7.17,7.17,0,0,0,.35.8c.09.09.18.27.27.36s.35-.09.53.09,0,.08,0,.17l.35.36a1.61,1.61,0,0,0,.71.44.31.31,0,0,1-.26.09c-.09.09,0,.18-.09.36.09,0,.18-.09.27,0s0,.17,0,.26c.17,0,.17.09.35,0s0-.18.09-.26l.27.26a.41.41,0,0,0,.08.53c.18.09.09-.17.27-.09s-.18.09,0,.27.18-.09.36,0,0,.27.17.36a2,2,0,0,0,.62.26c.18,0,.27-.09.45-.09-.09.09-.27.09-.36.27.27.18.62.62.8.71s.27.18.45.18h0c.17.08,0,.08,0,.26.09,0,.17-.09.26-.26.09,0-.09.17.09.26s.09,0,.18-.09,0,.27-.09.36a6,6,0,0,1,1,.62c0,.09-.09.09,0,.18s.8,0,1,.08.09.45.27.54.09-.18.17-.09a.6.6,0,0,1,.27.53q.14,0,.27-.27l.26.09c0,.09.09.27.09.36s.27-.09.45-.36l.26.09c0,.09-.18.18-.26.18s-.09,0,.08.09.45-.18.63-.09,0,.18.17.26.18-.08.36-.08,0,.17.17.26.18,0,.27-.09c.09.18.09.27.18.45s.35.17.53.17a1.24,1.24,0,0,0,.53.18c.09,0,.18-.09.36-.18,0,0-.09-.09.09,0s.17.27.17.45.09.09.27.09.18-.27.26-.27a2.29,2.29,0,0,0,.27.62h.09c0-.09,0,.09-.09-.18a1.85,1.85,0,0,0-.18-.44h.09l.18.27c.09,0,0-.09-.09-.18a1.31,1.31,0,0,0,.27.35c.09.09,0,.09.09.09s-.18-.26-.09-.17.26.26.26.26-.09-.26-.09-.26.36.26.45.17-.27-.26-.27-.26.36.26.36.17-.36-.26-.27-.26a2.52,2.52,0,0,1,.71.26c-.18-.08-.09-.17-.53-.35a4.72,4.72,0,0,0-.53-.18c0-.09.35.09.35,0s-.09-.09-.35-.17a2.57,2.57,0,0,0,.62.08c-.09-.08-.36-.08-.36-.17h.53l-.8-.09L95,42.22a.85.85,0,0,0,.44-.09c-.27,0-.53,0-.53-.09l.26-.26-.35.17a.32.32,0,0,0,.09-.26c-.09-.18-.27-.36-.27-.45-.18-.17-.18-.17-.44.09l-.27-.26c-.18-.09-.09-.54-.26-.71s-.18.08-.36,0c0-.09,0-.36-.09-.45s-.35,0-.44-.09.17-.09,0-.26-.18.09-.36,0-.09-.27-.26-.45-.18.09-.36,0,.09-.09,0-.26-.18.09-.35,0-.18-.36-.18-.54q-.14,0-.27.27c-.09,0,.09-.18-.09-.27s-.08.18-.17.09.09-.09,0-.26-.09,0-.18.09-.44-.45-.71-.18c-.09,0,0-.27,0-.27s-.09-.35-.27-.44-.35.09-.53.27l-.35-.18c0-.18.09-.36-.09-.45s-.09.18-.27.09-.17-.26-.35-.35-.18-.09-.27-.09-.18.18-.18.27a1,1,0,0,0-.53,0c0-.09.09-.09.18-.18s-.09-.18-.09-.36h-.52c-.18-.09-.18-.26-.36-.35s0,.18-.18.09,0-.09-.08-.18-.18-.09-.36-.18a.59.59,0,0,0-.53-.08v.08c-.18-.08,0-.17-.18-.26s-.18.09-.35.09,0-.18-.18-.27-.09.18-.27.09-.09-.18-.17-.27-.36.09-.45.27a1,1,0,0,0-.53-.53c-.18-.09-.18.18-.35.09s0-.18-.18-.27-.18,0-.18.09-.09-.27,0-.35L81,34.15c-.18,0,0,.18-.18.18s0-.18-.17-.18-.18.18-.36.09-.09-.18-.27-.18-.17,0-.17.18a1,1,0,0,1-.27-.53,1.63,1.63,0,0,1-.62-.45c-.09,0-.09.09-.18.36h-.27c-.18,0-.18-.18-.36-.27,0-.18-.18-.18-.18-.44s.18-.09.18-.36a.58.58,0,0,0-.35-.44c.17-.27.44-.53.62-.8.09,0,.17.18.35.18V31H79c.26,0,.09.09.18.18s.17-.09.17-.35c.18,0,.18.08.27.17a4.53,4.53,0,0,1,.89.18c.44.09.8.26.88.26s.45.09.62.09A2.53,2.53,0,0,0,81.79,30.69Z" fill="#3a494f"/>
        </g>
        <g>
          <path d="M76,38.14a1.29,1.29,0,0,0-.18.53c-.08.09-.26,0-.26.09a4.71,4.71,0,0,0-.27.71c0,.27.18.09.18.36s-.18.18-.18.44.27.62.27.89-.18,0-.18.27.18.17.18.44-.45.44-.62.62a5.38,5.38,0,0,1,.17,1.6c-.08.53-.26.27-.44.8,0,0,0-.09-.09.18s.18.17.18.44-.18.18-.18.45a1,1,0,0,0,.45.53c-.18.35-.63.71-.63,1s.27,1,.27,1.16-.18,0-.18.26.18.27.09.54c-.09.53-.35,0-.35.35s.17.09.17.36-.17.35-.26.62.18,1.33.18,1.6-.27.71-.27.88a2.67,2.67,0,0,0,.09.89c0,.09-.27.18-.36.09l-.17,1.69c.26-.09.26-.18.35-.18,0,.18-.18.09-.18.35s.18.27.09.54-.44.62-.44.88.18.27.09.54-.18.17-.18.44a.83.83,0,0,0,.27.62c-.09.18-.36,0-.36.27s.18,0,.18.26-.18-.09-.18.18.18,0,.18.26-.18,0-.18.27.18.36.09.62-.09.45-.26.45c0,.08.08.17.35.17,0,.18-.18.09-.18.36s.18.26.09.53-.26.62-.26.8.17.18.17.18-.09.09-.17.17a.33.33,0,0,1-.09.27c-.09.09.09.09.09.09s-.18.18-.09.18.62-.36.62-.54h.17c0,.09-.09.09-.09.18s-.09.09-.09.18h.62a.31.31,0,0,0,.18-.09.09.09,0,0,1,.08-.09h0c.09,0,.09.18.18.18s0-.18,0-.18.08.18.17.18,0-.18,0-.18a.19.19,0,0,0,.18-.18c0-.09.09-.17-.18-.26.09,0,.18-.09.36-.18,0-.27.09-.35-.09-.35S75,63,74.86,63c.18-.26.36-.53.27-.8a1.11,1.11,0,0,0-.53-.62v-.35c.17,0,.35-.27.53-.36,0-.09-.18-.09-.36-.18.18-.26.36-.44.27-.71s-.44-.62-.44-.88.17-.18.17-.45-.09-.17-.17-.26c.08-.18.35,0,.35-.27s-.18.09-.18-.18.18-.26.18-.53c0-.44-.09-.53-.53-.62v-.35c.18,0,.53-.18.53-.36s-.18.09-.18-.18.18,0,.18-.26-.27-.36-.35-.53a1.32,1.32,0,0,1-.09-.62c0-.27.26-1.34.26-1.6-.09-.89-.35-.62-.44-1.07s.35-.18.26-1.06a2.5,2.5,0,0,0-.26-.8c-.09-.27.18-.71.26-1.07,0-.09-.17-.18-.35-.18v-.35c0-.27.18-.27.18-.44s.26-.09.35-.18v-.27c0-.26-.18-.17-.35-.26,0-.18-.09-.54-.09-.71s-.18.09-.18-.18a6.71,6.71,0,0,1,.27-1.07c0-.08-.18-.17-.36-.17a.93.93,0,0,0,.09-.71,1.42,1.42,0,0,0-.27-.8c0-.09.18-.18.36-.18v-.62a2,2,0,0,1-.8.17V42.4c0-.26.18-.09.18-.35s-.09-.36-.18-.36c.18-.8.35-.35.27-1.06,0-.45-.45-1-.45-1.16s.36-.53.27-.8-.18,0-.18-.26.18,0,.18-.27a4,4,0,0,0-.45-1.24v-.27a2.3,2.3,0,0,1,.27-.8v-.26c-.09-.09-.27,0-.36-.09a1,1,0,0,0,.45-1.07c.09,0,.09.18.35.18.54,0,.54-.71.89-.8H75c.09.18.26.8.62.8.17,0,.17-.18.35-.18.09.54.45.63.45.89s-.09.27-.09.36-.09.17,0,.26c0,.27.17.36.17.62s-.08.09-.17.18c0,.44-.09,1.06-.09,1.33s-.09.53.09.62a.76.76,0,0,1,.35.62c0,.27-.09.09-.17.18v.8a4,4,0,0,0,.26,1.24c-.09,0-.18-.09-.26-.18s-.09.18-.27.36c0,.09.18.09.18.35s-.09.18-.18.27c.09.18.09.36.27.36s.08-.18.26-.18v.63c-.18.17-.35.35-.26.53s.17-.09.17.18-.17,0-.17.26.17.18.17.45-.17.26-.17.53a1.93,1.93,0,0,0,.26,1c.09.18.27.27.36.45-.09,0-.27-.18-.36-.18a6.93,6.93,0,0,1-.09,1.51,1,1,0,0,0,.18.71h.09c0,.27-.09.09-.18.27s.18.08.36.08c0,.18-.18.09-.18.36s.09.09.18.09c0,.18-.18.18-.36.18a9.42,9.42,0,0,1,.09,1.68c-.09.09-.18-.09-.09.18a6.81,6.81,0,0,1,.45,1.24c0,.27-.36.36-.36.62s.18-.09.18.18a.75.75,0,0,1-.36.62c0,.09.18.09.36.09v.35c-.09,0-.18.27-.36.36a.87.87,0,0,0,.53.35v.36c-.08,0-.26-.18-.26-.18s-.09-.09-.09.18.35.44.44.71-.17.18-.17.44.17.18.17.45-.17.09-.17.35.09.18.17.27l-.26.53c-.09.18,0,.53,0,.8a2.17,2.17,0,0,0,.09.8c0,.09.17.18.35.35,0,0,0-.08.09.18s-.18.36-.27.53,0,.18,0,.45c.09.88.36.62.45,1.06s-.27.45-.45.89v.35c.09.18,0,.09.18.09s.18-.35.36-.35l.09,1.42c0,.53-.18.44-.09.89a2.06,2.06,0,0,0,.26,1.06c-.17-.09-.26-.53-.35-.53s-.09-.09,0,.35a3.58,3.58,0,0,0,.09.45c0,.09.17.26-.09.26-.45,0-.45-.17-.89-.17s-.71.17-1.15.17-.71-.17-1.16-.17.09.17-.35.17c-.27,0-.27,0-.27-.09s0-.08-.18-.08-.08.17-.35.17a1.33,1.33,0,0,1-.8-.35c-.27.09-.53.09-.62.26s.35.09.26.27c-.62,0-.62-.18-1.06-.18s-.36,0-.53.18a2,2,0,0,0-1-.36h-.26c-.09,0-.27.09-.18,0s-.09-.17-.09-.26v-.09c0-.18.27-.36.44-.89l-.26.09.17-1.51c.09-.09.27-.44.45-.62-.09-.18-.09-.62-.18-.89a1.55,1.55,0,0,1-.09-.53.6.6,0,0,1,.45-.53c0-.09-.09-.18-.36-.18a7.32,7.32,0,0,0,.53-1.51c0-.35,0-.35-.35-.35l.09-.53c0-.27.44-.62.44-.89s-.18-.18-.18-.44.27-.45.27-.71-.18-.36-.09-.62.18.08.18-.18-.18-.18-.18-.45.18-.35.27-.62-.18-.17-.18-.44.18.09.18-.18-.18-.17-.18-.44a.56.56,0,0,1,.44-.53c0-.09-.08-.18-.35-.18,0-.18.18,0,.18-.27s-.18,0-.18-.26.18.09.18-.18-.09-.09-.09-.18.26-.8-.09-1.06c0-.18.18-.18.26-.18a1.2,1.2,0,0,0,.27-.62c0-.18-.18-.35-.44-.53l.09-.62c.17-.09.35-.18.35-.45S71,49.25,71,49s.18-.36.27-.62v-.45c-.09-.08-.18-.08-.27-.17a2,2,0,0,0-.17-.8.18.18,0,0,1,.17.17c.09,0,.18-.17.36-.26a.93.93,0,0,1-.09-.71c0-.27.18-.36.27-.62s-.18,0-.18-.27.09-.09.18-.18.08-.26.08-.53.09-.53-.08-.71H71.4c0-.26.17-.09.17-.35s-.17-.18-.17-.45.17-.17.17-.44-.17-.09-.17-.36.17-.17.17-.44a.8.8,0,0,0-.26-.62,2.13,2.13,0,0,0,.44-.89c0-.26-.18-.17-.18-.44s.18,0,.18-.27,0-.17-.18-.26c0-.18.27-.18.36-.18l.18-1.78c0-.26-.18,0-.18-.26s.18,0,.18-.27-.18-.17-.18-.44.18-.18.18-.45,0-.17-.18-.26a2.75,2.75,0,0,1,.53-.36c.09-.17.27-.62.45-.62,0-.09-.09-.09-.36-.17v-.27c0-.18.18-.18.27-.36.17,0,.17-.17.44-.17s.09.17.36.17a.79.79,0,0,0,.53-.26c.26.18.53.44.8.62,0,.09-.18.18-.18.35l.53.09V35c0,.18-.09.09-.17.09s.08.09.35.18a.18.18,0,0,1-.18.17,2.38,2.38,0,0,1-.17.8,2.53,2.53,0,0,1,.44,1.6c0,.27-.09.53,0,.71A2,2,0,0,1,76,38.14Z" fill="#3a494f"/>
          <path d="M76,38.14a1.29,1.29,0,0,0-.18.53c-.08.09-.26,0-.26.09a4.71,4.71,0,0,0-.27.71c0,.27.18.09.18.36s-.18.18-.18.44.27.62.27.89-.18,0-.18.27.18.17.18.44-.45.44-.62.62a5.38,5.38,0,0,1,.17,1.6c-.08.53-.26.27-.44.8,0,0,0-.09-.09.18s.18.17.18.44-.18.18-.18.45a1,1,0,0,0,.45.53c-.18.35-.63.71-.63,1s.27,1,.27,1.16-.18,0-.18.26.18.27.09.54c-.09.53-.35,0-.35.35s.17.09.17.36-.17.35-.26.62.18,1.33.18,1.6-.27.71-.27.88a2.67,2.67,0,0,0,.09.89c0,.09-.27.18-.36.09l-.17,1.69c.26-.09.26-.18.35-.18,0,.18-.18.09-.18.35s.18.27.09.54-.44.62-.44.88.18.27.09.54-.18.17-.18.44a.83.83,0,0,0,.27.62c-.09.18-.36,0-.36.27s.18,0,.18.26-.18-.09-.18.18.18,0,.18.26-.18,0-.18.27.18.36.09.62-.09.45-.26.45c0,.08.08.17.35.17,0,.18-.18.09-.18.36s.18.26.09.53-.26.62-.26.8.17.18.17.18-.09.09-.17.17a.33.33,0,0,1-.09.27c-.09.09.09.09.09.09s-.18.18-.09.18.62-.36.62-.54h.17c0,.09-.09.09-.09.18s-.09.09-.09.18h.62a.31.31,0,0,0,.18-.09.09.09,0,0,1,.08-.09h0c.09,0,.09.18.18.18s0-.18,0-.18.08.18.17.18,0-.18,0-.18a.19.19,0,0,0,.18-.18c0-.09.09-.17-.18-.26.09,0,.18-.09.36-.18,0-.27.09-.35-.09-.35S75,63,74.86,63c.18-.26.36-.53.27-.8a1.11,1.11,0,0,0-.53-.62v-.35c.17,0,.35-.27.53-.36,0-.09-.18-.09-.36-.18.18-.26.36-.44.27-.71s-.44-.62-.44-.88.17-.18.17-.45-.09-.17-.17-.26c.08-.18.35,0,.35-.27s-.18.09-.18-.18.18-.26.18-.53c0-.44-.09-.53-.53-.62v-.35c.18,0,.53-.18.53-.36s-.18.09-.18-.18.18,0,.18-.26-.27-.36-.35-.53a1.32,1.32,0,0,1-.09-.62c0-.27.26-1.34.26-1.6-.09-.89-.35-.62-.44-1.07s.35-.18.26-1.06a2.5,2.5,0,0,0-.26-.8c-.09-.27.18-.71.26-1.07,0-.09-.17-.18-.35-.18v-.35c0-.27.18-.27.18-.44s.26-.09.35-.18v-.27c0-.26-.18-.17-.35-.26,0-.18-.09-.54-.09-.71s-.18.09-.18-.18a6.71,6.71,0,0,1,.27-1.07c0-.08-.18-.17-.36-.17a.93.93,0,0,0,.09-.71,1.42,1.42,0,0,0-.27-.8c0-.09.18-.18.36-.18v-.62a2,2,0,0,1-.8.17V42.4c0-.26.18-.09.18-.35s-.09-.36-.18-.36c.18-.8.35-.35.27-1.06,0-.45-.45-1-.45-1.16s.36-.53.27-.8-.18,0-.18-.26.18,0,.18-.27a4,4,0,0,0-.45-1.24v-.27a2.3,2.3,0,0,1,.27-.8v-.26c-.09-.09-.27,0-.36-.09a1,1,0,0,0,.45-1.07c.09,0,.09.18.35.18.54,0,.54-.71.89-.8H75c.09.18.26.8.62.8.17,0,.17-.18.35-.18.09.54.45.63.45.89s-.09.27-.09.36-.09.17,0,.26c0,.27.17.36.17.62s-.08.09-.17.18c0,.44-.09,1.06-.09,1.33s-.09.53.09.62a.76.76,0,0,1,.35.62c0,.27-.09.09-.17.18v.8a4,4,0,0,0,.26,1.24c-.09,0-.18-.09-.26-.18s-.09.18-.27.36c0,.09.18.09.18.35s-.09.18-.18.27c.09.18.09.36.27.36s.08-.18.26-.18v.63c-.18.17-.35.35-.26.53s.17-.09.17.18-.17,0-.17.26.17.18.17.45-.17.26-.17.53a1.93,1.93,0,0,0,.26,1c.09.18.27.27.36.45-.09,0-.27-.18-.36-.18a6.93,6.93,0,0,1-.09,1.51,1,1,0,0,0,.18.71h.09c0,.27-.09.09-.18.27s.18.08.36.08c0,.18-.18.09-.18.36s.09.09.18.09c0,.18-.18.18-.36.18a9.42,9.42,0,0,1,.09,1.68c-.09.09-.18-.09-.09.18a6.81,6.81,0,0,1,.45,1.24c0,.27-.36.36-.36.62s.18-.09.18.18a.75.75,0,0,1-.36.62c0,.09.18.09.36.09v.35c-.09,0-.18.27-.36.36a.87.87,0,0,0,.53.35v.36c-.08,0-.26-.18-.26-.18s-.09-.09-.09.18.35.44.44.71-.17.18-.17.44.17.18.17.45-.17.09-.17.35.09.18.17.27l-.26.53c-.09.18,0,.53,0,.8a2.17,2.17,0,0,0,.09.8c0,.09.17.18.35.35,0,0,0-.08.09.18s-.18.36-.27.53,0,.18,0,.45c.09.88.36.62.45,1.06s-.27.45-.45.89v.35c.09.18,0,.09.18.09s.18-.35.36-.35l.09,1.42c0,.53-.18.44-.09.89a2.06,2.06,0,0,0,.26,1.06c-.17-.09-.26-.53-.35-.53s-.09-.09,0,.35a3.58,3.58,0,0,0,.09.45c0,.09.17.26-.09.26-.45,0-.45-.17-.89-.17s-.71.17-1.15.17-.71-.17-1.16-.17.09.17-.35.17c-.27,0-.27,0-.27-.09s0-.08-.18-.08-.08.17-.35.17a1.33,1.33,0,0,1-.8-.35c-.27.09-.53.09-.62.26s.35.09.26.27c-.62,0-.62-.18-1.06-.18s-.36,0-.53.18a2,2,0,0,0-1-.36h-.26c-.09,0-.27.09-.18,0s-.09-.17-.09-.26v-.09c0-.18.27-.36.44-.89l-.26.09.17-1.51c.09-.09.27-.44.45-.62-.09-.18-.09-.62-.18-.89a1.55,1.55,0,0,1-.09-.53.6.6,0,0,1,.45-.53c0-.09-.09-.18-.36-.18a7.32,7.32,0,0,0,.53-1.51c0-.35,0-.35-.35-.35l.09-.53c0-.27.44-.62.44-.89s-.18-.18-.18-.44.27-.45.27-.71-.18-.36-.09-.62.18.08.18-.18-.18-.18-.18-.45.18-.35.27-.62-.18-.17-.18-.44.18.09.18-.18-.18-.17-.18-.44a.56.56,0,0,1,.44-.53c0-.09-.08-.18-.35-.18,0-.18.18,0,.18-.27s-.18,0-.18-.26.18.09.18-.18-.09-.09-.09-.18.26-.8-.09-1.06c0-.18.18-.18.26-.18a1.2,1.2,0,0,0,.27-.62c0-.18-.18-.35-.44-.53l.09-.62c.17-.09.35-.18.35-.45S71,49.25,71,49s.18-.36.27-.62v-.45c-.09-.08-.18-.08-.27-.17a2,2,0,0,0-.17-.8.18.18,0,0,1,.17.17c.09,0,.18-.17.36-.26a.93.93,0,0,1-.09-.71c0-.27.18-.36.27-.62s-.18,0-.18-.27.09-.09.18-.18.08-.26.08-.53.09-.53-.08-.71H71.4c0-.26.17-.09.17-.35s-.17-.18-.17-.45.17-.17.17-.44-.17-.09-.17-.36.17-.17.17-.44a.8.8,0,0,0-.26-.62,2.13,2.13,0,0,0,.44-.89c0-.26-.18-.17-.18-.44s.18,0,.18-.27,0-.17-.18-.26c0-.18.27-.18.36-.18l.18-1.78c0-.26-.18,0-.18-.26s.18,0,.18-.27-.18-.17-.18-.44.18-.18.18-.45,0-.17-.18-.26a2.75,2.75,0,0,1,.53-.36c.09-.17.27-.62.45-.62,0-.09-.09-.09-.36-.17v-.27c0-.18.18-.18.27-.36.17,0,.17-.17.44-.17s.09.17.36.17a.79.79,0,0,0,.53-.26c.26.18.53.44.8.62,0,.09-.18.18-.18.35l.53.09V35c0,.18-.09.09-.17.09s.08.09.35.18a.18.18,0,0,1-.18.17,2.38,2.38,0,0,1-.17.8,2.53,2.53,0,0,1,.44,1.6c0,.27-.09.53,0,.71A2,2,0,0,1,76,38.14Z" fill="#3a494f"/>
        </g>
      </g>
    </g>
  </g>
</svg>
