<?xml version="1.0" encoding="utf-8"?>
<!-- Generator: Adobe Illustrator 18.0.0, SVG Export Plug-In . SVG Version: 6.00 Build 0)  -->
<!DOCTYPE svg PUBLIC "-//W3C//DTD SVG 1.1//EN" "http://www.w3.org/Graphics/SVG/1.1/DTD/svg11.dtd">
<svg version="1.1" id="Layer_1" xmlns="http://www.w3.org/2000/svg" xmlns:xlink="http://www.w3.org/1999/xlink" x="0px" y="0px"
	 viewBox="0 0 121.1 114" enable-background="new 0 0 121.1 114" xml:space="preserve">
<g>
	<path fill="#FFFFFF" d="M120.9,84.6l-11.5-17V4.3c0-1.8-1.4-3.2-3.2-3.2H4.3c-1.8,0-3.2,1.4-3.2,3.2v105.2c0,1.8,1.4,3.2,3.2,3.2
		h102c1.8,0,3.2-1.4,3.2-3.2V84.6H120.9z"/>
	<g>
		<g>
			<path fill-rule="evenodd" clip-rule="evenodd" fill="#3A494F" d="M112.9,75.1c-0.5-0.8-1.2-1.9-1.9-3.1c-0.2-0.4,0-0.3-0.4-0.9
				c-0.6-0.9-1.1-1.6-1.5-2.4c-0.1-0.2-0.3-0.5-0.4-0.7l-0.1-0.2c0-0.1,0-0.2,0-0.3l0-0.5c0-0.4,0-0.9,0-1.3c0-1.8-0.1-0.4-0.1-2.2
				c0-1.8,0.1-1.1,0.1-2.9s-0.2-4-0.2-5.9c0-1.8,0.1-0.4,0.1-2.2s-0.1-1.1-0.1-2.9c0-1.8,0.2-3.6,0.3-4.8c-0.1-2.7-0.2-8.8-0.2-10.6
				c0-3.6,0.1-2.3,0.2-5.6c0,0,0,0.8,0-1c0-1.8-0.1-1.1-0.1-2.9s0.1-1.1,0.1-2.9c0-0.8-0.1-2.5-0.3-3.2c0.1-2.5,0.3-5.3,0.3-7.1
				c0-0.9-0.1-2.5-0.1-4c0-0.8-0.1-1.6-0.1-2.3c0-0.4,0-0.7,0-1c0-0.2,0-0.4-0.1-0.5c-0.2-0.6-0.3-0.6-0.3-0.7c0-0.1,0-0.2-0.5-0.6
				c-0.6-0.4-0.9-0.4-1.2-0.4c-0.4,0-0.9,0.1-1.8,0c-3.8,0-0.4-0.2-2.9-0.2c-1.8,0-0.4,0.1-2.2,0.1c-1.8,0-2.6-0.1-4.4-0.1
				c-1.8,0-9.2,0.2-11,0.2c-1.8,0-4.8-0.1-6.6-0.1c-1.8,0-4.6,0.1-6.2,0.1c-0.8,0-1.2-0.1-1.1-0.2H58.2C59,2,59.8,2,59.7,2.1
				c-1,0-1-0.1-2.8-0.1C55,2,55,2.1,53.2,2.1s-4.8-0.2-6.6-0.2c-1.8,0-1.8,0.1-3.7,0.1c-1.8,0-1.1-0.1-2.9-0.1S37,2,36,2.1
				c-1.1-0.1-0.1-0.2-1.9-0.2c-1.8,0,0.4,0.1-1.5,0.1c-1.8,0,0.4-0.1-1.5-0.1c-1.8,0,0.4,0.1-1.5,0.1c-1.8,0-0.4-0.1-2.2-0.1
				c-1.8,0-2.6,0.1-4.4,0.1s-2.9,0-3.5-0.1c-0.5,0-0.9,0.1-1,0.2c-1,0-1-0.1-2.8-0.1c-1.8,0-1.8,0.1-3.7,0.1C10.2,2.1,8,2,6.2,2
				C5.7,2,5.2,2,4.7,2C4.2,2,3.9,2,3.6,2.2C2.9,2.4,2.4,3,2.2,3.6C2.1,3.9,2.1,4.1,2.1,4.4c0,0.3,0,0.5,0,0.7C2.1,5.4,2,5.7,2,6
				c0,3.6,0,7.2,0,10.8c-0.1,0.4-0.1-0.7-0.1,1.2c0,1.8,0.2,6.8,0.3,9.8v2.6c-0.1,0.1-0.1-1.4-0.2-2.9v5.5c0,1.8,0.1,0.8,0.1,2.7
				S2,38.2,2,40c0,1.8,0.1,1.1,0.1,2.9S2,43.3,2,45.1c0,1.8,0.1,2.6,0.1,4.4c0,1.8-0.1,6.3-0.1,8.1c0,1.4,0,4.4,0.1,5.4
				c-0.1,1.1-0.1,2.6-0.2,3.2c0,2-0.1,2.4,0.1,2.4c0.1,0,0.1-1.5,0.2-1.2C2,69.3,1.9,71.2,1.9,73c0,0.5,0.1,4,0.3,4.5v2.7
				c-0.1,0.1-0.2,1.5-0.3,2.1c0,0.5,0.1,0.9,0.2,1.1c-0.1,1.9-0.2,3.1-0.2,4.9c0,1.8,0.2,4.8,0.2,6.6C2.1,96.9,2,96.2,2,98
				s0,1.5,0.1,1.7c-0.1,1.1-0.2,0.1-0.2,2c0,1.8,0.1-0.4,0.1,1.5s-0.1,1.8-0.1,3.7c0,0.8,0,1.4,0,2c0,0.3,0,0.5,0,0.7
				c0,0.2,0,0.3,0.1,0.4c0.2,0.5,0.4,0.6,0.6,0.7c0,0,0.2,0.4,0.6,0.6c0.4,0.2,0.8,0.3,0.8,0.3c-0.1,0.1,1.1,0.3,2.2,0.3
				c1.8,0-0.4-0.1,1.5-0.1c1.8,0-0.4,0.1,1.5,0.1c1.8,0,2.7-0.1,4-0.2c1.1-0.1,2.2,0,4.1,0c1.8,0,9.2,0.2,11,0.2
				c6.3,0,4.4-0.2,7.3-0.2c3.1,0,1,0.2,7.3,0.2c1.8,0,4.1-0.1,5.9-0.1c1.8,0,5,0.1,7.1,0.2c0.6,0,1-0.1,1.1-0.2h2.5
				c1.8,0,1.5,0.1,2.9,0.1c0.4,0.1,0.3,0.2,0.9,0.2h2.1c1.8,0,1.2-0.1,2.2-0.2c1.4,0,3.6,0,5,0c0.7,0-0.6-0.1,1.2-0.1
				c1.8,0,5,0.1,7.1,0.2c0.6,0,1-0.1,1.2-0.2c1.1,0.1,3.1,0.1,4.9,0.1c1.8,0,3.9-0.1,5.4-0.1c0.8,0,1.2,0.1,1.1,0.2h4
				c0.6-0.1,0.5-0.1,0.6-0.2h3.8c1.8,0,0.8,0.1,2.7,0.1c0.9,0,1.5,0,1.8,0c0.3,0,0.3-0.1,0.4-0.1c0.9-0.2,1.3-0.7,1.5-1
				c0.2-0.3,0.3-0.5,0.3-0.7c0-0.1,0.1-0.2,0.1-0.3c0-0.1,0-0.1,0-0.2c0-0.1,0-0.2,0-0.3c0-0.5,0-1.3,0-2.6c0-3.2-0.2-7.1-0.2-8.1
				c0-1.8,0.2-3.3,0.2-5.1c0-1.8-0.1-0.4-0.1-2.2s0.1,0.4,0.1-1.5c0-0.9,0-2.5-0.1-4.2c0-0.3,0-0.6,0-0.9l0-0.5l0-0.1l0-0.1l0.1,0
				l0.2,0c0.6,0,1.2,0,1.8,0c0.8,0,1.5-0.1,2.1-0.1c0.6,0,0,0,1.8,0c0.9,0,2,0,3,0.1c0.5,0,1,0,1.4,0.1c0.1,0,0.2,0,0.3,0
				c0.1,0,0.2,0,0.2,0l0,0h0.1c0,0,0-0.1,0.1-0.2c0.2,0.2,0.3,0.4,0.6,0.3c0,0.1-0.1,0.1-0.1,0.2c0,0.3,0.4,0.4,0.4,0.6
				c0,0.1,0,0.1,0,0.1c-0.1,0-0.5,0.1-0.5,0.4c0,0.1,0.1,0.1,0.1,0.2c-0.3,0-0.4,0.2-0.5,0.2c-0.1,0-0.1,0-0.2-0.1l0,0
				c0,0,0,0-0.1,0l-0.6,0c-0.4,0-0.9,0-1.3,0c-1.8,0-2.6,0.1-4.4,0.1c-1.8,0-0.6-0.1-1.2-0.1c-0.4,0-0.7,0-1.1,0l-0.1,0l-0.1,0
				l-0.1,0c-0.1,0,0,0.1-0.1,0.2c0,0.4,0,0.7,0,1.1c0,1.7,0,3.2-0.1,4.2c0,1.8-0.1,3.4,0,4.6s0.2,2.4,0.2,4.2c0,1.8-0.1,0.6-0.1,1.2
				c0,1.4,0,3.5,0,5.4c0,0.5,0,1,0,1.7c0,0.3,0,0.7,0,1c0,0.2,0,0.4,0,0.6c0,0.2-0.1,0.5-0.1,0.7c-0.3,1-0.9,1.9-1.9,2.5
				c-0.5,0.3-1,0.5-1.6,0.6c-0.3,0.1-0.6,0.1-0.8,0.1l-0.6,0c-0.1,0,0.1-0.1,0.4-0.1c0.2,0,0.3,0,0.5,0c0.2,0,0.5,0,0.7-0.1
				c0,0-0.1,0-0.3,0c-0.2,0-0.5,0-0.7,0c-0.4,0-0.9-0.1-1.2-0.1c-0.5,0-0.5,0.1-2.4,0.1c-1.8,0-1.4-0.1-1.9-0.1
				c-1.2,0.1-2.5,0-2.5,0.2c0,0.1,1.5,0.1,1.4,0.2h-4.1c-0.9-0.1-2-0.2-3.8-0.2c-1.8,0,0.4,0.1-1.5,0.1c-1.8,0,0.4-0.1-1.5-0.1
				c-1.8,0-1.1,0.1-2.9,0.1c-1.8,0-1.8-0.1-3.7-0.1s-4.9,0.1-6.8,0.1c-1.3,0-2.1,0.1-3.2,0.2c-0.2-0.1,1.2-0.1,1.3-0.2
				c-3.4,0-8.6-0.1-10.4-0.1c-1.8,0-3.7,0-4.9,0.1v0c-2.1,0-0.9-0.1-1.5-0.1c-0.6,0-1,0.1-1.1,0.2c-1,0-0.3-0.1-2.1-0.1
				s-0.7,0-0.8,0.1c-1,0-1.4-0.1-1.3-0.2c-3.4,0-7.8,0-11.5,0c-0.3,0,0.8-0.1-1.1-0.1c-1.8,0-7,0.2-8.8,0.2c-1.8,0-2.6-0.2-4.4-0.2
				s0.4,0.1-1.5,0.1c-1.8,0-3.6-0.1-4.2-0.2c-0.5,0-0.9,0.1-1,0.2h-2.7c-0.1-0.1-1.5-0.1-2-0.2c-0.5,0-1.9,0.1-2.6,0.3H8.5
				c-0.1-0.1,1.4-0.1,1.4-0.2c-0.7,0,0.3,0-1.5,0c-0.9,0-1.7,0.1-2.6,0.1c-0.4,0-0.8,0.1-1.3,0.1l-0.3,0l-0.4,0
				c-0.3,0-0.6-0.1-0.9-0.2c-0.6-0.2-0.9-0.4-1.2-0.6c-0.2-0.2-0.4-0.3-0.5-0.5c-0.2-0.3-0.5-0.5-1-1.7c-0.2-0.6-0.2-1-0.2-1.3
				c0-0.2,0-0.4,0-0.5c0-0.3-0.1-0.6-0.1-1.5c0-1.8,0.1-0.4,0.1-2.2s0-1.5-0.1-1.7c0.1-1.1,0.1-2.2,0.2-3.3c0.1-1.2,0-3.5,0-5.3
				c0-1.8,0-4,0-5.4c0-0.8-0.1-1.3-0.2-2.4c0,0,0,0.8,0-1c0-1.8,0.1-2.6,0.2-3.6c0-0.5,0-1.2,0-3c0-6.2-0.2-4.3-0.2-7.3
				c0-2.4,0.2-2.8,0.3-5.6v-2c0-0.6,0-0.5-0.1-0.5c-0.1,0-0.1,1.5-0.2,1.4v-5.3c0-1.8,0.1-1.9,0.1-3.8s0-2.7-0.1-3.8
				C0.1,52.5,0.1,54,0.2,54c0-0.7,0,0.3,0-1.5c0-1.8-0.1-1.1-0.1-2.9s0.1-1.1,0.1-2.9c0-1.8-0.1-3.3-0.1-5.1s0.1-2.6,0.1-4.4
				s-0.1,0.4-0.1-1.5s0.1-0.4,0.1-2.2c0-1.8-0.1-0.4-0.1-2.2c0-1.8,0.1-3.6,0.2-4.2c-0.1-1.2,0-2.5-0.2-2.5C0,24.6,0.1,26,0,25.9
				c0-2.5,0.1-2.5,0.1-4.3s0-1.5-0.1-1.7c0.1-1.9,0.2-3.1,0.2-4.9s-0.1-2.6-0.1-4c0-0.7,0.1-0.9,0.2-2.7H0c0,0,0-1.4,0-2.8
				c0-0.4,0-0.7,0-1c0-0.3,0-0.8,0.1-1.2c0.2-0.7,0.4-1.1,0.4-1.1c0.1,0,0.3-0.5,0.8-0.9c0.4-0.4,1-0.7,1.3-0.8
				c0.3-0.1,0.6-0.3,1-0.3c0.2,0,0.4-0.1,0.6-0.1c0.2,0,0.3,0,0.5,0c0.7,0,1.4,0,2.1-0.1C8.2,0,9.7,0,10.6,0c1.8,0,3.6,0.1,4.2,0.2
				c0.5,0,0.9-0.1,1.1-0.2c3.3,0.1,9,0.2,10.8,0.2c2.5,0,2.4,0,2.3-0.2h3.8c1.8,0,4.5,0.2,6.3,0.2s1.1-0.1,2.9-0.1
				c1.8,0,3.3,0.1,5.1,0.1c1.8,0,2.6-0.1,4.4-0.1s-0.4,0.1,1.5,0.1s1.1-0.1,2.9-0.1c1.8,0,2.6,0.1,4.4,0.1c1.8,0,1.1-0.1,2.9-0.1
				c1.8,0-0.4,0.1,1.5,0.1s1.1-0.1,2.9-0.1s3.6,0.1,4.2,0.2c0.5,0,0.9-0.1,1-0.2c1,0,0.3,0.1,2.1,0.1c1.8,0-0.4-0.1,1.5-0.1
				c1.8,0-0.4,0.1,1.5,0.1s0.8,0,1.2-0.1c1.4,0,5.8,0.1,7.1-0.1c0.9,0,1.3,0.1,1.5,0.2c1.1,0,2.4,0.2,4.2,0.2c1.1,0,2.5-0.1,3.1-0.3
				h4.1c0.9,0.1,1.3,0.2,3.1,0.2c1.8,0,0.4-0.1,2.2-0.1c0.5,0,0.8,0,1.2,0c0.2,0,0.3,0,0.5,0c0.2,0,0.4,0,0.6,0.1
				c0.8,0.2,1.6,0.5,2.4,1.4c0.8,0.9,0.9,1.7,1,2.3c0,0.3,0,0.5,0,0.7c0,0.2,0,0.3,0,0.5c0,0.7,0.1,0.6,0.2,0.9c0,0.8,0,2.6,0.1,5.3
				c-0.1,0.2-0.1-0.7-0.1-1.3c0,0-0.1,1.5-0.2,2c0.1,1.2,0.1,2.8,0.1,4.7c0,1.8-0.1,2.6-0.1,4.4c0,1.8,0.1-0.4,0.1,1.5
				c0,1.8-0.1,0.6-0.1,1.2c0,1.4,0,2.1,0,3.9c0,1.8,0,3.7,0.1,4.9h0c0,2.1-0.1,0.6-0.1,2.4c0,1.8,0.1,1.1,0.1,2.9s-0.1,1.1-0.1,2.9
				c0,1.8,0.1,0.4,0.1,2.2c0,1.8-0.1,1.1-0.1,2.9s0.1,3,0.2,4c-0.1,1.8-0.2,4.5-0.2,6.3c0,1.8,0.1,1.1,0.1,2.9s-0.1,0.4-0.1,2.2
				c0,1.8,0,1.5,0.1,1.6c0,1-0.1,1.4-0.2,1.3c0,0,0,0.8,0,2c0,0.3,0,0.6,0,1c0,0.1,0,0.2,0,0.2c0.1,0.1,0.1,0.2,0.2,0.3
				c0.4,0.6,0.9,1.3,1.3,1.9c1.8,2.6,3.5,5.2,3.5,5.2c1,1.5-0.1-0.4,0.9,1.2c1,1.5,0.1,0.4,1.1,1.9c1,1.5,0.7,0.9,1.7,2.4
				c1,1.5,0.5,1,1.6,2.5c0,0.1,0.1,0.1,0.1,0.1l0,0c0,0,0,0,0,0c0,0,0,0,0.1,0c0,0.1,0,0.3-0.1,0.4c0.1,0.1,0.1,0.4,0.1,0.5
				c0,0,0.1,0,0.2-0.1l0.1,0.2c0.1,0.1,0,0.2,0,0.3c-0.1,0.1,0,0.2-0.1,0.2s-0.1,0-0.2,0c-0.1,0.1-0.1,0.2-0.1,0.4
				c-0.2,0-0.4,0-0.6,0c0-0.1,0-0.2,0-0.2l-0.3,0.2l-0.1-0.1c-0.1-0.1,0-0.1,0-0.1c0,0-0.1,0-0.2,0.1c0-0.1,0-0.1,0-0.2
				c0-0.1-0.1-0.2-0.2-0.3l-0.1-0.2c-0.4-0.6-0.7-1.1-1.1-1.6c-1.6-2.4-3-4.5-3.5-5.2c-1-1.5-2.2-3.2-2.9-4.3
				C112,73.5,112.7,74.7,112.9,75.1z"/>
		</g>
	</g>
</g>
<g>
</g>
<g>
</g>
<g>
</g>
<g>
</g>
<g>
</g>
<g>
</g>
<g>
</g>
<g>
</g>
<g>
</g>
<g>
</g>
<g>
</g>
<g>
</g>
<g>
</g>
<g>
</g>
<g>
</g>
</svg>
