<?xml version="1.0" encoding="utf-8"?>
<!-- Generator: Adobe Illustrator 18.0.0, SVG Export Plug-In . SVG Version: 6.00 Build 0)  -->
<!DOCTYPE svg PUBLIC "-//W3C//DTD SVG 1.1//EN" "http://www.w3.org/Graphics/SVG/1.1/DTD/svg11.dtd">
<svg version="1.1" id="Layer_1" xmlns="http://www.w3.org/2000/svg" xmlns:xlink="http://www.w3.org/1999/xlink" x="0px" y="0px"
	 viewBox="0 0 8.7 8.6" enable-background="new 0 0 8.7 8.6" xml:space="preserve">
<g>
	<g>
		<circle fill="#FFFFFF" cx="4.4" cy="4.3" r="3.7"/>
		<g>
			<g>
				<path fill-rule="evenodd" clip-rule="evenodd" fill="#3A494F" d="M8.5,6c0,0-0.1,0.1-0.1,0.2c0,0-0.1,0-0.1,0
					C8.2,6.3,8.1,6.3,8,6.4C8,6.5,8.1,6.4,8,6.5C8,6.6,8,6.5,7.9,6.6C7.8,6.7,7.9,6.9,7.8,7C7.7,7.1,7.7,6.9,7.7,7
					c-0.1,0.1,0,0.1-0.1,0.2C7.5,7.3,7.4,7.3,7.3,7.3C7.2,7.4,7,7.7,6.9,7.7c-0.2,0.1-0.1,0-0.3,0.1c0,0,0,0-0.1,0
					C6.5,7.9,6.5,7.9,6.5,8C6.4,8,6.4,7.9,6.3,8c0,0-0.1,0.1-0.1,0.3c-0.2,0-0.3-0.1-0.4,0c-0.1,0-0.3,0.2-0.4,0.3
					c-0.1,0,0-0.1-0.1,0c-0.1,0-0.1,0.1-0.2,0.1c-0.2,0,0-0.1-0.2-0.1c-0.1,0,0,0.1-0.1,0.1c-0.1,0-0.1-0.1-0.2-0.1
					C4.4,8.5,4,8.6,3.9,8.6c-0.1,0-0.3-0.1-0.4-0.1c-0.1,0-0.3,0-0.3,0c0,0,0-0.1,0-0.1c0,0-0.6-0.2-0.6-0.2c0,0.1,0,0.1,0,0.2
					c-0.1,0,0-0.1-0.1-0.1c-0.1,0-0.1,0-0.2,0C2.2,8,2.1,7.8,2,7.7c-0.1-0.1-0.1,0-0.2-0.1c-0.1-0.1,0-0.1-0.1-0.1
					c-0.1-0.1-0.2-0.1-0.3,0c0-0.1,0.1-0.1,0-0.2c-0.1-0.1,0,0.1-0.1,0c-0.1-0.1,0.1,0,0-0.1c-0.1-0.1,0,0.1-0.1,0
					c-0.1-0.1,0-0.1,0-0.1C1.2,7,1.1,7,1,6.9C1,6.8,0.9,6.8,1,6.7c0,0-0.1,0-0.1,0c0,0,0-0.1,0-0.2C0.7,6.5,0.7,6.5,0.6,6.4
					c-0.1-0.1,0-0.2-0.1-0.3c0-0.1-0.2-0.2-0.2-0.3c0-0.1,0-0.1,0-0.2C0.3,5.5,0.2,5.3,0.2,5.1c0,0,0.1,0,0-0.1
					c0-0.1-0.2-0.4-0.3-0.5l0-0.1c0,0,0.1,0.1,0.1,0.2c0,0,0-0.3,0-0.3c0-0.1-0.1,0-0.1-0.2c0-0.1,0.1-0.1,0.1-0.2
					c0-0.1-0.1-0.1,0-0.2c0-0.1,0.1,0,0.1-0.1c0-0.1,0-0.2,0-0.3c0-0.1,0.2-0.3,0.2-0.4c0-0.1,0.1-0.2,0-0.3c0.1,0,0.1-0.1,0.2-0.1
					c0-0.1,0.1-0.1,0-0.1c-0.1,0-0.1,0.1-0.1,0c0.1-0.1,0.2-0.1,0.3-0.2c0,0,0-0.2,0-0.3l0.1-0.1c0.1,0,0.2,0,0.2,0
					c0,0,0-0.1-0.1-0.1c0.1,0,0.2,0,0.3-0.1c0.1-0.1,0.1-0.3,0.2-0.4C1.5,1,1.6,1.1,1.6,1C1.7,1,1.7,1,1.7,0.9c0.1,0,0.1,0.1,0.2,0
					c0.1-0.1-0.1,0,0-0.1c0.1-0.1,0.1,0,0.2-0.1c0.1-0.1,0.2-0.1,0.1-0.3l0.1-0.1c0,0.1,0.1,0.1,0.2,0.1c0.1,0,0-0.1,0-0.1
					c0.1,0,0,0.1,0.1,0c0.1,0,0.1-0.1,0.2-0.2c0-0.1,0.1-0.1,0.2-0.1c0.1,0,0.5,0,0.6,0C4,0.1,3.9,0,4,0c0.2,0,0.1,0.1,0.4,0.1
					c0.1,0,0.2-0.1,0.3,0c0.1,0,0.3,0.1,0.4,0.2c0,0,0.1,0,0.1-0.1l0.1,0c0.1,0,0.1,0.1,0.1,0.1c0,0,0,0.1,0,0.1l0.1,0
					c0.1,0,0.1,0,0.1-0.1c0.1,0,0.1,0,0.3,0.1c0,0,0-0.1,0.1,0c0.1,0,0.2,0.2,0.3,0.3c0,0,0.1,0,0.1-0.1c0,0.1,0.1,0.1,0.2,0.2
					C6.8,0.9,6.9,0.9,7,1c0,0,0,0.1,0,0.1l0.2,0.1c0,0,0.1,0,0.1-0.1c0,0,0.2,0.1,0.2,0.1c0.1,0.1,0,0.1,0.1,0.2
					c0.1,0.1,0.1,0.1,0.1,0.1c0.1,0.3,0,0.2,0.1,0.4C7.8,2,8,2.2,8.1,2.2c0.1,0.1,0,0.2,0,0.3c0,0.1,0.1,0,0.1,0.1
					c0,0.1-0.1,0,0,0.1c0,0.1,0.2,0.3,0.3,0.4c0,0,0,0,0,0.1c0,0.1,0,0.2-0.1,0.3l0,0.1c0,0,0.1,0,0.1,0C8.4,3.8,8.4,3.9,8.4,4.1
					c0,0,0-0.1-0.1-0.1C8.1,4,8.1,4.3,7.9,4.3c-0.1,0-0.1,0-0.1,0C7.8,4.2,7.7,4,7.6,4C7.5,4,7.5,4.1,7.5,4.1c0-0.2-0.2-0.2-0.2-0.2
					c0,0,0-0.1,0-0.1c0,0,0-0.1,0-0.1c0-0.1-0.1-0.1-0.1-0.2c0-0.1,0,0,0-0.1c0-0.1,0-0.3-0.1-0.4c0-0.1,0-0.1-0.1-0.2
					c-0.1,0-0.2,0-0.2-0.1c0-0.1,0,0,0-0.1c0,0-0.1-0.1-0.1-0.2c0-0.1-0.1-0.2-0.3-0.2c0,0,0.1,0,0.1,0c0,0,0-0.1,0-0.1
					c0,0-0.1,0-0.1,0c0-0.1,0-0.1,0-0.1C6.5,2,6.5,2,6.4,2c-0.1,0.1,0,0.1,0,0.1L6.3,2c0-0.1,0-0.2,0-0.2c-0.1,0,0,0.1-0.1,0
					c-0.1,0,0.1,0,0-0.1c-0.1,0-0.1,0-0.1,0C6,1.7,6,1.6,5.9,1.6c-0.1,0-0.2-0.1-0.3-0.1c-0.1,0-0.1,0-0.2,0.1c0,0,0.1-0.1,0.1-0.1
					c-0.1,0-0.3-0.2-0.4-0.2c-0.1,0-0.1,0-0.2,0l0,0c-0.1,0,0,0,0-0.1c0,0,0,0-0.1,0.1c0,0,0-0.1-0.1-0.1c-0.1,0,0,0,0,0.1
					c0,0,0-0.1,0-0.1c-0.1,0-0.3,0-0.5,0c0,0,0-0.1,0,0C4.2,1.1,4,1.3,3.9,1.3c-0.1,0-0.1-0.1-0.2-0.1c-0.1,0,0,0.1,0,0.1
					c-0.1,0-0.2,0-0.2-0.1c0,0,0,0.1,0,0.1l-0.1,0c0,0-0.1,0-0.1-0.1c0,0-0.1,0.1,0,0.2l-0.1,0c0,0,0-0.1,0-0.1c0,0,0,0-0.1,0
					C3,1.4,3,1.6,2.9,1.6c-0.1,0-0.1,0-0.1,0c-0.1,0,0,0.1-0.1,0.1c-0.1,0-0.1-0.1-0.1,0c-0.1,0,0,0,0,0.1c-0.1,0-0.1,0-0.2,0
					c-0.1,0-0.1,0.1-0.2,0.1C2.2,2,2.1,2,2.1,2.1c0,0,0,0.1,0,0.1c0,0,0,0,0,0c-0.1,0.1-0.1,0-0.2,0c0,0,0,0-0.1,0.1
					c-0.2,0.2,0,0.2-0.1,0.3c0,0.1-0.2,0-0.3,0.1l0,0.1c0,0,0,0,0.1,0c0.1,0,0.1,0,0.1,0c0,0-0.1,0.2-0.1,0.2c0,0.1-0.1,0.1-0.1,0.1
					c0,0.1,0,0.1,0,0.2c0,0-0.1-0.1-0.1-0.1c0,0,0,0,0,0.1c0,0.1,0.1,0.1,0,0.1c0,0.1-0.1,0-0.1,0.1c0,0.1,0,0.1,0,0.2
					c0,0.1-0.1,0.1-0.1,0.2c0,0.1,0.1,0,0.1,0.1c0,0.1-0.1,0-0.1,0.1c0,0.1,0.1,0,0.1,0.1c0,0.1-0.1,0.2-0.1,0.2c0,0,0,0.1,0.1,0.1
					s0-0.1,0.1-0.1c0,0.1-0.1,0.1,0,0.2c0,0.1,0,0.1,0.1,0.1C1.3,4.8,1.2,4.9,1.2,5c0,0.1,0.1,0.1,0.1,0.1c0,0-0.1,0.1-0.1,0.1
					l0.2-0.1l0.1,0.2c0,0,0,0.1-0.1,0.1c0.1,0,0.2,0.2,0.3,0.2c0,0.1,0,0.2,0,0.2c0,0,0.1,0,0.1,0c0,0.1,0.1,0.4,0.2,0.4
					C2,6.4,2,6.4,2.1,6.4c0,0,0.1,0.1,0.1,0.1c0.1,0,0,0.2,0.1,0.3c0.1,0,0.1,0,0.1,0c0.1,0,0.1,0.1,0.1,0.2c0.1,0,0.1,0,0.2,0
					c0.1,0,0,0,0,0.1c0.1,0,0.1,0,0.1,0C3,7.1,3,7.2,3.1,7.2c0.1,0,0.1,0,0.1,0c0.1,0,0,0.1,0,0.1c0.1,0,0.1,0,0.1,0
					c0.1,0,0.1,0.1,0.1,0.2c0,0,0.1,0,0.1-0.1c0,0,0,0.1,0.1,0.1c0.1,0,0-0.1,0.1,0c0.1,0,0,0.1,0,0.1c0.1,0,0,0,0.1,0
					c0.1,0,0.2,0.1,0.3,0c0,0,0,0.1,0.1,0.1c0,0,0.1,0.1,0.2,0.1c0,0,0.1-0.1,0.1-0.2l0.2,0c0,0.1,0.1,0.1,0.1,0.1
					c0.1,0,0-0.1,0.1-0.1c0.1,0,0.1,0.1,0.2,0c0.1,0,0.1,0,0.1,0c0,0,0-0.1,0-0.1c0,0,0.1,0,0.2-0.1c0,0,0,0.1,0,0.1
					c0,0,0.1,0,0.1,0.1c0,0,0.1-0.1,0.2-0.1c0.1,0,0.1,0,0.2,0c0.1,0,0-0.1,0-0.1c0.1,0,0,0,0.1,0C5.9,7.1,6,7,6,7
					c0.1,0,0.1-0.1,0.1-0.2l0,0c0.1-0.1,0.1,0,0.1,0c0.1,0,0-0.1,0.1-0.1c0.1-0.1,0.1,0,0.1,0c0.1-0.1,0-0.1,0-0.1
					c0.1-0.1,0.1,0,0.1,0c0.1-0.1,0-0.1,0-0.2c0.1,0,0.2-0.1,0.3-0.1c0-0.1,0-0.1,0-0.1C7,6,7,6.1,7,6c0-0.1,0-0.1,0-0.1
					c0,0,0.1,0,0.1,0c0,0,0.3-0.5,0.2-0.5c0-0.1-0.1,0,0-0.1c0-0.1,0.1,0,0.1-0.1c0-0.1,0-0.1,0-0.1c0-0.1,0.1,0,0.1-0.1l0,0
					c0-0.1,0-0.1,0-0.1c0,0,0.1-0.1,0.2-0.1c0-0.1,0.1-0.2,0.2-0.2c0,0,0,0-0.1-0.1l0-0.1c0-0.1,0.1-0.1,0.1-0.1
					c0.1,0,0.1-0.1,0.2-0.1c0.1,0,0,0.1,0.1,0.1c0.1,0,0.1-0.1,0.2-0.1c0.1,0.1,0.2,0.1,0.3,0.2c0,0-0.1,0.1-0.1,0.1l0.2,0l0,0.1
					c0,0.1,0,0-0.1,0.1c0,0,0,0.1,0.1,0.1C8.7,5,8.7,5,8.7,5c0,0.1-0.1,0.2-0.1,0.3C8.5,5.5,8.4,5.7,8.4,5.8c0,0.1-0.1,0.2-0.1,0.3
					C8.4,6,8.5,6,8.5,6z"/>
			</g>
		</g>
	</g>
	<g>
		<path fill="#3A494F" d="M3.5,6.4c-0.1,0-0.2,0-0.3-0.1S3.1,6.1,3.1,6c0-0.1,0-0.2,0.1-0.3s0.2-0.1,0.3-0.1h0.5c0,0,0.1,0,0.1-0.1
			V2.9c0,0,0-0.1-0.1-0.1H3.5c-0.1,0-0.1,0-0.2-0.1C3.3,2.7,3.2,2.6,3.2,2.5c0-0.1,0-0.2,0.1-0.2c0.1-0.1,0.1-0.1,0.2-0.1
			C3.7,2.2,3.8,2.1,4,2c0.2-0.1,0.4-0.2,0.6-0.2c0.1,0,0.2,0,0.2,0.1C4.9,2,4.9,2.1,4.9,2.2v3.4c0,0,0,0.1,0.1,0.1h0.3
			c0.1,0,0.2,0,0.3,0.1S5.7,5.9,5.7,6c0,0.1,0,0.2-0.1,0.3S5.4,6.4,5.3,6.4H3.5z"/>
	</g>
</g>
<g>
</g>
<g>
</g>
<g>
</g>
<g>
</g>
<g>
</g>
<g>
</g>
<g>
</g>
<g>
</g>
<g>
</g>
<g>
</g>
<g>
</g>
<g>
</g>
<g>
</g>
<g>
</g>
<g>
</g>
</svg>
