<?xml version="1.0" encoding="utf-8"?>
<!-- Generator: Adobe Illustrator 18.0.0, SVG Export Plug-In . SVG Version: 6.00 Build 0)  -->
<!DOCTYPE svg PUBLIC "-//W3C//DTD SVG 1.1//EN" "http://www.w3.org/Graphics/SVG/1.1/DTD/svg11.dtd">
<svg version="1.1" id="Layer_1" xmlns="http://www.w3.org/2000/svg" xmlns:xlink="http://www.w3.org/1999/xlink" x="0px" y="0px"
	 viewBox="0 0 7.6 7.5" enable-background="new 0 0 7.6 7.5" xml:space="preserve">
<g>
	<path fill="#3A494F" d="M7.2,3.7c0,1.9-1.5,3.4-3.4,3.4c-1.9,0-3.4-1.5-3.4-3.4c0-1.9,1.5-3.4,3.4-3.4C5.7,0.4,7.2,1.9,7.2,3.7"/>
	<path fill-rule="evenodd" clip-rule="evenodd" fill="#3A494F" d="M7.5,4.9c0,0-0.1,0.1-0.1,0.2c0,0-0.1,0-0.1,0
		c0,0.1-0.1,0.1-0.1,0.2c0,0.1,0,0,0,0.1c0,0.1-0.1,0-0.1,0.1c0,0.1,0,0.2-0.1,0.3c-0.1,0.1,0,0-0.1,0.1C6.8,6,6.8,6,6.8,6.1
		C6.7,6.1,6.6,6.1,6.5,6.2C6.5,6.3,6.3,6.5,6.2,6.6C6.1,6.7,6.1,6.6,6,6.7c0,0,0,0,0,0c-0.1,0.1,0,0.1-0.1,0.1c-0.1,0-0.1,0-0.1,0
		c0,0-0.1,0.1-0.1,0.2c-0.1,0-0.3,0-0.4,0C5.1,7.2,5,7.3,4.9,7.3c-0.1,0,0,0-0.1,0c-0.1,0-0.1,0.1-0.2,0.1c-0.2,0,0-0.1-0.2-0.1
		c-0.1,0,0,0-0.1,0.1c-0.1,0-0.1,0-0.2,0C4,7.4,3.6,7.5,3.6,7.5c-0.1,0-0.2-0.1-0.3-0.1c-0.1,0-0.2,0-0.3,0c0,0,0-0.1,0-0.1
		c-0.2,0-0.4-0.1-0.6-0.2c0,0.1,0.1,0.1,0,0.1c0,0,0-0.1-0.1-0.1c-0.1,0-0.1,0-0.2,0C2,7,1.9,6.9,1.8,6.8c-0.1,0-0.1,0-0.2-0.1
		c-0.1-0.1,0-0.1-0.1-0.1C1.5,6.6,1.4,6.6,1.4,6.6c0-0.1,0-0.1,0-0.1c-0.1-0.1,0,0-0.1,0c-0.1-0.1,0,0,0-0.1c-0.1-0.1,0,0-0.1,0
		c-0.1-0.1,0,0,0-0.1C1,6.2,1,6.2,0.9,6.1C0.9,6,0.8,6,0.9,5.9c0,0-0.1,0-0.1,0c0,0,0-0.1-0.1-0.1c0-0.1-0.1-0.1-0.1-0.1
		c0-0.1-0.1-0.2-0.1-0.3c0-0.1-0.1-0.2-0.2-0.3c0-0.1,0-0.1,0-0.1C0.2,4.8,0.2,4.7,0.2,4.5c0,0,0,0,0-0.1C0.2,4.3,0,4.1,0,4l0-0.1
		c0,0,0,0.1,0.1,0.1c0-0.1,0-0.2,0-0.3c0-0.1,0,0,0-0.1c0-0.1,0-0.1,0.1-0.2c0-0.1,0-0.1,0-0.1c0-0.1,0,0,0.1-0.1c0-0.1,0-0.1,0-0.2
		c0-0.1,0.1-0.3,0.2-0.4c0-0.1,0.1-0.2,0.1-0.3c0,0,0.1-0.1,0.1-0.1C0.5,2,0.6,2,0.5,2c0,0-0.1,0.1-0.1,0C0.5,2,0.6,1.9,0.7,1.8
		c0,0,0.1-0.2,0-0.3l0.1-0.1c0,0,0.1,0,0.2,0c0,0,0-0.1,0-0.1c0.1,0,0.2-0.1,0.2-0.1C1.2,1.2,1.2,1,1.3,0.9c0.1-0.1,0.1,0,0.1-0.1
		c0.1-0.1,0.1-0.1,0-0.1c0.1,0,0.1,0.1,0.1,0c0.1-0.1,0,0,0-0.1c0.1-0.1,0.1,0,0.2-0.1C1.9,0.6,2,0.5,1.9,0.4c0,0,0.1,0,0.1-0.1
		c0,0,0.1,0.1,0.2,0.1c0.1,0,0,0,0-0.1c0.1,0,0,0,0.1,0c0.1,0,0.1-0.1,0.2-0.1c0,0,0.1,0,0.2-0.1c0.1,0,0.5,0,0.6,0
		C3.6,0.1,3.5,0,3.6,0C3.8,0,3.7,0.1,4,0.1c0.1,0,0.2,0,0.3,0c0.1,0,0.2,0.1,0.3,0.1c0,0,0.1,0,0.1-0.1l0.1,0c0.1,0,0.1,0.1,0.1,0.1
		c0,0,0,0.1,0,0.1l0.1,0c0.1,0,0.1,0,0.1,0c0.1,0,0.2,0.1,0.2,0.1c0,0,0,0,0.1,0c0.1,0,0.2,0.2,0.3,0.2c0,0,0.1,0,0.1,0
		c0,0,0.1,0.1,0.2,0.2C6.1,0.9,6.2,0.9,6.2,1c0,0,0,0.1,0,0.1l0.1,0.1c0,0,0.1,0,0.1,0l0.1,0.1c0.1,0.1,0,0.1,0.1,0.1
		c0.1,0.1,0.1,0.1,0.1,0.1c0.1,0.2,0,0.1,0.1,0.3c0.1,0.1,0.2,0.3,0.3,0.3c0,0.1,0,0.2,0,0.3c0,0.1,0,0,0.1,0.1c0,0.1,0,0,0,0.1
		c0,0.1,0.1,0.3,0.2,0.4c0,0,0,0,0,0.1c0,0.1,0,0.2,0,0.3l0,0.1c0,0,0.1,0,0.1,0C7.4,3.4,7.4,3.5,7.4,3.6c0,0,0,0-0.1,0
		c-0.1,0-0.1,0.2-0.2,0.2c0,0,0,0-0.1,0c0,0,0-0.2-0.1-0.2c0,0,0,0-0.1,0c0-0.1-0.1-0.1-0.1-0.2c0,0,0-0.1,0-0.2
		c0-0.1,0-0.1-0.1-0.2c0-0.1,0,0,0-0.1c0-0.1,0-0.3-0.1-0.4c0-0.1,0-0.1-0.1-0.2c0,0-0.1-0.1-0.1-0.1c0-0.1,0,0,0-0.1
		c0-0.1-0.1-0.1-0.1-0.2c0-0.1-0.1-0.2-0.2-0.3c0,0,0,0,0.1,0c0,0,0-0.1,0-0.1c0,0,0,0-0.1,0C6,1.7,6,1.7,6,1.7c0,0-0.1-0.1-0.1,0
		c0,0,0,0.1,0,0.1c0,0-0.1-0.1-0.1-0.1c0-0.1,0-0.1-0.1-0.2c-0.1,0,0,0-0.1,0c-0.1,0,0,0,0-0.1c-0.1,0-0.1,0-0.1,0
		c-0.1,0,0-0.1-0.1-0.1c-0.1,0-0.2-0.1-0.3-0.1c-0.1,0-0.1,0-0.1,0c0,0,0.1,0,0.1,0C5,1,4.8,0.9,4.7,0.9c-0.1,0-0.1,0-0.2,0l0,0
		c-0.1,0,0,0,0-0.1c0,0,0,0-0.1,0.1c0,0,0,0-0.1-0.1c-0.1,0,0,0,0,0c0,0,0-0.1,0-0.1c-0.1,0-0.3,0-0.5,0c0,0,0,0,0,0
		c-0.1,0-0.3,0.1-0.4,0.1c-0.1,0-0.1-0.1-0.2-0.1c-0.1,0,0,0-0.1,0c-0.1,0-0.2,0-0.2,0c0,0,0,0,0,0.1c0,0-0.1,0-0.1,0
		c0,0-0.1,0-0.1,0c0,0-0.1,0.1-0.1,0.1c0,0-0.1,0-0.1,0c0,0,0-0.1,0-0.1c0,0,0,0-0.1,0C2.5,1,2.5,1.1,2.4,1.1c-0.1,0-0.1,0-0.1,0
		c-0.1,0,0,0.1-0.1,0.1c-0.1,0,0,0-0.1,0c-0.1,0,0,0,0,0.1c0,0-0.1,0-0.2,0c-0.1,0-0.1,0.1-0.2,0.1C1.7,1.5,1.6,1.5,1.6,1.6
		c0,0,0,0.1,0,0.1c0,0,0,0,0,0c0,0.1-0.1,0-0.2,0.1c0,0,0,0-0.1,0.1c-0.2,0.2,0,0.2-0.1,0.3c0,0.1-0.1,0.1-0.2,0.1l0,0.1
		c0,0,0,0,0,0c0,0,0.1,0,0.1,0C1.1,2.5,1,2.6,1,2.6c0,0.1-0.1,0.1-0.1,0.1c0,0.1,0,0.1,0,0.2c0,0,0-0.1,0-0.1c0,0,0,0,0,0.1
		c0,0.1,0,0.1,0,0.1c0,0.1-0.1,0-0.1,0.1c0,0.1,0,0.1,0,0.2c0,0.1-0.1,0.1-0.1,0.2c0,0.1,0,0,0,0.1c0,0.1,0,0,0,0.1c0,0.1,0,0,0,0.1
		c0,0.1,0,0.2-0.1,0.2c0,0,0,0.1,0.1,0.1c0,0,0-0.1,0.1-0.1c0,0.1,0,0.1,0,0.2c0,0.1,0,0.1,0,0.1c0,0.1-0.1,0.1,0,0.2
		c0,0.1,0.1,0.1,0.1,0.2c0,0,0,0,0,0.1l0.1,0L1,4.9C1,4.9,1,5,1,5C1,5.1,1.1,5.2,1.2,5.2c0,0.1,0,0.1,0,0.2c0,0,0,0,0.1,0
		c0,0.1,0.2,0.3,0.2,0.4c0.1,0.1,0.1,0.1,0.1,0c0,0,0.1,0.1,0.1,0.1c0.1,0,0.1,0.2,0.1,0.2c0.1,0,0.1,0,0.1,0c0.1,0,0.1,0.1,0.2,0.1
		c0.1,0,0.1,0,0.2,0.1c0.1,0,0,0,0,0.1c0.1,0,0.1,0,0.1,0c0.1,0,0.1,0.1,0.1,0.1c0.1,0,0.1,0,0.1,0c0.1,0,0,0,0,0.1
		c0.1,0,0.1,0,0.1,0c0.1,0,0.1,0.1,0.1,0.1c0,0,0,0,0.1-0.1c0,0,0,0,0.1,0c0.1,0,0,0,0.1,0c0.1,0,0,0,0.1,0c0.1,0,0,0,0.1,0
		c0.1,0,0.2,0,0.3,0c0,0,0.1,0,0.1,0.1c0,0,0.1,0.1,0.2,0C4,6.9,4,6.8,4,6.7c0.1,0,0.1,0,0.2,0c0,0,0.1,0.1,0.1,0.1
		c0.1,0,0,0,0.1-0.1c0.1,0,0.1,0,0.2,0c0.1,0,0.1,0,0.1,0c0,0,0-0.1,0-0.1c0,0,0.1,0,0.2-0.1c0,0,0,0,0,0.1c0,0,0.1,0,0.1,0
		c0,0,0.1-0.1,0.2-0.1c0.1,0,0.1,0,0.2-0.1c0.1,0,0,0,0-0.1c0.1,0,0,0,0.1,0c0.1,0,0.1,0,0.1-0.1c0.1,0,0.1-0.1,0.1-0.1l0,0
		c0.1-0.1,0,0,0.1,0C5.9,6,5.8,6,5.9,6C5.9,5.9,5.9,6,6,5.9c0.1-0.1,0,0,0-0.1c0-0.1,0.1,0,0.1-0.1c0.1-0.1,0-0.1,0-0.2
		c0.1,0,0.2-0.1,0.2-0.2c0-0.1,0-0.1,0-0.1c0-0.1,0,0,0.1-0.1c0-0.1,0-0.1,0-0.1c0,0,0.1,0,0.1,0C6.7,5,6.7,4.8,6.8,4.6
		c0-0.1,0,0,0-0.1c0-0.1,0,0,0.1-0.1c0-0.1,0-0.1,0-0.1c0-0.1,0,0,0.1-0.1c0,0,0,0,0,0c0,0,0.1-0.1,0.1-0.1C7,4.1,7,4,7,4
		C7,4,7,4,7,4l0-0.1c0,0,0,0,0.1-0.1c0,0,0,0,0.1,0c0,0,0,0,0.1,0c0,0,0.1,0,0.1-0.1c0.1,0,0.1,0.1,0.2,0.1c0,0,0,0,0,0.1l0.1,0
		l0,0.1c0,0.1,0,0,0,0c0,0,0,0,0.1,0c0,0,0,0,0,0.1c0,0.1,0,0.2-0.1,0.3c0,0.1-0.1,0.3-0.1,0.3c0,0.1-0.1,0.2-0.1,0.3
		C7.4,5,7.4,4.9,7.5,4.9"/>
	
		<path fill="none" stroke="#FFFFFF" stroke-width="0.2259" stroke-linecap="round" stroke-linejoin="round" stroke-miterlimit="10" d="
		M5.5,3.1c0-0.9-0.7-1.7-1.7-1.7c-0.9,0-1.7,0.7-1.7,1.7c0,0.7,0.4,1.3,1,1.5h1.3C5.1,4.4,5.5,3.8,5.5,3.1z"/>
	
		<polygon fill="none" stroke="#FFFFFF" stroke-width="0.2259" stroke-linecap="round" stroke-linejoin="round" stroke-miterlimit="10" points="
		4.4,4.5 3.1,4.5 3,4.5 3,5.9 4.4,5.9 4.4,4.5 	"/>
	
		<path fill="none" stroke="#FFFFFF" stroke-width="0.2259" stroke-linecap="round" stroke-linejoin="round" stroke-miterlimit="10" d="
		M3.6,6.1v0.2c0,0.1,0.1,0.2,0.2,0.2h0c0.1,0,0.2-0.1,0.2-0.2V6.1H3.6z"/>
	
		<path fill="none" stroke="#FFFFFF" stroke-width="0.2259" stroke-linecap="round" stroke-linejoin="round" stroke-miterlimit="10" d="
		M3.5,3.1c0,0.4-0.3,0.8-0.3,0.8S3,3.5,3,3.1c0-0.4,0.1-0.6,0.3-0.6C3.4,2.5,3.5,2.7,3.5,3.1z"/>
	
		<path fill="none" stroke="#FFFFFF" stroke-width="0.2259" stroke-linecap="round" stroke-linejoin="round" stroke-miterlimit="10" d="
		M4.1,3.1c0,0.4-0.3,0.8-0.3,0.8S3.6,3.5,3.6,3.1c0-0.4,0.1-0.6,0.3-0.6C4,2.5,4.1,2.7,4.1,3.1z"/>
	
		<path fill="none" stroke="#FFFFFF" stroke-width="0.2259" stroke-linecap="round" stroke-linejoin="round" stroke-miterlimit="10" d="
		M4.7,3.1c0,0.4-0.3,0.8-0.3,0.8S4.2,3.5,4.2,3.1c0-0.4,0.1-0.6,0.3-0.6C4.6,2.5,4.7,2.7,4.7,3.1z"/>
	
		<path fill="none" stroke="#FFFFFF" stroke-width="0.2259" stroke-linecap="round" stroke-linejoin="round" stroke-miterlimit="10" d="
		M3.2,3.9c0,0,0.3,0.7,0.6,0"/>
	
		<path fill="none" stroke="#FFFFFF" stroke-width="0.2259" stroke-linecap="round" stroke-linejoin="round" stroke-miterlimit="10" d="
		M3.8,3.9c0,0,0.3,0.7,0.6,0"/>
	
		<line fill="none" stroke="#FFFFFF" stroke-width="0.2095" stroke-linecap="round" stroke-linejoin="round" stroke-miterlimit="10" x1="3.3" y1="5.2" x2="4.5" y2="5.2"/>
	
		<line fill="none" stroke="#FFFFFF" stroke-width="0.2095" stroke-linecap="round" stroke-linejoin="round" stroke-miterlimit="10" x1="3.3" y1="5.6" x2="4.5" y2="5.6"/>
</g>
<g>
</g>
<g>
</g>
<g>
</g>
<g>
</g>
<g>
</g>
<g>
</g>
<g>
</g>
<g>
</g>
<g>
</g>
<g>
</g>
<g>
</g>
<g>
</g>
<g>
</g>
<g>
</g>
<g>
</g>
</svg>
