<?xml version="1.0" encoding="utf-8"?>
<!-- Generator: Adobe Illustrator 18.0.0, SVG Export Plug-In . SVG Version: 6.00 Build 0)  -->
<!DOCTYPE svg PUBLIC "-//W3C//DTD SVG 1.1//EN" "http://www.w3.org/Graphics/SVG/1.1/DTD/svg11.dtd">
<svg version="1.1" id="Layer_1" xmlns="http://www.w3.org/2000/svg" xmlns:xlink="http://www.w3.org/1999/xlink" x="0px" y="0px"
	 viewBox="0 0 10.3 10" enable-background="new 0 0 10.3 10" xml:space="preserve">
<g>
	<g>
		<circle fill="#3A494F" cx="5.1" cy="5" r="4.2"/>
		<g>
			<g>
				<path fill-rule="evenodd" clip-rule="evenodd" fill="#3A494F" d="M9.9,7.4c-0.1,0-0.1,0.1-0.2,0.2c-0.1,0-0.1,0-0.2,0
					C9.5,7.6,9.3,7.7,9.3,7.8c-0.1,0.1,0.1,0.1,0,0.2C9.2,8,9.1,7.9,9.1,8C9,8.1,9.1,8.4,9,8.4c-0.1,0.1-0.1,0-0.2,0
					c-0.1,0.1,0,0.1-0.1,0.2c-0.1,0.1-0.3,0-0.4,0C8.3,8.9,8,9.2,7.9,9.2c-0.2,0.1-0.2,0-0.4,0c0,0,0,0-0.1,0
					c-0.1,0.1,0,0.1-0.1,0.2c-0.1,0.1-0.1-0.1-0.2,0c0,0-0.1,0.2-0.1,0.3c-0.2,0-0.4-0.1-0.5-0.1C6.4,9.7,6.2,10,6.1,10
					C6,10,6,9.9,5.9,9.9C5.8,9.9,5.8,10,5.7,10c-0.2,0,0-0.2-0.2-0.2c-0.1,0,0,0.1-0.1,0.1c-0.1,0-0.2-0.1-0.3-0.1
					C5,9.9,4.5,10,4.4,10C4.3,10,4.1,9.9,4,9.8c-0.1,0-0.3,0-0.4,0c-0.1,0,0-0.1,0-0.2c0,0-0.7-0.3-0.7-0.3c0,0.1,0,0.2,0,0.2
					c-0.1,0,0-0.1-0.1-0.2c-0.1-0.1-0.1,0-0.2,0C2.4,9.3,2.4,9,2.3,9C2.2,8.9,2.1,9,2,8.9C2,8.8,2.1,8.8,2,8.7
					c-0.1-0.1-0.2-0.1-0.3,0c0-0.1,0.1-0.1,0-0.2c-0.1-0.1-0.1,0.1-0.1,0c-0.1-0.1,0.1,0,0-0.1c-0.1-0.1-0.1,0.1-0.1,0
					c-0.1-0.1,0.1-0.1,0-0.2C1.3,8.1,1.2,8.1,1.2,8c-0.1-0.1-0.1-0.2,0-0.2c0,0-0.1,0-0.2,0.1c0-0.1,0-0.1,0-0.2
					C0.9,7.5,0.8,7.6,0.7,7.5c-0.1-0.1,0-0.3-0.1-0.4C0.6,7,0.4,6.9,0.4,6.8c0-0.1,0-0.1,0-0.2c0-0.2-0.1-0.4-0.1-0.7
					c0,0,0.1,0,0.1-0.1c0-0.1-0.2-0.4-0.3-0.6L0,5c0.1,0,0.1,0.1,0.2,0.2c0,0,0-0.3,0-0.3c0-0.1-0.1-0.1-0.1-0.2
					c0-0.1,0.1-0.2,0.1-0.3c0-0.1-0.1-0.1-0.1-0.2c0-0.1,0.1,0,0.1-0.1c0-0.1-0.1-0.2,0-0.3c0-0.1,0.2-0.4,0.2-0.5
					c0-0.1,0.1-0.3,0-0.4c0.1,0,0.2-0.1,0.3-0.1c0.1-0.1,0.1-0.1,0-0.2c-0.1-0.1-0.1,0.1-0.2,0C0.8,2.7,0.9,2.6,1,2.5
					c0,0,0-0.3-0.1-0.4L1,2C1.1,2,1.2,2,1.3,2c0,0,0-0.1-0.1-0.2c0.2,0,0.3,0,0.3-0.1c0.1-0.1,0.1-0.4,0.2-0.4
					c0.1-0.1,0.1,0,0.2-0.1C2,1.2,2,1.2,1.9,1.1c0.1,0,0.1,0.1,0.2,0.1c0.1-0.1-0.1-0.1,0-0.1C2.3,1,2.3,1.1,2.4,1
					c0.2-0.1,0.2-0.1,0.1-0.4l0.2-0.1c0,0.1,0.2,0.2,0.3,0.2C3,0.7,2.9,0.6,3,0.6c0.1-0.1,0,0.1,0.1,0c0.1,0,0.1-0.2,0.2-0.3
					c0-0.1,0.1-0.1,0.2-0.1c0.1-0.1,0.6,0,0.7,0C4.6,0.2,4.4,0,4.6,0c0.2,0,0.1,0.2,0.5,0.2c0.1,0,0.3-0.1,0.4-0.1
					c0.1,0,0.3,0.1,0.4,0.2c0,0,0.1-0.1,0.1-0.2l0.2,0c0.1,0,0.1,0.1,0.2,0.2c0,0,0,0.1,0,0.2l0.1,0c0.1,0,0.1-0.1,0.2-0.1
					c0.1,0,0.2,0,0.3,0.1c0,0,0-0.1,0.1,0c0.1,0,0.2,0.2,0.3,0.4c0,0,0.1,0,0.2-0.1c0,0.1,0.1,0.2,0.2,0.2C7.8,1,7.9,1,8,1
					c0,0,0,0.1-0.1,0.2l0.2,0.1c0.1,0,0.1-0.1,0.2-0.1l0.2,0.2c0.1,0.1,0,0.1,0.1,0.2c0.1,0.1,0.1,0.1,0.2,0c0.1,0.3,0,0.2,0.1,0.5
					C9,2.2,9.3,2.3,9.3,2.4c0.1,0.1-0.1,0.3,0,0.4c0.1,0.1,0.1,0,0.1,0.1c0,0.1-0.1,0,0,0.1C9.5,3,9.7,3.2,9.8,3.4c0,0,0,0,0.1,0.1
					c0,0.1,0,0.2-0.1,0.3l0,0.1l0,0.1C9.8,4,9.9,4,10,4C9.8,4.2,9.8,4.4,9.8,4.7c-0.1,0-0.1-0.1-0.2-0.1C9.3,4.6,9.3,5,9.1,5
					C9,5,9,5,9,5c0-0.1-0.1-0.4-0.3-0.4c-0.1,0-0.1,0.1-0.2,0.1c0-0.2-0.2-0.2-0.3-0.3c0-0.1,0.1-0.2,0-0.3c0-0.1-0.1-0.1-0.1-0.1
					c0-0.1,0,0,0.1-0.1c0-0.1,0-0.3-0.1-0.4c0-0.1,0-0.1-0.1-0.2c-0.1,0-0.2,0-0.2-0.1c0-0.1,0,0,0-0.1c0-0.1-0.1-0.1-0.1-0.2
					c0-0.1-0.1-0.2-0.3-0.2c0-0.1,0.1,0,0.1,0c0,0,0-0.1,0.1-0.2c0,0-0.1,0.1-0.1,0c-0.1-0.1,0-0.1,0-0.1c-0.1,0-0.1-0.1-0.2,0
					c-0.1,0.1,0,0.1,0,0.1L7.1,2.6c0-0.1,0-0.2,0-0.2c-0.1,0,0,0.1-0.1,0c-0.1,0,0.1-0.1,0-0.1c-0.1,0-0.1,0.1-0.2,0
					c-0.1,0,0-0.1-0.1-0.2c-0.1,0-0.2,0-0.3,0c-0.1,0-0.1,0.1-0.2,0.1c0-0.1,0.1-0.1,0.1-0.2C6.2,2,6,1.8,6,1.8
					c-0.1,0-0.2-0.1-0.2,0l0,0c-0.1,0,0-0.1,0-0.1c0,0-0.1,0.1-0.1,0.2c0,0,0-0.1-0.1-0.1c-0.1,0,0,0,0,0.1c0,0,0-0.1,0-0.2
					c-0.1,0-0.3,0-0.5,0c0,0,0-0.1-0.1-0.1c-0.1,0-0.3,0.2-0.3,0.2c-0.1,0-0.1-0.2-0.2-0.2c-0.1,0,0,0.1,0,0.1
					c-0.1,0-0.2-0.1-0.2-0.1c0,0,0,0.1,0,0.2L4,1.9c0-0.1-0.1-0.1-0.2-0.1c0,0,0,0.1,0,0.3l-0.1,0c0-0.1,0-0.1,0-0.2c0,0,0,0-0.1,0
					c-0.1,0,0,0.2-0.1,0.3c-0.1,0-0.1-0.1-0.2,0c-0.1,0,0,0.1-0.1,0.1c-0.1,0-0.1-0.1-0.1,0c-0.1,0,0,0.1,0,0.1
					C3.2,2.4,3.1,2.4,3,2.4c-0.1,0-0.1,0.1-0.2,0.1C2.8,2.6,2.7,2.6,2.7,2.7c0,0,0,0.1,0,0.2c0,0,0,0,0,0c-0.1,0.1-0.2,0-0.2,0
					c0,0,0,0-0.1,0.1c-0.2,0.2,0.1,0.3,0,0.4C2.3,3.5,2.2,3.4,2,3.5l0,0.1c0,0,0,0,0.1,0.1c0.1,0,0.1,0,0.2,0c0,0-0.1,0.2-0.1,0.2
					C2.1,3.9,2,3.9,2,4C2,4,2,4.1,2,4.1C2,4.1,1.9,4,1.9,4c0,0,0,0,0,0.1c0,0.1,0.1,0.1,0.1,0.1c0,0.1-0.1,0-0.1,0.1
					c0,0.1,0.1,0.2,0.1,0.2c0,0.1-0.1,0.1-0.1,0.2c0,0.1,0.1,0,0.1,0.1c0,0.1-0.1,0-0.1,0.1c0,0.1,0.1,0,0.1,0.1
					c0,0.1-0.1,0.2-0.2,0.2c0,0.1,0,0.1,0.2,0.1c0.1,0,0.1-0.1,0.1-0.1c0,0.1-0.1,0.1-0.1,0.2c0,0.1,0,0.1,0.1,0.1
					C1.9,5.6,1.8,5.6,1.8,5.7c0,0.1,0.1,0.1,0.1,0.1c0,0-0.1,0.1-0.2,0.2L2,5.9c0,0,0.1,0.2,0.1,0.2C2.1,6.2,2,6.3,2,6.3
					c0.1,0,0.3,0.1,0.3,0.2c0,0.1,0,0.2-0.1,0.3c0,0,0.1,0,0.2-0.1c0,0.2,0.1,0.4,0.1,0.5c0.1,0.1,0.1,0.1,0.2-0.1l0.1,0.1
					c0,0.1,0,0.3,0.1,0.3c0.1,0.1,0.1,0,0.2,0c0.1,0,0.1,0.2,0.1,0.2c0.1,0.1,0.1,0,0.2,0c0.1,0-0.1,0.1,0,0.1c0.1,0,0.1-0.1,0.2,0
					c0.1,0,0.1,0.1,0.1,0.2c0.1,0,0.1-0.1,0.2,0c0.1,0-0.1,0.1,0,0.1c0.1,0,0.1-0.1,0.2,0c0.1,0,0.1,0.2,0.1,0.2
					c0,0,0.1-0.1,0.1-0.2c0,0,0,0.1,0.1,0.1c0.1,0,0-0.1,0.1-0.1c0.1,0,0,0.1,0,0.1c0.1,0,0,0,0.1-0.1c0.1,0,0.2,0.1,0.3-0.1
					c0,0,0,0.1,0,0.2c0,0,0.1,0.1,0.2,0.1c0.1,0,0.1-0.1,0.1-0.3c0,0,0.2,0,0.2,0c0,0.1,0.1,0.2,0.1,0.2c0.1,0,0-0.1,0.1-0.1
					c0.1,0,0.1,0.1,0.2,0.1c0.1,0,0.1,0,0.1,0c0,0,0-0.1,0-0.2C5.9,8.2,6,8.1,6,8c0,0.1,0,0.1,0,0.1c0,0,0.1,0.1,0.1,0.1
					c0-0.1,0.1-0.1,0.2-0.2c0.1,0,0.1,0.1,0.2,0c0.1,0-0.1-0.1,0-0.1c0.1,0,0,0,0.1,0.1c0.1,0,0.1,0,0.2-0.1c0.1,0,0.1-0.1,0.1-0.2
					l0,0C7,7.8,7,7.9,7,7.9c0.1,0,0-0.1,0-0.2c0.1,0,0.1,0,0.2,0c0.1,0,0-0.1,0-0.1c0.1-0.1,0.1,0,0.2,0c0.1-0.1,0-0.1,0-0.3
					c0.1,0,0.3,0,0.3-0.1c0.1-0.1,0-0.1,0-0.2c0-0.1,0.1,0,0.1,0c0-0.1,0-0.1,0-0.1C7.9,6.9,8,7,8,7c0,0,0.3-0.5,0.3-0.5
					c0-0.1-0.1,0-0.1-0.1c0-0.1,0.1,0,0.1,0c0-0.1-0.1-0.1,0-0.2c0-0.1,0.1,0,0.1-0.1c0-0.1,0-0.1-0.1-0.1c0.1,0,0.2-0.1,0.3-0.1
					C8.8,5.8,8.9,5.6,9,5.6c0,0-0.1-0.1-0.2-0.1l0-0.1c0-0.1,0.1-0.1,0.1-0.2c0.1,0,0.1-0.1,0.2-0.1c0.1,0,0.1,0.1,0.2,0.1
					c0.1,0,0.2-0.1,0.3-0.2c0.2,0.1,0.3,0.2,0.4,0.4c0,0.1-0.1,0.1-0.1,0.2l0.3,0l0,0.2c0,0.1-0.1,0-0.1,0.1c0,0,0.1,0.1,0.2,0.1
					c0,0.1-0.1,0.1-0.1,0.1c0,0.2-0.1,0.3-0.2,0.5C9.9,6.9,9.8,7,9.7,7.1C9.7,7.2,9.6,7.3,9.6,7.4C9.7,7.4,9.8,7.4,9.9,7.4z"/>
			</g>
		</g>
	</g>
	<g>
		<path fill="#FFFFFF" d="M5,7.5c-0.5,0-0.9-0.1-1.2-0.4C3.7,7,3.6,6.9,3.6,6.8c0-0.1,0-0.2,0.1-0.3C3.8,6.4,3.9,6.3,4,6.3
			c0,0,0,0,0,0c0.1,0,0.2,0,0.3,0.1c0.2,0.2,0.4,0.2,0.6,0.2c0.2,0,0.4-0.1,0.5-0.2C5.5,6.4,5.5,6.2,5.5,6c0-0.2-0.1-0.4-0.2-0.5
			C5.3,5.3,5.1,5.2,4.8,5.2c-0.1,0-0.2-0.1-0.3-0.1C4.5,5,4.5,4.9,4.5,4.8c0-0.1,0-0.2,0.1-0.3c0.1-0.1,0.2-0.1,0.3-0.2
			C5.2,4.3,5.4,4,5.4,3.6c0-0.2,0-0.3-0.1-0.4C5.2,3.1,5.1,3,4.9,3C4.8,3,4.6,3.1,4.5,3.2C4.4,3.3,4.3,3.3,4.2,3.3c0,0,0,0,0,0
			C4,3.3,4,3.3,3.9,3.2C3.8,3.1,3.8,3,3.8,2.9c0-0.1,0-0.2,0.1-0.3C4.3,2.3,4.6,2.2,5,2.2c0.4,0,0.8,0.1,1,0.4
			c0.3,0.2,0.4,0.6,0.4,1c0,0.6-0.2,1-0.7,1.2c0,0,0,0,0,0c0,0,0,0,0,0C6,4.9,6.2,5,6.3,5.2s0.2,0.5,0.2,0.8c0,0.4-0.1,0.8-0.4,1
			C5.8,7.4,5.5,7.5,5,7.5z"/>
	</g>
</g>
<g>
</g>
<g>
</g>
<g>
</g>
<g>
</g>
<g>
</g>
<g>
</g>
<g>
</g>
<g>
</g>
<g>
</g>
<g>
</g>
<g>
</g>
<g>
</g>
<g>
</g>
<g>
</g>
<g>
</g>
</svg>
