<?xml version="1.0" encoding="utf-8"?>
<!-- Generator: Adobe Illustrator 18.0.0, SVG Export Plug-In . SVG Version: 6.00 Build 0)  -->
<!DOCTYPE svg PUBLIC "-//W3C//DTD SVG 1.1//EN" "http://www.w3.org/Graphics/SVG/1.1/DTD/svg11.dtd">
<svg version="1.1" id="Layer_1" xmlns="http://www.w3.org/2000/svg" xmlns:xlink="http://www.w3.org/1999/xlink" x="0px" y="0px"
	 viewBox="0 0 168 163.2" enable-background="new 0 0 168 163.2" xml:space="preserve">
<g>
	<path fill="#FFFFFF" d="M161.1,1.8H25.7c-2.6,0-4.8,2.2-4.8,4.8v23.2H2.2c-0.7,0-1,0.8-0.5,1.3l19.3,19.3v106.3
		c0,2.6,2.2,4.8,4.8,4.8h135.5c2.6,0,4.8-2.2,4.8-4.8V6.6C166,4,163.8,1.8,161.1,1.8z"/>
	<g>
		<g>
			<path fill-rule="evenodd" clip-rule="evenodd" fill="#3A494F" d="M143.7,3.8c-1.4-0.1-3.2-0.1-5.1-0.2c-0.5-0.1-0.4-0.2-1.3-0.3
				c-3,0-5-0.2-7.5-0.2c-2.6,0-0.5,0.2-3.1,0.2c-2.6,0-1.5-0.2-4.1-0.2c-2.6,0-5.6,0.3-8.2,0.3c-2.6,0-0.5-0.2-3.1-0.2
				c-2.6,0-1.5,0.2-4.1,0.2c-2.6,0-5-0.3-6.8-0.5c-3.8,0.2-12.2,0.3-14.8,0.3c-5,0-3.2-0.2-7.8-0.3c0,0,1.2,0-1.4,0
				c-2.6,0-1.5,0.2-4.1,0.2c-2.6,0-1.5-0.2-4.1-0.2c-1.2,0-3.5,0.2-4.4,0.5C60.2,3.4,56.4,3,53.9,3c-2.6,0-8.7,0.3-11.3,0.3
				c-2.6,0-0.5-0.2-3.1-0.2c-2.6,0-2.6,0.2-5.1,0.2c-5.3,0-0.5-0.3-4.1-0.3c-2.6,0-0.5,0.2-3.1,0.2c-0.6,0-1.1,0-1.6,0
				c-0.4,0-0.7,0-1,0.1c-0.6,0.2-1.3,0.5-1.8,1.3c-0.3,0.4-0.6,1.1-0.6,2.3c0,1.4,0.1,3,0.1,4.6c0.1,3.2,0.2,6.4,0.2,7.7
				s0,3-0.1,4.6c0,0.8,0,1.7-0.1,2.5c0,0.9,0,1.8,0,2.6c0,0.5,0,1.1,0,1.7l0,0.5l0,0.2l-0.2,0c-0.3,0-0.6,0-0.9,0c-1,0-2.1,0-3.2,0
				c-1.5,0-3.1,0.1-4.2,0.1c-1.1,0-1.7-0.2-1.5-0.4c0,0-3.8,0-7.6,0c-0.2,0-0.4,0-0.6,0c-0.2,0-0.4,0.2-0.4,0.4
				c0.2,0.3,0.5,0.6,0.7,0.8c0.9,0.9,1.5,1.5,1.5,1.5c-0.6-0.9-1.4-1.7-1.1-1.6C4.9,32.3,5,32.3,5,32.4c0.1,0.1,0.2,0.2,0.3,0.3
				c0.1,0.2,0.3,0.3,0.5,0.5c0.3,0.4,0.7,0.9,1.7,1.8c1.8,1.8,1.9,1.7,3.7,3.5c1.8,1.8,4.5,5,6.3,6.8c1.8,1.8,1.9,1.7,3.7,3.5
				c0.4,0.4,0.7,0.7,0.9,0.9c0.2,0.1,0.1,0.3,0.1,0.5c0,0.2,0,0.3,0,0.4c0,0.2,0,0.4,0,0.6c0,0.1,0,0.2,0,0.3c0,0.4-0.1,0.8-0.1,2.1
				c0,2.6,0.1,4.2,0.3,5.6c-0.1,1.5-0.3,0.1-0.3,2.6s0.2-0.5,0.2,2.1s-0.2-0.5-0.2,2.1s0.2-0.5,0.2,2.1s-0.2,0.5-0.2,3.1
				c0,2.6,0.2,3.6,0.2,6.2s0,4.1-0.2,4.9c0,0.8,0.1,1.3,0.3,1.4c0,1.4-0.2,1.4-0.2,4c0,2.6,0.2,2.6,0.2,5.1s-0.2,5.6-0.2,8.2
				c0,2.6,0.2,5.6,0.2,8.2s-0.1,2.8-0.1,3.8c0,5,0,10.1-0.1,15.1c-0.1,0.6-0.1-0.9-0.1,1.6s0.3,9.5,0.5,13.7v3.6
				c-0.1,0.1-0.1-2-0.3-4v7.6c0,2.6,0.2,1.2,0.2,3.7c0,0.6,0,1.2,0,1.7c0,0.2,0,0.5,0,0.7c0,0.2,0,0.3,0,0.5c0,0.6,0.2,1.3,0.8,2
				c0.7,0.6,1,0.7,1.2,0.7c0.1,0,0.3,0.1,0.5,0.1c0.1,0,0.2,0,0.4,0.1c0.1,0,0.2,0,0.2,0c0.1,0,0.2,0,0.4,0c2.6,0,0.5,0.2,3.1,0.2
				c2.6,0,3.6-0.2,6.2-0.2c2.6,0,8.7,0.1,11.3,0.2c1.9,0,6.2,0.1,7.6-0.2c1.5,0.1,3.6,0.2,4.5,0.3c2.8,0,3.3,0.1,3.3-0.1
				c0-0.2-2.1-0.1-1.7-0.2c2.6,0.2,5.3,0.3,7.9,0.3c0.6,0,5.5-0.2,6.3-0.5h3.8c0.1,0.2,2.1,0.3,3,0.5c0.8,0,1.3-0.1,1.6-0.3
				c2.6,0.2,4.3,0.3,6.9,0.3c2.6,0,6.7-0.3,9.2-0.3c2.6,0,1.5,0.2,4.1,0.2c2.6,0,2.1,0,2.4-0.2c1.6,0.1,0.2,0.3,2.8,0.3
				c2.6,0-0.5-0.2,2.1-0.2c2.6,0,2.6,0.2,5.1,0.2c4.5,0,5.5,0,6.3-0.5h3.8c0.1,0.2,1.7,0.5,3.2,0.5c2.6,0-0.5-0.2,2.1-0.2
				c2.6,0-0.5,0.2,2.1,0.2c2.6,0,3.8-0.2,5.6-0.3c1.5-0.1,3.1,0,5.7,0c2.6,0,12.8,0.3,15.4,0.3c0.6,0,1.1,0,1.5,0c0.5,0,0.7,0,1-0.1
				c0.6-0.1,1-0.4,1.3-0.6c0.6-0.5,0.8-0.9,1-1.2c0.1-0.3,0.2-0.5,0.2-0.9c0.1-0.3,0.1-0.6,0-1.7c0-4.4,0.3-1.4,0.3-10.3
				c0-2.6-0.2-5.6-0.2-8.2s0.2-7,0.3-9.9c0-0.9-0.1-1.4-0.3-1.5v-3.4c0-2.6,0.2-2.1,0.2-4c0.1-0.5,0.2-0.4,0.3-1.3v-2.9
				c0-2.6-0.2-1.6-0.3-3.1c0-2,0-5-0.1-7c0-0.9-0.1,0.8-0.1-1.7s0.2-7,0.3-9.9c0-0.9-0.1-1.4-0.3-1.7c0.1-1.6,0.2-4.3,0.2-6.9
				s-0.1-5.4-0.2-7.6c0-1.1,0.2-1.7,0.3-1.5v-5.6c-0.1-0.8-0.2-0.7-0.3-0.8V63c0-2.6,0.2-1.2,0.2-3.7c0-2.6,0-3.1-0.2-3.3
				c0.2-7.3,0.3-2.9,0.3-10c0-4.5-0.3-9.9-0.3-11.3c0-2.6,0.3-4.6,0.3-7.2c0-2.6-0.2-0.5-0.2-3.1s0.2,0.5,0.2-2.1s-0.2-8.5-0.3-11.9
				c0-0.8,0,0.1,0-2.5c0-0.3,0-0.7,0-1l0-0.3l0-0.2c0-0.1,0-0.3,0-0.4c-0.1-0.5-0.2-1-0.5-1.5c-0.3-0.4-0.6-0.8-1-1.1
				c-0.1-0.1-0.2-0.1-0.3-0.2l-0.1-0.1c-0.1,0,0,0,0,0c0,0,0-0.1,0-0.1l-0.2-0.1c-0.1,0.1-0.1,0.2-0.2,0.3c-0.1-0.4-0.2-0.6-0.6-0.7
				c0-0.1,0.1-0.1,0.2-0.3c0.1-0.5-0.6-0.6-0.6-1c0-0.2,0-0.1,0.1-0.2c0.1,0,0.3-0.1,0.5-0.1c0.2-0.1,0.4-0.1,0.5-0.3
				c0-0.2-0.2-0.2-0.1-0.4c0.6,0.1,0.9-0.2,1.2-0.1c0.1,0,0.2,0.1,0.4,0.2l0,0l0,0c0,0,0,0,0,0c0,0,0.1,0,0.1,0.1
				c0.4,0.2,0.7,0.4,1,0.6c0.7,0.5,1.2,1.1,1.7,1.8c0.5,0.7,0.8,1.4,0.9,2.1c0.1,0.3,0.1,0.6,0.2,1c0,0.3,0.1,0.6,0.1,0.8
				c0,0.9,0.1,1.8,0.1,3.1c0,2.6-0.1,0.8-0.2,1.7c-0.1,3.9-0.1,10.1-0.2,12.7c0,2.6-0.1,4.7,0,6.4c0.1,1.7,0.3,3.4,0.3,5.9
				c0,2.6-0.1,0.8-0.2,1.7c0,1.9,0,4.9,0,7.5c0,2.6,0,7.5,0.2,12.1c-0.1,0.2-0.2-0.9-0.2-1.8c-0.1,0-0.1,2-0.3,2.9
				c0,0.8,0.2,0.8,0.2,3.3s-0.1,1.9-0.2,2.6c0.1,1.7,0,3.5,0.3,3.5s0.1-2.1,0.2-1.9v5.8c-0.2,1.2-0.3,2.8-0.3,5.4
				c0,2.6,0.2-0.5,0.2,2.1c0,2.6-0.2-0.5-0.2,2.1s0.2,1.5,0.2,4.1s-0.2,2.6-0.2,5.1c0,2.6,0.1,6.8,0.2,9.5c0.1,1.8,0.2,2.9,0.3,4.5
				c-0.1,0.3-0.2-1.7-0.3-1.9c0,4.8-0.2,12-0.2,14.5s0,5.2,0.1,6.9h0c0,2.9-0.1,1.2-0.2,2.1c0,0.8,0.1,1.3,0.3,1.5
				c0,1.4-0.2,0.4-0.2,2.9s0,1,0.2,1.2c0,1.4-0.2,1.9-0.3,1.8c0,4.8,0,11,0,16.1c-0.1,0.4-0.1-1.1-0.1,1.5c0,0.6,0,1.6,0.1,2.6
				c0,0.5,0,1.1,0.1,1.7c0,0.3,0,0.5,0,1c0,0.4,0,0.8-0.1,1.2c-0.3,1.6-1.3,3-2.5,3.8c-1.2,0.9-2.4,1.2-3.3,1.2c-0.5,0-0.7,0-1,0
				c-0.3,0-0.5,0-0.8,0c-0.5,0-0.9-0.1-1.4-0.1c-0.9-0.1-1.8-0.2-3.1-0.2c-2.6,0,0.5,0.2-2.1,0.2c-2.6,0-5.1-0.2-5.9-0.3
				c-0.8,0-1.3,0.1-1.4,0.3h-3.8c-0.1-0.1-2.1-0.2-2.9-0.3c-0.6,0-2.7,0.2-3.6,0.5h-3.8c-0.1-0.1,1.9-0.2,2-0.3
				c-0.9-0.1,0.5-0.1-2.1-0.1c-2.6,0-4.6,0.3-7.2,0.3c-2.6,0-1.5-0.2-4.1-0.2c-2.6,0-1.5,0.2-4.1,0.2c-2.6,0-0.5-0.2-3.1-0.2
				c-2.6,0-2.1,0-2.4,0.2c-1.5-0.1-3-0.2-4.6-0.3c-1.7-0.1-4.8,0-7.4,0c-2.6,0-5.6,0-7.5,0c-1.2,0-1.8,0.1-3.3,0.3c0,0,1.1,0-1.4,0
				c-2.6,0-3.6-0.2-5-0.3c-0.6-0.1-1.7,0-4.3,0c-8.7,0-6,0.3-10.3,0.3c-3.3,0-3.9-0.3-7.8-0.5h-2.8c-0.8,0.1-0.7,0-0.7,0.2
				c0,0.2,2.1,0.2,1.9,0.3h-7.4c-2.6,0-2.7-0.2-5.3-0.2c-2.6,0-3.7,0.1-5.3,0.2c-0.3-0.1,1.7-0.2,1.8-0.3c-0.9-0.1,0.5-0.1-2.1-0.1
				c-2.6,0-1.5,0.2-4.1,0.2c-2.6,0-1.5-0.2-4.1-0.2c-1.3,0-2.4,0-3.6,0.1c-0.6,0-1.2,0-1.7,0.1c-0.8,0-1.6-0.1-2.4-0.4
				c-1.6-0.7-2.4-1.6-2.9-2.6c-0.3-0.5-0.5-1-0.7-1.7c-0.1-0.3-0.1-0.6-0.2-1c0-0.2,0-0.4,0-0.6c0-0.2,0-0.3,0-0.5
				c0-2.6-0.2,0.5-0.2-2.1c0-2.6,0.2-0.5,0.2-3.1s-0.2-0.5-0.2-3.1s0.2-5.1,0.3-5.8c-0.1-1.7,0-3.4-0.3-3.4s-0.1,2.1-0.2,1.9
				c0-3.4,0.2-3.4,0.2-6c0-2.6,0-2.1-0.2-2.4c0.2-2.6,0.3-4.3,0.3-6.9c0-2.6-0.2-3.6-0.2-5.6c0-1,0.2-1.3,0.3-3.8h-0.5v-7.9
				c0.1-0.1,0.2-2.1,0.3-2.8c-0.2-2.7-0.3-8.1-0.3-10.6s0.2-5.1,0.3-5.9c0-0.8-0.1-1.3-0.3-1.5c0.2-4.6,0.3-12.6,0.3-15.2
				c0-3.5,0-3.3-0.3-3.2v-5.4c0-2.6,0.3-6.3,0.3-8.9c0-1.3,0-1.7-0.1-2.1c0-0.2,0-0.4-0.1-0.7c0-0.2,0-0.4,0-0.8
				c0-0.1-0.1-0.1-0.1-0.2c-0.2-0.2-0.4-0.4-0.6-0.6c-0.4-0.4-0.8-0.9-1.2-1.3c-0.8-0.8-1.6-1.7-2.5-2.6c-1.8-1.8-2.7-2.4-4.5-4.2
				c-1.8-1.8,0.5,0.2-1.3-1.6c-1.8-1.8-1.2-1-3-2.8c-0.9-0.9-1.5-1.6-2.1-2.2c-0.3-0.3-0.6-0.7-0.9-1c-0.2-0.2-0.5-0.5-0.7-0.8
				c-0.3-0.3-0.7-0.7-1-1.1c-0.8-0.8-0.9-1.2-1-1.5C0.1,30.8,0,30.7,0,30.4c0-0.2,0-0.5,0.2-0.9c0.1-0.2,0.2-0.4,0.4-0.5
				c0.2-0.1,0.4-0.3,0.7-0.4c0.7-0.3,1.4-0.2,1.5-0.2c0.2,0,0.1,0,0,0.1c-0.2,0-0.4,0.1,1.8,0.1c0.4,0,0.7,0,1,0c0.2,0,0.4,0,0.6,0
				c0.3,0,0.5,0,0.7-0.1c0.4,0,0.8-0.1,2.1-0.1c2.6,0,5.1,0.2,5.9,0.3c0.8,0,1.3-0.1,1.4-0.3c0.7,0,0.8,0,1,0.1c0.1,0,0.3,0,0.6,0.1
				c0.1,0,0.3,0,0.5,0c0.2,0,0.3,0,0.6,0c0.4,0,0.4,0,0.3-0.1c0,0-0.1,0,0-0.1c0,0,0,0,0.1,0c0,0,0,0,0.1,0c0,0,0-0.1,0-0.1
				c0-0.3,0-0.3,0.1-0.2c0,0,0,0.1,0.1,0c0,0,0,0,0-0.1c0,0,0-0.1,0-0.1c0-0.1,0-0.3,0-0.4c0-2.6-0.1-1.1-0.1-1.6
				c0-2,0.1-8.1-0.2-9.9c0-1.3,0.2-1.8,0.3-2.1c0.1-1.5,0.2-3.3,0.2-5.9c0-0.4,0-0.8,0-1.2c0-0.5,0-1,0.1-1.5c0.2-1,0.5-1.8,0.7-2.4
				c0,0,0.3-0.4,0.8-0.9c0.5-0.5,1.3-1,2.3-1.4c0.5-0.2,0.9-0.3,1.4-0.3c0.2,0,0.4,0,0.7,0c0.2,0,0.3,0,0.5,0c0.5,0,0.9,0,0.9,0
				c1.2,0.2,1.8,0.3,4.3,0.3c2.6,0,0.5-0.2,3.1-0.2c2.6,0,3.6,0.2,6.2,0.2c2.6,0,3.5,0,4.4,0c0.9-0.1,0.8-0.2,1.3-0.3
				c1.1,0,3.6,0,7.4-0.2c0.3,0.1-0.9,0.2-1.8,0.2c0,0.1,2,0.1,2.8,0.3c1.7-0.1,3.9-0.2,6.5-0.2c2.6,0,3.6,0.2,6.2,0.2
				c2.6,0-0.5-0.2,2.1-0.2c2.6,0,0.8,0.1,1.7,0.2c1.9,0,2.9,0,5.5,0c2.6,0,5.2,0,6.9-0.1v0c2.9,0,0.9,0.2,3.4,0.2
				c2.6,0,1.5-0.2,4.1-0.2c2.6,0,1.5,0.2,4.1,0.2c2.6,0,0.5-0.2,3.1-0.2c2.6,0,1.5,0.2,4.1,0.2c2.6,0,4.2-0.1,5.6-0.3
				c2.5,0.2,6.2,0.3,8.8,0.3c2.6,0,1.5-0.2,4.1-0.2c2.6,0,0.5,0.2,3.1,0.2s2.1,0,2.2-0.2c1.4,0,1.9,0.2,1.8,0.3h17.6
				c2.6,0-0.5-0.2,2.1-0.2c2.6,0,0.5,0.2,3.1,0.2c2.6,0,1.5-0.2,4.1-0.2c2.6,0,1.5,0.2,4.1,0.2c0.1,0,0.2,0,0.3,0c0,0,0,0,0,0
				c0,0,0,0,0.1,0c0,0,0-0.1,0-0.1c0.1,0.1,0.3,0.3,0.4,0.5c0.2,0,0.6,0.2,0.7,0.4c0.1,0,0.1-0.1,0.1-0.3h0.3c0.2,0,0.2,0.2,0.3,0.2
				c0,0.2,0.2,0.2,0.2,0.4c0,0.2-0.2,0.1-0.2,0.3s0.1,0.3,0.3,0.5c-0.2,0.3-0.3,0.5-0.5,0.8c-0.1,0-0.2-0.2-0.3-0.2v0.5H160
				c-0.2,0-0.1-0.1-0.1-0.2c-0.1,0-0.1,0.1-0.1,0.3c-0.1,0-0.1-0.1-0.2-0.1c-0.1,0-0.3,0-0.5,0l-0.3,0c-0.9,0-1.9,0-2.8,0
				c-4,0-7.5-0.1-8.8-0.1c-2.6,0-5.4,0-7.2,0.1C141.1,3.6,143,3.7,143.7,3.8z"/>
		</g>
	</g>
</g>
<g>
</g>
<g>
</g>
<g>
</g>
<g>
</g>
<g>
</g>
<g>
</g>
<g>
</g>
<g>
</g>
<g>
</g>
<g>
</g>
<g>
</g>
<g>
</g>
<g>
</g>
<g>
</g>
<g>
</g>
</svg>
