<?xml version="1.0" encoding="utf-8"?>
<!-- Generator: Adobe Illustrator 18.0.0, SVG Export Plug-In . SVG Version: 6.00 Build 0)  -->
<!DOCTYPE svg PUBLIC "-//W3C//DTD SVG 1.1//EN" "http://www.w3.org/Graphics/SVG/1.1/DTD/svg11.dtd">
<svg version="1.1" id="Layer_1" xmlns="http://www.w3.org/2000/svg" xmlns:xlink="http://www.w3.org/1999/xlink" x="0px" y="0px"
	 viewBox="0 0 152.3 132.3" enable-background="new 0 0 152.3 132.3" xml:space="preserve">
<g>
	<path fill="#FFFFFF" d="M150.5,1.6H1.5v107.2h11.4l-4.6,20.6c-0.3,1.2,1.1,2.1,2.1,1.3l28.1-22h112V1.6z"/>
	<g>
		<g>
			<path fill-rule="evenodd" clip-rule="evenodd" fill="#3A494F" d="M135.3,3.4c-1.2,0-2.7-0.1-4.4-0.1c-0.5-0.1-0.3-0.2-1.1-0.2
				c-2.6,0-4.3-0.2-6.6-0.2c-2.2,0-0.4,0.2-2.7,0.2c-2.2,0-1.3-0.2-3.6-0.2c-2.2,0-4.9,0.3-7.1,0.3S109.4,3,107.1,3
				c-2.2,0-1.3,0.2-3.6,0.2c-2.2,0-4.3-0.3-5.9-0.5C94.4,2.9,87,3,84.8,3C80.4,3,82,2.8,78,2.7c0,0,1,0-1.2,0
				c-2.2,0-1.3,0.2-3.6,0.2c-2.2,0-1.3-0.2-3.6-0.2c-1,0-3,0.2-3.8,0.4c-3.1-0.2-6.4-0.4-8.7-0.4S49.5,3,47.3,3
				c-2.2,0-0.4-0.2-2.7-0.2c-2.2,0-2.2,0.2-4.5,0.2c-4.6,0-0.4-0.3-3.6-0.3c-2.2,0-0.4,0.2-2.7,0.2c-2.2,0-3.1-0.2-5.4-0.2
				C26.3,2.8,17.3,3,15.1,3c-2.2,0-5.8-0.1-8-0.2c-1.1,0-2.5,0-3.8,0L3,2.9l-0.1,0c0,0,0,0-0.1,0l0,0.1c0,0.1,0,0.2,0,0.2l0,0.1
				c0,0.1,0,0,0,0.2c0,1-0.2,1.4-0.3,1.3v14.5c0.2-1,0.2-1.9,0.3-1.7c0,1.2-0.1,1.2-0.1,3.4c0,2.2,0.2,2.2,0.2,4.5
				c0,2.2-0.3,5.8-0.3,8c0,2.2,0.2,2.2,0.2,4.5c0,2.2-0.2,1.3-0.2,3.6c0,2.2,0.1,3.6,0.3,4.8c-0.1,1.3-0.3,0.1-0.3,2.3
				c0,2.2,0.2-0.4,0.2,1.8s-0.2-0.4-0.2,1.8c0,2.2,0.2-0.4,0.2,1.8c0,2.2-0.2,0.4-0.2,2.7s0.2,3.1,0.2,5.4c0,2.2,0,3.5-0.2,4.3
				c0,0.7,0.1,1.1,0.3,1.2c0,1.2-0.1,1.2-0.1,3.4s0.2,2.2,0.2,4.5c0,2.2-0.2,4.9-0.2,7.1c0,2.2,0.2,4.9,0.2,7.1
				c0,2.2-0.1,2.5-0.1,3.3c0,4.4,0,8.8-0.1,13.2c0,0.2-0.1,0-0.1,0.1c0,0,0,0.1,0,0.3c0,0.1,0,0.3,0,0.7c0,0.2-0.1,0.6,0.3,0.4
				c0.1,0,0.1,0,0.2,0l0.1,0l0.1,0l0.2,0c0.4,0,0.9,0,1.3-0.1c1.8-0.1,3.9-0.2,5.7-0.2c1.1,0,2.2-0.1,3.2-0.1c0,0,0.4,0,0.9,0
				c0.1,0,0.1,0,0.2,0c0,0,0,0.1,0,0.2c0,0.2-0.1,0.3-0.1,0.5c-0.1,0.3-0.2,0.7-0.2,1c-0.3,1.3-0.6,2.6-0.6,2.6c0,0,0-0.1,0-0.3
				c0.1-0.4,0.1-0.8,0.2-1.4c0.1-0.6,0.2-1.2,0.4-1.9c0-0.2,0.1-0.4,0.1-0.5c-0.2,0-0.4,0-0.6,0c-0.4,0-0.8,0-1.2,0.1
				c0,0,0.2,0,0.5,0c0.2,0,0.3,0,0.5,0c0.1,0,0.2,0,0.3,0h0.2h0.1c0,0,0,0,0,0l0,0c-0.2,1-0.5,2.3-0.8,3.7c-0.4,1.6-0.7,3.2-0.7,3.2
				c-0.5,2.2-0.1,1-0.5,3.2c-0.5,2.2-0.8,3-1.3,5.2c-0.5,2.2-0.1,1.3-0.6,3.5c-0.2,1.1-0.3,1.2-0.4,1.3c0,0.1-0.1,0.1-0.1,0.3
				c0,0.1-0.1,0.3-0.1,0.6c-0.1,0.3,0.1,0.6,0.3,0.6c0.1,0,0.2,0,0.3-0.1c0,0,0.1-0.1,0.1-0.1l0.1-0.1c0.1,0,0.1-0.1,0.2-0.1
				c1.8-1.3,6.1-4.6,7.8-5.9c1.3-1,4.3-3.3,5.1-4.2c1.1-0.7,2.6-1.8,3.3-2.2c1.9-1.5,2.3-1.7,2.2-1.8c-0.1-0.1-1.5,1-1.3,0.8
				c1.9-1.3,3.8-2.6,5.6-4c0.2-0.2,1.1-0.9,2.1-1.8c0.5-0.4,0.9-0.8,1.3-1.2c0.1-0.1,0.2-0.2,0.3-0.3c0.1-0.1,0.1-0.1,0.3-0.3
				c0.2-0.2,0.4-0.4,0.6-0.6c0.1-0.1,0.2-0.1,0.3-0.1h0.4h0.7h0.8h1.6c0.1,0.2,1.9,0.3,2.6,0.4c0.7,0,1.1-0.1,1.4-0.3
				c2.3,0.2,3.7,0.3,6,0.3s5.8-0.3,8-0.3c2.2,0,1.3,0.2,3.6,0.2c2.2,0,1.8,0,2.1-0.1c1.4,0.1,0.2,0.3,2.4,0.3s-0.4-0.2,1.8-0.2
				s2.2,0.2,4.5,0.2c3.9,0,4.8,0,5.5-0.4h3.3c0.1,0.1,1.5,0.4,2.8,0.4c2.2,0-0.4-0.2,1.8-0.2c2.2,0-0.4,0.2,1.8,0.2
				c2.2,0,3.3-0.2,4.9-0.3c1.3-0.1,2.7,0,4.9,0c2.2,0,11.2,0.3,13.4,0.3c7.7,0,5.4-0.3,8.9-0.3c3.8,0,1.2,0.3,8.9,0.3
				c2.2,0,4.9-0.2,7.1-0.2s6.1,0.2,8.6,0.3c0.8,0,1.2-0.1,1.3-0.3h1.9c0.1-0.1,0-0.3,0.1-0.4c0-0.1,0-0.1,0.1-0.3
				c0-0.4,0.1-0.7,0.1-1.5c0.1-0.5,0.2-0.4,0.3-1.1v-2.5c0-2.2-0.1-1.4-0.3-2.7c0-1.7,0-4.4-0.1-6.1c0-0.8-0.1,0.7-0.1-1.5
				c0-2.2,0.2-6.1,0.3-8.6c0-0.8-0.1-1.2-0.3-1.5c0.1-1.4,0.1-3.7,0.1-6s-0.1-4.7-0.1-6.6c0-1,0.2-1.4,0.3-1.3v-4.9
				c-0.1-0.7-0.2-0.6-0.3-0.7v-4.7c0-2.2,0.1-1,0.1-3.2s0-2.7-0.1-2.9c0.2-6.3,0.3-2.5,0.3-8.7c0-3.9-0.3-8.6-0.3-9.8
				c0-2.2,0.3-4,0.3-6.3s-0.2-0.4-0.2-2.7c0-2.2,0.2,0.4,0.2-1.8c0-2.2-0.1-7.4-0.3-10.3c0-0.7,0,0,0-2.2c0-1.1,0-2.4,0.1-3.7
				c0-0.6,0.1-1.2,0.1-1.8c0-0.1,0-0.3,0-0.4l0-0.2c0-0.1,0,0,0-0.1l0.1-0.1V3c-0.1-0.1-0.2,0-0.3-0.1c0.3-0.2,0.5-0.4,0.5-0.9
				c0.1,0,0.1,0.1,0.3,0.1c0.4,0,0.5-0.6,0.8-0.6c0.2,0,0.1,0,0.2,0c0,0.1,0.1,0.7,0.5,0.7c0.2,0,0.2-0.2,0.3-0.1
				c0,0.5,0.3,0.6,0.3,0.7c0,0.1,0,0.2-0.1,0.3l0,0l0,0c0,0,0,0,0,0l0,0.1l0,0.8c0,0.5,0,1,0,1.6c0,2.2,0.2,3.1,0.2,5.4
				s-0.1,0.7-0.1,1.5c-0.1,3.4-0.1,8.8-0.2,11c0,2.2-0.1,4.1,0,5.6c0.1,1.5,0.3,2.9,0.3,5.2c0,2.2-0.1,0.7-0.1,1.5
				c0,1.7,0,4.3,0,6.5c0,2.2,0,6.5,0.1,10.5c-0.1,0.2-0.1-0.8-0.2-1.6c-0.1,0-0.1,1.8-0.3,2.5c0,0.7,0.2,0.7,0.2,2.9
				c0,2.2-0.1,1.7-0.2,2.3c0.1,1.5,0,3.1,0.2,3.1c0.2,0,0.1-1.8,0.2-1.7v5c-0.2,1-0.3,2.4-0.3,4.7c0,2.2,0.2-0.4,0.2,1.8
				c0,2.2-0.2-0.4-0.2,1.8c0,2.2,0.2,1.3,0.2,3.6c0,2.2-0.2,2.2-0.2,4.5s0.1,5.9,0.2,8.3c0.1,1.6,0.2,2.6,0.3,3.9
				c-0.1,0.3-0.2-1.5-0.3-1.6c0,4.2-0.1,10.4-0.1,12.6c0,1.4,0,2.9,0,4.2c0,0.2,0,0.5,0,0.7l0,0.3c0,0,0,0.1,0,0.1l-0.1,0l-0.2,0
				c-0.4,0-0.8,0-1.2,0c-0.4,0-0.8,0-1.1,0c-0.2,0-0.4,0-0.5,0l-0.3,0v0c-2.5,0-1.1-0.1-1.8-0.2c-0.7,0-1.2,0.1-1.3,0.3
				c-1.2,0-0.3-0.1-2.5-0.1c-2.2,0-0.9,0-1,0.1c-1.2,0-1.7-0.2-1.5-0.3c-4.2,0-9.5,0-14,0c-0.4-0.1,0.9-0.1-1.3-0.1
				s-8.5,0.3-10.7,0.3c-2.2,0-3.1-0.3-5.4-0.3s0.4,0.2-1.8,0.2c-2.2,0-4.4-0.2-5.1-0.3c-0.7,0-1.1,0.1-1.2,0.3h-3.3
				c-0.1-0.1-1.9-0.2-2.5-0.3c-0.6,0-2.3,0.1-3.1,0.4h-3.3c-0.1-0.1,1.7-0.2,1.7-0.2c-0.8-0.1,0.4-0.1-1.8-0.1c-2.2,0-4,0.3-6.3,0.3
				s-1.3-0.2-3.6-0.2c-2.2,0-1.3,0.2-3.6,0.2c-2.2,0-0.4-0.2-2.7-0.2c-2.2,0-1.8,0-2.1,0.1c-1.3-0.1-2.6-0.2-4-0.3
				c-1.5-0.1-4.2,0-6.4,0c-2.2,0-4.9,0-6.6,0c-1,0-1.6,0.1-2.9,0.3c0,0,1,0-1.3,0c-2.2,0-3.1-0.2-4.3-0.3c-0.6,0-1.5,0-3.7,0
				c-0.7,0-1.3,0-1.9,0c0,0-0.1,0-0.1,0l-0.1,0.1c-0.2,0.1-0.3,0.2-0.4,0.4c-0.7,0.5-1.1,0.9-1.4,1.2c-0.9,0.9-0.9,1-2.7,2.3
				c-2.3,1.8-2.8,1.9-5.7,3.8l-1.9,1.5c-0.5,0.5-0.5,0.3-0.4,0.5s1.5-1,1.5-0.8l-5.1,4c-1.8,1.4-1.9,1.3-3.7,2.7
				c-1.8,1.4-2.5,2.1-3.6,3c-0.3,0.1,1.1-1.1,1.1-1.1c-0.7,0.4,0.3-0.3-1.5,1.1s-1,0.9-2.7,2.3c-0.4,0.3-0.6,0.5-0.9,0.7
				c-0.3,0.2-0.5,0.4-0.7,0.4c-0.4,0.2-0.6,0.2-0.8,0.2c-0.2,0-0.5,0-0.8,0c-0.4-0.1-0.9-0.2-1.5-0.8c-0.3-0.3-0.4-0.6-0.5-1
				c-0.1-0.3-0.1-0.7-0.1-1.1c0-0.4,0.2-0.8,0.2-1.3l0.1-0.8c0.2-1,0.4-2,0.6-3.1c0.5-2.2,0.8-3,1.3-5.2c0.5-2.2-0.2,0.4,0.2-1.8
				c0.5-2.2,0.2-0.4,0.7-2.6c0.5-2.2-0.1-0.5,0.4-2.6l0.2-0.8l0.1-0.4c0-0.1,0-0.1,0-0.1c0.1-0.2,0.1-0.3,0.2-0.4l0.1-0.1
				c0,0,0,0-0.1,0c0,0-0.1,0-0.1-0.1c-0.1,0-0.2-0.1-0.2-0.1l-0.2,0l-0.1,0l-0.2,0c-1.1,0-2.1,0-2.1,0.2c0,0.2,1.8,0.1,1.7,0.2
				c-3,0-3-0.1-5.2-0.1c-0.6,0-0.9,0-1.2,0c-0.4,0-0.6,0-0.7,0c-0.4,0-0.3,0.1-0.6,0.1c-0.6,0-1.2,0-1.7-0.1l-0.4,0c0,0-0.1,0-0.1,0
				l0-0.1l0-0.2c0-0.3,0-0.5,0-0.8c0-0.9,0.1-1.7,0.1-2.6c0-0.7,0.1-1.5,0.1-2.4c0-2.2-0.2-3.1-0.2-4.9c0-0.9,0.2-1.1,0.3-3.3H0
				v-6.8c0.1-0.1,0.2-1.9,0.3-2.5c-0.1-2.3-0.3-7-0.3-9.3s0.2-4.4,0.3-5.1c0-0.7-0.1-1.1-0.3-1.3c0.1-4,0.3-11,0.3-13.2
				c0-3,0-2.9-0.3-2.8v-4.7c0-2.2,0.3-5.5,0.3-7.7s-0.2-1.3-0.2-3.6c0-2.2,0.2-4,0.2-6.3c0-2.2-0.2-3.1-0.2-5.4
				c0-2.2,0.2,0.4,0.2-1.8c0-2.2-0.2-1.3-0.2-3.6s0.2-3.1,0.2-5.4S0.2,15.2,0.2,13c0-2.2,0.2,0.4,0.2-1.8c0-2.2-0.2-1.3-0.2-3.6
				c0-1.1,0-2.2,0.1-3.1c0-0.5,0.1-0.9,0.1-1.3c0-0.6,0.1-1,0.1-1.3c0-0.5,0-1-0.1-1.4c0-0.1,0.1-0.1,0.1-0.1c0.1,0,0.1,0,0.2,0
				c0.1,0,0.1-0.1,0.2-0.1c1.1,0,1.2,0,1.6,0.1c0.2,0,0.4,0,0.8,0.1c0.3,0,0.6,0,1.2,0c2.2,0-0.4-0.2,1.8-0.2c2.2,0-0.4,0.2,1.8,0.2
				c2.2,0,1-0.1,1.4-0.1c1.7,0,7,0.1,8.6-0.2c1.1,0,1.6,0.2,1.8,0.2c1.3,0.1,2.9,0.2,5.1,0.2c1.3,0,3-0.2,3.7-0.4h5
				c1,0.2,1.5,0.3,3.8,0.3c2.2,0,0.4-0.2,2.7-0.2s3.1,0.2,5.4,0.2c2.2,0,3,0,3.8,0c0.8-0.1,0.7-0.2,1.1-0.3c0.9,0,3.2,0,6.4-0.2
				c0.2,0.1-0.8,0.1-1.6,0.2c0,0.1,1.8,0.1,2.4,0.3c1.4-0.1,3.4-0.2,5.7-0.2c2.2,0,3.1,0.2,5.4,0.2s-0.4-0.2,1.8-0.2
				s0.7,0.1,1.5,0.1c1.7,0,2.5,0,4.7,0c2.2,0,4.6,0,6-0.1v0c2.5,0,0.7,0.2,3,0.2s1.3-0.2,3.6-0.2c2.2,0,1.3,0.2,3.6,0.2
				c2.2,0,0.4-0.2,2.7-0.2s1.3,0.2,3.6,0.2s3.6-0.1,4.8-0.3c2.2,0.2,5.4,0.3,7.7,0.3s1.3-0.2,3.6-0.2c2.2,0,0.4,0.2,2.7,0.2
				c2.2,0,1.8,0,1.9-0.1c1.2,0,1.7,0.2,1.5,0.3h15.3c2.2,0-0.4-0.2,1.8-0.2s0.4,0.2,2.7,0.2s1.3-0.2,3.6-0.2c2.2,0,1.3,0.2,3.6,0.2
				c0.1,0,0.2,0,0.2,0c0,0,0,0,0,0c0,0,0,0,0,0c0,0,0-0.1,0-0.1c0.1,0.1,0.3,0.2,0.3,0.4c0.2,0,0.5,0.2,0.6,0.3
				c0.1,0,0.1-0.1,0.1-0.3h0.3c0.2,0,0.2,0.1,0.3,0.2c0,0.1,0.2,0.1,0.2,0.3c0,0.2-0.2,0.1-0.2,0.3c0,0.2,0.1,0.3,0.3,0.4
				c-0.2,0.3-0.3,0.5-0.5,0.7c-0.1,0-0.2-0.1-0.3-0.2v0.5h-0.2c-0.2,0-0.1-0.1-0.1-0.1c-0.1,0-0.1,0.1-0.1,0.3
				c-0.1,0-0.1-0.1-0.2-0.1c-0.1,0-0.3,0-0.4,0l-0.2,0c-0.8,0-1.6,0-2.4,0c-3.5,0-6.5-0.1-7.6-0.1c-2.2,0-4.7,0-6.3,0
				C133,3.2,134.7,3.3,135.3,3.4z"/>
		</g>
	</g>
</g>
<g>
</g>
<g>
</g>
<g>
</g>
<g>
</g>
<g>
</g>
<g>
</g>
<g>
</g>
<g>
</g>
<g>
</g>
<g>
</g>
<g>
</g>
<g>
</g>
<g>
</g>
<g>
</g>
<g>
</g>
</svg>
