<?xml version="1.0" encoding="utf-8"?>
<!-- Generator: Adobe Illustrator 18.0.0, SVG Export Plug-In . SVG Version: 6.00 Build 0)  -->
<!DOCTYPE svg PUBLIC "-//W3C//DTD SVG 1.1//EN" "http://www.w3.org/Graphics/SVG/1.1/DTD/svg11.dtd">
<svg version="1.1" id="Layer_1" xmlns="http://www.w3.org/2000/svg" xmlns:xlink="http://www.w3.org/1999/xlink" x="0px" y="0px"
	 viewBox="0 0 106.8 92.8" enable-background="new 0 0 106.8 92.8" xml:space="preserve">
<g>
	<path fill="#FFFFFF" d="M105.5,1.1H1v75.2h8L5.8,90.8c-0.2,0.8,0.8,1.5,1.5,0.9L27,76.3h78.5V1.1z"/>
	<g>
		<g>
			<path fill-rule="evenodd" clip-rule="evenodd" fill="#3A494F" d="M94.9,2.4c-0.8,0-1.9-0.1-3.1-0.1c-0.3,0-0.2-0.1-0.8-0.2
				c-1.8,0-3-0.1-4.6-0.1s-0.3,0.1-1.9,0.1C83,2.1,83.6,2,82,2c-1.6,0-3.4,0.2-5,0.2c-1.6,0-0.3-0.1-1.9-0.1s-0.9,0.1-2.5,0.1
				c-1.6,0-3-0.2-4.1-0.3c-2.3,0.1-7.5,0.2-9,0.2c-3.1,0-2-0.1-4.8-0.2c0,0,0.7,0-0.9,0c-1.6,0-0.9,0.1-2.5,0.1s-0.9-0.1-2.5-0.1
				c-0.7,0-2.1,0.1-2.7,0.3c-2.2-0.1-4.5-0.3-6.1-0.3s-5.3,0.2-6.9,0.2c-1.6,0-0.3-0.1-1.9-0.1c-1.6,0-1.6,0.1-3.1,0.1
				c-3.2,0-0.3-0.2-2.5-0.2c-1.6,0-0.3,0.1-1.9,0.1c-1.6,0-2.2-0.1-3.8-0.1c-1.5,0-7.9,0.2-9.4,0.2C9.1,2.1,6.5,2,5,2
				C4.2,2,3.2,2,2.3,2l-0.2,0c0,0-0.2,0-0.1,0.1c0,0.1,0,0.3,0,0.4c0,0.7-0.1,1-0.2,0.9v10.2c0.1-0.7,0.1-1.3,0.2-1.2
				c0,0.8-0.1,0.8-0.1,2.4c0,1.6,0.1,1.6,0.1,3.1S1.8,22,1.8,23.5s0.1,1.6,0.1,3.1c0,1.6-0.1,0.9-0.1,2.5s0.1,2.5,0.2,3.4
				c-0.1,0.9-0.2,0.1-0.2,1.6s0.1-0.3,0.1,1.3s-0.1-0.3-0.1,1.3c0,1.6,0.1-0.3,0.1,1.3c0,1.6-0.1,0.3-0.1,1.9s0.1,2.2,0.1,3.8
				c0,1.6,0,2.5-0.1,3c0,0.5,0.1,0.8,0.2,0.9c0,0.8-0.1,0.8-0.1,2.4C1.9,51.4,2,51.4,2,53c0,1.5-0.1,3.5-0.1,5c0,1.5,0.1,3.5,0.1,5
				c0,1.6-0.1,1.7-0.1,2.3c0,3.1,0,6.2,0,9.2c0,0.2,0,0-0.1,0c0,0,0,0.1,0,0.2c0,0.1,0,0.2,0,0.5c0,0.1-0.1,0.4,0.2,0.3
				c0.1,0,0.3,0,0.4,0c0.3,0,0.6,0,0.9,0c1.3-0.1,2.7-0.1,4-0.2c0.8,0,1.6,0,2.2-0.1c0,0,0.3,0,0.6,0c0,0,0.1,0,0.1,0
				c0,0,0,0.1,0,0.1c0,0.1,0,0.2-0.1,0.3c-0.1,0.2-0.1,0.5-0.2,0.7c-0.2,0.9-0.4,1.8-0.4,1.8c0,0,0-0.1,0-0.2c0-0.3,0.1-0.6,0.2-1
				c0.1-0.4,0.2-0.8,0.3-1.4c0-0.1,0.1-0.3,0-0.3c-0.1,0-0.3,0-0.4,0c-0.3,0-0.5,0-0.8,0c0,0,0.5,0,1.2,0c-0.2,0.7-0.4,1.6-0.6,2.6
				C9.3,79.2,9,80.4,9,80.4c-0.3,1.5,0,0.7-0.4,2.2c-0.3,1.5-0.6,2.1-0.9,3.6c-0.3,1.5-0.1,0.9-0.4,2.5c-0.2,0.8-0.2,0.8-0.3,0.9
				c0,0,0,0.1-0.1,0.2c0,0.1-0.1,0.2-0.1,0.4c-0.1,0.2,0,0.4,0.2,0.4c0.1,0,0.2,0,0.2-0.1l0.1-0.1c0,0,0.1-0.1,0.2-0.1
				c1.2-0.9,4.3-3.2,5.5-4.2c0.9-0.7,3-2.3,3.6-2.9c0.8-0.5,1.8-1.3,2.3-1.5c1.3-1.1,1.6-1.2,1.6-1.3c-0.1-0.1-1,0.7-0.9,0.5
				c1.3-0.9,2.7-1.8,3.9-2.8c0.2-0.1,0.8-0.7,1.4-1.2c0.3-0.3,0.6-0.6,0.9-0.8c0.1-0.1,0.3-0.3,0.4-0.4c0.2-0.2,0.3-0.3,0.4-0.4
				c0.1-0.1,0.2-0.1,0.2-0.1h0.3h0.5h0.6h1.2c0.1,0.1,1.3,0.2,1.8,0.3c0.5,0,0.8-0.1,1-0.2c1.6,0.1,2.6,0.2,4.2,0.2
				c1.6,0,4.1-0.2,5.6-0.2c1.6,0,0.9,0.1,2.5,0.1s1.3,0,1.4-0.1c1,0.1,0.1,0.2,1.7,0.2c1.6,0-0.3-0.1,1.3-0.1c1.6,0,1.6,0.1,3.1,0.1
				c2.7,0,3.4,0,3.9-0.3h2.3c0.1,0.1,1,0.3,2,0.3c1.6,0-0.3-0.1,1.3-0.1c1.6,0-0.3,0.1,1.3,0.1c1.6,0,2.3-0.1,3.4-0.2
				c0.9-0.1,1.9,0,3.5,0c1.5,0,7.9,0.2,9.4,0.2c5.4,0,3.8-0.2,6.3-0.2c2.7,0,0.9,0.2,6.3,0.2c1.5,0,3.5-0.1,5-0.1
				c1.6,0,4.2,0.1,6,0.2c0.5,0,0.8-0.1,0.9-0.2h1.3c0-0.2,0-0.3,0.1-0.4c0-0.3,0.1-0.5,0.1-1.1c0-0.3,0.1-0.3,0.2-0.8v-1.8
				c0-1.6-0.1-1-0.2-1.9c0-1.2,0-3.1,0-4.3c0-0.6-0.1,0.5-0.1-1.1s0.1-4.2,0.2-6c0-0.5-0.1-0.8-0.2-1c0.1-1,0.1-2.6,0.1-4.2
				s-0.1-3.3-0.1-4.6c0-0.7,0.1-1,0.2-0.9v-3.4c0-0.5-0.1-0.4-0.2-0.5v-3.3c0-1.6,0.1-0.7,0.1-2.3c0-1.6,0-1.9-0.1-2
				c0.1-4.4,0.2-1.7,0.2-6.1c0-2.7-0.2-6-0.2-6.9c0-1.6,0.2-2.8,0.2-4.4s-0.1-0.3-0.1-1.9s0.1,0.3,0.1-1.3c0-1.6-0.1-5.2-0.2-7.2
				c0-0.5,0,0,0-1.5c0-0.8,0-1.7,0.1-2.6c0-0.4,0-0.8,0.1-1.2l0-0.3c0-0.1,0-0.2,0-0.2l0,0V2.1c0,0-0.1,0-0.2-0.1
				c0.2-0.2,0.3-0.3,0.3-0.6c0.1,0,0.1,0.1,0.2,0.1c0.3,0,0.4-0.4,0.6-0.4c0.1,0,0.1,0,0.1,0c0,0.1,0.1,0.5,0.3,0.5
				c0.1,0,0.1-0.1,0.2-0.1c0,0.3,0.2,0.4,0.2,0.5c0,0.1,0,0.1-0.1,0.2l0,0c0,0,0,0,0,0.1l0,0.5c0,0.4,0,0.7,0,1.1
				c0,1.6,0.1,2.2,0.1,3.8c0,1.6-0.1,0.5-0.1,1c0,2.4-0.1,6.2-0.1,7.7c0,1.6-0.1,2.9,0,3.9c0.1,1,0.2,2.1,0.2,3.6s-0.1,0.5-0.1,1.1
				c0,1.2,0,3,0,4.6c0,1.6,0,4.6,0.1,7.4c-0.1,0.1-0.1-0.6-0.1-1.1c0,0-0.1,1.2-0.2,1.8c0,0.5,0.1,0.5,0.1,2s-0.1,1.2-0.1,1.6
				c0.1,1.1,0,2.1,0.2,2.1s0.1-1.3,0.2-1.2v3.5c-0.1,0.7-0.2,1.7-0.2,3.3c0,1.6,0.1-0.3,0.1,1.3c0,1.6-0.1-0.3-0.1,1.3
				s0.1,0.9,0.1,2.5c0,1.6-0.1,1.6-0.1,3.1s0.1,4.2,0.1,5.8c0,1.1,0.1,1.8,0.2,2.8c-0.1,0.2-0.1-1.1-0.2-1.2c0,2.9-0.1,7.3-0.1,8.9
				c0,1,0,2,0,2.9c0,0.2,0,0.3,0,0.5l0,0.2c0,0,0,0,0,0.1l-0.1,0l-0.1,0c-0.3,0-0.6,0-0.9,0c-0.3,0-0.5,0-0.8,0l-0.4,0l-0.2,0v0
				c-1.8,0-0.7-0.1-1.3-0.1c-0.5,0-0.8,0.1-0.9,0.2c-0.8,0-0.2-0.1-1.8-0.1s-0.6,0-0.7,0.1c-0.8,0-1.2-0.1-1.1-0.2
				c-2.9,0-6.7,0-9.8,0c-0.3,0,0.7-0.1-0.9-0.1c-1.6,0-6,0.2-7.5,0.2c-1.6,0-2.2-0.2-3.8-0.2c-1.6,0,0.3,0.1-1.3,0.1
				c-1.6,0-3.1-0.1-3.6-0.2c-0.5,0-0.8,0.1-0.9,0.2h-2.3c-0.1-0.1-1.3-0.1-1.7-0.2c-0.4,0-1.6,0.1-2.2,0.3H62
				c-0.1-0.1,1.2-0.1,1.2-0.2c-0.6,0,0.3,0-1.3,0c-1.6,0-2.8,0.2-4.4,0.2c-1.6,0-0.9-0.1-2.5-0.1s-0.9,0.1-2.5,0.1
				c-1.6,0-0.3-0.1-1.9-0.1c-1.6,0-1.3,0-1.4,0.1c-0.9-0.1-1.8-0.1-2.8-0.2c-1-0.1-3,0-4.5,0c-1.6,0-3.4,0-4.6,0
				c-0.7,0-1.1,0.1-2,0.2c0,0,0.7,0-0.9,0c-1.6,0-2.2-0.1-3-0.2c-0.4,0-1,0-2.6,0c-0.5,0-0.9,0-1.3,0c-0.1,0-0.1,0-0.2,0.1
				c-0.1,0.1-0.2,0.2-0.3,0.2c-0.5,0.4-0.8,0.6-1,0.8c-0.7,0.6-0.7,0.7-1.9,1.6c-1.6,1.3-2,1.3-4,2.7l-1.3,1
				c-0.4,0.3-0.3,0.2-0.3,0.3c0.1,0.1,1.1-0.7,1-0.6L16,86.3c-1.2,1-1.4,0.9-2.6,1.9c-1.2,1-1.8,1.4-2.5,2.1
				c-0.2,0.1,0.8-0.8,0.7-0.8c-0.5,0.3,0.2-0.2-1,0.8c-1.2,1-0.7,0.7-1.9,1.6c-0.2,0.2-0.4,0.3-0.6,0.5c-0.2,0.1-0.3,0.2-0.5,0.3
				c-0.3,0.1-0.4,0.1-0.6,0.2c-0.2,0-0.3,0-0.6,0c-0.2-0.1-0.6-0.2-1-0.6c-0.4-0.4-0.5-0.9-0.4-1.5c0-0.3,0.1-0.6,0.2-0.9l0.1-0.6
				c0.1-0.7,0.3-1.4,0.4-2.2C6,85.6,6.3,85,6.6,83.4s-0.2,0.3,0.2-1.2c0.3-1.5,0.2-0.3,0.5-1.8c0.3-1.5,0-0.3,0.3-1.9L7.7,78
				l0.1-0.3c0-0.1,0-0.1,0-0.1c0-0.1,0.1-0.2,0.1-0.3c0.1-0.2-0.1-0.1-0.1-0.2c-0.1,0-0.1,0-0.2-0.1l-0.1,0l-0.1,0l-0.1,0
				c-0.8,0-1.5,0-1.5,0.1c0,0.1,1.3,0.1,1.2,0.2c-2.1,0-2.1-0.1-3.7-0.1c-0.8,0-1,0-1.4,0c-0.3,0-0.2,0-0.4,0.1c-0.4,0-0.8,0-1.2,0
				l-0.3,0c-0.1,0-0.1,0-0.1-0.1l0-0.1c0-0.2,0-0.4,0-0.6c0-0.6,0.1-1.2,0.1-1.8c0-0.5,0-1.1,0-1.7c0-1.6-0.1-2.2-0.1-3.4
				c0-0.6,0.1-0.8,0.2-2.3H0v-4.8c0.1-0.1,0.1-1.3,0.2-1.7C0.1,59.1,0,55.8,0,54.2c0-1.6,0.1-3.1,0.2-3.6c0-0.5-0.1-0.8-0.2-0.9
				c0.1-2.8,0.2-7.7,0.2-9.2c0-2.1,0-2-0.2-2v-3.3c0-1.6,0.2-3.8,0.2-5.4s-0.1-0.9-0.1-2.5c0-1.6,0.1-2.8,0.1-4.4s-0.1-2.2-0.1-3.8
				c0-1.6,0.1,0.3,0.1-1.3S0.1,17,0.1,15.4c0-1.6,0.1-2.2,0.1-3.8s-0.1-0.9-0.1-2.5c0-1.6,0.1,0.3,0.1-1.3c0-1.6-0.1-0.9-0.1-2.5
				c0-0.8,0-1.6,0.1-2.2c0-0.3,0-0.6,0.1-0.9c0-0.4,0.1-0.7,0.1-0.9c0-0.4,0-0.7-0.1-1c0-0.1,0-0.1,0.1-0.1c0,0,0.1,0,0.1,0
				c0.1,0,0.1-0.1,0.1-0.1c0.7,0,0.8,0,1.1,0c0.1,0,0.3,0,0.6,0c0.2,0,0.4,0,0.8,0c1.6,0-0.3-0.1,1.3-0.1S4,0.3,5.6,0.3s0.7,0,1-0.1
				c1.2,0,4.9,0.1,6-0.1c0.8,0,1.1,0.1,1.3,0.2c0.9,0,2,0.1,3.6,0.1c0.9,0,2.1-0.1,2.6-0.3h3.5c0.7,0.1,1.1,0.2,2.6,0.2
				c1.6,0,0.3-0.1,1.9-0.1s2.2,0.1,3.8,0.1c1.6,0,2.1,0,2.7,0c0.6,0,0.5-0.1,0.8-0.2c0.7,0,2.2,0,4.5-0.1c0.2,0.1-0.6,0.1-1.1,0.1
				c0,0,1.2,0.1,1.7,0.2c1-0.1,2.4-0.1,4-0.1c1.6,0,2.2,0.1,3.8,0.1c1.6,0-0.3-0.1,1.3-0.1c1.6,0,0.5,0.1,1.1,0.1c1.2,0,1.8,0,3.3,0
				c1.6,0,3.2,0,4.2-0.1v0c1.8,0,0.5,0.1,2.1,0.1c1.6,0,0.9-0.1,2.5-0.1s0.9,0.1,2.5,0.1c1.6,0,0.3-0.1,1.9-0.1
				c1.6,0,0.9,0.1,2.5,0.1c1.6,0,2.5-0.1,3.4-0.2c1.5,0.1,3.8,0.2,5.4,0.2c1.6,0,0.9-0.1,2.5-0.1c1.6,0,0.3,0.1,1.9,0.1
				c1.6,0,1.3,0,1.3-0.1c0.8,0,1.2,0.1,1.1,0.2h10.7c1.6,0-0.3-0.1,1.3-0.1s0.3,0.1,1.9,0.1s0.9-0.1,2.5-0.1c1.6,0,0.9,0.1,2.5,0.1
				c0.1,0,0.1,0,0.2,0c0,0,0,0,0,0c0,0,0,0,0,0c0,0,0,0,0-0.1c0.1,0.1,0.2,0.2,0.2,0.3c0.1,0,0.4,0.1,0.4,0.2c0,0,0.1-0.1,0.1-0.2
				h0.2c0.1,0,0.1,0.1,0.2,0.1c0,0.1,0.1,0.1,0.1,0.2s-0.1,0.1-0.1,0.2s0.1,0.2,0.2,0.3c-0.1,0.2-0.2,0.3-0.3,0.5
				c-0.1,0-0.1-0.1-0.2-0.1v0.3h-0.2c-0.1,0,0-0.1-0.1-0.1c0,0-0.1,0.1-0.1,0.2c-0.1,0-0.1,0-0.1-0.1c-0.1,0-0.2,0-0.3,0l-0.2,0
				c-0.6,0-1.1,0-1.7,0c-2.5,0-4.6,0-5.3-0.1c-1.6,0-3.3,0-4.4,0C93.3,2.2,94.5,2.3,94.9,2.4z"/>
		</g>
	</g>
</g>
<g>
</g>
<g>
</g>
<g>
</g>
<g>
</g>
<g>
</g>
<g>
</g>
<g>
</g>
<g>
</g>
<g>
</g>
<g>
</g>
<g>
</g>
<g>
</g>
<g>
</g>
<g>
</g>
<g>
</g>
</svg>
